<svg width="281" height="276" viewBox="0 0 281 276" fill="none" xmlns="http://www.w3.org/2000/svg">
<path d="M94.3516 243.055L93.5312 240.898H86.5469L85.7266 243.102C85.4062 243.961 85.1328 244.543 84.9062 244.848C84.6797 245.145 84.3086 245.293 83.793 245.293C83.3555 245.293 82.9688 245.133 82.6328 244.812C82.2969 244.492 82.1289 244.129 82.1289 243.723C82.1289 243.488 82.168 243.246 82.2461 242.996C82.3242 242.746 82.4531 242.398 82.6328 241.953L87.0273 230.797C87.1523 230.477 87.3008 230.094 87.4727 229.648C87.6523 229.195 87.8398 228.82 88.0352 228.523C88.2383 228.227 88.5 227.988 88.8203 227.809C89.1484 227.621 89.5508 227.527 90.0273 227.527C90.5117 227.527 90.9141 227.621 91.2344 227.809C91.5625 227.988 91.8242 228.223 92.0195 228.512C92.2227 228.801 92.3906 229.113 92.5234 229.449C92.6641 229.777 92.8398 230.219 93.0508 230.773L97.5391 241.859C97.8906 242.703 98.0664 243.316 98.0664 243.699C98.0664 244.098 97.8984 244.465 97.5625 244.801C97.2344 245.129 96.8359 245.293 96.3672 245.293C96.0938 245.293 95.8594 245.242 95.6641 245.141C95.4688 245.047 95.3047 244.918 95.1719 244.754C95.0391 244.582 94.8945 244.324 94.7383 243.98C94.5898 243.629 94.4609 243.32 94.3516 243.055ZM87.4609 238.285H92.5938L90.0039 231.195L87.4609 238.285ZM110.898 230.504H104.043V234.898H109.773C110.305 234.898 110.699 235.02 110.957 235.262C111.223 235.496 111.355 235.812 111.355 236.211C111.355 236.609 111.223 236.926 110.957 237.16C110.691 237.395 110.297 237.512 109.773 237.512H104.043V243.172C104.043 243.891 103.879 244.426 103.551 244.777C103.23 245.121 102.816 245.293 102.309 245.293C101.793 245.293 101.371 245.117 101.043 244.766C100.723 244.414 100.562 243.883 100.562 243.172V229.953C100.562 229.453 100.637 229.047 100.785 228.734C100.934 228.414 101.164 228.184 101.477 228.043C101.797 227.895 102.203 227.82 102.695 227.82H110.898C111.453 227.82 111.863 227.945 112.129 228.195C112.402 228.438 112.539 228.758 112.539 229.156C112.539 229.562 112.402 229.891 112.129 230.141C111.863 230.383 111.453 230.504 110.898 230.504ZM125.406 230.504H118.551V234.898H124.281C124.812 234.898 125.207 235.02 125.465 235.262C125.73 235.496 125.863 235.812 125.863 236.211C125.863 236.609 125.73 236.926 125.465 237.16C125.199 237.395 124.805 237.512 124.281 237.512H118.551V243.172C118.551 243.891 118.387 244.426 118.059 244.777C117.738 245.121 117.324 245.293 116.816 245.293C116.301 245.293 115.879 245.117 115.551 244.766C115.23 244.414 115.07 243.883 115.07 243.172V229.953C115.07 229.453 115.145 229.047 115.293 228.734C115.441 228.414 115.672 228.184 115.984 228.043C116.305 227.895 116.711 227.82 117.203 227.82H125.406C125.961 227.82 126.371 227.945 126.637 228.195C126.91 228.438 127.047 228.758 127.047 229.156C127.047 229.562 126.91 229.891 126.637 230.141C126.371 230.383 125.961 230.504 125.406 230.504ZM138.836 243.055L138.016 240.898H131.031L130.211 243.102C129.891 243.961 129.617 244.543 129.391 244.848C129.164 245.145 128.793 245.293 128.277 245.293C127.84 245.293 127.453 245.133 127.117 244.812C126.781 244.492 126.613 244.129 126.613 243.723C126.613 243.488 126.652 243.246 126.73 242.996C126.809 242.746 126.938 242.398 127.117 241.953L131.512 230.797C131.637 230.477 131.785 230.094 131.957 229.648C132.137 229.195 132.324 228.82 132.52 228.523C132.723 228.227 132.984 227.988 133.305 227.809C133.633 227.621 134.035 227.527 134.512 227.527C134.996 227.527 135.398 227.621 135.719 227.809C136.047 227.988 136.309 228.223 136.504 228.512C136.707 228.801 136.875 229.113 137.008 229.449C137.148 229.777 137.324 230.219 137.535 230.773L142.023 241.859C142.375 242.703 142.551 243.316 142.551 243.699C142.551 244.098 142.383 244.465 142.047 244.801C141.719 245.129 141.32 245.293 140.852 245.293C140.578 245.293 140.344 245.242 140.148 245.141C139.953 245.047 139.789 244.918 139.656 244.754C139.523 244.582 139.379 244.324 139.223 243.98C139.074 243.629 138.945 243.32 138.836 243.055ZM131.945 238.285H137.078L134.488 231.195L131.945 238.285ZM148.527 229.637V242.141H155.582C156.145 242.141 156.574 242.277 156.871 242.551C157.176 242.824 157.328 243.168 157.328 243.582C157.328 244.004 157.18 244.348 156.883 244.613C156.586 244.871 156.152 245 155.582 245H147.18C146.422 245 145.875 244.832 145.539 244.496C145.211 244.16 145.047 243.617 145.047 242.867V229.637C145.047 228.934 145.203 228.406 145.516 228.055C145.836 227.703 146.254 227.527 146.77 227.527C147.293 227.527 147.715 227.703 148.035 228.055C148.363 228.398 148.527 228.926 148.527 229.637ZM161.781 227.82H166.316C167.496 227.82 168.508 227.93 169.352 228.148C170.195 228.367 170.961 228.777 171.648 229.379C173.438 230.91 174.332 233.238 174.332 236.363C174.332 237.395 174.242 238.336 174.062 239.188C173.883 240.039 173.605 240.809 173.23 241.496C172.855 242.176 172.375 242.785 171.789 243.324C171.328 243.738 170.824 244.07 170.277 244.32C169.73 244.57 169.141 244.746 168.508 244.848C167.883 244.949 167.176 245 166.387 245H161.852C161.219 245 160.742 244.906 160.422 244.719C160.102 244.523 159.891 244.254 159.789 243.91C159.695 243.559 159.648 243.105 159.648 242.551V229.953C159.648 229.203 159.816 228.66 160.152 228.324C160.488 227.988 161.031 227.82 161.781 227.82ZM163.129 230.574V242.234H165.766C166.344 242.234 166.797 242.219 167.125 242.188C167.453 242.156 167.793 242.078 168.145 241.953C168.496 241.828 168.801 241.652 169.059 241.426C170.223 240.441 170.805 238.746 170.805 236.34C170.805 234.645 170.547 233.375 170.031 232.531C169.523 231.688 168.895 231.152 168.145 230.926C167.395 230.691 166.488 230.574 165.426 230.574H163.129ZM190.445 239.844C190.445 240.883 190.176 241.816 189.637 242.645C189.105 243.473 188.324 244.121 187.293 244.59C186.262 245.059 185.039 245.293 183.625 245.293C181.93 245.293 180.531 244.973 179.43 244.332C178.648 243.871 178.012 243.258 177.52 242.492C177.035 241.719 176.793 240.969 176.793 240.242C176.793 239.82 176.938 239.461 177.227 239.164C177.523 238.859 177.898 238.707 178.352 238.707C178.719 238.707 179.027 238.824 179.277 239.059C179.535 239.293 179.754 239.641 179.934 240.102C180.152 240.648 180.387 241.105 180.637 241.473C180.895 241.84 181.254 242.145 181.715 242.387C182.176 242.621 182.781 242.738 183.531 242.738C184.562 242.738 185.398 242.5 186.039 242.023C186.688 241.539 187.012 240.938 187.012 240.219C187.012 239.648 186.836 239.188 186.484 238.836C186.141 238.477 185.691 238.203 185.137 238.016C184.59 237.828 183.855 237.629 182.934 237.418C181.699 237.129 180.664 236.793 179.828 236.41C179 236.02 178.34 235.492 177.848 234.828C177.363 234.156 177.121 233.324 177.121 232.332C177.121 231.387 177.379 230.547 177.895 229.812C178.41 229.078 179.156 228.516 180.133 228.125C181.109 227.727 182.258 227.527 183.578 227.527C184.633 227.527 185.543 227.66 186.309 227.926C187.082 228.184 187.723 228.531 188.23 228.969C188.738 229.398 189.109 229.852 189.344 230.328C189.578 230.805 189.695 231.27 189.695 231.723C189.695 232.137 189.547 232.512 189.25 232.848C188.961 233.176 188.598 233.34 188.16 233.34C187.762 233.34 187.457 233.242 187.246 233.047C187.043 232.844 186.82 232.516 186.578 232.062C186.266 231.414 185.891 230.91 185.453 230.551C185.016 230.184 184.312 230 183.344 230C182.445 230 181.719 230.199 181.164 230.598C180.617 230.988 180.344 231.461 180.344 232.016C180.344 232.359 180.438 232.656 180.625 232.906C180.812 233.156 181.07 233.371 181.398 233.551C181.727 233.73 182.059 233.871 182.395 233.973C182.73 234.074 183.285 234.223 184.059 234.418C185.027 234.645 185.902 234.895 186.684 235.168C187.473 235.441 188.141 235.773 188.688 236.164C189.242 236.555 189.672 237.051 189.977 237.652C190.289 238.246 190.445 238.977 190.445 239.844ZM197.383 240.172H193.68C193.117 240.172 192.688 240.043 192.391 239.785C192.102 239.52 191.957 239.18 191.957 238.766C191.957 238.344 192.098 238.004 192.379 237.746C192.668 237.48 193.102 237.348 193.68 237.348H197.383C197.961 237.348 198.391 237.48 198.672 237.746C198.961 238.004 199.105 238.344 199.105 238.766C199.105 239.18 198.965 239.52 198.684 239.785C198.402 240.043 197.969 240.172 197.383 240.172ZM83.3594 267.844C83.3594 268.883 83.0898 269.816 82.5508 270.645C82.0195 271.473 81.2383 272.121 80.207 272.59C79.1758 273.059 77.9531 273.293 76.5391 273.293C74.8438 273.293 73.4453 272.973 72.3438 272.332C71.5625 271.871 70.9258 271.258 70.4336 270.492C69.9492 269.719 69.707 268.969 69.707 268.242C69.707 267.82 69.8516 267.461 70.1406 267.164C70.4375 266.859 70.8125 266.707 71.2656 266.707C71.6328 266.707 71.9414 266.824 72.1914 267.059C72.4492 267.293 72.668 267.641 72.8477 268.102C73.0664 268.648 73.3008 269.105 73.5508 269.473C73.8086 269.84 74.168 270.145 74.6289 270.387C75.0898 270.621 75.6953 270.738 76.4453 270.738C77.4766 270.738 78.3125 270.5 78.9531 270.023C79.6016 269.539 79.9258 268.938 79.9258 268.219C79.9258 267.648 79.75 267.188 79.3984 266.836C79.0547 266.477 78.6055 266.203 78.0508 266.016C77.5039 265.828 76.7695 265.629 75.8477 265.418C74.6133 265.129 73.5781 264.793 72.7422 264.41C71.9141 264.02 71.2539 263.492 70.7617 262.828C70.2773 262.156 70.0352 261.324 70.0352 260.332C70.0352 259.387 70.293 258.547 70.8086 257.812C71.3242 257.078 72.0703 256.516 73.0469 256.125C74.0234 255.727 75.1719 255.527 76.4922 255.527C77.5469 255.527 78.457 255.66 79.2227 255.926C79.9961 256.184 80.6367 256.531 81.1445 256.969C81.6523 257.398 82.0234 257.852 82.2578 258.328C82.4922 258.805 82.6094 259.27 82.6094 259.723C82.6094 260.137 82.4609 260.512 82.1641 260.848C81.875 261.176 81.5117 261.34 81.0742 261.34C80.6758 261.34 80.3711 261.242 80.1602 261.047C79.957 260.844 79.7344 260.516 79.4922 260.062C79.1797 259.414 78.8047 258.91 78.3672 258.551C77.9297 258.184 77.2266 258 76.2578 258C75.3594 258 74.6328 258.199 74.0781 258.598C73.5312 258.988 73.2578 259.461 73.2578 260.016C73.2578 260.359 73.3516 260.656 73.5391 260.906C73.7266 261.156 73.9844 261.371 74.3125 261.551C74.6406 261.73 74.9727 261.871 75.3086 261.973C75.6445 262.074 76.1992 262.223 76.9727 262.418C77.9414 262.645 78.8164 262.895 79.5977 263.168C80.3867 263.441 81.0547 263.773 81.6016 264.164C82.1562 264.555 82.5859 265.051 82.8906 265.652C83.2031 266.246 83.3594 266.977 83.3594 267.844ZM93.8711 255.527C95.6523 255.527 97.1797 255.891 98.4531 256.617C99.7344 257.336 100.703 258.363 101.359 259.699C102.016 261.027 102.344 262.59 102.344 264.387C102.344 265.715 102.164 266.922 101.805 268.008C101.445 269.094 100.906 270.035 100.188 270.832C99.4688 271.629 98.5859 272.238 97.5391 272.66C96.4922 273.082 95.293 273.293 93.9414 273.293C92.5977 273.293 91.3945 273.078 90.332 272.648C89.2695 272.211 88.3828 271.598 87.6719 270.809C86.9609 270.02 86.4219 269.07 86.0547 267.961C85.6953 266.852 85.5156 265.652 85.5156 264.363C85.5156 263.043 85.7031 261.832 86.0781 260.73C86.4609 259.629 87.0117 258.691 87.7305 257.918C88.4492 257.145 89.3242 256.555 90.3555 256.148C91.3867 255.734 92.5586 255.527 93.8711 255.527ZM98.8164 264.363C98.8164 263.105 98.6133 262.016 98.207 261.094C97.8008 260.172 97.2188 259.477 96.4609 259.008C95.7109 258.531 94.8477 258.293 93.8711 258.293C93.1758 258.293 92.5312 258.426 91.9375 258.691C91.3516 258.949 90.8438 259.328 90.4141 259.828C89.9922 260.328 89.6562 260.969 89.4062 261.75C89.1641 262.523 89.043 263.395 89.043 264.363C89.043 265.34 89.1641 266.223 89.4062 267.012C89.6562 267.801 90.0039 268.457 90.4492 268.98C90.9023 269.496 91.418 269.883 91.9961 270.141C92.582 270.398 93.2227 270.527 93.918 270.527C94.8086 270.527 95.625 270.305 96.3672 269.859C97.1172 269.414 97.7109 268.727 98.1484 267.797C98.5938 266.867 98.8164 265.723 98.8164 264.363ZM109.996 265.652H108.777V271.172C108.777 271.898 108.617 272.434 108.297 272.777C107.977 273.121 107.559 273.293 107.043 273.293C106.488 273.293 106.059 273.113 105.754 272.754C105.449 272.395 105.297 271.867 105.297 271.172V257.953C105.297 257.203 105.465 256.66 105.801 256.324C106.137 255.988 106.68 255.82 107.43 255.82H113.09C113.871 255.82 114.539 255.855 115.094 255.926C115.648 255.988 116.148 256.121 116.594 256.324C117.133 256.551 117.609 256.875 118.023 257.297C118.438 257.719 118.75 258.211 118.961 258.773C119.18 259.328 119.289 259.918 119.289 260.543C119.289 261.824 118.926 262.848 118.199 263.613C117.48 264.379 116.387 264.922 114.918 265.242C115.535 265.57 116.125 266.055 116.688 266.695C117.25 267.336 117.75 268.02 118.188 268.746C118.633 269.465 118.977 270.117 119.219 270.703C119.469 271.281 119.594 271.68 119.594 271.898C119.594 272.125 119.52 272.352 119.371 272.578C119.23 272.797 119.035 272.969 118.785 273.094C118.535 273.227 118.246 273.293 117.918 273.293C117.527 273.293 117.199 273.199 116.934 273.012C116.668 272.832 116.438 272.602 116.242 272.32C116.055 272.039 115.797 271.625 115.469 271.078L114.074 268.758C113.574 267.906 113.125 267.258 112.727 266.812C112.336 266.367 111.938 266.062 111.531 265.898C111.125 265.734 110.613 265.652 109.996 265.652ZM111.988 258.434H108.777V263.156H111.895C112.73 263.156 113.434 263.086 114.004 262.945C114.574 262.797 115.008 262.551 115.305 262.207C115.609 261.855 115.762 261.375 115.762 260.766C115.762 260.289 115.641 259.871 115.398 259.512C115.156 259.145 114.82 258.871 114.391 258.691C113.984 258.52 113.184 258.434 111.988 258.434ZM132.555 258.691H128.758V271.172C128.758 271.891 128.598 272.426 128.277 272.777C127.957 273.121 127.543 273.293 127.035 273.293C126.52 273.293 126.098 273.117 125.77 272.766C125.449 272.414 125.289 271.883 125.289 271.172V258.691H121.492C120.898 258.691 120.457 258.562 120.168 258.305C119.879 258.039 119.734 257.691 119.734 257.262C119.734 256.816 119.883 256.465 120.18 256.207C120.484 255.949 120.922 255.82 121.492 255.82H132.555C133.156 255.82 133.602 255.953 133.891 256.219C134.188 256.484 134.336 256.832 134.336 257.262C134.336 257.691 134.188 258.039 133.891 258.305C133.594 258.562 133.148 258.691 132.555 258.691ZM147.719 258.504H139.879V262.723H147.098C147.629 262.723 148.023 262.844 148.281 263.086C148.547 263.32 148.68 263.633 148.68 264.023C148.68 264.414 148.551 264.734 148.293 264.984C148.035 265.227 147.637 265.348 147.098 265.348H139.879V270.234H147.988C148.535 270.234 148.945 270.363 149.219 270.621C149.5 270.871 149.641 271.207 149.641 271.629C149.641 272.035 149.5 272.367 149.219 272.625C148.945 272.875 148.535 273 147.988 273H138.531C137.773 273 137.227 272.832 136.891 272.496C136.562 272.16 136.398 271.617 136.398 270.867V257.953C136.398 257.453 136.473 257.047 136.621 256.734C136.77 256.414 137 256.184 137.312 256.043C137.633 255.895 138.039 255.82 138.531 255.82H147.719C148.273 255.82 148.684 255.945 148.949 256.195C149.223 256.438 149.359 256.758 149.359 257.156C149.359 257.562 149.223 257.891 148.949 258.141C148.684 258.383 148.273 258.504 147.719 258.504ZM157.082 265.652H155.863V271.172C155.863 271.898 155.703 272.434 155.383 272.777C155.062 273.121 154.645 273.293 154.129 273.293C153.574 273.293 153.145 273.113 152.84 272.754C152.535 272.395 152.383 271.867 152.383 271.172V257.953C152.383 257.203 152.551 256.66 152.887 256.324C153.223 255.988 153.766 255.82 154.516 255.82H160.176C160.957 255.82 161.625 255.855 162.18 255.926C162.734 255.988 163.234 256.121 163.68 256.324C164.219 256.551 164.695 256.875 165.109 257.297C165.523 257.719 165.836 258.211 166.047 258.773C166.266 259.328 166.375 259.918 166.375 260.543C166.375 261.824 166.012 262.848 165.285 263.613C164.566 264.379 163.473 264.922 162.004 265.242C162.621 265.57 163.211 266.055 163.773 266.695C164.336 267.336 164.836 268.02 165.273 268.746C165.719 269.465 166.062 270.117 166.305 270.703C166.555 271.281 166.68 271.68 166.68 271.898C166.68 272.125 166.605 272.352 166.457 272.578C166.316 272.797 166.121 272.969 165.871 273.094C165.621 273.227 165.332 273.293 165.004 273.293C164.613 273.293 164.285 273.199 164.02 273.012C163.754 272.832 163.523 272.602 163.328 272.32C163.141 272.039 162.883 271.625 162.555 271.078L161.16 268.758C160.66 267.906 160.211 267.258 159.812 266.812C159.422 266.367 159.023 266.062 158.617 265.898C158.211 265.734 157.699 265.652 157.082 265.652ZM159.074 258.434H155.863V263.156H158.98C159.816 263.156 160.52 263.086 161.09 262.945C161.66 262.797 162.094 262.551 162.391 262.207C162.695 261.855 162.848 261.375 162.848 260.766C162.848 260.289 162.727 259.871 162.484 259.512C162.242 259.145 161.906 258.871 161.477 258.691C161.07 258.52 160.27 258.434 159.074 258.434ZM169.82 271.172V257.637C169.82 256.934 169.98 256.406 170.301 256.055C170.621 255.703 171.035 255.527 171.543 255.527C172.066 255.527 172.488 255.703 172.809 256.055C173.137 256.398 173.301 256.926 173.301 257.637V271.172C173.301 271.883 173.137 272.414 172.809 272.766C172.488 273.117 172.066 273.293 171.543 273.293C171.043 273.293 170.629 273.117 170.301 272.766C169.98 272.406 169.82 271.875 169.82 271.172ZM181.738 257.613L188.43 267.738V257.52C188.43 256.855 188.57 256.359 188.852 256.031C189.141 255.695 189.527 255.527 190.012 255.527C190.512 255.527 190.906 255.695 191.195 256.031C191.484 256.359 191.629 256.855 191.629 257.52V271.031C191.629 272.539 191.004 273.293 189.754 273.293C189.441 273.293 189.16 273.246 188.91 273.152C188.66 273.066 188.426 272.926 188.207 272.73C187.988 272.535 187.785 272.309 187.598 272.051C187.41 271.785 187.223 271.516 187.035 271.242L180.508 261.234V271.301C180.508 271.957 180.355 272.453 180.051 272.789C179.746 273.125 179.355 273.293 178.879 273.293C178.387 273.293 177.992 273.125 177.695 272.789C177.398 272.445 177.25 271.949 177.25 271.301V258.047C177.25 257.484 177.312 257.043 177.438 256.723C177.586 256.371 177.832 256.086 178.176 255.867C178.52 255.641 178.891 255.527 179.289 255.527C179.602 255.527 179.867 255.578 180.086 255.68C180.312 255.781 180.508 255.918 180.672 256.09C180.844 256.262 181.016 256.484 181.188 256.758C181.367 257.031 181.551 257.316 181.738 257.613ZM211.129 266.016V269.309C211.129 269.746 211.086 270.098 211 270.363C210.914 270.621 210.754 270.855 210.52 271.066C210.293 271.277 210 271.48 209.641 271.676C208.602 272.238 207.602 272.648 206.641 272.906C205.68 273.164 204.633 273.293 203.5 273.293C202.18 273.293 200.977 273.09 199.891 272.684C198.805 272.277 197.879 271.688 197.113 270.914C196.348 270.141 195.758 269.203 195.344 268.102C194.938 267 194.734 265.77 194.734 264.41C194.734 263.074 194.934 261.852 195.332 260.742C195.73 259.633 196.316 258.691 197.09 257.918C197.863 257.145 198.805 256.555 199.914 256.148C201.023 255.734 202.281 255.527 203.688 255.527C204.844 255.527 205.867 255.684 206.758 255.996C207.648 256.301 208.371 256.688 208.926 257.156C209.48 257.625 209.898 258.121 210.18 258.645C210.461 259.168 210.602 259.633 210.602 260.039C210.602 260.477 210.438 260.852 210.109 261.164C209.789 261.469 209.402 261.621 208.949 261.621C208.699 261.621 208.457 261.562 208.223 261.445C207.996 261.328 207.805 261.164 207.648 260.953C207.219 260.281 206.855 259.773 206.559 259.43C206.262 259.086 205.859 258.797 205.352 258.562C204.852 258.328 204.211 258.211 203.43 258.211C202.625 258.211 201.906 258.352 201.273 258.633C200.641 258.906 200.098 259.309 199.645 259.84C199.199 260.363 198.855 261.008 198.613 261.773C198.379 262.539 198.262 263.387 198.262 264.316C198.262 266.332 198.723 267.883 199.645 268.969C200.574 270.055 201.867 270.598 203.523 270.598C204.328 270.598 205.082 270.492 205.785 270.281C206.496 270.07 207.215 269.77 207.941 269.379V266.59H205.246C204.598 266.59 204.105 266.492 203.77 266.297C203.441 266.102 203.277 265.77 203.277 265.301C203.277 264.918 203.414 264.602 203.688 264.352C203.969 264.102 204.348 263.977 204.824 263.977H208.773C209.258 263.977 209.668 264.02 210.004 264.105C210.34 264.191 210.609 264.383 210.812 264.68C211.023 264.977 211.129 265.422 211.129 266.016Z" fill="white"/>
<path d="M141 208C196.228 208 241 163.228 241 108C241 52.7715 196.228 8 141 8C85.7715 8 41 52.7715 41 108C41 163.228 85.7715 208 141 208Z" stroke="white" stroke-width="10" stroke-miterlimit="10"/>
<path d="M93 89.3716L116.24 164.628C116.402 165.156 116.859 165.508 117.36 165.508H162.675C163.176 165.508 163.619 165.156 163.796 164.644L188.112 89.3716H93Z" stroke="white" stroke-width="6" stroke-miterlimit="10"/>
<path d="M93 77.4178L105.092 48.3424C105.283 47.8784 105.711 47.5903 106.168 47.5903H176.949C177.436 47.5903 177.878 47.9264 178.055 48.4224L188.097 77.4178H93Z" stroke="white" stroke-width="6" stroke-miterlimit="10"/>
<path d="M140.615 113.727L147.221 126.064L144.773 124.704C144.478 124.544 144.124 124.672 143.977 124.976L143.181 126.656C143.033 126.976 143.151 127.36 143.431 127.52L152.618 132.657C153.002 132.881 153.473 132.577 153.473 132.097L153.768 120.287C153.768 119.935 153.518 119.631 153.193 119.631L151.453 119.583C151.129 119.583 150.849 119.855 150.849 120.207L150.76 123.664L141.102 105.614C140.866 105.182 140.305 105.182 140.084 105.614L135.1 115.023C134.982 115.231 134.997 115.487 135.115 115.695L136.973 118.735C137.209 119.135 137.754 119.119 137.975 118.703L140.6 113.743L140.615 113.727ZM150.657 127.984L150.583 127.952H150.657V127.984Z" fill="white"/>
<path d="M130.942 131.36L131.074 134.225C131.089 134.577 131.369 134.849 131.694 134.833L133.434 134.737C133.758 134.721 134.009 134.417 133.994 134.065L133.463 122.863C133.434 122.399 132.976 122.111 132.593 122.335L123.038 127.984C122.757 128.16 122.639 128.544 122.802 128.848L123.642 130.512C123.804 130.816 124.158 130.944 124.439 130.768L127.314 129.056L119.115 144.546C118.894 144.978 119.174 145.506 119.631 145.506H128.641C128.862 145.506 129.054 145.378 129.157 145.17L130.824 141.906C131.045 141.473 130.75 140.945 130.307 140.945H125.839L130.942 131.312V131.36Z" fill="white"/>
<path d="M161.982 144.434L158.059 137.105C157.956 136.913 157.765 136.785 157.558 136.785L154.049 136.721C153.591 136.721 153.296 137.249 153.532 137.681L155.228 140.85H143.682L145.85 139.202C146.115 138.994 146.189 138.594 145.997 138.306L144.994 136.753C144.803 136.465 144.434 136.385 144.169 136.593L135.705 143.026C135.351 143.298 135.38 143.874 135.749 144.114L145.245 149.907C145.525 150.083 145.894 149.971 146.056 149.667L146.911 148.019C147.074 147.715 146.97 147.315 146.69 147.139L143.83 145.394H161.495C161.952 145.394 162.233 144.85 162.011 144.434H161.982Z" fill="white"/>
<path d="M128.332 66.3451L131.517 58.6802H150.126L152.78 66.3451H128.332Z" stroke="white" stroke-width="3" stroke-miterlimit="10"/>
</svg>
