<svg width="62" height="62" viewBox="0 0 62 62" fill="none" xmlns="http://www.w3.org/2000/svg">
<path d="M3.39619 59.5299L3.19795 59.0088H1.51006L1.31181 59.5412C1.23441 59.7489 1.16832 59.8896 1.11357 59.9632C1.05882 60.0349 0.969139 60.0708 0.844529 60.0708C0.7388 60.0708 0.645343 60.0321 0.564158 59.9547C0.482973 59.8773 0.442381 59.7895 0.442381 59.6913C0.442381 59.6347 0.451821 59.5761 0.470701 59.5157C0.489581 59.4553 0.520734 59.3713 0.564158 59.2637L1.62617 56.5676C1.65638 56.4902 1.69225 56.3977 1.73379 56.29C1.77721 56.1805 1.82252 56.0899 1.86972 56.0182C1.91881 55.9464 1.98206 55.8888 2.05947 55.8454C2.13877 55.8001 2.236 55.7774 2.35117 55.7774C2.46823 55.7774 2.56546 55.8001 2.64287 55.8454C2.72217 55.8888 2.78541 55.9455 2.83262 56.0153C2.8817 56.0852 2.9223 56.1607 2.95439 56.2419C2.98838 56.3212 3.03086 56.4279 3.08183 56.5619L4.1665 59.241C4.25146 59.4449 4.29394 59.5931 4.29394 59.6856C4.29394 59.7819 4.25335 59.8707 4.17217 59.9519C4.09287 60.0312 3.99658 60.0708 3.8833 60.0708C3.81722 60.0708 3.76058 60.0585 3.71338 60.034C3.66618 60.0113 3.62653 59.9802 3.59443 59.9405C3.56234 59.899 3.52741 59.8367 3.48965 59.7536C3.45377 59.6687 3.42262 59.5941 3.39619 59.5299ZM1.73096 58.3772H2.97138L2.34551 56.6639L1.73096 58.3772ZM7.39502 56.4968H5.73828V57.5588H7.12314C7.25153 57.5588 7.34687 57.5881 7.40918 57.6466C7.47337 57.7032 7.50547 57.7797 7.50547 57.876C7.50547 57.9723 7.47337 58.0487 7.40918 58.1054C7.34499 58.162 7.24964 58.1903 7.12314 58.1903H5.73828V59.5582C5.73828 59.7319 5.69863 59.8612 5.61933 59.9462C5.54193 60.0293 5.44186 60.0708 5.31914 60.0708C5.19453 60.0708 5.09258 60.0283 5.01328 59.9434C4.93587 59.8584 4.89717 59.73 4.89717 59.5582V56.3637C4.89717 56.2428 4.9151 56.1447 4.95097 56.0691C4.98685 55.9917 5.04254 55.936 5.11806 55.9021C5.19547 55.8662 5.29365 55.8482 5.4126 55.8482H7.39502C7.52907 55.8482 7.62819 55.8785 7.69238 55.9389C7.75846 55.9974 7.7915 56.0748 7.7915 56.1711C7.7915 56.2693 7.75846 56.3486 7.69238 56.409C7.62819 56.4675 7.52907 56.4968 7.39502 56.4968ZM10.9011 56.4968H9.24433V57.5588H10.6292C10.7576 57.5588 10.8529 57.5881 10.9152 57.6466C10.9794 57.7032 11.0115 57.7797 11.0115 57.876C11.0115 57.9723 10.9794 58.0487 10.9152 58.1054C10.851 58.162 10.7557 58.1903 10.6292 58.1903H9.24433V59.5582C9.24433 59.7319 9.20469 59.8612 9.12539 59.9462C9.04798 60.0293 8.94792 60.0708 8.82519 60.0708C8.70058 60.0708 8.59863 60.0283 8.51933 59.9434C8.44193 59.8584 8.40322 59.73 8.40322 59.5582V56.3637C8.40322 56.2428 8.42116 56.1447 8.45703 56.0691C8.4929 55.9917 8.5486 55.936 8.62412 55.9021C8.70153 55.8662 8.79971 55.8482 8.91865 55.8482H10.9011C11.0351 55.8482 11.1342 55.8785 11.1984 55.9389C11.2645 55.9974 11.2976 56.0748 11.2976 56.1711C11.2976 56.2693 11.2645 56.3486 11.1984 56.409C11.1342 56.4675 11.0351 56.4968 10.9011 56.4968ZM14.1466 59.5299L13.9483 59.0088H12.2604L12.0622 59.5412C11.9848 59.7489 11.9187 59.8896 11.864 59.9632C11.8092 60.0349 11.7195 60.0708 11.5949 60.0708C11.4892 60.0708 11.3957 60.0321 11.3145 59.9547C11.2334 59.8773 11.1928 59.7895 11.1928 59.6913C11.1928 59.6347 11.2022 59.5761 11.2211 59.5157C11.24 59.4553 11.2711 59.3713 11.3145 59.2637L12.3766 56.5676C12.4068 56.4902 12.4426 56.3977 12.4842 56.29C12.5276 56.1805 12.5729 56.0899 12.6201 56.0182C12.6692 55.9464 12.7325 55.8888 12.8099 55.8454C12.8892 55.8001 12.9864 55.7774 13.1016 55.7774C13.2186 55.7774 13.3159 55.8001 13.3933 55.8454C13.4726 55.8888 13.5358 55.9455 13.583 56.0153C13.6321 56.0852 13.6727 56.1607 13.7048 56.2419C13.7388 56.3212 13.7812 56.4279 13.8322 56.5619L14.9169 59.241C15.0019 59.4449 15.0443 59.5931 15.0443 59.6856C15.0443 59.7819 15.0037 59.8707 14.9226 59.9519C14.8433 60.0312 14.747 60.0708 14.6337 60.0708C14.5676 60.0708 14.511 60.0585 14.4638 60.034C14.4166 60.0113 14.3769 59.9802 14.3448 59.9405C14.3127 59.899 14.2778 59.8367 14.24 59.7536C14.2042 59.6687 14.173 59.5941 14.1466 59.5299ZM12.4813 58.3772H13.7218L13.0959 56.6639L12.4813 58.3772ZM16.4887 56.2872V59.309H18.1936C18.3295 59.309 18.4333 59.342 18.5051 59.4081C18.5787 59.4742 18.6155 59.5573 18.6155 59.6573C18.6155 59.7593 18.5797 59.8424 18.5079 59.9065C18.4362 59.9688 18.3314 60 18.1936 60H16.163C15.9798 60 15.8477 59.9594 15.7665 59.8782C15.6872 59.797 15.6476 59.6658 15.6476 59.4846V56.2872C15.6476 56.1173 15.6853 55.9898 15.7608 55.9049C15.8382 55.8199 15.9393 55.7774 16.0639 55.7774C16.1904 55.7774 16.2923 55.8199 16.3697 55.9049C16.449 55.988 16.4887 56.1154 16.4887 56.2872ZM19.6917 55.8482H20.7877C21.0728 55.8482 21.3173 55.8747 21.5212 55.9275C21.7251 55.9804 21.9101 56.0795 22.0763 56.2249C22.5086 56.595 22.7248 57.1576 22.7248 57.9128C22.7248 58.162 22.7031 58.3895 22.6597 58.5953C22.6162 58.8011 22.5492 58.9871 22.4586 59.1532C22.368 59.3175 22.2519 59.4647 22.1103 59.595C21.9989 59.6951 21.8771 59.7753 21.7449 59.8357C21.6128 59.8962 21.4702 59.9386 21.3173 59.9632C21.1662 59.9877 20.9954 60 20.8047 60H19.7087C19.5558 60 19.4406 59.9773 19.3632 59.932C19.2858 59.8848 19.2348 59.8197 19.2103 59.7366C19.1876 59.6517 19.1763 59.5422 19.1763 59.4081V56.3637C19.1763 56.1824 19.2169 56.0512 19.298 55.97C19.3792 55.8888 19.5104 55.8482 19.6917 55.8482ZM20.0174 56.5138V59.3316H20.6546C20.7943 59.3316 20.9038 59.3279 20.9831 59.3203C21.0624 59.3128 21.1445 59.2939 21.2295 59.2637C21.3145 59.2335 21.3881 59.191 21.4504 59.1362C21.7317 58.8983 21.8724 58.4886 21.8724 57.9071C21.8724 57.4974 21.8101 57.1906 21.6854 56.9867C21.5627 56.7828 21.4107 56.6535 21.2295 56.5987C21.0482 56.5421 20.8292 56.5138 20.5725 56.5138H20.0174ZM26.6188 58.7539C26.6188 59.005 26.5537 59.2306 26.4234 59.4308C26.2951 59.6309 26.1062 59.7876 25.857 59.9009C25.6078 60.0142 25.3123 60.0708 24.9706 60.0708C24.5609 60.0708 24.2229 59.9934 23.9567 59.8386C23.7679 59.7272 23.6141 59.579 23.4951 59.3939C23.3781 59.207 23.3195 59.0258 23.3195 58.8502C23.3195 58.7482 23.3545 58.6614 23.4243 58.5896C23.4961 58.516 23.5867 58.4792 23.6962 58.4792C23.7849 58.4792 23.8595 58.5075 23.9199 58.5642C23.9822 58.6208 24.0351 58.7048 24.0785 58.8162C24.1314 58.9484 24.188 59.0588 24.2484 59.1476C24.3107 59.2363 24.3976 59.3099 24.509 59.3685C24.6204 59.4251 24.7667 59.4534 24.9479 59.4534C25.1972 59.4534 25.3992 59.3958 25.554 59.2807C25.7107 59.1636 25.7891 59.0182 25.7891 58.8445C25.7891 58.7067 25.7466 58.5953 25.6616 58.5104C25.5785 58.4235 25.47 58.3574 25.3359 58.3121C25.2038 58.2668 25.0263 58.2187 24.8035 58.1677C24.5052 58.0978 24.255 58.0166 24.053 57.9241C23.8529 57.8297 23.6934 57.7023 23.5744 57.5418C23.4574 57.3794 23.3988 57.1784 23.3988 56.9386C23.3988 56.7101 23.4611 56.5072 23.5857 56.3297C23.7104 56.1522 23.8907 56.0163 24.1267 55.9219C24.3627 55.8256 24.6402 55.7774 24.9593 55.7774C25.2142 55.7774 25.4341 55.8095 25.6191 55.8737C25.8061 55.936 25.9609 56.0201 26.0836 56.1258C26.2063 56.2296 26.296 56.3391 26.3526 56.4543C26.4093 56.5695 26.4376 56.6818 26.4376 56.7913C26.4376 56.8914 26.4017 56.982 26.33 57.0632C26.2601 57.1425 26.1723 57.1821 26.0666 57.1821C25.9703 57.1821 25.8967 57.1585 25.8457 57.1113C25.7966 57.0622 25.7428 56.9829 25.6843 56.8734C25.6088 56.7167 25.5181 56.595 25.4124 56.5081C25.3067 56.4194 25.1368 56.375 24.9026 56.375C24.6855 56.375 24.5099 56.4231 24.3759 56.5194C24.2437 56.6138 24.1776 56.7281 24.1776 56.8621C24.1776 56.9452 24.2003 57.0169 24.2456 57.0773C24.2909 57.1378 24.3532 57.1897 24.4325 57.2331C24.5118 57.2765 24.5921 57.3105 24.6732 57.3351C24.7544 57.3596 24.8885 57.3955 25.0754 57.4427C25.3095 57.4974 25.521 57.5578 25.7098 57.6239C25.9005 57.69 26.0619 57.7702 26.194 57.8646C26.3281 57.959 26.4319 58.0789 26.5056 58.2243C26.5811 58.3678 26.6188 58.5443 26.6188 58.7539ZM30.4874 58.7539C30.4874 59.005 30.4223 59.2306 30.292 59.4308C30.1636 59.6309 29.9748 59.7876 29.7256 59.9009C29.4764 60.0142 29.1809 60.0708 28.8392 60.0708C28.4295 60.0708 28.0915 59.9934 27.8253 59.8386C27.6365 59.7272 27.4826 59.579 27.3637 59.3939C27.2466 59.207 27.1881 59.0258 27.1881 58.8502C27.1881 58.7482 27.223 58.6614 27.2929 58.5896C27.3646 58.516 27.4552 58.4792 27.5647 58.4792C27.6535 58.4792 27.7281 58.5075 27.7885 58.5642C27.8508 58.6208 27.9036 58.7048 27.9471 58.8162C27.9999 58.9484 28.0566 59.0588 28.117 59.1476C28.1793 59.2363 28.2661 59.3099 28.3775 59.3685C28.4889 59.4251 28.6353 59.4534 28.8165 59.4534C29.0657 59.4534 29.2677 59.3958 29.4226 59.2807C29.5793 59.1636 29.6576 59.0182 29.6576 58.8445C29.6576 58.7067 29.6151 58.5953 29.5302 58.5104C29.4471 58.4235 29.3385 58.3574 29.2045 58.3121C29.0723 58.2668 28.8949 58.2187 28.6721 58.1677C28.3738 58.0978 28.1236 58.0166 27.9216 57.9241C27.7214 57.8297 27.5619 57.7023 27.443 57.5418C27.3259 57.3794 27.2674 57.1784 27.2674 56.9386C27.2674 56.7101 27.3297 56.5072 27.4543 56.3297C27.5789 56.1522 27.7592 56.0163 27.9952 55.9219C28.2312 55.8256 28.5088 55.7774 28.8278 55.7774C29.0827 55.7774 29.3027 55.8095 29.4877 55.8737C29.6746 55.936 29.8294 56.0201 29.9521 56.1258C30.0749 56.2296 30.1645 56.3391 30.2212 56.4543C30.2778 56.5695 30.3062 56.6818 30.3062 56.7913C30.3062 56.8914 30.2703 56.982 30.1985 57.0632C30.1287 57.1425 30.0409 57.1821 29.9352 57.1821C29.8389 57.1821 29.7652 57.1585 29.7143 57.1113C29.6652 57.0622 29.6114 56.9829 29.5528 56.8734C29.4773 56.7167 29.3867 56.595 29.281 56.5081C29.1752 56.4194 29.0053 56.375 28.7712 56.375C28.5541 56.375 28.3785 56.4231 28.2444 56.5194C28.1123 56.6138 28.0462 56.7281 28.0462 56.8621C28.0462 56.9452 28.0688 57.0169 28.1142 57.0773C28.1595 57.1378 28.2218 57.1897 28.3011 57.2331C28.3804 57.2765 28.4606 57.3105 28.5418 57.3351C28.623 57.3596 28.757 57.3955 28.9439 57.4427C29.1781 57.4974 29.3895 57.5578 29.5783 57.6239C29.769 57.69 29.9304 57.7702 30.0626 57.8646C30.1966 57.959 30.3005 58.0789 30.3741 58.2243C30.4496 58.3678 30.4874 58.5443 30.4874 58.7539ZM33.0277 55.7774C33.4582 55.7774 33.8273 55.8652 34.1351 56.0408C34.4447 56.2145 34.6788 56.4628 34.8374 56.7856C34.996 57.1066 35.0753 57.4842 35.0753 57.9185C35.0753 58.2394 35.0319 58.5311 34.945 58.7936C34.8582 59.056 34.7279 59.2835 34.5542 59.4761C34.3805 59.6687 34.1672 59.8159 33.9142 59.9179C33.6612 60.0198 33.3714 60.0708 33.0447 60.0708C32.72 60.0708 32.4292 60.0189 32.1725 59.915C31.9157 59.8093 31.7014 59.6611 31.5296 59.4704C31.3578 59.2797 31.2275 59.0503 31.1388 58.7822C31.0519 58.5141 31.0085 58.2243 31.0085 57.9128C31.0085 57.5937 31.0538 57.3011 31.1444 57.0349C31.2369 56.7687 31.3701 56.5421 31.5437 56.3552C31.7174 56.1683 31.9289 56.0257 32.1781 55.9275C32.4273 55.8275 32.7105 55.7774 33.0277 55.7774ZM34.2229 57.9128C34.2229 57.6088 34.1738 57.3454 34.0756 57.1227C33.9774 56.8999 33.8367 56.7318 33.6536 56.6186C33.4724 56.5034 33.2637 56.4458 33.0277 56.4458C32.8597 56.4458 32.7039 56.4779 32.5604 56.5421C32.4188 56.6044 32.2961 56.696 32.1923 56.8168C32.0903 56.9376 32.0091 57.0924 31.9487 57.2812C31.8902 57.4682 31.8609 57.6787 31.8609 57.9128C31.8609 58.1488 31.8902 58.3621 31.9487 58.5528C32.0091 58.7435 32.0932 58.9021 32.2008 59.0286C32.3103 59.1532 32.4349 59.2467 32.5746 59.309C32.7162 59.3713 32.871 59.4024 33.0391 59.4024C33.2543 59.4024 33.4516 59.3486 33.631 59.241C33.8122 59.1334 33.9557 58.9673 34.0614 58.7426C34.169 58.5179 34.2229 58.2413 34.2229 57.9128ZM36.9246 58.2243H36.6301V59.5582C36.6301 59.7338 36.5914 59.8631 36.514 59.9462C36.4366 60.0293 36.3355 60.0708 36.2109 60.0708C36.0769 60.0708 35.973 60.0274 35.8994 59.9405C35.8258 59.8537 35.789 59.7262 35.789 59.5582V56.3637C35.789 56.1824 35.8296 56.0512 35.9107 55.97C35.9919 55.8888 36.1231 55.8482 36.3044 55.8482H37.6723C37.8611 55.8482 38.0225 55.8567 38.1565 55.8737C38.2906 55.8888 38.4114 55.9209 38.519 55.97C38.6493 56.0248 38.7645 56.1031 38.8646 56.2051C38.9646 56.307 39.0401 56.426 39.0911 56.5619C39.144 56.696 39.1704 56.8385 39.1704 56.9896C39.1704 57.2992 39.0826 57.5465 38.907 57.7315C38.7333 57.9166 38.469 58.0478 38.1141 58.1252C38.2632 58.2045 38.4058 58.3215 38.5417 58.4764C38.6776 58.6312 38.7985 58.7964 38.9042 58.972C39.0118 59.1457 39.0949 59.3033 39.1534 59.4449C39.2138 59.5846 39.244 59.6809 39.244 59.7338C39.244 59.7885 39.2261 59.8433 39.1902 59.898C39.1563 59.9509 39.1091 59.9924 39.0486 60.0227C38.9882 60.0548 38.9184 60.0708 38.8391 60.0708C38.7447 60.0708 38.6654 60.0481 38.6012 60.0028C38.537 59.9594 38.4813 59.9037 38.4341 59.8357C38.3888 59.7678 38.3265 59.6677 38.2472 59.5355L37.9102 58.9748C37.7893 58.769 37.6808 58.6123 37.5845 58.5047C37.4901 58.3971 37.3938 58.3234 37.2956 58.2838C37.1974 58.2441 37.0738 58.2243 36.9246 58.2243ZM37.4061 56.4798H36.6301V57.6211H37.3834C37.5854 57.6211 37.7553 57.6041 37.8932 57.5701C38.031 57.5342 38.1358 57.4748 38.2075 57.3917C38.2812 57.3067 38.318 57.1906 38.318 57.0434C38.318 56.9282 38.2887 56.8272 38.2302 56.7403C38.1717 56.6516 38.0905 56.5855 37.9866 56.5421C37.8884 56.5006 37.6949 56.4798 37.4061 56.4798ZM42.3763 56.5421H41.4587V59.5582C41.4587 59.7319 41.42 59.8612 41.3426 59.9462C41.2652 60.0293 41.1651 60.0708 41.0424 60.0708C40.9178 60.0708 40.8158 60.0283 40.7365 59.9434C40.6591 59.8584 40.6204 59.73 40.6204 59.5582V56.5421H39.7028C39.5593 56.5421 39.4527 56.5109 39.3828 56.4486C39.313 56.3844 39.278 56.3004 39.278 56.1966C39.278 56.089 39.3139 56.004 39.3856 55.9417C39.4593 55.8794 39.565 55.8482 39.7028 55.8482H42.3763C42.5216 55.8482 42.6293 55.8803 42.6991 55.9445C42.7709 56.0087 42.8067 56.0927 42.8067 56.1966C42.8067 56.3004 42.7709 56.3844 42.6991 56.4486C42.6274 56.5109 42.5198 56.5421 42.3763 56.5421ZM46.0409 56.4968H44.1463V57.5163H45.8908C46.0192 57.5163 46.1146 57.5456 46.1769 57.6041C46.241 57.6607 46.2731 57.7363 46.2731 57.8307C46.2731 57.9251 46.242 58.0025 46.1797 58.0629C46.1174 58.1214 46.0211 58.1507 45.8908 58.1507H44.1463V59.3316H46.1061C46.2382 59.3316 46.3373 59.3628 46.4034 59.4251C46.4714 59.4855 46.5054 59.5667 46.5054 59.6687C46.5054 59.7668 46.4714 59.8471 46.4034 59.9094C46.3373 59.9698 46.2382 60 46.1061 60H43.8206C43.6375 60 43.5053 59.9594 43.4241 59.8782C43.3448 59.797 43.3052 59.6658 43.3052 59.4846V56.3637C43.3052 56.2428 43.3231 56.1447 43.359 56.0691C43.3949 55.9917 43.4506 55.936 43.5261 55.9021C43.6035 55.8662 43.7017 55.8482 43.8206 55.8482H46.0409C46.175 55.8482 46.2741 55.8785 46.3383 55.9389C46.4044 55.9974 46.4374 56.0748 46.4374 56.1711C46.4374 56.2693 46.4044 56.3486 46.3383 56.409C46.2741 56.4675 46.175 56.4968 46.0409 56.4968ZM48.3037 58.2243H48.0092V59.5582C48.0092 59.7338 47.9705 59.8631 47.8931 59.9462C47.8157 60.0293 47.7146 60.0708 47.59 60.0708C47.456 60.0708 47.3521 60.0274 47.2785 59.9405C47.2049 59.8537 47.1681 59.7262 47.1681 59.5582V56.3637C47.1681 56.1824 47.2087 56.0512 47.2898 55.97C47.371 55.8888 47.5022 55.8482 47.6835 55.8482H49.0514C49.2402 55.8482 49.4016 55.8567 49.5356 55.8737C49.6697 55.8888 49.7905 55.9209 49.8981 55.97C50.0284 56.0248 50.1436 56.1031 50.2437 56.2051C50.3437 56.307 50.4192 56.426 50.4702 56.5619C50.5231 56.696 50.5495 56.8385 50.5495 56.9896C50.5495 57.2992 50.4617 57.5465 50.2861 57.7315C50.1124 57.9166 49.8481 58.0478 49.4932 58.1252C49.6423 58.2045 49.7849 58.3215 49.9208 58.4764C50.0567 58.6312 50.1776 58.7964 50.2833 58.972C50.3909 59.1457 50.474 59.3033 50.5325 59.4449C50.5929 59.5846 50.6231 59.6809 50.6231 59.7338C50.6231 59.7885 50.6052 59.8433 50.5693 59.898C50.5354 59.9509 50.4881 59.9924 50.4277 60.0227C50.3673 60.0548 50.2975 60.0708 50.2182 60.0708C50.1238 60.0708 50.0445 60.0481 49.9803 60.0028C49.9161 59.9594 49.8604 59.9037 49.8132 59.8357C49.7679 59.7678 49.7056 59.6677 49.6263 59.5355L49.2893 58.9748C49.1684 58.769 49.0599 58.6123 48.9636 58.5047C48.8692 58.3971 48.7729 58.3234 48.6747 58.2838C48.5765 58.2441 48.4529 58.2243 48.3037 58.2243ZM48.7852 56.4798H48.0092V57.6211H48.7625C48.9645 57.6211 49.1344 57.6041 49.2723 57.5701C49.4101 57.5342 49.5149 57.4748 49.5866 57.3917C49.6603 57.3067 49.6971 57.1906 49.6971 57.0434C49.6971 56.9282 49.6678 56.8272 49.6093 56.7403C49.5507 56.6516 49.4696 56.5855 49.3657 56.5421C49.2675 56.5006 49.074 56.4798 48.7852 56.4798ZM51.3821 59.5582V56.2872C51.3821 56.1173 51.4208 55.9898 51.4982 55.9049C51.5757 55.8199 51.6757 55.7774 51.7984 55.7774C51.9249 55.7774 52.0269 55.8199 52.1043 55.9049C52.1836 55.988 52.2232 56.1154 52.2232 56.2872V59.5582C52.2232 59.73 52.1836 59.8584 52.1043 59.9434C52.0269 60.0283 51.9249 60.0708 51.7984 60.0708C51.6776 60.0708 51.5775 60.0283 51.4982 59.9434C51.4208 59.8565 51.3821 59.7281 51.3821 59.5582ZM54.2623 56.2815L55.8794 58.7284V56.2589C55.8794 56.0984 55.9134 55.9785 55.9813 55.8992C56.0512 55.818 56.1447 55.7774 56.2617 55.7774C56.3825 55.7774 56.4779 55.818 56.5478 55.8992C56.6176 55.9785 56.6525 56.0984 56.6525 56.2589V59.5242C56.6525 59.8886 56.5015 60.0708 56.1994 60.0708C56.1239 60.0708 56.0559 60.0595 55.9955 60.0368C55.9351 60.016 55.8784 59.9821 55.8256 59.9349C55.7727 59.8877 55.7236 59.8329 55.6783 59.7706C55.633 59.7064 55.5877 59.6413 55.5424 59.5752L53.9649 57.1566V59.5894C53.9649 59.7479 53.9281 59.8678 53.8545 59.949C53.7809 60.0302 53.6865 60.0708 53.5713 60.0708C53.4523 60.0708 53.357 60.0302 53.2853 59.949C53.2135 59.866 53.1776 59.7461 53.1776 59.5894V56.3863C53.1776 56.2504 53.1927 56.1437 53.2229 56.0663C53.2588 55.9813 53.3183 55.9124 53.4014 55.8596C53.4844 55.8048 53.5741 55.7774 53.6704 55.7774C53.7459 55.7774 53.8101 55.7897 53.863 55.8143C53.9177 55.8388 53.9649 55.8718 54.0046 55.9134C54.0461 55.9549 54.0877 56.0087 54.1292 56.0748C54.1726 56.1409 54.217 56.2098 54.2623 56.2815ZM61.365 58.3121V59.1079C61.365 59.2136 61.3547 59.2986 61.3339 59.3628C61.3131 59.4251 61.2744 59.4817 61.2178 59.5327C61.163 59.5837 61.0922 59.6328 61.0054 59.68C60.7543 59.8159 60.5126 59.915 60.2804 59.9773C60.0481 60.0396 59.7952 60.0708 59.5214 60.0708C59.2023 60.0708 58.9116 60.0217 58.6491 59.9235C58.3867 59.8254 58.163 59.6828 57.9779 59.4959C57.7929 59.309 57.6504 59.0824 57.5503 58.8162C57.4521 58.55 57.403 58.2526 57.403 57.9241C57.403 57.6013 57.4512 57.3058 57.5475 57.0377C57.6438 56.7696 57.7854 56.5421 57.9723 56.3552C58.1592 56.1683 58.3867 56.0257 58.6548 55.9275C58.9229 55.8275 59.2269 55.7774 59.5667 55.7774C59.8461 55.7774 60.0935 55.8152 60.3087 55.8907C60.5239 55.9644 60.6986 56.0578 60.8326 56.1711C60.9667 56.2844 61.0677 56.4043 61.1356 56.5308C61.2036 56.6573 61.2376 56.7696 61.2376 56.8678C61.2376 56.9735 61.198 57.0641 61.1187 57.1396C61.0412 57.2133 60.9478 57.2501 60.8383 57.2501C60.7779 57.2501 60.7193 57.2359 60.6627 57.2076C60.6079 57.1793 60.5617 57.1396 60.5239 57.0887C60.4201 56.9263 60.3323 56.8036 60.2606 56.7205C60.1888 56.6374 60.0916 56.5676 59.9689 56.5109C59.848 56.4543 59.6932 56.426 59.5044 56.426C59.3099 56.426 59.1362 56.46 58.9833 56.5279C58.8304 56.594 58.6992 56.6912 58.5897 56.8196C58.482 56.9461 58.399 57.1019 58.3404 57.2869C58.2838 57.4719 58.2555 57.6768 58.2555 57.9015C58.2555 58.3886 58.3669 58.7633 58.5897 59.0258C58.8143 59.2882 59.1268 59.4194 59.5271 59.4194C59.7215 59.4194 59.9037 59.3939 60.0736 59.343C60.2454 59.292 60.4191 59.2193 60.5947 59.1249V58.4509H59.9434C59.7867 58.4509 59.6677 58.4273 59.5865 58.3801C59.5072 58.3329 59.4676 58.2526 59.4676 58.1394C59.4676 58.0468 59.5006 57.9704 59.5667 57.91C59.6347 57.8495 59.7262 57.8193 59.8414 57.8193H60.7958C60.9129 57.8193 61.012 57.8297 61.0932 57.8505C61.1744 57.8713 61.2395 57.9175 61.2886 57.9893C61.3396 58.061 61.365 58.1686 61.365 58.3121Z" fill="white"/>
<path d="M30.5 47C42.9264 47 53 36.9264 53 24.5C53 12.0736 42.9264 2 30.5 2C18.0736 2 8 12.0736 8 24.5C8 36.9264 18.0736 47 30.5 47Z" stroke="white" stroke-width="2.17082" stroke-miterlimit="10"/>
<path d="M20 19.4531L25.1276 34.4878C25.1634 34.5933 25.2643 34.6636 25.3749 34.6636H35.3731C35.4837 34.6636 35.5813 34.5933 35.6204 34.491L40.9855 19.4531H20Z" stroke="white" stroke-width="1.30249" stroke-miterlimit="10"/>
<path d="M20 17.0653L22.6679 11.2567C22.7102 11.164 22.8046 11.1064 22.9054 11.1064H38.5226C38.6299 11.1064 38.7275 11.1736 38.7666 11.2727L40.9823 17.0653H20Z" stroke="white" stroke-width="1.30249" stroke-miterlimit="10"/>
<path d="M30.5058 24.3188L31.9634 26.7836L31.4233 26.5118C31.3582 26.4799 31.2802 26.5055 31.2476 26.5662L31.0719 26.9019C31.0394 26.9658 31.0654 27.0425 31.1272 27.0745L33.1542 28.1007C33.2388 28.1454 33.3429 28.0847 33.3429 27.9888L33.408 25.6295C33.408 25.5592 33.3527 25.4985 33.2811 25.4985L32.8972 25.4889C32.8256 25.4889 32.7638 25.5432 32.7638 25.6135L32.7443 26.3041L30.6132 22.698C30.5611 22.6117 30.4375 22.6117 30.3887 22.698L29.289 24.5778C29.2629 24.6193 29.2662 24.6705 29.2922 24.712L29.7022 25.3194C29.7542 25.3994 29.8746 25.3962 29.9234 25.313L30.5025 24.322L30.5058 24.3188ZM32.7215 27.1672L32.7052 27.1608H32.7215V27.1672Z" fill="white"/>
<path d="M28.3715 27.8419L28.4008 28.4142C28.404 28.4845 28.4658 28.5388 28.5374 28.5356L28.9213 28.5165C28.9929 28.5133 29.0482 28.4525 29.045 28.3822L28.9279 26.1444C28.9213 26.0517 28.8205 25.9942 28.7359 26.0389L26.6276 27.1674C26.5658 27.2026 26.5397 27.2793 26.5755 27.34L26.761 27.6725C26.7968 27.7332 26.8749 27.7588 26.9367 27.7236L27.5711 27.3816L25.7621 30.4761C25.7133 30.5624 25.7751 30.6679 25.876 30.6679H27.8639C27.9127 30.6679 27.955 30.6423 27.9778 30.6008L28.3455 29.9486C28.3943 29.8623 28.3292 29.7568 28.2316 29.7568H27.2458L28.3715 27.8323V27.8419Z" fill="white"/>
<path d="M35.2202 30.4535L34.3548 28.9894C34.332 28.951 34.2897 28.9255 34.2442 28.9255L33.4698 28.9127C33.3689 28.9127 33.3039 29.0182 33.3559 29.1045L33.7301 29.7375H31.1826L31.6608 29.4082C31.7194 29.3666 31.7357 29.2867 31.6934 29.2292L31.4721 28.9191C31.4298 28.8615 31.3485 28.8455 31.2899 28.8871L29.4224 30.1722C29.3443 30.2266 29.3508 30.3416 29.4321 30.3896L31.5274 31.5469C31.5892 31.582 31.6706 31.5596 31.7064 31.4989L31.8951 31.1696C31.9309 31.1089 31.9081 31.029 31.8463 30.9938L31.2151 30.6453H35.1129C35.2137 30.6453 35.2755 30.5367 35.2267 30.4535H35.2202Z" fill="white"/>
<path d="M27.7955 14.8531L28.4983 13.3218H32.6043L33.1899 14.8531H27.7955Z" stroke="white" stroke-width="0.651246" stroke-miterlimit="10"/>
</svg>
