<svg width="22" height="22" viewBox="0 0 22 22" fill="none" xmlns="http://www.w3.org/2000/svg">
<path d="M6.12045 16.3686C5.19995 16.7863 4.21786 17.0521 3.21233 17.1557C3.14594 17.1626 3.07897 17.1501 3.01961 17.1195C2.96024 17.089 2.91105 17.0419 2.87803 16.9839C2.13295 15.6707 1.88803 14.0371 2.19053 12.2444C2.57639 9.93098 3.83108 7.61496 5.72428 5.72176C7.61749 3.82856 9.93522 2.57387 12.2469 2.18801C14.2055 1.86231 15.974 2.18801 17.3422 3.09895C17.3982 3.13572 17.4422 3.18804 17.4688 3.24949C17.4955 3.31094 17.5036 3.37884 17.4922 3.44484C17.4808 3.51084 17.4503 3.57207 17.4046 3.621C17.3589 3.66993 17.2998 3.70444 17.2348 3.72028C16.5907 3.87379 15.9628 4.08846 15.3596 4.36137C13.4887 5.21215 11.0971 7.03059 10.3305 10.8668C9.80545 13.469 8.39006 15.3201 6.12045 16.3686ZM19.1219 5.01707C19.089 4.95921 19.0399 4.91216 18.9807 4.88164C18.9215 4.85113 18.8548 4.83847 18.7885 4.8452C17.7826 4.94812 16.8001 5.21399 15.8795 5.63239C13.6099 6.68082 12.1945 8.53192 11.6737 11.1324C10.9063 14.9686 8.51553 16.7871 6.64467 17.6379C6.04146 17.9108 5.41355 18.1254 4.76952 18.2789C4.70297 18.294 4.6424 18.3284 4.59551 18.378C4.54862 18.4275 4.51753 18.4899 4.50619 18.5572C4.49486 18.6244 4.50379 18.6935 4.53186 18.7557C4.55993 18.8179 4.60586 18.8703 4.66381 18.9063C5.68389 19.5869 6.92569 19.9375 8.30327 19.9375C8.79052 19.9361 9.27684 19.8947 9.75733 19.8138C12.0699 19.4279 14.3868 18.1732 16.28 16.28C18.1732 14.3868 19.4279 12.0691 19.8137 9.75739C20.1094 7.96473 19.867 6.3302 19.1219 5.01707Z" fill="#3C280D"/>
</svg>
