<svg width="51" height="63" viewBox="0 0 51 63" fill="none" xmlns="http://www.w3.org/2000/svg">
<g clip-path="url(#clip0_1243_3337)">
<path d="M5.21404 58.5305C5.21404 58.6786 5.17701 58.8394 5.10296 59.0129C5.03102 59.1843 4.91676 59.3536 4.76018 59.5208C4.60361 59.6858 4.40366 59.8201 4.16033 59.9238C3.917 60.0275 3.63347 60.0793 3.30974 60.0793C3.0643 60.0793 2.84108 60.0561 2.64007 60.0095C2.43906 59.963 2.25603 59.891 2.09099 59.7937C1.92807 59.6943 1.77784 59.5641 1.64031 59.4033C1.51759 59.2573 1.41285 59.0944 1.3261 58.9146C1.23935 58.7326 1.17376 58.539 1.12932 58.3337C1.08701 58.1285 1.06585 57.9106 1.06585 57.6799C1.06585 57.3054 1.1198 56.9701 1.22771 56.6738C1.33774 56.3776 1.49431 56.1248 1.69744 55.9153C1.90056 55.7037 2.1386 55.5429 2.41155 55.4329C2.6845 55.3228 2.97543 55.2678 3.28435 55.2678C3.66098 55.2678 3.99635 55.3429 4.29046 55.4932C4.58456 55.6434 4.80991 55.8296 4.96648 56.0518C5.12306 56.2718 5.20135 56.4802 5.20135 56.677C5.20135 56.7849 5.16326 56.8801 5.08709 56.9626C5.01092 57.0452 4.91887 57.0864 4.81096 57.0864C4.69036 57.0864 4.59938 57.0579 4.53802 57.0007C4.47877 56.9436 4.41212 56.8452 4.33806 56.7056C4.21534 56.4749 4.0704 56.3025 3.90325 56.1882C3.73821 56.074 3.53403 56.0168 3.2907 56.0168C2.90349 56.0168 2.59457 56.1639 2.36394 56.458C2.13543 56.7521 2.02117 57.17 2.02117 57.7117C2.02117 58.0735 2.07195 58.375 2.17351 58.6162C2.27508 58.8553 2.41896 59.0341 2.60515 59.1526C2.79135 59.2711 3.00929 59.3303 3.25896 59.3303C3.5298 59.3303 3.75831 59.2637 3.94451 59.1304C4.13282 58.995 4.27459 58.7971 4.3698 58.5369C4.41 58.4141 4.45973 58.3147 4.51897 58.2385C4.57822 58.1602 4.67343 58.1211 4.80462 58.1211C4.91676 58.1211 5.01303 58.1602 5.09344 58.2385C5.17384 58.3168 5.21404 58.4141 5.21404 58.5305ZM8.10857 55.2678C8.59099 55.2678 9.00465 55.3662 9.34954 55.563C9.69654 55.7576 9.95891 56.0359 10.1366 56.3977C10.3144 56.7574 10.4032 57.1806 10.4032 57.6672C10.4032 58.0269 10.3546 58.3538 10.2573 58.6479C10.1599 58.9421 10.0139 59.197 9.81927 59.4128C9.6246 59.6287 9.38551 59.7937 9.10198 59.908C8.81845 60.0222 8.49366 60.0793 8.12761 60.0793C7.76368 60.0793 7.43784 60.0212 7.15008 59.9048C6.86232 59.7863 6.62216 59.6202 6.42962 59.4065C6.23707 59.1928 6.09108 58.9357 5.99163 58.6353C5.8943 58.3348 5.84563 58.01 5.84563 57.6609C5.84563 57.3033 5.89641 56.9753 5.99798 56.677C6.10165 56.3787 6.25082 56.1248 6.44549 55.9153C6.64015 55.7058 6.87713 55.5461 7.15642 55.436C7.43572 55.3239 7.7531 55.2678 8.10857 55.2678ZM9.44793 57.6609C9.44793 57.3202 9.39291 57.0251 9.28289 56.7754C9.17286 56.5257 9.01523 56.3374 8.80999 56.2104C8.60686 56.0814 8.37306 56.0168 8.10857 56.0168C7.92026 56.0168 7.7457 56.0528 7.58489 56.1248C7.4262 56.1946 7.28867 56.2972 7.17229 56.4326C7.05803 56.568 6.96705 56.7415 6.89934 56.9531C6.83375 57.1626 6.80095 57.3985 6.80095 57.6609C6.80095 57.9254 6.83375 58.1645 6.89934 58.3782C6.96705 58.5919 7.06121 58.7696 7.18181 58.9114C7.30454 59.051 7.44418 59.1558 7.60076 59.2256C7.75945 59.2954 7.93295 59.3303 8.12127 59.3303C8.36248 59.3303 8.58359 59.27 8.7846 59.1494C8.98772 59.0288 9.14853 58.8426 9.26702 58.5908C9.38762 58.339 9.44793 58.0291 9.44793 57.6609ZM12.7804 59.2986L12.0346 56.3342V59.5461C12.0346 59.7239 11.9944 59.8572 11.914 59.946C11.8357 60.0349 11.731 60.0793 11.5998 60.0793C11.4728 60.0793 11.3692 60.036 11.2887 59.9492C11.2083 59.8604 11.1681 59.726 11.1681 59.5461V55.8645C11.1681 55.6614 11.221 55.5249 11.3268 55.4551C11.4326 55.3831 11.5755 55.3472 11.7553 55.3472H12.0473C12.2229 55.3472 12.3499 55.363 12.4282 55.3948C12.5086 55.4265 12.5678 55.4836 12.6059 55.5662C12.644 55.6487 12.6873 55.783 12.736 55.9692L13.412 58.5178L14.0881 55.9692C14.1367 55.783 14.1801 55.6487 14.2182 55.5662C14.2563 55.4836 14.3145 55.4265 14.3928 55.3948C14.4732 55.363 14.6012 55.3472 14.7768 55.3472H15.0688C15.2486 55.3472 15.3914 55.3831 15.4972 55.4551C15.603 55.5249 15.6559 55.6614 15.6559 55.8645V59.5461C15.6559 59.7239 15.6157 59.8572 15.5353 59.946C15.457 60.0349 15.3512 60.0793 15.2179 60.0793C15.0931 60.0793 14.9905 60.0349 14.9101 59.946C14.8297 59.8572 14.7895 59.7239 14.7895 59.5461V56.3342L14.0436 59.2986C13.995 59.4911 13.9548 59.6329 13.923 59.7239C13.8934 59.8127 13.8373 59.8942 13.7548 59.9683C13.6723 60.0423 13.558 60.0793 13.412 60.0793C13.302 60.0793 13.2089 60.055 13.1327 60.0063C13.0566 59.9598 12.9973 59.8995 12.955 59.8254C12.9127 59.7514 12.8788 59.6699 12.8534 59.5811C12.8302 59.4901 12.8058 59.3959 12.7804 59.2986ZM18.4299 58.1877H17.5666V59.5049C17.5666 59.6932 17.5221 59.836 17.4333 59.9333C17.3444 60.0307 17.2323 60.0793 17.0969 60.0793C16.9551 60.0793 16.8408 60.0317 16.7541 59.9365C16.6673 59.8392 16.624 59.6974 16.624 59.5112V55.9248C16.624 55.7174 16.6716 55.5693 16.7668 55.4805C16.862 55.3916 17.0133 55.3472 17.2206 55.3472H18.4299C18.7874 55.3472 19.0625 55.3747 19.2551 55.4297C19.4455 55.4826 19.6095 55.5704 19.747 55.6931C19.8866 55.8158 19.9924 55.9661 20.0644 56.1438C20.1363 56.3215 20.1723 56.5215 20.1723 56.7437C20.1723 57.2176 20.0263 57.5773 19.7343 57.8228C19.4423 58.0661 19.0075 58.1877 18.4299 58.1877ZM18.2013 56.0549H17.5666V57.4768H18.2013C18.4235 57.4768 18.6087 57.4535 18.7568 57.407C18.907 57.3604 19.0213 57.2843 19.0995 57.1785C19.1778 57.0727 19.217 56.9341 19.217 56.7627C19.217 56.5575 19.1567 56.3903 19.0361 56.2612C18.9006 56.1237 18.6224 56.0549 18.2013 56.0549ZM20.9657 58.0767V55.8391C20.9657 55.6487 21.0081 55.5059 21.0927 55.4106C21.1795 55.3154 21.2927 55.2678 21.4323 55.2678C21.5783 55.2678 21.6936 55.3154 21.7782 55.4106C21.865 55.5059 21.9084 55.6487 21.9084 55.8391V58.1274C21.9084 58.3877 21.9369 58.6056 21.9941 58.7812C22.0533 58.9548 22.157 59.0902 22.3051 59.1875C22.4532 59.2827 22.6606 59.3303 22.9272 59.3303C23.2953 59.3303 23.5556 59.233 23.7079 59.0383C23.8603 58.8416 23.9365 58.5443 23.9365 58.1465V55.8391C23.9365 55.6466 23.9788 55.5037 24.0634 55.4106C24.148 55.3154 24.2612 55.2678 24.403 55.2678C24.5448 55.2678 24.659 55.3154 24.7458 55.4106C24.8346 55.5037 24.8791 55.6466 24.8791 55.8391V58.0767C24.8791 58.4406 24.8431 58.7442 24.7712 58.9875C24.7013 59.2309 24.568 59.4446 24.3713 59.6287C24.202 59.7852 24.0052 59.8995 23.7809 59.9714C23.5567 60.0434 23.2943 60.0793 22.9938 60.0793C22.6362 60.0793 22.3284 60.0413 22.0702 59.9651C21.8121 59.8868 21.6016 59.7673 21.4387 59.6064C21.2757 59.4435 21.1562 59.2362 21.08 58.9844C21.0038 58.7305 20.9657 58.4279 20.9657 58.0767ZM28.9194 56.1248H27.891V59.5049C27.891 59.6995 27.8477 59.8445 27.7609 59.9397C27.6742 60.0328 27.562 60.0793 27.4245 60.0793C27.2848 60.0793 27.1706 60.0317 27.0817 59.9365C26.995 59.8413 26.9516 59.6974 26.9516 59.5049V56.1248H25.9233C25.7625 56.1248 25.6429 56.0898 25.5646 56.02C25.4863 55.9481 25.4472 55.8539 25.4472 55.7375C25.4472 55.6169 25.4874 55.5217 25.5678 55.4519C25.6503 55.3821 25.7688 55.3472 25.9233 55.3472H28.9194C29.0823 55.3472 29.2029 55.3831 29.2812 55.4551C29.3616 55.527 29.4018 55.6212 29.4018 55.7375C29.4018 55.8539 29.3616 55.9481 29.2812 56.02C29.2008 56.0898 29.0802 56.1248 28.9194 56.1248ZM33.0263 56.074H30.903V57.2166H32.8581C33.002 57.2166 33.1088 57.2493 33.1786 57.3149C33.2506 57.3784 33.2866 57.4631 33.2866 57.5688C33.2866 57.6746 33.2516 57.7614 33.1818 57.8291C33.112 57.8947 33.0041 57.9275 32.8581 57.9275H30.903V59.251H33.0993C33.2474 59.251 33.3585 59.2859 33.4325 59.3557C33.5087 59.4234 33.5468 59.5144 33.5468 59.6287C33.5468 59.7387 33.5087 59.8286 33.4325 59.8984C33.3585 59.9661 33.2474 60 33.0993 60H30.538C30.3328 60 30.1847 59.9545 30.0937 59.8635C30.0048 59.7725 29.9604 59.6255 29.9604 59.4224V55.9248C29.9604 55.7894 29.9805 55.6794 30.0207 55.5947C30.0609 55.508 30.1233 55.4456 30.2079 55.4075C30.2947 55.3673 30.4047 55.3472 30.538 55.3472H33.0263C33.1765 55.3472 33.2876 55.381 33.3595 55.4487C33.4336 55.5143 33.4706 55.6011 33.4706 55.709C33.4706 55.819 33.4336 55.9079 33.3595 55.9756C33.2876 56.0412 33.1765 56.074 33.0263 56.074ZM35.5622 58.01H35.2321V59.5049C35.2321 59.7017 35.1887 59.8466 35.102 59.9397C35.0152 60.0328 34.902 60.0793 34.7624 60.0793C34.6122 60.0793 34.4958 60.0307 34.4133 59.9333C34.3307 59.836 34.2895 59.6932 34.2895 59.5049V55.9248C34.2895 55.7217 34.335 55.5746 34.426 55.4836C34.5169 55.3927 34.664 55.3472 34.8671 55.3472H36.4001C36.6117 55.3472 36.7926 55.3567 36.9428 55.3757C37.093 55.3927 37.2284 55.4286 37.3491 55.4836C37.495 55.545 37.6241 55.6328 37.7363 55.7471C37.8484 55.8613 37.933 55.9946 37.9902 56.147C38.0494 56.2972 38.079 56.4569 38.079 56.6262C38.079 56.9732 37.9806 57.2504 37.7839 57.4578C37.5892 57.6651 37.293 57.8122 36.8952 57.8989C37.0623 57.9878 37.2221 58.119 37.3744 58.2925C37.5268 58.466 37.6622 58.6511 37.7807 58.8479C37.9013 59.0426 37.9944 59.2192 38.06 59.3779C38.1277 59.5345 38.1616 59.6424 38.1616 59.7017C38.1616 59.763 38.1415 59.8244 38.1012 59.8857C38.0632 59.945 38.0103 59.9915 37.9426 60.0254C37.8748 60.0614 37.7966 60.0793 37.7077 60.0793C37.6019 60.0793 37.513 60.054 37.4411 60.0032C37.3692 59.9545 37.3067 59.8921 37.2538 59.8159C37.2031 59.7397 37.1332 59.6276 37.0444 59.4795L36.6667 58.8511C36.5313 58.6204 36.4096 58.4448 36.3017 58.3242C36.1959 58.2036 36.088 58.1211 35.978 58.0767C35.8679 58.0322 35.7293 58.01 35.5622 58.01ZM36.1017 56.0549H35.2321V57.334H36.0763C36.3027 57.334 36.4932 57.3149 36.6476 57.2769C36.8021 57.2367 36.9195 57.17 36.9999 57.0769C37.0825 56.9817 37.1237 56.8516 37.1237 56.6865C37.1237 56.5575 37.0909 56.4443 37.0253 56.3469C36.9597 56.2475 36.8687 56.1734 36.7524 56.1248C36.6423 56.0782 36.4255 56.0549 36.1017 56.0549ZM41.7543 56.074H39.8976V57.2642H41.4496C41.5935 57.2642 41.7004 57.297 41.7702 57.3625C41.8421 57.426 41.8781 57.5117 41.8781 57.6196C41.8781 57.7275 41.8421 57.8132 41.7702 57.8767C41.6983 57.9402 41.5914 57.9719 41.4496 57.9719H39.8976V59.5049C39.8976 59.6995 39.8532 59.8445 39.7643 59.9397C39.6776 60.0328 39.5654 60.0793 39.4279 60.0793C39.2883 60.0793 39.174 60.0317 39.0851 59.9365C38.9984 59.8413 38.955 59.6974 38.955 59.5049V55.9248C38.955 55.7894 38.9751 55.6794 39.0153 55.5947C39.0555 55.508 39.1179 55.4456 39.2026 55.4075C39.2893 55.3673 39.3993 55.3472 39.5326 55.3472H41.7543C41.9046 55.3472 42.0156 55.381 42.0876 55.4487C42.1616 55.5143 42.1987 55.6011 42.1987 55.709C42.1987 55.819 42.1616 55.9079 42.0876 55.9756C42.0156 56.0412 41.9046 56.074 41.7543 56.074ZM44.1696 58.01H43.8395V59.5049C43.8395 59.7017 43.7962 59.8466 43.7094 59.9397C43.6227 60.0328 43.5095 60.0793 43.3698 60.0793C43.2196 60.0793 43.1032 60.0307 43.0207 59.9333C42.9382 59.836 42.8969 59.6932 42.8969 59.5049V55.9248C42.8969 55.7217 42.9424 55.5746 43.0334 55.4836C43.1244 55.3927 43.2714 55.3472 43.4745 55.3472H45.0075C45.2191 55.3472 45.4 55.3567 45.5502 55.3757C45.7005 55.3927 45.8359 55.4286 45.9565 55.4836C46.1025 55.545 46.2315 55.6328 46.3437 55.7471C46.4558 55.8613 46.5405 55.9946 46.5976 56.147C46.6568 56.2972 46.6865 56.4569 46.6865 56.6262C46.6865 56.9732 46.5881 57.2504 46.3913 57.4578C46.1966 57.6651 45.9004 57.8122 45.5026 57.8989C45.6698 57.9878 45.8295 58.119 45.9819 58.2925C46.1342 58.466 46.2696 58.6511 46.3881 58.8479C46.5087 59.0426 46.6018 59.2192 46.6674 59.3779C46.7351 59.5345 46.769 59.6424 46.769 59.7017C46.769 59.763 46.7489 59.8244 46.7087 59.8857C46.6706 59.945 46.6177 59.9915 46.55 60.0254C46.4823 60.0614 46.404 60.0793 46.3151 60.0793C46.2093 60.0793 46.1205 60.054 46.0485 60.0032C45.9766 59.9545 45.9142 59.8921 45.8613 59.8159C45.8105 59.7397 45.7407 59.6276 45.6518 59.4795L45.2741 58.8511C45.1387 58.6204 45.017 58.4448 44.9091 58.3242C44.8033 58.2036 44.6954 58.1211 44.5854 58.0767C44.4754 58.0322 44.3368 58.01 44.1696 58.01ZM44.7092 56.0549H43.8395V57.334H44.6838C44.9102 57.334 45.1006 57.3149 45.2551 57.2769C45.4095 57.2367 45.5269 57.17 45.6074 57.0769C45.6899 56.9817 45.7311 56.8516 45.7311 56.6865C45.7311 56.5575 45.6983 56.4443 45.6327 56.3469C45.5672 56.2475 45.4762 56.1734 45.3598 56.1248C45.2498 56.0782 45.0329 56.0549 44.7092 56.0549ZM47.6196 59.5049V55.8391C47.6196 55.6487 47.6629 55.5059 47.7497 55.4106C47.8364 55.3154 47.9486 55.2678 48.0861 55.2678C48.2279 55.2678 48.3421 55.3154 48.4289 55.4106C48.5178 55.5037 48.5622 55.6466 48.5622 55.8391V59.5049C48.5622 59.6974 48.5178 59.8413 48.4289 59.9365C48.3421 60.0317 48.2279 60.0793 48.0861 60.0793C47.9507 60.0793 47.8386 60.0317 47.7497 59.9365C47.6629 59.8392 47.6196 59.6953 47.6196 59.5049Z" fill="white"/>
<path d="M24.3274 46.832C36.7538 46.832 46.8274 36.7584 46.8274 24.332C46.8274 11.9056 36.7538 1.83203 24.3274 1.83203C11.901 1.83203 1.82738 11.9056 1.82738 24.332C1.82738 36.7584 11.901 46.832 24.3274 46.832Z" stroke="white" stroke-width="2.32759" stroke-miterlimit="10"/>
<path d="M33.3261 15.0427C36.6022 12.0467 36.8929 11.4866 40.3995 8.58984" stroke="white" stroke-width="2.32759" stroke-miterlimit="10"/>
<path d="M7.29112 39.6381C10.4041 36.5747 11.6486 35.1884 14.797 32.1641" stroke="white" stroke-width="2.32759" stroke-miterlimit="10"/>
<path d="M29.7254 14.1323H20.314C19.3047 14.1323 18.4865 14.9526 18.4865 15.9644V22.6477C18.4865 23.6595 19.3047 24.4797 20.314 24.4797H29.7254C30.7347 24.4797 31.5528 23.6595 31.5528 22.6477V15.9644C31.5528 14.9526 30.7347 14.1323 29.7254 14.1323Z" stroke="white" stroke-width="1.16379" stroke-miterlimit="10"/>
<path d="M33.4497 33.0172L32.1887 26.682C32.112 26.2936 31.7392 26.0078 31.3043 26.0078H18.852C18.4243 26.0078 18.0552 26.2826 17.9711 26.6673L16.6042 32.878C16.3666 33.5339 16.8856 34.2813 17.4996 34.2813H32.4994C33.1061 34.2813 33.6836 33.6694 33.457 33.0136L33.4497 33.0172ZM27.6713 28.9867H27.1742C27.1121 28.9867 27.0646 28.9354 27.0646 28.8768V28.6203C27.0646 28.558 27.1157 28.5104 27.1742 28.5104H27.6713C27.7334 28.5104 27.7809 28.5617 27.7809 28.6203V28.8768C27.7809 28.9391 27.7297 28.9867 27.6713 28.9867ZM27.7809 29.3971V29.6536C27.7809 29.7159 27.7297 29.7635 27.6713 29.7635H27.1742C27.1121 29.7635 27.0646 29.7122 27.0646 29.6536V29.3971C27.0646 29.3348 27.1157 29.2872 27.1742 29.2872H27.6713C27.7334 29.2872 27.7809 29.3385 27.7809 29.3971ZM27.0463 27.8948C27.0463 27.8325 27.0974 27.7849 27.1559 27.7849H27.653C27.7151 27.7849 27.7626 27.8362 27.7626 27.8948V28.1513C27.7626 28.2136 27.7115 28.2612 27.653 28.2612H27.1559C27.0938 28.2612 27.0463 28.2099 27.0463 28.1513V27.8948ZM26.1143 30.1189C26.1143 30.0566 26.1654 30.009 26.2239 30.009H26.721C26.7831 30.009 26.8306 30.0603 26.8306 30.1189V30.3754C26.8306 30.4377 26.7795 30.4853 26.721 30.4853H26.2239C26.1618 30.4853 26.1143 30.434 26.1143 30.3754V30.1189ZM26.0997 29.6573V29.4008C26.0997 29.3385 26.1508 29.2908 26.2093 29.2908H26.7064C26.7685 29.2908 26.816 29.3421 26.816 29.4008V29.6573C26.816 29.7195 26.7648 29.7672 26.7064 29.7672H26.2093C26.1472 29.7672 26.0997 29.7159 26.0997 29.6573ZM26.816 28.8768C26.816 28.9391 26.7648 28.9867 26.7064 28.9867H26.2093C26.1472 28.9867 26.0997 28.9354 26.0997 28.8768V28.6203C26.0997 28.558 26.1508 28.5104 26.2093 28.5104H26.7064C26.7685 28.5104 26.816 28.5617 26.816 28.6203V28.8768ZM26.0814 27.8948C26.0814 27.8325 26.1325 27.7849 26.191 27.7849H26.6881C26.7502 27.7849 26.7977 27.8362 26.7977 27.8948V28.1513C26.7977 28.2136 26.7466 28.2612 26.6881 28.2612H26.191C26.1289 28.2612 26.0814 28.2099 26.0814 28.1513V27.8948ZM25.153 30.1189C25.153 30.0566 25.2042 30.009 25.2627 30.009H25.7597C25.8219 30.009 25.8694 30.0603 25.8694 30.1189V30.3754C25.8694 30.4377 25.8182 30.4853 25.7597 30.4853H25.2627C25.2005 30.4853 25.153 30.434 25.153 30.3754V30.1189ZM25.1348 29.6573V29.4008C25.1348 29.3385 25.1859 29.2908 25.2444 29.2908H25.7415C25.8036 29.2908 25.8511 29.3421 25.8511 29.4008V29.6573C25.8511 29.7195 25.7999 29.7672 25.7415 29.7672H25.2444C25.1823 29.7672 25.1348 29.7159 25.1348 29.6573ZM25.8548 28.8768C25.8548 28.9391 25.8036 28.9867 25.7451 28.9867H25.2481C25.1859 28.9867 25.1384 28.9354 25.1384 28.8768V28.6203C25.1384 28.558 25.1896 28.5104 25.2481 28.5104H25.7451C25.8073 28.5104 25.8548 28.5617 25.8548 28.6203V28.8768ZM25.1201 27.8948C25.1201 27.8325 25.1713 27.7849 25.2298 27.7849H25.7268C25.789 27.7849 25.8365 27.8362 25.8365 27.8948V28.1513C25.8365 28.2136 25.7853 28.2612 25.7268 28.2612H25.2298C25.1676 28.2612 25.1201 28.2099 25.1201 28.1513V27.8948ZM24.2064 30.1006C24.2064 30.0383 24.2576 29.9907 24.3161 29.9907H24.8131C24.8753 29.9907 24.9228 30.042 24.9228 30.1006V30.3571C24.9228 30.4194 24.8716 30.467 24.8131 30.467H24.3161C24.2539 30.467 24.2064 30.4157 24.2064 30.3571V30.1006ZM24.1881 29.6353V29.3788C24.1881 29.3165 24.2393 29.2689 24.2978 29.2689H24.7948C24.857 29.2689 24.9045 29.3202 24.9045 29.3788V29.6353C24.9045 29.6976 24.8533 29.7452 24.7948 29.7452H24.2978C24.2356 29.7452 24.1881 29.6939 24.1881 29.6353ZM24.9081 28.8548C24.9081 28.9171 24.857 28.9647 24.7985 28.9647H24.3014C24.2393 28.9647 24.1918 28.9134 24.1918 28.8548V28.5983C24.1918 28.536 24.243 28.4884 24.3014 28.4884H24.7985C24.8606 28.4884 24.9081 28.5397 24.9081 28.5983V28.8548ZM24.1735 27.8765C24.1735 27.8142 24.2247 27.7666 24.2832 27.7666H24.7802C24.8424 27.7666 24.8899 27.8179 24.8899 27.8765V28.133C24.8899 28.1953 24.8387 28.2429 24.7802 28.2429H24.2832C24.221 28.2429 24.1735 28.1916 24.1735 28.133V27.8765ZM23.2744 30.1006C23.2744 30.0383 23.3256 29.9907 23.384 29.9907H23.8811C23.9432 29.9907 23.9908 30.042 23.9908 30.1006V30.3571C23.9908 30.4194 23.9396 30.467 23.8811 30.467H23.384C23.3219 30.467 23.2744 30.4157 23.2744 30.3571V30.1006ZM23.2561 29.6353V29.3788C23.2561 29.3165 23.3073 29.2689 23.3658 29.2689H23.8628C23.925 29.2689 23.9725 29.3202 23.9725 29.3788V29.6353C23.9725 29.6976 23.9213 29.7452 23.8628 29.7452H23.3658C23.3036 29.7452 23.2561 29.6939 23.2561 29.6353ZM23.9761 28.8548C23.9761 28.9171 23.925 28.9647 23.8665 28.9647H23.3694C23.3073 28.9647 23.2598 28.9134 23.2598 28.8548V28.5983C23.2598 28.536 23.311 28.4884 23.3694 28.4884H23.8665C23.9286 28.4884 23.9761 28.5397 23.9761 28.5983V28.8548ZM23.2415 27.8765C23.2415 27.8142 23.2927 27.7666 23.3512 27.7666H23.8482C23.9104 27.7666 23.9579 27.8179 23.9579 27.8765V28.133C23.9579 28.1953 23.9067 28.2429 23.8482 28.2429H23.3512C23.289 28.2429 23.2415 28.1916 23.2415 28.133V27.8765ZM20.3505 27.8765C20.3505 27.8142 20.4016 27.7666 20.4601 27.7666H20.9572C21.0193 27.7666 21.0668 27.8179 21.0668 27.8765V28.133C21.0668 28.1953 21.0157 28.2429 20.9572 28.2429H20.4601C20.398 28.2429 20.3505 28.1916 20.3505 28.133V27.8765ZM21.0851 28.5983V28.8548C21.0851 28.9171 21.0339 28.9647 20.9755 28.9647H20.4784C20.4163 28.9647 20.3687 28.9134 20.3687 28.8548V28.5983C20.3687 28.536 20.4199 28.4884 20.4784 28.4884H20.9755C21.0376 28.4884 21.0851 28.5397 21.0851 28.5983ZM20.3651 29.3788C20.3651 29.3165 20.4163 29.2689 20.4747 29.2689H20.9718C21.0339 29.2689 21.0815 29.3202 21.0815 29.3788V29.6353C21.0815 29.6976 21.0303 29.7452 20.9718 29.7452H20.4747C20.4126 29.7452 20.3651 29.6939 20.3651 29.6353V29.3788ZM21.0997 30.3571C21.0997 30.4194 21.0486 30.467 20.9901 30.467H20.493C20.4309 30.467 20.3834 30.4157 20.3834 30.3571V30.1006C20.3834 30.0383 20.4345 29.9907 20.493 29.9907H20.9901C21.0522 29.9907 21.0997 30.042 21.0997 30.1006V30.3571ZM21.3154 27.8765C21.3154 27.8142 21.3665 27.7666 21.425 27.7666H21.9221C21.9842 27.7666 22.0317 27.8179 22.0317 27.8765V28.133C22.0317 28.1953 21.9806 28.2429 21.9221 28.2429H21.425C21.3629 28.2429 21.3154 28.1916 21.3154 28.133V27.8765ZM22.05 28.5983V28.8548C22.05 28.9171 21.9988 28.9647 21.9404 28.9647H21.4433C21.3812 28.9647 21.3336 28.9134 21.3336 28.8548V28.5983C21.3336 28.536 21.3848 28.4884 21.4433 28.4884H21.9404C22.0025 28.4884 22.05 28.5397 22.05 28.5983ZM21.33 29.3788C21.33 29.3165 21.3812 29.2689 21.4396 29.2689H21.9367C21.9988 29.2689 22.0463 29.3202 22.0463 29.3788V29.6353C22.0463 29.6976 21.9952 29.7452 21.9367 29.7452H21.4396C21.3775 29.7452 21.33 29.6939 21.33 29.6353V29.3788ZM22.0646 30.3571C22.0646 30.4194 22.0135 30.467 21.955 30.467H21.4579C21.3958 30.467 21.3483 30.4157 21.3483 30.3571V30.1006C21.3483 30.0383 21.3994 29.9907 21.4579 29.9907H21.955C22.0171 29.9907 22.0646 30.042 22.0646 30.1006V30.3571ZM22.2766 27.8765C22.2766 27.8142 22.3278 27.7666 22.3863 27.7666H22.8833C22.9455 27.7666 22.993 27.8179 22.993 27.8765V28.133C22.993 28.1953 22.9418 28.2429 22.8833 28.2429H22.3863C22.3241 28.2429 22.2766 28.1916 22.2766 28.133V27.8765ZM23.0112 28.5983V28.8548C23.0112 28.9171 22.9601 28.9647 22.9016 28.9647H22.4045C22.3424 28.9647 22.2949 28.9134 22.2949 28.8548V28.5983C22.2949 28.536 22.3461 28.4884 22.4045 28.4884H22.9016C22.9637 28.4884 23.0112 28.5397 23.0112 28.5983ZM22.2949 29.3788C22.2949 29.3165 22.3461 29.2689 22.4045 29.2689H22.9016C22.9637 29.2689 23.0112 29.3202 23.0112 29.3788V29.6353C23.0112 29.6976 22.9601 29.7452 22.9016 29.7452H22.4045C22.3424 29.7452 22.2949 29.6939 22.2949 29.6353V29.3788ZM22.3095 30.3571V30.1006C22.3095 30.0383 22.3607 29.9907 22.4192 29.9907H22.9162C22.9784 29.9907 23.0259 30.042 23.0259 30.1006V30.3571C23.0259 30.4194 22.9747 30.467 22.9162 30.467H22.4192C22.357 30.467 22.3095 30.4157 22.3095 30.3571ZM26.8928 33.6255H23.1355C22.982 33.6255 22.8504 33.4386 22.9126 33.2737L23.2561 31.7165C23.2781 31.6212 23.3694 31.5516 23.4754 31.5516H26.5967C26.7064 31.5516 26.7977 31.6212 26.8197 31.7201L27.134 33.3067C27.1925 33.4716 27.0463 33.6255 26.8928 33.6255ZM27.7992 30.3791C27.7992 30.4414 27.748 30.489 27.6895 30.489H27.1925C27.1303 30.489 27.0828 30.4377 27.0828 30.3791V30.1226C27.0828 30.0603 27.134 30.0127 27.1925 30.0127H27.6895C27.7517 30.0127 27.7992 30.064 27.7992 30.1226V30.3791ZM28.0112 27.8948C28.0112 27.8325 28.0623 27.7849 28.1208 27.7849H28.6179C28.68 27.7849 28.7275 27.8362 28.7275 27.8948V28.1513C28.7275 28.2136 28.6764 28.2612 28.6179 28.2612H28.1208C28.0587 28.2612 28.0112 28.2099 28.0112 28.1513V27.8948ZM28.7458 28.6166V28.8731C28.7458 28.9354 28.6946 28.9831 28.6362 28.9831H28.1391C28.077 28.9831 28.0294 28.9318 28.0294 28.8731V28.6166C28.0294 28.5544 28.0806 28.5067 28.1391 28.5067H28.6362C28.6983 28.5067 28.7458 28.558 28.7458 28.6166ZM28.0258 29.3971C28.0258 29.3348 28.077 29.2872 28.1354 29.2872H28.6325C28.6946 29.2872 28.7422 29.3385 28.7422 29.3971V29.6536C28.7422 29.7159 28.691 29.7635 28.6325 29.7635H28.1354C28.0733 29.7635 28.0258 29.7122 28.0258 29.6536V29.3971ZM28.7604 30.3791C28.7604 30.4414 28.7093 30.489 28.6508 30.489H28.1537C28.0916 30.489 28.0441 30.4377 28.0441 30.3791V30.1226C28.0441 30.0603 28.0952 30.0127 28.1537 30.0127H28.6508C28.7129 30.0127 28.7604 30.064 28.7604 30.1226V30.3791ZM28.9395 27.8948C28.9395 27.8325 28.9907 27.7849 29.0492 27.7849H29.5462C29.6084 27.7849 29.6559 27.8362 29.6559 27.8948V28.1513C29.6559 28.2136 29.6047 28.2612 29.5462 28.2612H29.0492C28.987 28.2612 28.9395 28.2099 28.9395 28.1513V27.8948ZM29.6742 28.6166V28.8731C29.6742 28.9354 29.623 28.9831 29.5645 28.9831H29.0674C29.0053 28.9831 28.9578 28.9318 28.9578 28.8731V28.6166C28.9578 28.5544 29.009 28.5067 29.0674 28.5067H29.5645C29.6266 28.5067 29.6742 28.558 29.6742 28.6166ZM28.9578 29.3971C28.9578 29.3348 29.009 29.2872 29.0674 29.2872H29.5645C29.6266 29.2872 29.6742 29.3385 29.6742 29.3971V29.6536C29.6742 29.7159 29.623 29.7635 29.5645 29.7635H29.0674C29.0053 29.7635 28.9578 29.7122 28.9578 29.6536V29.3971ZM29.6924 30.3791C29.6924 30.4414 29.6413 30.489 29.5828 30.489H29.0857C29.0236 30.489 28.9761 30.4377 28.9761 30.3791V30.1226C28.9761 30.0603 29.0272 30.0127 29.0857 30.0127H29.5828C29.6449 30.0127 29.6924 30.064 29.6924 30.1226V30.3791Z" fill="white"/>
</g>
<defs>
<clipPath id="clip0_1243_3337">
<rect width="50.0431" height="62.6121" fill="white"/>
</clipPath>
</defs>
</svg>
