<svg width="215" height="275" viewBox="0 0 215 275" fill="none" xmlns="http://www.w3.org/2000/svg">
<path d="M35.2148 266.574C35.2148 267.121 35.0781 267.715 34.8047 268.355C34.5391 268.988 34.1172 269.613 33.5391 270.23C32.9609 270.84 32.2227 271.336 31.3242 271.719C30.4258 272.102 29.3789 272.293 28.1836 272.293C27.2773 272.293 26.4531 272.207 25.7109 272.035C24.9688 271.863 24.293 271.598 23.6836 271.238C23.082 270.871 22.5273 270.391 22.0195 269.797C21.5664 269.258 21.1797 268.656 20.8594 267.992C20.5391 267.32 20.2969 266.605 20.1328 265.848C19.9766 265.09 19.8984 264.285 19.8984 263.434C19.8984 262.051 20.0977 260.812 20.4961 259.719C20.9023 258.625 21.4805 257.691 22.2305 256.918C22.9805 256.137 23.8594 255.543 24.8672 255.137C25.875 254.73 26.9492 254.527 28.0898 254.527C29.4805 254.527 30.7188 254.805 31.8047 255.359C32.8906 255.914 33.7227 256.602 34.3008 257.422C34.8789 258.234 35.168 259.004 35.168 259.73C35.168 260.129 35.0273 260.48 34.7461 260.785C34.4648 261.09 34.125 261.242 33.7266 261.242C33.2812 261.242 32.9453 261.137 32.7188 260.926C32.5 260.715 32.2539 260.352 31.9805 259.836C31.5273 258.984 30.9922 258.348 30.375 257.926C29.7656 257.504 29.0117 257.293 28.1133 257.293C26.6836 257.293 25.543 257.836 24.6914 258.922C23.8477 260.008 23.4258 261.551 23.4258 263.551C23.4258 264.887 23.6133 266 23.9883 266.891C24.3633 267.773 24.8945 268.434 25.582 268.871C26.2695 269.309 27.0742 269.527 27.9961 269.527C28.9961 269.527 29.8398 269.281 30.5273 268.789C31.2227 268.289 31.7461 267.559 32.0977 266.598C32.2461 266.145 32.4297 265.777 32.6484 265.496C32.8672 265.207 33.2188 265.062 33.7031 265.062C34.1172 265.062 34.4727 265.207 34.7695 265.496C35.0664 265.785 35.2148 266.145 35.2148 266.574ZM45.9023 254.527C47.6836 254.527 49.2109 254.891 50.4844 255.617C51.7656 256.336 52.7344 257.363 53.3906 258.699C54.0469 260.027 54.375 261.59 54.375 263.387C54.375 264.715 54.1953 265.922 53.8359 267.008C53.4766 268.094 52.9375 269.035 52.2188 269.832C51.5 270.629 50.6172 271.238 49.5703 271.66C48.5234 272.082 47.3242 272.293 45.9727 272.293C44.6289 272.293 43.4258 272.078 42.3633 271.648C41.3008 271.211 40.4141 270.598 39.7031 269.809C38.9922 269.02 38.4531 268.07 38.0859 266.961C37.7266 265.852 37.5469 264.652 37.5469 263.363C37.5469 262.043 37.7344 260.832 38.1094 259.73C38.4922 258.629 39.043 257.691 39.7617 256.918C40.4805 256.145 41.3555 255.555 42.3867 255.148C43.418 254.734 44.5898 254.527 45.9023 254.527ZM50.8477 263.363C50.8477 262.105 50.6445 261.016 50.2383 260.094C49.832 259.172 49.25 258.477 48.4922 258.008C47.7422 257.531 46.8789 257.293 45.9023 257.293C45.207 257.293 44.5625 257.426 43.9688 257.691C43.3828 257.949 42.875 258.328 42.4453 258.828C42.0234 259.328 41.6875 259.969 41.4375 260.75C41.1953 261.523 41.0742 262.395 41.0742 263.363C41.0742 264.34 41.1953 265.223 41.4375 266.012C41.6875 266.801 42.0352 267.457 42.4805 267.98C42.9336 268.496 43.4492 268.883 44.0273 269.141C44.6133 269.398 45.2539 269.527 45.9492 269.527C46.8398 269.527 47.6562 269.305 48.3984 268.859C49.1484 268.414 49.7422 267.727 50.1797 266.797C50.625 265.867 50.8477 264.723 50.8477 263.363ZM63.1523 269.41L60.3984 258.465V270.324C60.3984 270.98 60.25 271.473 59.9531 271.801C59.6641 272.129 59.2773 272.293 58.793 272.293C58.3242 272.293 57.9414 272.133 57.6445 271.812C57.3477 271.484 57.1992 270.988 57.1992 270.324V256.73C57.1992 255.98 57.3945 255.477 57.7852 255.219C58.1758 254.953 58.7031 254.82 59.3672 254.82H60.4453C61.0938 254.82 61.5625 254.879 61.8516 254.996C62.1484 255.113 62.3672 255.324 62.5078 255.629C62.6484 255.934 62.8086 256.43 62.9883 257.117L65.4844 266.527L67.9805 257.117C68.1602 256.43 68.3203 255.934 68.4609 255.629C68.6016 255.324 68.8164 255.113 69.1055 254.996C69.4023 254.879 69.875 254.82 70.5234 254.82H71.6016C72.2656 254.82 72.793 254.953 73.1836 255.219C73.5742 255.477 73.7695 255.98 73.7695 256.73V270.324C73.7695 270.98 73.6211 271.473 73.3242 271.801C73.0352 272.129 72.6445 272.293 72.1523 272.293C71.6914 272.293 71.3125 272.129 71.0156 271.801C70.7188 271.473 70.5703 270.98 70.5703 270.324V258.465L67.8164 269.41C67.6367 270.121 67.4883 270.645 67.3711 270.98C67.2617 271.309 67.0547 271.609 66.75 271.883C66.4453 272.156 66.0234 272.293 65.4844 272.293C65.0781 272.293 64.7344 272.203 64.4531 272.023C64.1719 271.852 63.9531 271.629 63.7969 271.355C63.6406 271.082 63.5156 270.781 63.4219 270.453C63.3359 270.117 63.2461 269.77 63.1523 269.41ZM84.0117 265.309H80.8242V270.172C80.8242 270.867 80.6602 271.395 80.332 271.754C80.0039 272.113 79.5898 272.293 79.0898 272.293C78.5664 272.293 78.1445 272.117 77.8242 271.766C77.5039 271.406 77.3438 270.883 77.3438 270.195V256.953C77.3438 256.188 77.5195 255.641 77.8711 255.312C78.2227 254.984 78.7812 254.82 79.5469 254.82H84.0117C85.332 254.82 86.3477 254.922 87.0586 255.125C87.7617 255.32 88.3672 255.645 88.875 256.098C89.3906 256.551 89.7812 257.105 90.0469 257.762C90.3125 258.418 90.4453 259.156 90.4453 259.977C90.4453 261.727 89.9062 263.055 88.8281 263.961C87.75 264.859 86.1445 265.309 84.0117 265.309ZM83.168 257.434H80.8242V262.684H83.168C83.9883 262.684 84.6719 262.598 85.2188 262.426C85.7734 262.254 86.1953 261.973 86.4844 261.582C86.7734 261.191 86.918 260.68 86.918 260.047C86.918 259.289 86.6953 258.672 86.25 258.195C85.75 257.688 84.7227 257.434 83.168 257.434ZM93.375 264.898V256.637C93.375 255.934 93.5312 255.406 93.8438 255.055C94.1641 254.703 94.582 254.527 95.0977 254.527C95.6367 254.527 96.0625 254.703 96.375 255.055C96.6953 255.406 96.8555 255.934 96.8555 256.637V265.086C96.8555 266.047 96.9609 266.852 97.1719 267.5C97.3906 268.141 97.7734 268.641 98.3203 269C98.8672 269.352 99.6328 269.527 100.617 269.527C101.977 269.527 102.938 269.168 103.5 268.449C104.062 267.723 104.344 266.625 104.344 265.156V256.637C104.344 255.926 104.5 255.398 104.812 255.055C105.125 254.703 105.543 254.527 106.066 254.527C106.59 254.527 107.012 254.703 107.332 255.055C107.66 255.398 107.824 255.926 107.824 256.637V264.898C107.824 266.242 107.691 267.363 107.426 268.262C107.168 269.16 106.676 269.949 105.949 270.629C105.324 271.207 104.598 271.629 103.77 271.895C102.941 272.16 101.973 272.293 100.863 272.293C99.543 272.293 98.4062 272.152 97.4531 271.871C96.5 271.582 95.7227 271.141 95.1211 270.547C94.5195 269.945 94.0781 269.18 93.7969 268.25C93.5156 267.312 93.375 266.195 93.375 264.898ZM122.742 257.691H118.945V270.172C118.945 270.891 118.785 271.426 118.465 271.777C118.145 272.121 117.73 272.293 117.223 272.293C116.707 272.293 116.285 272.117 115.957 271.766C115.637 271.414 115.477 270.883 115.477 270.172V257.691H111.68C111.086 257.691 110.645 257.562 110.355 257.305C110.066 257.039 109.922 256.691 109.922 256.262C109.922 255.816 110.07 255.465 110.367 255.207C110.672 254.949 111.109 254.82 111.68 254.82H122.742C123.344 254.82 123.789 254.953 124.078 255.219C124.375 255.484 124.523 255.832 124.523 256.262C124.523 256.691 124.375 257.039 124.078 257.305C123.781 257.562 123.336 257.691 122.742 257.691ZM137.906 257.504H130.066V261.723H137.285C137.816 261.723 138.211 261.844 138.469 262.086C138.734 262.32 138.867 262.633 138.867 263.023C138.867 263.414 138.738 263.734 138.48 263.984C138.223 264.227 137.824 264.348 137.285 264.348H130.066V269.234H138.176C138.723 269.234 139.133 269.363 139.406 269.621C139.688 269.871 139.828 270.207 139.828 270.629C139.828 271.035 139.688 271.367 139.406 271.625C139.133 271.875 138.723 272 138.176 272H128.719C127.961 272 127.414 271.832 127.078 271.496C126.75 271.16 126.586 270.617 126.586 269.867V256.953C126.586 256.453 126.66 256.047 126.809 255.734C126.957 255.414 127.188 255.184 127.5 255.043C127.82 254.895 128.227 254.82 128.719 254.82H137.906C138.461 254.82 138.871 254.945 139.137 255.195C139.41 255.438 139.547 255.758 139.547 256.156C139.547 256.562 139.41 256.891 139.137 257.141C138.871 257.383 138.461 257.504 137.906 257.504ZM147.27 264.652H146.051V270.172C146.051 270.898 145.891 271.434 145.57 271.777C145.25 272.121 144.832 272.293 144.316 272.293C143.762 272.293 143.332 272.113 143.027 271.754C142.723 271.395 142.57 270.867 142.57 270.172V256.953C142.57 256.203 142.738 255.66 143.074 255.324C143.41 254.988 143.953 254.82 144.703 254.82H150.363C151.145 254.82 151.812 254.855 152.367 254.926C152.922 254.988 153.422 255.121 153.867 255.324C154.406 255.551 154.883 255.875 155.297 256.297C155.711 256.719 156.023 257.211 156.234 257.773C156.453 258.328 156.562 258.918 156.562 259.543C156.562 260.824 156.199 261.848 155.473 262.613C154.754 263.379 153.66 263.922 152.191 264.242C152.809 264.57 153.398 265.055 153.961 265.695C154.523 266.336 155.023 267.02 155.461 267.746C155.906 268.465 156.25 269.117 156.492 269.703C156.742 270.281 156.867 270.68 156.867 270.898C156.867 271.125 156.793 271.352 156.645 271.578C156.504 271.797 156.309 271.969 156.059 272.094C155.809 272.227 155.52 272.293 155.191 272.293C154.801 272.293 154.473 272.199 154.207 272.012C153.941 271.832 153.711 271.602 153.516 271.32C153.328 271.039 153.07 270.625 152.742 270.078L151.348 267.758C150.848 266.906 150.398 266.258 150 265.812C149.609 265.367 149.211 265.062 148.805 264.898C148.398 264.734 147.887 264.652 147.27 264.652ZM149.262 257.434H146.051V262.156H149.168C150.004 262.156 150.707 262.086 151.277 261.945C151.848 261.797 152.281 261.551 152.578 261.207C152.883 260.855 153.035 260.375 153.035 259.766C153.035 259.289 152.914 258.871 152.672 258.512C152.43 258.145 152.094 257.871 151.664 257.691C151.258 257.52 150.457 257.434 149.262 257.434ZM170.133 257.504H163.277V261.898H169.008C169.539 261.898 169.934 262.02 170.191 262.262C170.457 262.496 170.59 262.812 170.59 263.211C170.59 263.609 170.457 263.926 170.191 264.16C169.926 264.395 169.531 264.512 169.008 264.512H163.277V270.172C163.277 270.891 163.113 271.426 162.785 271.777C162.465 272.121 162.051 272.293 161.543 272.293C161.027 272.293 160.605 272.117 160.277 271.766C159.957 271.414 159.797 270.883 159.797 270.172V256.953C159.797 256.453 159.871 256.047 160.02 255.734C160.168 255.414 160.398 255.184 160.711 255.043C161.031 254.895 161.438 254.82 161.93 254.82H170.133C170.688 254.82 171.098 254.945 171.363 255.195C171.637 255.438 171.773 255.758 171.773 256.156C171.773 256.562 171.637 256.891 171.363 257.141C171.098 257.383 170.688 257.504 170.133 257.504ZM179.051 264.652H177.832V270.172C177.832 270.898 177.672 271.434 177.352 271.777C177.031 272.121 176.613 272.293 176.098 272.293C175.543 272.293 175.113 272.113 174.809 271.754C174.504 271.395 174.352 270.867 174.352 270.172V256.953C174.352 256.203 174.52 255.66 174.855 255.324C175.191 254.988 175.734 254.82 176.484 254.82H182.145C182.926 254.82 183.594 254.855 184.148 254.926C184.703 254.988 185.203 255.121 185.648 255.324C186.188 255.551 186.664 255.875 187.078 256.297C187.492 256.719 187.805 257.211 188.016 257.773C188.234 258.328 188.344 258.918 188.344 259.543C188.344 260.824 187.98 261.848 187.254 262.613C186.535 263.379 185.441 263.922 183.973 264.242C184.59 264.57 185.18 265.055 185.742 265.695C186.305 266.336 186.805 267.02 187.242 267.746C187.688 268.465 188.031 269.117 188.273 269.703C188.523 270.281 188.648 270.68 188.648 270.898C188.648 271.125 188.574 271.352 188.426 271.578C188.285 271.797 188.09 271.969 187.84 272.094C187.59 272.227 187.301 272.293 186.973 272.293C186.582 272.293 186.254 272.199 185.988 272.012C185.723 271.832 185.492 271.602 185.297 271.32C185.109 271.039 184.852 270.625 184.523 270.078L183.129 267.758C182.629 266.906 182.18 266.258 181.781 265.812C181.391 265.367 180.992 265.062 180.586 264.898C180.18 264.734 179.668 264.652 179.051 264.652ZM181.043 257.434H177.832V262.156H180.949C181.785 262.156 182.488 262.086 183.059 261.945C183.629 261.797 184.062 261.551 184.359 261.207C184.664 260.855 184.816 260.375 184.816 259.766C184.816 259.289 184.695 258.871 184.453 258.512C184.211 258.145 183.875 257.871 183.445 257.691C183.039 257.52 182.238 257.434 181.043 257.434ZM191.789 270.172V256.637C191.789 255.934 191.949 255.406 192.27 255.055C192.59 254.703 193.004 254.527 193.512 254.527C194.035 254.527 194.457 254.703 194.777 255.055C195.105 255.398 195.27 255.926 195.27 256.637V270.172C195.27 270.883 195.105 271.414 194.777 271.766C194.457 272.117 194.035 272.293 193.512 272.293C193.012 272.293 192.598 272.117 192.27 271.766C191.949 271.406 191.789 270.875 191.789 270.172Z" fill="white"/>
<path d="M108 208C163.228 208 208 163.228 208 108C208 52.7715 163.228 8 108 8C52.7715 8 7.99994 52.7715 7.99994 108C7.99994 163.228 52.7715 208 108 208Z" stroke="white" stroke-width="10" stroke-miterlimit="10"/>
<path d="M144.791 66.7605C159.033 53.4451 160.297 50.9553 175.542 38.0811" stroke="white" stroke-width="10" stroke-miterlimit="10"/>
<path d="M31.6044 176.074C45.1381 162.459 50.5484 156.297 64.2362 142.856" stroke="white" stroke-width="10" stroke-miterlimit="10"/>
<path d="M128.625 64H88.1908C83.8547 64 80.3395 67.6026 80.3395 72.0466V101.401C80.3395 105.845 83.8547 109.447 88.1908 109.447H128.625C132.961 109.447 136.476 105.845 136.476 101.401V72.0466C136.476 67.6026 132.961 64 128.625 64Z" stroke="white" stroke-width="5" stroke-miterlimit="10"/>
<path d="M144.626 146.944L139.209 119.119C138.879 117.413 137.277 116.158 135.408 116.158H81.9097C80.0725 116.158 78.4866 117.365 78.1254 119.054L72.2526 146.332C71.232 149.213 73.4617 152.496 76.0998 152.496H140.543C143.15 152.496 145.631 149.809 144.657 146.928L144.626 146.944ZM119.8 129.241H117.665C117.398 129.241 117.193 129.016 117.193 128.759V127.632C117.193 127.359 117.413 127.149 117.665 127.149H119.8C120.067 127.149 120.271 127.375 120.271 127.632V128.759C120.271 129.032 120.051 129.241 119.8 129.241ZM120.271 131.044V132.17C120.271 132.444 120.051 132.653 119.8 132.653H117.665C117.398 132.653 117.193 132.428 117.193 132.17V131.044C117.193 130.77 117.413 130.561 117.665 130.561H119.8C120.067 130.561 120.271 130.786 120.271 131.044ZM117.115 124.446C117.115 124.172 117.335 123.963 117.586 123.963H119.722C119.989 123.963 120.193 124.188 120.193 124.446V125.572C120.193 125.846 119.973 126.055 119.722 126.055H117.586C117.319 126.055 117.115 125.83 117.115 125.572V124.446ZM113.111 134.214C113.111 133.941 113.331 133.731 113.582 133.731H115.717C115.984 133.731 116.189 133.957 116.189 134.214V135.341C116.189 135.614 115.969 135.824 115.717 135.824H113.582C113.315 135.824 113.111 135.598 113.111 135.341V134.214ZM113.048 132.187V131.06C113.048 130.786 113.268 130.577 113.519 130.577H115.655C115.922 130.577 116.126 130.802 116.126 131.06V132.187C116.126 132.46 115.906 132.669 115.655 132.669H113.519C113.252 132.669 113.048 132.444 113.048 132.187ZM116.126 128.759C116.126 129.032 115.906 129.241 115.655 129.241H113.519C113.252 129.241 113.048 129.016 113.048 128.759V127.632C113.048 127.359 113.268 127.149 113.519 127.149H115.655C115.922 127.149 116.126 127.375 116.126 127.632V128.759ZM112.969 124.446C112.969 124.172 113.189 123.963 113.441 123.963H115.576C115.843 123.963 116.047 124.188 116.047 124.446V125.572C116.047 125.846 115.827 126.055 115.576 126.055H113.441C113.174 126.055 112.969 125.83 112.969 125.572V124.446ZM108.981 134.214C108.981 133.941 109.201 133.731 109.452 133.731H111.588C111.855 133.731 112.059 133.957 112.059 134.214V135.341C112.059 135.614 111.839 135.824 111.588 135.824H109.452C109.185 135.824 108.981 135.598 108.981 135.341V134.214ZM108.902 132.187V131.06C108.902 130.786 109.122 130.577 109.374 130.577H111.509C111.776 130.577 111.98 130.802 111.98 131.06V132.187C111.98 132.46 111.76 132.669 111.509 132.669H109.374C109.107 132.669 108.902 132.444 108.902 132.187ZM111.996 128.759C111.996 129.032 111.776 129.241 111.525 129.241H109.389C109.122 129.241 108.918 129.016 108.918 128.759V127.632C108.918 127.359 109.138 127.149 109.389 127.149H111.525C111.792 127.149 111.996 127.375 111.996 127.632V128.759ZM108.84 124.446C108.84 124.172 109.06 123.963 109.311 123.963H111.446C111.713 123.963 111.917 124.188 111.917 124.446V125.572C111.917 125.846 111.698 126.055 111.446 126.055H109.311C109.044 126.055 108.84 125.83 108.84 125.572V124.446ZM104.914 134.134C104.914 133.86 105.134 133.651 105.385 133.651H107.521C107.788 133.651 107.992 133.876 107.992 134.134V135.26C107.992 135.534 107.772 135.743 107.521 135.743H105.385C105.118 135.743 104.914 135.518 104.914 135.26V134.134ZM104.836 132.09V130.963C104.836 130.69 105.055 130.481 105.307 130.481H107.442C107.709 130.481 107.913 130.706 107.913 130.963V132.09C107.913 132.364 107.693 132.573 107.442 132.573H105.307C105.04 132.573 104.836 132.347 104.836 132.09ZM107.929 128.662C107.929 128.936 107.709 129.145 107.458 129.145H105.322C105.055 129.145 104.851 128.92 104.851 128.662V127.536C104.851 127.262 105.071 127.053 105.322 127.053H107.458C107.725 127.053 107.929 127.278 107.929 127.536V128.662ZM104.773 124.365C104.773 124.092 104.993 123.882 105.244 123.882H107.379C107.646 123.882 107.85 124.108 107.85 124.365V125.492C107.85 125.765 107.631 125.975 107.379 125.975H105.244C104.977 125.975 104.773 125.749 104.773 125.492V124.365ZM100.91 134.134C100.91 133.86 101.13 133.651 101.381 133.651H103.517C103.783 133.651 103.988 133.876 103.988 134.134V135.26C103.988 135.534 103.768 135.743 103.517 135.743H101.381C101.114 135.743 100.91 135.518 100.91 135.26V134.134ZM100.831 132.09V130.963C100.831 130.69 101.051 130.481 101.302 130.481H103.438C103.705 130.481 103.909 130.706 103.909 130.963V132.09C103.909 132.364 103.689 132.573 103.438 132.573H101.302C101.035 132.573 100.831 132.347 100.831 132.09ZM103.925 128.662C103.925 128.936 103.705 129.145 103.454 129.145H101.318C101.051 129.145 100.847 128.92 100.847 128.662V127.536C100.847 127.262 101.067 127.053 101.318 127.053H103.454C103.721 127.053 103.925 127.278 103.925 127.536V128.662ZM100.769 124.365C100.769 124.092 100.988 123.882 101.24 123.882H103.375C103.642 123.882 103.846 124.108 103.846 124.365V125.492C103.846 125.765 103.626 125.975 103.375 125.975H101.24C100.973 125.975 100.769 125.749 100.769 125.492V124.365ZM88.3478 124.365C88.3478 124.092 88.5676 123.882 88.8189 123.882H90.9544C91.2214 123.882 91.4255 124.108 91.4255 124.365V125.492C91.4255 125.765 91.2057 125.975 90.9544 125.975H88.8189C88.5519 125.975 88.3478 125.749 88.3478 125.492V124.365ZM91.504 127.536V128.662C91.504 128.936 91.2842 129.145 91.0329 129.145H88.8974C88.6304 129.145 88.4263 128.92 88.4263 128.662V127.536C88.4263 127.262 88.6461 127.053 88.8974 127.053H91.0329C91.2999 127.053 91.504 127.278 91.504 127.536ZM88.4106 130.963C88.4106 130.69 88.6304 130.481 88.8817 130.481H91.0172C91.2842 130.481 91.4883 130.706 91.4883 130.963V132.09C91.4883 132.364 91.2685 132.573 91.0172 132.573H88.8817C88.6147 132.573 88.4106 132.347 88.4106 132.09V130.963ZM91.5668 135.26C91.5668 135.534 91.347 135.743 91.0958 135.743H88.9602C88.6933 135.743 88.4891 135.518 88.4891 135.26V134.134C88.4891 133.86 88.709 133.651 88.9602 133.651H91.0958C91.3627 133.651 91.5668 133.876 91.5668 134.134V135.26ZM92.4933 124.365C92.4933 124.092 92.7131 123.882 92.9644 123.882H95.0999C95.3669 123.882 95.571 124.108 95.571 124.365V125.492C95.571 125.765 95.3512 125.975 95.0999 125.975H92.9644C92.6974 125.975 92.4933 125.749 92.4933 125.492V124.365ZM95.6495 127.536V128.662C95.6495 128.936 95.4297 129.145 95.1784 129.145H93.0429C92.7759 129.145 92.5718 128.92 92.5718 128.662V127.536C92.5718 127.262 92.7916 127.053 93.0429 127.053H95.1784C95.4454 127.053 95.6495 127.278 95.6495 127.536ZM92.5561 130.963C92.5561 130.69 92.7759 130.481 93.0272 130.481H95.1627C95.4297 130.481 95.6338 130.706 95.6338 130.963V132.09C95.6338 132.364 95.414 132.573 95.1627 132.573H93.0272C92.7602 132.573 92.5561 132.347 92.5561 132.09V130.963ZM95.7123 135.26C95.7123 135.534 95.4925 135.743 95.2412 135.743H93.1057C92.8387 135.743 92.6346 135.518 92.6346 135.26V134.134C92.6346 133.86 92.8544 133.651 93.1057 133.651H95.2412C95.5082 133.651 95.7123 133.876 95.7123 134.134V135.26ZM96.6231 124.365C96.6231 124.092 96.8429 123.882 97.0941 123.882H99.2297C99.4966 123.882 99.7008 124.108 99.7008 124.365V125.492C99.7008 125.765 99.4809 125.975 99.2297 125.975H97.0941C96.8272 125.975 96.6231 125.749 96.6231 125.492V124.365ZM99.7793 127.536V128.662C99.7793 128.936 99.5595 129.145 99.3082 129.145H97.1727C96.9057 129.145 96.7016 128.92 96.7016 128.662V127.536C96.7016 127.262 96.9214 127.053 97.1727 127.053H99.3082C99.5752 127.053 99.7793 127.278 99.7793 127.536ZM96.7016 130.963C96.7016 130.69 96.9214 130.481 97.1727 130.481H99.3082C99.5752 130.481 99.7793 130.706 99.7793 130.963V132.09C99.7793 132.364 99.5595 132.573 99.3082 132.573H97.1727C96.9057 132.573 96.7016 132.347 96.7016 132.09V130.963ZM96.7644 135.26V134.134C96.7644 133.86 96.9842 133.651 97.2355 133.651H99.371C99.638 133.651 99.8421 133.876 99.8421 134.134V135.26C99.8421 135.534 99.6223 135.743 99.371 135.743H97.2355C96.9685 135.743 96.7644 135.518 96.7644 135.26ZM116.455 149.615H100.313C99.6537 149.615 99.0884 148.795 99.3553 148.07L100.831 141.231C100.926 140.812 101.318 140.507 101.774 140.507H115.184C115.655 140.507 116.047 140.812 116.141 141.247L117.492 148.215C117.743 148.939 117.115 149.615 116.455 149.615ZM120.35 135.357C120.35 135.63 120.13 135.84 119.879 135.84H117.743C117.476 135.84 117.272 135.614 117.272 135.357V134.23C117.272 133.957 117.492 133.748 117.743 133.748H119.879C120.146 133.748 120.35 133.973 120.35 134.23V135.357ZM121.26 124.446C121.26 124.172 121.48 123.963 121.732 123.963H123.867C124.134 123.963 124.338 124.188 124.338 124.446V125.572C124.338 125.846 124.118 126.055 123.867 126.055H121.732C121.465 126.055 121.26 125.83 121.26 125.572V124.446ZM124.417 127.616V128.743C124.417 129.016 124.197 129.225 123.946 129.225H121.81C121.543 129.225 121.339 129 121.339 128.743V127.616C121.339 127.342 121.559 127.133 121.81 127.133H123.946C124.213 127.133 124.417 127.359 124.417 127.616ZM121.323 131.044C121.323 130.77 121.543 130.561 121.794 130.561H123.93C124.197 130.561 124.401 130.786 124.401 131.044V132.17C124.401 132.444 124.181 132.653 123.93 132.653H121.794C121.527 132.653 121.323 132.428 121.323 132.17V131.044ZM124.479 135.357C124.479 135.63 124.26 135.84 124.008 135.84H121.873C121.606 135.84 121.402 135.614 121.402 135.357V134.23C121.402 133.957 121.622 133.748 121.873 133.748H124.008C124.275 133.748 124.479 133.973 124.479 134.23V135.357ZM125.249 124.446C125.249 124.172 125.469 123.963 125.72 123.963H127.856C128.122 123.963 128.327 124.188 128.327 124.446V125.572C128.327 125.846 128.107 126.055 127.856 126.055H125.72C125.453 126.055 125.249 125.83 125.249 125.572V124.446ZM128.405 127.616V128.743C128.405 129.016 128.185 129.225 127.934 129.225H125.798C125.532 129.225 125.327 129 125.327 128.743V127.616C125.327 127.342 125.547 127.133 125.798 127.133H127.934C128.201 127.133 128.405 127.359 128.405 127.616ZM125.327 131.044C125.327 130.77 125.547 130.561 125.798 130.561H127.934C128.201 130.561 128.405 130.786 128.405 131.044V132.17C128.405 132.444 128.185 132.653 127.934 132.653H125.798C125.532 132.653 125.327 132.428 125.327 132.17V131.044ZM128.484 135.357C128.484 135.63 128.264 135.84 128.013 135.84H125.877C125.61 135.84 125.406 135.614 125.406 135.357V134.23C125.406 133.957 125.626 133.748 125.877 133.748H128.013C128.28 133.748 128.484 133.973 128.484 134.23V135.357Z" fill="white"/>
</svg>
