<svg width="269" height="269" viewBox="0 0 269 269" fill="none" xmlns="http://www.w3.org/2000/svg">
<path d="M132.86 257.86C201.895 257.86 257.86 201.895 257.86 132.86C257.86 63.8243 201.895 7.85986 132.86 7.85986C63.8243 7.85986 7.85986 63.8243 7.85986 132.86C7.85986 201.895 63.8243 257.86 132.86 257.86Z" stroke="white" stroke-width="10" stroke-miterlimit="10"/>
<path d="M182.854 81.2525C201.054 64.6034 202.683 61.4846 222.157 45.4097" stroke="white" stroke-width="10" stroke-miterlimit="10"/>
<path d="M38.21 217.905C55.5107 200.884 62.4155 193.172 79.918 176.383" stroke="white" stroke-width="10" stroke-miterlimit="10"/>
<path d="M160.308 73.9751H105.412C101.127 73.9751 97.6533 77.4486 97.6533 81.7333V121.843C97.6533 126.128 101.127 129.601 105.412 129.601H160.308C164.593 129.601 168.067 126.128 168.067 121.843V81.7333C168.067 77.4486 164.593 73.9751 160.308 73.9751Z" stroke="white" stroke-width="5" stroke-miterlimit="10"/>
<path d="M178.292 175.514L171.496 141.471C171.077 139.377 169.075 137.856 166.717 137.856H99.5928C97.2809 137.856 95.2948 139.33 94.8293 141.394L87.459 174.785C86.1711 178.307 88.9796 182.326 92.2846 182.326H173.125C176.399 182.326 179.502 179.021 178.276 175.514H178.292ZM147.151 153.838H144.466C144.14 153.838 143.877 153.574 143.877 153.248V151.867C143.877 151.541 144.14 151.278 144.466 151.278H147.151C147.476 151.278 147.74 151.541 147.74 151.867V153.248C147.74 153.574 147.476 153.838 147.151 153.838ZM147.74 156.057V157.438C147.74 157.763 147.476 158.027 147.151 158.027H144.466C144.14 158.027 143.877 157.763 143.877 157.438V156.057C143.877 155.731 144.14 155.467 144.466 155.467H147.151C147.476 155.467 147.74 155.731 147.74 156.057ZM143.783 147.973C143.783 147.647 144.047 147.383 144.373 147.383H147.057C147.383 147.383 147.647 147.647 147.647 147.973V149.354C147.647 149.679 147.383 149.943 147.057 149.943H144.373C144.047 149.943 143.783 149.679 143.783 149.354V147.973ZM138.756 159.936C138.756 159.61 139.02 159.346 139.346 159.346H142.03C142.356 159.346 142.62 159.61 142.62 159.936V161.317C142.62 161.643 142.356 161.906 142.03 161.906H139.346C139.02 161.906 138.756 161.643 138.756 161.317V159.936ZM138.679 157.438V156.057C138.679 155.731 138.942 155.467 139.268 155.467H141.953C142.278 155.467 142.542 155.731 142.542 156.057V157.438C142.542 157.763 142.278 158.027 141.953 158.027H139.268C138.942 158.027 138.679 157.763 138.679 157.438ZM142.542 153.248C142.542 153.574 142.278 153.838 141.953 153.838H139.268C138.942 153.838 138.679 153.574 138.679 153.248V151.867C138.679 151.541 138.942 151.278 139.268 151.278H141.953C142.278 151.278 142.542 151.541 142.542 151.867V153.248ZM138.585 147.973C138.585 147.647 138.849 147.383 139.175 147.383H141.859C142.185 147.383 142.449 147.647 142.449 147.973V149.354C142.449 149.679 142.185 149.943 141.859 149.943H139.175C138.849 149.943 138.585 149.679 138.585 149.354V147.973ZM133.574 159.936C133.574 159.61 133.837 159.346 134.163 159.346H136.848C137.173 159.346 137.437 159.61 137.437 159.936V161.317C137.437 161.643 137.173 161.906 136.848 161.906H134.163C133.837 161.906 133.574 161.643 133.574 161.317V159.936ZM133.481 157.438V156.057C133.481 155.731 133.744 155.467 134.07 155.467H136.755C137.08 155.467 137.344 155.731 137.344 156.057V157.438C137.344 157.763 137.08 158.027 136.755 158.027H134.07C133.744 158.027 133.481 157.763 133.481 157.438ZM137.344 153.248C137.344 153.574 137.08 153.838 136.755 153.838H134.07C133.744 153.838 133.481 153.574 133.481 153.248V151.867C133.481 151.541 133.744 151.278 134.07 151.278H136.755C137.08 151.278 137.344 151.541 137.344 151.867V153.248ZM133.387 147.973C133.387 147.647 133.651 147.383 133.977 147.383H136.661C136.987 147.383 137.251 147.647 137.251 147.973V149.354C137.251 149.679 136.987 149.943 136.661 149.943H133.977C133.651 149.943 133.387 149.679 133.387 149.354V147.973ZM128.469 159.827C128.469 159.501 128.733 159.238 129.058 159.238H131.743C132.069 159.238 132.332 159.501 132.332 159.827V161.208C132.332 161.534 132.069 161.798 131.743 161.798H129.058C128.733 161.798 128.469 161.534 128.469 161.208V159.827ZM128.376 157.329V155.948C128.376 155.622 128.639 155.358 128.965 155.358H131.65C131.976 155.358 132.239 155.622 132.239 155.948V157.329C132.239 157.655 131.976 157.919 131.65 157.919H128.965C128.639 157.919 128.376 157.655 128.376 157.329ZM132.239 153.14C132.239 153.465 131.976 153.729 131.65 153.729H128.965C128.639 153.729 128.376 153.465 128.376 153.14V151.759C128.376 151.433 128.639 151.169 128.965 151.169H131.65C131.976 151.169 132.239 151.433 132.239 151.759V153.14ZM128.283 147.864C128.283 147.538 128.546 147.274 128.872 147.274H131.557C131.882 147.274 132.146 147.538 132.146 147.864V149.245C132.146 149.571 131.882 149.835 131.557 149.835H128.872C128.546 149.835 128.283 149.571 128.283 149.245V147.864ZM123.441 159.827C123.441 159.501 123.705 159.238 124.031 159.238H126.715C127.041 159.238 127.305 159.501 127.305 159.827V161.208C127.305 161.534 127.041 161.798 126.715 161.798H124.031C123.705 161.798 123.441 161.534 123.441 161.208V159.827ZM123.364 157.329V155.948C123.364 155.622 123.628 155.358 123.954 155.358H126.638C126.964 155.358 127.227 155.622 127.227 155.948V157.329C127.227 157.655 126.964 157.919 126.638 157.919H123.954C123.628 157.919 123.364 157.655 123.364 157.329ZM127.227 153.14C127.227 153.465 126.964 153.729 126.638 153.729H123.954C123.628 153.729 123.364 153.465 123.364 153.14V151.759C123.364 151.433 123.628 151.169 123.954 151.169H126.638C126.964 151.169 127.227 151.433 127.227 151.759V153.14ZM123.271 147.864C123.271 147.538 123.535 147.274 123.86 147.274H126.545C126.871 147.274 127.134 147.538 127.134 147.864V149.245C127.134 149.571 126.871 149.835 126.545 149.835H123.86C123.535 149.835 123.271 149.571 123.271 149.245V147.864ZM107.692 147.864C107.692 147.538 107.956 147.274 108.282 147.274H110.966C111.292 147.274 111.556 147.538 111.556 147.864V149.245C111.556 149.571 111.292 149.835 110.966 149.835H108.282C107.956 149.835 107.692 149.571 107.692 149.245V147.864ZM111.649 151.759V153.14C111.649 153.465 111.385 153.729 111.059 153.729H108.375C108.049 153.729 107.785 153.465 107.785 153.14V151.759C107.785 151.433 108.049 151.169 108.375 151.169H111.059C111.385 151.169 111.649 151.433 111.649 151.759ZM107.77 155.948C107.77 155.622 108.034 155.358 108.36 155.358H111.044C111.37 155.358 111.634 155.622 111.634 155.948V157.329C111.634 157.655 111.37 157.919 111.044 157.919H108.36C108.034 157.919 107.77 157.655 107.77 157.329V155.948ZM111.727 161.224C111.727 161.549 111.463 161.813 111.137 161.813H108.453C108.127 161.813 107.863 161.549 107.863 161.224V159.843C107.863 159.517 108.127 159.253 108.453 159.253H111.137C111.463 159.253 111.727 159.517 111.727 159.843V161.224ZM112.875 147.864C112.875 147.538 113.139 147.274 113.464 147.274H116.149C116.475 147.274 116.738 147.538 116.738 147.864V149.245C116.738 149.571 116.475 149.835 116.149 149.835H113.464C113.139 149.835 112.875 149.571 112.875 149.245V147.864ZM116.832 151.759V153.14C116.832 153.465 116.568 153.729 116.242 153.729H113.558C113.232 153.729 112.968 153.465 112.968 153.14V151.759C112.968 151.433 113.232 151.169 113.558 151.169H116.242C116.568 151.169 116.832 151.433 116.832 151.759ZM112.968 155.948C112.968 155.622 113.232 155.358 113.558 155.358H116.242C116.568 155.358 116.832 155.622 116.832 155.948V157.329C116.832 157.655 116.568 157.919 116.242 157.919H113.558C113.232 157.919 112.968 157.655 112.968 157.329V155.948ZM116.925 161.224C116.925 161.549 116.661 161.813 116.335 161.813H113.651C113.325 161.813 113.061 161.549 113.061 161.224V159.843C113.061 159.517 113.325 159.253 113.651 159.253H116.335C116.661 159.253 116.925 159.517 116.925 159.843V161.224ZM118.073 147.864C118.073 147.538 118.337 147.274 118.662 147.274H121.347C121.673 147.274 121.936 147.538 121.936 147.864V149.245C121.936 149.571 121.673 149.835 121.347 149.835H118.662C118.337 149.835 118.073 149.571 118.073 149.245V147.864ZM122.03 151.759V153.14C122.03 153.465 121.766 153.729 121.44 153.729H118.756C118.43 153.729 118.166 153.465 118.166 153.14V151.759C118.166 151.433 118.43 151.169 118.756 151.169H121.44C121.766 151.169 122.03 151.433 122.03 151.759ZM118.166 155.948C118.166 155.622 118.43 155.358 118.756 155.358H121.44C121.766 155.358 122.03 155.622 122.03 155.948V157.329C122.03 157.655 121.766 157.919 121.44 157.919H118.756C118.43 157.919 118.166 157.655 118.166 157.329V155.948ZM118.259 161.224V159.843C118.259 159.517 118.523 159.253 118.849 159.253H121.533C121.859 159.253 122.123 159.517 122.123 159.843V161.224C122.123 161.549 121.859 161.813 121.533 161.813H118.849C118.523 161.813 118.259 161.549 118.259 161.224ZM142.946 178.788H122.697C121.874 178.788 121.161 177.78 121.486 176.895L123.333 168.532C123.441 168.02 123.938 167.647 124.528 167.647H141.347C141.937 167.647 142.434 168.035 142.542 168.547L144.249 177.081C144.559 177.966 143.783 178.788 142.961 178.788H142.946ZM147.833 161.317C147.833 161.643 147.569 161.906 147.244 161.906H144.559C144.233 161.906 143.97 161.643 143.97 161.317V159.936C143.97 159.61 144.233 159.346 144.559 159.346H147.244C147.569 159.346 147.833 159.61 147.833 159.936V161.317ZM148.966 147.973C148.966 147.647 149.23 147.383 149.556 147.383H152.24C152.566 147.383 152.83 147.647 152.83 147.973V149.354C152.83 149.679 152.566 149.943 152.24 149.943H149.556C149.23 149.943 148.966 149.679 148.966 149.354V147.973ZM152.938 151.852V153.233C152.938 153.559 152.674 153.822 152.349 153.822H149.664C149.338 153.822 149.075 153.559 149.075 153.233V151.852C149.075 151.526 149.338 151.262 149.664 151.262H152.349C152.674 151.262 152.938 151.526 152.938 151.852ZM149.059 156.057C149.059 155.731 149.323 155.467 149.649 155.467H152.333C152.659 155.467 152.923 155.731 152.923 156.057V157.438C152.923 157.763 152.659 158.027 152.333 158.027H149.649C149.323 158.027 149.059 157.763 149.059 157.438V156.057ZM153.016 161.317C153.016 161.643 152.752 161.906 152.426 161.906H149.742C149.416 161.906 149.152 161.643 149.152 161.317V159.936C149.152 159.61 149.416 159.346 149.742 159.346H152.426C152.752 159.346 153.016 159.61 153.016 159.936V161.317ZM153.993 147.973C153.993 147.647 154.257 147.383 154.583 147.383H157.267C157.593 147.383 157.857 147.647 157.857 147.973V149.354C157.857 149.679 157.593 149.943 157.267 149.943H154.583C154.257 149.943 153.993 149.679 153.993 149.354V147.973ZM157.95 151.852V153.233C157.95 153.559 157.686 153.822 157.36 153.822H154.676C154.35 153.822 154.086 153.559 154.086 153.233V151.852C154.086 151.526 154.35 151.262 154.676 151.262H157.36C157.686 151.262 157.95 151.526 157.95 151.852ZM154.071 156.057C154.071 155.731 154.335 155.467 154.66 155.467H157.345C157.671 155.467 157.934 155.731 157.934 156.057V157.438C157.934 157.763 157.671 158.027 157.345 158.027H154.66C154.335 158.027 154.071 157.763 154.071 157.438V156.057ZM158.043 161.317C158.043 161.643 157.779 161.906 157.453 161.906H154.769C154.443 161.906 154.179 161.643 154.179 161.317V159.936C154.179 159.61 154.443 159.346 154.769 159.346H157.453C157.779 159.346 158.043 159.61 158.043 159.936V161.317Z" fill="white"/>
</svg>
