<svg width="215" height="192" viewBox="0 0 215 192" fill="none" xmlns="http://www.w3.org/2000/svg">
<g clip-path="url(#clip0_961_8289)">
<g clip-path="url(#clip1_961_8289)">
<path d="M66.9644 77.1374C71.1585 76.3877 73.7152 76.7294 76.4296 77.0995C78.1195 77.3272 79.8794 77.5645 82.226 77.555C86.0348 77.5265 87.5846 76.8907 96.2005 73.332C99.4752 71.975 103.958 70.1245 109.921 67.7616C124.824 61.8495 127.748 61.1188 131.294 60.7867C134.026 60.5209 136.066 60.5589 138.045 60.5969C140.567 60.6443 142.738 60.6823 146.004 60.0939C149.244 59.5055 152.414 58.4901 155.496 57.0572V35.7243C155.496 35.1739 154.997 34.7754 154.48 34.8987L60.126 58.3478C59.7583 58.4332 59.4956 58.7748 59.4956 59.1734V79.396C61.9298 78.3616 64.4252 77.6024 66.9644 77.1469V77.1374Z" fill="#6F4E37"/>
<path d="M146.713 64.2504C143.062 64.9147 140.593 64.8673 137.975 64.8198C136.11 64.7819 134.184 64.7534 131.679 64.9906C128.86 65.2564 126.522 65.7024 111.401 71.7094C105.464 74.0628 101.183 75.8374 97.7327 77.2608C88.933 80.8954 86.8404 81.759 82.261 81.7874C79.608 81.8064 77.6466 81.5407 75.8955 81.3034C73.2949 80.9523 71.2461 80.6771 67.6736 81.3129C64.8805 81.8159 62.1487 82.7269 59.4956 84.0175V103.462C59.4956 105.113 60.9841 106.318 62.5427 105.939L153.613 83.3153C154.725 83.0401 155.504 82.0152 155.504 80.8385V61.6503C152.641 62.8365 149.708 63.7095 146.722 64.2504H146.713Z" fill="#6F4E37"/>
<path d="M132.433 20.37C132.266 25.9595 127.59 30.4196 121.934 30.1634C116.829 29.9357 112.6 25.7127 112.346 20.5883C112.206 17.8742 113.143 15.3879 114.754 13.4995L114.106 13.2433C113.301 12.9301 112.399 13.0535 111.698 13.5659L59.6707 51.7715C59.303 52.0467 59.5657 52.635 60.0122 52.5306L155.163 30.0305C155.566 29.9357 155.609 29.3758 155.215 29.2239L132.424 20.37H132.433Z" fill="#6F4E37"/>
<path d="M122.337 28.4836C127.028 28.4836 130.83 24.6641 130.83 19.9524C130.83 15.2407 127.028 11.4211 122.337 11.4211C117.646 11.4211 113.844 15.2407 113.844 19.9524C113.844 24.6641 117.646 28.4836 122.337 28.4836Z" fill="#6F4E37"/>
<path d="M122.337 15.2645C122.862 15.2645 124.421 15.4353 124.946 15.4353C124.648 12.5789 125.296 10.1021 125.813 8.7451C127.004 5.60401 128.956 1.75119 131.154 1.94098C131.312 1.95047 131.592 2.20669 131.688 2.23516C132.056 2.387 132.345 2.41546 132.651 2.20669C133.115 1.88404 132.949 0.517523 132.45 0.147425C131.968 -0.203694 131.084 0.156915 130.611 0.356198C128.387 1.2767 125.717 3.97178 124.001 7.84358C123.309 9.39989 122.416 11.9621 122.346 15.255L122.337 15.2645Z" fill="#6F4E37"/>
</g>
<g clip-path="url(#clip2_961_8289)">
<path d="M33.2383 156.169V158.009H24.707V156.169H33.2383ZM25.1523 140.946V158.009H22.8906V140.946H25.1523ZM42.625 155.864V149.571C42.625 149.009 42.5273 148.528 42.332 148.13C42.1445 147.724 41.8633 147.415 41.4883 147.204C41.1133 146.985 40.6562 146.876 40.1172 146.876C39.5391 146.876 39.0352 146.978 38.6055 147.181C38.1758 147.384 37.8438 147.653 37.6094 147.989C37.375 148.325 37.2578 148.696 37.2578 149.103L35.1016 148.892C35.1016 148.345 35.2227 147.841 35.4648 147.38C35.707 146.919 36.0469 146.517 36.4844 146.173C36.9297 145.829 37.457 145.564 38.0664 145.376C38.6836 145.189 39.3672 145.095 40.1172 145.095C41.0391 145.095 41.8438 145.263 42.5312 145.599C43.2266 145.935 43.7656 146.435 44.1484 147.099C44.5391 147.763 44.7344 148.595 44.7344 149.595V155.454L42.625 155.864ZM43.1055 150.556V152.196H40.0469C39.3672 152.196 38.7969 152.306 38.3359 152.525C37.875 152.735 37.5273 153.017 37.293 153.368C37.0586 153.712 36.9414 154.087 36.9414 154.493C36.9414 154.868 37.0273 155.208 37.1992 155.513C37.3789 155.81 37.6445 156.048 37.9961 156.228C38.3555 156.4 38.8086 156.485 39.3555 156.485C39.7773 156.485 40.207 156.407 40.6445 156.251C41.0898 156.087 41.4961 155.88 41.8633 155.63C42.2383 155.372 42.5391 155.103 42.7656 154.821C43 154.54 43.1211 154.278 43.1289 154.036L44.2539 155.724C44.043 156.107 43.707 156.493 43.2461 156.884C42.793 157.275 42.207 157.603 41.4883 157.868C40.7773 158.126 39.9258 158.255 38.9336 158.255C38.043 158.255 37.2852 158.099 36.6602 157.786C36.043 157.474 35.5742 157.032 35.2539 156.462C34.9336 155.884 34.7734 155.212 34.7734 154.446C34.7734 153.829 34.8828 153.282 35.1016 152.806C35.3281 152.321 35.6602 151.915 36.0977 151.587C36.543 151.251 37.0938 150.997 37.75 150.825C38.4062 150.646 39.1641 150.556 40.0234 150.556H43.1055ZM48.6484 158.255C47.6875 158.255 46.8398 158.099 46.1055 157.786C45.3711 157.474 44.7539 157.036 44.2539 156.474C43.7539 155.903 43.375 155.232 43.1172 154.458C42.8594 153.685 42.7305 152.837 42.7305 151.915V151.4C42.7305 150.47 42.8633 149.622 43.1289 148.857C43.4023 148.083 43.7812 147.415 44.2656 146.853C44.7578 146.29 45.332 145.857 45.9883 145.552C46.6445 145.239 47.3594 145.087 48.1328 145.095C48.9766 145.095 49.7188 145.228 50.3594 145.493C51.0078 145.751 51.5508 146.13 51.9883 146.63C52.4258 147.122 52.7539 147.72 52.9727 148.423C53.1992 149.126 53.3125 149.915 53.3125 150.79V152.173H43.8906V150.509H51.1328V150.146C51.1328 149.552 51.0352 149.009 50.8398 148.517C50.6445 148.025 50.3281 147.63 49.8906 147.333C49.4531 147.028 48.8672 146.876 48.1328 146.876C47.5938 146.876 47.1172 146.993 46.7031 147.228C46.2891 147.462 45.9375 147.786 45.6484 148.2C45.3672 148.614 45.1523 149.095 45.0039 149.642C44.8555 150.189 44.7812 150.775 44.7812 151.4V151.915C44.7812 152.548 44.8555 153.142 45.0039 153.696C45.1523 154.243 45.3828 154.728 45.6953 155.15C46.0078 155.564 46.4062 155.888 46.8906 156.122C47.3828 156.357 47.9688 156.474 48.6484 156.474C49.5781 156.474 50.3281 156.333 50.8984 156.052C51.4688 155.763 51.9492 155.485 52.3398 155.22L53.1016 156.814C52.9297 156.946 52.6523 157.13 52.2695 157.364C51.8945 157.591 51.4062 157.798 50.8047 157.985C50.2031 158.165 49.4844 158.255 48.6484 158.255ZM57.9531 140.009V158.009H55.7734V140.009H57.9531ZM65.6992 145.329L60.168 151.247L57.0742 154.458L56.8984 152.15L59.1133 149.501L63.0508 145.329H65.6992ZM63.7188 158.009L59.1953 151.962L60.3203 150.028L66.2734 158.009H63.7188ZM70.1055 147.321V158.009H67.9375V145.329H70.0469L70.1055 147.321ZM74.0664 145.259L74.0547 147.275C73.875 147.235 73.7031 147.212 73.5391 147.204C73.3828 147.189 73.2031 147.181 73 147.181C72.5 147.181 72.0586 147.259 71.6758 147.415C71.293 147.571 70.9688 147.79 70.7031 148.071C70.4375 148.353 70.2266 148.689 70.0703 149.079C69.9219 149.462 69.8242 149.884 69.7773 150.345L69.168 150.696C69.168 149.931 69.2422 149.212 69.3906 148.54C69.5469 147.868 69.7852 147.275 70.1055 146.759C70.4258 146.235 70.832 145.829 71.3242 145.54C71.8242 145.243 72.418 145.095 73.1055 145.095C73.2617 145.095 73.4414 145.114 73.6445 145.153C73.8477 145.185 73.9883 145.22 74.0664 145.259ZM81.0977 158.243C80.2148 158.243 79.4141 158.095 78.6953 157.798C77.9844 157.493 77.3711 157.068 76.8555 156.521C76.3477 155.974 75.957 155.325 75.6836 154.575C75.4102 153.825 75.2734 153.005 75.2734 152.114V151.622C75.2734 150.591 75.4258 149.673 75.7305 148.868C76.0352 148.056 76.4492 147.368 76.9727 146.806C77.4961 146.243 78.0898 145.818 78.7539 145.528C79.418 145.239 80.1055 145.095 80.8164 145.095C81.7227 145.095 82.5039 145.251 83.1602 145.564C83.8242 145.876 84.3672 146.314 84.7891 146.876C85.2109 147.431 85.5234 148.087 85.7266 148.845C85.9297 149.595 86.0312 150.415 86.0312 151.306V152.278H76.5625V150.509H83.8633V150.345C83.832 149.782 83.7148 149.235 83.5117 148.704C83.3164 148.173 83.0039 147.735 82.5742 147.392C82.1445 147.048 81.5586 146.876 80.8164 146.876C80.3242 146.876 79.8711 146.982 79.457 147.193C79.043 147.396 78.6875 147.7 78.3906 148.107C78.0938 148.513 77.8633 149.009 77.6992 149.595C77.5352 150.181 77.4531 150.857 77.4531 151.622V152.114C77.4531 152.716 77.5352 153.282 77.6992 153.814C77.8711 154.337 78.1172 154.798 78.4375 155.196C78.7656 155.595 79.1602 155.907 79.6211 156.134C80.0898 156.36 80.6211 156.474 81.2148 156.474C81.9805 156.474 82.6289 156.318 83.1602 156.005C83.6914 155.693 84.1562 155.275 84.5547 154.751L85.8672 155.794C85.5938 156.208 85.2461 156.603 84.8242 156.978C84.4023 157.353 83.8828 157.657 83.2656 157.892C82.6562 158.126 81.9336 158.243 81.0977 158.243ZM102.508 155.548V140.009H104.688V158.009H102.695L102.508 155.548ZM93.9766 151.81V151.564C93.9766 150.595 94.0938 149.716 94.3281 148.927C94.5703 148.13 94.9102 147.446 95.3477 146.876C95.793 146.306 96.3203 145.868 96.9297 145.564C97.5469 145.251 98.2344 145.095 98.9922 145.095C99.7891 145.095 100.484 145.235 101.078 145.517C101.68 145.79 102.188 146.193 102.602 146.724C103.023 147.247 103.355 147.88 103.598 148.622C103.84 149.364 104.008 150.204 104.102 151.142V152.22C104.016 153.15 103.848 153.985 103.598 154.728C103.355 155.47 103.023 156.103 102.602 156.626C102.188 157.15 101.68 157.552 101.078 157.833C100.477 158.107 99.7734 158.243 98.9688 158.243C98.2266 158.243 97.5469 158.083 96.9297 157.763C96.3203 157.443 95.793 156.993 95.3477 156.415C94.9102 155.837 94.5703 155.157 94.3281 154.376C94.0938 153.587 93.9766 152.732 93.9766 151.81ZM96.1562 151.564V151.81C96.1562 152.443 96.2188 153.036 96.3438 153.591C96.4766 154.146 96.6797 154.634 96.9531 155.056C97.2266 155.478 97.5742 155.81 97.9961 156.052C98.418 156.286 98.9219 156.403 99.5078 156.403C100.227 156.403 100.816 156.251 101.277 155.946C101.746 155.642 102.121 155.239 102.402 154.739C102.684 154.239 102.902 153.696 103.059 153.11V150.286C102.965 149.857 102.828 149.443 102.648 149.044C102.477 148.638 102.25 148.278 101.969 147.966C101.695 147.646 101.355 147.392 100.949 147.204C100.551 147.017 100.078 146.923 99.5312 146.923C98.9375 146.923 98.4258 147.048 97.9961 147.298C97.5742 147.54 97.2266 147.876 96.9531 148.306C96.6797 148.728 96.4766 149.22 96.3438 149.782C96.2188 150.337 96.1562 150.931 96.1562 151.564ZM113.324 158.243C112.441 158.243 111.641 158.095 110.922 157.798C110.211 157.493 109.598 157.068 109.082 156.521C108.574 155.974 108.184 155.325 107.91 154.575C107.637 153.825 107.5 153.005 107.5 152.114V151.622C107.5 150.591 107.652 149.673 107.957 148.868C108.262 148.056 108.676 147.368 109.199 146.806C109.723 146.243 110.316 145.818 110.98 145.528C111.645 145.239 112.332 145.095 113.043 145.095C113.949 145.095 114.73 145.251 115.387 145.564C116.051 145.876 116.594 146.314 117.016 146.876C117.438 147.431 117.75 148.087 117.953 148.845C118.156 149.595 118.258 150.415 118.258 151.306V152.278H108.789V150.509H116.09V150.345C116.059 149.782 115.941 149.235 115.738 148.704C115.543 148.173 115.23 147.735 114.801 147.392C114.371 147.048 113.785 146.876 113.043 146.876C112.551 146.876 112.098 146.982 111.684 147.193C111.27 147.396 110.914 147.7 110.617 148.107C110.32 148.513 110.09 149.009 109.926 149.595C109.762 150.181 109.68 150.857 109.68 151.622V152.114C109.68 152.716 109.762 153.282 109.926 153.814C110.098 154.337 110.344 154.798 110.664 155.196C110.992 155.595 111.387 155.907 111.848 156.134C112.316 156.36 112.848 156.474 113.441 156.474C114.207 156.474 114.855 156.318 115.387 156.005C115.918 155.693 116.383 155.275 116.781 154.751L118.094 155.794C117.82 156.208 117.473 156.603 117.051 156.978C116.629 157.353 116.109 157.657 115.492 157.892C114.883 158.126 114.16 158.243 113.324 158.243ZM128.172 154.646C128.172 154.333 128.102 154.044 127.961 153.778C127.828 153.505 127.551 153.259 127.129 153.04C126.715 152.814 126.09 152.618 125.254 152.454C124.551 152.306 123.914 152.13 123.344 151.927C122.781 151.724 122.301 151.478 121.902 151.189C121.512 150.9 121.211 150.56 121 150.169C120.789 149.778 120.684 149.321 120.684 148.798C120.684 148.298 120.793 147.825 121.012 147.38C121.238 146.935 121.555 146.54 121.961 146.196C122.375 145.853 122.871 145.583 123.449 145.388C124.027 145.193 124.672 145.095 125.383 145.095C126.398 145.095 127.266 145.275 127.984 145.634C128.703 145.993 129.254 146.474 129.637 147.075C130.02 147.669 130.211 148.329 130.211 149.056H128.043C128.043 148.704 127.938 148.364 127.727 148.036C127.523 147.7 127.223 147.423 126.824 147.204C126.434 146.985 125.953 146.876 125.383 146.876C124.781 146.876 124.293 146.97 123.918 147.157C123.551 147.337 123.281 147.568 123.109 147.849C122.945 148.13 122.863 148.427 122.863 148.739C122.863 148.974 122.902 149.185 122.98 149.372C123.066 149.552 123.215 149.72 123.426 149.876C123.637 150.025 123.934 150.165 124.316 150.298C124.699 150.431 125.188 150.564 125.781 150.696C126.82 150.931 127.676 151.212 128.348 151.54C129.02 151.868 129.52 152.271 129.848 152.747C130.176 153.224 130.34 153.802 130.34 154.482C130.34 155.036 130.223 155.544 129.988 156.005C129.762 156.466 129.43 156.864 128.992 157.2C128.562 157.528 128.047 157.786 127.445 157.974C126.852 158.153 126.184 158.243 125.441 158.243C124.324 158.243 123.379 158.044 122.605 157.646C121.832 157.247 121.246 156.732 120.848 156.099C120.449 155.466 120.25 154.798 120.25 154.095H122.43C122.461 154.689 122.633 155.161 122.945 155.513C123.258 155.857 123.641 156.103 124.094 156.251C124.547 156.392 124.996 156.462 125.441 156.462C126.035 156.462 126.531 156.384 126.93 156.228C127.336 156.071 127.645 155.857 127.855 155.583C128.066 155.31 128.172 154.997 128.172 154.646ZM140.57 154.646C140.57 154.333 140.5 154.044 140.359 153.778C140.227 153.505 139.949 153.259 139.527 153.04C139.113 152.814 138.488 152.618 137.652 152.454C136.949 152.306 136.312 152.13 135.742 151.927C135.18 151.724 134.699 151.478 134.301 151.189C133.91 150.9 133.609 150.56 133.398 150.169C133.188 149.778 133.082 149.321 133.082 148.798C133.082 148.298 133.191 147.825 133.41 147.38C133.637 146.935 133.953 146.54 134.359 146.196C134.773 145.853 135.27 145.583 135.848 145.388C136.426 145.193 137.07 145.095 137.781 145.095C138.797 145.095 139.664 145.275 140.383 145.634C141.102 145.993 141.652 146.474 142.035 147.075C142.418 147.669 142.609 148.329 142.609 149.056H140.441C140.441 148.704 140.336 148.364 140.125 148.036C139.922 147.7 139.621 147.423 139.223 147.204C138.832 146.985 138.352 146.876 137.781 146.876C137.18 146.876 136.691 146.97 136.316 147.157C135.949 147.337 135.68 147.568 135.508 147.849C135.344 148.13 135.262 148.427 135.262 148.739C135.262 148.974 135.301 149.185 135.379 149.372C135.465 149.552 135.613 149.72 135.824 149.876C136.035 150.025 136.332 150.165 136.715 150.298C137.098 150.431 137.586 150.564 138.18 150.696C139.219 150.931 140.074 151.212 140.746 151.54C141.418 151.868 141.918 152.271 142.246 152.747C142.574 153.224 142.738 153.802 142.738 154.482C142.738 155.036 142.621 155.544 142.387 156.005C142.16 156.466 141.828 156.864 141.391 157.2C140.961 157.528 140.445 157.786 139.844 157.974C139.25 158.153 138.582 158.243 137.84 158.243C136.723 158.243 135.777 158.044 135.004 157.646C134.23 157.247 133.645 156.732 133.246 156.099C132.848 155.466 132.648 154.798 132.648 154.095H134.828C134.859 154.689 135.031 155.161 135.344 155.513C135.656 155.857 136.039 156.103 136.492 156.251C136.945 156.392 137.395 156.462 137.84 156.462C138.434 156.462 138.93 156.384 139.328 156.228C139.734 156.071 140.043 155.857 140.254 155.583C140.465 155.31 140.57 154.997 140.57 154.646ZM150.848 158.243C149.965 158.243 149.164 158.095 148.445 157.798C147.734 157.493 147.121 157.068 146.605 156.521C146.098 155.974 145.707 155.325 145.434 154.575C145.16 153.825 145.023 153.005 145.023 152.114V151.622C145.023 150.591 145.176 149.673 145.48 148.868C145.785 148.056 146.199 147.368 146.723 146.806C147.246 146.243 147.84 145.818 148.504 145.528C149.168 145.239 149.855 145.095 150.566 145.095C151.473 145.095 152.254 145.251 152.91 145.564C153.574 145.876 154.117 146.314 154.539 146.876C154.961 147.431 155.273 148.087 155.477 148.845C155.68 149.595 155.781 150.415 155.781 151.306V152.278H146.312V150.509H153.613V150.345C153.582 149.782 153.465 149.235 153.262 148.704C153.066 148.173 152.754 147.735 152.324 147.392C151.895 147.048 151.309 146.876 150.566 146.876C150.074 146.876 149.621 146.982 149.207 147.193C148.793 147.396 148.438 147.7 148.141 148.107C147.844 148.513 147.613 149.009 147.449 149.595C147.285 150.181 147.203 150.857 147.203 151.622V152.114C147.203 152.716 147.285 153.282 147.449 153.814C147.621 154.337 147.867 154.798 148.188 155.196C148.516 155.595 148.91 155.907 149.371 156.134C149.84 156.36 150.371 156.474 150.965 156.474C151.73 156.474 152.379 156.318 152.91 156.005C153.441 155.693 153.906 155.275 154.305 154.751L155.617 155.794C155.344 156.208 154.996 156.603 154.574 156.978C154.152 157.353 153.633 157.657 153.016 157.892C152.406 158.126 151.684 158.243 150.848 158.243ZM160.48 147.321V158.009H158.312V145.329H160.422L160.48 147.321ZM164.441 145.259L164.43 147.275C164.25 147.235 164.078 147.212 163.914 147.204C163.758 147.189 163.578 147.181 163.375 147.181C162.875 147.181 162.434 147.259 162.051 147.415C161.668 147.571 161.344 147.79 161.078 148.071C160.812 148.353 160.602 148.689 160.445 149.079C160.297 149.462 160.199 149.884 160.152 150.345L159.543 150.696C159.543 149.931 159.617 149.212 159.766 148.54C159.922 147.868 160.16 147.275 160.48 146.759C160.801 146.235 161.207 145.829 161.699 145.54C162.199 145.243 162.793 145.095 163.48 145.095C163.637 145.095 163.816 145.114 164.02 145.153C164.223 145.185 164.363 145.22 164.441 145.259ZM172.34 145.329V146.993H165.484V145.329H172.34ZM167.805 142.247H169.973V154.868C169.973 155.298 170.039 155.622 170.172 155.841C170.305 156.06 170.477 156.204 170.688 156.275C170.898 156.345 171.125 156.38 171.367 156.38C171.547 156.38 171.734 156.364 171.93 156.333C172.133 156.294 172.285 156.263 172.387 156.239L172.398 158.009C172.227 158.064 172 158.114 171.719 158.161C171.445 158.216 171.113 158.243 170.723 158.243C170.191 158.243 169.703 158.138 169.258 157.927C168.812 157.716 168.457 157.364 168.191 156.872C167.934 156.372 167.805 155.7 167.805 154.857V142.247ZM180.145 158.243C179.262 158.243 178.461 158.095 177.742 157.798C177.031 157.493 176.418 157.068 175.902 156.521C175.395 155.974 175.004 155.325 174.73 154.575C174.457 153.825 174.32 153.005 174.32 152.114V151.622C174.32 150.591 174.473 149.673 174.777 148.868C175.082 148.056 175.496 147.368 176.02 146.806C176.543 146.243 177.137 145.818 177.801 145.528C178.465 145.239 179.152 145.095 179.863 145.095C180.77 145.095 181.551 145.251 182.207 145.564C182.871 145.876 183.414 146.314 183.836 146.876C184.258 147.431 184.57 148.087 184.773 148.845C184.977 149.595 185.078 150.415 185.078 151.306V152.278H175.609V150.509H182.91V150.345C182.879 149.782 182.762 149.235 182.559 148.704C182.363 148.173 182.051 147.735 181.621 147.392C181.191 147.048 180.605 146.876 179.863 146.876C179.371 146.876 178.918 146.982 178.504 147.193C178.09 147.396 177.734 147.7 177.438 148.107C177.141 148.513 176.91 149.009 176.746 149.595C176.582 150.181 176.5 150.857 176.5 151.622V152.114C176.5 152.716 176.582 153.282 176.746 153.814C176.918 154.337 177.164 154.798 177.484 155.196C177.812 155.595 178.207 155.907 178.668 156.134C179.137 156.36 179.668 156.474 180.262 156.474C181.027 156.474 181.676 156.318 182.207 156.005C182.738 155.693 183.203 155.275 183.602 154.751L184.914 155.794C184.641 156.208 184.293 156.603 183.871 156.978C183.449 157.353 182.93 157.657 182.312 157.892C181.703 158.126 180.98 158.243 180.145 158.243ZM189.777 147.321V158.009H187.609V145.329H189.719L189.777 147.321ZM193.738 145.259L193.727 147.275C193.547 147.235 193.375 147.212 193.211 147.204C193.055 147.189 192.875 147.181 192.672 147.181C192.172 147.181 191.73 147.259 191.348 147.415C190.965 147.571 190.641 147.79 190.375 148.071C190.109 148.353 189.898 148.689 189.742 149.079C189.594 149.462 189.496 149.884 189.449 150.345L188.84 150.696C188.84 149.931 188.914 149.212 189.062 148.54C189.219 147.868 189.457 147.275 189.777 146.759C190.098 146.235 190.504 145.829 190.996 145.54C191.496 145.243 192.09 145.095 192.777 145.095C192.934 145.095 193.113 145.114 193.316 145.153C193.52 145.185 193.66 145.22 193.738 145.259Z" fill="#6F4E37"/>
</g>
</g>
<defs>
<clipPath id="clip0_961_8289">
<rect width="215" height="192" fill="white"/>
</clipPath>
<clipPath id="clip1_961_8289">
<rect width="96.0088" height="106.009" fill="white" transform="translate(59.4956)"/>
</clipPath>
<clipPath id="clip2_961_8289">
<rect width="215" height="28" fill="white" transform="translate(0 136.009)"/>
</clipPath>
</defs>
</svg>
