<svg width="215" height="187" viewBox="0 0 215 187" fill="none" xmlns="http://www.w3.org/2000/svg">
<g clip-path="url(#clip0_2178_9265)">
<g clip-path="url(#clip1_2178_9265)">
<path d="M66.9649 77.1374C71.159 76.3877 73.7157 76.7293 76.4301 77.0994C78.12 77.3272 79.8799 77.5644 82.2265 77.5549C86.0353 77.5265 87.5851 76.8907 96.2009 73.332C99.4757 71.975 103.959 70.1245 109.921 67.7616C124.824 61.8495 127.749 61.1188 131.295 60.7866C134.027 60.5209 136.067 60.5589 138.046 60.5968C140.567 60.6443 142.739 60.6822 146.005 60.0939C149.244 59.5055 152.414 58.4901 155.496 57.0572V35.7243C155.496 35.1739 154.997 34.7753 154.48 34.8987L60.1265 58.3478C59.7588 58.4332 59.4961 58.7748 59.4961 59.1734V79.3959C61.9302 78.3616 64.4257 77.6024 66.9649 77.1469V77.1374Z" fill="#6F4E37"/>
<path d="M146.714 64.2504C143.063 64.9146 140.594 64.8672 137.975 64.8197C136.11 64.7818 134.184 64.7533 131.68 64.9906C128.861 65.2563 126.523 65.7023 111.401 71.7093C105.465 74.0627 101.183 75.8373 97.7332 77.2607C88.9335 80.8953 86.8409 81.7589 82.2615 81.7873C79.6085 81.8063 77.6471 81.5406 75.8959 81.3034C73.2954 80.9522 71.2466 80.677 67.6741 81.3128C64.881 81.8158 62.1491 82.7268 59.4961 84.0174V103.462C59.4961 105.113 60.9846 106.318 62.5432 105.939L153.614 83.3152C154.726 83.04 155.505 82.0151 155.505 80.8384V61.6502C152.642 62.8364 149.708 63.7094 146.723 64.2504H146.714Z" fill="#6F4E37"/>
<path d="M132.433 20.37C132.267 25.9594 127.591 30.4196 121.935 30.1633C116.83 29.9356 112.601 25.7127 112.347 20.5882C112.207 17.8742 113.144 15.3879 114.755 13.4994L114.107 13.2432C113.301 12.93 112.399 13.0534 111.699 13.5658L59.6712 51.7714C59.3035 52.0466 59.5662 52.635 60.0127 52.5306L155.163 30.0305C155.566 29.9356 155.61 29.3757 155.216 29.2239L132.424 20.37H132.433Z" fill="#6F4E37"/>
<path d="M122.337 28.4837C127.028 28.4837 130.83 24.6641 130.83 19.9524C130.83 15.2407 127.028 11.4212 122.337 11.4212C117.646 11.4212 113.844 15.2407 113.844 19.9524C113.844 24.6641 117.646 28.4837 122.337 28.4837Z" fill="#6F4E37"/>
<path d="M122.337 15.2645C122.862 15.2645 124.421 15.4353 124.946 15.4353C124.648 12.5789 125.296 10.1021 125.813 8.74508C127.004 5.60399 128.956 1.75117 131.154 1.94096C131.312 1.95045 131.592 2.20668 131.688 2.23514C132.056 2.38698 132.345 2.41545 132.651 2.20668C133.115 1.88403 132.949 0.517508 132.45 0.14741C131.968 -0.203709 131.084 0.156899 130.611 0.356183C128.387 1.27668 125.717 3.97176 124.001 7.84356C123.309 9.39987 122.416 11.9621 122.346 15.255L122.337 15.2645Z" fill="#6F4E37"/>
</g>
<g clip-path="url(#clip2_2178_9265)">
<path d="M33.2383 151.16V153H24.707V151.16H33.2383ZM25.1523 135.938V153H22.8906V135.938H25.1523ZM42.625 150.855V144.562C42.625 144 42.5273 143.52 42.332 143.121C42.1445 142.715 41.8633 142.406 41.4883 142.195C41.1133 141.977 40.6562 141.867 40.1172 141.867C39.5391 141.867 39.0352 141.969 38.6055 142.172C38.1758 142.375 37.8438 142.645 37.6094 142.98C37.375 143.316 37.2578 143.688 37.2578 144.094L35.1016 143.883C35.1016 143.336 35.2227 142.832 35.4648 142.371C35.707 141.91 36.0469 141.508 36.4844 141.164C36.9297 140.82 37.457 140.555 38.0664 140.367C38.6836 140.18 39.3672 140.086 40.1172 140.086C41.0391 140.086 41.8438 140.254 42.5312 140.59C43.2266 140.926 43.7656 141.426 44.1484 142.09C44.5391 142.754 44.7344 143.586 44.7344 144.586V150.445L42.625 150.855ZM43.1055 145.547V147.188H40.0469C39.3672 147.188 38.7969 147.297 38.3359 147.516C37.875 147.727 37.5273 148.008 37.293 148.359C37.0586 148.703 36.9414 149.078 36.9414 149.484C36.9414 149.859 37.0273 150.199 37.1992 150.504C37.3789 150.801 37.6445 151.039 37.9961 151.219C38.3555 151.391 38.8086 151.477 39.3555 151.477C39.7773 151.477 40.207 151.398 40.6445 151.242C41.0898 151.078 41.4961 150.871 41.8633 150.621C42.2383 150.363 42.5391 150.094 42.7656 149.812C43 149.531 43.1211 149.27 43.1289 149.027L44.2539 150.715C44.043 151.098 43.707 151.484 43.2461 151.875C42.793 152.266 42.207 152.594 41.4883 152.859C40.7773 153.117 39.9258 153.246 38.9336 153.246C38.043 153.246 37.2852 153.09 36.6602 152.777C36.043 152.465 35.5742 152.023 35.2539 151.453C34.9336 150.875 34.7734 150.203 34.7734 149.438C34.7734 148.82 34.8828 148.273 35.1016 147.797C35.3281 147.312 35.6602 146.906 36.0977 146.578C36.543 146.242 37.0938 145.988 37.75 145.816C38.4062 145.637 39.1641 145.547 40.0234 145.547H43.1055ZM48.6484 153.246C47.6875 153.246 46.8398 153.09 46.1055 152.777C45.3711 152.465 44.7539 152.027 44.2539 151.465C43.7539 150.895 43.375 150.223 43.1172 149.449C42.8594 148.676 42.7305 147.828 42.7305 146.906V146.391C42.7305 145.461 42.8633 144.613 43.1289 143.848C43.4023 143.074 43.7812 142.406 44.2656 141.844C44.7578 141.281 45.332 140.848 45.9883 140.543C46.6445 140.23 47.3594 140.078 48.1328 140.086C48.9766 140.086 49.7188 140.219 50.3594 140.484C51.0078 140.742 51.5508 141.121 51.9883 141.621C52.4258 142.113 52.7539 142.711 52.9727 143.414C53.1992 144.117 53.3125 144.906 53.3125 145.781V147.164H43.8906V145.5H51.1328V145.137C51.1328 144.543 51.0352 144 50.8398 143.508C50.6445 143.016 50.3281 142.621 49.8906 142.324C49.4531 142.02 48.8672 141.867 48.1328 141.867C47.5938 141.867 47.1172 141.984 46.7031 142.219C46.2891 142.453 45.9375 142.777 45.6484 143.191C45.3672 143.605 45.1523 144.086 45.0039 144.633C44.8555 145.18 44.7812 145.766 44.7812 146.391V146.906C44.7812 147.539 44.8555 148.133 45.0039 148.688C45.1523 149.234 45.3828 149.719 45.6953 150.141C46.0078 150.555 46.4062 150.879 46.8906 151.113C47.3828 151.348 47.9688 151.465 48.6484 151.465C49.5781 151.465 50.3281 151.324 50.8984 151.043C51.4688 150.754 51.9492 150.477 52.3398 150.211L53.1016 151.805C52.9297 151.938 52.6523 152.121 52.2695 152.355C51.8945 152.582 51.4062 152.789 50.8047 152.977C50.2031 153.156 49.4844 153.246 48.6484 153.246ZM57.9531 135V153H55.7734V135H57.9531ZM65.6992 140.32L60.168 146.238L57.0742 149.449L56.8984 147.141L59.1133 144.492L63.0508 140.32H65.6992ZM63.7188 153L59.1953 146.953L60.3203 145.02L66.2734 153H63.7188ZM70.1055 142.312V153H67.9375V140.32H70.0469L70.1055 142.312ZM74.0664 140.25L74.0547 142.266C73.875 142.227 73.7031 142.203 73.5391 142.195C73.3828 142.18 73.2031 142.172 73 142.172C72.5 142.172 72.0586 142.25 71.6758 142.406C71.293 142.562 70.9688 142.781 70.7031 143.062C70.4375 143.344 70.2266 143.68 70.0703 144.07C69.9219 144.453 69.8242 144.875 69.7773 145.336L69.168 145.688C69.168 144.922 69.2422 144.203 69.3906 143.531C69.5469 142.859 69.7852 142.266 70.1055 141.75C70.4258 141.227 70.832 140.82 71.3242 140.531C71.8242 140.234 72.418 140.086 73.1055 140.086C73.2617 140.086 73.4414 140.105 73.6445 140.145C73.8477 140.176 73.9883 140.211 74.0664 140.25ZM81.0977 153.234C80.2148 153.234 79.4141 153.086 78.6953 152.789C77.9844 152.484 77.3711 152.059 76.8555 151.512C76.3477 150.965 75.957 150.316 75.6836 149.566C75.4102 148.816 75.2734 147.996 75.2734 147.105V146.613C75.2734 145.582 75.4258 144.664 75.7305 143.859C76.0352 143.047 76.4492 142.359 76.9727 141.797C77.4961 141.234 78.0898 140.809 78.7539 140.52C79.418 140.23 80.1055 140.086 80.8164 140.086C81.7227 140.086 82.5039 140.242 83.1602 140.555C83.8242 140.867 84.3672 141.305 84.7891 141.867C85.2109 142.422 85.5234 143.078 85.7266 143.836C85.9297 144.586 86.0312 145.406 86.0312 146.297V147.27H76.5625V145.5H83.8633V145.336C83.832 144.773 83.7148 144.227 83.5117 143.695C83.3164 143.164 83.0039 142.727 82.5742 142.383C82.1445 142.039 81.5586 141.867 80.8164 141.867C80.3242 141.867 79.8711 141.973 79.457 142.184C79.043 142.387 78.6875 142.691 78.3906 143.098C78.0938 143.504 77.8633 144 77.6992 144.586C77.5352 145.172 77.4531 145.848 77.4531 146.613V147.105C77.4531 147.707 77.5352 148.273 77.6992 148.805C77.8711 149.328 78.1172 149.789 78.4375 150.188C78.7656 150.586 79.1602 150.898 79.6211 151.125C80.0898 151.352 80.6211 151.465 81.2148 151.465C81.9805 151.465 82.6289 151.309 83.1602 150.996C83.6914 150.684 84.1562 150.266 84.5547 149.742L85.8672 150.785C85.5938 151.199 85.2461 151.594 84.8242 151.969C84.4023 152.344 83.8828 152.648 83.2656 152.883C82.6562 153.117 81.9336 153.234 81.0977 153.234ZM102.508 150.539V135H104.688V153H102.695L102.508 150.539ZM93.9766 146.801V146.555C93.9766 145.586 94.0938 144.707 94.3281 143.918C94.5703 143.121 94.9102 142.438 95.3477 141.867C95.793 141.297 96.3203 140.859 96.9297 140.555C97.5469 140.242 98.2344 140.086 98.9922 140.086C99.7891 140.086 100.484 140.227 101.078 140.508C101.68 140.781 102.188 141.184 102.602 141.715C103.023 142.238 103.355 142.871 103.598 143.613C103.84 144.355 104.008 145.195 104.102 146.133V147.211C104.016 148.141 103.848 148.977 103.598 149.719C103.355 150.461 103.023 151.094 102.602 151.617C102.188 152.141 101.68 152.543 101.078 152.824C100.477 153.098 99.7734 153.234 98.9688 153.234C98.2266 153.234 97.5469 153.074 96.9297 152.754C96.3203 152.434 95.793 151.984 95.3477 151.406C94.9102 150.828 94.5703 150.148 94.3281 149.367C94.0938 148.578 93.9766 147.723 93.9766 146.801ZM96.1562 146.555V146.801C96.1562 147.434 96.2188 148.027 96.3438 148.582C96.4766 149.137 96.6797 149.625 96.9531 150.047C97.2266 150.469 97.5742 150.801 97.9961 151.043C98.418 151.277 98.9219 151.395 99.5078 151.395C100.227 151.395 100.816 151.242 101.277 150.938C101.746 150.633 102.121 150.23 102.402 149.73C102.684 149.23 102.902 148.688 103.059 148.102V145.277C102.965 144.848 102.828 144.434 102.648 144.035C102.477 143.629 102.25 143.27 101.969 142.957C101.695 142.637 101.355 142.383 100.949 142.195C100.551 142.008 100.078 141.914 99.5312 141.914C98.9375 141.914 98.4258 142.039 97.9961 142.289C97.5742 142.531 97.2266 142.867 96.9531 143.297C96.6797 143.719 96.4766 144.211 96.3438 144.773C96.2188 145.328 96.1562 145.922 96.1562 146.555ZM113.324 153.234C112.441 153.234 111.641 153.086 110.922 152.789C110.211 152.484 109.598 152.059 109.082 151.512C108.574 150.965 108.184 150.316 107.91 149.566C107.637 148.816 107.5 147.996 107.5 147.105V146.613C107.5 145.582 107.652 144.664 107.957 143.859C108.262 143.047 108.676 142.359 109.199 141.797C109.723 141.234 110.316 140.809 110.98 140.52C111.645 140.23 112.332 140.086 113.043 140.086C113.949 140.086 114.73 140.242 115.387 140.555C116.051 140.867 116.594 141.305 117.016 141.867C117.438 142.422 117.75 143.078 117.953 143.836C118.156 144.586 118.258 145.406 118.258 146.297V147.27H108.789V145.5H116.09V145.336C116.059 144.773 115.941 144.227 115.738 143.695C115.543 143.164 115.23 142.727 114.801 142.383C114.371 142.039 113.785 141.867 113.043 141.867C112.551 141.867 112.098 141.973 111.684 142.184C111.27 142.387 110.914 142.691 110.617 143.098C110.32 143.504 110.09 144 109.926 144.586C109.762 145.172 109.68 145.848 109.68 146.613V147.105C109.68 147.707 109.762 148.273 109.926 148.805C110.098 149.328 110.344 149.789 110.664 150.188C110.992 150.586 111.387 150.898 111.848 151.125C112.316 151.352 112.848 151.465 113.441 151.465C114.207 151.465 114.855 151.309 115.387 150.996C115.918 150.684 116.383 150.266 116.781 149.742L118.094 150.785C117.82 151.199 117.473 151.594 117.051 151.969C116.629 152.344 116.109 152.648 115.492 152.883C114.883 153.117 114.16 153.234 113.324 153.234ZM128.172 149.637C128.172 149.324 128.102 149.035 127.961 148.77C127.828 148.496 127.551 148.25 127.129 148.031C126.715 147.805 126.09 147.609 125.254 147.445C124.551 147.297 123.914 147.121 123.344 146.918C122.781 146.715 122.301 146.469 121.902 146.18C121.512 145.891 121.211 145.551 121 145.16C120.789 144.77 120.684 144.312 120.684 143.789C120.684 143.289 120.793 142.816 121.012 142.371C121.238 141.926 121.555 141.531 121.961 141.188C122.375 140.844 122.871 140.574 123.449 140.379C124.027 140.184 124.672 140.086 125.383 140.086C126.398 140.086 127.266 140.266 127.984 140.625C128.703 140.984 129.254 141.465 129.637 142.066C130.02 142.66 130.211 143.32 130.211 144.047H128.043C128.043 143.695 127.938 143.355 127.727 143.027C127.523 142.691 127.223 142.414 126.824 142.195C126.434 141.977 125.953 141.867 125.383 141.867C124.781 141.867 124.293 141.961 123.918 142.148C123.551 142.328 123.281 142.559 123.109 142.84C122.945 143.121 122.863 143.418 122.863 143.73C122.863 143.965 122.902 144.176 122.98 144.363C123.066 144.543 123.215 144.711 123.426 144.867C123.637 145.016 123.934 145.156 124.316 145.289C124.699 145.422 125.188 145.555 125.781 145.688C126.82 145.922 127.676 146.203 128.348 146.531C129.02 146.859 129.52 147.262 129.848 147.738C130.176 148.215 130.34 148.793 130.34 149.473C130.34 150.027 130.223 150.535 129.988 150.996C129.762 151.457 129.43 151.855 128.992 152.191C128.562 152.52 128.047 152.777 127.445 152.965C126.852 153.145 126.184 153.234 125.441 153.234C124.324 153.234 123.379 153.035 122.605 152.637C121.832 152.238 121.246 151.723 120.848 151.09C120.449 150.457 120.25 149.789 120.25 149.086H122.43C122.461 149.68 122.633 150.152 122.945 150.504C123.258 150.848 123.641 151.094 124.094 151.242C124.547 151.383 124.996 151.453 125.441 151.453C126.035 151.453 126.531 151.375 126.93 151.219C127.336 151.062 127.645 150.848 127.855 150.574C128.066 150.301 128.172 149.988 128.172 149.637ZM140.57 149.637C140.57 149.324 140.5 149.035 140.359 148.77C140.227 148.496 139.949 148.25 139.527 148.031C139.113 147.805 138.488 147.609 137.652 147.445C136.949 147.297 136.312 147.121 135.742 146.918C135.18 146.715 134.699 146.469 134.301 146.18C133.91 145.891 133.609 145.551 133.398 145.16C133.188 144.77 133.082 144.312 133.082 143.789C133.082 143.289 133.191 142.816 133.41 142.371C133.637 141.926 133.953 141.531 134.359 141.188C134.773 140.844 135.27 140.574 135.848 140.379C136.426 140.184 137.07 140.086 137.781 140.086C138.797 140.086 139.664 140.266 140.383 140.625C141.102 140.984 141.652 141.465 142.035 142.066C142.418 142.66 142.609 143.32 142.609 144.047H140.441C140.441 143.695 140.336 143.355 140.125 143.027C139.922 142.691 139.621 142.414 139.223 142.195C138.832 141.977 138.352 141.867 137.781 141.867C137.18 141.867 136.691 141.961 136.316 142.148C135.949 142.328 135.68 142.559 135.508 142.84C135.344 143.121 135.262 143.418 135.262 143.73C135.262 143.965 135.301 144.176 135.379 144.363C135.465 144.543 135.613 144.711 135.824 144.867C136.035 145.016 136.332 145.156 136.715 145.289C137.098 145.422 137.586 145.555 138.18 145.688C139.219 145.922 140.074 146.203 140.746 146.531C141.418 146.859 141.918 147.262 142.246 147.738C142.574 148.215 142.738 148.793 142.738 149.473C142.738 150.027 142.621 150.535 142.387 150.996C142.16 151.457 141.828 151.855 141.391 152.191C140.961 152.52 140.445 152.777 139.844 152.965C139.25 153.145 138.582 153.234 137.84 153.234C136.723 153.234 135.777 153.035 135.004 152.637C134.23 152.238 133.645 151.723 133.246 151.09C132.848 150.457 132.648 149.789 132.648 149.086H134.828C134.859 149.68 135.031 150.152 135.344 150.504C135.656 150.848 136.039 151.094 136.492 151.242C136.945 151.383 137.395 151.453 137.84 151.453C138.434 151.453 138.93 151.375 139.328 151.219C139.734 151.062 140.043 150.848 140.254 150.574C140.465 150.301 140.57 149.988 140.57 149.637ZM150.848 153.234C149.965 153.234 149.164 153.086 148.445 152.789C147.734 152.484 147.121 152.059 146.605 151.512C146.098 150.965 145.707 150.316 145.434 149.566C145.16 148.816 145.023 147.996 145.023 147.105V146.613C145.023 145.582 145.176 144.664 145.48 143.859C145.785 143.047 146.199 142.359 146.723 141.797C147.246 141.234 147.84 140.809 148.504 140.52C149.168 140.23 149.855 140.086 150.566 140.086C151.473 140.086 152.254 140.242 152.91 140.555C153.574 140.867 154.117 141.305 154.539 141.867C154.961 142.422 155.273 143.078 155.477 143.836C155.68 144.586 155.781 145.406 155.781 146.297V147.27H146.312V145.5H153.613V145.336C153.582 144.773 153.465 144.227 153.262 143.695C153.066 143.164 152.754 142.727 152.324 142.383C151.895 142.039 151.309 141.867 150.566 141.867C150.074 141.867 149.621 141.973 149.207 142.184C148.793 142.387 148.438 142.691 148.141 143.098C147.844 143.504 147.613 144 147.449 144.586C147.285 145.172 147.203 145.848 147.203 146.613V147.105C147.203 147.707 147.285 148.273 147.449 148.805C147.621 149.328 147.867 149.789 148.188 150.188C148.516 150.586 148.91 150.898 149.371 151.125C149.84 151.352 150.371 151.465 150.965 151.465C151.73 151.465 152.379 151.309 152.91 150.996C153.441 150.684 153.906 150.266 154.305 149.742L155.617 150.785C155.344 151.199 154.996 151.594 154.574 151.969C154.152 152.344 153.633 152.648 153.016 152.883C152.406 153.117 151.684 153.234 150.848 153.234ZM160.48 142.312V153H158.312V140.32H160.422L160.48 142.312ZM164.441 140.25L164.43 142.266C164.25 142.227 164.078 142.203 163.914 142.195C163.758 142.18 163.578 142.172 163.375 142.172C162.875 142.172 162.434 142.25 162.051 142.406C161.668 142.562 161.344 142.781 161.078 143.062C160.812 143.344 160.602 143.68 160.445 144.07C160.297 144.453 160.199 144.875 160.152 145.336L159.543 145.688C159.543 144.922 159.617 144.203 159.766 143.531C159.922 142.859 160.16 142.266 160.48 141.75C160.801 141.227 161.207 140.82 161.699 140.531C162.199 140.234 162.793 140.086 163.48 140.086C163.637 140.086 163.816 140.105 164.02 140.145C164.223 140.176 164.363 140.211 164.441 140.25ZM172.34 140.32V141.984H165.484V140.32H172.34ZM167.805 137.238H169.973V149.859C169.973 150.289 170.039 150.613 170.172 150.832C170.305 151.051 170.477 151.195 170.688 151.266C170.898 151.336 171.125 151.371 171.367 151.371C171.547 151.371 171.734 151.355 171.93 151.324C172.133 151.285 172.285 151.254 172.387 151.23L172.398 153C172.227 153.055 172 153.105 171.719 153.152C171.445 153.207 171.113 153.234 170.723 153.234C170.191 153.234 169.703 153.129 169.258 152.918C168.812 152.707 168.457 152.355 168.191 151.863C167.934 151.363 167.805 150.691 167.805 149.848V137.238ZM180.145 153.234C179.262 153.234 178.461 153.086 177.742 152.789C177.031 152.484 176.418 152.059 175.902 151.512C175.395 150.965 175.004 150.316 174.73 149.566C174.457 148.816 174.32 147.996 174.32 147.105V146.613C174.32 145.582 174.473 144.664 174.777 143.859C175.082 143.047 175.496 142.359 176.02 141.797C176.543 141.234 177.137 140.809 177.801 140.52C178.465 140.23 179.152 140.086 179.863 140.086C180.77 140.086 181.551 140.242 182.207 140.555C182.871 140.867 183.414 141.305 183.836 141.867C184.258 142.422 184.57 143.078 184.773 143.836C184.977 144.586 185.078 145.406 185.078 146.297V147.27H175.609V145.5H182.91V145.336C182.879 144.773 182.762 144.227 182.559 143.695C182.363 143.164 182.051 142.727 181.621 142.383C181.191 142.039 180.605 141.867 179.863 141.867C179.371 141.867 178.918 141.973 178.504 142.184C178.09 142.387 177.734 142.691 177.438 143.098C177.141 143.504 176.91 144 176.746 144.586C176.582 145.172 176.5 145.848 176.5 146.613V147.105C176.5 147.707 176.582 148.273 176.746 148.805C176.918 149.328 177.164 149.789 177.484 150.188C177.812 150.586 178.207 150.898 178.668 151.125C179.137 151.352 179.668 151.465 180.262 151.465C181.027 151.465 181.676 151.309 182.207 150.996C182.738 150.684 183.203 150.266 183.602 149.742L184.914 150.785C184.641 151.199 184.293 151.594 183.871 151.969C183.449 152.344 182.93 152.648 182.312 152.883C181.703 153.117 180.98 153.234 180.145 153.234ZM189.777 142.312V153H187.609V140.32H189.719L189.777 142.312ZM193.738 140.25L193.727 142.266C193.547 142.227 193.375 142.203 193.211 142.195C193.055 142.18 192.875 142.172 192.672 142.172C192.172 142.172 191.73 142.25 191.348 142.406C190.965 142.562 190.641 142.781 190.375 143.062C190.109 143.344 189.898 143.68 189.742 144.07C189.594 144.453 189.496 144.875 189.449 145.336L188.84 145.688C188.84 144.922 188.914 144.203 189.062 143.531C189.219 142.859 189.457 142.266 189.777 141.75C190.098 141.227 190.504 140.82 190.996 140.531C191.496 140.234 192.09 140.086 192.777 140.086C192.934 140.086 193.113 140.105 193.316 140.145C193.52 140.176 193.66 140.211 193.738 140.25Z" fill="#6F4E37"/>
</g>
</g>
<defs>
<clipPath id="clip0_2178_9265">
<rect width="215" height="187" fill="white"/>
</clipPath>
<clipPath id="clip1_2178_9265">
<rect width="96.0088" height="106.009" fill="white" transform="translate(59.4961)"/>
</clipPath>
<clipPath id="clip2_2178_9265">
<rect width="215" height="28" fill="white" transform="translate(0 131)"/>
</clipPath>
</defs>
</svg>
