<svg width="215" height="187" viewBox="0 0 215 187" fill="none" xmlns="http://www.w3.org/2000/svg">
<g clip-path="url(#clip0_2178_9240)">
<g clip-path="url(#clip1_2178_9240)">
<path d="M153.052 56.7917C152.85 54.933 151.437 49.5912 147.331 47.1548C144.682 45.5808 141.418 45.271 138.154 46.2841C137.228 46.5687 136.328 46.9539 135.47 47.3893V45.8487C135.47 43.6467 133.687 41.9471 131.449 41.9136C129.001 41.8717 126.915 41.8382 125.014 41.8382C123.163 41.8382 121.767 41.855 119.815 41.8131L115.878 41.7377C109.527 41.7629 103.773 41.6373 97.4471 41.7126C94.385 41.7545 89.792 41.7796 85.2914 41.6875C84.1894 41.6289 83.1127 42.0894 82.3303 42.8429C81.548 43.6048 81.0938 44.6598 81.0938 45.7482V82.2444C81.0938 87.8541 85.7205 92.4088 91.3987 92.4088H125.165C130.852 92.4088 135.47 87.8457 135.47 82.2444V77.9995C136.084 77.673 136.69 77.3297 137.279 76.9697C137.598 76.7771 138.019 76.5678 138.515 76.3166C140.862 75.1277 144.783 73.135 147.937 69.1246C150.848 65.4155 153.598 61.9157 153.052 56.7917ZM143.243 64.8462C141.056 67.6342 137.455 68.9655 135.394 70.0121V55.3767C136.295 54.5395 138.103 53.158 140.139 52.5217C140.93 52.2789 142.444 51.9774 143.723 52.7394C145.161 53.5934 146.036 56.3312 146.145 57.2773C146.398 59.5798 145.851 61.5222 143.243 64.8462Z" fill="#6F4E37"/>
<path d="M138.533 81.1979V84.279C138.533 90.592 133.325 95.7244 126.932 95.7244H88.9175C82.5242 95.7244 77.317 90.592 77.317 84.279V80.9802C66.4569 83.6008 59.5 87.6029 59.5 92.0823C59.5 99.9693 80.9932 106.366 107.5 106.366C134.007 106.366 155.5 99.9693 155.5 92.0823C155.5 87.7118 148.905 83.8101 138.533 81.1895V81.1979Z" fill="#6F4E37"/>
<path d="M96.489 27.1467C96.5647 26.3262 96.8255 25.5392 97.1115 24.7689C97.9781 22.458 99.1475 20.256 99.8374 17.8866C100.527 15.5171 100.721 12.8798 99.6439 10.661C98.567 8.43392 95.9674 6.818 93.5528 7.44595C95.5888 8.76882 96.5731 11.2974 96.489 13.7003C96.4048 16.1032 95.4037 18.3806 94.167 20.4486C92.7704 22.7678 90.9868 25.1289 91.1214 27.8249C91.2476 30.2027 94.1586 34.7323 96.9685 34.6821C98.7605 34.6486 98.6175 33.2838 98.1043 32.1619C97.3219 30.4455 96.3039 29.1813 96.4974 27.1551L96.489 27.1467Z" fill="#6F4E37"/>
<path d="M108.241 19.8374C108.317 19.0169 108.577 18.2299 108.863 17.4596C109.73 15.1488 110.899 12.9468 111.589 10.5773C112.288 8.20785 112.473 5.57048 111.396 3.35174C110.319 1.12462 107.719 -0.491294 105.305 0.136652C107.341 1.45953 108.325 3.98806 108.241 6.391C108.165 8.79394 107.156 11.0713 105.919 13.1393C104.522 15.4585 102.739 17.8196 102.873 20.5156C103 22.8934 105.911 27.423 108.72 27.3728C110.512 27.3393 110.369 25.9745 109.856 24.8526C109.074 23.1362 108.056 21.872 108.249 19.8458L108.241 19.8374Z" fill="#6F4E37"/>
<path d="M119.984 27.1467C120.06 26.3262 120.321 25.5392 120.607 24.7689C121.473 22.458 122.643 20.256 123.332 17.8866C124.031 15.5171 124.216 12.8798 123.139 10.661C122.062 8.43392 119.462 6.818 117.048 7.44595C119.084 8.76882 120.068 11.2974 119.984 13.7003C119.908 16.1032 118.899 18.3806 117.662 20.4486C116.266 22.7678 114.482 25.1289 114.617 27.8249C114.743 30.2027 117.654 34.7323 120.464 34.6821C122.256 34.6486 122.113 33.2838 121.599 32.1619C120.817 30.4455 119.799 29.1813 119.993 27.1551L119.984 27.1467Z" fill="#6F4E37"/>
</g>
<path d="M54.7852 153H51.2227L51.2461 151.16H54.7852C56.0039 151.16 57.0195 150.906 57.832 150.398C58.6445 149.883 59.2539 149.164 59.6602 148.242C60.0742 147.312 60.2812 146.227 60.2812 144.984V143.941C60.2812 142.965 60.1641 142.098 59.9297 141.34C59.6953 140.574 59.3516 139.93 58.8984 139.406C58.4453 138.875 57.8906 138.473 57.2344 138.199C56.5859 137.926 55.8398 137.789 54.9961 137.789H51.1523V135.938H54.9961C56.1133 135.938 57.1328 136.125 58.0547 136.5C58.9766 136.867 59.7695 137.402 60.4336 138.105C61.1055 138.801 61.6211 139.645 61.9805 140.637C62.3398 141.621 62.5195 142.73 62.5195 143.965V144.984C62.5195 146.219 62.3398 147.332 61.9805 148.324C61.6211 149.309 61.1016 150.148 60.4219 150.844C59.75 151.539 58.9375 152.074 57.9844 152.449C57.0391 152.816 55.9727 153 54.7852 153ZM52.4297 135.938V153H50.168V135.938H52.4297ZM67.7578 142.312V153H65.5898V140.32H67.6992L67.7578 142.312ZM71.7188 140.25L71.707 142.266C71.5273 142.227 71.3555 142.203 71.1914 142.195C71.0352 142.18 70.8555 142.172 70.6523 142.172C70.1523 142.172 69.7109 142.25 69.3281 142.406C68.9453 142.562 68.6211 142.781 68.3555 143.062C68.0898 143.344 67.8789 143.68 67.7227 144.07C67.5742 144.453 67.4766 144.875 67.4297 145.336L66.8203 145.688C66.8203 144.922 66.8945 144.203 67.043 143.531C67.1992 142.859 67.4375 142.266 67.7578 141.75C68.0781 141.227 68.4844 140.82 68.9766 140.531C69.4766 140.234 70.0703 140.086 70.7578 140.086C70.9141 140.086 71.0938 140.105 71.2969 140.145C71.5 140.176 71.6406 140.211 71.7188 140.25ZM76.0781 140.32V153H73.8984V140.32H76.0781ZM73.7344 136.957C73.7344 136.605 73.8398 136.309 74.0508 136.066C74.2695 135.824 74.5898 135.703 75.0117 135.703C75.4258 135.703 75.7422 135.824 75.9609 136.066C76.1875 136.309 76.3008 136.605 76.3008 136.957C76.3008 137.293 76.1875 137.582 75.9609 137.824C75.7422 138.059 75.4258 138.176 75.0117 138.176C74.5898 138.176 74.2695 138.059 74.0508 137.824C73.8398 137.582 73.7344 137.293 73.7344 136.957ZM81.7383 135V153H79.5586V135H81.7383ZM89.4844 140.32L83.9531 146.238L80.8594 149.449L80.6836 147.141L82.8984 144.492L86.8359 140.32H89.4844ZM87.5039 153L82.9805 146.953L84.1055 145.02L90.0586 153H87.5039ZM93.9023 135V153H91.7227V135H93.9023ZM101.648 140.32L96.1172 146.238L93.0234 149.449L92.8477 147.141L95.0625 144.492L99 140.32H101.648ZM99.668 153L95.1445 146.953L96.2695 145.02L102.223 153H99.668ZM108.914 153.234C108.031 153.234 107.23 153.086 106.512 152.789C105.801 152.484 105.188 152.059 104.672 151.512C104.164 150.965 103.773 150.316 103.5 149.566C103.227 148.816 103.09 147.996 103.09 147.105V146.613C103.09 145.582 103.242 144.664 103.547 143.859C103.852 143.047 104.266 142.359 104.789 141.797C105.312 141.234 105.906 140.809 106.57 140.52C107.234 140.23 107.922 140.086 108.633 140.086C109.539 140.086 110.32 140.242 110.977 140.555C111.641 140.867 112.184 141.305 112.605 141.867C113.027 142.422 113.34 143.078 113.543 143.836C113.746 144.586 113.848 145.406 113.848 146.297V147.27H104.379V145.5H111.68V145.336C111.648 144.773 111.531 144.227 111.328 143.695C111.133 143.164 110.82 142.727 110.391 142.383C109.961 142.039 109.375 141.867 108.633 141.867C108.141 141.867 107.688 141.973 107.273 142.184C106.859 142.387 106.504 142.691 106.207 143.098C105.91 143.504 105.68 144 105.516 144.586C105.352 145.172 105.27 145.848 105.27 146.613V147.105C105.27 147.707 105.352 148.273 105.516 148.805C105.688 149.328 105.934 149.789 106.254 150.188C106.582 150.586 106.977 150.898 107.438 151.125C107.906 151.352 108.438 151.465 109.031 151.465C109.797 151.465 110.445 151.309 110.977 150.996C111.508 150.684 111.973 150.266 112.371 149.742L113.684 150.785C113.41 151.199 113.062 151.594 112.641 151.969C112.219 152.344 111.699 152.648 111.082 152.883C110.473 153.117 109.75 153.234 108.914 153.234ZM120.07 151.043L123.539 140.32H125.754L121.195 153H119.742L120.07 151.043ZM117.176 140.32L120.75 151.102L120.996 153H119.543L114.949 140.32H117.176ZM135.129 150.832V144.305C135.129 143.805 135.027 143.371 134.824 143.004C134.629 142.629 134.332 142.34 133.934 142.137C133.535 141.934 133.043 141.832 132.457 141.832C131.91 141.832 131.43 141.926 131.016 142.113C130.609 142.301 130.289 142.547 130.055 142.852C129.828 143.156 129.715 143.484 129.715 143.836H127.547C127.547 143.383 127.664 142.934 127.898 142.488C128.133 142.043 128.469 141.641 128.906 141.281C129.352 140.914 129.883 140.625 130.5 140.414C131.125 140.195 131.82 140.086 132.586 140.086C133.508 140.086 134.32 140.242 135.023 140.555C135.734 140.867 136.289 141.34 136.688 141.973C137.094 142.598 137.297 143.383 137.297 144.328V150.234C137.297 150.656 137.332 151.105 137.402 151.582C137.48 152.059 137.594 152.469 137.742 152.812V153H135.48C135.371 152.75 135.285 152.418 135.223 152.004C135.16 151.582 135.129 151.191 135.129 150.832ZM135.504 145.312L135.527 146.836H133.336C132.719 146.836 132.168 146.887 131.684 146.988C131.199 147.082 130.793 147.227 130.465 147.422C130.137 147.617 129.887 147.863 129.715 148.16C129.543 148.449 129.457 148.789 129.457 149.18C129.457 149.578 129.547 149.941 129.727 150.27C129.906 150.598 130.176 150.859 130.535 151.055C130.902 151.242 131.352 151.336 131.883 151.336C132.547 151.336 133.133 151.195 133.641 150.914C134.148 150.633 134.551 150.289 134.848 149.883C135.152 149.477 135.316 149.082 135.34 148.699L136.266 149.742C136.211 150.07 136.062 150.434 135.82 150.832C135.578 151.23 135.254 151.613 134.848 151.98C134.449 152.34 133.973 152.641 133.418 152.883C132.871 153.117 132.254 153.234 131.566 153.234C130.707 153.234 129.953 153.066 129.305 152.73C128.664 152.395 128.164 151.945 127.805 151.383C127.453 150.812 127.277 150.176 127.277 149.473C127.277 148.793 127.41 148.195 127.676 147.68C127.941 147.156 128.324 146.723 128.824 146.379C129.324 146.027 129.926 145.762 130.629 145.582C131.332 145.402 132.117 145.312 132.984 145.312H135.504ZM142.875 142.312V153H140.707V140.32H142.816L142.875 142.312ZM146.836 140.25L146.824 142.266C146.645 142.227 146.473 142.203 146.309 142.195C146.152 142.18 145.973 142.172 145.77 142.172C145.27 142.172 144.828 142.25 144.445 142.406C144.062 142.562 143.738 142.781 143.473 143.062C143.207 143.344 142.996 143.68 142.84 144.07C142.691 144.453 142.594 144.875 142.547 145.336L141.938 145.688C141.938 144.922 142.012 144.203 142.16 143.531C142.316 142.859 142.555 142.266 142.875 141.75C143.195 141.227 143.602 140.82 144.094 140.531C144.594 140.234 145.188 140.086 145.875 140.086C146.031 140.086 146.211 140.105 146.414 140.145C146.617 140.176 146.758 140.211 146.836 140.25ZM153.867 153.234C152.984 153.234 152.184 153.086 151.465 152.789C150.754 152.484 150.141 152.059 149.625 151.512C149.117 150.965 148.727 150.316 148.453 149.566C148.18 148.816 148.043 147.996 148.043 147.105V146.613C148.043 145.582 148.195 144.664 148.5 143.859C148.805 143.047 149.219 142.359 149.742 141.797C150.266 141.234 150.859 140.809 151.523 140.52C152.188 140.23 152.875 140.086 153.586 140.086C154.492 140.086 155.273 140.242 155.93 140.555C156.594 140.867 157.137 141.305 157.559 141.867C157.98 142.422 158.293 143.078 158.496 143.836C158.699 144.586 158.801 145.406 158.801 146.297V147.27H149.332V145.5H156.633V145.336C156.602 144.773 156.484 144.227 156.281 143.695C156.086 143.164 155.773 142.727 155.344 142.383C154.914 142.039 154.328 141.867 153.586 141.867C153.094 141.867 152.641 141.973 152.227 142.184C151.812 142.387 151.457 142.691 151.16 143.098C150.863 143.504 150.633 144 150.469 144.586C150.305 145.172 150.223 145.848 150.223 146.613V147.105C150.223 147.707 150.305 148.273 150.469 148.805C150.641 149.328 150.887 149.789 151.207 150.188C151.535 150.586 151.93 150.898 152.391 151.125C152.859 151.352 153.391 151.465 153.984 151.465C154.75 151.465 155.398 151.309 155.93 150.996C156.461 150.684 156.926 150.266 157.324 149.742L158.637 150.785C158.363 151.199 158.016 151.594 157.594 151.969C157.172 152.344 156.652 152.648 156.035 152.883C155.426 153.117 154.703 153.234 153.867 153.234ZM163.5 142.312V153H161.332V140.32H163.441L163.5 142.312ZM167.461 140.25L167.449 142.266C167.27 142.227 167.098 142.203 166.934 142.195C166.777 142.18 166.598 142.172 166.395 142.172C165.895 142.172 165.453 142.25 165.07 142.406C164.688 142.562 164.363 142.781 164.098 143.062C163.832 143.344 163.621 143.68 163.465 144.07C163.316 144.453 163.219 144.875 163.172 145.336L162.562 145.688C162.562 144.922 162.637 144.203 162.785 143.531C162.941 142.859 163.18 142.266 163.5 141.75C163.82 141.227 164.227 140.82 164.719 140.531C165.219 140.234 165.812 140.086 166.5 140.086C166.656 140.086 166.836 140.105 167.039 140.145C167.242 140.176 167.383 140.211 167.461 140.25Z" fill="#6F4E37"/>
</g>
<defs>
<clipPath id="clip0_2178_9240">
<rect width="215" height="187" fill="white"/>
</clipPath>
<clipPath id="clip1_2178_9240">
<rect width="96" height="106.366" fill="white" transform="translate(59.5)"/>
</clipPath>
</defs>
</svg>
