<svg width="215" height="165" viewBox="0 0 215 165" fill="none" xmlns="http://www.w3.org/2000/svg">
<g clip-path="url(#clip0_947_8275)">
<g clip-path="url(#clip1_947_8275)">
<path d="M153.052 56.7917C152.85 54.933 151.437 49.5912 147.331 47.1548C144.682 45.5808 141.418 45.271 138.154 46.2841C137.228 46.5687 136.328 46.9539 135.47 47.3893V45.8487C135.47 43.6467 133.687 41.9471 131.449 41.9136C129.001 41.8717 126.915 41.8382 125.014 41.8382C123.163 41.8382 121.767 41.855 119.815 41.8131L115.878 41.7377C109.527 41.7629 103.773 41.6373 97.4471 41.7126C94.385 41.7545 89.792 41.7796 85.2914 41.6875C84.1894 41.6289 83.1127 42.0894 82.3303 42.8429C81.548 43.6048 81.0938 44.6598 81.0938 45.7482V82.2444C81.0938 87.8541 85.7205 92.4088 91.3987 92.4088H125.165C130.852 92.4088 135.47 87.8457 135.47 82.2444V77.9995C136.084 77.673 136.69 77.3297 137.279 76.9697C137.598 76.7771 138.019 76.5678 138.515 76.3166C140.862 75.1277 144.783 73.135 147.937 69.1246C150.848 65.4155 153.598 61.9157 153.052 56.7917ZM143.243 64.8462C141.056 67.6342 137.455 68.9655 135.394 70.0121V55.3767C136.295 54.5395 138.103 53.158 140.139 52.5217C140.93 52.2789 142.444 51.9774 143.723 52.7394C145.161 53.5934 146.036 56.3312 146.145 57.2773C146.398 59.5798 145.851 61.5222 143.243 64.8462Z" fill="#6F4E37"/>
<path d="M138.533 81.1979V84.279C138.533 90.592 133.325 95.7244 126.932 95.7244H88.9175C82.5242 95.7244 77.317 90.592 77.317 84.279V80.9802C66.4569 83.6009 59.5 87.603 59.5 92.0823C59.5 99.9693 80.9932 106.366 107.5 106.366C134.007 106.366 155.5 99.9693 155.5 92.0823C155.5 87.7118 148.905 83.8102 138.533 81.1895V81.1979Z" fill="#6F4E37"/>
<path d="M96.489 27.1467C96.5647 26.3262 96.8255 25.5392 97.1115 24.7689C97.9781 22.4581 99.1475 20.2561 99.8374 17.8866C100.527 15.5172 100.721 12.8798 99.6439 10.6611C98.567 8.43395 95.9674 6.81803 93.5528 7.44598C95.5888 8.76885 96.5731 11.2974 96.489 13.7003C96.4048 16.1033 95.4037 18.3806 94.167 20.4486C92.7704 22.7679 90.9868 25.1289 91.1214 27.8249C91.2476 30.2027 94.1586 34.7323 96.9685 34.6821C98.7605 34.6486 98.6175 33.2839 98.1043 32.1619C97.3219 30.4456 96.3039 29.1813 96.4974 27.1551L96.489 27.1467Z" fill="#6F4E37"/>
<path d="M108.241 19.8374C108.317 19.0169 108.577 18.2299 108.863 17.4596C109.73 15.1488 110.899 12.9468 111.589 10.5773C112.288 8.20785 112.473 5.57048 111.396 3.35174C110.319 1.12462 107.719 -0.491294 105.305 0.136652C107.341 1.45953 108.325 3.98806 108.241 6.391C108.165 8.79394 107.156 11.0713 105.919 13.1393C104.522 15.4585 102.739 17.8196 102.873 20.5156C103 22.8934 105.911 27.423 108.72 27.3728C110.512 27.3393 110.369 25.9745 109.856 24.8526C109.074 23.1362 108.056 21.872 108.249 19.8458L108.241 19.8374Z" fill="#6F4E37"/>
<path d="M119.985 27.1467C120.06 26.3262 120.321 25.5392 120.607 24.7689C121.474 22.4581 122.643 20.2561 123.333 17.8866C124.031 15.5172 124.216 12.8798 123.139 10.6611C122.063 8.43395 119.463 6.81803 117.048 7.44598C119.084 8.76885 120.069 11.2974 119.985 13.7003C119.909 16.1033 118.899 18.3806 117.663 20.4486C116.266 22.7679 114.482 25.1289 114.617 27.8249C114.743 30.2027 117.654 34.7323 120.464 34.6821C122.256 34.6486 122.113 33.2839 121.6 32.1619C120.817 30.4456 119.799 29.1813 119.993 27.1551L119.985 27.1467Z" fill="#6F4E37"/>
</g>
<path d="M54.2852 158.366H50.7227L50.7461 156.526H54.2852C55.5039 156.526 56.5195 156.272 57.332 155.764C58.1445 155.249 58.7539 154.53 59.1602 153.608C59.5742 152.678 59.7812 151.593 59.7812 150.35V149.307C59.7812 148.331 59.6641 147.464 59.4297 146.706C59.1953 145.94 58.8516 145.296 58.3984 144.772C57.9453 144.241 57.3906 143.839 56.7344 143.565C56.0859 143.292 55.3398 143.155 54.4961 143.155H50.6523V141.303H54.4961C55.6133 141.303 56.6328 141.491 57.5547 141.866C58.4766 142.233 59.2695 142.768 59.9336 143.471C60.6055 144.167 61.1211 145.01 61.4805 146.003C61.8398 146.987 62.0195 148.096 62.0195 149.331V150.35C62.0195 151.585 61.8398 152.698 61.4805 153.69C61.1211 154.675 60.6016 155.514 59.9219 156.21C59.25 156.905 58.4375 157.44 57.4844 157.815C56.5391 158.182 55.4727 158.366 54.2852 158.366ZM51.9297 141.303V158.366H49.668V141.303H51.9297ZM67.2578 147.678V158.366H65.0898V145.686H67.1992L67.2578 147.678ZM71.2188 145.616L71.207 147.632C71.0273 147.593 70.8555 147.569 70.6914 147.561C70.5352 147.546 70.3555 147.538 70.1523 147.538C69.6523 147.538 69.2109 147.616 68.8281 147.772C68.4453 147.928 68.1211 148.147 67.8555 148.428C67.5898 148.71 67.3789 149.046 67.2227 149.436C67.0742 149.819 66.9766 150.241 66.9297 150.702L66.3203 151.053C66.3203 150.288 66.3945 149.569 66.543 148.897C66.6992 148.225 66.9375 147.632 67.2578 147.116C67.5781 146.593 67.9844 146.186 68.4766 145.897C68.9766 145.6 69.5703 145.452 70.2578 145.452C70.4141 145.452 70.5938 145.471 70.7969 145.51C71 145.542 71.1406 145.577 71.2188 145.616ZM75.5781 145.686V158.366H73.3984V145.686H75.5781ZM73.2344 142.323C73.2344 141.971 73.3398 141.675 73.5508 141.432C73.7695 141.19 74.0898 141.069 74.5117 141.069C74.9258 141.069 75.2422 141.19 75.4609 141.432C75.6875 141.675 75.8008 141.971 75.8008 142.323C75.8008 142.659 75.6875 142.948 75.4609 143.19C75.2422 143.425 74.9258 143.542 74.5117 143.542C74.0898 143.542 73.7695 143.425 73.5508 143.19C73.3398 142.948 73.2344 142.659 73.2344 142.323ZM81.2383 140.366V158.366H79.0586V140.366H81.2383ZM88.9844 145.686L83.4531 151.604L80.3594 154.815L80.1836 152.507L82.3984 149.858L86.3359 145.686H88.9844ZM87.0039 158.366L82.4805 152.319L83.6055 150.385L89.5586 158.366H87.0039ZM93.4023 140.366V158.366H91.2227V140.366H93.4023ZM101.148 145.686L95.6172 151.604L92.5234 154.815L92.3477 152.507L94.5625 149.858L98.5 145.686H101.148ZM99.168 158.366L94.6445 152.319L95.7695 150.385L101.723 158.366H99.168ZM108.414 158.6C107.531 158.6 106.73 158.452 106.012 158.155C105.301 157.85 104.688 157.425 104.172 156.878C103.664 156.331 103.273 155.682 103 154.932C102.727 154.182 102.59 153.362 102.59 152.471V151.979C102.59 150.948 102.742 150.03 103.047 149.225C103.352 148.413 103.766 147.725 104.289 147.163C104.812 146.6 105.406 146.175 106.07 145.885C106.734 145.596 107.422 145.452 108.133 145.452C109.039 145.452 109.82 145.608 110.477 145.921C111.141 146.233 111.684 146.671 112.105 147.233C112.527 147.788 112.84 148.444 113.043 149.202C113.246 149.952 113.348 150.772 113.348 151.663V152.635H103.879V150.866H111.18V150.702C111.148 150.139 111.031 149.593 110.828 149.061C110.633 148.53 110.32 148.093 109.891 147.749C109.461 147.405 108.875 147.233 108.133 147.233C107.641 147.233 107.188 147.339 106.773 147.55C106.359 147.753 106.004 148.057 105.707 148.464C105.41 148.87 105.18 149.366 105.016 149.952C104.852 150.538 104.77 151.214 104.77 151.979V152.471C104.77 153.073 104.852 153.639 105.016 154.171C105.188 154.694 105.434 155.155 105.754 155.553C106.082 155.952 106.477 156.264 106.938 156.491C107.406 156.718 107.938 156.831 108.531 156.831C109.297 156.831 109.945 156.675 110.477 156.362C111.008 156.05 111.473 155.632 111.871 155.108L113.184 156.151C112.91 156.565 112.562 156.96 112.141 157.335C111.719 157.71 111.199 158.014 110.582 158.249C109.973 158.483 109.25 158.6 108.414 158.6ZM119.57 156.409L123.039 145.686H125.254L120.695 158.366H119.242L119.57 156.409ZM116.676 145.686L120.25 156.468L120.496 158.366H119.043L114.449 145.686H116.676ZM134.629 156.198V149.671C134.629 149.171 134.527 148.737 134.324 148.37C134.129 147.995 133.832 147.706 133.434 147.503C133.035 147.3 132.543 147.198 131.957 147.198C131.41 147.198 130.93 147.292 130.516 147.479C130.109 147.667 129.789 147.913 129.555 148.218C129.328 148.522 129.215 148.85 129.215 149.202H127.047C127.047 148.749 127.164 148.3 127.398 147.854C127.633 147.409 127.969 147.007 128.406 146.647C128.852 146.28 129.383 145.991 130 145.78C130.625 145.561 131.32 145.452 132.086 145.452C133.008 145.452 133.82 145.608 134.523 145.921C135.234 146.233 135.789 146.706 136.188 147.339C136.594 147.964 136.797 148.749 136.797 149.694V155.6C136.797 156.022 136.832 156.471 136.902 156.948C136.98 157.425 137.094 157.835 137.242 158.178V158.366H134.98C134.871 158.116 134.785 157.784 134.723 157.37C134.66 156.948 134.629 156.557 134.629 156.198ZM135.004 150.678L135.027 152.202H132.836C132.219 152.202 131.668 152.253 131.184 152.354C130.699 152.448 130.293 152.593 129.965 152.788C129.637 152.983 129.387 153.229 129.215 153.526C129.043 153.815 128.957 154.155 128.957 154.546C128.957 154.944 129.047 155.307 129.227 155.635C129.406 155.964 129.676 156.225 130.035 156.421C130.402 156.608 130.852 156.702 131.383 156.702C132.047 156.702 132.633 156.561 133.141 156.28C133.648 155.999 134.051 155.655 134.348 155.249C134.652 154.843 134.816 154.448 134.84 154.065L135.766 155.108C135.711 155.436 135.562 155.8 135.32 156.198C135.078 156.596 134.754 156.979 134.348 157.346C133.949 157.706 133.473 158.007 132.918 158.249C132.371 158.483 131.754 158.6 131.066 158.6C130.207 158.6 129.453 158.432 128.805 158.096C128.164 157.76 127.664 157.311 127.305 156.749C126.953 156.178 126.777 155.542 126.777 154.839C126.777 154.159 126.91 153.561 127.176 153.046C127.441 152.522 127.824 152.089 128.324 151.745C128.824 151.393 129.426 151.128 130.129 150.948C130.832 150.768 131.617 150.678 132.484 150.678H135.004ZM142.375 147.678V158.366H140.207V145.686H142.316L142.375 147.678ZM146.336 145.616L146.324 147.632C146.145 147.593 145.973 147.569 145.809 147.561C145.652 147.546 145.473 147.538 145.27 147.538C144.77 147.538 144.328 147.616 143.945 147.772C143.562 147.928 143.238 148.147 142.973 148.428C142.707 148.71 142.496 149.046 142.34 149.436C142.191 149.819 142.094 150.241 142.047 150.702L141.438 151.053C141.438 150.288 141.512 149.569 141.66 148.897C141.816 148.225 142.055 147.632 142.375 147.116C142.695 146.593 143.102 146.186 143.594 145.897C144.094 145.6 144.688 145.452 145.375 145.452C145.531 145.452 145.711 145.471 145.914 145.51C146.117 145.542 146.258 145.577 146.336 145.616ZM153.367 158.6C152.484 158.6 151.684 158.452 150.965 158.155C150.254 157.85 149.641 157.425 149.125 156.878C148.617 156.331 148.227 155.682 147.953 154.932C147.68 154.182 147.543 153.362 147.543 152.471V151.979C147.543 150.948 147.695 150.03 148 149.225C148.305 148.413 148.719 147.725 149.242 147.163C149.766 146.6 150.359 146.175 151.023 145.885C151.688 145.596 152.375 145.452 153.086 145.452C153.992 145.452 154.773 145.608 155.43 145.921C156.094 146.233 156.637 146.671 157.059 147.233C157.48 147.788 157.793 148.444 157.996 149.202C158.199 149.952 158.301 150.772 158.301 151.663V152.635H148.832V150.866H156.133V150.702C156.102 150.139 155.984 149.593 155.781 149.061C155.586 148.53 155.273 148.093 154.844 147.749C154.414 147.405 153.828 147.233 153.086 147.233C152.594 147.233 152.141 147.339 151.727 147.55C151.312 147.753 150.957 148.057 150.66 148.464C150.363 148.87 150.133 149.366 149.969 149.952C149.805 150.538 149.723 151.214 149.723 151.979V152.471C149.723 153.073 149.805 153.639 149.969 154.171C150.141 154.694 150.387 155.155 150.707 155.553C151.035 155.952 151.43 156.264 151.891 156.491C152.359 156.718 152.891 156.831 153.484 156.831C154.25 156.831 154.898 156.675 155.43 156.362C155.961 156.05 156.426 155.632 156.824 155.108L158.137 156.151C157.863 156.565 157.516 156.96 157.094 157.335C156.672 157.71 156.152 158.014 155.535 158.249C154.926 158.483 154.203 158.6 153.367 158.6ZM163 147.678V158.366H160.832V145.686H162.941L163 147.678ZM166.961 145.616L166.949 147.632C166.77 147.593 166.598 147.569 166.434 147.561C166.277 147.546 166.098 147.538 165.895 147.538C165.395 147.538 164.953 147.616 164.57 147.772C164.188 147.928 163.863 148.147 163.598 148.428C163.332 148.71 163.121 149.046 162.965 149.436C162.816 149.819 162.719 150.241 162.672 150.702L162.062 151.053C162.062 150.288 162.137 149.569 162.285 148.897C162.441 148.225 162.68 147.632 163 147.116C163.32 146.593 163.727 146.186 164.219 145.897C164.719 145.6 165.312 145.452 166 145.452C166.156 145.452 166.336 145.471 166.539 145.51C166.742 145.542 166.883 145.577 166.961 145.616Z" fill="#6F4E37"/>
</g>
<defs>
<clipPath id="clip0_947_8275">
<rect width="215" height="165" fill="white"/>
</clipPath>
<clipPath id="clip1_947_8275">
<rect width="96" height="106.366" fill="white" transform="translate(59.5)"/>
</clipPath>
</defs>
</svg>
