<svg width="75" height="75" viewBox="0 0 75 75" fill="none" xmlns="http://www.w3.org/2000/svg">
<g clip-path="url(#clip0_951_7460)">
<path d="M36.206 16.4555C41.9318 16.4555 47.3271 18.9938 51.281 22.9617V22.9735C51.281 21.068 52.5631 19.6266 54.3349 19.6266H54.7849C57.581 19.6266 58.1412 22.2633 58.1412 23.0953L58.1529 52.7086C57.9584 54.6493 60.1568 55.6524 61.3779 54.4055C66.124 49.5235 71.8123 29.2828 58.4224 17.5641C45.9349 6.62581 29.1748 8.43284 20.2638 14.5735C10.7927 21.1172 4.73884 35.5711 10.6193 49.1555C17.0412 63.9657 35.3998 68.3836 46.3263 63.9774C51.8576 61.7438 54.4076 69.211 48.6584 71.6555C39.9935 75.3516 15.8459 74.9743 4.56774 55.4438C-3.05179 42.2508 -2.64866 19.043 17.5685 7.01956C33.0209 -2.18434 53.4091 0.365657 65.6998 13.1977C78.5435 26.625 77.8006 51.7477 65.2615 61.5141C59.5826 65.9555 51.1498 61.636 51.2107 55.1649L51.1474 53.0555C47.1935 56.9719 41.9318 59.2688 36.206 59.2688C24.8787 59.2688 14.906 49.2938 14.906 37.9782C14.906 26.5407 24.8787 16.4602 36.206 16.4602V16.4555ZM50.4537 37.1602C50.0248 28.8703 43.8724 23.8782 36.4381 23.8782H36.1568C27.5881 23.8782 22.8279 30.6282 22.8279 38.2805C22.8279 46.861 28.5771 52.2797 36.1216 52.2797C44.5427 52.2797 50.0716 46.118 50.4748 38.8289L50.4537 37.1602Z" fill="black"/>
</g>
<defs>
<clipPath id="clip0_951_7460">
<rect width="75" height="75" fill="white"/>
</clipPath>
</defs>
</svg>
