<svg width="215" height="187" viewBox="0 0 215 187" fill="none" xmlns="http://www.w3.org/2000/svg">
<g clip-path="url(#clip0_2178_9253)">
<g clip-path="url(#clip1_2178_9253)">
<path d="M134.119 97.0001C133.697 70.8153 121.917 49.8103 107.432 49.8103C92.9471 49.8103 81.1595 70.8066 80.7451 97.0001H134.119Z" fill="#6F4E37"/>
<path d="M89.4042 53.3875C85.5059 46.9864 81.3625 43.9547 75.8577 43.9547C63.7233 43.9547 53.8467 62.751 53.5 86.19H76.3058C77.8448 71.4648 82.8085 59.0957 89.4042 53.3875Z" fill="#6F4E37"/>
<path d="M107.432 44.206C114.227 44.206 119.736 38.5634 119.736 31.603C119.736 24.6426 114.227 19 107.432 19C100.637 19 95.1289 24.6426 95.1289 31.603C95.1289 38.5634 100.637 44.206 107.432 44.206Z" fill="#6F4E37"/>
<path d="M74.589 38.1947C79.7635 38.1947 83.9582 33.8978 83.9582 28.5973C83.9582 23.2969 79.7635 19 74.589 19C69.4145 19 65.2197 23.2969 65.2197 28.5973C65.2197 33.8978 69.4145 38.1947 74.589 38.1947Z" fill="#6F4E37"/>
<path d="M125.596 53.3875C129.494 46.9864 133.637 43.9547 139.142 43.9547C151.277 43.9547 161.153 62.751 161.5 86.1986H138.694C137.155 71.4735 132.191 59.1043 125.596 53.3962V53.3875Z" fill="#6F4E37"/>
<path d="M140.41 38.1947C145.585 38.1947 149.78 33.8978 149.78 28.5973C149.78 23.2969 145.585 19 140.41 19C135.236 19 131.041 23.2969 131.041 28.5973C131.041 33.8978 135.236 38.1947 140.41 38.1947Z" fill="#6F4E37"/>
</g>
<path d="M16.1641 146.309H11.6055V144.469H16.1641C17.0469 144.469 17.7617 144.328 18.3086 144.047C18.8555 143.766 19.2539 143.375 19.5039 142.875C19.7617 142.375 19.8906 141.805 19.8906 141.164C19.8906 140.578 19.7617 140.027 19.5039 139.512C19.2539 138.996 18.8555 138.582 18.3086 138.27C17.7617 137.949 17.0469 137.789 16.1641 137.789H12.1328V153H9.87109V135.938H16.1641C17.4531 135.938 18.543 136.16 19.4336 136.605C20.3242 137.051 21 137.668 21.4609 138.457C21.9219 139.238 22.1523 140.133 22.1523 141.141C22.1523 142.234 21.9219 143.168 21.4609 143.941C21 144.715 20.3242 145.305 19.4336 145.711C18.543 146.109 17.4531 146.309 16.1641 146.309ZM27.0391 135V153H24.8594V135H27.0391ZM37.9961 150.832V144.305C37.9961 143.805 37.8945 143.371 37.6914 143.004C37.4961 142.629 37.1992 142.34 36.8008 142.137C36.4023 141.934 35.9102 141.832 35.3242 141.832C34.7773 141.832 34.2969 141.926 33.8828 142.113C33.4766 142.301 33.1562 142.547 32.9219 142.852C32.6953 143.156 32.582 143.484 32.582 143.836H30.4141C30.4141 143.383 30.5312 142.934 30.7656 142.488C31 142.043 31.3359 141.641 31.7734 141.281C32.2188 140.914 32.75 140.625 33.3672 140.414C33.9922 140.195 34.6875 140.086 35.4531 140.086C36.375 140.086 37.1875 140.242 37.8906 140.555C38.6016 140.867 39.1562 141.34 39.5547 141.973C39.9609 142.598 40.1641 143.383 40.1641 144.328V150.234C40.1641 150.656 40.1992 151.105 40.2695 151.582C40.3477 152.059 40.4609 152.469 40.6094 152.812V153H38.3477C38.2383 152.75 38.1523 152.418 38.0898 152.004C38.0273 151.582 37.9961 151.191 37.9961 150.832ZM38.3711 145.312L38.3945 146.836H36.2031C35.5859 146.836 35.0352 146.887 34.5508 146.988C34.0664 147.082 33.6602 147.227 33.332 147.422C33.0039 147.617 32.7539 147.863 32.582 148.16C32.4102 148.449 32.3242 148.789 32.3242 149.18C32.3242 149.578 32.4141 149.941 32.5938 150.27C32.7734 150.598 33.043 150.859 33.4023 151.055C33.7695 151.242 34.2188 151.336 34.75 151.336C35.4141 151.336 36 151.195 36.5078 150.914C37.0156 150.633 37.418 150.289 37.7148 149.883C38.0195 149.477 38.1836 149.082 38.207 148.699L39.1328 149.742C39.0781 150.07 38.9297 150.434 38.6875 150.832C38.4453 151.23 38.1211 151.613 37.7148 151.98C37.3164 152.34 36.8398 152.641 36.2852 152.883C35.7383 153.117 35.1211 153.234 34.4336 153.234C33.5742 153.234 32.8203 153.066 32.1719 152.73C31.5312 152.395 31.0312 151.945 30.6719 151.383C30.3203 150.812 30.1445 150.176 30.1445 149.473C30.1445 148.793 30.2773 148.195 30.543 147.68C30.8086 147.156 31.1914 146.723 31.6914 146.379C32.1914 146.027 32.793 145.762 33.4961 145.582C34.1992 145.402 34.9844 145.312 35.8516 145.312H38.3711ZM51.5664 150.539V135H53.7461V153H51.7539L51.5664 150.539ZM43.0352 146.801V146.555C43.0352 145.586 43.1523 144.707 43.3867 143.918C43.6289 143.121 43.9688 142.438 44.4062 141.867C44.8516 141.297 45.3789 140.859 45.9883 140.555C46.6055 140.242 47.293 140.086 48.0508 140.086C48.8477 140.086 49.543 140.227 50.1367 140.508C50.7383 140.781 51.2461 141.184 51.6602 141.715C52.082 142.238 52.4141 142.871 52.6562 143.613C52.8984 144.355 53.0664 145.195 53.1602 146.133V147.211C53.0742 148.141 52.9062 148.977 52.6562 149.719C52.4141 150.461 52.082 151.094 51.6602 151.617C51.2461 152.141 50.7383 152.543 50.1367 152.824C49.5352 153.098 48.832 153.234 48.0273 153.234C47.2852 153.234 46.6055 153.074 45.9883 152.754C45.3789 152.434 44.8516 151.984 44.4062 151.406C43.9688 150.828 43.6289 150.148 43.3867 149.367C43.1523 148.578 43.0352 147.723 43.0352 146.801ZM45.2148 146.555V146.801C45.2148 147.434 45.2773 148.027 45.4023 148.582C45.5352 149.137 45.7383 149.625 46.0117 150.047C46.2852 150.469 46.6328 150.801 47.0547 151.043C47.4766 151.277 47.9805 151.395 48.5664 151.395C49.2852 151.395 49.875 151.242 50.3359 150.938C50.8047 150.633 51.1797 150.23 51.4609 149.73C51.7422 149.23 51.9609 148.688 52.1172 148.102V145.277C52.0234 144.848 51.8867 144.434 51.707 144.035C51.5352 143.629 51.3086 143.27 51.0273 142.957C50.7539 142.637 50.4141 142.383 50.0078 142.195C49.6094 142.008 49.1367 141.914 48.5898 141.914C47.9961 141.914 47.4844 142.039 47.0547 142.289C46.6328 142.531 46.2852 142.867 46.0117 143.297C45.7383 143.719 45.5352 144.211 45.4023 144.773C45.2773 145.328 45.2148 145.922 45.2148 146.555ZM64.5039 149.637C64.5039 149.324 64.4336 149.035 64.293 148.77C64.1602 148.496 63.8828 148.25 63.4609 148.031C63.0469 147.805 62.4219 147.609 61.5859 147.445C60.8828 147.297 60.2461 147.121 59.6758 146.918C59.1133 146.715 58.6328 146.469 58.2344 146.18C57.8438 145.891 57.543 145.551 57.332 145.16C57.1211 144.77 57.0156 144.312 57.0156 143.789C57.0156 143.289 57.125 142.816 57.3438 142.371C57.5703 141.926 57.8867 141.531 58.293 141.188C58.707 140.844 59.2031 140.574 59.7812 140.379C60.3594 140.184 61.0039 140.086 61.7148 140.086C62.7305 140.086 63.5977 140.266 64.3164 140.625C65.0352 140.984 65.5859 141.465 65.9688 142.066C66.3516 142.66 66.543 143.32 66.543 144.047H64.375C64.375 143.695 64.2695 143.355 64.0586 143.027C63.8555 142.691 63.5547 142.414 63.1562 142.195C62.7656 141.977 62.2852 141.867 61.7148 141.867C61.1133 141.867 60.625 141.961 60.25 142.148C59.8828 142.328 59.6133 142.559 59.4414 142.84C59.2773 143.121 59.1953 143.418 59.1953 143.73C59.1953 143.965 59.2344 144.176 59.3125 144.363C59.3984 144.543 59.5469 144.711 59.7578 144.867C59.9688 145.016 60.2656 145.156 60.6484 145.289C61.0312 145.422 61.5195 145.555 62.1133 145.688C63.1523 145.922 64.0078 146.203 64.6797 146.531C65.3516 146.859 65.8516 147.262 66.1797 147.738C66.5078 148.215 66.6719 148.793 66.6719 149.473C66.6719 150.027 66.5547 150.535 66.3203 150.996C66.0938 151.457 65.7617 151.855 65.3242 152.191C64.8945 152.52 64.3789 152.777 63.7773 152.965C63.1836 153.145 62.5156 153.234 61.7734 153.234C60.6562 153.234 59.7109 153.035 58.9375 152.637C58.1641 152.238 57.5781 151.723 57.1797 151.09C56.7812 150.457 56.582 149.789 56.582 149.086H58.7617C58.793 149.68 58.9648 150.152 59.2773 150.504C59.5898 150.848 59.9727 151.094 60.4258 151.242C60.8789 151.383 61.3281 151.453 61.7734 151.453C62.3672 151.453 62.8633 151.375 63.2617 151.219C63.668 151.062 63.9766 150.848 64.1875 150.574C64.3984 150.301 64.5039 149.988 64.5039 149.637ZM80.7812 140.32V141.984H73.9258V140.32H80.7812ZM76.2461 137.238H78.4141V149.859C78.4141 150.289 78.4805 150.613 78.6133 150.832C78.7461 151.051 78.918 151.195 79.1289 151.266C79.3398 151.336 79.5664 151.371 79.8086 151.371C79.9883 151.371 80.1758 151.355 80.3711 151.324C80.5742 151.285 80.7266 151.254 80.8281 151.23L80.8398 153C80.668 153.055 80.4414 153.105 80.1602 153.152C79.8867 153.207 79.5547 153.234 79.1641 153.234C78.6328 153.234 78.1445 153.129 77.6992 152.918C77.2539 152.707 76.8984 152.355 76.6328 151.863C76.375 151.363 76.2461 150.691 76.2461 149.848V137.238ZM85.6797 140.32V153H83.5V140.32H85.6797ZM83.3359 136.957C83.3359 136.605 83.4414 136.309 83.6523 136.066C83.8711 135.824 84.1914 135.703 84.6133 135.703C85.0273 135.703 85.3438 135.824 85.5625 136.066C85.7891 136.309 85.9023 136.605 85.9023 136.957C85.9023 137.293 85.7891 137.582 85.5625 137.824C85.3438 138.059 85.0273 138.176 84.6133 138.176C84.1914 138.176 83.8711 138.059 83.6523 137.824C83.4414 137.582 83.3359 137.293 83.3359 136.957ZM91.5156 135V153H89.3359V135H91.5156ZM111.895 151.219V153H100.727V151.441L106.316 145.219C107.004 144.453 107.535 143.805 107.91 143.273C108.293 142.734 108.559 142.254 108.707 141.832C108.863 141.402 108.941 140.965 108.941 140.52C108.941 139.957 108.824 139.449 108.59 138.996C108.363 138.535 108.027 138.168 107.582 137.895C107.137 137.621 106.598 137.484 105.965 137.484C105.207 137.484 104.574 137.633 104.066 137.93C103.566 138.219 103.191 138.625 102.941 139.148C102.691 139.672 102.566 140.273 102.566 140.953H100.398C100.398 139.992 100.609 139.113 101.031 138.316C101.453 137.52 102.078 136.887 102.906 136.418C103.734 135.941 104.754 135.703 105.965 135.703C107.043 135.703 107.965 135.895 108.73 136.277C109.496 136.652 110.082 137.184 110.488 137.871C110.902 138.551 111.109 139.348 111.109 140.262C111.109 140.762 111.023 141.27 110.852 141.785C110.688 142.293 110.457 142.801 110.16 143.309C109.871 143.816 109.531 144.316 109.141 144.809C108.758 145.301 108.348 145.785 107.91 146.262L103.34 151.219H111.895ZM125.746 147.258V149.039H113.418V147.762L121.059 135.938H122.828L120.93 139.359L115.879 147.258H125.746ZM123.367 135.938V153H121.199V135.938H123.367ZM142.117 140.32H144.086V152.73C144.086 153.848 143.859 154.801 143.406 155.59C142.953 156.379 142.32 156.977 141.508 157.383C140.703 157.797 139.773 158.004 138.719 158.004C138.281 158.004 137.766 157.934 137.172 157.793C136.586 157.66 136.008 157.43 135.438 157.102C134.875 156.781 134.402 156.348 134.02 155.801L135.156 154.512C135.688 155.152 136.242 155.598 136.82 155.848C137.406 156.098 137.984 156.223 138.555 156.223C139.242 156.223 139.836 156.094 140.336 155.836C140.836 155.578 141.223 155.195 141.496 154.688C141.777 154.188 141.918 153.57 141.918 152.836V143.109L142.117 140.32ZM133.387 146.801V146.555C133.387 145.586 133.5 144.707 133.727 143.918C133.961 143.121 134.293 142.438 134.723 141.867C135.16 141.297 135.688 140.859 136.305 140.555C136.922 140.242 137.617 140.086 138.391 140.086C139.188 140.086 139.883 140.227 140.477 140.508C141.078 140.781 141.586 141.184 142 141.715C142.422 142.238 142.754 142.871 142.996 143.613C143.238 144.355 143.406 145.195 143.5 146.133V147.211C143.414 148.141 143.246 148.977 142.996 149.719C142.754 150.461 142.422 151.094 142 151.617C141.586 152.141 141.078 152.543 140.477 152.824C139.875 153.098 139.172 153.234 138.367 153.234C137.609 153.234 136.922 153.074 136.305 152.754C135.695 152.434 135.172 151.984 134.734 151.406C134.297 150.828 133.961 150.148 133.727 149.367C133.5 148.578 133.387 147.723 133.387 146.801ZM135.555 146.555V146.801C135.555 147.434 135.617 148.027 135.742 148.582C135.875 149.137 136.074 149.625 136.34 150.047C136.613 150.469 136.961 150.801 137.383 151.043C137.805 151.277 138.309 151.395 138.895 151.395C139.613 151.395 140.207 151.242 140.676 150.938C141.145 150.633 141.516 150.23 141.789 149.73C142.07 149.23 142.289 148.688 142.445 148.102V145.277C142.359 144.848 142.227 144.434 142.047 144.035C141.875 143.629 141.648 143.27 141.367 142.957C141.094 142.637 140.754 142.383 140.348 142.195C139.941 142.008 139.465 141.914 138.918 141.914C138.324 141.914 137.812 142.039 137.383 142.289C136.961 142.531 136.613 142.867 136.34 143.297C136.074 143.719 135.875 144.211 135.742 144.773C135.617 145.328 135.555 145.922 135.555 146.555ZM154.504 150.855V144.562C154.504 144 154.406 143.52 154.211 143.121C154.023 142.715 153.742 142.406 153.367 142.195C152.992 141.977 152.535 141.867 151.996 141.867C151.418 141.867 150.914 141.969 150.484 142.172C150.055 142.375 149.723 142.645 149.488 142.98C149.254 143.316 149.137 143.688 149.137 144.094L146.98 143.883C146.98 143.336 147.102 142.832 147.344 142.371C147.586 141.91 147.926 141.508 148.363 141.164C148.809 140.82 149.336 140.555 149.945 140.367C150.562 140.18 151.246 140.086 151.996 140.086C152.918 140.086 153.723 140.254 154.41 140.59C155.105 140.926 155.645 141.426 156.027 142.09C156.418 142.754 156.613 143.586 156.613 144.586V150.445L154.504 150.855ZM154.984 145.547V147.188H151.926C151.246 147.188 150.676 147.297 150.215 147.516C149.754 147.727 149.406 148.008 149.172 148.359C148.938 148.703 148.82 149.078 148.82 149.484C148.82 149.859 148.906 150.199 149.078 150.504C149.258 150.801 149.523 151.039 149.875 151.219C150.234 151.391 150.688 151.477 151.234 151.477C151.656 151.477 152.086 151.398 152.523 151.242C152.969 151.078 153.375 150.871 153.742 150.621C154.117 150.363 154.418 150.094 154.645 149.812C154.879 149.531 155 149.27 155.008 149.027L156.133 150.715C155.922 151.098 155.586 151.484 155.125 151.875C154.672 152.266 154.086 152.594 153.367 152.859C152.656 153.117 151.805 153.246 150.812 153.246C149.922 153.246 149.164 153.09 148.539 152.777C147.922 152.465 147.453 152.023 147.133 151.453C146.812 150.875 146.652 150.203 146.652 149.438C146.652 148.82 146.762 148.273 146.98 147.797C147.207 147.312 147.539 146.906 147.977 146.578C148.422 146.242 148.973 145.988 149.629 145.816C150.285 145.637 151.043 145.547 151.902 145.547H154.984ZM160.527 153.246C159.566 153.246 158.719 153.09 157.984 152.777C157.25 152.465 156.633 152.027 156.133 151.465C155.633 150.895 155.254 150.223 154.996 149.449C154.738 148.676 154.609 147.828 154.609 146.906V146.391C154.609 145.461 154.742 144.613 155.008 143.848C155.281 143.074 155.66 142.406 156.145 141.844C156.637 141.281 157.211 140.848 157.867 140.543C158.523 140.23 159.238 140.078 160.012 140.086C160.855 140.086 161.598 140.219 162.238 140.484C162.887 140.742 163.43 141.121 163.867 141.621C164.305 142.113 164.633 142.711 164.852 143.414C165.078 144.117 165.191 144.906 165.191 145.781V147.164H155.77V145.5H163.012V145.137C163.012 144.543 162.914 144 162.719 143.508C162.523 143.016 162.207 142.621 161.77 142.324C161.332 142.02 160.746 141.867 160.012 141.867C159.473 141.867 158.996 141.984 158.582 142.219C158.168 142.453 157.816 142.777 157.527 143.191C157.246 143.605 157.031 144.086 156.883 144.633C156.734 145.18 156.66 145.766 156.66 146.391V146.906C156.66 147.539 156.734 148.133 156.883 148.688C157.031 149.234 157.262 149.719 157.574 150.141C157.887 150.555 158.285 150.879 158.77 151.113C159.262 151.348 159.848 151.465 160.527 151.465C161.457 151.465 162.207 151.324 162.777 151.043C163.348 150.754 163.828 150.477 164.219 150.211L164.98 151.805C164.809 151.938 164.531 152.121 164.148 152.355C163.773 152.582 163.285 152.789 162.684 152.977C162.082 153.156 161.363 153.246 160.527 153.246ZM175.035 149.637C175.035 149.324 174.965 149.035 174.824 148.77C174.691 148.496 174.414 148.25 173.992 148.031C173.578 147.805 172.953 147.609 172.117 147.445C171.414 147.297 170.777 147.121 170.207 146.918C169.645 146.715 169.164 146.469 168.766 146.18C168.375 145.891 168.074 145.551 167.863 145.16C167.652 144.77 167.547 144.312 167.547 143.789C167.547 143.289 167.656 142.816 167.875 142.371C168.102 141.926 168.418 141.531 168.824 141.188C169.238 140.844 169.734 140.574 170.312 140.379C170.891 140.184 171.535 140.086 172.246 140.086C173.262 140.086 174.129 140.266 174.848 140.625C175.566 140.984 176.117 141.465 176.5 142.066C176.883 142.66 177.074 143.32 177.074 144.047H174.906C174.906 143.695 174.801 143.355 174.59 143.027C174.387 142.691 174.086 142.414 173.688 142.195C173.297 141.977 172.816 141.867 172.246 141.867C171.645 141.867 171.156 141.961 170.781 142.148C170.414 142.328 170.145 142.559 169.973 142.84C169.809 143.121 169.727 143.418 169.727 143.73C169.727 143.965 169.766 144.176 169.844 144.363C169.93 144.543 170.078 144.711 170.289 144.867C170.5 145.016 170.797 145.156 171.18 145.289C171.562 145.422 172.051 145.555 172.645 145.688C173.684 145.922 174.539 146.203 175.211 146.531C175.883 146.859 176.383 147.262 176.711 147.738C177.039 148.215 177.203 148.793 177.203 149.473C177.203 150.027 177.086 150.535 176.852 150.996C176.625 151.457 176.293 151.855 175.855 152.191C175.426 152.52 174.91 152.777 174.309 152.965C173.715 153.145 173.047 153.234 172.305 153.234C171.188 153.234 170.242 153.035 169.469 152.637C168.695 152.238 168.109 151.723 167.711 151.09C167.312 150.457 167.113 149.789 167.113 149.086H169.293C169.324 149.68 169.496 150.152 169.809 150.504C170.121 150.848 170.504 151.094 170.957 151.242C171.41 151.383 171.859 151.453 172.305 151.453C172.898 151.453 173.395 151.375 173.793 151.219C174.199 151.062 174.508 150.848 174.719 150.574C174.93 150.301 175.035 149.988 175.035 149.637ZM185.359 140.32V141.984H178.504V140.32H185.359ZM180.824 137.238H182.992V149.859C182.992 150.289 183.059 150.613 183.191 150.832C183.324 151.051 183.496 151.195 183.707 151.266C183.918 151.336 184.145 151.371 184.387 151.371C184.566 151.371 184.754 151.355 184.949 151.324C185.152 151.285 185.305 151.254 185.406 151.23L185.418 153C185.246 153.055 185.02 153.105 184.738 153.152C184.465 153.207 184.133 153.234 183.742 153.234C183.211 153.234 182.723 153.129 182.277 152.918C181.832 152.707 181.477 152.355 181.211 151.863C180.953 151.363 180.824 150.691 180.824 149.848V137.238ZM193.164 153.234C192.281 153.234 191.48 153.086 190.762 152.789C190.051 152.484 189.438 152.059 188.922 151.512C188.414 150.965 188.023 150.316 187.75 149.566C187.477 148.816 187.34 147.996 187.34 147.105V146.613C187.34 145.582 187.492 144.664 187.797 143.859C188.102 143.047 188.516 142.359 189.039 141.797C189.562 141.234 190.156 140.809 190.82 140.52C191.484 140.23 192.172 140.086 192.883 140.086C193.789 140.086 194.57 140.242 195.227 140.555C195.891 140.867 196.434 141.305 196.855 141.867C197.277 142.422 197.59 143.078 197.793 143.836C197.996 144.586 198.098 145.406 198.098 146.297V147.27H188.629V145.5H195.93V145.336C195.898 144.773 195.781 144.227 195.578 143.695C195.383 143.164 195.07 142.727 194.641 142.383C194.211 142.039 193.625 141.867 192.883 141.867C192.391 141.867 191.938 141.973 191.523 142.184C191.109 142.387 190.754 142.691 190.457 143.098C190.16 143.504 189.93 144 189.766 144.586C189.602 145.172 189.52 145.848 189.52 146.613V147.105C189.52 147.707 189.602 148.273 189.766 148.805C189.938 149.328 190.184 149.789 190.504 150.188C190.832 150.586 191.227 150.898 191.688 151.125C192.156 151.352 192.688 151.465 193.281 151.465C194.047 151.465 194.695 151.309 195.227 150.996C195.758 150.684 196.223 150.266 196.621 149.742L197.934 150.785C197.66 151.199 197.312 151.594 196.891 151.969C196.469 152.344 195.949 152.648 195.332 152.883C194.723 153.117 194 153.234 193.164 153.234ZM202.797 142.312V153H200.629V140.32H202.738L202.797 142.312ZM206.758 140.25L206.746 142.266C206.566 142.227 206.395 142.203 206.23 142.195C206.074 142.18 205.895 142.172 205.691 142.172C205.191 142.172 204.75 142.25 204.367 142.406C203.984 142.562 203.66 142.781 203.395 143.062C203.129 143.344 202.918 143.68 202.762 144.07C202.613 144.453 202.516 144.875 202.469 145.336L201.859 145.688C201.859 144.922 201.934 144.203 202.082 143.531C202.238 142.859 202.477 142.266 202.797 141.75C203.117 141.227 203.523 140.82 204.016 140.531C204.516 140.234 205.109 140.086 205.797 140.086C205.953 140.086 206.133 140.105 206.336 140.145C206.539 140.176 206.68 140.211 206.758 140.25Z" fill="#6F4E37"/>
</g>
<defs>
<clipPath id="clip0_2178_9253">
<rect width="215" height="187" fill="white"/>
</clipPath>
<clipPath id="clip1_2178_9253">
<rect width="108" height="78" fill="white" transform="translate(53.5 19)"/>
</clipPath>
</defs>
</svg>
