<svg width="49" height="62" viewBox="0 0 49 62" fill="none" xmlns="http://www.w3.org/2000/svg">
<path d="M22.7147 25.3886C23.8207 26.9776 24.1047 28.9797 24.1734 29.8191C24.1884 30.019 24.03 30.1722 23.8656 30.1123C23.181 29.8658 21.5609 29.1462 20.4519 27.5539C19.3429 25.9616 19.0679 23.9629 18.9991 23.1234C18.9812 22.9269 19.1426 22.7736 19.304 22.8303C19.9915 23.0768 21.6057 23.7963 22.7147 25.3886Z" fill="white"/>
<path d="M26.1402 25.3886C25.0342 26.9776 24.7503 28.9797 24.6815 29.8191C24.6666 30.019 24.825 30.1722 24.9894 30.1123C25.6739 29.8658 27.2941 29.1462 28.4031 27.5539C29.5121 25.9616 29.7871 23.9629 29.8558 23.1234C29.8738 22.9269 29.7123 22.7736 29.5509 22.8303C28.8634 23.0768 27.2492 23.7963 26.1402 25.3886Z" fill="white"/>
<path d="M22.646 30.9394C23.752 32.5284 24.036 34.5305 24.1047 35.3699C24.1197 35.5698 23.9612 35.723 23.7968 35.6631C23.1123 35.4166 21.4921 34.697 20.3832 33.1047C19.2742 31.5124 18.9992 29.5137 18.9304 28.6742C18.9125 28.4777 19.0739 28.3244 19.2353 28.381C19.9228 28.6276 21.537 29.3471 22.646 30.9394Z" fill="white"/>
<path d="M26.2121 30.9394C25.1061 32.5284 24.8222 34.5305 24.7534 35.3699C24.7385 35.5698 24.8969 35.723 25.0613 35.6631C25.7458 35.4166 27.366 34.697 28.475 33.1047C29.584 31.5124 29.859 29.5137 29.9277 28.6742C29.9457 28.4777 29.7842 28.3244 29.6228 28.381C28.9353 28.6276 27.3211 29.3471 26.2121 30.9394Z" fill="white"/>
<path d="M22.7147 19.8554C23.8207 21.4444 24.1047 23.4465 24.1734 24.2859C24.1884 24.4858 24.03 24.639 23.8656 24.5791C23.181 24.3326 21.5609 23.613 20.4519 22.0207C19.3429 20.4284 19.0679 18.4297 18.9991 17.5902C18.9812 17.3937 19.1426 17.2404 19.304 17.2971C19.9915 17.5436 21.6057 18.2631 22.7147 19.8554Z" fill="white"/>
<path d="M26.1402 19.8554C25.0342 21.4444 24.7503 23.4465 24.6815 24.2859C24.6666 24.4858 24.825 24.639 24.9894 24.5791C25.6739 24.3326 27.2941 23.613 28.4031 22.0207C29.5121 20.4284 29.7871 18.4297 29.8558 17.5902C29.8738 17.3937 29.7123 17.2404 29.5509 17.2971C28.8634 17.5436 27.2492 18.2631 26.1402 19.8554Z" fill="white"/>
<path d="M25.8893 16.3012C25.8893 18.3432 25.0344 20.1021 24.6338 20.8083C24.5382 20.9748 24.323 20.9748 24.2303 20.8083C23.8297 20.1021 22.9718 18.3532 22.9718 16.3012C22.9718 14.2491 23.8297 12.5069 24.2303 11.8007C24.326 11.6341 24.5412 11.6341 24.6338 11.8007C25.0344 12.5069 25.8893 14.2558 25.8893 16.3012Z" fill="white"/>
<path d="M24.2512 46.7534C36.6776 46.7534 46.7512 36.6798 46.7512 24.2534C46.7512 11.827 36.6776 1.75342 24.2512 1.75342C11.8248 1.75342 1.75116 11.827 1.75116 24.2534C1.75116 36.6798 11.8248 46.7534 24.2512 46.7534Z" stroke="white" stroke-width="2.23096" stroke-miterlimit="10"/>
<path d="M31.0827 17.189C34.3596 14.1937 36.8198 11.4068 40.326 8.51221" stroke="white" stroke-width="2.23096" stroke-miterlimit="10"/>
<path d="M7.21362 39.564C10.3271 36.5026 13.6352 33.6462 16.787 30.623" stroke="white" stroke-width="2.23096" stroke-miterlimit="10"/>
<path d="M10.5652 57.1084V58.0002C10.5652 58.1187 10.5536 58.2139 10.5303 58.2859C10.507 58.3557 10.4637 58.4192 10.4002 58.4763C10.3388 58.5334 10.2595 58.5885 10.1622 58.6414C9.88074 58.7937 9.60991 58.9048 9.34965 58.9746C9.0894 59.0444 8.80587 59.0793 8.49907 59.0793C8.14148 59.0793 7.81563 59.0243 7.52153 58.9143C7.22742 58.8043 6.97669 58.6445 6.76933 58.4351C6.56197 58.2256 6.40222 57.9717 6.29008 57.6733C6.18005 57.375 6.12504 57.0417 6.12504 56.6736C6.12504 56.3118 6.179 55.9806 6.28691 55.6802C6.39482 55.3797 6.55351 55.1248 6.76298 54.9153C6.97245 54.7058 7.22742 54.5461 7.52787 54.436C7.82833 54.3239 8.16899 54.2678 8.54985 54.2678C8.863 54.2678 9.14018 54.3101 9.38139 54.3948C9.6226 54.4773 9.81832 54.582 9.96855 54.709C10.1188 54.8359 10.232 54.9703 10.3081 55.1121C10.3843 55.2538 10.4224 55.3797 10.4224 55.4897C10.4224 55.6082 10.378 55.7098 10.2891 55.7944C10.2024 55.877 10.0976 55.9182 9.9749 55.9182C9.90719 55.9182 9.84159 55.9023 9.77812 55.8706C9.71676 55.8389 9.66492 55.7944 9.6226 55.7373C9.50623 55.5553 9.40784 55.4178 9.32743 55.3247C9.24703 55.2316 9.13806 55.1533 9.00053 55.0898C8.86511 55.0264 8.69161 54.9946 8.48002 54.9946C8.26209 54.9946 8.06742 55.0327 7.89604 55.1089C7.72465 55.1829 7.5776 55.2919 7.45488 55.4358C7.33427 55.5776 7.24117 55.7521 7.17558 55.9595C7.1121 56.1668 7.08036 56.3964 7.08036 56.6482C7.08036 57.1941 7.2052 57.6141 7.45488 57.9082C7.70667 58.2023 8.05685 58.3494 8.50541 58.3494C8.72335 58.3494 8.92753 58.3208 9.11796 58.2637C9.31051 58.2065 9.50517 58.1251 9.70195 58.0193V57.2639H8.97197C8.79635 57.2639 8.66305 57.2375 8.57206 57.1846C8.4832 57.1317 8.43876 57.0417 8.43876 56.9148C8.43876 56.8111 8.47579 56.7254 8.54985 56.6577C8.62602 56.59 8.72864 56.5562 8.85771 56.5562H9.92729C10.0585 56.5562 10.1696 56.5678 10.2605 56.5911C10.3515 56.6143 10.4245 56.6662 10.4795 56.7466C10.5367 56.827 10.5652 56.9476 10.5652 57.1084ZM12.387 54.8391V58.2256H14.2976C14.45 58.2256 14.5664 58.2626 14.6468 58.3367C14.7293 58.4107 14.7705 58.5038 14.7705 58.616C14.7705 58.7302 14.7303 58.8233 14.6499 58.8953C14.5695 58.9651 14.4521 59 14.2976 59H12.022C11.8168 59 11.6687 58.9545 11.5777 58.8635C11.4888 58.7725 11.4444 58.6255 11.4444 58.4224V54.8391C11.4444 54.6487 11.4867 54.5059 11.5713 54.4106C11.6581 54.3154 11.7713 54.2678 11.9109 54.2678C12.0527 54.2678 12.167 54.3154 12.2537 54.4106C12.3426 54.5037 12.387 54.6466 12.387 54.8391ZM15.0752 57.0767V54.8391C15.0752 54.6487 15.1176 54.5059 15.2022 54.4106C15.2889 54.3154 15.4021 54.2678 15.5418 54.2678C15.6878 54.2678 15.8031 54.3154 15.8877 54.4106C15.9745 54.5059 16.0179 54.6487 16.0179 54.8391V57.1274C16.0179 57.3877 16.0464 57.6056 16.1036 57.7812C16.1628 57.9548 16.2665 58.0902 16.4146 58.1875C16.5627 58.2827 16.7701 58.3303 17.0367 58.3303C17.4048 58.3303 17.6651 58.233 17.8174 58.0383C17.9698 57.8416 18.0459 57.5443 18.0459 57.1465V54.8391C18.0459 54.6466 18.0883 54.5037 18.1729 54.4106C18.2575 54.3154 18.3707 54.2678 18.5125 54.2678C18.6543 54.2678 18.7685 54.3154 18.8553 54.4106C18.9441 54.5037 18.9886 54.6466 18.9886 54.8391V57.0767C18.9886 57.4406 18.9526 57.7442 18.8807 57.9875C18.8108 58.2309 18.6775 58.4446 18.4808 58.6287C18.3115 58.7852 18.1147 58.8995 17.8904 58.9714C17.6661 59.0434 17.4038 59.0793 17.1033 59.0793C16.7457 59.0793 16.4379 59.0413 16.1797 58.9651C15.9216 58.8868 15.7111 58.7673 15.5481 58.6064C15.3852 58.4435 15.2657 58.2362 15.1895 57.9844C15.1133 57.7305 15.0752 57.4279 15.0752 57.0767ZM23.0289 55.1248H22.0005V58.5049C22.0005 58.6995 21.9572 58.8445 21.8704 58.9397C21.7837 59.0328 21.6715 59.0793 21.534 59.0793C21.3943 59.0793 21.2801 59.0317 21.1912 58.9365C21.1045 58.8413 21.0611 58.6974 21.0611 58.5049V55.1248H20.0328C19.8719 55.1248 19.7524 55.0898 19.6741 55.02C19.5958 54.9481 19.5567 54.8539 19.5567 54.7375C19.5567 54.6169 19.5969 54.5217 19.6773 54.4519C19.7598 54.3821 19.8783 54.3472 20.0328 54.3472H23.0289C23.1918 54.3472 23.3124 54.3831 23.3907 54.4551C23.4711 54.527 23.5113 54.6212 23.5113 54.7375C23.5113 54.8539 23.4711 54.9481 23.3907 55.02C23.3103 55.0898 23.1897 55.1248 23.0289 55.1248ZM27.1358 55.074H25.0125V56.2166H26.9676C27.1115 56.2166 27.2183 56.2493 27.2881 56.3149C27.3601 56.3784 27.396 56.4631 27.396 56.5688C27.396 56.6746 27.3611 56.7614 27.2913 56.8291C27.2215 56.8947 27.1136 56.9275 26.9676 56.9275H25.0125V58.251H27.2088C27.3569 58.251 27.468 58.2859 27.542 58.3557C27.6182 58.4234 27.6563 58.5144 27.6563 58.6287C27.6563 58.7387 27.6182 58.8286 27.542 58.8984C27.468 58.9661 27.3569 59 27.2088 59H24.6475C24.4423 59 24.2942 58.9545 24.2032 58.8635C24.1143 58.7725 24.0699 58.6255 24.0699 58.4224V54.9248C24.0699 54.7894 24.09 54.6794 24.1302 54.5947C24.1704 54.508 24.2328 54.4456 24.3174 54.4075C24.4042 54.3673 24.5142 54.3472 24.6475 54.3472H27.1358C27.286 54.3472 27.3971 54.381 27.469 54.4487C27.5431 54.5143 27.5801 54.6011 27.5801 54.709C27.5801 54.819 27.5431 54.9079 27.469 54.9756C27.3971 55.0412 27.286 55.074 27.1358 55.074ZM29.6336 54.8328L31.4458 57.575V54.8074C31.4458 54.6275 31.4839 54.4932 31.5601 54.4043C31.6384 54.3133 31.7431 54.2678 31.8743 54.2678C32.0097 54.2678 32.1166 54.3133 32.1949 54.4043C32.2732 54.4932 32.3123 54.6275 32.3123 54.8074V58.4668C32.3123 58.8752 32.143 59.0793 31.8045 59.0793C31.7198 59.0793 31.6437 59.0667 31.576 59.0413C31.5083 59.018 31.4448 58.9799 31.3855 58.927C31.3263 58.8741 31.2713 58.8127 31.2205 58.7429C31.1697 58.671 31.1189 58.598 31.0682 58.5239L29.3003 55.8135V58.5398C29.3003 58.7175 29.2591 58.8519 29.1766 58.9429C29.094 59.0339 28.9882 59.0793 28.8592 59.0793C28.7259 59.0793 28.619 59.0339 28.5386 58.9429C28.4582 58.8498 28.418 58.7154 28.418 58.5398V54.9502C28.418 54.7979 28.4349 54.6783 28.4688 54.5916C28.509 54.4963 28.5756 54.4191 28.6687 54.3599C28.7618 54.2985 28.8623 54.2678 28.9703 54.2678C29.0549 54.2678 29.1268 54.2816 29.1861 54.3091C29.2474 54.3366 29.3003 54.3736 29.3448 54.4202C29.3913 54.4667 29.4379 54.527 29.4844 54.6011C29.5331 54.6751 29.5828 54.7524 29.6336 54.8328ZM36.1241 55.074H34.2674V56.2642H35.8194C35.9633 56.2642 36.0701 56.297 36.1399 56.3625C36.2119 56.426 36.2478 56.5117 36.2478 56.6196C36.2478 56.7275 36.2119 56.8132 36.1399 56.8767C36.068 56.9402 35.9611 56.9719 35.8194 56.9719H34.2674V58.5049C34.2674 58.6995 34.2229 58.8445 34.1341 58.9397C34.0473 59.0328 33.9352 59.0793 33.7976 59.0793C33.658 59.0793 33.5437 59.0317 33.4549 58.9365C33.3681 58.8413 33.3247 58.6974 33.3247 58.5049V54.9248C33.3247 54.7894 33.3448 54.6794 33.3851 54.5947C33.4253 54.508 33.4877 54.4456 33.5723 54.4075C33.6591 54.3673 33.7691 54.3472 33.9024 54.3472H36.1241C36.2743 54.3472 36.3854 54.381 36.4573 54.4487C36.5314 54.5143 36.5684 54.6011 36.5684 54.709C36.5684 54.819 36.5314 54.9079 36.4573 54.9756C36.3854 55.0412 36.2743 55.074 36.1241 55.074ZM38.5393 57.01H38.2093V58.5049C38.2093 58.7017 38.1659 58.8466 38.0791 58.9397C37.9924 59.0328 37.8792 59.0793 37.7395 59.0793C37.5893 59.0793 37.4729 59.0307 37.3904 58.9333C37.3079 58.836 37.2666 58.6932 37.2666 58.5049V54.9248C37.2666 54.7217 37.3121 54.5746 37.4031 54.4836C37.4941 54.3927 37.6412 54.3472 37.8443 54.3472H39.3772C39.5888 54.3472 39.7697 54.3567 39.92 54.3757C40.0702 54.3927 40.2056 54.4286 40.3262 54.4836C40.4722 54.545 40.6013 54.6328 40.7134 54.7471C40.8256 54.8613 40.9102 54.9946 40.9673 55.147C41.0266 55.2972 41.0562 55.4569 41.0562 55.6262C41.0562 55.9732 40.9578 56.2504 40.761 56.4578C40.5664 56.6651 40.2701 56.8122 39.8724 56.8989C40.0395 56.9878 40.1993 57.119 40.3516 57.2925C40.5039 57.466 40.6394 57.6511 40.7579 57.8479C40.8785 58.0426 40.9716 58.2192 41.0372 58.3779C41.1049 58.5345 41.1387 58.6424 41.1387 58.7017C41.1387 58.763 41.1186 58.8244 41.0784 58.8857C41.0403 58.945 40.9874 58.9915 40.9197 59.0254C40.852 59.0614 40.7737 59.0793 40.6849 59.0793C40.5791 59.0793 40.4902 59.054 40.4183 59.0032C40.3463 58.9545 40.2839 58.8921 40.231 58.8159C40.1802 58.7397 40.1104 58.6276 40.0215 58.4795L39.6438 57.8511C39.5084 57.6204 39.3868 57.4448 39.2789 57.3242C39.1731 57.2036 39.0651 57.1211 38.9551 57.0767C38.8451 57.0322 38.7065 57.01 38.5393 57.01ZM39.0789 55.0549H38.2093V56.334H39.0535C39.2799 56.334 39.4703 56.3149 39.6248 56.2769C39.7793 56.2367 39.8967 56.17 39.9771 56.0769C40.0596 55.9817 40.1009 55.8516 40.1009 55.6865C40.1009 55.5575 40.0681 55.4443 40.0025 55.3469C39.9369 55.2475 39.8459 55.1734 39.7295 55.1248C39.6195 55.0782 39.4026 55.0549 39.0789 55.0549ZM41.9893 58.5049V54.8391C41.9893 54.6487 42.0327 54.5059 42.1194 54.4106C42.2062 54.3154 42.3183 54.2678 42.4559 54.2678C42.5976 54.2678 42.7119 54.3154 42.7986 54.4106C42.8875 54.5037 42.9319 54.6466 42.9319 54.8391V58.5049C42.9319 58.6974 42.8875 58.8413 42.7986 58.9365C42.7119 59.0317 42.5976 59.0793 42.4559 59.0793C42.3204 59.0793 42.2083 59.0317 42.1194 58.9365C42.0327 58.8392 41.9893 58.6953 41.9893 58.5049Z" fill="white"/>
</svg>
