<svg width="219" height="276" viewBox="0 0 219 276" fill="none" xmlns="http://www.w3.org/2000/svg">
<path d="M102.881 115.93C108.689 123.454 110.18 132.934 110.541 136.909C110.62 137.855 109.788 138.581 108.924 138.297C105.329 137.13 96.8212 133.723 90.9973 126.183C85.1735 118.643 83.7293 109.18 83.3682 105.205C83.274 104.274 84.1217 103.548 84.9694 103.817C88.5799 104.984 97.0567 108.391 102.881 115.93Z" fill="white"/>
<path d="M120.87 115.93C115.062 123.454 113.571 132.934 113.21 136.909C113.131 137.855 113.963 138.581 114.827 138.297C118.421 137.13 126.93 133.723 132.754 126.183C138.577 118.643 140.022 109.18 140.383 105.205C140.477 104.274 139.629 103.548 138.781 103.817C135.171 104.984 126.694 108.391 120.87 115.93Z" fill="white"/>
<path d="M102.52 142.209C108.328 149.733 109.819 159.212 110.18 163.187C110.259 164.134 109.427 164.859 108.563 164.575C104.968 163.408 96.4602 160.001 90.6363 152.461C84.8124 144.922 83.3682 135.458 83.0072 131.483C82.913 130.552 83.7607 129.827 84.6084 130.095C88.2189 131.262 96.6957 134.669 102.52 142.209Z" fill="white"/>
<path d="M121.247 142.209C115.439 149.733 113.948 159.212 113.587 163.187C113.508 164.134 114.34 164.859 115.203 164.575C118.798 163.408 127.306 160.001 133.13 152.461C138.954 144.922 140.398 135.458 140.759 131.483C140.854 130.552 140.006 129.827 139.158 130.095C135.548 131.262 127.071 134.669 121.247 142.209Z" fill="white"/>
<path d="M102.881 89.7313C108.689 97.2551 110.18 106.735 110.541 110.71C110.62 111.656 109.788 112.382 108.924 112.098C105.329 110.93 96.8212 107.523 90.9973 99.9839C85.1735 92.4443 83.7293 82.9803 83.3682 79.0055C83.274 78.0748 84.1217 77.3493 84.9694 77.6174C88.5799 78.7846 97.0567 82.1917 102.881 89.7313Z" fill="white"/>
<path d="M120.87 89.7313C115.062 97.2551 113.571 106.735 113.21 110.71C113.131 111.656 113.963 112.382 114.827 112.098C118.421 110.93 126.93 107.523 132.754 99.9839C138.577 92.4443 140.022 82.9803 140.383 79.0055C140.477 78.0748 139.629 77.3493 138.781 77.6174C135.171 78.7846 126.694 82.1917 120.87 89.7313Z" fill="white"/>
<path d="M119.552 72.9011C119.552 82.5701 115.062 90.8984 112.959 94.2423C112.456 95.031 111.326 95.031 110.839 94.2423C108.736 90.8984 104.231 82.6174 104.231 72.9011C104.231 63.1848 108.736 54.9354 110.839 51.5915C111.342 50.8028 112.472 50.8028 112.959 51.5915C115.062 54.9354 119.552 63.2164 119.552 72.9011Z" fill="white"/>
<path d="M110 208C165.228 208 210 163.228 210 108C210 52.7715 165.228 8 110 8C54.7715 8 10 52.7715 10 108C10 163.228 54.7715 208 110 208Z" stroke="white" stroke-width="10" stroke-miterlimit="10"/>
<path d="M140.212 76.7381C154.775 63.377 165.71 50.9458 181.293 38.0342" stroke="white" stroke-width="10" stroke-miterlimit="10"/>
<path d="M34.1271 176.544C47.9649 162.888 62.6676 150.147 76.6753 136.662" stroke="white" stroke-width="10" stroke-miterlimit="10"/>
<path d="M57.5156 265.016V268.309C57.5156 268.746 57.4727 269.098 57.3867 269.363C57.3008 269.621 57.1406 269.855 56.9062 270.066C56.6797 270.277 56.3867 270.48 56.0273 270.676C54.9883 271.238 53.9883 271.648 53.0273 271.906C52.0664 272.164 51.0195 272.293 49.8867 272.293C48.5664 272.293 47.3633 272.09 46.2773 271.684C45.1914 271.277 44.2656 270.688 43.5 269.914C42.7344 269.141 42.1445 268.203 41.7305 267.102C41.3242 266 41.1211 264.77 41.1211 263.41C41.1211 262.074 41.3203 260.852 41.7188 259.742C42.1172 258.633 42.7031 257.691 43.4766 256.918C44.25 256.145 45.1914 255.555 46.3008 255.148C47.4102 254.734 48.668 254.527 50.0742 254.527C51.2305 254.527 52.2539 254.684 53.1445 254.996C54.0352 255.301 54.7578 255.688 55.3125 256.156C55.8672 256.625 56.2852 257.121 56.5664 257.645C56.8477 258.168 56.9883 258.633 56.9883 259.039C56.9883 259.477 56.8242 259.852 56.4961 260.164C56.1758 260.469 55.7891 260.621 55.3359 260.621C55.0859 260.621 54.8438 260.562 54.6094 260.445C54.3828 260.328 54.1914 260.164 54.0352 259.953C53.6055 259.281 53.2422 258.773 52.9453 258.43C52.6484 258.086 52.2461 257.797 51.7383 257.562C51.2383 257.328 50.5977 257.211 49.8164 257.211C49.0117 257.211 48.293 257.352 47.6602 257.633C47.0273 257.906 46.4844 258.309 46.0312 258.84C45.5859 259.363 45.2422 260.008 45 260.773C44.7656 261.539 44.6484 262.387 44.6484 263.316C44.6484 265.332 45.1094 266.883 46.0312 267.969C46.9609 269.055 48.2539 269.598 49.9102 269.598C50.7148 269.598 51.4688 269.492 52.1719 269.281C52.8828 269.07 53.6016 268.77 54.3281 268.379V265.59H51.6328C50.9844 265.59 50.4922 265.492 50.1562 265.297C49.8281 265.102 49.6641 264.77 49.6641 264.301C49.6641 263.918 49.8008 263.602 50.0742 263.352C50.3555 263.102 50.7344 262.977 51.2109 262.977H55.1602C55.6445 262.977 56.0547 263.02 56.3906 263.105C56.7266 263.191 56.9961 263.383 57.1992 263.68C57.4102 263.977 57.5156 264.422 57.5156 265.016ZM64.2422 256.637V269.141H71.2969C71.8594 269.141 72.2891 269.277 72.5859 269.551C72.8906 269.824 73.043 270.168 73.043 270.582C73.043 271.004 72.8945 271.348 72.5977 271.613C72.3008 271.871 71.8672 272 71.2969 272H62.8945C62.1367 272 61.5898 271.832 61.2539 271.496C60.9258 271.16 60.7617 270.617 60.7617 269.867V256.637C60.7617 255.934 60.918 255.406 61.2305 255.055C61.5508 254.703 61.9688 254.527 62.4844 254.527C63.0078 254.527 63.4297 254.703 63.75 255.055C64.0781 255.398 64.2422 255.926 64.2422 256.637ZM74.168 264.898V256.637C74.168 255.934 74.3242 255.406 74.6367 255.055C74.957 254.703 75.375 254.527 75.8906 254.527C76.4297 254.527 76.8555 254.703 77.168 255.055C77.4883 255.406 77.6484 255.934 77.6484 256.637V265.086C77.6484 266.047 77.7539 266.852 77.9648 267.5C78.1836 268.141 78.5664 268.641 79.1133 269C79.6602 269.352 80.4258 269.527 81.4102 269.527C82.7695 269.527 83.7305 269.168 84.293 268.449C84.8555 267.723 85.1367 266.625 85.1367 265.156V256.637C85.1367 255.926 85.293 255.398 85.6055 255.055C85.918 254.703 86.3359 254.527 86.8594 254.527C87.3828 254.527 87.8047 254.703 88.125 255.055C88.4531 255.398 88.6172 255.926 88.6172 256.637V264.898C88.6172 266.242 88.4844 267.363 88.2188 268.262C87.9609 269.16 87.4688 269.949 86.7422 270.629C86.1172 271.207 85.3906 271.629 84.5625 271.895C83.7344 272.16 82.7656 272.293 81.6562 272.293C80.3359 272.293 79.1992 272.152 78.2461 271.871C77.293 271.582 76.5156 271.141 75.9141 270.547C75.3125 269.945 74.8711 269.18 74.5898 268.25C74.3086 267.312 74.168 266.195 74.168 264.898ZM103.535 257.691H99.7383V270.172C99.7383 270.891 99.5781 271.426 99.2578 271.777C98.9375 272.121 98.5234 272.293 98.0156 272.293C97.5 272.293 97.0781 272.117 96.75 271.766C96.4297 271.414 96.2695 270.883 96.2695 270.172V257.691H92.4727C91.8789 257.691 91.4375 257.562 91.1484 257.305C90.8594 257.039 90.7148 256.691 90.7148 256.262C90.7148 255.816 90.8633 255.465 91.1602 255.207C91.4648 254.949 91.9023 254.82 92.4727 254.82H103.535C104.137 254.82 104.582 254.953 104.871 255.219C105.168 255.484 105.316 255.832 105.316 256.262C105.316 256.691 105.168 257.039 104.871 257.305C104.574 257.562 104.129 257.691 103.535 257.691ZM118.699 257.504H110.859V261.723H118.078C118.609 261.723 119.004 261.844 119.262 262.086C119.527 262.32 119.66 262.633 119.66 263.023C119.66 263.414 119.531 263.734 119.273 263.984C119.016 264.227 118.617 264.348 118.078 264.348H110.859V269.234H118.969C119.516 269.234 119.926 269.363 120.199 269.621C120.48 269.871 120.621 270.207 120.621 270.629C120.621 271.035 120.48 271.367 120.199 271.625C119.926 271.875 119.516 272 118.969 272H109.512C108.754 272 108.207 271.832 107.871 271.496C107.543 271.16 107.379 270.617 107.379 269.867V256.953C107.379 256.453 107.453 256.047 107.602 255.734C107.75 255.414 107.98 255.184 108.293 255.043C108.613 254.895 109.02 254.82 109.512 254.82H118.699C119.254 254.82 119.664 254.945 119.93 255.195C120.203 255.438 120.34 255.758 120.34 256.156C120.34 256.562 120.203 256.891 119.93 257.141C119.664 257.383 119.254 257.504 118.699 257.504ZM127.922 256.613L134.613 266.738V256.52C134.613 255.855 134.754 255.359 135.035 255.031C135.324 254.695 135.711 254.527 136.195 254.527C136.695 254.527 137.09 254.695 137.379 255.031C137.668 255.359 137.812 255.855 137.812 256.52V270.031C137.812 271.539 137.188 272.293 135.938 272.293C135.625 272.293 135.344 272.246 135.094 272.152C134.844 272.066 134.609 271.926 134.391 271.73C134.172 271.535 133.969 271.309 133.781 271.051C133.594 270.785 133.406 270.516 133.219 270.242L126.691 260.234V270.301C126.691 270.957 126.539 271.453 126.234 271.789C125.93 272.125 125.539 272.293 125.062 272.293C124.57 272.293 124.176 272.125 123.879 271.789C123.582 271.445 123.434 270.949 123.434 270.301V257.047C123.434 256.484 123.496 256.043 123.621 255.723C123.77 255.371 124.016 255.086 124.359 254.867C124.703 254.641 125.074 254.527 125.473 254.527C125.785 254.527 126.051 254.578 126.27 254.68C126.496 254.781 126.691 254.918 126.855 255.09C127.027 255.262 127.199 255.484 127.371 255.758C127.551 256.031 127.734 256.316 127.922 256.613ZM151.887 257.504H145.031V261.898H150.762C151.293 261.898 151.688 262.02 151.945 262.262C152.211 262.496 152.344 262.812 152.344 263.211C152.344 263.609 152.211 263.926 151.945 264.16C151.68 264.395 151.285 264.512 150.762 264.512H145.031V270.172C145.031 270.891 144.867 271.426 144.539 271.777C144.219 272.121 143.805 272.293 143.297 272.293C142.781 272.293 142.359 272.117 142.031 271.766C141.711 271.414 141.551 270.883 141.551 270.172V256.953C141.551 256.453 141.625 256.047 141.773 255.734C141.922 255.414 142.152 255.184 142.465 255.043C142.785 254.895 143.191 254.82 143.684 254.82H151.887C152.441 254.82 152.852 254.945 153.117 255.195C153.391 255.438 153.527 255.758 153.527 256.156C153.527 256.562 153.391 256.891 153.117 257.141C152.852 257.383 152.441 257.504 151.887 257.504ZM160.805 264.652H159.586V270.172C159.586 270.898 159.426 271.434 159.105 271.777C158.785 272.121 158.367 272.293 157.852 272.293C157.297 272.293 156.867 272.113 156.562 271.754C156.258 271.395 156.105 270.867 156.105 270.172V256.953C156.105 256.203 156.273 255.66 156.609 255.324C156.945 254.988 157.488 254.82 158.238 254.82H163.898C164.68 254.82 165.348 254.855 165.902 254.926C166.457 254.988 166.957 255.121 167.402 255.324C167.941 255.551 168.418 255.875 168.832 256.297C169.246 256.719 169.559 257.211 169.77 257.773C169.988 258.328 170.098 258.918 170.098 259.543C170.098 260.824 169.734 261.848 169.008 262.613C168.289 263.379 167.195 263.922 165.727 264.242C166.344 264.57 166.934 265.055 167.496 265.695C168.059 266.336 168.559 267.02 168.996 267.746C169.441 268.465 169.785 269.117 170.027 269.703C170.277 270.281 170.402 270.68 170.402 270.898C170.402 271.125 170.328 271.352 170.18 271.578C170.039 271.797 169.844 271.969 169.594 272.094C169.344 272.227 169.055 272.293 168.727 272.293C168.336 272.293 168.008 272.199 167.742 272.012C167.477 271.832 167.246 271.602 167.051 271.32C166.863 271.039 166.605 270.625 166.277 270.078L164.883 267.758C164.383 266.906 163.934 266.258 163.535 265.812C163.145 265.367 162.746 265.062 162.34 264.898C161.934 264.734 161.422 264.652 160.805 264.652ZM162.797 257.434H159.586V262.156H162.703C163.539 262.156 164.242 262.086 164.812 261.945C165.383 261.797 165.816 261.551 166.113 261.207C166.418 260.855 166.57 260.375 166.57 259.766C166.57 259.289 166.449 258.871 166.207 258.512C165.965 258.145 165.629 257.871 165.199 257.691C164.793 257.52 163.992 257.434 162.797 257.434ZM173.543 270.172V256.637C173.543 255.934 173.703 255.406 174.023 255.055C174.344 254.703 174.758 254.527 175.266 254.527C175.789 254.527 176.211 254.703 176.531 255.055C176.859 255.398 177.023 255.926 177.023 256.637V270.172C177.023 270.883 176.859 271.414 176.531 271.766C176.211 272.117 175.789 272.293 175.266 272.293C174.766 272.293 174.352 272.117 174.023 271.766C173.703 271.406 173.543 270.875 173.543 270.172Z" fill="white"/>
</svg>
