<svg width="133" height="133" viewBox="0 0 133 133" fill="none" xmlns="http://www.w3.org/2000/svg">
<g clip-path="url(#clip0_1523_6283)">
<path d="M13.5713 38.032C13.5713 17.9729 20.1749 9.88153 17.3497 9.50781C13.7966 9.0298 9.99213 17.9729 9.99213 38.032C9.99213 54.6581 15.2525 67.3732 16.4484 71.6318C16.6304 72.2837 17.0811 72.2837 16.9771 71.6231C16.0585 66.0435 13.5713 54.6581 13.5713 38.032Z" fill="url(#paint0_linear_1523_6283)"/>
<path d="M13.1033 70.0679C11.2487 66.209 11.1274 63.0368 9.40282 63.593C8.49287 63.8885 8.68352 66.5914 10.5468 70.4416C12.0893 73.6399 15.2178 75.439 16.3704 75.7953C16.5698 75.8562 16.7257 75.7432 16.6824 75.578C16.4138 74.6394 14.6459 73.2662 13.1033 70.0679Z" fill="url(#paint1_linear_1523_6283)"/>
<path d="M11.9334 5.2929C11.9334 1.31237 11.3701 -0.00866859 10.6681 -0.00866859C9.96613 -0.00866859 9.40283 1.31237 9.40283 5.2929C9.40283 8.58683 10.2695 11.368 10.5728 12.2284C10.6161 12.3588 10.7201 12.3588 10.7721 12.2284C11.0667 11.3767 11.942 8.59552 11.942 5.2929H11.9334Z" fill="url(#paint2_linear_1523_6283)"/>
<path d="M10.0008 86.3893C9.7495 85.9722 8.77022 84.2339 8.52757 84.4686C8.14626 84.851 8.42357 86.8065 9.12554 88.1275C10.2261 90.196 12.15 91.0738 12.5313 91.2129C15.0099 92.1168 21.6308 93.377 25.3313 89.2052C30.1584 83.7646 26.5012 72.5444 24.3087 67.9989C23.5634 66.4606 22.8701 65.4351 21.9948 63.0537C21.1542 60.7679 19.655 56.5701 20.2443 51.3381C20.4436 49.5651 21.4662 47.5575 21.0935 47.3402C20.8942 47.2272 20.4696 47.6965 20.3309 47.8617C19.3256 48.9828 17.5577 52.7287 18.693 58.9689C19.499 63.4187 20.8942 64.2618 22.9221 71.9534C23.1301 72.7443 23.2948 73.4222 23.4594 74.2218C24.1874 77.7504 24.8547 80.9661 23.7194 84.2079C23.3901 85.1552 22.8961 86.4849 21.6742 87.4931C19.9496 88.9011 17.4537 89.3617 16.3878 89.3095C13.5973 89.1792 11.0408 88.1102 10.0095 86.4154L10.0008 86.3893Z" fill="url(#paint3_linear_1523_6283)"/>
<path d="M95.0595 119.251C115.061 119.198 123.112 112.55 123.493 115.383C123.979 118.946 115.07 122.788 95.0681 122.84C78.4897 122.884 65.7937 117.643 61.5473 116.461C60.8973 116.278 60.8973 115.826 61.556 115.931C67.1197 116.843 78.481 119.303 95.0595 119.259V119.251Z" fill="url(#paint4_linear_1523_6283)"/>
<path d="M63.1159 119.807C66.9637 121.658 70.1355 121.771 69.5809 123.501C69.2862 124.413 66.5997 124.231 62.7519 122.371C59.5628 120.833 57.7602 117.695 57.3962 116.539C57.3356 116.339 57.4482 116.183 57.6129 116.226C58.5488 116.496 59.9267 118.26 63.1159 119.798V119.807Z" fill="url(#paint5_linear_1523_6283)"/>
<path d="M127.714 120.806C131.683 120.798 133 121.363 133 122.067C133 122.771 131.683 123.344 127.722 123.353C124.438 123.362 121.656 122.493 120.807 122.197C120.677 122.154 120.677 122.049 120.807 121.997C121.656 121.693 124.429 120.815 127.714 120.806Z" fill="url(#paint6_linear_1523_6283)"/>
<path d="M46.8581 122.971C47.2741 123.223 49.016 124.205 48.782 124.439C48.4007 124.822 46.4508 124.552 45.1335 123.857C43.071 122.762 42.187 120.833 42.0484 120.45C41.1471 117.964 39.8732 111.324 44.0156 107.605C49.432 102.746 60.6287 106.388 65.1698 108.578C66.7037 109.317 67.7263 110.012 70.1008 110.89C72.38 111.733 76.5745 113.219 81.7829 112.619C83.5508 112.411 85.5526 111.385 85.7693 111.759C85.882 111.959 85.414 112.385 85.258 112.533C84.1401 113.549 80.4136 115.322 74.1826 114.201C69.7455 113.402 68.9049 112.011 61.2267 109.995C60.4294 109.786 59.7621 109.621 58.9648 109.456C55.4463 108.734 52.2311 108.074 49.0073 109.221C48.0714 109.56 46.7368 110.047 45.7402 111.281C44.3449 113.011 43.8943 115.514 43.9463 116.583C44.0849 119.381 45.1595 121.936 46.8494 122.971H46.8581Z" fill="url(#paint7_linear_1523_6283)"/>
<path d="M51.6678 130.958C45.7402 135.425 37.4553 131.192 37.0913 130.992C33.0789 128.863 31.493 126.821 30.7303 125.3C30.2537 124.344 29.5864 122.788 29.2137 120.493C28.6244 121.328 27.9658 122.136 27.2292 122.884C19.3863 130.931 5.89303 130.08 5.32107 130.036L3.84781 129.932L3.70916 128.463C3.65716 127.89 2.52189 114.384 10.3648 106.336C11.1707 105.51 12.0374 104.78 12.9386 104.128C10.4081 103.78 8.70955 103.068 7.6956 102.555C6.17902 101.79 4.1338 100.208 2.00192 96.1931C1.81126 95.8281 -2.44384 87.5368 2.00192 81.5747C2.20124 81.314 5.63305 76.838 10.2521 77.4551C13.5626 77.8983 15.5905 80.7143 16.0151 81.5052C16.1278 81.7137 16.4398 82.3047 16.2491 82.5046C16.1105 82.6437 15.6772 82.6611 15.4085 82.3743C13.9353 80.7925 12.332 79.6626 10.8848 79.1846C8.96953 78.5589 6.82032 80.4014 6.37834 80.7751C3.90848 82.887 3.77849 86.1375 3.72649 87.4151C3.70916 87.8236 3.58783 92.6298 6.90698 96.3148C11.1794 101.06 18.8143 100.408 25.3573 99.0612C29.1184 98.2877 29.7251 98.4876 36.684 96.2366C36.658 96.28 36.6407 96.3235 36.6233 96.3669L36.944 96.2105C34.7168 103.189 34.9248 103.807 34.1621 107.578C32.8275 114.14 32.2036 121.797 36.944 126.073C40.6271 129.393 45.4195 129.254 45.8268 129.237C47.1094 129.185 50.3419 129.046 52.4478 126.56C52.8204 126.125 54.6577 123.953 54.025 122.04C53.5484 120.589 52.4131 118.99 50.8359 117.512C50.5499 117.243 50.5586 116.808 50.6972 116.669C50.8879 116.478 51.4772 116.791 51.6938 116.895C52.4911 117.313 55.299 119.346 55.7496 122.666C56.3823 127.29 51.9278 130.749 51.6678 130.949V130.958ZM7.11497 126.603C10.6508 126.569 19.447 125.908 24.7593 120.459C27.1339 118.025 28.5378 114.914 29.3611 111.898C29.4217 111.507 29.4911 111.107 29.5691 110.699C29.855 109.221 30.0717 108.065 30.2797 107.048C30.479 105.258 30.5223 103.702 30.505 102.633C29.4131 102.642 27.8272 102.711 25.9986 102.963C24.9673 103.172 23.7887 103.407 22.2895 103.702C22.2635 103.702 22.2375 103.702 22.2115 103.72C18.9443 104.58 15.4778 106.101 12.8607 108.787C7.55694 114.218 7.0803 123.066 7.11497 126.621V126.603Z" fill="url(#paint8_linear_1523_6283)"/>
<path d="M18.1383 117.417C14.6285 121.11 12.9733 121.866 12.3753 121.293C11.7774 120.719 12.4533 119.024 15.9631 115.331C18.875 112.272 22.0728 110.403 23.0867 109.855C23.2427 109.768 23.3294 109.855 23.2601 110.021C22.7574 111.063 21.0588 114.357 18.147 117.417H18.1383Z" fill="url(#paint9_linear_1523_6283)"/>
<path d="M24.7767 115.878C23.2861 119.572 22.2721 120.58 21.6222 120.32C20.9722 120.059 20.9375 118.616 22.4281 114.922C23.6587 111.863 25.5046 109.612 26.1026 108.926C26.1979 108.821 26.2932 108.856 26.2846 109.004C26.2412 109.908 26.0073 112.819 24.7767 115.878Z" fill="url(#paint10_linear_1523_6283)"/>
<path d="M18.147 110.864C14.5766 112.611 13.1466 112.68 12.8347 112.054C12.5227 111.429 13.4586 110.334 17.0291 108.578C19.9843 107.127 22.8614 106.692 23.7627 106.579C23.9014 106.562 23.9447 106.657 23.8494 106.753C23.2168 107.396 21.1022 109.404 18.147 110.855V110.864Z" fill="url(#paint11_linear_1523_6283)"/>
</g>
<defs>
<linearGradient id="paint0_linear_1523_6283" x1="15.053" y1="79.4194" x2="-0.891642" y2="76.4546" gradientUnits="userSpaceOnUse">
<stop offset="0.0288462" stop-color="#706131"/>
<stop offset="0.113969" stop-color="#9A874C"/>
<stop offset="0.273346" stop-color="#D3BA6C"/>
<stop offset="0.385891" stop-color="#B7A15C"/>
<stop offset="0.476653" stop-color="#D3BA6C"/>
<stop offset="0.623322" stop-color="#B7A15C"/>
<stop offset="0.727551" stop-color="#A99454"/>
<stop offset="0.862008" stop-color="#9A874C"/>
<stop offset="0.966346" stop-color="#706131"/>
</linearGradient>
<linearGradient id="paint1_linear_1523_6283" x1="13.7811" y1="77.2436" x2="5.11254" y2="69.2739" gradientUnits="userSpaceOnUse">
<stop offset="0.0288462" stop-color="#706131"/>
<stop offset="0.113969" stop-color="#9A874C"/>
<stop offset="0.273346" stop-color="#D3BA6C"/>
<stop offset="0.385891" stop-color="#B7A15C"/>
<stop offset="0.476653" stop-color="#D3BA6C"/>
<stop offset="0.623322" stop-color="#B7A15C"/>
<stop offset="0.727551" stop-color="#A99454"/>
<stop offset="0.862008" stop-color="#9A874C"/>
<stop offset="0.966346" stop-color="#706131"/>
</linearGradient>
<linearGradient id="paint2_linear_1523_6283" x1="10.9971" y1="13.7638" x2="6.2229" y2="12.3439" gradientUnits="userSpaceOnUse">
<stop offset="0.0288462" stop-color="#706131"/>
<stop offset="0.113969" stop-color="#9A874C"/>
<stop offset="0.273346" stop-color="#D3BA6C"/>
<stop offset="0.385891" stop-color="#B7A15C"/>
<stop offset="0.476653" stop-color="#D3BA6C"/>
<stop offset="0.623322" stop-color="#B7A15C"/>
<stop offset="0.727551" stop-color="#A99454"/>
<stop offset="0.862008" stop-color="#9A874C"/>
<stop offset="0.966346" stop-color="#706131"/>
</linearGradient>
<linearGradient id="paint3_linear_1523_6283" x1="20.5077" y1="97.3447" x2="-7.99664" y2="79.5535" gradientUnits="userSpaceOnUse">
<stop offset="0.0288462" stop-color="#706131"/>
<stop offset="0.113969" stop-color="#9A874C"/>
<stop offset="0.273346" stop-color="#D3BA6C"/>
<stop offset="0.385891" stop-color="#B7A15C"/>
<stop offset="0.476653" stop-color="#D3BA6C"/>
<stop offset="0.623322" stop-color="#B7A15C"/>
<stop offset="0.727551" stop-color="#A99454"/>
<stop offset="0.862008" stop-color="#9A874C"/>
<stop offset="0.966346" stop-color="#706131"/>
</linearGradient>
<linearGradient id="paint4_linear_1523_6283" x1="100.272" y1="123.791" x2="99.2351" y2="112.327" gradientUnits="userSpaceOnUse">
<stop offset="0.0288462" stop-color="#706131"/>
<stop offset="0.113969" stop-color="#9A874C"/>
<stop offset="0.273346" stop-color="#D3BA6C"/>
<stop offset="0.385891" stop-color="#B7A15C"/>
<stop offset="0.476653" stop-color="#D3BA6C"/>
<stop offset="0.623322" stop-color="#B7A15C"/>
<stop offset="0.727551" stop-color="#A99454"/>
<stop offset="0.862008" stop-color="#9A874C"/>
<stop offset="0.966346" stop-color="#706131"/>
</linearGradient>
<linearGradient id="paint5_linear_1523_6283" x1="65.0801" y1="124.946" x2="60.9921" y2="115.678" gradientUnits="userSpaceOnUse">
<stop offset="0.0288462" stop-color="#706131"/>
<stop offset="0.113969" stop-color="#9A874C"/>
<stop offset="0.273346" stop-color="#D3BA6C"/>
<stop offset="0.385891" stop-color="#B7A15C"/>
<stop offset="0.476653" stop-color="#D3BA6C"/>
<stop offset="0.623322" stop-color="#B7A15C"/>
<stop offset="0.727551" stop-color="#A99454"/>
<stop offset="0.862008" stop-color="#9A874C"/>
<stop offset="0.966346" stop-color="#706131"/>
</linearGradient>
<linearGradient id="paint6_linear_1523_6283" x1="128.426" y1="123.65" x2="127.919" y2="120.115" gradientUnits="userSpaceOnUse">
<stop offset="0.0288462" stop-color="#706131"/>
<stop offset="0.113969" stop-color="#9A874C"/>
<stop offset="0.273346" stop-color="#D3BA6C"/>
<stop offset="0.385891" stop-color="#B7A15C"/>
<stop offset="0.476653" stop-color="#D3BA6C"/>
<stop offset="0.623322" stop-color="#B7A15C"/>
<stop offset="0.727551" stop-color="#A99454"/>
<stop offset="0.862008" stop-color="#9A874C"/>
<stop offset="0.966346" stop-color="#706131"/>
</linearGradient>
<linearGradient id="paint7_linear_1523_6283" x1="69.169" y1="126.877" x2="61.5796" y2="101.658" gradientUnits="userSpaceOnUse">
<stop offset="0.0288462" stop-color="#706131"/>
<stop offset="0.113969" stop-color="#9A874C"/>
<stop offset="0.273346" stop-color="#D3BA6C"/>
<stop offset="0.385891" stop-color="#B7A15C"/>
<stop offset="0.476653" stop-color="#D3BA6C"/>
<stop offset="0.623322" stop-color="#B7A15C"/>
<stop offset="0.727551" stop-color="#A99454"/>
<stop offset="0.862008" stop-color="#9A874C"/>
<stop offset="0.966346" stop-color="#706131"/>
</linearGradient>
<linearGradient id="paint8_linear_1523_6283" x1="35.0356" y1="139.478" x2="-1.76749" y2="86.0888" gradientUnits="userSpaceOnUse">
<stop offset="0.0288462" stop-color="#706131"/>
<stop offset="0.113969" stop-color="#9A874C"/>
<stop offset="0.273346" stop-color="#D3BA6C"/>
<stop offset="0.385891" stop-color="#B7A15C"/>
<stop offset="0.476653" stop-color="#D3BA6C"/>
<stop offset="0.623322" stop-color="#B7A15C"/>
<stop offset="0.727551" stop-color="#A99454"/>
<stop offset="0.862008" stop-color="#9A874C"/>
<stop offset="0.966346" stop-color="#706131"/>
</linearGradient>
<linearGradient id="paint9_linear_1523_6283" x1="19.1526" y1="122.822" x2="11.3117" y2="112.02" gradientUnits="userSpaceOnUse">
<stop offset="0.0288462" stop-color="#706131"/>
<stop offset="0.113969" stop-color="#9A874C"/>
<stop offset="0.273346" stop-color="#D3BA6C"/>
<stop offset="0.385891" stop-color="#B7A15C"/>
<stop offset="0.476653" stop-color="#D3BA6C"/>
<stop offset="0.623322" stop-color="#B7A15C"/>
<stop offset="0.727551" stop-color="#A99454"/>
<stop offset="0.862008" stop-color="#9A874C"/>
<stop offset="0.966346" stop-color="#706131"/>
</linearGradient>
<linearGradient id="paint10_linear_1523_6283" x1="24.3912" y1="121.698" x2="17.0007" y2="116.97" gradientUnits="userSpaceOnUse">
<stop offset="0.0288462" stop-color="#706131"/>
<stop offset="0.113969" stop-color="#9A874C"/>
<stop offset="0.273346" stop-color="#D3BA6C"/>
<stop offset="0.385891" stop-color="#B7A15C"/>
<stop offset="0.476653" stop-color="#D3BA6C"/>
<stop offset="0.623322" stop-color="#B7A15C"/>
<stop offset="0.727551" stop-color="#A99454"/>
<stop offset="0.862008" stop-color="#9A874C"/>
<stop offset="0.966346" stop-color="#706131"/>
</linearGradient>
<linearGradient id="paint11_linear_1523_6283" x1="19.7617" y1="113.094" x2="17.1082" y2="105.79" gradientUnits="userSpaceOnUse">
<stop offset="0.0288462" stop-color="#706131"/>
<stop offset="0.113969" stop-color="#9A874C"/>
<stop offset="0.273346" stop-color="#D3BA6C"/>
<stop offset="0.385891" stop-color="#B7A15C"/>
<stop offset="0.476653" stop-color="#D3BA6C"/>
<stop offset="0.623322" stop-color="#B7A15C"/>
<stop offset="0.727551" stop-color="#A99454"/>
<stop offset="0.862008" stop-color="#9A874C"/>
<stop offset="0.966346" stop-color="#706131"/>
</linearGradient>
<clipPath id="clip0_1523_6283">
<rect width="133" height="133" fill="white" transform="matrix(1 0 0 -1 0 133)"/>
</clipPath>
</defs>
</svg>
