<svg width="133" height="133" viewBox="0 0 133 133" fill="none" xmlns="http://www.w3.org/2000/svg">
<g clip-path="url(#clip0_1243_3426)">
<path d="M119.429 94.968C119.429 115.027 112.825 123.118 115.65 123.492C119.203 123.97 123.008 115.027 123.008 94.968C123.008 78.3419 117.748 65.6268 116.552 61.3682C116.37 60.7163 115.919 60.7163 116.023 61.3769C116.942 66.9565 119.429 78.3419 119.429 94.968Z" fill="url(#paint0_linear_1243_3426)"/>
<path d="M119.897 62.9321C121.751 66.791 121.873 69.9632 123.597 69.407C124.507 69.1115 124.317 66.4086 122.453 62.5584C120.911 59.3601 117.782 57.561 116.63 57.2047C116.43 57.1438 116.274 57.2568 116.318 57.422C116.586 58.3606 118.354 59.7338 119.897 62.9321Z" fill="url(#paint1_linear_1243_3426)"/>
<path d="M121.067 127.707C121.067 131.688 121.63 133.009 122.332 133.009C123.034 133.009 123.597 131.688 123.597 127.707C123.597 124.413 122.731 121.632 122.427 120.772C122.384 120.641 122.28 120.641 122.228 120.772C121.933 121.623 121.058 124.404 121.058 127.707H121.067Z" fill="url(#paint2_linear_1243_3426)"/>
<path d="M122.999 46.6107C123.251 47.0278 124.23 48.7661 124.473 48.5314C124.854 48.149 124.577 46.1935 123.875 44.8725C122.774 42.804 120.85 41.9262 120.469 41.7871C117.99 40.8832 111.369 39.623 107.669 43.7948C102.842 49.2354 106.499 60.4556 108.691 65.0011C109.437 66.5394 110.13 67.5649 111.005 69.9463C111.846 72.2321 113.345 76.4299 112.756 81.6619C112.557 83.4349 111.534 85.4425 111.907 85.6598C112.106 85.7728 112.531 85.3035 112.669 85.1383C113.674 84.0172 115.442 80.2713 114.307 74.0311C113.501 69.5813 112.106 68.7382 110.078 61.0466C109.87 60.2557 109.705 59.5778 109.541 58.7782C108.813 55.2496 108.145 52.0339 109.281 48.7921C109.61 47.8448 110.104 46.5151 111.326 45.5069C113.051 44.0989 115.546 43.6383 116.612 43.6905C119.403 43.8208 121.959 44.8898 122.991 46.5846L122.999 46.6107Z" fill="url(#paint3_linear_1243_3426)"/>
<path d="M37.9407 13.7494C17.9391 13.8015 9.88821 20.4502 9.50689 17.6169C9.02159 14.0536 17.9304 10.2121 37.932 10.1599C54.5104 10.1165 67.2064 15.3572 71.4528 16.5392C72.1028 16.7217 72.1028 17.1737 71.4441 17.0694C65.8805 16.1568 54.5191 13.6972 37.9407 13.7407V13.7494Z" fill="url(#paint4_linear_1243_3426)"/>
<path d="M69.8842 13.193C66.0364 11.3418 62.8645 11.2289 63.4192 9.49933C63.7138 8.58676 66.4003 8.76927 70.2481 10.6292C73.4373 12.1675 75.2399 15.305 75.6038 16.4609C75.6645 16.6608 75.5518 16.8172 75.3872 16.7738C74.4512 16.5044 73.0733 14.7401 69.8842 13.2017V13.193Z" fill="url(#paint5_linear_1243_3426)"/>
<path d="M5.28645 12.1935C1.31733 12.2022 6.48499e-05 11.6373 6.48499e-05 10.9333C6.48499e-05 10.2293 1.31732 9.65573 5.27777 9.64704C8.56226 9.63835 11.3441 10.5075 12.1934 10.803C12.3234 10.8464 12.3234 10.9507 12.1934 11.0028C11.3441 11.307 8.57093 12.1848 5.28645 12.1935Z" fill="url(#paint6_linear_1243_3426)"/>
<path d="M86.142 10.0295C85.726 9.77743 83.9841 8.79534 84.2181 8.56068C84.5994 8.17827 86.5493 8.44769 87.8665 9.14298C89.9291 10.2381 90.813 12.1675 90.9517 12.5499C91.853 15.0356 93.1269 21.6756 88.9845 25.3953C83.5681 30.2537 72.3714 26.6121 67.8303 24.4219C66.2964 23.6832 65.2738 22.9879 62.8992 22.1101C60.62 21.2671 56.4256 19.7809 51.2172 20.3806C49.4493 20.5892 47.4474 21.6147 47.2308 21.241C47.1181 21.0411 47.5861 20.6152 47.7421 20.4675C48.86 19.4506 52.5865 17.6776 58.8175 18.7988C63.2545 19.5984 64.0952 20.989 71.7734 23.0053C72.5707 23.2139 73.238 23.379 74.0353 23.5441C77.5538 24.2655 80.7689 24.926 83.9927 23.7788C84.9287 23.4399 86.2633 22.9531 87.2599 21.719C88.6551 19.9895 89.1058 17.4864 89.0538 16.4174C88.9151 13.6189 87.8405 11.0637 86.1506 10.0295H86.142Z" fill="url(#paint7_linear_1243_3426)"/>
<path d="M81.3322 2.04245C87.2599 -2.42477 95.5448 1.80779 95.9087 2.00769C99.9212 4.13701 101.507 6.17942 102.27 7.70036C102.746 8.65639 103.414 10.2121 103.786 12.5065C104.376 11.6722 105.034 10.8639 105.771 10.1165C113.614 2.06853 127.107 2.92026 127.679 2.96371L129.152 3.06801L129.291 4.5368C129.343 5.11041 130.478 18.6164 122.635 26.6644C121.829 27.49 120.963 28.2201 120.061 28.8719C122.592 29.2195 124.291 29.9322 125.304 30.445C126.821 31.2098 128.866 32.7916 130.998 36.8069C131.189 37.1719 135.444 45.4632 130.998 51.4253C130.799 51.6861 127.367 56.162 122.748 55.5449C119.437 55.1017 117.41 52.2857 116.985 51.4948C116.872 51.2863 116.56 50.6953 116.751 50.4954C116.89 50.3563 117.323 50.3389 117.592 50.6257C119.065 52.2075 120.668 53.3374 122.115 53.8154C124.031 54.4411 126.18 52.5986 126.622 52.2249C129.092 50.113 129.222 46.8625 129.274 45.5849C129.291 45.1764 129.412 40.3702 126.093 36.6852C121.821 31.9399 114.186 32.5917 107.643 33.9388C103.882 34.7123 103.275 34.5124 96.3161 36.7634C96.3421 36.72 96.3594 36.6765 96.3767 36.6331L96.0561 36.7895C98.2833 29.8105 98.0753 29.1935 98.8379 25.4215C100.173 18.8597 100.796 11.2029 96.0561 6.92686C92.3729 3.60685 87.5805 3.74591 87.1732 3.76329C85.8906 3.81544 82.6581 3.9545 80.5523 6.44015C80.1796 6.87471 78.3424 9.04749 78.975 10.9595C79.4517 12.4109 80.5869 14.0101 82.1642 15.4876C82.4502 15.757 82.4415 16.1916 82.3028 16.3306C82.1122 16.5218 81.5229 16.209 81.3062 16.1047C80.5089 15.6875 77.7011 13.6538 77.2504 10.3338C76.6178 5.7101 81.0722 2.25104 81.3322 2.05115V2.04245ZM125.885 6.3967C122.349 6.43146 113.553 7.09199 108.241 12.5413C105.866 14.9748 104.462 18.0862 103.639 21.1021C103.578 21.4931 103.509 21.8929 103.431 22.3014C103.145 23.7789 102.928 24.9348 102.72 25.9517C102.521 27.7421 102.478 29.2978 102.495 30.3668C103.587 30.3581 105.173 30.2885 107.001 30.0365C108.033 29.8279 109.211 29.5933 110.711 29.2978C110.737 29.2978 110.763 29.2978 110.789 29.2804C114.056 28.42 117.522 26.899 120.139 24.2135C125.443 18.7815 125.92 9.93398 125.885 6.37932V6.3967Z" fill="url(#paint8_linear_1243_3426)"/>
<path d="M114.862 15.5834C118.372 11.8896 120.027 11.1335 120.625 11.7071C121.223 12.2807 120.547 13.9755 117.037 17.6692C114.125 20.7285 110.927 22.5971 109.913 23.1446C109.757 23.2315 109.671 23.1446 109.74 22.9795C110.243 21.9366 111.941 18.6426 114.853 15.5834H114.862Z" fill="url(#paint9_linear_1243_3426)"/>
<path d="M108.223 17.1215C109.714 13.4278 110.728 12.4196 111.378 12.6804C112.028 12.9411 112.063 14.3838 110.572 18.0775C109.341 21.1368 107.496 23.3878 106.898 24.0744C106.802 24.1787 106.707 24.1439 106.716 23.9962C106.759 23.0923 106.993 20.1808 108.223 17.1215Z" fill="url(#paint10_linear_1243_3426)"/>
<path d="M114.853 22.1363C118.423 20.3894 119.853 20.3199 120.165 20.9456C120.477 21.5714 119.541 22.6665 115.971 24.4221C113.016 25.8735 110.139 26.308 109.237 26.421C109.099 26.4384 109.055 26.3428 109.151 26.2472C109.783 25.604 111.898 23.5964 114.853 22.145V22.1363Z" fill="url(#paint11_linear_1243_3426)"/>
</g>
<defs>
<linearGradient id="paint0_linear_1243_3426" x1="117.947" y1="53.5806" x2="133.892" y2="56.5454" gradientUnits="userSpaceOnUse">
<stop offset="0.0288462" stop-color="#706131"/>
<stop offset="0.113969" stop-color="#9A874C"/>
<stop offset="0.273346" stop-color="#D3BA6C"/>
<stop offset="0.385891" stop-color="#B7A15C"/>
<stop offset="0.476653" stop-color="#D3BA6C"/>
<stop offset="0.623322" stop-color="#B7A15C"/>
<stop offset="0.727551" stop-color="#A99454"/>
<stop offset="0.862008" stop-color="#9A874C"/>
<stop offset="0.966346" stop-color="#706131"/>
</linearGradient>
<linearGradient id="paint1_linear_1243_3426" x1="119.219" y1="55.7564" x2="127.888" y2="63.7261" gradientUnits="userSpaceOnUse">
<stop offset="0.0288462" stop-color="#706131"/>
<stop offset="0.113969" stop-color="#9A874C"/>
<stop offset="0.273346" stop-color="#D3BA6C"/>
<stop offset="0.385891" stop-color="#B7A15C"/>
<stop offset="0.476653" stop-color="#D3BA6C"/>
<stop offset="0.623322" stop-color="#B7A15C"/>
<stop offset="0.727551" stop-color="#A99454"/>
<stop offset="0.862008" stop-color="#9A874C"/>
<stop offset="0.966346" stop-color="#706131"/>
</linearGradient>
<linearGradient id="paint2_linear_1243_3426" x1="122.003" y1="119.236" x2="126.777" y2="120.656" gradientUnits="userSpaceOnUse">
<stop offset="0.0288462" stop-color="#706131"/>
<stop offset="0.113969" stop-color="#9A874C"/>
<stop offset="0.273346" stop-color="#D3BA6C"/>
<stop offset="0.385891" stop-color="#B7A15C"/>
<stop offset="0.476653" stop-color="#D3BA6C"/>
<stop offset="0.623322" stop-color="#B7A15C"/>
<stop offset="0.727551" stop-color="#A99454"/>
<stop offset="0.862008" stop-color="#9A874C"/>
<stop offset="0.966346" stop-color="#706131"/>
</linearGradient>
<linearGradient id="paint3_linear_1243_3426" x1="112.492" y1="35.6553" x2="140.997" y2="53.4465" gradientUnits="userSpaceOnUse">
<stop offset="0.0288462" stop-color="#706131"/>
<stop offset="0.113969" stop-color="#9A874C"/>
<stop offset="0.273346" stop-color="#D3BA6C"/>
<stop offset="0.385891" stop-color="#B7A15C"/>
<stop offset="0.476653" stop-color="#D3BA6C"/>
<stop offset="0.623322" stop-color="#B7A15C"/>
<stop offset="0.727551" stop-color="#A99454"/>
<stop offset="0.862008" stop-color="#9A874C"/>
<stop offset="0.966346" stop-color="#706131"/>
</linearGradient>
<linearGradient id="paint4_linear_1243_3426" x1="32.7282" y1="9.20862" x2="33.765" y2="20.6732" gradientUnits="userSpaceOnUse">
<stop offset="0.0288462" stop-color="#706131"/>
<stop offset="0.113969" stop-color="#9A874C"/>
<stop offset="0.273346" stop-color="#D3BA6C"/>
<stop offset="0.385891" stop-color="#B7A15C"/>
<stop offset="0.476653" stop-color="#D3BA6C"/>
<stop offset="0.623322" stop-color="#B7A15C"/>
<stop offset="0.727551" stop-color="#A99454"/>
<stop offset="0.862008" stop-color="#9A874C"/>
<stop offset="0.966346" stop-color="#706131"/>
</linearGradient>
<linearGradient id="paint5_linear_1243_3426" x1="67.92" y1="8.05438" x2="72.0079" y2="17.3223" gradientUnits="userSpaceOnUse">
<stop offset="0.0288462" stop-color="#706131"/>
<stop offset="0.113969" stop-color="#9A874C"/>
<stop offset="0.273346" stop-color="#D3BA6C"/>
<stop offset="0.385891" stop-color="#B7A15C"/>
<stop offset="0.476653" stop-color="#D3BA6C"/>
<stop offset="0.623322" stop-color="#B7A15C"/>
<stop offset="0.727551" stop-color="#A99454"/>
<stop offset="0.862008" stop-color="#9A874C"/>
<stop offset="0.966346" stop-color="#706131"/>
</linearGradient>
<linearGradient id="paint6_linear_1243_3426" x1="4.57388" y1="9.35015" x2="5.0808" y2="12.8848" gradientUnits="userSpaceOnUse">
<stop offset="0.0288462" stop-color="#706131"/>
<stop offset="0.113969" stop-color="#9A874C"/>
<stop offset="0.273346" stop-color="#D3BA6C"/>
<stop offset="0.385891" stop-color="#B7A15C"/>
<stop offset="0.476653" stop-color="#D3BA6C"/>
<stop offset="0.623322" stop-color="#B7A15C"/>
<stop offset="0.727551" stop-color="#A99454"/>
<stop offset="0.862008" stop-color="#9A874C"/>
<stop offset="0.966346" stop-color="#706131"/>
</linearGradient>
<linearGradient id="paint7_linear_1243_3426" x1="63.8311" y1="6.12325" x2="71.4205" y2="31.3418" gradientUnits="userSpaceOnUse">
<stop offset="0.0288462" stop-color="#706131"/>
<stop offset="0.113969" stop-color="#9A874C"/>
<stop offset="0.273346" stop-color="#D3BA6C"/>
<stop offset="0.385891" stop-color="#B7A15C"/>
<stop offset="0.476653" stop-color="#D3BA6C"/>
<stop offset="0.623322" stop-color="#B7A15C"/>
<stop offset="0.727551" stop-color="#A99454"/>
<stop offset="0.862008" stop-color="#9A874C"/>
<stop offset="0.966346" stop-color="#706131"/>
</linearGradient>
<linearGradient id="paint8_linear_1243_3426" x1="97.9645" y1="-6.47805" x2="134.768" y2="46.9112" gradientUnits="userSpaceOnUse">
<stop offset="0.0288462" stop-color="#706131"/>
<stop offset="0.113969" stop-color="#9A874C"/>
<stop offset="0.273346" stop-color="#D3BA6C"/>
<stop offset="0.385891" stop-color="#B7A15C"/>
<stop offset="0.476653" stop-color="#D3BA6C"/>
<stop offset="0.623322" stop-color="#B7A15C"/>
<stop offset="0.727551" stop-color="#A99454"/>
<stop offset="0.862008" stop-color="#9A874C"/>
<stop offset="0.966346" stop-color="#706131"/>
</linearGradient>
<linearGradient id="paint9_linear_1243_3426" x1="113.847" y1="10.178" x2="121.688" y2="20.9799" gradientUnits="userSpaceOnUse">
<stop offset="0.0288462" stop-color="#706131"/>
<stop offset="0.113969" stop-color="#9A874C"/>
<stop offset="0.273346" stop-color="#D3BA6C"/>
<stop offset="0.385891" stop-color="#B7A15C"/>
<stop offset="0.476653" stop-color="#D3BA6C"/>
<stop offset="0.623322" stop-color="#B7A15C"/>
<stop offset="0.727551" stop-color="#A99454"/>
<stop offset="0.862008" stop-color="#9A874C"/>
<stop offset="0.966346" stop-color="#706131"/>
</linearGradient>
<linearGradient id="paint10_linear_1243_3426" x1="108.609" y1="11.3021" x2="115.999" y2="16.0304" gradientUnits="userSpaceOnUse">
<stop offset="0.0288462" stop-color="#706131"/>
<stop offset="0.113969" stop-color="#9A874C"/>
<stop offset="0.273346" stop-color="#D3BA6C"/>
<stop offset="0.385891" stop-color="#B7A15C"/>
<stop offset="0.476653" stop-color="#D3BA6C"/>
<stop offset="0.623322" stop-color="#B7A15C"/>
<stop offset="0.727551" stop-color="#A99454"/>
<stop offset="0.862008" stop-color="#9A874C"/>
<stop offset="0.966346" stop-color="#706131"/>
</linearGradient>
<linearGradient id="paint11_linear_1243_3426" x1="113.238" y1="19.9056" x2="115.892" y2="27.21" gradientUnits="userSpaceOnUse">
<stop offset="0.0288462" stop-color="#706131"/>
<stop offset="0.113969" stop-color="#9A874C"/>
<stop offset="0.273346" stop-color="#D3BA6C"/>
<stop offset="0.385891" stop-color="#B7A15C"/>
<stop offset="0.476653" stop-color="#D3BA6C"/>
<stop offset="0.623322" stop-color="#B7A15C"/>
<stop offset="0.727551" stop-color="#A99454"/>
<stop offset="0.862008" stop-color="#9A874C"/>
<stop offset="0.966346" stop-color="#706131"/>
</linearGradient>
<clipPath id="clip0_1243_3426">
<rect width="133" height="133" fill="white" transform="matrix(-1 0 0 1 133 0)"/>
</clipPath>
</defs>
</svg>
