<svg width="133" height="133" viewBox="0 0 133 133" fill="none" xmlns="http://www.w3.org/2000/svg">
<g clip-path="url(#clip0_1523_6283)">
<path d="M119.429 38.032C119.429 17.9729 112.825 9.88153 115.65 9.50781C119.203 9.0298 123.008 17.9729 123.008 38.032C123.008 54.6581 117.747 67.3732 116.552 71.6318C116.37 72.2837 115.919 72.2837 116.023 71.6231C116.942 66.0435 119.429 54.6581 119.429 38.032Z" fill="url(#paint0_linear_1523_6283)"/>
<path d="M119.897 70.0679C121.751 66.209 121.873 63.0368 123.597 63.593C124.507 63.8885 124.316 66.5914 122.453 70.4416C120.911 73.6399 117.782 75.439 116.63 75.7953C116.43 75.8562 116.274 75.7432 116.318 75.578C116.586 74.6394 118.354 73.2662 119.897 70.0679Z" fill="url(#paint1_linear_1523_6283)"/>
<path d="M121.067 5.2929C121.067 1.31237 121.63 -0.00866859 122.332 -0.00866859C123.034 -0.00866859 123.597 1.31237 123.597 5.2929C123.597 8.58683 122.731 11.368 122.427 12.2284C122.384 12.3588 122.28 12.3588 122.228 12.2284C121.933 11.3767 121.058 8.59552 121.058 5.2929H121.067Z" fill="url(#paint2_linear_1523_6283)"/>
<path d="M122.999 86.3893C123.25 85.9722 124.23 84.2339 124.472 84.4686C124.854 84.851 124.576 86.8065 123.874 88.1275C122.774 90.196 120.85 91.0738 120.469 91.2129C117.99 92.1168 111.369 93.377 107.669 89.2052C102.842 83.7646 106.499 72.5444 108.691 67.9989C109.437 66.4606 110.13 65.4351 111.005 63.0537C111.846 60.7679 113.345 56.5701 112.756 51.3381C112.556 49.5651 111.534 47.5575 111.906 47.3402C112.106 47.2272 112.53 47.6965 112.669 47.8617C113.674 48.9828 115.442 52.7287 114.307 58.9689C113.501 63.4187 112.106 64.2618 110.078 71.9534C109.87 72.7443 109.705 73.4222 109.541 74.2218C108.813 77.7504 108.145 80.9661 109.281 84.2079C109.61 85.1552 110.104 86.4849 111.326 87.4931C113.05 88.9011 115.546 89.3617 116.612 89.3095C119.403 89.1792 121.959 88.1102 122.991 86.4154L122.999 86.3893Z" fill="url(#paint3_linear_1523_6283)"/>
<path d="M37.9405 119.251C17.939 119.198 9.88808 112.55 9.50677 115.383C9.02147 118.946 17.9303 122.788 37.9319 122.84C54.5103 122.884 67.2063 117.643 71.4527 116.461C72.1027 116.278 72.1027 115.826 71.444 115.931C65.8803 116.843 54.519 119.303 37.9405 119.259V119.251Z" fill="url(#paint4_linear_1523_6283)"/>
<path d="M69.8841 119.807C66.0363 121.658 62.8645 121.771 63.4191 123.501C63.7138 124.413 66.4003 124.231 70.2481 122.371C73.4372 120.833 75.2398 117.695 75.6038 116.539C75.6644 116.339 75.5518 116.183 75.3871 116.226C74.4512 116.496 73.0733 118.26 69.8841 119.798V119.807Z" fill="url(#paint5_linear_1523_6283)"/>
<path d="M5.28632 120.806C1.31721 120.798 -5.7176e-05 121.363 -5.7176e-05 122.067C-5.7176e-05 122.771 1.3172 123.344 5.27765 123.353C8.56213 123.362 11.344 122.493 12.1933 122.197C12.3233 122.154 12.3233 122.049 12.1933 121.997C11.344 121.693 8.57081 120.815 5.28632 120.806Z" fill="url(#paint6_linear_1523_6283)"/>
<path d="M86.1419 122.971C85.7259 123.223 83.984 124.205 84.218 124.439C84.5993 124.822 86.5492 124.552 87.8665 123.857C89.929 122.762 90.813 120.833 90.9516 120.45C91.8529 117.964 93.1268 111.324 88.9844 107.605C83.568 102.746 72.3713 106.388 67.8302 108.578C66.2963 109.317 65.2737 110.012 62.8992 110.89C60.62 111.733 56.4255 113.219 51.2171 112.619C49.4492 112.411 47.4474 111.385 47.2307 111.759C47.118 111.959 47.586 112.385 47.742 112.533C48.8599 113.549 52.5864 115.322 58.8174 114.201C63.2545 113.402 64.0951 112.011 71.7733 109.995C72.5706 109.786 73.2379 109.621 74.0352 109.456C77.5537 108.734 80.7689 108.074 83.9927 109.221C84.9286 109.56 86.2632 110.047 87.2598 111.281C88.6551 113.011 89.1057 115.514 89.0537 116.583C88.9151 119.381 87.8405 121.936 86.1506 122.971H86.1419Z" fill="url(#paint7_linear_1523_6283)"/>
<path d="M81.3322 130.958C87.2598 135.425 95.5447 131.192 95.9087 130.992C99.9211 128.863 101.507 126.821 102.27 125.3C102.746 124.344 103.414 122.788 103.786 120.493C104.376 121.328 105.034 122.136 105.771 122.884C113.614 130.931 127.107 130.08 127.679 130.036L129.152 129.932L129.291 128.463C129.343 127.89 130.478 114.384 122.635 106.336C121.829 105.51 120.963 104.78 120.061 104.128C122.592 103.78 124.29 103.068 125.304 102.555C126.821 101.79 128.866 100.208 130.998 96.1931C131.189 95.8281 135.444 87.5368 130.998 81.5747C130.799 81.314 127.367 76.838 122.748 77.4551C119.437 77.8983 117.41 80.7143 116.985 81.5052C116.872 81.7137 116.56 82.3047 116.751 82.5046C116.89 82.6437 117.323 82.6611 117.591 82.3743C119.065 80.7925 120.668 79.6626 122.115 79.1846C124.03 78.5589 126.18 80.4014 126.622 80.7751C129.092 82.887 129.222 86.1375 129.274 87.4151C129.291 87.8236 129.412 92.6298 126.093 96.3148C121.821 101.06 114.186 100.408 107.643 99.0612C103.882 98.2877 103.275 98.4876 96.316 96.2366C96.342 96.28 96.3593 96.3235 96.3767 96.3669L96.056 96.2105C98.2832 103.189 98.0752 103.807 98.8379 107.578C100.172 114.14 100.796 121.797 96.056 126.073C92.3729 129.393 87.5805 129.254 87.1732 129.237C85.8906 129.185 82.6581 129.046 80.5522 126.56C80.1796 126.125 78.3423 123.953 78.975 122.04C79.4516 120.589 80.5869 118.99 82.1641 117.512C82.4501 117.243 82.4414 116.808 82.3028 116.669C82.1121 116.478 81.5228 116.791 81.3062 116.895C80.5089 117.313 77.701 119.346 77.2504 122.666C76.6177 127.29 81.0722 130.749 81.3322 130.949V130.958ZM125.885 126.603C122.349 126.569 113.553 125.908 108.241 120.459C105.866 118.025 104.462 114.914 103.639 111.898C103.578 111.507 103.509 111.107 103.431 110.699C103.145 109.221 102.928 108.065 102.72 107.048C102.521 105.258 102.478 103.702 102.495 102.633C103.587 102.642 105.173 102.711 107.001 102.963C108.033 103.172 109.211 103.407 110.711 103.702C110.737 103.702 110.763 103.702 110.789 103.72C114.056 104.58 117.522 106.101 120.139 108.787C125.443 114.218 125.92 123.066 125.885 126.621V126.603Z" fill="url(#paint8_linear_1523_6283)"/>
<path d="M114.862 117.417C118.371 121.11 120.027 121.866 120.625 121.293C121.223 120.719 120.547 119.024 117.037 115.331C114.125 112.272 110.927 110.403 109.913 109.855C109.757 109.768 109.671 109.855 109.74 110.021C110.243 111.063 111.941 114.357 114.853 117.417H114.862Z" fill="url(#paint9_linear_1523_6283)"/>
<path d="M108.223 115.878C109.714 119.572 110.728 120.58 111.378 120.32C112.028 120.059 112.062 118.616 110.572 114.922C109.341 111.863 107.495 109.612 106.897 108.926C106.802 108.821 106.707 108.856 106.715 109.004C106.759 109.908 106.993 112.819 108.223 115.878Z" fill="url(#paint10_linear_1523_6283)"/>
<path d="M114.853 110.864C118.423 112.611 119.853 112.68 120.165 112.054C120.477 111.429 119.541 110.334 115.971 108.578C113.016 107.127 110.139 106.692 109.237 106.579C109.099 106.562 109.055 106.657 109.151 106.753C109.783 107.396 111.898 109.404 114.853 110.855V110.864Z" fill="url(#paint11_linear_1523_6283)"/>
</g>
<defs>
<linearGradient id="paint0_linear_1523_6283" x1="117.947" y1="79.4194" x2="133.892" y2="76.4546" gradientUnits="userSpaceOnUse">
<stop offset="0.0288462" stop-color="#706131"/>
<stop offset="0.113969" stop-color="#9A874C"/>
<stop offset="0.273346" stop-color="#D3BA6C"/>
<stop offset="0.385891" stop-color="#B7A15C"/>
<stop offset="0.476653" stop-color="#D3BA6C"/>
<stop offset="0.623322" stop-color="#B7A15C"/>
<stop offset="0.727551" stop-color="#A99454"/>
<stop offset="0.862008" stop-color="#9A874C"/>
<stop offset="0.966346" stop-color="#706131"/>
</linearGradient>
<linearGradient id="paint1_linear_1523_6283" x1="119.219" y1="77.2436" x2="127.887" y2="69.2739" gradientUnits="userSpaceOnUse">
<stop offset="0.0288462" stop-color="#706131"/>
<stop offset="0.113969" stop-color="#9A874C"/>
<stop offset="0.273346" stop-color="#D3BA6C"/>
<stop offset="0.385891" stop-color="#B7A15C"/>
<stop offset="0.476653" stop-color="#D3BA6C"/>
<stop offset="0.623322" stop-color="#B7A15C"/>
<stop offset="0.727551" stop-color="#A99454"/>
<stop offset="0.862008" stop-color="#9A874C"/>
<stop offset="0.966346" stop-color="#706131"/>
</linearGradient>
<linearGradient id="paint2_linear_1523_6283" x1="122.003" y1="13.7638" x2="126.777" y2="12.3439" gradientUnits="userSpaceOnUse">
<stop offset="0.0288462" stop-color="#706131"/>
<stop offset="0.113969" stop-color="#9A874C"/>
<stop offset="0.273346" stop-color="#D3BA6C"/>
<stop offset="0.385891" stop-color="#B7A15C"/>
<stop offset="0.476653" stop-color="#D3BA6C"/>
<stop offset="0.623322" stop-color="#B7A15C"/>
<stop offset="0.727551" stop-color="#A99454"/>
<stop offset="0.862008" stop-color="#9A874C"/>
<stop offset="0.966346" stop-color="#706131"/>
</linearGradient>
<linearGradient id="paint3_linear_1523_6283" x1="112.492" y1="97.3447" x2="140.997" y2="79.5535" gradientUnits="userSpaceOnUse">
<stop offset="0.0288462" stop-color="#706131"/>
<stop offset="0.113969" stop-color="#9A874C"/>
<stop offset="0.273346" stop-color="#D3BA6C"/>
<stop offset="0.385891" stop-color="#B7A15C"/>
<stop offset="0.476653" stop-color="#D3BA6C"/>
<stop offset="0.623322" stop-color="#B7A15C"/>
<stop offset="0.727551" stop-color="#A99454"/>
<stop offset="0.862008" stop-color="#9A874C"/>
<stop offset="0.966346" stop-color="#706131"/>
</linearGradient>
<linearGradient id="paint4_linear_1523_6283" x1="32.7281" y1="123.791" x2="33.7649" y2="112.327" gradientUnits="userSpaceOnUse">
<stop offset="0.0288462" stop-color="#706131"/>
<stop offset="0.113969" stop-color="#9A874C"/>
<stop offset="0.273346" stop-color="#D3BA6C"/>
<stop offset="0.385891" stop-color="#B7A15C"/>
<stop offset="0.476653" stop-color="#D3BA6C"/>
<stop offset="0.623322" stop-color="#B7A15C"/>
<stop offset="0.727551" stop-color="#A99454"/>
<stop offset="0.862008" stop-color="#9A874C"/>
<stop offset="0.966346" stop-color="#706131"/>
</linearGradient>
<linearGradient id="paint5_linear_1523_6283" x1="67.9199" y1="124.946" x2="72.0079" y2="115.678" gradientUnits="userSpaceOnUse">
<stop offset="0.0288462" stop-color="#706131"/>
<stop offset="0.113969" stop-color="#9A874C"/>
<stop offset="0.273346" stop-color="#D3BA6C"/>
<stop offset="0.385891" stop-color="#B7A15C"/>
<stop offset="0.476653" stop-color="#D3BA6C"/>
<stop offset="0.623322" stop-color="#B7A15C"/>
<stop offset="0.727551" stop-color="#A99454"/>
<stop offset="0.862008" stop-color="#9A874C"/>
<stop offset="0.966346" stop-color="#706131"/>
</linearGradient>
<linearGradient id="paint6_linear_1523_6283" x1="4.57376" y1="123.65" x2="5.08068" y2="120.115" gradientUnits="userSpaceOnUse">
<stop offset="0.0288462" stop-color="#706131"/>
<stop offset="0.113969" stop-color="#9A874C"/>
<stop offset="0.273346" stop-color="#D3BA6C"/>
<stop offset="0.385891" stop-color="#B7A15C"/>
<stop offset="0.476653" stop-color="#D3BA6C"/>
<stop offset="0.623322" stop-color="#B7A15C"/>
<stop offset="0.727551" stop-color="#A99454"/>
<stop offset="0.862008" stop-color="#9A874C"/>
<stop offset="0.966346" stop-color="#706131"/>
</linearGradient>
<linearGradient id="paint7_linear_1523_6283" x1="63.831" y1="126.877" x2="71.4204" y2="101.658" gradientUnits="userSpaceOnUse">
<stop offset="0.0288462" stop-color="#706131"/>
<stop offset="0.113969" stop-color="#9A874C"/>
<stop offset="0.273346" stop-color="#D3BA6C"/>
<stop offset="0.385891" stop-color="#B7A15C"/>
<stop offset="0.476653" stop-color="#D3BA6C"/>
<stop offset="0.623322" stop-color="#B7A15C"/>
<stop offset="0.727551" stop-color="#A99454"/>
<stop offset="0.862008" stop-color="#9A874C"/>
<stop offset="0.966346" stop-color="#706131"/>
</linearGradient>
<linearGradient id="paint8_linear_1523_6283" x1="97.9644" y1="139.478" x2="134.767" y2="86.0888" gradientUnits="userSpaceOnUse">
<stop offset="0.0288462" stop-color="#706131"/>
<stop offset="0.113969" stop-color="#9A874C"/>
<stop offset="0.273346" stop-color="#D3BA6C"/>
<stop offset="0.385891" stop-color="#B7A15C"/>
<stop offset="0.476653" stop-color="#D3BA6C"/>
<stop offset="0.623322" stop-color="#B7A15C"/>
<stop offset="0.727551" stop-color="#A99454"/>
<stop offset="0.862008" stop-color="#9A874C"/>
<stop offset="0.966346" stop-color="#706131"/>
</linearGradient>
<linearGradient id="paint9_linear_1523_6283" x1="113.847" y1="122.822" x2="121.688" y2="112.02" gradientUnits="userSpaceOnUse">
<stop offset="0.0288462" stop-color="#706131"/>
<stop offset="0.113969" stop-color="#9A874C"/>
<stop offset="0.273346" stop-color="#D3BA6C"/>
<stop offset="0.385891" stop-color="#B7A15C"/>
<stop offset="0.476653" stop-color="#D3BA6C"/>
<stop offset="0.623322" stop-color="#B7A15C"/>
<stop offset="0.727551" stop-color="#A99454"/>
<stop offset="0.862008" stop-color="#9A874C"/>
<stop offset="0.966346" stop-color="#706131"/>
</linearGradient>
<linearGradient id="paint10_linear_1523_6283" x1="108.609" y1="121.698" x2="115.999" y2="116.97" gradientUnits="userSpaceOnUse">
<stop offset="0.0288462" stop-color="#706131"/>
<stop offset="0.113969" stop-color="#9A874C"/>
<stop offset="0.273346" stop-color="#D3BA6C"/>
<stop offset="0.385891" stop-color="#B7A15C"/>
<stop offset="0.476653" stop-color="#D3BA6C"/>
<stop offset="0.623322" stop-color="#B7A15C"/>
<stop offset="0.727551" stop-color="#A99454"/>
<stop offset="0.862008" stop-color="#9A874C"/>
<stop offset="0.966346" stop-color="#706131"/>
</linearGradient>
<linearGradient id="paint11_linear_1523_6283" x1="113.238" y1="113.094" x2="115.892" y2="105.79" gradientUnits="userSpaceOnUse">
<stop offset="0.0288462" stop-color="#706131"/>
<stop offset="0.113969" stop-color="#9A874C"/>
<stop offset="0.273346" stop-color="#D3BA6C"/>
<stop offset="0.385891" stop-color="#B7A15C"/>
<stop offset="0.476653" stop-color="#D3BA6C"/>
<stop offset="0.623322" stop-color="#B7A15C"/>
<stop offset="0.727551" stop-color="#A99454"/>
<stop offset="0.862008" stop-color="#9A874C"/>
<stop offset="0.966346" stop-color="#706131"/>
</linearGradient>
<clipPath id="clip0_1523_6283">
<rect width="133" height="133" fill="white" transform="matrix(-1 0 0 -1 133 133)"/>
</clipPath>
</defs>
</svg>
