<svg width="133" height="133" viewBox="0 0 133 133" fill="none" xmlns="http://www.w3.org/2000/svg">
<g clip-path="url(#clip0_1243_3411)">
<path d="M13.5713 94.968C13.5713 115.027 20.1749 123.118 17.3497 123.492C13.7966 123.97 9.99212 115.027 9.99212 94.968C9.99212 78.3419 15.2525 65.6268 16.4484 61.3682C16.6304 60.7163 17.0811 60.7163 16.9771 61.3769C16.0584 66.9565 13.5713 78.3419 13.5713 94.968Z" fill="url(#paint0_linear_1243_3411)"/>
<path d="M13.1033 62.9321C11.2487 66.791 11.1274 69.9632 9.40281 69.407C8.49287 69.1115 8.68352 66.4086 10.5468 62.5584C12.0893 59.3601 15.2178 57.561 16.3704 57.2047C16.5698 57.1438 16.7257 57.2568 16.6824 57.422C16.4138 58.3606 14.6459 59.7338 13.1033 62.9321Z" fill="url(#paint1_linear_1243_3411)"/>
<path d="M11.9333 127.707C11.9333 131.688 11.37 133.009 10.6681 133.009C9.96612 133.009 9.40282 131.688 9.40282 127.707C9.40282 124.413 10.2694 121.632 10.5728 120.772C10.6161 120.641 10.7201 120.641 10.7721 120.772C11.0667 121.623 11.942 124.404 11.942 127.707H11.9333Z" fill="url(#paint2_linear_1243_3411)"/>
<path d="M10.0008 46.6107C9.74946 47.0278 8.77018 48.7661 8.52753 48.5314C8.14622 48.149 8.42354 46.1935 9.1255 44.8725C10.2261 42.804 12.15 41.9262 12.5313 41.7871C15.0098 40.8832 21.6308 39.623 25.3313 43.7948C30.1583 49.2354 26.5012 60.4556 24.3087 65.0011C23.5634 66.5394 22.8701 67.5649 21.9948 69.9463C21.1542 72.2321 19.6549 76.4299 20.2442 81.6619C20.4435 83.4349 21.4662 85.4425 21.0935 85.6598C20.8942 85.7728 20.4695 85.3035 20.3309 85.1383C19.3256 84.0172 17.5577 80.2713 18.693 74.0311C19.4989 69.5813 20.8942 68.7382 22.9221 61.0466C23.1301 60.2557 23.2947 59.5778 23.4594 58.7782C24.1873 55.2496 24.8546 52.0339 23.7194 48.7921C23.39 47.8448 22.8961 46.5151 21.6741 45.5069C19.9496 44.0989 17.4537 43.6383 16.3878 43.6905C13.5973 43.8208 11.0407 44.8898 10.0094 46.5846L10.0008 46.6107Z" fill="url(#paint3_linear_1243_3411)"/>
<path d="M95.0594 13.7494C115.061 13.8015 123.112 20.4502 123.493 17.6169C123.979 14.0536 115.07 10.2121 95.0681 10.1599C78.4897 10.1165 65.7937 15.3572 61.5473 16.5392C60.8973 16.7217 60.8973 17.1737 61.5559 17.0694C67.1196 16.1568 78.481 13.6972 95.0594 13.7407V13.7494Z" fill="url(#paint4_linear_1243_3411)"/>
<path d="M63.1159 13.193C66.9636 11.3418 70.1355 11.2289 69.5808 9.49933C69.2862 8.58676 66.5997 8.76927 62.7519 10.6292C59.5627 12.1675 57.7602 15.305 57.3962 16.4609C57.3355 16.6608 57.4482 16.8172 57.6128 16.7738C58.5488 16.5044 59.9267 14.7401 63.1159 13.2017V13.193Z" fill="url(#paint5_linear_1243_3411)"/>
<path d="M127.714 12.1935C131.683 12.2022 133 11.6373 133 10.9333C133 10.2293 131.683 9.65573 127.722 9.64704C124.438 9.63835 121.656 10.5075 120.807 10.803C120.677 10.8464 120.677 10.9507 120.807 11.0028C121.656 11.307 124.429 12.1848 127.714 12.1935Z" fill="url(#paint6_linear_1243_3411)"/>
<path d="M46.8581 10.0295C47.2741 9.77743 49.016 8.79534 48.782 8.56068C48.4007 8.17827 46.4508 8.44769 45.1335 9.14298C43.071 10.2381 42.187 12.1675 42.0483 12.5499C41.1471 15.0356 39.8731 21.6756 44.0156 25.3953C49.4319 30.2537 60.6287 26.6121 65.1697 24.4219C66.7037 23.6832 67.7263 22.9879 70.1008 22.1101C72.38 21.2671 76.5744 19.7809 81.7828 20.3806C83.5507 20.5892 85.5526 21.6147 85.7693 21.241C85.8819 21.0411 85.414 20.6152 85.258 20.4675C84.14 19.4506 80.4136 17.6776 74.1826 18.7988C69.7455 19.5984 68.9049 20.989 61.2266 23.0053C60.4293 23.2139 59.762 23.379 58.9647 23.5441C55.4463 24.2655 52.2311 24.926 49.0073 23.7788C48.0713 23.4399 46.7368 22.9531 45.7401 21.719C44.3449 19.9895 43.8942 17.4864 43.9462 16.4174C44.0849 13.6189 45.1595 11.0637 46.8494 10.0295H46.8581Z" fill="url(#paint7_linear_1243_3411)"/>
<path d="M51.6678 2.04245C45.7401 -2.42477 37.4553 1.80779 37.0913 2.00769C33.0788 4.13701 31.4929 6.17942 30.7303 7.70036C30.2537 8.65639 29.5864 10.2121 29.2137 12.5065C28.6244 11.6722 27.9658 10.8639 27.2292 10.1165C19.3863 2.06853 5.89301 2.92026 5.32104 2.96371L3.84779 3.06801L3.70913 4.5368C3.65713 5.11041 2.52186 18.6164 10.3648 26.6644C11.1707 27.49 12.0373 28.2201 12.9386 28.8719C10.4081 29.2195 8.70952 29.9322 7.69558 30.445C6.17899 31.2098 4.13377 32.7916 2.00189 36.8069C1.81123 37.1719 -2.44387 45.4632 2.00189 51.4253C2.20121 51.6861 5.63302 56.162 10.2521 55.5449C13.5626 55.1017 15.5905 52.2857 16.0151 51.4948C16.1278 51.2863 16.4398 50.6953 16.2491 50.4954C16.1104 50.3563 15.6771 50.3389 15.4085 50.6257C13.9352 52.2075 12.332 53.3374 10.8847 53.8154C8.96951 54.4411 6.82029 52.5986 6.37831 52.2249C3.90845 50.113 3.77846 46.8625 3.72646 45.5849C3.70913 45.1764 3.5878 40.3702 6.90695 36.6852C11.1794 31.9399 18.8143 32.5917 25.3573 33.9388C29.1184 34.7123 29.725 34.5124 36.684 36.7634C36.658 36.72 36.6406 36.6765 36.6233 36.6331L36.944 36.7895C34.7168 29.8105 34.9247 29.1935 34.1621 25.4215C32.8275 18.8597 32.2036 11.2029 36.944 6.92686C40.6271 3.60685 45.4195 3.74591 45.8268 3.76329C47.1094 3.81544 50.3419 3.9545 52.4478 6.44015C52.8204 6.87471 54.6577 9.04749 54.025 10.9595C53.5484 12.4109 52.4131 14.0101 50.8359 15.4876C50.5499 15.757 50.5585 16.1916 50.6972 16.3306C50.8879 16.5218 51.4772 16.209 51.6938 16.1047C52.4911 15.6875 55.299 13.6538 55.7496 10.3338C56.3822 5.7101 51.9278 2.25104 51.6678 2.05115V2.04245ZM7.11494 6.3967C10.6507 6.43146 19.4469 7.09199 24.7593 12.5413C27.1338 14.9748 28.5378 18.0862 29.361 21.1021C29.4217 21.4931 29.491 21.8929 29.569 22.3014C29.855 23.7789 30.0717 24.9348 30.2797 25.9517C30.479 27.7421 30.5223 29.2978 30.505 30.3668C29.413 30.3581 27.8271 30.2885 25.9986 30.0365C24.9673 29.8279 23.7887 29.5933 22.2894 29.2978C22.2634 29.2978 22.2374 29.2978 22.2114 29.2804C18.9443 28.42 15.4778 26.899 12.8606 24.2135C7.55692 18.7815 7.08028 9.93398 7.11494 6.37932V6.3967Z" fill="url(#paint8_linear_1243_3411)"/>
<path d="M18.1383 15.5834C14.6285 11.8896 12.9733 11.1335 12.3753 11.7071C11.7773 12.2807 12.4533 13.9755 15.9631 17.6692C18.875 20.7285 22.0728 22.5971 23.0867 23.1446C23.2427 23.2315 23.3294 23.1446 23.26 22.9795C22.7574 21.9366 21.0588 18.6426 18.147 15.5834H18.1383Z" fill="url(#paint9_linear_1243_3411)"/>
<path d="M24.7766 17.1215C23.286 13.4278 22.2721 12.4196 21.6221 12.6804C20.9722 12.9411 20.9375 14.3838 22.4281 18.0775C23.6587 21.1368 25.5046 23.3878 26.1026 24.0744C26.1979 24.1787 26.2932 24.1439 26.2846 23.9962C26.2412 23.0923 26.0072 20.1808 24.7766 17.1215Z" fill="url(#paint10_linear_1243_3411)"/>
<path d="M18.147 22.1363C14.5765 20.3894 13.1466 20.3199 12.8346 20.9456C12.5226 21.5714 13.4586 22.6665 17.0291 24.4221C19.9842 25.8735 22.8614 26.308 23.7627 26.421C23.9013 26.4384 23.9447 26.3428 23.8494 26.2472C23.2167 25.604 21.1022 23.5964 18.147 22.145V22.1363Z" fill="url(#paint11_linear_1243_3411)"/>
</g>
<defs>
<linearGradient id="paint0_linear_1243_3411" x1="15.053" y1="53.5806" x2="-0.891653" y2="56.5454" gradientUnits="userSpaceOnUse">
<stop offset="0.0288462" stop-color="#706131"/>
<stop offset="0.113969" stop-color="#9A874C"/>
<stop offset="0.273346" stop-color="#D3BA6C"/>
<stop offset="0.385891" stop-color="#B7A15C"/>
<stop offset="0.476653" stop-color="#D3BA6C"/>
<stop offset="0.623322" stop-color="#B7A15C"/>
<stop offset="0.727551" stop-color="#A99454"/>
<stop offset="0.862008" stop-color="#9A874C"/>
<stop offset="0.966346" stop-color="#706131"/>
</linearGradient>
<linearGradient id="paint1_linear_1243_3411" x1="13.7811" y1="55.7564" x2="5.11253" y2="63.7261" gradientUnits="userSpaceOnUse">
<stop offset="0.0288462" stop-color="#706131"/>
<stop offset="0.113969" stop-color="#9A874C"/>
<stop offset="0.273346" stop-color="#D3BA6C"/>
<stop offset="0.385891" stop-color="#B7A15C"/>
<stop offset="0.476653" stop-color="#D3BA6C"/>
<stop offset="0.623322" stop-color="#B7A15C"/>
<stop offset="0.727551" stop-color="#A99454"/>
<stop offset="0.862008" stop-color="#9A874C"/>
<stop offset="0.966346" stop-color="#706131"/>
</linearGradient>
<linearGradient id="paint2_linear_1243_3411" x1="10.9971" y1="119.236" x2="6.22288" y2="120.656" gradientUnits="userSpaceOnUse">
<stop offset="0.0288462" stop-color="#706131"/>
<stop offset="0.113969" stop-color="#9A874C"/>
<stop offset="0.273346" stop-color="#D3BA6C"/>
<stop offset="0.385891" stop-color="#B7A15C"/>
<stop offset="0.476653" stop-color="#D3BA6C"/>
<stop offset="0.623322" stop-color="#B7A15C"/>
<stop offset="0.727551" stop-color="#A99454"/>
<stop offset="0.862008" stop-color="#9A874C"/>
<stop offset="0.966346" stop-color="#706131"/>
</linearGradient>
<linearGradient id="paint3_linear_1243_3411" x1="20.5077" y1="35.6553" x2="-7.99668" y2="53.4465" gradientUnits="userSpaceOnUse">
<stop offset="0.0288462" stop-color="#706131"/>
<stop offset="0.113969" stop-color="#9A874C"/>
<stop offset="0.273346" stop-color="#D3BA6C"/>
<stop offset="0.385891" stop-color="#B7A15C"/>
<stop offset="0.476653" stop-color="#D3BA6C"/>
<stop offset="0.623322" stop-color="#B7A15C"/>
<stop offset="0.727551" stop-color="#A99454"/>
<stop offset="0.862008" stop-color="#9A874C"/>
<stop offset="0.966346" stop-color="#706131"/>
</linearGradient>
<linearGradient id="paint4_linear_1243_3411" x1="100.272" y1="9.20862" x2="99.2351" y2="20.6732" gradientUnits="userSpaceOnUse">
<stop offset="0.0288462" stop-color="#706131"/>
<stop offset="0.113969" stop-color="#9A874C"/>
<stop offset="0.273346" stop-color="#D3BA6C"/>
<stop offset="0.385891" stop-color="#B7A15C"/>
<stop offset="0.476653" stop-color="#D3BA6C"/>
<stop offset="0.623322" stop-color="#B7A15C"/>
<stop offset="0.727551" stop-color="#A99454"/>
<stop offset="0.862008" stop-color="#9A874C"/>
<stop offset="0.966346" stop-color="#706131"/>
</linearGradient>
<linearGradient id="paint5_linear_1243_3411" x1="65.08" y1="8.05438" x2="60.9921" y2="17.3223" gradientUnits="userSpaceOnUse">
<stop offset="0.0288462" stop-color="#706131"/>
<stop offset="0.113969" stop-color="#9A874C"/>
<stop offset="0.273346" stop-color="#D3BA6C"/>
<stop offset="0.385891" stop-color="#B7A15C"/>
<stop offset="0.476653" stop-color="#D3BA6C"/>
<stop offset="0.623322" stop-color="#B7A15C"/>
<stop offset="0.727551" stop-color="#A99454"/>
<stop offset="0.862008" stop-color="#9A874C"/>
<stop offset="0.966346" stop-color="#706131"/>
</linearGradient>
<linearGradient id="paint6_linear_1243_3411" x1="128.426" y1="9.35015" x2="127.919" y2="12.8848" gradientUnits="userSpaceOnUse">
<stop offset="0.0288462" stop-color="#706131"/>
<stop offset="0.113969" stop-color="#9A874C"/>
<stop offset="0.273346" stop-color="#D3BA6C"/>
<stop offset="0.385891" stop-color="#B7A15C"/>
<stop offset="0.476653" stop-color="#D3BA6C"/>
<stop offset="0.623322" stop-color="#B7A15C"/>
<stop offset="0.727551" stop-color="#A99454"/>
<stop offset="0.862008" stop-color="#9A874C"/>
<stop offset="0.966346" stop-color="#706131"/>
</linearGradient>
<linearGradient id="paint7_linear_1243_3411" x1="69.1689" y1="6.12325" x2="61.5796" y2="31.3418" gradientUnits="userSpaceOnUse">
<stop offset="0.0288462" stop-color="#706131"/>
<stop offset="0.113969" stop-color="#9A874C"/>
<stop offset="0.273346" stop-color="#D3BA6C"/>
<stop offset="0.385891" stop-color="#B7A15C"/>
<stop offset="0.476653" stop-color="#D3BA6C"/>
<stop offset="0.623322" stop-color="#B7A15C"/>
<stop offset="0.727551" stop-color="#A99454"/>
<stop offset="0.862008" stop-color="#9A874C"/>
<stop offset="0.966346" stop-color="#706131"/>
</linearGradient>
<linearGradient id="paint8_linear_1243_3411" x1="35.0356" y1="-6.47805" x2="-1.76752" y2="46.9112" gradientUnits="userSpaceOnUse">
<stop offset="0.0288462" stop-color="#706131"/>
<stop offset="0.113969" stop-color="#9A874C"/>
<stop offset="0.273346" stop-color="#D3BA6C"/>
<stop offset="0.385891" stop-color="#B7A15C"/>
<stop offset="0.476653" stop-color="#D3BA6C"/>
<stop offset="0.623322" stop-color="#B7A15C"/>
<stop offset="0.727551" stop-color="#A99454"/>
<stop offset="0.862008" stop-color="#9A874C"/>
<stop offset="0.966346" stop-color="#706131"/>
</linearGradient>
<linearGradient id="paint9_linear_1243_3411" x1="19.1526" y1="10.178" x2="11.3117" y2="20.9799" gradientUnits="userSpaceOnUse">
<stop offset="0.0288462" stop-color="#706131"/>
<stop offset="0.113969" stop-color="#9A874C"/>
<stop offset="0.273346" stop-color="#D3BA6C"/>
<stop offset="0.385891" stop-color="#B7A15C"/>
<stop offset="0.476653" stop-color="#D3BA6C"/>
<stop offset="0.623322" stop-color="#B7A15C"/>
<stop offset="0.727551" stop-color="#A99454"/>
<stop offset="0.862008" stop-color="#9A874C"/>
<stop offset="0.966346" stop-color="#706131"/>
</linearGradient>
<linearGradient id="paint10_linear_1243_3411" x1="24.3911" y1="11.3021" x2="17.0007" y2="16.0304" gradientUnits="userSpaceOnUse">
<stop offset="0.0288462" stop-color="#706131"/>
<stop offset="0.113969" stop-color="#9A874C"/>
<stop offset="0.273346" stop-color="#D3BA6C"/>
<stop offset="0.385891" stop-color="#B7A15C"/>
<stop offset="0.476653" stop-color="#D3BA6C"/>
<stop offset="0.623322" stop-color="#B7A15C"/>
<stop offset="0.727551" stop-color="#A99454"/>
<stop offset="0.862008" stop-color="#9A874C"/>
<stop offset="0.966346" stop-color="#706131"/>
</linearGradient>
<linearGradient id="paint11_linear_1243_3411" x1="19.7616" y1="19.9056" x2="17.1082" y2="27.21" gradientUnits="userSpaceOnUse">
<stop offset="0.0288462" stop-color="#706131"/>
<stop offset="0.113969" stop-color="#9A874C"/>
<stop offset="0.273346" stop-color="#D3BA6C"/>
<stop offset="0.385891" stop-color="#B7A15C"/>
<stop offset="0.476653" stop-color="#D3BA6C"/>
<stop offset="0.623322" stop-color="#B7A15C"/>
<stop offset="0.727551" stop-color="#A99454"/>
<stop offset="0.862008" stop-color="#9A874C"/>
<stop offset="0.966346" stop-color="#706131"/>
</linearGradient>
<clipPath id="clip0_1243_3411">
<rect width="133" height="133" fill="white"/>
</clipPath>
</defs>
</svg>
