<svg width="215" height="192" viewBox="0 0 215 192" fill="none" xmlns="http://www.w3.org/2000/svg">
<g clip-path="url(#clip0_961_8276)">
<g clip-path="url(#clip1_961_8276)">
<path d="M134.119 104.267C133.697 79.2456 121.917 59.1742 107.432 59.1742C92.9471 59.1742 81.1595 79.2374 80.7451 104.267H134.119Z" fill="#6F4E37"/>
<path d="M89.4042 62.5925C85.5059 56.4759 81.3625 53.579 75.8577 53.579C63.7233 53.579 53.8467 71.5398 53.5 93.9371H76.3058C77.8448 79.8664 82.8085 68.047 89.4042 62.5925Z" fill="#6F4E37"/>
<path d="M107.432 53.819C114.227 53.819 119.736 48.4272 119.736 41.7761C119.736 35.1251 114.227 29.7333 107.432 29.7333C100.637 29.7333 95.1289 35.1251 95.1289 41.7761C95.1289 48.4272 100.637 53.819 107.432 53.819Z" fill="#6F4E37"/>
<path d="M74.589 48.0748C79.7635 48.0748 83.9582 43.9689 83.9582 38.9041C83.9582 33.8392 79.7635 29.7333 74.589 29.7333C69.4145 29.7333 65.2197 33.8392 65.2197 38.9041C65.2197 43.9689 69.4145 48.0748 74.589 48.0748Z" fill="#6F4E37"/>
<path d="M125.596 62.5925C129.494 56.4759 133.637 53.579 139.142 53.579C151.277 53.579 161.153 71.5398 161.5 93.9453H138.694C137.155 79.8746 132.191 68.0552 125.596 62.6008V62.5925Z" fill="#6F4E37"/>
<path d="M140.41 48.0748C145.585 48.0748 149.78 43.9689 149.78 38.9041C149.78 33.8392 145.585 29.7333 140.41 29.7333C135.236 29.7333 131.041 33.8392 131.041 38.9041C131.041 43.9689 135.236 48.0748 140.41 48.0748Z" fill="#6F4E37"/>
</g>
<path d="M16.1641 149.575H11.6055V147.735H16.1641C17.0469 147.735 17.7617 147.595 18.3086 147.313C18.8555 147.032 19.2539 146.642 19.5039 146.142C19.7617 145.642 19.8906 145.071 19.8906 144.431C19.8906 143.845 19.7617 143.294 19.5039 142.778C19.2539 142.263 18.8555 141.849 18.3086 141.536C17.7617 141.216 17.0469 141.056 16.1641 141.056H12.1328V156.267H9.87109V139.204H16.1641C17.4531 139.204 18.543 139.427 19.4336 139.872C20.3242 140.317 21 140.935 21.4609 141.724C21.9219 142.505 22.1523 143.399 22.1523 144.407C22.1523 145.501 21.9219 146.435 21.4609 147.208C21 147.981 20.3242 148.571 19.4336 148.978C18.543 149.376 17.4531 149.575 16.1641 149.575ZM27.0391 138.267V156.267H24.8594V138.267H27.0391ZM37.9961 154.099V147.571C37.9961 147.071 37.8945 146.638 37.6914 146.271C37.4961 145.896 37.1992 145.606 36.8008 145.403C36.4023 145.2 35.9102 145.099 35.3242 145.099C34.7773 145.099 34.2969 145.192 33.8828 145.38C33.4766 145.567 33.1562 145.813 32.9219 146.118C32.6953 146.423 32.582 146.751 32.582 147.103H30.4141C30.4141 146.649 30.5312 146.2 30.7656 145.755C31 145.31 31.3359 144.907 31.7734 144.548C32.2188 144.181 32.75 143.892 33.3672 143.681C33.9922 143.462 34.6875 143.353 35.4531 143.353C36.375 143.353 37.1875 143.509 37.8906 143.821C38.6016 144.134 39.1562 144.606 39.5547 145.239C39.9609 145.864 40.1641 146.649 40.1641 147.595V153.501C40.1641 153.923 40.1992 154.372 40.2695 154.849C40.3477 155.325 40.4609 155.735 40.6094 156.079V156.267H38.3477C38.2383 156.017 38.1523 155.685 38.0898 155.271C38.0273 154.849 37.9961 154.458 37.9961 154.099ZM38.3711 148.579L38.3945 150.103H36.2031C35.5859 150.103 35.0352 150.153 34.5508 150.255C34.0664 150.349 33.6602 150.493 33.332 150.688C33.0039 150.884 32.7539 151.13 32.582 151.427C32.4102 151.716 32.3242 152.056 32.3242 152.446C32.3242 152.845 32.4141 153.208 32.5938 153.536C32.7734 153.864 33.043 154.126 33.4023 154.321C33.7695 154.509 34.2188 154.603 34.75 154.603C35.4141 154.603 36 154.462 36.5078 154.181C37.0156 153.899 37.418 153.556 37.7148 153.149C38.0195 152.743 38.1836 152.349 38.207 151.966L39.1328 153.009C39.0781 153.337 38.9297 153.7 38.6875 154.099C38.4453 154.497 38.1211 154.88 37.7148 155.247C37.3164 155.606 36.8398 155.907 36.2852 156.149C35.7383 156.384 35.1211 156.501 34.4336 156.501C33.5742 156.501 32.8203 156.333 32.1719 155.997C31.5312 155.661 31.0312 155.212 30.6719 154.649C30.3203 154.079 30.1445 153.442 30.1445 152.739C30.1445 152.06 30.2773 151.462 30.543 150.946C30.8086 150.423 31.1914 149.989 31.6914 149.646C32.1914 149.294 32.793 149.028 33.4961 148.849C34.1992 148.669 34.9844 148.579 35.8516 148.579H38.3711ZM51.5664 153.806V138.267H53.7461V156.267H51.7539L51.5664 153.806ZM43.0352 150.067V149.821C43.0352 148.853 43.1523 147.974 43.3867 147.185C43.6289 146.388 43.9688 145.704 44.4062 145.134C44.8516 144.563 45.3789 144.126 45.9883 143.821C46.6055 143.509 47.293 143.353 48.0508 143.353C48.8477 143.353 49.543 143.493 50.1367 143.774C50.7383 144.048 51.2461 144.45 51.6602 144.981C52.082 145.505 52.4141 146.138 52.6562 146.88C52.8984 147.622 53.0664 148.462 53.1602 149.399V150.478C53.0742 151.407 52.9062 152.243 52.6562 152.985C52.4141 153.728 52.082 154.36 51.6602 154.884C51.2461 155.407 50.7383 155.81 50.1367 156.091C49.5352 156.364 48.832 156.501 48.0273 156.501C47.2852 156.501 46.6055 156.341 45.9883 156.021C45.3789 155.7 44.8516 155.251 44.4062 154.673C43.9688 154.095 43.6289 153.415 43.3867 152.634C43.1523 151.845 43.0352 150.989 43.0352 150.067ZM45.2148 149.821V150.067C45.2148 150.7 45.2773 151.294 45.4023 151.849C45.5352 152.403 45.7383 152.892 46.0117 153.313C46.2852 153.735 46.6328 154.067 47.0547 154.31C47.4766 154.544 47.9805 154.661 48.5664 154.661C49.2852 154.661 49.875 154.509 50.3359 154.204C50.8047 153.899 51.1797 153.497 51.4609 152.997C51.7422 152.497 51.9609 151.954 52.1172 151.368V148.544C52.0234 148.114 51.8867 147.7 51.707 147.302C51.5352 146.896 51.3086 146.536 51.0273 146.224C50.7539 145.903 50.4141 145.649 50.0078 145.462C49.6094 145.274 49.1367 145.181 48.5898 145.181C47.9961 145.181 47.4844 145.306 47.0547 145.556C46.6328 145.798 46.2852 146.134 46.0117 146.563C45.7383 146.985 45.5352 147.478 45.4023 148.04C45.2773 148.595 45.2148 149.188 45.2148 149.821ZM64.5039 152.903C64.5039 152.591 64.4336 152.302 64.293 152.036C64.1602 151.763 63.8828 151.517 63.4609 151.298C63.0469 151.071 62.4219 150.876 61.5859 150.712C60.8828 150.563 60.2461 150.388 59.6758 150.185C59.1133 149.981 58.6328 149.735 58.2344 149.446C57.8438 149.157 57.543 148.817 57.332 148.427C57.1211 148.036 57.0156 147.579 57.0156 147.056C57.0156 146.556 57.125 146.083 57.3438 145.638C57.5703 145.192 57.8867 144.798 58.293 144.454C58.707 144.11 59.2031 143.841 59.7812 143.646C60.3594 143.45 61.0039 143.353 61.7148 143.353C62.7305 143.353 63.5977 143.532 64.3164 143.892C65.0352 144.251 65.5859 144.731 65.9688 145.333C66.3516 145.927 66.543 146.587 66.543 147.313H64.375C64.375 146.962 64.2695 146.622 64.0586 146.294C63.8555 145.958 63.5547 145.681 63.1562 145.462C62.7656 145.243 62.2852 145.134 61.7148 145.134C61.1133 145.134 60.625 145.228 60.25 145.415C59.8828 145.595 59.6133 145.825 59.4414 146.106C59.2773 146.388 59.1953 146.685 59.1953 146.997C59.1953 147.231 59.2344 147.442 59.3125 147.63C59.3984 147.81 59.5469 147.978 59.7578 148.134C59.9688 148.282 60.2656 148.423 60.6484 148.556C61.0312 148.688 61.5195 148.821 62.1133 148.954C63.1523 149.188 64.0078 149.47 64.6797 149.798C65.3516 150.126 65.8516 150.528 66.1797 151.005C66.5078 151.481 66.6719 152.06 66.6719 152.739C66.6719 153.294 66.5547 153.802 66.3203 154.263C66.0938 154.724 65.7617 155.122 65.3242 155.458C64.8945 155.786 64.3789 156.044 63.7773 156.231C63.1836 156.411 62.5156 156.501 61.7734 156.501C60.6562 156.501 59.7109 156.302 58.9375 155.903C58.1641 155.505 57.5781 154.989 57.1797 154.356C56.7812 153.724 56.582 153.056 56.582 152.353H58.7617C58.793 152.946 58.9648 153.419 59.2773 153.771C59.5898 154.114 59.9727 154.36 60.4258 154.509C60.8789 154.649 61.3281 154.72 61.7734 154.72C62.3672 154.72 62.8633 154.642 63.2617 154.485C63.668 154.329 63.9766 154.114 64.1875 153.841C64.3984 153.567 64.5039 153.255 64.5039 152.903ZM80.7812 143.587V145.251H73.9258V143.587H80.7812ZM76.2461 140.505H78.4141V153.126C78.4141 153.556 78.4805 153.88 78.6133 154.099C78.7461 154.317 78.918 154.462 79.1289 154.532C79.3398 154.603 79.5664 154.638 79.8086 154.638C79.9883 154.638 80.1758 154.622 80.3711 154.591C80.5742 154.552 80.7266 154.521 80.8281 154.497L80.8398 156.267C80.668 156.321 80.4414 156.372 80.1602 156.419C79.8867 156.474 79.5547 156.501 79.1641 156.501C78.6328 156.501 78.1445 156.396 77.6992 156.185C77.2539 155.974 76.8984 155.622 76.6328 155.13C76.375 154.63 76.2461 153.958 76.2461 153.114V140.505ZM85.6797 143.587V156.267H83.5V143.587H85.6797ZM83.3359 140.224C83.3359 139.872 83.4414 139.575 83.6523 139.333C83.8711 139.091 84.1914 138.97 84.6133 138.97C85.0273 138.97 85.3438 139.091 85.5625 139.333C85.7891 139.575 85.9023 139.872 85.9023 140.224C85.9023 140.56 85.7891 140.849 85.5625 141.091C85.3438 141.325 85.0273 141.442 84.6133 141.442C84.1914 141.442 83.8711 141.325 83.6523 141.091C83.4414 140.849 83.3359 140.56 83.3359 140.224ZM91.5156 138.267V156.267H89.3359V138.267H91.5156ZM111.895 154.485V156.267H100.727V154.708L106.316 148.485C107.004 147.72 107.535 147.071 107.91 146.54C108.293 146.001 108.559 145.521 108.707 145.099C108.863 144.669 108.941 144.231 108.941 143.786C108.941 143.224 108.824 142.716 108.59 142.263C108.363 141.802 108.027 141.435 107.582 141.161C107.137 140.888 106.598 140.751 105.965 140.751C105.207 140.751 104.574 140.899 104.066 141.196C103.566 141.485 103.191 141.892 102.941 142.415C102.691 142.938 102.566 143.54 102.566 144.22H100.398C100.398 143.259 100.609 142.38 101.031 141.583C101.453 140.786 102.078 140.153 102.906 139.685C103.734 139.208 104.754 138.97 105.965 138.97C107.043 138.97 107.965 139.161 108.73 139.544C109.496 139.919 110.082 140.45 110.488 141.138C110.902 141.817 111.109 142.614 111.109 143.528C111.109 144.028 111.023 144.536 110.852 145.052C110.688 145.56 110.457 146.067 110.16 146.575C109.871 147.083 109.531 147.583 109.141 148.075C108.758 148.567 108.348 149.052 107.91 149.528L103.34 154.485H111.895ZM125.746 150.524V152.306H113.418V151.028L121.059 139.204H122.828L120.93 142.626L115.879 150.524H125.746ZM123.367 139.204V156.267H121.199V139.204H123.367ZM142.117 143.587H144.086V155.997C144.086 157.114 143.859 158.067 143.406 158.856C142.953 159.646 142.32 160.243 141.508 160.649C140.703 161.063 139.773 161.271 138.719 161.271C138.281 161.271 137.766 161.2 137.172 161.06C136.586 160.927 136.008 160.696 135.438 160.368C134.875 160.048 134.402 159.614 134.02 159.067L135.156 157.778C135.688 158.419 136.242 158.864 136.82 159.114C137.406 159.364 137.984 159.489 138.555 159.489C139.242 159.489 139.836 159.36 140.336 159.103C140.836 158.845 141.223 158.462 141.496 157.954C141.777 157.454 141.918 156.837 141.918 156.103V146.376L142.117 143.587ZM133.387 150.067V149.821C133.387 148.853 133.5 147.974 133.727 147.185C133.961 146.388 134.293 145.704 134.723 145.134C135.16 144.563 135.688 144.126 136.305 143.821C136.922 143.509 137.617 143.353 138.391 143.353C139.188 143.353 139.883 143.493 140.477 143.774C141.078 144.048 141.586 144.45 142 144.981C142.422 145.505 142.754 146.138 142.996 146.88C143.238 147.622 143.406 148.462 143.5 149.399V150.478C143.414 151.407 143.246 152.243 142.996 152.985C142.754 153.728 142.422 154.36 142 154.884C141.586 155.407 141.078 155.81 140.477 156.091C139.875 156.364 139.172 156.501 138.367 156.501C137.609 156.501 136.922 156.341 136.305 156.021C135.695 155.7 135.172 155.251 134.734 154.673C134.297 154.095 133.961 153.415 133.727 152.634C133.5 151.845 133.387 150.989 133.387 150.067ZM135.555 149.821V150.067C135.555 150.7 135.617 151.294 135.742 151.849C135.875 152.403 136.074 152.892 136.34 153.313C136.613 153.735 136.961 154.067 137.383 154.31C137.805 154.544 138.309 154.661 138.895 154.661C139.613 154.661 140.207 154.509 140.676 154.204C141.145 153.899 141.516 153.497 141.789 152.997C142.07 152.497 142.289 151.954 142.445 151.368V148.544C142.359 148.114 142.227 147.7 142.047 147.302C141.875 146.896 141.648 146.536 141.367 146.224C141.094 145.903 140.754 145.649 140.348 145.462C139.941 145.274 139.465 145.181 138.918 145.181C138.324 145.181 137.812 145.306 137.383 145.556C136.961 145.798 136.613 146.134 136.34 146.563C136.074 146.985 135.875 147.478 135.742 148.04C135.617 148.595 135.555 149.188 135.555 149.821ZM154.504 154.122V147.829C154.504 147.267 154.406 146.786 154.211 146.388C154.023 145.981 153.742 145.673 153.367 145.462C152.992 145.243 152.535 145.134 151.996 145.134C151.418 145.134 150.914 145.235 150.484 145.438C150.055 145.642 149.723 145.911 149.488 146.247C149.254 146.583 149.137 146.954 149.137 147.36L146.98 147.149C146.98 146.603 147.102 146.099 147.344 145.638C147.586 145.177 147.926 144.774 148.363 144.431C148.809 144.087 149.336 143.821 149.945 143.634C150.562 143.446 151.246 143.353 151.996 143.353C152.918 143.353 153.723 143.521 154.41 143.856C155.105 144.192 155.645 144.692 156.027 145.356C156.418 146.021 156.613 146.853 156.613 147.853V153.712L154.504 154.122ZM154.984 148.813V150.454H151.926C151.246 150.454 150.676 150.563 150.215 150.782C149.754 150.993 149.406 151.274 149.172 151.626C148.938 151.97 148.82 152.345 148.82 152.751C148.82 153.126 148.906 153.466 149.078 153.771C149.258 154.067 149.523 154.306 149.875 154.485C150.234 154.657 150.688 154.743 151.234 154.743C151.656 154.743 152.086 154.665 152.523 154.509C152.969 154.345 153.375 154.138 153.742 153.888C154.117 153.63 154.418 153.36 154.645 153.079C154.879 152.798 155 152.536 155.008 152.294L156.133 153.981C155.922 154.364 155.586 154.751 155.125 155.142C154.672 155.532 154.086 155.86 153.367 156.126C152.656 156.384 151.805 156.513 150.812 156.513C149.922 156.513 149.164 156.356 148.539 156.044C147.922 155.731 147.453 155.29 147.133 154.72C146.812 154.142 146.652 153.47 146.652 152.704C146.652 152.087 146.762 151.54 146.98 151.063C147.207 150.579 147.539 150.173 147.977 149.845C148.422 149.509 148.973 149.255 149.629 149.083C150.285 148.903 151.043 148.813 151.902 148.813H154.984ZM160.527 156.513C159.566 156.513 158.719 156.356 157.984 156.044C157.25 155.731 156.633 155.294 156.133 154.731C155.633 154.161 155.254 153.489 154.996 152.716C154.738 151.942 154.609 151.095 154.609 150.173V149.657C154.609 148.728 154.742 147.88 155.008 147.114C155.281 146.341 155.66 145.673 156.145 145.11C156.637 144.548 157.211 144.114 157.867 143.81C158.523 143.497 159.238 143.345 160.012 143.353C160.855 143.353 161.598 143.485 162.238 143.751C162.887 144.009 163.43 144.388 163.867 144.888C164.305 145.38 164.633 145.978 164.852 146.681C165.078 147.384 165.191 148.173 165.191 149.048V150.431H155.77V148.767H163.012V148.403C163.012 147.81 162.914 147.267 162.719 146.774C162.523 146.282 162.207 145.888 161.77 145.591C161.332 145.286 160.746 145.134 160.012 145.134C159.473 145.134 158.996 145.251 158.582 145.485C158.168 145.72 157.816 146.044 157.527 146.458C157.246 146.872 157.031 147.353 156.883 147.899C156.734 148.446 156.66 149.032 156.66 149.657V150.173C156.66 150.806 156.734 151.399 156.883 151.954C157.031 152.501 157.262 152.985 157.574 153.407C157.887 153.821 158.285 154.146 158.77 154.38C159.262 154.614 159.848 154.731 160.527 154.731C161.457 154.731 162.207 154.591 162.777 154.31C163.348 154.021 163.828 153.743 164.219 153.478L164.98 155.071C164.809 155.204 164.531 155.388 164.148 155.622C163.773 155.849 163.285 156.056 162.684 156.243C162.082 156.423 161.363 156.513 160.527 156.513ZM175.035 152.903C175.035 152.591 174.965 152.302 174.824 152.036C174.691 151.763 174.414 151.517 173.992 151.298C173.578 151.071 172.953 150.876 172.117 150.712C171.414 150.563 170.777 150.388 170.207 150.185C169.645 149.981 169.164 149.735 168.766 149.446C168.375 149.157 168.074 148.817 167.863 148.427C167.652 148.036 167.547 147.579 167.547 147.056C167.547 146.556 167.656 146.083 167.875 145.638C168.102 145.192 168.418 144.798 168.824 144.454C169.238 144.11 169.734 143.841 170.312 143.646C170.891 143.45 171.535 143.353 172.246 143.353C173.262 143.353 174.129 143.532 174.848 143.892C175.566 144.251 176.117 144.731 176.5 145.333C176.883 145.927 177.074 146.587 177.074 147.313H174.906C174.906 146.962 174.801 146.622 174.59 146.294C174.387 145.958 174.086 145.681 173.688 145.462C173.297 145.243 172.816 145.134 172.246 145.134C171.645 145.134 171.156 145.228 170.781 145.415C170.414 145.595 170.145 145.825 169.973 146.106C169.809 146.388 169.727 146.685 169.727 146.997C169.727 147.231 169.766 147.442 169.844 147.63C169.93 147.81 170.078 147.978 170.289 148.134C170.5 148.282 170.797 148.423 171.18 148.556C171.562 148.688 172.051 148.821 172.645 148.954C173.684 149.188 174.539 149.47 175.211 149.798C175.883 150.126 176.383 150.528 176.711 151.005C177.039 151.481 177.203 152.06 177.203 152.739C177.203 153.294 177.086 153.802 176.852 154.263C176.625 154.724 176.293 155.122 175.855 155.458C175.426 155.786 174.91 156.044 174.309 156.231C173.715 156.411 173.047 156.501 172.305 156.501C171.188 156.501 170.242 156.302 169.469 155.903C168.695 155.505 168.109 154.989 167.711 154.356C167.312 153.724 167.113 153.056 167.113 152.353H169.293C169.324 152.946 169.496 153.419 169.809 153.771C170.121 154.114 170.504 154.36 170.957 154.509C171.41 154.649 171.859 154.72 172.305 154.72C172.898 154.72 173.395 154.642 173.793 154.485C174.199 154.329 174.508 154.114 174.719 153.841C174.93 153.567 175.035 153.255 175.035 152.903ZM185.359 143.587V145.251H178.504V143.587H185.359ZM180.824 140.505H182.992V153.126C182.992 153.556 183.059 153.88 183.191 154.099C183.324 154.317 183.496 154.462 183.707 154.532C183.918 154.603 184.145 154.638 184.387 154.638C184.566 154.638 184.754 154.622 184.949 154.591C185.152 154.552 185.305 154.521 185.406 154.497L185.418 156.267C185.246 156.321 185.02 156.372 184.738 156.419C184.465 156.474 184.133 156.501 183.742 156.501C183.211 156.501 182.723 156.396 182.277 156.185C181.832 155.974 181.477 155.622 181.211 155.13C180.953 154.63 180.824 153.958 180.824 153.114V140.505ZM193.164 156.501C192.281 156.501 191.48 156.353 190.762 156.056C190.051 155.751 189.438 155.325 188.922 154.778C188.414 154.231 188.023 153.583 187.75 152.833C187.477 152.083 187.34 151.263 187.34 150.372V149.88C187.34 148.849 187.492 147.931 187.797 147.126C188.102 146.313 188.516 145.626 189.039 145.063C189.562 144.501 190.156 144.075 190.82 143.786C191.484 143.497 192.172 143.353 192.883 143.353C193.789 143.353 194.57 143.509 195.227 143.821C195.891 144.134 196.434 144.571 196.855 145.134C197.277 145.688 197.59 146.345 197.793 147.103C197.996 147.853 198.098 148.673 198.098 149.563V150.536H188.629V148.767H195.93V148.603C195.898 148.04 195.781 147.493 195.578 146.962C195.383 146.431 195.07 145.993 194.641 145.649C194.211 145.306 193.625 145.134 192.883 145.134C192.391 145.134 191.938 145.239 191.523 145.45C191.109 145.653 190.754 145.958 190.457 146.364C190.16 146.771 189.93 147.267 189.766 147.853C189.602 148.438 189.52 149.114 189.52 149.88V150.372C189.52 150.974 189.602 151.54 189.766 152.071C189.938 152.595 190.184 153.056 190.504 153.454C190.832 153.853 191.227 154.165 191.688 154.392C192.156 154.618 192.688 154.731 193.281 154.731C194.047 154.731 194.695 154.575 195.227 154.263C195.758 153.95 196.223 153.532 196.621 153.009L197.934 154.052C197.66 154.466 197.312 154.86 196.891 155.235C196.469 155.61 195.949 155.915 195.332 156.149C194.723 156.384 194 156.501 193.164 156.501ZM202.797 145.579V156.267H200.629V143.587H202.738L202.797 145.579ZM206.758 143.517L206.746 145.532C206.566 145.493 206.395 145.47 206.23 145.462C206.074 145.446 205.895 145.438 205.691 145.438C205.191 145.438 204.75 145.517 204.367 145.673C203.984 145.829 203.66 146.048 203.395 146.329C203.129 146.61 202.918 146.946 202.762 147.337C202.613 147.72 202.516 148.142 202.469 148.603L201.859 148.954C201.859 148.188 201.934 147.47 202.082 146.798C202.238 146.126 202.477 145.532 202.797 145.017C203.117 144.493 203.523 144.087 204.016 143.798C204.516 143.501 205.109 143.353 205.797 143.353C205.953 143.353 206.133 143.372 206.336 143.411C206.539 143.442 206.68 143.478 206.758 143.517Z" fill="#6F4E37"/>
</g>
<defs>
<clipPath id="clip0_961_8276">
<rect width="215" height="192" fill="white"/>
</clipPath>
<clipPath id="clip1_961_8276">
<rect width="108" height="74.5333" fill="white" transform="translate(53.5 29.7333)"/>
</clipPath>
</defs>
</svg>
