<svg width="215" height="275" viewBox="0 0 215 275" fill="none" xmlns="http://www.w3.org/2000/svg">
<path d="M26.7383 257.637V262.559H34.25V257.637C34.25 256.934 34.4062 256.406 34.7188 256.055C35.0391 255.703 35.457 255.527 35.9727 255.527C36.4961 255.527 36.918 255.703 37.2383 256.055C37.5664 256.398 37.7305 256.926 37.7305 257.637V271.172C37.7305 271.883 37.5664 272.414 37.2383 272.766C36.9102 273.117 36.4883 273.293 35.9727 273.293C35.4492 273.293 35.0312 273.117 34.7188 272.766C34.4062 272.406 34.25 271.875 34.25 271.172V265.395H26.7383V271.172C26.7383 271.883 26.5742 272.414 26.2461 272.766C25.918 273.117 25.4961 273.293 24.9805 273.293C24.457 273.293 24.0391 273.117 23.7266 272.766C23.4141 272.406 23.2578 271.875 23.2578 271.172V257.637C23.2578 256.934 23.4102 256.406 23.7148 256.055C24.0273 255.703 24.4492 255.527 24.9805 255.527C25.5039 255.527 25.9258 255.703 26.2461 256.055C26.5742 256.398 26.7383 256.926 26.7383 257.637ZM41.4922 265.898V257.637C41.4922 256.934 41.6484 256.406 41.9609 256.055C42.2812 255.703 42.6992 255.527 43.2148 255.527C43.7539 255.527 44.1797 255.703 44.4922 256.055C44.8125 256.406 44.9727 256.934 44.9727 257.637V266.086C44.9727 267.047 45.0781 267.852 45.2891 268.5C45.5078 269.141 45.8906 269.641 46.4375 270C46.9844 270.352 47.75 270.527 48.7344 270.527C50.0938 270.527 51.0547 270.168 51.6172 269.449C52.1797 268.723 52.4609 267.625 52.4609 266.156V257.637C52.4609 256.926 52.6172 256.398 52.9297 256.055C53.2422 255.703 53.6602 255.527 54.1836 255.527C54.707 255.527 55.1289 255.703 55.4492 256.055C55.7773 256.398 55.9414 256.926 55.9414 257.637V265.898C55.9414 267.242 55.8086 268.363 55.543 269.262C55.2852 270.16 54.793 270.949 54.0664 271.629C53.4414 272.207 52.7148 272.629 51.8867 272.895C51.0586 273.16 50.0898 273.293 48.9805 273.293C47.6602 273.293 46.5234 273.152 45.5703 272.871C44.6172 272.582 43.8398 272.141 43.2383 271.547C42.6367 270.945 42.1953 270.18 41.9141 269.25C41.6328 268.312 41.4922 267.195 41.4922 265.898ZM64.2383 257.613L70.9297 267.738V257.52C70.9297 256.855 71.0703 256.359 71.3516 256.031C71.6406 255.695 72.0273 255.527 72.5117 255.527C73.0117 255.527 73.4062 255.695 73.6953 256.031C73.9844 256.359 74.1289 256.855 74.1289 257.52V271.031C74.1289 272.539 73.5039 273.293 72.2539 273.293C71.9414 273.293 71.6602 273.246 71.4102 273.152C71.1602 273.066 70.9258 272.926 70.707 272.73C70.4883 272.535 70.2852 272.309 70.0977 272.051C69.9102 271.785 69.7227 271.516 69.5352 271.242L63.0078 261.234V271.301C63.0078 271.957 62.8555 272.453 62.5508 272.789C62.2461 273.125 61.8555 273.293 61.3789 273.293C60.8867 273.293 60.4922 273.125 60.1953 272.789C59.8984 272.445 59.75 271.949 59.75 271.301V258.047C59.75 257.484 59.8125 257.043 59.9375 256.723C60.0859 256.371 60.332 256.086 60.6758 255.867C61.0195 255.641 61.3906 255.527 61.7891 255.527C62.1016 255.527 62.3672 255.578 62.5859 255.68C62.8125 255.781 63.0078 255.918 63.1719 256.09C63.3438 256.262 63.5156 256.484 63.6875 256.758C63.8672 257.031 64.0508 257.316 64.2383 257.613ZM80.0938 255.82H84.6289C85.8086 255.82 86.8203 255.93 87.6641 256.148C88.5078 256.367 89.2734 256.777 89.9609 257.379C91.75 258.91 92.6445 261.238 92.6445 264.363C92.6445 265.395 92.5547 266.336 92.375 267.188C92.1953 268.039 91.918 268.809 91.543 269.496C91.168 270.176 90.6875 270.785 90.1016 271.324C89.6406 271.738 89.1367 272.07 88.5898 272.32C88.043 272.57 87.4531 272.746 86.8203 272.848C86.1953 272.949 85.4883 273 84.6992 273H80.1641C79.5312 273 79.0547 272.906 78.7344 272.719C78.4141 272.523 78.2031 272.254 78.1016 271.91C78.0078 271.559 77.9609 271.105 77.9609 270.551V257.953C77.9609 257.203 78.1289 256.66 78.4648 256.324C78.8008 255.988 79.3438 255.82 80.0938 255.82ZM81.4414 258.574V270.234H84.0781C84.6562 270.234 85.1094 270.219 85.4375 270.188C85.7656 270.156 86.1055 270.078 86.457 269.953C86.8086 269.828 87.1133 269.652 87.3711 269.426C88.5352 268.441 89.1172 266.746 89.1172 264.34C89.1172 262.645 88.8594 261.375 88.3438 260.531C87.8359 259.688 87.207 259.152 86.457 258.926C85.707 258.691 84.8008 258.574 83.7383 258.574H81.4414ZM107.023 258.504H99.1836V262.723H106.402C106.934 262.723 107.328 262.844 107.586 263.086C107.852 263.32 107.984 263.633 107.984 264.023C107.984 264.414 107.855 264.734 107.598 264.984C107.34 265.227 106.941 265.348 106.402 265.348H99.1836V270.234H107.293C107.84 270.234 108.25 270.363 108.523 270.621C108.805 270.871 108.945 271.207 108.945 271.629C108.945 272.035 108.805 272.367 108.523 272.625C108.25 272.875 107.84 273 107.293 273H97.8359C97.0781 273 96.5312 272.832 96.1953 272.496C95.8672 272.16 95.7031 271.617 95.7031 270.867V257.953C95.7031 257.453 95.7773 257.047 95.9258 256.734C96.0742 256.414 96.3047 256.184 96.6172 256.043C96.9375 255.895 97.3438 255.82 97.8359 255.82H107.023C107.578 255.82 107.988 255.945 108.254 256.195C108.527 256.438 108.664 256.758 108.664 257.156C108.664 257.562 108.527 257.891 108.254 258.141C107.988 258.383 107.578 258.504 107.023 258.504ZM114.254 257.812L118.145 269.332L122.047 257.73C122.25 257.121 122.402 256.699 122.504 256.465C122.605 256.223 122.773 256.008 123.008 255.82C123.242 255.625 123.562 255.527 123.969 255.527C124.266 255.527 124.539 255.602 124.789 255.75C125.047 255.898 125.246 256.098 125.387 256.348C125.535 256.59 125.609 256.836 125.609 257.086C125.609 257.258 125.586 257.445 125.539 257.648C125.492 257.844 125.434 258.039 125.363 258.234C125.293 258.422 125.223 258.617 125.152 258.82L120.992 270.047C120.844 270.477 120.695 270.887 120.547 271.277C120.398 271.66 120.227 272 120.031 272.297C119.836 272.586 119.574 272.824 119.246 273.012C118.926 273.199 118.531 273.293 118.062 273.293C117.594 273.293 117.195 273.199 116.867 273.012C116.547 272.832 116.285 272.594 116.082 272.297C115.887 271.992 115.715 271.648 115.566 271.266C115.418 270.883 115.27 270.477 115.121 270.047L111.031 258.914C110.961 258.711 110.887 258.512 110.809 258.316C110.738 258.121 110.676 257.91 110.621 257.684C110.574 257.457 110.551 257.266 110.551 257.109C110.551 256.711 110.711 256.348 111.031 256.02C111.352 255.691 111.754 255.527 112.238 255.527C112.832 255.527 113.25 255.711 113.492 256.078C113.742 256.438 113.996 257.016 114.254 257.812ZM139.555 258.504H131.715V262.723H138.934C139.465 262.723 139.859 262.844 140.117 263.086C140.383 263.32 140.516 263.633 140.516 264.023C140.516 264.414 140.387 264.734 140.129 264.984C139.871 265.227 139.473 265.348 138.934 265.348H131.715V270.234H139.824C140.371 270.234 140.781 270.363 141.055 270.621C141.336 270.871 141.477 271.207 141.477 271.629C141.477 272.035 141.336 272.367 141.055 272.625C140.781 272.875 140.371 273 139.824 273H130.367C129.609 273 129.062 272.832 128.727 272.496C128.398 272.16 128.234 271.617 128.234 270.867V257.953C128.234 257.453 128.309 257.047 128.457 256.734C128.605 256.414 128.836 256.184 129.148 256.043C129.469 255.895 129.875 255.82 130.367 255.82H139.555C140.109 255.82 140.52 255.945 140.785 256.195C141.059 256.438 141.195 256.758 141.195 257.156C141.195 257.562 141.059 257.891 140.785 258.141C140.52 258.383 140.109 258.504 139.555 258.504ZM148.777 257.613L155.469 267.738V257.52C155.469 256.855 155.609 256.359 155.891 256.031C156.18 255.695 156.566 255.527 157.051 255.527C157.551 255.527 157.945 255.695 158.234 256.031C158.523 256.359 158.668 256.855 158.668 257.52V271.031C158.668 272.539 158.043 273.293 156.793 273.293C156.48 273.293 156.199 273.246 155.949 273.152C155.699 273.066 155.465 272.926 155.246 272.73C155.027 272.535 154.824 272.309 154.637 272.051C154.449 271.785 154.262 271.516 154.074 271.242L147.547 261.234V271.301C147.547 271.957 147.395 272.453 147.09 272.789C146.785 273.125 146.395 273.293 145.918 273.293C145.426 273.293 145.031 273.125 144.734 272.789C144.438 272.445 144.289 271.949 144.289 271.301V258.047C144.289 257.484 144.352 257.043 144.477 256.723C144.625 256.371 144.871 256.086 145.215 255.867C145.559 255.641 145.93 255.527 146.328 255.527C146.641 255.527 146.906 255.578 147.125 255.68C147.352 255.781 147.547 255.918 147.711 256.09C147.883 256.262 148.055 256.484 148.227 256.758C148.406 257.031 148.59 257.316 148.777 257.613ZM165.887 257.637V270.141H172.941C173.504 270.141 173.934 270.277 174.23 270.551C174.535 270.824 174.688 271.168 174.688 271.582C174.688 272.004 174.539 272.348 174.242 272.613C173.945 272.871 173.512 273 172.941 273H164.539C163.781 273 163.234 272.832 162.898 272.496C162.57 272.16 162.406 271.617 162.406 270.867V257.637C162.406 256.934 162.562 256.406 162.875 256.055C163.195 255.703 163.613 255.527 164.129 255.527C164.652 255.527 165.074 255.703 165.395 256.055C165.723 256.398 165.887 256.926 165.887 257.637ZM177.125 271.172V257.637C177.125 256.934 177.285 256.406 177.605 256.055C177.926 255.703 178.34 255.527 178.848 255.527C179.371 255.527 179.793 255.703 180.113 256.055C180.441 256.398 180.605 256.926 180.605 257.637V271.172C180.605 271.883 180.441 272.414 180.113 272.766C179.793 273.117 179.371 273.293 178.848 273.293C178.348 273.293 177.934 273.117 177.605 272.766C177.285 272.406 177.125 271.875 177.125 271.172ZM200.199 266.016V269.309C200.199 269.746 200.156 270.098 200.07 270.363C199.984 270.621 199.824 270.855 199.59 271.066C199.363 271.277 199.07 271.48 198.711 271.676C197.672 272.238 196.672 272.648 195.711 272.906C194.75 273.164 193.703 273.293 192.57 273.293C191.25 273.293 190.047 273.09 188.961 272.684C187.875 272.277 186.949 271.688 186.184 270.914C185.418 270.141 184.828 269.203 184.414 268.102C184.008 267 183.805 265.77 183.805 264.41C183.805 263.074 184.004 261.852 184.402 260.742C184.801 259.633 185.387 258.691 186.16 257.918C186.934 257.145 187.875 256.555 188.984 256.148C190.094 255.734 191.352 255.527 192.758 255.527C193.914 255.527 194.938 255.684 195.828 255.996C196.719 256.301 197.441 256.688 197.996 257.156C198.551 257.625 198.969 258.121 199.25 258.645C199.531 259.168 199.672 259.633 199.672 260.039C199.672 260.477 199.508 260.852 199.18 261.164C198.859 261.469 198.473 261.621 198.02 261.621C197.77 261.621 197.527 261.562 197.293 261.445C197.066 261.328 196.875 261.164 196.719 260.953C196.289 260.281 195.926 259.773 195.629 259.43C195.332 259.086 194.93 258.797 194.422 258.562C193.922 258.328 193.281 258.211 192.5 258.211C191.695 258.211 190.977 258.352 190.344 258.633C189.711 258.906 189.168 259.309 188.715 259.84C188.27 260.363 187.926 261.008 187.684 261.773C187.449 262.539 187.332 263.387 187.332 264.316C187.332 266.332 187.793 267.883 188.715 268.969C189.645 270.055 190.938 270.598 192.594 270.598C193.398 270.598 194.152 270.492 194.855 270.281C195.566 270.07 196.285 269.77 197.012 269.379V266.59H194.316C193.668 266.59 193.176 266.492 192.84 266.297C192.512 266.102 192.348 265.77 192.348 265.301C192.348 264.918 192.484 264.602 192.758 264.352C193.039 264.102 193.418 263.977 193.895 263.977H197.844C198.328 263.977 198.738 264.02 199.074 264.105C199.41 264.191 199.68 264.383 199.883 264.68C200.094 264.977 200.199 265.422 200.199 266.016Z" fill="white"/>
<path d="M108 208C163.228 208 208 163.228 208 108C208 52.7715 163.228 8 108 8C52.7715 8 7.99994 52.7715 7.99994 108C7.99994 163.228 52.7715 208 108 208Z" stroke="white" stroke-width="10" stroke-miterlimit="10"/>
<path d="M89.472 99.5483C97.3465 99.5483 103.73 88.6804 103.73 75.2742C103.73 61.8679 97.3465 51 89.472 51C81.5976 51 75.2141 61.8679 75.2141 75.2742C75.2141 88.6804 81.5976 99.5483 89.472 99.5483Z" fill="white"/>
<path d="M124.928 99.5483C132.803 99.5483 139.186 88.6804 139.186 75.2742C139.186 61.8679 132.803 51 124.928 51C117.054 51 110.671 61.8679 110.671 75.2742C110.671 88.6804 117.054 99.5483 124.928 99.5483Z" fill="white"/>
<path d="M75.5574 122.27C81.1923 119.234 81.8753 109.195 77.083 99.8455C72.2907 90.4962 63.8378 85.3776 58.2029 88.4129C52.5679 91.4481 51.8849 101.488 56.6772 110.837C61.4695 120.186 69.9224 125.305 75.5574 122.27Z" fill="white"/>
<path d="M157.823 110.847C162.615 101.498 161.932 91.4584 156.297 88.4232C150.662 85.3879 142.209 90.5065 137.417 99.8558C132.625 109.205 133.308 119.245 138.943 122.28C144.578 125.315 153.031 120.197 157.823 110.847Z" fill="white"/>
<path d="M136.077 127.895C127.676 116.353 116.747 109.496 109.085 110.237C101.422 109.496 90.4927 116.353 82.0918 127.895C71.7437 142.141 69.1685 158.141 76.3446 163.63C80.9769 167.155 89.2679 165.996 96.915 160.604C97.9043 159.912 98.9249 159.284 100.04 158.849C101.155 158.415 102.427 158.012 103.777 157.706C105.74 157.256 108.692 156.612 114.628 157.932C115.334 158.093 116.072 158.27 116.795 158.479C118.239 158.882 119.621 159.477 120.861 160.314C129.325 165.964 137.051 167.268 141.809 163.63C148.985 158.141 146.41 142.157 136.062 127.895H136.077Z" fill="white"/>
</svg>
