<svg width="51" height="62" viewBox="0 0 51 62" fill="none" xmlns="http://www.w3.org/2000/svg">
<g clip-path="url(#clip0_1243_3401)">
<path d="M2.5437 57.1301V58.4631H4.57812V57.1301C4.57812 56.9397 4.62044 56.7969 4.70508 56.7017C4.79183 56.6064 4.90503 56.5588 5.04468 56.5588C5.18644 56.5588 5.3007 56.6064 5.38745 56.7017C5.47632 56.7948 5.52075 56.9376 5.52075 57.1301V60.7959C5.52075 60.9884 5.47632 61.1323 5.38745 61.2275C5.29858 61.3228 5.18433 61.3704 5.04468 61.3704C4.90291 61.3704 4.78971 61.3228 4.70508 61.2275C4.62044 61.1302 4.57812 60.9863 4.57812 60.7959V59.2312H2.5437V60.7959C2.5437 60.9884 2.49927 61.1323 2.4104 61.2275C2.32153 61.3228 2.20728 61.3704 2.06763 61.3704C1.92586 61.3704 1.81266 61.3228 1.72803 61.2275C1.64339 61.1302 1.60107 60.9863 1.60107 60.7959V57.1301C1.60107 56.9397 1.64233 56.7969 1.72485 56.7017C1.80949 56.6064 1.92375 56.5588 2.06763 56.5588C2.20939 56.5588 2.32365 56.6064 2.4104 56.7017C2.49927 56.7948 2.5437 56.9376 2.5437 57.1301ZM6.53955 59.3677V57.1301C6.53955 56.9397 6.58187 56.7969 6.6665 56.7017C6.75326 56.6064 6.86646 56.5588 7.0061 56.5588C7.1521 56.5588 7.26742 56.6064 7.35205 56.7017C7.4388 56.7969 7.48218 56.9397 7.48218 57.1301V59.4185C7.48218 59.6787 7.51074 59.8966 7.56787 60.0723C7.62712 60.2458 7.73079 60.3812 7.87891 60.4785C8.02702 60.5737 8.23438 60.6213 8.50098 60.6213C8.86914 60.6213 9.12939 60.524 9.28174 60.3293C9.43408 60.1326 9.51025 59.8353 9.51025 59.4375V57.1301C9.51025 56.9376 9.55257 56.7948 9.63721 56.7017C9.72184 56.6064 9.83504 56.5588 9.97681 56.5588C10.1186 56.5588 10.2328 56.6064 10.3196 56.7017C10.4084 56.7948 10.4529 56.9376 10.4529 57.1301V59.3677C10.4529 59.7316 10.4169 60.0352 10.345 60.2786C10.2751 60.5219 10.1418 60.7356 9.94507 60.9197C9.7758 61.0763 9.57902 61.1905 9.35474 61.2625C9.13045 61.3344 8.86808 61.3704 8.56763 61.3704C8.21004 61.3704 7.90218 61.3323 7.64404 61.2561C7.3859 61.1778 7.17537 61.0583 7.01245 60.8975C6.84953 60.7345 6.72998 60.5272 6.65381 60.2754C6.57764 60.0215 6.53955 59.7189 6.53955 59.3677ZM12.7 57.1238L14.5122 59.866V57.0984C14.5122 56.9185 14.5503 56.7842 14.6265 56.6953C14.7048 56.6043 14.8095 56.5588 14.9407 56.5588C15.0761 56.5588 15.1829 56.6043 15.2612 56.6953C15.3395 56.7842 15.3787 56.9185 15.3787 57.0984V60.7578C15.3787 61.1662 15.2094 61.3704 14.8708 61.3704C14.7862 61.3704 14.71 61.3577 14.6423 61.3323C14.5746 61.309 14.5111 61.2709 14.4519 61.218C14.3927 61.1651 14.3376 61.1038 14.2869 61.0339C14.2361 60.962 14.1853 60.889 14.1345 60.8149L12.3667 58.1045V60.8308C12.3667 61.0085 12.3254 61.1429 12.2429 61.2339C12.1604 61.3249 12.0546 61.3704 11.9255 61.3704C11.7922 61.3704 11.6854 61.3249 11.605 61.2339C11.5246 61.1408 11.4844 61.0064 11.4844 60.8308V57.2412C11.4844 57.0889 11.5013 56.9693 11.5352 56.8826C11.5754 56.7874 11.642 56.7101 11.7351 56.6509C11.8282 56.5895 11.9287 56.5588 12.0366 56.5588C12.1213 56.5588 12.1932 56.5726 12.2524 56.6001C12.3138 56.6276 12.3667 56.6646 12.4111 56.7112C12.4577 56.7577 12.5042 56.818 12.5508 56.8921C12.5994 56.9661 12.6492 57.0434 12.7 57.1238ZM16.9941 56.6382H18.2224C18.5419 56.6382 18.8159 56.6678 19.0444 56.7271C19.2729 56.7863 19.4803 56.8974 19.6665 57.0603C20.151 57.475 20.3933 58.1056 20.3933 58.9519C20.3933 59.2312 20.369 59.4862 20.3203 59.7168C20.2716 59.9474 20.1965 60.1558 20.095 60.342C19.9934 60.5261 19.8633 60.6912 19.7046 60.8372C19.5798 60.9493 19.4433 61.0392 19.2952 61.1069C19.1471 61.1746 18.9873 61.2222 18.8159 61.2498C18.6466 61.2773 18.4552 61.291 18.2415 61.291H17.0132C16.8418 61.291 16.7127 61.2656 16.626 61.2148C16.5392 61.1619 16.4821 61.0889 16.4546 60.9958C16.4292 60.9006 16.4165 60.7779 16.4165 60.6277V57.2158C16.4165 57.0127 16.462 56.8656 16.553 56.7747C16.644 56.6837 16.791 56.6382 16.9941 56.6382ZM17.3591 57.384V60.542H18.0732C18.2298 60.542 18.3525 60.5378 18.4414 60.5293C18.5303 60.5208 18.6223 60.4997 18.7175 60.4658C18.8127 60.432 18.8953 60.3844 18.9651 60.323C19.2804 60.0564 19.438 59.5972 19.438 58.9456C19.438 58.4864 19.3682 58.1426 19.2285 57.9141C19.091 57.6855 18.9207 57.5406 18.7175 57.4792C18.5144 57.4158 18.269 57.384 17.9812 57.384H17.3591ZM24.2876 57.365H22.1643V58.5076H24.1194C24.2633 58.5076 24.3701 58.5404 24.4399 58.606C24.5119 58.6694 24.5479 58.7541 24.5479 58.8599C24.5479 58.9657 24.5129 59.0524 24.4431 59.1201C24.3733 59.1857 24.2654 59.2185 24.1194 59.2185H22.1643V60.542H24.3606C24.5087 60.542 24.6198 60.5769 24.6938 60.6467C24.77 60.7144 24.8081 60.8054 24.8081 60.9197C24.8081 61.0297 24.77 61.1196 24.6938 61.1895C24.6198 61.2572 24.5087 61.291 24.3606 61.291H21.7993C21.5941 61.291 21.446 61.2455 21.355 61.1545C21.2661 61.0636 21.2217 60.9165 21.2217 60.7134V57.2158C21.2217 57.0804 21.2418 56.9704 21.282 56.8857C21.3222 56.799 21.3846 56.7366 21.4692 56.6985C21.556 56.6583 21.666 56.6382 21.7993 56.6382H24.2876C24.4378 56.6382 24.5489 56.672 24.6208 56.7397C24.6949 56.8053 24.7319 56.8921 24.7319 57C24.7319 57.11 24.6949 57.1989 24.6208 57.2666C24.5489 57.3322 24.4378 57.365 24.2876 57.365ZM26.2458 57.1777L27.2996 60.2976L28.3564 57.1555C28.4115 56.9905 28.4527 56.8762 28.4802 56.8127C28.5077 56.7472 28.5532 56.689 28.6167 56.6382C28.6802 56.5853 28.7669 56.5588 28.877 56.5588C28.9574 56.5588 29.0314 56.5789 29.0991 56.6191C29.1689 56.6593 29.2229 56.7133 29.261 56.781C29.3012 56.8466 29.3213 56.9132 29.3213 56.981C29.3213 57.0275 29.3149 57.0783 29.3022 57.1333C29.2896 57.1862 29.2737 57.2391 29.2546 57.292C29.2356 57.3428 29.2166 57.3957 29.1975 57.4507L28.0708 60.4912C28.0306 60.6076 27.9904 60.7187 27.9502 60.8245C27.91 60.9281 27.8634 61.0202 27.8105 61.1006C27.7576 61.1789 27.6868 61.2434 27.5979 61.2942C27.5111 61.345 27.4043 61.3704 27.2773 61.3704C27.1504 61.3704 27.0425 61.345 26.9536 61.2942C26.8669 61.2455 26.796 61.181 26.741 61.1006C26.6881 61.0181 26.6415 60.925 26.6013 60.8213C26.5611 60.7176 26.5209 60.6076 26.4807 60.4912L25.373 57.4761C25.354 57.4211 25.3339 57.3671 25.3127 57.3142C25.2937 57.2613 25.2768 57.2042 25.262 57.1428C25.2493 57.0815 25.2429 57.0296 25.2429 56.9873C25.2429 56.8794 25.2863 56.781 25.373 56.6921C25.4598 56.6033 25.5688 56.5588 25.7 56.5588C25.8608 56.5588 25.974 56.6086 26.0396 56.708C26.1073 56.8053 26.176 56.9619 26.2458 57.1777ZM33.0981 57.365H30.9749V58.5076H32.9299C33.0738 58.5076 33.1807 58.5404 33.2505 58.606C33.3224 58.6694 33.3584 58.7541 33.3584 58.8599C33.3584 58.9657 33.3235 59.0524 33.2537 59.1201C33.1838 59.1857 33.0759 59.2185 32.9299 59.2185H30.9749V60.542H33.1711C33.3193 60.542 33.4303 60.5769 33.5044 60.6467C33.5806 60.7144 33.6187 60.8054 33.6187 60.9197C33.6187 61.0297 33.5806 61.1196 33.5044 61.1895C33.4303 61.2572 33.3193 61.291 33.1711 61.291H30.6099C30.4046 61.291 30.2565 61.2455 30.1655 61.1545C30.0767 61.0636 30.0322 60.9165 30.0322 60.7134V57.2158C30.0322 57.0804 30.0523 56.9704 30.0925 56.8857C30.1327 56.799 30.1951 56.7366 30.2798 56.6985C30.3665 56.6583 30.4766 56.6382 30.6099 56.6382H33.0981C33.2484 56.6382 33.3595 56.672 33.4314 56.7397C33.5055 56.8053 33.5425 56.8921 33.5425 57C33.5425 57.11 33.5055 57.1989 33.4314 57.2666C33.3595 57.3322 33.2484 57.365 33.0981 57.365ZM35.5959 57.1238L37.4082 59.866V57.0984C37.4082 56.9185 37.4463 56.7842 37.5225 56.6953C37.6007 56.6043 37.7055 56.5588 37.8367 56.5588C37.9721 56.5588 38.0789 56.6043 38.1572 56.6953C38.2355 56.7842 38.2747 56.9185 38.2747 57.0984V60.7578C38.2747 61.1662 38.1054 61.3704 37.7668 61.3704C37.6822 61.3704 37.606 61.3577 37.5383 61.3323C37.4706 61.309 37.4071 61.2709 37.3479 61.218C37.2887 61.1651 37.2336 61.1038 37.1829 61.0339C37.1321 60.962 37.0813 60.889 37.0305 60.8149L35.2627 58.1045V60.8308C35.2627 61.0085 35.2214 61.1429 35.1389 61.2339C35.0564 61.3249 34.9506 61.3704 34.8215 61.3704C34.6882 61.3704 34.5814 61.3249 34.501 61.2339C34.4206 61.1408 34.3804 61.0064 34.3804 60.8308V57.2412C34.3804 57.0889 34.3973 56.9693 34.4312 56.8826C34.4714 56.7874 34.538 56.7101 34.6311 56.6509C34.7242 56.5895 34.8247 56.5588 34.9326 56.5588C35.0173 56.5588 35.0892 56.5726 35.1484 56.6001C35.2098 56.6276 35.2627 56.6646 35.3071 56.7112C35.3537 56.7577 35.4002 56.818 35.4468 56.8921C35.4954 56.9661 35.5452 57.0434 35.5959 57.1238ZM40.2297 57.1301V60.5166H42.1404C42.2927 60.5166 42.4091 60.5536 42.4895 60.6277C42.572 60.7017 42.6133 60.7948 42.6133 60.907C42.6133 61.0212 42.5731 61.1143 42.4927 61.1863C42.4123 61.2561 42.2948 61.291 42.1404 61.291H39.8647C39.6595 61.291 39.5114 61.2455 39.4204 61.1545C39.3315 61.0636 39.2871 60.9165 39.2871 60.7134V57.1301C39.2871 56.9397 39.3294 56.7969 39.4141 56.7017C39.5008 56.6064 39.614 56.5588 39.7537 56.5588C39.8954 56.5588 40.0097 56.6064 40.0964 56.7017C40.1853 56.7948 40.2297 56.9376 40.2297 57.1301ZM43.2734 60.7959V57.1301C43.2734 56.9397 43.3168 56.7969 43.4036 56.7017C43.4903 56.6064 43.6025 56.5588 43.74 56.5588C43.8818 56.5588 43.996 56.6064 44.0828 56.7017C44.1716 56.7948 44.2161 56.9376 44.2161 57.1301V60.7959C44.2161 60.9884 44.1716 61.1323 44.0828 61.2275C43.996 61.3228 43.8818 61.3704 43.74 61.3704C43.6046 61.3704 43.4924 61.3228 43.4036 61.2275C43.3168 61.1302 43.2734 60.9863 43.2734 60.7959ZM49.5227 59.3994V60.2913C49.5227 60.4097 49.5111 60.505 49.4878 60.5769C49.4645 60.6467 49.4211 60.7102 49.3577 60.7673C49.2963 60.8245 49.217 60.8795 49.1196 60.9324C48.8382 61.0847 48.5674 61.1958 48.3071 61.2656C48.0469 61.3354 47.7633 61.3704 47.4565 61.3704C47.099 61.3704 46.7731 61.3153 46.479 61.2053C46.1849 61.0953 45.9342 60.9355 45.7268 60.7261C45.5194 60.5166 45.3597 60.2627 45.2476 59.9644C45.1375 59.666 45.0825 59.3328 45.0825 58.9646C45.0825 58.6028 45.1365 58.2716 45.2444 57.9712C45.3523 57.6707 45.511 57.4158 45.7205 57.2063C45.9299 56.9968 46.1849 56.8371 46.4854 56.7271C46.7858 56.6149 47.1265 56.5588 47.5073 56.5588C47.8205 56.5588 48.0977 56.6012 48.3389 56.6858C48.5801 56.7683 48.7758 56.873 48.926 57C49.0763 57.127 49.1895 57.2613 49.2656 57.4031C49.3418 57.5448 49.3799 57.6707 49.3799 57.7808C49.3799 57.8993 49.3354 58.0008 49.2466 58.0854C49.1598 58.168 49.0551 58.2092 48.9324 58.2092C48.8647 58.2092 48.7991 58.1934 48.7356 58.1616C48.6742 58.1299 48.6224 58.0854 48.5801 58.0283C48.4637 57.8464 48.3653 57.7088 48.2849 57.6157C48.2045 57.5226 48.0955 57.4443 47.958 57.3809C47.8226 57.3174 47.6491 57.2856 47.4375 57.2856C47.2196 57.2856 47.0249 57.3237 46.8535 57.3999C46.6821 57.474 46.5351 57.5829 46.4124 57.7268C46.2917 57.8686 46.1986 58.0431 46.1331 58.2505C46.0696 58.4578 46.0378 58.6874 46.0378 58.9392C46.0378 59.4851 46.1627 59.9051 46.4124 60.1992C46.6641 60.4933 47.0143 60.6404 47.4629 60.6404C47.6808 60.6404 47.885 60.6118 48.0754 60.5547C48.268 60.4976 48.4626 60.4161 48.6594 60.3103V59.5549H47.9294C47.7538 59.5549 47.6205 59.5285 47.5295 59.4756C47.4407 59.4227 47.3962 59.3328 47.3962 59.2058C47.3962 59.1021 47.4333 59.0164 47.5073 58.9487C47.5835 58.881 47.6861 58.8472 47.8152 58.8472H48.8848C49.016 58.8472 49.127 58.8588 49.218 58.8821C49.309 58.9054 49.382 58.9572 49.437 59.0376C49.4941 59.118 49.5227 59.2386 49.5227 59.3994Z" fill="white"/>
<path d="M24.5 47C36.9264 47 47 36.9264 47 24.5C47 12.0736 36.9264 2 24.5 2C12.0736 2 2 12.0736 2 24.5C2 36.9264 12.0736 47 24.5 47Z" stroke="white" stroke-width="2.09302" stroke-miterlimit="10"/>
<path d="M20.4494 23.1611C22.2435 23.1611 23.698 20.8864 23.698 18.0805C23.698 15.2746 22.2435 13 20.4494 13C18.6552 13 17.2007 15.2746 17.2007 18.0805C17.2007 20.8864 18.6552 23.1611 20.4494 23.1611Z" fill="white"/>
<path d="M28.5279 23.1611C30.3221 23.1611 31.7765 20.8864 31.7765 18.0805C31.7765 15.2746 30.3221 13 28.5279 13C26.7337 13 25.2793 15.2746 25.2793 18.0805C25.2793 20.8864 26.7337 23.1611 28.5279 23.1611Z" fill="white"/>
<path d="M17.2789 27.9164C18.5628 27.2811 18.7184 25.1798 17.6265 23.223C16.5346 21.2662 14.6086 20.1949 13.3247 20.8302C12.0408 21.4655 11.8852 23.5668 12.9771 25.5236C14.069 27.4803 15.995 28.5517 17.2789 27.9164Z" fill="white"/>
<path d="M36.0229 25.5255C37.1148 23.5687 36.9592 21.4674 35.6753 20.8322C34.3914 20.1969 32.4654 21.2682 31.3735 23.225C30.2816 25.1818 30.4372 27.2831 31.7211 27.9183C33.005 28.5536 34.931 27.4823 36.0229 25.5255Z" fill="white"/>
<path d="M31.0683 29.094C29.1541 26.6784 26.664 25.2431 24.918 25.3981C23.1721 25.2431 20.6819 26.6784 18.7678 29.094C16.41 32.0756 15.8233 35.4244 17.4583 36.5733C18.5138 37.3111 20.4029 37.0685 22.1452 35.9399C22.3706 35.795 22.6032 35.6636 22.8572 35.5727C23.1112 35.4817 23.401 35.3975 23.7087 35.3335C24.156 35.2391 24.8286 35.1044 26.181 35.3806C26.342 35.4143 26.5101 35.4514 26.6747 35.4952C27.0039 35.5794 27.3187 35.7041 27.6014 35.8793C29.5298 37.0618 31.2901 37.3347 32.3741 36.5733C34.0092 35.4244 33.4224 32.079 31.0647 29.094H31.0683Z" fill="white"/>
</g>
<defs>
<clipPath id="clip0_1243_3401">
<rect width="51" height="62" fill="white"/>
</clipPath>
</defs>
</svg>
