<svg width="74" height="74" viewBox="0 0 74 74" fill="none" xmlns="http://www.w3.org/2000/svg">
<path fill-rule="evenodd" clip-rule="evenodd" d="M16.375 34.7083C16.375 26.0665 16.375 21.7444 19.0608 19.0608C21.7467 16.3773 26.0665 16.375 34.7083 16.375H39.2917C47.9335 16.375 52.2556 16.375 54.9392 19.0608C57.6227 21.7467 57.625 26.0665 57.625 34.7083V39.2917C57.625 47.9335 57.625 52.2556 54.9392 54.9392C52.2533 57.6227 47.9335 57.625 39.2917 57.625H34.7083C26.0665 57.625 21.7444 57.625 19.0608 54.9392C16.3773 52.2533 16.375 47.9335 16.375 39.2917V34.7083ZM50.75 26.6875C50.75 27.5992 50.3878 28.4735 49.7432 29.1182C49.0985 29.7628 48.2242 30.125 47.3125 30.125C46.4008 30.125 45.5265 29.7628 44.8818 29.1182C44.2372 28.4735 43.875 27.5992 43.875 26.6875C43.875 25.7758 44.2372 24.9015 44.8818 24.2568C45.5265 23.6122 46.4008 23.25 47.3125 23.25C48.2242 23.25 49.0985 23.6122 49.7432 24.2568C50.3878 24.9015 50.75 25.7758 50.75 26.6875ZM41.5833 39.2917C41.5833 40.5072 41.1004 41.673 40.2409 42.5326C39.3814 43.3921 38.2156 43.875 37 43.875C35.7844 43.875 34.6186 43.3921 33.7591 42.5326C32.8996 41.673 32.4167 40.5072 32.4167 39.2917C32.4167 38.0761 32.8996 36.9103 33.7591 36.0508C34.6186 35.1912 35.7844 34.7083 37 34.7083C38.2156 34.7083 39.3814 35.1912 40.2409 36.0508C41.1004 36.9103 41.5833 38.0761 41.5833 39.2917ZM46.1667 39.2917C46.1667 41.7228 45.2009 44.0544 43.4818 45.7735C41.7627 47.4926 39.4312 48.4583 37 48.4583C34.5688 48.4583 32.2373 47.4926 30.5182 45.7735C28.7991 44.0544 27.8333 41.7228 27.8333 39.2917C27.8333 36.8605 28.7991 34.5289 30.5182 32.8099C32.2373 31.0908 34.5688 30.125 37 30.125C39.4312 30.125 41.7627 31.0908 43.4818 32.8099C45.2009 34.5289 46.1667 36.8605 46.1667 39.2917Z" fill="white"/>
</svg>
