<?xml version="1.0" encoding="UTF-8"?>
<svg id="Layer_2" data-name="Layer 2" xmlns="http://www.w3.org/2000/svg" viewBox="0 0 503.67 97.75">
  <defs>
    <style>
      .cls-1 {
        fill: #fff;
      }
    </style>
  </defs>
  <g id="Layer_1-2" data-name="Layer 1">
    <path class="cls-1" d="M503.67,83.79v11.24H187.94c2.77-3.72,5.99-7.3,8.35-11.24h307.38Z"/>
    <path class="cls-1" d="M130.3,83.79c-3.1,3.98-6.7,7.63-10.23,11.24H0v-11.24h130.3Z"/>
    <path class="cls-1" d="M105.66,38.39c.58,1.7,2.17,2.66,2.83,4.46,2.65,7.17-2.07,15.71-2.79,22.86-.87,8.68,8.27,11.98,14.57,6.83.25,1.6-1.33,2.22-2.51,2.7-10.13,4.13-17.46-5.44-16.69-14.98.42-5.22,5.01-14.08,4.07-18.65-1.02-4.95-5.85-1.43-8.89-3.59-4.63,7.29-8.19,16.08-14.4,22.24-9.33,9.25-29.71,18.79-42.46,12.36-4.55-2.29-7.41-7.36-5.05-12.27,1.75-3.65,8.56-4,8.25.69-.29,4.39-6.03,6.03-6.88,1.09-2.45,3.9,2,8.55,5.51,9.91,2.93,1.13,7.6,1.56,10.72,1.28,31.16-2.74,37.52-54.12,66.67-62.41.88.81-4.07,2.97-4.72,3.41-6.86,4.57-10.91,11.75-15.08,18.7-.34.57-2.2,3.39-1.91,3.71,7.33,2.15,12.29.13,17.96-4.36,13.12-10.41,25.06-28.94,44.44-26.42,10.17,1.32,11.37,13.05,4.84,19.74-1.61,1.65-9.92,6.85-11.89,6.46-.33-.07-.84-.61-.22-1.04,1.12-.78,3.94-1.46,5.56-2.37,17.39-9.82,6.71-29.32-12.37-18.58-13.67,7.7-22.05,26.44-39.55,28.24Z"/>
    <path class="cls-1" d="M275.22,20.48l-20.88,34.15c6.55,2.55,9.8-5.17,14.19-8.54s9.87-1.99,8.17,4.4c-.99,3.71-7.5,7.61-8.09,3.43-.4-2.85,3.71-3.97,4.25-5.21.99-2.27-.51-2.92-2.54-2.08-.99.41-9.42,8.34-9.7,9.07s2.83,1.78,3.14,2.68c3.06,3.7-1.3,8.91-2.31,12.73,1.23,3.32,6.02-1.01,7.54-2.5,3.33-3.28,6.38-9.41,9.3-12.17.24-.22.78-.42,1.12-.55.57.74-4.94,7.84-5.85,8.94-2.96,3.56-9.24,11.05-14.4,7.72-5.59-3.61.31-9.4,1.19-13.43,1-4.56-5.08-.89-7.21-2.8l-9.43,16.64h-6.06l31.11-52.48h6.47Z"/>
    <path class="cls-1" d="M417.22,20.9l-25.39,41.1c-.79,1.64-4.92,8.62-3.03,9.94,2.53,1.77,7.42-3.5,9.01-5.23,1.44-1.57,7.74-10.52,8.35-10.83.67-.34.73.24.45.87-1.46,3.26-9.24,12.27-12.16,14.53-7,5.43-10.86-.35-9.81-7.49-3.72,3.6-9.77,13.69-15.65,7.91-3.28-3.22-2.65-9.38-.7-13.19,2.44-4.78,10.56-10.47,15.53-12.42,3-1.17,9.83-3.56,9.6,1.65l.83.22,16.09-27.06c1.31-1.09,5.02.55,6.89,0ZM392.06,45.99c-.55-.55-1.76-.55-2.51-.44-5.84.85-16.29,14.08-18.06,19.51-1.1,3.39-1.29,9.37,3.76,6.66,4.36-2.34,12.11-13.01,14.61-17.49,1-1.79,3.88-6.55,2.19-8.24Z"/>
    <path class="cls-1" d="M184.6,44.22h6.47l.62.62-.62.62h-8.35c-7.95,14.26-14.81,30.5-27.14,41.66-5.77,5.22-15.61,11.97-23.81,10.39-1.56-.3-2.19-1.68.29-1.54,3.86.2,5.26.73,9.09-.74,6.13-2.35,11.46-8.03,14.96-13.4,7.34-11.26,13.04-24.26,20.12-35.75.32-1.06-2.38-.58-3.13-.61-.64-.03-1.65.39-1.45-.62,1.18-1.46,4.64-.06,5.76-.72.2-.12,1.99-3.42,2.42-4.04,4.17-6.07,14.39-19.64,21.17-22.2,5.89-2.23,6.22,2.04,4.26,6.33-3.63,7.96-14.16,14.48-20.66,20ZM185.01,41.72c.56.46,5.9-4.09,6.69-4.78,3.45-3.02,11.17-10.68,12.88-14.64.75-1.73,1.55-4.17-1.36-3.89-6.1.58-15.7,17.95-18.21,23.31Z"/>
    <path class="cls-1" d="M211.74,44.22h6.06c.14,0,.62.55,1.04.42.12.16-.55.83-.63.83h-8.35c-6.69,11.78-12.16,24.48-20.88,34.99-5.4,6.52-16.03,16-24.69,17.03-1.73.2-6.75.78-6.84-1.62,8.67,2.14,15.75-2.4,21.51-8.33,9.53-12.89,16.25-27.67,24.42-41.45.11-.85-.03-.54-.61-.62-1.41-.19-3.01.31-4.39-.21,1.44-1.94,4.12-.64,6.18-1.13,2.2-3.86,4.7-7.61,7.44-11.11,3.38-4.32,13.18-15.52,18.75-15.49,5.16.03,1.93,6.12.3,8.67-4.82,7.54-12.49,12.51-19.31,18.02ZM211.74,41.72c.79.61,5.98-3.81,6.88-4.59,2.85-2.49,14.32-13.92,14.01-17.26s-4.77-.41-6.06.62c-6.53,5.17-10.56,14.26-14.84,21.23Z"/>
    <path class="cls-1" d="M308.64,45.06h6.68c-2.85,6.12-7.09,11.54-10.24,17.48-1.04,1.97-3.63,6.27-2.94,8.35.76,2.3,3.19,1,4.62-.02,1.93-1.37,5.83-5.92,7.53-7.9,1.52-1.79,3.53-5.39,5-6.68.36-.32.46-.54,1.05-.41.04.33.01.62-.09.95-.39,1.27-6.16,8.25-7.44,9.66-2.95,3.26-8.48,9.69-13.03,5.64-2.32-2.06-1.23-4.87-1.79-7.51-1.68.04-5.91,8.29-10.43,8.76-6.49.67-8.08-6.26-7.22-11.37,1.13-6.67,11.11-13.6,17.03-15.92,3.42-1.34,8.23-3.18,10.22,1.03l1.04-2.07ZM305.61,45.99c-1.36-1.35-4.35.17-5.71.98-5.48,3.22-15.74,15.52-15.52,22.04.1,3.06,2.02,3.9,4.7,2.56,3-1.5,10.08-10.63,12.14-13.72,1.37-2.04,6.49-9.78,4.4-11.86Z"/>
    <path class="cls-1" d="M162.04,45.06l-11.92,19.97c-.79,1.65-3.68,7.82.37,7.43,1.47-.14,7.17-5.99,8.42-7.4,1.83-2.07,5.27-7.68,6.88-8.97.3-.24.81-.4.85.01.06.38-.06.72-.19,1.06-.93,2.46-9.38,11.81-11.71,13.73-6.77,5.58-11.22,1.01-10.25-6.67-2.52,2.27-4.18,5.4-6.96,7.42-7.28,5.28-12.11-2.11-10.9-9.2,1.14-6.67,11.06-14,17.03-16.33,2.89-1.13,9.36-3.44,10.02,1.03l.86-.26,1.01-1.83h6.47ZM149.41,45.57c-5.81.94-16.24,14.44-17.97,19.99-1.22,3.92-.72,8.99,4.28,5.93,4.09-2.52,15.68-17.6,16.63-22.14.19-.93.32-2.52-.28-3.28-.73-.8-1.69-.65-2.65-.49Z"/>
    <path class="cls-1" d="M439.36,72.96c-.15-.64.26-.91.5-1.37,3.25-6.2,8.3-12.2,11.53-18.49.42-.82,2.56-5.31,2.59-5.79.22-3.66-3.69-.5-4.82.65-2.15,2.17-4.41,6.74-6.43,8.48-.39.33-1.04.58-1.27.08,2.69-2.7,8.04-11.73,11.91-11.9,4.47-.2,4.06,4.98,3.85,8.05-.03.47-.84.82.31.72,2.85-3.83,11.2-13.44,15.67-6.45,2.53,3.95-.02,7.9-1.87,11.46-1.32,2.53-6.41,9.73-6.51,11.87s1.2,2.2,3.07,1.78c1.72-.39,4.87-3.74,6.13-5.13,1.42-1.56,7.88-10.68,8.58-11.02s.72.43.53.95c-.6,1.65-6.51,8.62-8.05,10.3-2.89,3.15-8.71,9.39-12.92,4.55-4.99-5.73,2.85-13.87,5.78-18.75,1.36-2.26,5.53-8.84-.6-7.26s-17.06,20.04-20.81,25.91c-.27.42-.45.87-.48,1.38h-6.68Z"/>
    <path class="cls-1" d="M322.42,72.96c-.16-.65.18-.98.4-1.48,2.66-5.96,8.49-12.57,11.64-18.79.66-1.3,3.6-6.55,1.47-7.18-2.66-.78-9.16,10-11.21,11.62-.4-.03-.24-.68-.13-.96.31-.76,7.53-9.38,8.42-10.14,5.36-4.59,8.87,2.41,6.96,7.35,3.38-3.3,10.27-12.83,15.47-7.3,5.73,6.09-5.17,16.88-7.32,22.73-1.98,5.38,3.52,3.13,6.05,1.03s10.65-13.6,11.49-13.95c.52-.22.78.09.61.61-.38,1.24-4.72,6.56-5.85,7.91-3.08,3.68-9.36,11.75-14.58,7.9-7.85-5.79,5.8-18.59,7.85-24.65.21-.71-.6-1.7-1.2-1.97-3.44-1.55-9.28,5.48-11.25,7.92-4.83,5.96-8.33,13.08-12.75,19.35h-6.06Z"/>
    <path class="cls-1" d="M243.48,55.89c-4.31,7.22-20.19,25.37-28.4,13.95-6.04-8.4,3.65-17.69,10.58-21.52,3.45-1.9,15.99-7.32,16.19-.14.22,8.34-15.41,9.04-20.91,11.67-2.02,3.19-6.23,11.52.19,12.28,9.57,1.14,15.18-10.37,20.74-15.56.55-.51.6-.9,1.61-.68ZM222.61,57.97c4.89-1.7,10.9-3.42,14.37-7.53,1.63-1.92,3.34-5.49-.77-4.95-2.33.31-8.7,5.99-10.48,7.9-.43.47-3.49,4.21-3.12,4.59Z"/>
    <path class="cls-1" d="M414.84,60.17c-1.94,2.11-4.73,10.51-.57,11.77,5.62,1.7,12.36-4.14,15.88-7.95,1.83-1.98,4.23-6.06,5.99-7.56.43-.37.94-.63,1.54-.55-4.5,6.96-17.17,22.63-26.52,15.82-4.21-3.07-4.25-8.63-2.24-13.06,2.86-6.29,14.52-13.57,21.43-14.03,7.5-.49,7.4,5.74,2.29,9.36-3.95,2.79-16.52,4.79-17.8,6.19ZM416.81,57.96c4.83-1.05,14.83-5.21,16.11-10.41.23-.95.06-1.7-.96-2-3.27-.98-9.95,5.44-12.03,7.83-.41.47-3.52,4.23-3.12,4.58Z"/>
    <path class="cls-1" d="M101.07,18.4c1.12,1.3-4.56,6.61-5.71,7.42-7.31,5.11-14.46.72-12.38-8.18,1.2-5.13,8.38-12.14.71-15.44-15.18-6.52-42,15.83-35.45,32.43,2.98,7.55,11.74,7.89,18.31,4.94,3.97-1.78,6.68-4.83,9.67-7.85.6,2.5-2.99,5.07-4.84,6.42-12.49,9.06-28.14,3.89-24.92-13.19,2-10.59,13.92-21.18,24.11-23.85,11.1-2.91,22.59-.69,17.97,13.34-1.23,3.73-7.49,13.07,1.45,12.28,4.58-.4,7.02-4.46,9.73-7.38.41-.45.43-1.16,1.34-.95Z"/>
  </g>
</svg>