<svg width="50" height="63" viewBox="0 0 50 63" fill="none" xmlns="http://www.w3.org/2000/svg">
<path d="M5.46874 55.9235V59.3097H7.37918C7.53151 59.3097 7.64787 59.3467 7.72827 59.4207C7.81078 59.4948 7.85203 59.5879 7.85203 59.7C7.85203 59.8142 7.81184 59.9073 7.73144 59.9793C7.65105 60.0491 7.53363 60.084 7.37918 60.084H5.10378C4.89856 60.084 4.75047 60.0385 4.65949 59.9475C4.57064 59.8566 4.52621 59.7095 4.52621 59.5064V55.9235C4.52621 55.7331 4.56852 55.5903 4.65315 55.4951C4.73989 55.3999 4.85308 55.3523 4.99271 55.3523C5.13446 55.3523 5.24871 55.3999 5.33545 55.4951C5.42431 55.5882 5.46874 55.731 5.46874 55.9235ZM11.3619 59.5572L11.1398 58.9733H9.24837L9.02623 59.5699C8.93949 59.8026 8.86544 59.9602 8.80408 60.0427C8.74273 60.1231 8.64224 60.1633 8.5026 60.1633C8.38412 60.1633 8.2794 60.12 8.18843 60.0332C8.09745 59.9465 8.05196 59.8481 8.05196 59.7381C8.05196 59.6746 8.06254 59.609 8.0837 59.5413C8.10486 59.4736 8.13976 59.3795 8.18843 59.2589L9.37849 56.2377C9.41234 56.151 9.45254 56.0473 9.49908 55.9267C9.54774 55.804 9.59852 55.7024 9.65141 55.622C9.70642 55.5416 9.77729 55.4771 9.86403 55.4285C9.95289 55.3777 10.0618 55.3523 10.1909 55.3523C10.3221 55.3523 10.431 55.3777 10.5178 55.4285C10.6066 55.4771 10.6775 55.5406 10.7304 55.6189C10.7854 55.6972 10.8309 55.7818 10.8669 55.8728C10.9049 55.9616 10.9525 56.0811 11.0097 56.2314L12.2251 59.2335C12.3203 59.462 12.3679 59.6281 12.3679 59.7317C12.3679 59.8396 12.3224 59.9391 12.2315 60.03C12.1426 60.1189 12.0347 60.1633 11.9078 60.1633C11.8337 60.1633 11.7702 60.1496 11.7174 60.1221C11.6645 60.0967 11.62 60.0618 11.5841 60.0173C11.5481 59.9708 11.509 59.901 11.4666 59.8079C11.4265 59.7127 11.3915 59.6291 11.3619 59.5572ZM9.49591 58.2656H10.8859L10.1846 56.3456L9.49591 58.2656ZM16.8616 58.6147C16.8616 58.7628 16.8246 58.9235 16.7505 59.097C16.6786 59.2684 16.5643 59.4376 16.4078 59.6048C16.2512 59.7698 16.0513 59.9042 15.808 60.0078C15.5647 60.1115 15.2812 60.1633 14.9575 60.1633C14.7121 60.1633 14.4889 60.14 14.2879 60.0935C14.0869 60.047 13.9039 59.975 13.7389 59.8777C13.576 59.7783 13.4258 59.6482 13.2882 59.4874C13.1655 59.3414 13.0608 59.1785 12.9741 58.9986C12.8873 58.8167 12.8217 58.6231 12.7773 58.4179C12.735 58.2127 12.7138 57.9948 12.7138 57.7642C12.7138 57.3897 12.7678 57.0544 12.8757 56.7582C12.9857 56.462 13.1423 56.2091 13.3454 55.9997C13.5485 55.7881 13.7865 55.6273 14.0594 55.5173C14.3323 55.4073 14.6232 55.3523 14.9321 55.3523C15.3087 55.3523 15.644 55.4274 15.9381 55.5776C16.2322 55.7278 16.4575 55.914 16.6141 56.1362C16.7706 56.3562 16.8489 56.5646 16.8489 56.7613C16.8489 56.8692 16.8108 56.9644 16.7347 57.0469C16.6585 57.1295 16.5665 57.1707 16.4586 57.1707C16.338 57.1707 16.247 57.1422 16.1856 57.085C16.1264 57.0279 16.0598 56.9295 15.9857 56.7899C15.863 56.5593 15.7181 56.3869 15.5509 56.2726C15.3859 56.1584 15.1818 56.1012 14.9385 56.1012C14.5513 56.1012 14.2424 56.2483 14.0118 56.5424C13.7833 56.8364 13.6691 57.2543 13.6691 57.7959C13.6691 58.1577 13.7198 58.4592 13.8214 58.7003C13.9229 58.9394 14.0668 59.1182 14.253 59.2367C14.4392 59.3551 14.6571 59.4144 14.9067 59.4144C15.1775 59.4144 15.406 59.3477 15.5922 59.2144C15.7805 59.079 15.9222 58.8812 16.0174 58.621C16.0576 58.4983 16.1074 58.3989 16.1666 58.3227C16.2258 58.2444 16.321 58.2053 16.4522 58.2053C16.5643 58.2053 16.6606 58.2444 16.741 58.3227C16.8214 58.401 16.8616 58.4983 16.8616 58.6147ZM20.7301 56.2091H19.7019V59.5889C19.7019 59.7836 19.6585 59.9285 19.5718 60.0237C19.485 60.1168 19.3729 60.1633 19.2354 60.1633C19.0957 60.1633 18.9815 60.1157 18.8926 60.0205C18.8059 59.9253 18.7625 59.7814 18.7625 59.5889V56.2091H17.7343C17.5735 56.2091 17.454 56.1742 17.3757 56.1044C17.2974 56.0325 17.2583 55.9383 17.2583 55.822C17.2583 55.7014 17.2985 55.6062 17.3789 55.5364C17.4614 55.4665 17.5799 55.4316 17.7343 55.4316H20.7301C20.893 55.4316 21.0136 55.4676 21.0919 55.5395C21.1723 55.6115 21.2125 55.7056 21.2125 55.822C21.2125 55.9383 21.1723 56.0325 21.0919 56.1044C21.0115 56.1742 20.8909 56.2091 20.7301 56.2091ZM23.729 55.3523C24.2114 55.3523 24.625 55.4507 24.9699 55.6474C25.3169 55.8421 25.5792 56.1203 25.7569 56.4821C25.9346 56.8417 26.0235 57.2649 26.0235 57.7515C26.0235 58.1111 25.9748 58.438 25.8775 58.7321C25.7802 59.0262 25.6342 59.2811 25.4396 59.4969C25.2449 59.7127 25.0059 59.8777 24.7224 59.992C24.4389 60.1062 24.1141 60.1633 23.7481 60.1633C23.3842 60.1633 23.0584 60.1051 22.7707 59.9888C22.4829 59.8703 22.2428 59.7042 22.0503 59.4905C21.8577 59.2769 21.7118 59.0198 21.6123 58.7194C21.515 58.419 21.4663 58.0942 21.4663 57.7451C21.4663 57.3876 21.5171 57.0596 21.6187 56.7613C21.7223 56.463 21.8715 56.2091 22.0661 55.9997C22.2608 55.7902 22.4977 55.6305 22.777 55.5205C23.0563 55.4084 23.3736 55.3523 23.729 55.3523ZM25.0683 57.7451C25.0683 57.4045 25.0133 57.1094 24.9032 56.8597C24.7932 56.6101 24.6356 56.4218 24.4304 56.2948C24.2273 56.1658 23.9935 56.1012 23.729 56.1012C23.5408 56.1012 23.3662 56.1372 23.2054 56.2091C23.0467 56.279 22.9092 56.3816 22.7929 56.517C22.6786 56.6524 22.5876 56.8259 22.5199 57.0374C22.4544 57.2469 22.4216 57.4828 22.4216 57.7451C22.4216 58.0096 22.4544 58.2486 22.5199 58.4623C22.5876 58.676 22.6818 58.8537 22.8024 58.9955C22.9251 59.1351 23.0647 59.2398 23.2213 59.3097C23.38 59.3795 23.5534 59.4144 23.7417 59.4144C23.9829 59.4144 24.204 59.3541 24.405 59.2335C24.6081 59.1129 24.7689 58.9267 24.8874 58.675C25.008 58.4232 25.0683 58.1132 25.0683 57.7451ZM30.3648 58.6876C30.3648 58.969 30.2918 59.2219 30.1459 59.4461C30.002 59.6704 29.7904 59.846 29.5112 59.9729C29.2319 60.0999 28.9008 60.1633 28.5179 60.1633C28.0588 60.1633 27.6801 60.0766 27.3817 59.9031C27.1702 59.7783 26.9978 59.6122 26.8645 59.4049C26.7333 59.1954 26.6677 58.9923 26.6677 58.7955C26.6677 58.6813 26.7068 58.584 26.7851 58.5036C26.8655 58.4211 26.9671 58.3798 27.0898 58.3798C27.1892 58.3798 27.2728 58.4116 27.3405 58.475C27.4103 58.5385 27.4695 58.6326 27.5182 58.7575C27.5774 58.9056 27.6409 59.0293 27.7086 59.1288C27.7784 59.2282 27.8758 59.3107 28.0006 59.3763C28.1254 59.4398 28.2894 59.4715 28.4925 59.4715C28.7717 59.4715 28.9981 59.407 29.1716 59.2779C29.3472 59.1467 29.435 58.9838 29.435 58.7892C29.435 58.6348 29.3874 58.5099 29.2922 58.4147C29.1991 58.3174 29.0775 58.2434 28.9272 58.1926C28.7791 58.1418 28.5803 58.0879 28.3306 58.0307C27.9963 57.9525 27.716 57.8615 27.4896 57.7578C27.2654 57.652 27.0866 57.5092 26.9533 57.3294C26.8222 57.1474 26.7566 56.9221 26.7566 56.6534C26.7566 56.3974 26.8264 56.17 26.966 55.9711C27.1057 55.7723 27.3077 55.6199 27.5722 55.5141C27.8366 55.4062 28.1476 55.3523 28.5052 55.3523C28.7908 55.3523 29.0373 55.3883 29.2446 55.4602C29.454 55.53 29.6275 55.6242 29.765 55.7426C29.9026 55.859 30.0031 55.9817 30.0665 56.1108C30.13 56.2398 30.1617 56.3657 30.1617 56.4884C30.1617 56.6005 30.1215 56.7021 30.0411 56.7931C29.9629 56.8819 29.8645 56.9264 29.746 56.9264C29.6381 56.9264 29.5556 56.8999 29.4985 56.847C29.4435 56.792 29.3832 56.7032 29.3176 56.5804C29.233 56.4048 29.1314 56.2684 29.0129 56.1711C28.8944 56.0716 28.704 56.0219 28.4417 56.0219C28.1984 56.0219 28.0016 56.0759 27.8514 56.1838C27.7033 56.2895 27.6293 56.4175 27.6293 56.5677C27.6293 56.6608 27.6547 56.7412 27.7054 56.8089C27.7562 56.8766 27.826 56.9348 27.9149 56.9835C28.0038 57.0321 28.0937 57.0702 28.1846 57.0977C28.2756 57.1252 28.4258 57.1654 28.6353 57.2183C28.8976 57.2797 29.1346 57.3474 29.3461 57.4214C29.5598 57.4955 29.7407 57.5854 29.8888 57.6912C30.039 57.7969 30.1554 57.9313 30.2379 58.0942C30.3225 58.255 30.3648 58.4528 30.3648 58.6876ZM34.2302 56.1584H32.1071V57.3008H34.062C34.2058 57.3008 34.3127 57.3336 34.3825 57.3992C34.4544 57.4627 34.4904 57.5473 34.4904 57.6531C34.4904 57.7589 34.4555 57.8456 34.3857 57.9133C34.3158 57.9789 34.2079 58.0117 34.062 58.0117H32.1071V59.335H34.3031C34.4512 59.335 34.5623 59.3699 34.6364 59.4398C34.7125 59.5075 34.7506 59.5984 34.7506 59.7127C34.7506 59.8227 34.7125 59.9126 34.6364 59.9824C34.5623 60.0501 34.4512 60.084 34.3031 60.084H31.7421C31.5369 60.084 31.3888 60.0385 31.2978 59.9475C31.209 59.8566 31.1646 59.7095 31.1646 59.5064V56.0092C31.1646 55.8738 31.1847 55.7638 31.2249 55.6792C31.2651 55.5924 31.3275 55.53 31.4121 55.4919C31.4988 55.4517 31.6088 55.4316 31.7421 55.4316H34.2302C34.3804 55.4316 34.4914 55.4655 34.5634 55.5332C34.6374 55.5988 34.6744 55.6855 34.6744 55.7934C34.6744 55.9034 34.6374 55.9923 34.5634 56.06C34.4914 56.1256 34.3804 56.1584 34.2302 56.1584ZM38.2795 56.1584H36.423V57.3484H37.9749C38.1188 57.3484 38.2256 57.3812 38.2954 57.4468C38.3673 57.5103 38.4033 57.596 38.4033 57.7039C38.4033 57.8118 38.3673 57.8974 38.2954 57.9609C38.2235 58.0244 38.1166 58.0561 37.9749 58.0561H36.423V59.5889C36.423 59.7836 36.3786 59.9285 36.2898 60.0237C36.203 60.1168 36.0909 60.1633 35.9534 60.1633C35.8137 60.1633 35.6995 60.1157 35.6106 60.0205C35.5239 59.9253 35.4805 59.7814 35.4805 59.5889V56.0092C35.4805 55.8738 35.5006 55.7638 35.5408 55.6792C35.581 55.5924 35.6434 55.53 35.7281 55.4919C35.8148 55.4517 35.9248 55.4316 36.0581 55.4316H38.2795C38.4298 55.4316 38.5408 55.4655 38.6128 55.5332C38.6868 55.5988 38.7238 55.6855 38.7238 55.7934C38.7238 55.9034 38.6868 55.9923 38.6128 56.06C38.5408 56.1256 38.4298 56.1584 38.2795 56.1584ZM40.6946 58.0942H40.3645V59.5889C40.3645 59.7857 40.3212 59.9306 40.2344 60.0237C40.1477 60.1168 40.0345 60.1633 39.8948 60.1633C39.7446 60.1633 39.6283 60.1147 39.5458 60.0173C39.4633 59.92 39.422 59.7772 39.422 59.5889V56.0092C39.422 55.8061 39.4675 55.6591 39.5585 55.5681C39.6494 55.4771 39.7965 55.4316 39.9996 55.4316H41.5324C41.7439 55.4316 41.9248 55.4412 42.075 55.4602C42.2253 55.4771 42.3607 55.5131 42.4813 55.5681C42.6272 55.6294 42.7563 55.7172 42.8684 55.8315C42.9805 55.9457 43.0652 56.079 43.1223 56.2314C43.1815 56.3816 43.2112 56.5413 43.2112 56.7106C43.2112 57.0575 43.1128 57.3347 42.916 57.542C42.7214 57.7493 42.4252 57.8964 42.0274 57.9831C42.1946 58.072 42.3543 58.2032 42.5066 58.3766C42.659 58.5501 42.7944 58.7352 42.9128 58.932C43.0334 59.1266 43.1265 59.3033 43.1921 59.462C43.2598 59.6185 43.2937 59.7264 43.2937 59.7857C43.2937 59.847 43.2736 59.9084 43.2334 59.9697C43.1953 60.029 43.1424 60.0755 43.0747 60.1094C43.007 60.1453 42.9287 60.1633 42.8399 60.1633C42.7341 60.1633 42.6452 60.1379 42.5733 60.0872C42.5014 60.0385 42.4389 59.9761 42.386 59.8999C42.3353 59.8238 42.2655 59.7116 42.1766 59.5635L41.7989 58.9352C41.6635 58.7046 41.5419 58.529 41.434 58.4084C41.3282 58.2878 41.2203 58.2053 41.1103 58.1608C41.0003 58.1164 40.8617 58.0942 40.6946 58.0942ZM41.2341 56.1393H40.3645V57.4182H41.2087C41.4351 57.4182 41.6255 57.3992 41.7799 57.3611C41.9344 57.3209 42.0518 57.2543 42.1322 57.1612C42.2147 57.066 42.2559 56.9359 42.2559 56.7709C42.2559 56.6418 42.2231 56.5286 42.1576 56.4313C42.092 56.3319 42.001 56.2578 41.8846 56.2091C41.7746 56.1626 41.5578 56.1393 41.2341 56.1393ZM44.1442 59.5889V55.9235C44.1442 55.7331 44.1875 55.5903 44.2743 55.4951C44.361 55.3999 44.4732 55.3523 44.6107 55.3523C44.7524 55.3523 44.8667 55.3999 44.9534 55.4951C45.0423 55.5882 45.0867 55.731 45.0867 55.9235V59.5889C45.0867 59.7814 45.0423 59.9253 44.9534 60.0205C44.8667 60.1157 44.7524 60.1633 44.6107 60.1633C44.4753 60.1633 44.3631 60.1157 44.2743 60.0205C44.1875 59.9232 44.1442 59.7793 44.1442 59.5889Z" fill="white"/>
<path d="M24.3271 46.8237C36.7535 46.8237 46.8271 36.7501 46.8271 24.3237C46.8271 11.8973 36.7535 1.82373 24.3271 1.82373C11.9007 1.82373 1.82709 11.8973 1.82709 24.3237C1.82709 36.7501 11.9007 46.8237 24.3271 46.8237Z" stroke="white" stroke-width="2.32119" stroke-miterlimit="10"/>
<path d="M31.1553 17.2595C34.4319 14.2653 36.8937 11.4782 40.399 8.58398" stroke="white" stroke-width="2.32119" stroke-miterlimit="10"/>
<path d="M7.29044 39.6309C10.4026 36.5687 13.7114 33.7138 16.8629 30.6909" stroke="white" stroke-width="2.32119" stroke-miterlimit="10"/>
<path d="M27.6596 15.025V12.8734C27.6596 12.3993 27.2759 12.02 26.8045 12.02H22.814C22.3426 12.02 21.9589 12.3993 21.9589 12.8697L21.9442 15.0287L19.9563 20.4187C19.9197 20.5135 19.9051 20.612 19.9051 20.7141V36.1293C19.9051 36.917 20.5446 37.5552 21.334 37.5552H28.354C29.1433 37.5552 29.7828 36.917 29.7828 36.1293V20.7177C29.7828 20.612 29.7645 20.5099 29.728 20.4114L27.6669 15.025H27.6596Z" stroke="white" stroke-width="1.16059" stroke-miterlimit="10"/>
<path d="M28.6246 25.962C28.2372 25.9657 27.6452 25.9948 26.9362 26.1225C26.0336 26.2866 25.8509 26.4507 25.438 26.3559C24.9044 26.2319 24.9008 25.8927 23.8958 24.9664C22.8434 23.9964 22.2879 23.8541 22.0394 23.8067C21.6667 23.7374 21.2793 23.7921 21.0601 23.8286C21.0418 25.0576 21.0747 26.2647 21.0601 27.49H21.0564V36.082C21.0564 36.2716 21.2099 36.4212 21.3963 36.4212H28.281C28.4711 36.4212 28.6209 36.268 28.6209 36.082V27.6177V25.962H28.6246Z" fill="white"/>
<path d="M24.8385 12.48C26.6529 12.48 28.1238 12.2743 28.1238 12.0205C28.1238 11.7668 26.6529 11.561 24.8385 11.561C23.0241 11.561 21.5533 11.7668 21.5533 12.0205C21.5533 12.2743 23.0241 12.48 24.8385 12.48Z" stroke="white" stroke-width="1.39271" stroke-miterlimit="10"/>
</svg>
