<svg width="50" height="63" viewBox="0 0 50 63" fill="none" xmlns="http://www.w3.org/2000/svg">
<path d="M5.38632 55.9233V59.3094H7.29676C7.44909 59.3094 7.56545 59.3464 7.64585 59.4205C7.72836 59.4945 7.76962 59.5876 7.76962 59.6997C7.76962 59.814 7.72942 59.9071 7.64902 59.979C7.56863 60.0488 7.45121 60.0837 7.29676 60.0837H5.02137C4.81615 60.0837 4.66805 60.0383 4.57708 59.9473C4.48822 59.8563 4.44379 59.7093 4.44379 59.5062V55.9233C4.44379 55.7329 4.4861 55.5901 4.57073 55.4949C4.65747 55.3997 4.77066 55.3521 4.91029 55.3521C5.05204 55.3521 5.16629 55.3997 5.25303 55.4949C5.34189 55.588 5.38632 55.7308 5.38632 55.9233ZM11.2795 59.5569L11.0574 58.973H9.16596L8.94381 59.5696C8.85707 59.8024 8.78302 59.96 8.72167 60.0425C8.66031 60.1229 8.55982 60.1631 8.42018 60.1631C8.30171 60.1631 8.19698 60.1197 8.10601 60.033C8.01503 59.9462 7.96955 59.8478 7.96955 59.7378C7.96955 59.6744 7.98012 59.6088 8.00128 59.5411C8.02244 59.4734 8.05735 59.3792 8.10601 59.2586L9.29607 56.2375C9.32992 56.1507 9.37012 56.047 9.41666 55.9265C9.46532 55.8037 9.5161 55.7022 9.56899 55.6218C9.624 55.5414 9.69487 55.4769 9.78161 55.4282C9.87047 55.3774 9.97943 55.3521 10.1085 55.3521C10.2397 55.3521 10.3486 55.3774 10.4354 55.4282C10.5242 55.4769 10.5951 55.5403 10.648 55.6186C10.703 55.6969 10.7485 55.7815 10.7844 55.8725C10.8225 55.9614 10.8701 56.0809 10.9272 56.2311L12.1427 59.2332C12.2379 59.4617 12.2855 59.6278 12.2855 59.7315C12.2855 59.8394 12.24 59.9388 12.149 60.0298C12.0602 60.1186 11.9523 60.1631 11.8253 60.1631C11.7513 60.1631 11.6878 60.1493 11.6349 60.1218C11.582 60.0964 11.5376 60.0615 11.5017 60.0171C11.4657 59.9706 11.4265 59.9007 11.3842 59.8076C11.344 59.7124 11.3091 59.6289 11.2795 59.5569ZM9.41349 58.2653H10.8035L10.1021 56.3454L9.41349 58.2653ZM13.9294 55.9233V57.5545L15.7795 55.625C15.8684 55.5319 15.9435 55.4631 16.0048 55.4187C16.0683 55.3743 16.1519 55.3521 16.2556 55.3521C16.391 55.3521 16.4999 55.3923 16.5824 55.4726C16.667 55.5509 16.7094 55.6472 16.7094 55.7614C16.7094 55.899 16.6385 56.0354 16.4967 56.1708L15.3511 57.2562L16.6713 59.1476C16.7644 59.2787 16.8342 59.394 16.8807 59.4935C16.9273 59.5908 16.9505 59.686 16.9505 59.7791C16.9505 59.8828 16.9093 59.9727 16.8268 60.0488C16.7464 60.125 16.6364 60.1631 16.4967 60.1631C16.3656 60.1631 16.2587 60.1356 16.1762 60.0806C16.0937 60.0234 16.0239 59.9483 15.9668 59.8552C15.9096 59.7622 15.8589 59.6775 15.8144 59.6014L14.7005 57.8877L13.9294 58.6271V59.5887C13.9294 59.7833 13.8849 59.9282 13.7961 60.0234C13.7072 60.1165 13.593 60.1631 13.4534 60.1631C13.373 60.1631 13.2957 60.1419 13.2217 60.0996C13.1476 60.0573 13.0905 60.0002 13.0503 59.9282C13.0207 59.869 13.0027 59.8002 12.9964 59.722C12.99 59.6437 12.9868 59.5305 12.9868 59.3824V55.9233C12.9868 55.7329 13.0281 55.5901 13.1106 55.4949C13.1952 55.3997 13.3095 55.3521 13.4534 55.3521C13.5951 55.3521 13.7093 55.3997 13.7961 55.4949C13.8849 55.588 13.9294 55.7308 13.9294 55.9233ZM20.8127 56.2089H19.7845V59.5887C19.7845 59.7833 19.7411 59.9282 19.6544 60.0234C19.5676 60.1165 19.4555 60.1631 19.318 60.1631C19.1783 60.1631 19.0641 60.1155 18.9752 60.0203C18.8885 59.9251 18.8451 59.7812 18.8451 59.5887V56.2089H17.8169C17.6561 56.2089 17.5366 56.174 17.4583 56.1042C17.38 56.0322 17.3409 55.9381 17.3409 55.8217C17.3409 55.7011 17.3811 55.6059 17.4615 55.5361C17.544 55.4663 17.6625 55.4314 17.8169 55.4314H20.8127C20.9756 55.4314 21.0962 55.4674 21.1745 55.5393C21.2549 55.6112 21.2951 55.7054 21.2951 55.8217C21.2951 55.9381 21.2549 56.0322 21.1745 56.1042C21.0941 56.174 20.9735 56.2089 20.8127 56.2089ZM23.8117 55.3521C24.294 55.3521 24.7076 55.4504 25.0525 55.6472C25.3995 55.8418 25.6618 56.12 25.8395 56.4818C26.0172 56.8415 26.1061 57.2646 26.1061 57.7512C26.1061 58.1109 26.0574 58.4378 25.9601 58.7318C25.8628 59.0259 25.7168 59.2808 25.5222 59.4966C25.3275 59.7124 25.0885 59.8775 24.805 59.9917C24.5215 60.106 24.1967 60.1631 23.8307 60.1631C23.4668 60.1631 23.141 60.1049 22.8533 59.9885C22.5655 59.8701 22.3254 59.704 22.1329 59.4903C21.9403 59.2766 21.7944 59.0196 21.6949 58.7191C21.5976 58.4187 21.5489 58.094 21.5489 57.7449C21.5489 57.3873 21.5997 57.0594 21.7013 56.7611C21.8049 56.4628 21.9541 56.2089 22.1487 55.9994C22.3434 55.79 22.5803 55.6303 22.8596 55.5202C23.1389 55.4081 23.4562 55.3521 23.8117 55.3521ZM25.1509 57.7449C25.1509 57.4042 25.0959 57.1091 24.9858 56.8595C24.8758 56.6098 24.7182 56.4215 24.513 56.2946C24.3099 56.1655 24.0761 56.101 23.8117 56.101C23.6234 56.101 23.4488 56.137 23.288 56.2089C23.1294 56.2787 22.9918 56.3813 22.8755 56.5167C22.7612 56.6521 22.6703 56.8256 22.6026 57.0372C22.537 57.2466 22.5042 57.4825 22.5042 57.7449C22.5042 58.0093 22.537 58.2484 22.6026 58.4621C22.6703 58.6758 22.7644 58.8535 22.885 58.9952C23.0077 59.1349 23.1473 59.2396 23.3039 59.3094C23.4626 59.3792 23.6361 59.4141 23.8243 59.4141C24.0655 59.4141 24.2866 59.3538 24.4876 59.2332C24.6907 59.1126 24.8515 58.9265 24.97 58.6747C25.0906 58.4229 25.1509 58.113 25.1509 57.7449ZM30.4474 58.6874C30.4474 58.9688 30.3744 59.2216 30.2285 59.4459C30.0846 59.6701 29.873 59.8457 29.5938 59.9727C29.3145 60.0996 28.9834 60.1631 28.6005 60.1631C28.1414 60.1631 27.7627 60.0763 27.4644 59.9029C27.2528 59.778 27.0804 59.6119 26.9471 59.4046C26.8159 59.1952 26.7503 58.9921 26.7503 58.7953C26.7503 58.6811 26.7895 58.5837 26.8677 58.5033C26.9481 58.4208 27.0497 58.3796 27.1724 58.3796C27.2718 58.3796 27.3554 58.4113 27.4231 58.4748C27.4929 58.5382 27.5522 58.6324 27.6008 58.7572C27.66 58.9053 27.7235 59.0291 27.7912 59.1285C27.861 59.228 27.9584 59.3105 28.0832 59.376C28.208 59.4395 28.372 59.4713 28.5751 59.4713C28.8543 59.4713 29.0807 59.4067 29.2542 59.2777C29.4298 59.1465 29.5176 58.9836 29.5176 58.789C29.5176 58.6345 29.47 58.5097 29.3748 58.4145C29.2817 58.3172 29.1601 58.2431 29.0098 58.1923C28.8617 58.1416 28.6629 58.0876 28.4132 58.0305C28.079 57.9522 27.7986 57.8612 27.5722 57.7576C27.348 57.6518 27.1692 57.509 27.0359 57.3291C26.9048 57.1472 26.8392 56.9219 26.8392 56.6532C26.8392 56.3972 26.909 56.1698 27.0486 55.9709C27.1883 55.772 27.3903 55.6197 27.6548 55.5139C27.9192 55.406 28.2302 55.3521 28.5878 55.3521C28.8734 55.3521 29.1199 55.388 29.3272 55.46C29.5366 55.5298 29.7101 55.6239 29.8476 55.7424C29.9852 55.8588 30.0857 55.9815 30.1491 56.1105C30.2126 56.2396 30.2443 56.3655 30.2443 56.4882C30.2443 56.6003 30.2041 56.7018 30.1237 56.7928C30.0455 56.8817 29.9471 56.9261 29.8286 56.9261C29.7207 56.9261 29.6382 56.8997 29.5811 56.8468C29.5261 56.7918 29.4658 56.7029 29.4002 56.5802C29.3156 56.4046 29.214 56.2681 29.0955 56.1708C28.9771 56.0714 28.7866 56.0217 28.5243 56.0217C28.281 56.0217 28.0842 56.0756 27.934 56.1835C27.7859 56.2893 27.7119 56.4173 27.7119 56.5675C27.7119 56.6606 27.7373 56.741 27.788 56.8087C27.8388 56.8764 27.9086 56.9346 27.9975 56.9832C28.0864 57.0319 28.1763 57.07 28.2672 57.0975C28.3582 57.125 28.5084 57.1652 28.7179 57.2181C28.9802 57.2794 29.2172 57.3471 29.4287 57.4212C29.6424 57.4952 29.8233 57.5851 29.9714 57.6909C30.1216 57.7967 30.238 57.9311 30.3205 58.094C30.4051 58.2547 30.4474 58.4526 30.4474 58.6874ZM34.3128 56.1581H32.1897V57.3006H34.1446C34.2884 57.3006 34.3953 57.3334 34.4651 57.399C34.537 57.4624 34.573 57.5471 34.573 57.6528C34.573 57.7586 34.5381 57.8454 34.4683 57.9131C34.3984 57.9787 34.2905 58.0114 34.1446 58.0114H32.1897V59.3348H34.3858C34.5338 59.3348 34.6449 59.3697 34.719 59.4395C34.7951 59.5072 34.8332 59.5982 34.8332 59.7124C34.8332 59.8225 34.7951 59.9124 34.719 59.9822C34.6449 60.0499 34.5338 60.0837 34.3858 60.0837H31.8247C31.6195 60.0837 31.4714 60.0383 31.3804 59.9473C31.2916 59.8563 31.2472 59.7093 31.2472 59.5062V56.009C31.2472 55.8736 31.2673 55.7636 31.3075 55.6789C31.3477 55.5922 31.4101 55.5298 31.4947 55.4917C31.5814 55.4515 31.6915 55.4314 31.8247 55.4314H34.3128C34.463 55.4314 34.574 55.4652 34.646 55.5329C34.72 55.5985 34.7571 55.6853 34.7571 55.7932C34.7571 55.9032 34.72 55.992 34.646 56.0597C34.574 56.1253 34.463 56.1581 34.3128 56.1581ZM38.3621 56.1581H36.5056V57.3482H38.0575C38.2014 57.3482 38.3082 57.381 38.378 57.4466C38.4499 57.51 38.4859 57.5957 38.4859 57.7036C38.4859 57.8115 38.4499 57.8972 38.378 57.9607C38.3061 58.0241 38.1992 58.0559 38.0575 58.0559H36.5056V59.5887C36.5056 59.7833 36.4612 59.9282 36.3724 60.0234C36.2856 60.1165 36.1735 60.1631 36.036 60.1631C35.8963 60.1631 35.7821 60.1155 35.6932 60.0203C35.6065 59.9251 35.5631 59.7812 35.5631 59.5887V56.009C35.5631 55.8736 35.5832 55.7636 35.6234 55.6789C35.6636 55.5922 35.726 55.5298 35.8107 55.4917C35.8974 55.4515 36.0074 55.4314 36.1407 55.4314H38.3621C38.5124 55.4314 38.6234 55.4652 38.6954 55.5329C38.7694 55.5985 38.8064 55.6853 38.8064 55.7932C38.8064 55.9032 38.7694 55.992 38.6954 56.0597C38.6234 56.1253 38.5124 56.1581 38.3621 56.1581ZM40.7772 58.094H40.4471V59.5887C40.4471 59.7854 40.4038 59.9304 40.317 60.0234C40.2303 60.1165 40.1171 60.1631 39.9775 60.1631C39.8272 60.1631 39.7109 60.1144 39.6284 60.0171C39.5459 59.9198 39.5046 59.777 39.5046 59.5887V56.009C39.5046 55.8059 39.5501 55.6588 39.6411 55.5679C39.732 55.4769 39.8791 55.4314 40.0822 55.4314H41.615C41.8265 55.4314 42.0074 55.4409 42.1577 55.46C42.3079 55.4769 42.4433 55.5128 42.5639 55.5679C42.7098 55.6292 42.8389 55.717 42.951 55.8313C43.0632 55.9455 43.1478 56.0788 43.2049 56.2311C43.2641 56.3813 43.2938 56.5411 43.2938 56.7103C43.2938 57.0573 43.1954 57.3344 42.9986 57.5418C42.804 57.7491 42.5078 57.8961 42.11 57.9829C42.2772 58.0717 42.4369 58.2029 42.5892 58.3764C42.7416 58.5499 42.877 58.735 42.9955 58.9318C43.116 59.1264 43.2091 59.3031 43.2747 59.4617C43.3424 59.6183 43.3763 59.7262 43.3763 59.7854C43.3763 59.8468 43.3562 59.9081 43.316 59.9695C43.2779 60.0287 43.225 60.0753 43.1573 60.1091C43.0896 60.1451 43.0113 60.1631 42.9225 60.1631C42.8167 60.1631 42.7278 60.1377 42.6559 60.0869C42.584 60.0383 42.5215 59.9758 42.4687 59.8997C42.4179 59.8235 42.3481 59.7114 42.2592 59.5633L41.8816 58.9349C41.7462 58.7043 41.6245 58.5287 41.5166 58.4081C41.4108 58.2875 41.3029 58.205 41.1929 58.1606C41.0829 58.1162 40.9443 58.094 40.7772 58.094ZM41.3167 56.1391H40.4471V57.418H41.2913C41.5177 57.418 41.7081 57.399 41.8625 57.3609C42.017 57.3207 42.1344 57.254 42.2148 57.1609C42.2973 57.0657 42.3385 56.9356 42.3385 56.7706C42.3385 56.6416 42.3057 56.5284 42.2402 56.431C42.1746 56.3316 42.0836 56.2576 41.9672 56.2089C41.8572 56.1624 41.6404 56.1391 41.3167 56.1391ZM44.2268 59.5887V55.9233C44.2268 55.7329 44.2701 55.5901 44.3569 55.4949C44.4436 55.3997 44.5558 55.3521 44.6933 55.3521C44.835 55.3521 44.9493 55.3997 45.036 55.4949C45.1249 55.588 45.1693 55.7308 45.1693 55.9233V59.5887C45.1693 59.7812 45.1249 59.9251 45.036 60.0203C44.9493 60.1155 44.835 60.1631 44.6933 60.1631C44.5579 60.1631 44.4457 60.1155 44.3569 60.0203C44.2701 59.9229 44.2268 59.7791 44.2268 59.5887Z" fill="white"/>
<path d="M24.3271 46.8235C36.7536 46.8235 46.8271 36.7499 46.8271 24.3235C46.8271 11.8971 36.7536 1.82349 24.3271 1.82349C11.9007 1.82349 1.82715 11.8971 1.82715 24.3235C1.82715 36.7499 11.9007 46.8235 24.3271 46.8235Z" stroke="white" stroke-width="2.32119" stroke-miterlimit="10"/>
<path d="M31.1554 17.2595C34.432 14.2653 36.8938 11.4782 40.3991 8.58398" stroke="white" stroke-width="2.32119" stroke-miterlimit="10"/>
<path d="M7.29053 39.6309C10.4027 36.5687 13.7114 33.7138 16.8629 30.6909" stroke="white" stroke-width="2.32119" stroke-miterlimit="10"/>
<path d="M27.6597 15.025V12.8734C27.6597 12.3993 27.276 12.02 26.8045 12.02H22.814C22.3426 12.02 21.9589 12.3993 21.9589 12.8697L21.9443 15.0287L19.9563 20.4187C19.9198 20.5135 19.9052 20.612 19.9052 20.7141V36.1293C19.9052 36.917 20.5447 37.5552 21.334 37.5552H28.354C29.1433 37.5552 29.7828 36.917 29.7828 36.1293V20.7177C29.7828 20.612 29.7646 20.5099 29.728 20.4114L27.667 15.025H27.6597Z" stroke="white" stroke-width="1.16059" stroke-miterlimit="10"/>
<path d="M28.6246 25.962C28.2373 25.9657 27.6452 25.9948 26.9363 26.1225C26.0337 26.2866 25.851 26.4507 25.438 26.3559C24.9045 26.2319 24.9008 25.8927 23.8959 24.9664C22.8434 23.9964 22.288 23.8541 22.0395 23.8067C21.6668 23.7374 21.2794 23.7921 21.0601 23.8286C21.0419 25.0576 21.0747 26.2647 21.0601 27.49H21.0565V36.082C21.0565 36.2716 21.21 36.4212 21.3963 36.4212H28.2811C28.4711 36.4212 28.621 36.268 28.621 36.082V27.6177V25.962H28.6246Z" fill="white"/>
<path d="M24.8386 12.4798C26.653 12.4798 28.1238 12.2741 28.1238 12.0203C28.1238 11.7665 26.653 11.5608 24.8386 11.5608C23.0242 11.5608 21.5533 11.7665 21.5533 12.0203C21.5533 12.2741 23.0242 12.4798 24.8386 12.4798Z" stroke="white" stroke-width="1.39271" stroke-miterlimit="10"/>
</svg>
