<svg width="214" height="275" viewBox="0 0 214 275" fill="none" xmlns="http://www.w3.org/2000/svg">
<path d="M36.1758 257.637V270.141H43.2305C43.793 270.141 44.2227 270.277 44.5195 270.551C44.8242 270.824 44.9766 271.168 44.9766 271.582C44.9766 272.004 44.8281 272.348 44.5312 272.613C44.2344 272.871 43.8008 273 43.2305 273H34.8281C34.0703 273 33.5234 272.832 33.1875 272.496C32.8594 272.16 32.6953 271.617 32.6953 270.867V257.637C32.6953 256.934 32.8516 256.406 33.1641 256.055C33.4844 255.703 33.9023 255.527 34.418 255.527C34.9414 255.527 35.3633 255.703 35.6836 256.055C36.0117 256.398 36.1758 256.926 36.1758 257.637ZM57.9375 271.055L57.1172 268.898H50.1328L49.3125 271.102C48.9922 271.961 48.7188 272.543 48.4922 272.848C48.2656 273.145 47.8945 273.293 47.3789 273.293C46.9414 273.293 46.5547 273.133 46.2188 272.812C45.8828 272.492 45.7148 272.129 45.7148 271.723C45.7148 271.488 45.7539 271.246 45.832 270.996C45.9102 270.746 46.0391 270.398 46.2188 269.953L50.6133 258.797C50.7383 258.477 50.8867 258.094 51.0586 257.648C51.2383 257.195 51.4258 256.82 51.6211 256.523C51.8242 256.227 52.0859 255.988 52.4062 255.809C52.7344 255.621 53.1367 255.527 53.6133 255.527C54.0977 255.527 54.5 255.621 54.8203 255.809C55.1484 255.988 55.4102 256.223 55.6055 256.512C55.8086 256.801 55.9766 257.113 56.1094 257.449C56.25 257.777 56.4258 258.219 56.6367 258.773L61.125 269.859C61.4766 270.703 61.6523 271.316 61.6523 271.699C61.6523 272.098 61.4844 272.465 61.1484 272.801C60.8203 273.129 60.4219 273.293 59.9531 273.293C59.6797 273.293 59.4453 273.242 59.25 273.141C59.0547 273.047 58.8906 272.918 58.7578 272.754C58.625 272.582 58.4805 272.324 58.3242 271.98C58.1758 271.629 58.0469 271.32 57.9375 271.055ZM51.0469 266.285H56.1797L53.5898 259.195L51.0469 266.285ZM67.7227 257.637V263.66L74.5547 256.535C74.8828 256.191 75.1602 255.938 75.3867 255.773C75.6211 255.609 75.9297 255.527 76.3125 255.527C76.8125 255.527 77.2148 255.676 77.5195 255.973C77.832 256.262 77.9883 256.617 77.9883 257.039C77.9883 257.547 77.7266 258.051 77.2031 258.551L72.9727 262.559L77.8477 269.543C78.1914 270.027 78.4492 270.453 78.6211 270.82C78.793 271.18 78.8789 271.531 78.8789 271.875C78.8789 272.258 78.7266 272.59 78.4219 272.871C78.125 273.152 77.7188 273.293 77.2031 273.293C76.7188 273.293 76.3242 273.191 76.0195 272.988C75.7148 272.777 75.457 272.5 75.2461 272.156C75.0352 271.812 74.8477 271.5 74.6836 271.219L70.5703 264.891L67.7227 267.621V271.172C67.7227 271.891 67.5586 272.426 67.2305 272.777C66.9023 273.121 66.4805 273.293 65.9648 273.293C65.668 273.293 65.3828 273.215 65.1094 273.059C64.8359 272.902 64.625 272.691 64.4766 272.426C64.3672 272.207 64.3008 271.953 64.2773 271.664C64.2539 271.375 64.2422 270.957 64.2422 270.41V257.637C64.2422 256.934 64.3945 256.406 64.6992 256.055C65.0117 255.703 65.4336 255.527 65.9648 255.527C66.4883 255.527 66.9102 255.703 67.2305 256.055C67.5586 256.398 67.7227 256.926 67.7227 257.637ZM93.1406 258.691H89.3438V271.172C89.3438 271.891 89.1836 272.426 88.8633 272.777C88.543 273.121 88.1289 273.293 87.6211 273.293C87.1055 273.293 86.6836 273.117 86.3555 272.766C86.0352 272.414 85.875 271.883 85.875 271.172V258.691H82.0781C81.4844 258.691 81.043 258.562 80.7539 258.305C80.4648 258.039 80.3203 257.691 80.3203 257.262C80.3203 256.816 80.4688 256.465 80.7656 256.207C81.0703 255.949 81.5078 255.82 82.0781 255.82H93.1406C93.7422 255.82 94.1875 255.953 94.4766 256.219C94.7734 256.484 94.9219 256.832 94.9219 257.262C94.9219 257.691 94.7734 258.039 94.4766 258.305C94.1797 258.562 93.7344 258.691 93.1406 258.691ZM104.215 255.527C105.996 255.527 107.523 255.891 108.797 256.617C110.078 257.336 111.047 258.363 111.703 259.699C112.359 261.027 112.688 262.59 112.688 264.387C112.688 265.715 112.508 266.922 112.148 268.008C111.789 269.094 111.25 270.035 110.531 270.832C109.812 271.629 108.93 272.238 107.883 272.66C106.836 273.082 105.637 273.293 104.285 273.293C102.941 273.293 101.738 273.078 100.676 272.648C99.6133 272.211 98.7266 271.598 98.0156 270.809C97.3047 270.02 96.7656 269.07 96.3984 267.961C96.0391 266.852 95.8594 265.652 95.8594 264.363C95.8594 263.043 96.0469 261.832 96.4219 260.73C96.8047 259.629 97.3555 258.691 98.0742 257.918C98.793 257.145 99.668 256.555 100.699 256.148C101.73 255.734 102.902 255.527 104.215 255.527ZM109.16 264.363C109.16 263.105 108.957 262.016 108.551 261.094C108.145 260.172 107.562 259.477 106.805 259.008C106.055 258.531 105.191 258.293 104.215 258.293C103.52 258.293 102.875 258.426 102.281 258.691C101.695 258.949 101.188 259.328 100.758 259.828C100.336 260.328 100 260.969 99.75 261.75C99.5078 262.523 99.3867 263.395 99.3867 264.363C99.3867 265.34 99.5078 266.223 99.75 267.012C100 267.801 100.348 268.457 100.793 268.98C101.246 269.496 101.762 269.883 102.34 270.141C102.926 270.398 103.566 270.527 104.262 270.527C105.152 270.527 105.969 270.305 106.711 269.859C107.461 269.414 108.055 268.727 108.492 267.797C108.938 266.867 109.16 265.723 109.16 264.363ZM128.719 267.844C128.719 268.883 128.449 269.816 127.91 270.645C127.379 271.473 126.598 272.121 125.566 272.59C124.535 273.059 123.312 273.293 121.898 273.293C120.203 273.293 118.805 272.973 117.703 272.332C116.922 271.871 116.285 271.258 115.793 270.492C115.309 269.719 115.066 268.969 115.066 268.242C115.066 267.82 115.211 267.461 115.5 267.164C115.797 266.859 116.172 266.707 116.625 266.707C116.992 266.707 117.301 266.824 117.551 267.059C117.809 267.293 118.027 267.641 118.207 268.102C118.426 268.648 118.66 269.105 118.91 269.473C119.168 269.84 119.527 270.145 119.988 270.387C120.449 270.621 121.055 270.738 121.805 270.738C122.836 270.738 123.672 270.5 124.312 270.023C124.961 269.539 125.285 268.938 125.285 268.219C125.285 267.648 125.109 267.188 124.758 266.836C124.414 266.477 123.965 266.203 123.41 266.016C122.863 265.828 122.129 265.629 121.207 265.418C119.973 265.129 118.938 264.793 118.102 264.41C117.273 264.02 116.613 263.492 116.121 262.828C115.637 262.156 115.395 261.324 115.395 260.332C115.395 259.387 115.652 258.547 116.168 257.812C116.684 257.078 117.43 256.516 118.406 256.125C119.383 255.727 120.531 255.527 121.852 255.527C122.906 255.527 123.816 255.66 124.582 255.926C125.355 256.184 125.996 256.531 126.504 256.969C127.012 257.398 127.383 257.852 127.617 258.328C127.852 258.805 127.969 259.27 127.969 259.723C127.969 260.137 127.82 260.512 127.523 260.848C127.234 261.176 126.871 261.34 126.434 261.34C126.035 261.34 125.73 261.242 125.52 261.047C125.316 260.844 125.094 260.516 124.852 260.062C124.539 259.414 124.164 258.91 123.727 258.551C123.289 258.184 122.586 258 121.617 258C120.719 258 119.992 258.199 119.438 258.598C118.891 258.988 118.617 259.461 118.617 260.016C118.617 260.359 118.711 260.656 118.898 260.906C119.086 261.156 119.344 261.371 119.672 261.551C120 261.73 120.332 261.871 120.668 261.973C121.004 262.074 121.559 262.223 122.332 262.418C123.301 262.645 124.176 262.895 124.957 263.168C125.746 263.441 126.414 263.773 126.961 264.164C127.516 264.555 127.945 265.051 128.25 265.652C128.562 266.246 128.719 266.977 128.719 267.844ZM142.992 258.504H135.152V262.723H142.371C142.902 262.723 143.297 262.844 143.555 263.086C143.82 263.32 143.953 263.633 143.953 264.023C143.953 264.414 143.824 264.734 143.566 264.984C143.309 265.227 142.91 265.348 142.371 265.348H135.152V270.234H143.262C143.809 270.234 144.219 270.363 144.492 270.621C144.773 270.871 144.914 271.207 144.914 271.629C144.914 272.035 144.773 272.367 144.492 272.625C144.219 272.875 143.809 273 143.262 273H133.805C133.047 273 132.5 272.832 132.164 272.496C131.836 272.16 131.672 271.617 131.672 270.867V257.953C131.672 257.453 131.746 257.047 131.895 256.734C132.043 256.414 132.273 256.184 132.586 256.043C132.906 255.895 133.312 255.82 133.805 255.82H142.992C143.547 255.82 143.957 255.945 144.223 256.195C144.496 256.438 144.633 256.758 144.633 257.156C144.633 257.562 144.496 257.891 144.223 258.141C143.957 258.383 143.547 258.504 142.992 258.504ZM157.945 258.504H151.09V262.898H156.82C157.352 262.898 157.746 263.02 158.004 263.262C158.27 263.496 158.402 263.812 158.402 264.211C158.402 264.609 158.27 264.926 158.004 265.16C157.738 265.395 157.344 265.512 156.82 265.512H151.09V271.172C151.09 271.891 150.926 272.426 150.598 272.777C150.277 273.121 149.863 273.293 149.355 273.293C148.84 273.293 148.418 273.117 148.09 272.766C147.77 272.414 147.609 271.883 147.609 271.172V257.953C147.609 257.453 147.684 257.047 147.832 256.734C147.98 256.414 148.211 256.184 148.523 256.043C148.844 255.895 149.25 255.82 149.742 255.82H157.945C158.5 255.82 158.91 255.945 159.176 256.195C159.449 256.438 159.586 256.758 159.586 257.156C159.586 257.562 159.449 257.891 159.176 258.141C158.91 258.383 158.5 258.504 157.945 258.504ZM166.863 265.652H165.645V271.172C165.645 271.898 165.484 272.434 165.164 272.777C164.844 273.121 164.426 273.293 163.91 273.293C163.355 273.293 162.926 273.113 162.621 272.754C162.316 272.395 162.164 271.867 162.164 271.172V257.953C162.164 257.203 162.332 256.66 162.668 256.324C163.004 255.988 163.547 255.82 164.297 255.82H169.957C170.738 255.82 171.406 255.855 171.961 255.926C172.516 255.988 173.016 256.121 173.461 256.324C174 256.551 174.477 256.875 174.891 257.297C175.305 257.719 175.617 258.211 175.828 258.773C176.047 259.328 176.156 259.918 176.156 260.543C176.156 261.824 175.793 262.848 175.066 263.613C174.348 264.379 173.254 264.922 171.785 265.242C172.402 265.57 172.992 266.055 173.555 266.695C174.117 267.336 174.617 268.02 175.055 268.746C175.5 269.465 175.844 270.117 176.086 270.703C176.336 271.281 176.461 271.68 176.461 271.898C176.461 272.125 176.387 272.352 176.238 272.578C176.098 272.797 175.902 272.969 175.652 273.094C175.402 273.227 175.113 273.293 174.785 273.293C174.395 273.293 174.066 273.199 173.801 273.012C173.535 272.832 173.305 272.602 173.109 272.32C172.922 272.039 172.664 271.625 172.336 271.078L170.941 268.758C170.441 267.906 169.992 267.258 169.594 266.812C169.203 266.367 168.805 266.062 168.398 265.898C167.992 265.734 167.48 265.652 166.863 265.652ZM168.855 258.434H165.645V263.156H168.762C169.598 263.156 170.301 263.086 170.871 262.945C171.441 262.797 171.875 262.551 172.172 262.207C172.477 261.855 172.629 261.375 172.629 260.766C172.629 260.289 172.508 259.871 172.266 259.512C172.023 259.145 171.688 258.871 171.258 258.691C170.852 258.52 170.051 258.434 168.855 258.434ZM179.602 271.172V257.637C179.602 256.934 179.762 256.406 180.082 256.055C180.402 255.703 180.816 255.527 181.324 255.527C181.848 255.527 182.27 255.703 182.59 256.055C182.918 256.398 183.082 256.926 183.082 257.637V271.172C183.082 271.883 182.918 272.414 182.59 272.766C182.27 273.117 181.848 273.293 181.324 273.293C180.824 273.293 180.41 273.117 180.082 272.766C179.762 272.406 179.602 271.875 179.602 271.172Z" fill="white"/>
<path d="M108 208.209C163.229 208.209 208 163.437 208 108.209C208 52.9805 163.229 8.20898 108 8.20898C52.7716 8.20898 8.00012 52.9805 8.00012 108.209C8.00012 163.437 52.7716 208.209 108 208.209Z" stroke="white" stroke-width="10" stroke-miterlimit="10"/>
<path d="M137.094 75.9366C151.53 62.7707 162.378 50.516 177.822 37.79" stroke="white" stroke-width="10" stroke-miterlimit="10"/>
<path d="M31.9435 174.304C45.656 160.839 60.2344 148.286 74.12 134.995" stroke="white" stroke-width="10" stroke-miterlimit="10"/>
<path d="M119.408 66.3153V56.8037C119.408 54.7079 117.755 53.0312 115.724 53.0312H98.5319C96.501 53.0312 94.8479 54.7079 94.8479 56.7876L94.7849 66.3315L86.2205 90.159C86.0631 90.5782 86.0001 91.0134 86.0001 91.4648V159.61C86.0001 163.093 88.7552 165.914 92.1558 165.914H122.399C125.799 165.914 128.555 163.093 128.555 159.61V91.481C128.555 91.0134 128.476 90.562 128.318 90.1267L119.439 66.3153H119.408Z" stroke="white" stroke-width="5" stroke-miterlimit="10"/>
<path d="M123.564 114.664C121.895 114.68 119.345 114.809 116.29 115.373C112.402 116.099 111.615 116.824 109.836 116.405C107.537 115.857 107.521 114.357 103.192 110.263C98.6578 105.974 96.2648 105.345 95.1942 105.136C93.5884 104.83 91.9196 105.071 90.975 105.233C90.8963 110.666 91.038 116.002 90.975 121.419H90.9593V159.401C90.9593 160.239 91.6205 160.9 92.4234 160.9H122.084C122.903 160.9 123.548 160.223 123.548 159.401V121.983V114.664H123.564Z" fill="white"/>
<path d="M107.254 55.0626C115.07 55.0626 121.407 54.1532 121.407 53.0313C121.407 51.9094 115.07 51 107.254 51C99.4371 51 93.1005 51.9094 93.1005 53.0313C93.1005 54.1532 99.4371 55.0626 107.254 55.0626Z" stroke="white" stroke-width="6" stroke-miterlimit="10"/>
</svg>
