<svg width="250" height="275" viewBox="0 0 250 275" fill="none" xmlns="http://www.w3.org/2000/svg">
<path d="M43.0645 235.197V245.617H48.9434C49.4121 245.617 49.7702 245.731 50.0176 245.959C50.2715 246.187 50.3984 246.473 50.3984 246.818C50.3984 247.17 50.2747 247.456 50.0273 247.678C49.7799 247.893 49.4186 248 48.9434 248H41.9414C41.3099 248 40.8542 247.86 40.5742 247.58C40.3008 247.3 40.1641 246.848 40.1641 246.223V235.197C40.1641 234.611 40.2943 234.172 40.5547 233.879C40.8216 233.586 41.1699 233.439 41.5996 233.439C42.0358 233.439 42.3874 233.586 42.6543 233.879C42.9277 234.165 43.0645 234.605 43.0645 235.197ZM57.6152 233.439C59.0996 233.439 60.3724 233.742 61.4336 234.348C62.5013 234.947 63.3086 235.803 63.8555 236.916C64.4023 238.023 64.6758 239.325 64.6758 240.822C64.6758 241.929 64.526 242.935 64.2266 243.84C63.9271 244.745 63.4779 245.529 62.8789 246.193C62.2799 246.857 61.5443 247.365 60.6719 247.717C59.7995 248.068 58.8001 248.244 57.6738 248.244C56.554 248.244 55.5514 248.065 54.666 247.707C53.7806 247.342 53.0417 246.831 52.4492 246.174C51.8568 245.516 51.4076 244.725 51.1016 243.801C50.8021 242.876 50.6523 241.877 50.6523 240.803C50.6523 239.702 50.8086 238.693 51.1211 237.775C51.4401 236.857 51.8991 236.076 52.498 235.432C53.097 234.787 53.8262 234.296 54.6855 233.957C55.5449 233.612 56.5215 233.439 57.6152 233.439ZM61.7363 240.803C61.7363 239.755 61.5671 238.846 61.2285 238.078C60.89 237.31 60.4049 236.73 59.7734 236.34C59.1484 235.943 58.429 235.744 57.6152 235.744C57.0358 235.744 56.4987 235.855 56.0039 236.076C55.5156 236.291 55.0924 236.607 54.7344 237.023C54.3828 237.44 54.1029 237.974 53.8945 238.625C53.6927 239.27 53.5918 239.995 53.5918 240.803C53.5918 241.617 53.6927 242.352 53.8945 243.01C54.1029 243.667 54.3926 244.214 54.7637 244.65C55.1413 245.08 55.571 245.402 56.0527 245.617C56.541 245.832 57.0749 245.939 57.6543 245.939C58.3965 245.939 59.0768 245.754 59.6953 245.383C60.3203 245.012 60.8151 244.439 61.1797 243.664C61.5508 242.889 61.7363 241.936 61.7363 240.803ZM70.0762 235.197V240.217L75.7695 234.279C76.043 233.993 76.2741 233.781 76.4629 233.645C76.6582 233.508 76.9154 233.439 77.2344 233.439C77.651 233.439 77.9863 233.563 78.2402 233.811C78.5007 234.051 78.6309 234.348 78.6309 234.699C78.6309 235.122 78.4128 235.542 77.9766 235.959L74.4512 239.299L78.5137 245.119C78.8001 245.523 79.015 245.878 79.1582 246.184C79.3014 246.483 79.373 246.776 79.373 247.062C79.373 247.382 79.2461 247.658 78.9922 247.893C78.7448 248.127 78.4062 248.244 77.9766 248.244C77.5729 248.244 77.2441 248.16 76.9902 247.99C76.7363 247.814 76.5215 247.583 76.3457 247.297C76.1699 247.01 76.0137 246.75 75.877 246.516L72.4492 241.242L70.0762 243.518V246.477C70.0762 247.076 69.9395 247.521 69.666 247.814C69.3926 248.101 69.041 248.244 68.6113 248.244C68.3639 248.244 68.1263 248.179 67.8984 248.049C67.6706 247.919 67.4948 247.743 67.3711 247.521C67.2799 247.339 67.2246 247.128 67.2051 246.887C67.1855 246.646 67.1758 246.298 67.1758 245.842V235.197C67.1758 234.611 67.3027 234.172 67.5566 233.879C67.8171 233.586 68.1686 233.439 68.6113 233.439C69.0475 233.439 69.3991 233.586 69.666 233.879C69.9395 234.165 70.0762 234.605 70.0762 235.197ZM91.1211 246.379L90.4375 244.582H84.6172L83.9336 246.418C83.6667 247.134 83.4388 247.619 83.25 247.873C83.0612 248.12 82.752 248.244 82.3223 248.244C81.9577 248.244 81.6354 248.111 81.3555 247.844C81.0755 247.577 80.9355 247.274 80.9355 246.936C80.9355 246.74 80.9681 246.538 81.0332 246.33C81.0983 246.122 81.2057 245.832 81.3555 245.461L85.0176 236.164C85.1217 235.897 85.2454 235.578 85.3887 235.207C85.5384 234.829 85.6947 234.517 85.8574 234.27C86.0267 234.022 86.2448 233.824 86.5117 233.674C86.7852 233.518 87.1204 233.439 87.5176 233.439C87.9212 233.439 88.2565 233.518 88.5234 233.674C88.7969 233.824 89.015 234.019 89.1777 234.26C89.347 234.501 89.487 234.761 89.5977 235.041C89.7148 235.314 89.8613 235.682 90.0371 236.145L93.7773 245.383C94.0703 246.086 94.2168 246.597 94.2168 246.916C94.2168 247.248 94.0768 247.554 93.7969 247.834C93.5234 248.107 93.1914 248.244 92.8008 248.244C92.5729 248.244 92.3776 248.202 92.2148 248.117C92.0521 248.039 91.9154 247.932 91.8047 247.795C91.694 247.652 91.5736 247.437 91.4434 247.15C91.3197 246.857 91.2122 246.6 91.1211 246.379ZM85.3789 242.404H89.6562L87.498 236.496L85.3789 242.404ZM99.1973 235.197V245.617H105.076C105.545 245.617 105.903 245.731 106.15 245.959C106.404 246.187 106.531 246.473 106.531 246.818C106.531 247.17 106.408 247.456 106.16 247.678C105.913 247.893 105.551 248 105.076 248H98.0742C97.4427 248 96.987 247.86 96.707 247.58C96.4336 247.3 96.2969 246.848 96.2969 246.223V235.197C96.2969 234.611 96.4271 234.172 96.6875 233.879C96.9544 233.586 97.3027 233.439 97.7324 233.439C98.1686 233.439 98.5202 233.586 98.7871 233.879C99.0605 234.165 99.1973 234.605 99.1973 235.197ZM117.879 235.92H111.346V239.436H117.361C117.804 239.436 118.133 239.536 118.348 239.738C118.569 239.934 118.68 240.194 118.68 240.52C118.68 240.845 118.572 241.112 118.357 241.32C118.143 241.522 117.811 241.623 117.361 241.623H111.346V245.695H118.104C118.559 245.695 118.901 245.803 119.129 246.018C119.363 246.226 119.48 246.506 119.48 246.857C119.48 247.196 119.363 247.473 119.129 247.688C118.901 247.896 118.559 248 118.104 248H110.223C109.591 248 109.135 247.86 108.855 247.58C108.582 247.3 108.445 246.848 108.445 246.223V235.461C108.445 235.044 108.507 234.706 108.631 234.445C108.755 234.178 108.947 233.986 109.207 233.869C109.474 233.745 109.812 233.684 110.223 233.684H117.879C118.341 233.684 118.683 233.788 118.904 233.996C119.132 234.198 119.246 234.465 119.246 234.797C119.246 235.135 119.132 235.409 118.904 235.617C118.683 235.819 118.341 235.92 117.879 235.92ZM128.582 233.684H132.361C133.344 233.684 134.188 233.775 134.891 233.957C135.594 234.139 136.232 234.481 136.805 234.982C138.296 236.258 139.041 238.199 139.041 240.803C139.041 241.662 138.966 242.447 138.816 243.156C138.667 243.866 138.436 244.507 138.123 245.08C137.811 245.646 137.41 246.154 136.922 246.604C136.538 246.949 136.118 247.225 135.662 247.434C135.206 247.642 134.715 247.788 134.188 247.873C133.667 247.958 133.077 248 132.42 248H128.641C128.113 248 127.716 247.922 127.449 247.766C127.182 247.603 127.007 247.378 126.922 247.092C126.844 246.799 126.805 246.421 126.805 245.959V235.461C126.805 234.836 126.945 234.383 127.225 234.104C127.505 233.824 127.957 233.684 128.582 233.684ZM129.705 235.979V245.695H131.902C132.384 245.695 132.762 245.682 133.035 245.656C133.309 245.63 133.592 245.565 133.885 245.461C134.178 245.357 134.432 245.21 134.646 245.021C135.617 244.201 136.102 242.788 136.102 240.783C136.102 239.37 135.887 238.312 135.457 237.609C135.034 236.906 134.51 236.46 133.885 236.271C133.26 236.076 132.505 235.979 131.619 235.979H129.705ZM149.988 246.379L149.305 244.582H143.484L142.801 246.418C142.534 247.134 142.306 247.619 142.117 247.873C141.928 248.12 141.619 248.244 141.189 248.244C140.825 248.244 140.503 248.111 140.223 247.844C139.943 247.577 139.803 247.274 139.803 246.936C139.803 246.74 139.835 246.538 139.9 246.33C139.965 246.122 140.073 245.832 140.223 245.461L143.885 236.164C143.989 235.897 144.113 235.578 144.256 235.207C144.406 234.829 144.562 234.517 144.725 234.27C144.894 234.022 145.112 233.824 145.379 233.674C145.652 233.518 145.988 233.439 146.385 233.439C146.788 233.439 147.124 233.518 147.391 233.674C147.664 233.824 147.882 234.019 148.045 234.26C148.214 234.501 148.354 234.761 148.465 235.041C148.582 235.314 148.729 235.682 148.904 236.145L152.645 245.383C152.938 246.086 153.084 246.597 153.084 246.916C153.084 247.248 152.944 247.554 152.664 247.834C152.391 248.107 152.059 248.244 151.668 248.244C151.44 248.244 151.245 248.202 151.082 248.117C150.919 248.039 150.783 247.932 150.672 247.795C150.561 247.652 150.441 247.437 150.311 247.15C150.187 246.857 150.079 246.6 149.988 246.379ZM144.246 242.404H148.523L146.365 236.496L144.246 242.404ZM159.002 235.178L164.578 243.615V235.1C164.578 234.546 164.695 234.133 164.93 233.859C165.171 233.579 165.493 233.439 165.896 233.439C166.313 233.439 166.642 233.579 166.883 233.859C167.124 234.133 167.244 234.546 167.244 235.1V246.359C167.244 247.616 166.723 248.244 165.682 248.244C165.421 248.244 165.187 248.205 164.979 248.127C164.77 248.055 164.575 247.938 164.393 247.775C164.21 247.613 164.041 247.424 163.885 247.209C163.729 246.988 163.572 246.763 163.416 246.535L157.977 238.195V246.584C157.977 247.131 157.85 247.544 157.596 247.824C157.342 248.104 157.016 248.244 156.619 248.244C156.209 248.244 155.88 248.104 155.633 247.824C155.385 247.538 155.262 247.124 155.262 246.584V235.539C155.262 235.07 155.314 234.702 155.418 234.436C155.542 234.143 155.747 233.905 156.033 233.723C156.32 233.534 156.629 233.439 156.961 233.439C157.221 233.439 157.443 233.482 157.625 233.566C157.814 233.651 157.977 233.765 158.113 233.908C158.257 234.051 158.4 234.237 158.543 234.465C158.693 234.693 158.846 234.93 159.002 235.178ZM181.297 243.703C181.297 244.569 181.072 245.347 180.623 246.037C180.18 246.727 179.529 247.268 178.67 247.658C177.811 248.049 176.792 248.244 175.613 248.244C174.201 248.244 173.035 247.977 172.117 247.443C171.466 247.059 170.936 246.548 170.525 245.91C170.122 245.266 169.92 244.641 169.92 244.035C169.92 243.684 170.04 243.384 170.281 243.137C170.529 242.883 170.841 242.756 171.219 242.756C171.525 242.756 171.782 242.854 171.99 243.049C172.205 243.244 172.387 243.534 172.537 243.918C172.719 244.374 172.915 244.755 173.123 245.061C173.338 245.367 173.637 245.62 174.021 245.822C174.406 246.018 174.91 246.115 175.535 246.115C176.395 246.115 177.091 245.917 177.625 245.52C178.165 245.116 178.436 244.615 178.436 244.016C178.436 243.54 178.289 243.156 177.996 242.863C177.71 242.564 177.335 242.336 176.873 242.18C176.417 242.023 175.805 241.857 175.037 241.682C174.008 241.441 173.146 241.161 172.449 240.842C171.759 240.516 171.209 240.077 170.799 239.523C170.395 238.964 170.193 238.27 170.193 237.443C170.193 236.656 170.408 235.956 170.838 235.344C171.268 234.732 171.889 234.263 172.703 233.938C173.517 233.605 174.474 233.439 175.574 233.439C176.453 233.439 177.212 233.55 177.85 233.771C178.494 233.986 179.028 234.276 179.451 234.641C179.874 234.999 180.184 235.376 180.379 235.773C180.574 236.171 180.672 236.558 180.672 236.936C180.672 237.281 180.548 237.593 180.301 237.873C180.06 238.146 179.757 238.283 179.393 238.283C179.061 238.283 178.807 238.202 178.631 238.039C178.462 237.87 178.276 237.596 178.074 237.219C177.814 236.678 177.501 236.258 177.137 235.959C176.772 235.653 176.186 235.5 175.379 235.5C174.63 235.5 174.025 235.666 173.562 235.998C173.107 236.324 172.879 236.717 172.879 237.18C172.879 237.466 172.957 237.714 173.113 237.922C173.27 238.13 173.484 238.309 173.758 238.459C174.031 238.609 174.308 238.726 174.588 238.811C174.868 238.895 175.33 239.019 175.975 239.182C176.782 239.37 177.511 239.579 178.162 239.807C178.82 240.035 179.376 240.311 179.832 240.637C180.294 240.962 180.652 241.376 180.906 241.877C181.167 242.372 181.297 242.98 181.297 243.703ZM186.678 235.197V240.217L192.371 234.279C192.645 233.993 192.876 233.781 193.064 233.645C193.26 233.508 193.517 233.439 193.836 233.439C194.253 233.439 194.588 233.563 194.842 233.811C195.102 234.051 195.232 234.348 195.232 234.699C195.232 235.122 195.014 235.542 194.578 235.959L191.053 239.299L195.115 245.119C195.402 245.523 195.617 245.878 195.76 246.184C195.903 246.483 195.975 246.776 195.975 247.062C195.975 247.382 195.848 247.658 195.594 247.893C195.346 248.127 195.008 248.244 194.578 248.244C194.174 248.244 193.846 248.16 193.592 247.99C193.338 247.814 193.123 247.583 192.947 247.297C192.771 247.01 192.615 246.75 192.479 246.516L189.051 241.242L186.678 243.518V246.477C186.678 247.076 186.541 247.521 186.268 247.814C185.994 248.101 185.643 248.244 185.213 248.244C184.965 248.244 184.728 248.179 184.5 248.049C184.272 247.919 184.096 247.743 183.973 247.521C183.882 247.339 183.826 247.128 183.807 246.887C183.787 246.646 183.777 246.298 183.777 245.842V235.197C183.777 234.611 183.904 234.172 184.158 233.879C184.419 233.586 184.77 233.439 185.213 233.439C185.649 233.439 186.001 233.586 186.268 233.879C186.541 234.165 186.678 234.605 186.678 235.197ZM207.996 235.92H201.463V239.436H207.479C207.921 239.436 208.25 239.536 208.465 239.738C208.686 239.934 208.797 240.194 208.797 240.52C208.797 240.845 208.689 241.112 208.475 241.32C208.26 241.522 207.928 241.623 207.479 241.623H201.463V245.695H208.221C208.676 245.695 209.018 245.803 209.246 246.018C209.48 246.226 209.598 246.506 209.598 246.857C209.598 247.196 209.48 247.473 209.246 247.688C209.018 247.896 208.676 248 208.221 248H200.34C199.708 248 199.253 247.86 198.973 247.58C198.699 247.3 198.562 246.848 198.562 246.223V235.461C198.562 235.044 198.624 234.706 198.748 234.445C198.872 234.178 199.064 233.986 199.324 233.869C199.591 233.745 199.93 233.684 200.34 233.684H207.996C208.458 233.684 208.8 233.788 209.021 233.996C209.249 234.198 209.363 234.465 209.363 234.797C209.363 235.135 209.249 235.409 209.021 235.617C208.8 235.819 208.458 235.92 207.996 235.92Z" fill="white"/>
<path d="M81.9336 265.877H80.918V270.477C80.918 271.082 80.7845 271.528 80.5176 271.814C80.2507 272.101 79.9023 272.244 79.4727 272.244C79.0104 272.244 78.6523 272.094 78.3984 271.795C78.1445 271.495 78.0176 271.056 78.0176 270.477V259.461C78.0176 258.836 78.1576 258.383 78.4375 258.104C78.7174 257.824 79.1699 257.684 79.7949 257.684H84.5117C85.1628 257.684 85.7194 257.713 86.1816 257.771C86.6439 257.824 87.0605 257.934 87.4316 258.104C87.8809 258.292 88.278 258.562 88.623 258.914C88.9681 259.266 89.2285 259.676 89.4043 260.145C89.5866 260.607 89.6777 261.098 89.6777 261.619C89.6777 262.687 89.375 263.54 88.7695 264.178C88.1706 264.816 87.2591 265.268 86.0352 265.535C86.5495 265.809 87.041 266.212 87.5098 266.746C87.9785 267.28 88.3952 267.85 88.7598 268.455C89.1309 269.054 89.4173 269.598 89.6191 270.086C89.8275 270.568 89.9316 270.9 89.9316 271.082C89.9316 271.271 89.8698 271.46 89.7461 271.648C89.6289 271.831 89.4661 271.974 89.2578 272.078C89.0495 272.189 88.8086 272.244 88.5352 272.244C88.2096 272.244 87.9362 272.166 87.7148 272.01C87.4935 271.86 87.3014 271.668 87.1387 271.434C86.9824 271.199 86.7676 270.854 86.4941 270.398L85.332 268.465C84.9154 267.755 84.541 267.215 84.209 266.844C83.8835 266.473 83.5514 266.219 83.2129 266.082C82.8743 265.945 82.4479 265.877 81.9336 265.877ZM83.5938 259.861H80.918V263.797H83.5156C84.2122 263.797 84.7982 263.738 85.2734 263.621C85.7487 263.497 86.11 263.292 86.3574 263.006C86.6113 262.713 86.7383 262.312 86.7383 261.805C86.7383 261.408 86.6374 261.059 86.4355 260.76C86.2337 260.454 85.9538 260.226 85.5957 260.076C85.2572 259.933 84.5898 259.861 83.5938 259.861ZM101.592 270.379L100.908 268.582H95.0879L94.4043 270.418C94.1374 271.134 93.9095 271.619 93.7207 271.873C93.5319 272.12 93.2227 272.244 92.793 272.244C92.4284 272.244 92.1061 272.111 91.8262 271.844C91.5462 271.577 91.4062 271.274 91.4062 270.936C91.4062 270.74 91.4388 270.538 91.5039 270.33C91.569 270.122 91.6764 269.832 91.8262 269.461L95.4883 260.164C95.5924 259.897 95.7161 259.578 95.8594 259.207C96.0091 258.829 96.1654 258.517 96.3281 258.27C96.4974 258.022 96.7155 257.824 96.9824 257.674C97.2559 257.518 97.5911 257.439 97.9883 257.439C98.3919 257.439 98.7272 257.518 98.9941 257.674C99.2676 257.824 99.4857 258.019 99.6484 258.26C99.8177 258.501 99.9577 258.761 100.068 259.041C100.186 259.314 100.332 259.682 100.508 260.145L104.248 269.383C104.541 270.086 104.688 270.597 104.688 270.916C104.688 271.248 104.548 271.554 104.268 271.834C103.994 272.107 103.662 272.244 103.271 272.244C103.044 272.244 102.848 272.202 102.686 272.117C102.523 272.039 102.386 271.932 102.275 271.795C102.165 271.652 102.044 271.437 101.914 271.15C101.79 270.857 101.683 270.6 101.592 270.379ZM95.8496 266.404H100.127L97.9688 260.496L95.8496 266.404ZM97.5293 253.074C98.0827 253.074 98.5579 253.273 98.9551 253.67C99.3522 254.067 99.5508 254.542 99.5508 255.096C99.5508 255.649 99.3522 256.124 98.9551 256.521C98.5579 256.919 98.0827 257.117 97.5293 257.117C97.1582 257.117 96.8197 257.026 96.5137 256.844C96.2077 256.661 95.9635 256.417 95.7812 256.111C95.599 255.805 95.5078 255.467 95.5078 255.096C95.5078 254.542 95.7064 254.067 96.1035 253.67C96.5007 253.273 96.9759 253.074 97.5293 253.074ZM97.5293 254.1C97.2428 254.1 97.0052 254.194 96.8164 254.383C96.6276 254.572 96.5332 254.809 96.5332 255.096C96.5332 255.376 96.6276 255.61 96.8164 255.799C97.0117 255.981 97.2493 256.072 97.5293 256.072C97.7116 256.072 97.8776 256.03 98.0273 255.945C98.1836 255.861 98.304 255.743 98.3887 255.594C98.4798 255.444 98.5254 255.278 98.5254 255.096C98.5254 254.959 98.4993 254.829 98.4473 254.705C98.3952 254.575 98.3268 254.467 98.2422 254.383C98.1576 254.298 98.0501 254.23 97.9199 254.178C97.7962 254.126 97.666 254.1 97.5293 254.1ZM107.93 259.344L111.172 268.943L114.424 259.275C114.593 258.768 114.72 258.416 114.805 258.221C114.889 258.019 115.029 257.84 115.225 257.684C115.42 257.521 115.687 257.439 116.025 257.439C116.273 257.439 116.501 257.501 116.709 257.625C116.924 257.749 117.09 257.915 117.207 258.123C117.331 258.325 117.393 258.53 117.393 258.738C117.393 258.882 117.373 259.038 117.334 259.207C117.295 259.37 117.246 259.533 117.188 259.695C117.129 259.852 117.07 260.014 117.012 260.184L113.545 269.539C113.421 269.897 113.298 270.239 113.174 270.564C113.05 270.883 112.907 271.167 112.744 271.414C112.581 271.655 112.363 271.854 112.09 272.01C111.823 272.166 111.494 272.244 111.104 272.244C110.713 272.244 110.381 272.166 110.107 272.01C109.84 271.86 109.622 271.661 109.453 271.414C109.29 271.16 109.147 270.874 109.023 270.555C108.9 270.236 108.776 269.897 108.652 269.539L105.244 260.262C105.186 260.092 105.124 259.926 105.059 259.764C105 259.601 104.948 259.425 104.902 259.236C104.863 259.048 104.844 258.888 104.844 258.758C104.844 258.426 104.977 258.123 105.244 257.85C105.511 257.576 105.846 257.439 106.25 257.439C106.745 257.439 107.093 257.592 107.295 257.898C107.503 258.198 107.715 258.68 107.93 259.344ZM127.725 270.379L127.041 268.582H121.221L120.537 270.418C120.27 271.134 120.042 271.619 119.854 271.873C119.665 272.12 119.355 272.244 118.926 272.244C118.561 272.244 118.239 272.111 117.959 271.844C117.679 271.577 117.539 271.274 117.539 270.936C117.539 270.74 117.572 270.538 117.637 270.33C117.702 270.122 117.809 269.832 117.959 269.461L121.621 260.164C121.725 259.897 121.849 259.578 121.992 259.207C122.142 258.829 122.298 258.517 122.461 258.27C122.63 258.022 122.848 257.824 123.115 257.674C123.389 257.518 123.724 257.439 124.121 257.439C124.525 257.439 124.86 257.518 125.127 257.674C125.4 257.824 125.618 258.019 125.781 258.26C125.951 258.501 126.09 258.761 126.201 259.041C126.318 259.314 126.465 259.682 126.641 260.145L130.381 269.383C130.674 270.086 130.82 270.597 130.82 270.916C130.82 271.248 130.68 271.554 130.4 271.834C130.127 272.107 129.795 272.244 129.404 272.244C129.176 272.244 128.981 272.202 128.818 272.117C128.656 272.039 128.519 271.932 128.408 271.795C128.298 271.652 128.177 271.437 128.047 271.15C127.923 270.857 127.816 270.6 127.725 270.379ZM121.982 266.404H126.26L124.102 260.496L121.982 266.404ZM136.855 265.877H135.84V270.477C135.84 271.082 135.706 271.528 135.439 271.814C135.173 272.101 134.824 272.244 134.395 272.244C133.932 272.244 133.574 272.094 133.32 271.795C133.066 271.495 132.939 271.056 132.939 270.477V259.461C132.939 258.836 133.079 258.383 133.359 258.104C133.639 257.824 134.092 257.684 134.717 257.684H139.434C140.085 257.684 140.641 257.713 141.104 257.771C141.566 257.824 141.982 257.934 142.354 258.104C142.803 258.292 143.2 258.562 143.545 258.914C143.89 259.266 144.15 259.676 144.326 260.145C144.508 260.607 144.6 261.098 144.6 261.619C144.6 262.687 144.297 263.54 143.691 264.178C143.092 264.816 142.181 265.268 140.957 265.535C141.471 265.809 141.963 266.212 142.432 266.746C142.9 267.28 143.317 267.85 143.682 268.455C144.053 269.054 144.339 269.598 144.541 270.086C144.749 270.568 144.854 270.9 144.854 271.082C144.854 271.271 144.792 271.46 144.668 271.648C144.551 271.831 144.388 271.974 144.18 272.078C143.971 272.189 143.73 272.244 143.457 272.244C143.132 272.244 142.858 272.166 142.637 272.01C142.415 271.86 142.223 271.668 142.061 271.434C141.904 271.199 141.689 270.854 141.416 270.398L140.254 268.465C139.837 267.755 139.463 267.215 139.131 266.844C138.805 266.473 138.473 266.219 138.135 266.082C137.796 265.945 137.37 265.877 136.855 265.877ZM138.516 259.861H135.84V263.797H138.438C139.134 263.797 139.72 263.738 140.195 263.621C140.671 263.497 141.032 263.292 141.279 263.006C141.533 262.713 141.66 262.312 141.66 261.805C141.66 261.408 141.559 261.059 141.357 260.76C141.156 260.454 140.876 260.226 140.518 260.076C140.179 259.933 139.512 259.861 138.516 259.861ZM156.787 259.92H150.254V263.436H156.27C156.712 263.436 157.041 263.536 157.256 263.738C157.477 263.934 157.588 264.194 157.588 264.52C157.588 264.845 157.48 265.112 157.266 265.32C157.051 265.522 156.719 265.623 156.27 265.623H150.254V269.695H157.012C157.467 269.695 157.809 269.803 158.037 270.018C158.271 270.226 158.389 270.506 158.389 270.857C158.389 271.196 158.271 271.473 158.037 271.688C157.809 271.896 157.467 272 157.012 272H149.131C148.499 272 148.044 271.86 147.764 271.58C147.49 271.3 147.354 270.848 147.354 270.223V259.461C147.354 259.044 147.415 258.706 147.539 258.445C147.663 258.178 147.855 257.986 148.115 257.869C148.382 257.745 148.721 257.684 149.131 257.684H156.787C157.249 257.684 157.591 257.788 157.812 257.996C158.04 258.198 158.154 258.465 158.154 258.797C158.154 259.135 158.04 259.409 157.812 259.617C157.591 259.819 157.249 259.92 156.787 259.92ZM164.59 265.877H163.574V270.477C163.574 271.082 163.441 271.528 163.174 271.814C162.907 272.101 162.559 272.244 162.129 272.244C161.667 272.244 161.309 272.094 161.055 271.795C160.801 271.495 160.674 271.056 160.674 270.477V259.461C160.674 258.836 160.814 258.383 161.094 258.104C161.374 257.824 161.826 257.684 162.451 257.684H167.168C167.819 257.684 168.376 257.713 168.838 257.771C169.3 257.824 169.717 257.934 170.088 258.104C170.537 258.292 170.934 258.562 171.279 258.914C171.624 259.266 171.885 259.676 172.061 260.145C172.243 260.607 172.334 261.098 172.334 261.619C172.334 262.687 172.031 263.54 171.426 264.178C170.827 264.816 169.915 265.268 168.691 265.535C169.206 265.809 169.697 266.212 170.166 266.746C170.635 267.28 171.051 267.85 171.416 268.455C171.787 269.054 172.074 269.598 172.275 270.086C172.484 270.568 172.588 270.9 172.588 271.082C172.588 271.271 172.526 271.46 172.402 271.648C172.285 271.831 172.122 271.974 171.914 272.078C171.706 272.189 171.465 272.244 171.191 272.244C170.866 272.244 170.592 272.166 170.371 272.01C170.15 271.86 169.958 271.668 169.795 271.434C169.639 271.199 169.424 270.854 169.15 270.398L167.988 268.465C167.572 267.755 167.197 267.215 166.865 266.844C166.54 266.473 166.208 266.219 165.869 266.082C165.531 265.945 165.104 265.877 164.59 265.877ZM166.25 259.861H163.574V263.797H166.172C166.868 263.797 167.454 263.738 167.93 263.621C168.405 263.497 168.766 263.292 169.014 263.006C169.268 262.713 169.395 262.312 169.395 261.805C169.395 261.408 169.294 261.059 169.092 260.76C168.89 260.454 168.61 260.226 168.252 260.076C167.913 259.933 167.246 259.861 166.25 259.861Z" fill="white"/>
<path d="M125 208C180.228 208 225 163.228 225 108C225 52.7715 180.228 8 125 8C69.7715 8 25 52.7715 25 108C25 163.228 69.7715 208 125 208Z" stroke="white" stroke-width="10" stroke-miterlimit="10"/>
<path d="M125.466 49C108.09 49 94 63.7881 94 82.042C94 98.32 117.981 154.289 123.17 166.176C123.548 167.054 124.79 167.07 125.199 166.207C130.797 154.383 156.948 98.3357 156.948 82.042C156.948 63.7881 142.858 49 125.482 49H125.466Z" stroke="white" stroke-width="6" stroke-miterlimit="10"/>
<path d="M124.271 161.942V113.187" stroke="white" stroke-width="4" stroke-miterlimit="10"/>
<path d="M122.054 90.9651C125.718 101.378 122.4 112.104 122.337 112.167C122.337 112.167 112.949 105.91 109.253 95.4345C106.423 87.4053 107.775 79.2349 108.546 75.8476C108.735 75.0478 109.678 74.7185 110.307 75.236C113.043 77.3845 119.208 82.9359 122.038 90.9651H122.054Z" stroke="white" stroke-width="3" stroke-miterlimit="10"/>
<path d="M137.009 102.491C133.47 107.933 127.888 110.991 125.466 112.089C124.9 112.355 124.255 111.932 124.255 111.305C124.287 108.654 124.759 102.335 128.297 96.8616C131.835 91.4043 137.417 88.3933 139.839 87.2799C140.405 87.0133 141.05 87.4367 141.05 88.064C141.018 90.7299 140.547 97.0341 137.009 102.491Z" stroke="white" stroke-width="3" stroke-miterlimit="10"/>
<path d="M113.389 88.1421L121.488 109.642" stroke="white" stroke-width="2" stroke-miterlimit="10" stroke-linecap="round"/>
<path d="M135.263 96.2969L126.095 109.642" stroke="white" stroke-width="2" stroke-miterlimit="10" stroke-linecap="round"/>
<path d="M112.744 95.6694L116.739 96.2967" stroke="white" stroke-miterlimit="10" stroke-linecap="round"/>
<path d="M115.874 101.786L119.003 102.287" stroke="white" stroke-miterlimit="10" stroke-linecap="round"/>
<path d="M135.703 99.6997L132.086 100.217" stroke="white" stroke-miterlimit="10" stroke-linecap="round"/>
<path d="M132.48 104.091L129.067 104.483" stroke="white" stroke-miterlimit="10" stroke-linecap="round"/>
</svg>
