<svg width="59" height="64" viewBox="0 0 59 64" fill="none" xmlns="http://www.w3.org/2000/svg">
<path d="M2.55104 52.4416V55.8277H4.46149C4.61382 55.8277 4.73018 55.8647 4.81057 55.9388C4.89308 56.0128 4.93434 56.1059 4.93434 56.2181C4.93434 56.3323 4.89414 56.4254 4.81375 56.4973C4.73335 56.5671 4.61593 56.6021 4.46149 56.6021H2.18609C1.98087 56.6021 1.83277 56.5566 1.7418 56.4656C1.65294 56.3746 1.60851 56.2276 1.60851 56.0245V52.4416C1.60851 52.2512 1.65083 52.1084 1.73545 52.0132C1.82219 51.918 1.93538 51.8704 2.07502 51.8704C2.21677 51.8704 2.33101 51.918 2.41775 52.0132C2.50661 52.1063 2.55104 52.2491 2.55104 52.4416ZM7.27955 51.8704C7.76193 51.8704 8.17554 51.9687 8.52039 52.1655C8.86736 52.3601 9.1297 52.6384 9.30742 53.0001C9.48514 53.3598 9.57399 53.7829 9.57399 54.2695C9.57399 54.6292 9.52533 54.9561 9.42801 55.2501C9.33069 55.5442 9.18471 55.7992 8.99007 56.015C8.79543 56.2308 8.55636 56.3958 8.27286 56.51C7.98936 56.6243 7.66461 56.6814 7.2986 56.6814C6.9347 56.6814 6.60889 56.6232 6.32116 56.5068C6.03343 56.3884 5.7933 56.2223 5.60077 56.0086C5.40825 55.7949 5.26227 55.5379 5.16283 55.2374C5.06551 54.937 5.01685 54.6123 5.01685 54.2632C5.01685 53.9056 5.06763 53.5777 5.16918 53.2794C5.27285 52.9811 5.422 52.7272 5.61664 52.5178C5.81128 52.3083 6.04824 52.1486 6.3275 52.0386C6.60677 51.9264 6.92412 51.8704 7.27955 51.8704ZM8.61877 54.2632C8.61877 53.9226 8.56376 53.6274 8.45375 53.3778C8.34373 53.1281 8.18612 52.9398 7.9809 52.8129C7.77779 52.6838 7.54401 52.6193 7.27955 52.6193C7.09126 52.6193 6.91672 52.6553 6.75593 52.7272C6.59725 52.797 6.45973 52.8996 6.34337 53.035C6.22913 53.1704 6.13815 53.3439 6.07045 53.5555C6.00487 53.7649 5.97207 54.0008 5.97207 54.2632C5.97207 54.5276 6.00487 54.7667 6.07045 54.9804C6.13815 55.1941 6.2323 55.3718 6.35289 55.5135C6.4756 55.6532 6.61524 55.7579 6.77179 55.8277C6.93047 55.8975 7.10395 55.9324 7.29225 55.9324C7.53343 55.9324 7.75452 55.8721 7.95551 55.7516C8.15861 55.631 8.3194 55.4448 8.43788 55.193C8.55847 54.9413 8.61877 54.6313 8.61877 54.2632ZM11.3289 52.4416V54.0728L13.1791 52.1433C13.2679 52.0502 13.3431 51.9814 13.4044 51.937C13.4679 51.8926 13.5514 51.8704 13.6551 51.8704C13.7905 51.8704 13.8995 51.9106 13.982 51.991C14.0666 52.0692 14.1089 52.1655 14.1089 52.2797C14.1089 52.4173 14.038 52.5537 13.8963 52.6891L12.7507 53.7745L14.0708 55.6659C14.1639 55.797 14.2337 55.9123 14.2803 56.0118C14.3268 56.1091 14.3501 56.2043 14.3501 56.2974C14.3501 56.4011 14.3089 56.491 14.2263 56.5671C14.1459 56.6433 14.0359 56.6814 13.8963 56.6814C13.7651 56.6814 13.6583 56.6539 13.5758 56.5989C13.4933 56.5418 13.4234 56.4666 13.3663 56.3736C13.3092 56.2805 13.2584 56.1958 13.214 56.1197L12.1001 54.406L11.3289 55.1454V56.107C11.3289 56.3016 11.2845 56.4465 11.1957 56.5418C11.1068 56.6348 10.9925 56.6814 10.8529 56.6814C10.7725 56.6814 10.6953 56.6602 10.6212 56.6179C10.5472 56.5756 10.4901 56.5185 10.4499 56.4465C10.4203 56.3873 10.4023 56.3186 10.3959 56.2403C10.3896 56.162 10.3864 56.0488 10.3864 55.9007V52.4416C10.3864 52.2512 10.4277 52.1084 10.5102 52.0132C10.5948 51.918 10.709 51.8704 10.8529 51.8704C10.9947 51.8704 11.1089 51.918 11.1957 52.0132C11.2845 52.1063 11.3289 52.2491 11.3289 52.4416ZM18.1678 56.0752L17.9457 55.4913H16.0543L15.8321 56.0879C15.7454 56.3207 15.6713 56.4783 15.61 56.5608C15.5486 56.6412 15.4481 56.6814 15.3085 56.6814C15.19 56.6814 15.0853 56.638 14.9943 56.5513C14.9034 56.4645 14.8579 56.3662 14.8579 56.2561C14.8579 56.1927 14.8684 56.1271 14.8896 56.0594C14.9108 55.9917 14.9457 55.8975 14.9943 55.7769L16.1844 52.7558C16.2182 52.669 16.2584 52.5654 16.305 52.4448C16.3536 52.3221 16.4044 52.2205 16.4573 52.1401C16.5123 52.0597 16.5832 51.9952 16.6699 51.9465C16.7588 51.8958 16.8678 51.8704 16.9968 51.8704C17.128 51.8704 17.2369 51.8958 17.3237 51.9465C17.4125 51.9952 17.4834 52.0587 17.5363 52.1369C17.5913 52.2152 17.6368 52.2998 17.6728 52.3908C17.7108 52.4797 17.7584 52.5992 17.8156 52.7494L19.031 55.7516C19.1262 55.98 19.1738 56.1461 19.1738 56.2498C19.1738 56.3577 19.1283 56.4571 19.0374 56.5481C18.9485 56.637 18.8406 56.6814 18.7137 56.6814C18.6396 56.6814 18.5762 56.6676 18.5233 56.6401C18.4704 56.6147 18.4259 56.5798 18.39 56.5354C18.354 56.4889 18.3149 56.419 18.2726 56.326C18.2324 56.2308 18.1974 56.1472 18.1678 56.0752ZM16.3018 54.7836H17.6918L16.9905 52.8637L16.3018 54.7836ZM20.7923 52.4416V55.8277H22.7028C22.8551 55.8277 22.9714 55.8647 23.0518 55.9388C23.1344 56.0128 23.1756 56.1059 23.1756 56.2181C23.1756 56.3323 23.1354 56.4254 23.055 56.4973C22.9746 56.5671 22.8572 56.6021 22.7028 56.6021H20.4274C20.2221 56.6021 20.074 56.5566 19.9831 56.4656C19.8942 56.3746 19.8498 56.2276 19.8498 56.0245V52.4416C19.8498 52.2512 19.8921 52.1084 19.9767 52.0132C20.0635 51.918 20.1767 51.8704 20.3163 51.8704C20.458 51.8704 20.5723 51.918 20.659 52.0132C20.7479 52.1063 20.7923 52.2491 20.7923 52.4416ZM26.8632 52.6764H24.7401V53.8189H26.695C26.8389 53.8189 26.9457 53.8517 27.0155 53.9173C27.0875 53.9807 27.1234 54.0654 27.1234 54.1712C27.1234 54.2769 27.0885 54.3637 27.0187 54.4314C26.9489 54.497 26.841 54.5298 26.695 54.5298H24.7401V55.8531H26.9362C27.0843 55.8531 27.1954 55.888 27.2694 55.9578C27.3456 56.0255 27.3837 56.1165 27.3837 56.2308C27.3837 56.3408 27.3456 56.4307 27.2694 56.5005C27.1954 56.5682 27.0843 56.6021 26.9362 56.6021H24.3752C24.17 56.6021 24.0219 56.5566 23.9309 56.4656C23.842 56.3746 23.7976 56.2276 23.7976 56.0245V52.5273C23.7976 52.3919 23.8177 52.2819 23.8579 52.1972C23.8981 52.1105 23.9605 52.0481 24.0451 52.01C24.1319 51.9698 24.2419 51.9497 24.3752 51.9497H26.8632C27.0134 51.9497 27.1245 51.9836 27.1964 52.0513C27.2705 52.1168 27.3075 52.2036 27.3075 52.3115C27.3075 52.4215 27.2705 52.5104 27.1964 52.5781C27.1245 52.6436 27.0134 52.6764 26.8632 52.6764ZM30.3414 51.9497H31.5695C31.889 51.9497 32.163 51.9793 32.3915 52.0386C32.6199 52.0978 32.8273 52.2089 33.0135 52.3718C33.4979 52.7864 33.7402 53.4169 33.7402 54.2632C33.7402 54.5424 33.7159 54.7974 33.6672 55.028C33.6185 55.2586 33.5434 55.467 33.4419 55.6532C33.3403 55.8372 33.2102 56.0023 33.0515 56.1482C32.9267 56.2604 32.7903 56.3503 32.6422 56.418C32.4941 56.4857 32.3343 56.5333 32.163 56.5608C31.9937 56.5883 31.8022 56.6021 31.5886 56.6021H30.3604C30.189 56.6021 30.06 56.5767 29.9732 56.5259C29.8865 56.473 29.8294 56.4 29.8019 56.3069C29.7765 56.2117 29.7638 56.089 29.7638 55.9388V52.5273C29.7638 52.3242 29.8093 52.1771 29.9003 52.0862C29.9912 51.9952 30.1383 51.9497 30.3414 51.9497ZM30.7063 52.6955V55.8531H31.4204C31.5769 55.8531 31.6996 55.8489 31.7885 55.8404C31.8773 55.8319 31.9694 55.8108 32.0646 55.7769C32.1598 55.7431 32.2423 55.6955 32.3121 55.6341C32.6273 55.3676 32.785 54.9085 32.785 54.2568C32.785 53.7977 32.7151 53.4539 32.5755 53.2254C32.438 52.997 32.2677 52.852 32.0646 52.7907C31.8615 52.7272 31.6161 52.6955 31.3283 52.6955H30.7063ZM37.2977 56.0752L37.0755 55.4913H35.1841L34.962 56.0879C34.8752 56.3207 34.8012 56.4783 34.7398 56.5608C34.6785 56.6412 34.578 56.6814 34.4384 56.6814C34.3199 56.6814 34.2152 56.638 34.1242 56.5513C34.0332 56.4645 33.9877 56.3662 33.9877 56.2561C33.9877 56.1927 33.9983 56.1271 34.0195 56.0594C34.0406 55.9917 34.0755 55.8975 34.1242 55.7769L35.3142 52.7558C35.3481 52.669 35.3883 52.5654 35.4348 52.4448C35.4835 52.3221 35.5343 52.2205 35.5872 52.1401C35.6422 52.0597 35.713 51.9952 35.7998 51.9465C35.8886 51.8958 35.9976 51.8704 36.1267 51.8704C36.2578 51.8704 36.3668 51.8958 36.4535 51.9465C36.5424 51.9952 36.6133 52.0587 36.6662 52.1369C36.7212 52.2152 36.7666 52.2998 36.8026 52.3908C36.8407 52.4797 36.8883 52.5992 36.9454 52.7494L38.1609 55.7516C38.2561 55.98 38.3037 56.1461 38.3037 56.2498C38.3037 56.3577 38.2582 56.4571 38.1672 56.5481C38.0784 56.637 37.9705 56.6814 37.8435 56.6814C37.7695 56.6814 37.706 56.6676 37.6531 56.6401C37.6002 56.6147 37.5558 56.5798 37.5198 56.5354C37.4839 56.4889 37.4447 56.419 37.4024 56.326C37.3622 56.2308 37.3273 56.1472 37.2977 56.0752ZM35.4317 54.7836H36.8217L36.1203 52.8637L35.4317 54.7836ZM40.2268 52.4352L42.0389 55.1771V52.4099C42.0389 52.23 42.077 52.0957 42.1531 52.0068C42.2314 51.9159 42.3361 51.8704 42.4673 51.8704C42.6027 51.8704 42.7096 51.9159 42.7878 52.0068C42.8661 52.0957 42.9053 52.23 42.9053 52.4099V56.0689C42.9053 56.4772 42.736 56.6814 42.3975 56.6814C42.3129 56.6814 42.2367 56.6687 42.169 56.6433C42.1013 56.62 42.0378 56.582 41.9786 56.5291C41.9194 56.4762 41.8643 56.4148 41.8136 56.345C41.7628 56.2731 41.712 56.2001 41.6612 56.126L39.8936 53.4159V56.1419C39.8936 56.3196 39.8523 56.454 39.7698 56.5449C39.6873 56.6359 39.5815 56.6814 39.4525 56.6814C39.3192 56.6814 39.2124 56.6359 39.132 56.5449C39.0516 56.4518 39.0114 56.3175 39.0114 56.1419V52.5527C39.0114 52.4003 39.0283 52.2808 39.0621 52.1941C39.1023 52.0989 39.169 52.0216 39.2621 51.9624C39.3552 51.901 39.4557 51.8704 39.5636 51.8704C39.6482 51.8704 39.7201 51.8841 39.7794 51.9116C39.8407 51.9391 39.8936 51.9761 39.938 52.0227C39.9846 52.0692 40.0311 52.1295 40.0777 52.2036C40.1263 52.2776 40.176 52.3549 40.2268 52.4352ZM47.4719 55.2057C47.4719 55.4871 47.3989 55.7399 47.2529 55.9642C47.1091 56.1884 46.8975 56.364 46.6182 56.491C46.339 56.6179 46.0079 56.6814 45.6249 56.6814C45.1658 56.6814 44.7871 56.5946 44.4888 56.4212C44.2773 56.2963 44.1048 56.1303 43.9715 55.9229C43.8404 55.7135 43.7748 55.5104 43.7748 55.3136C43.7748 55.1994 43.8139 55.102 43.8922 55.0216C43.9726 54.9391 44.0742 54.8979 44.1969 54.8979C44.2963 54.8979 44.3799 54.9296 44.4476 54.9931C44.5174 55.0566 44.5766 55.1507 44.6253 55.2755C44.6845 55.4236 44.748 55.5474 44.8157 55.6468C44.8855 55.7463 44.9828 55.8288 45.1077 55.8944C45.2325 55.9578 45.3964 55.9896 45.5996 55.9896C45.8788 55.9896 46.1052 55.925 46.2787 55.796C46.4543 55.6648 46.5421 55.5019 46.5421 55.3073C46.5421 55.1528 46.4945 55.028 46.3993 54.9328C46.3062 54.8355 46.1845 54.7614 46.0343 54.7106C45.8862 54.6599 45.6874 54.6059 45.4377 54.5488C45.1034 54.4705 44.8231 54.3795 44.5967 54.2759C44.3725 54.1701 44.1937 54.0273 44.0604 53.8475C43.9292 53.6655 43.8636 53.4402 43.8636 53.1715C43.8636 52.9155 43.9335 52.6881 44.0731 52.4892C44.2127 52.2903 44.4148 52.138 44.6792 52.0322C44.9437 51.9243 45.2547 51.8704 45.6122 51.8704C45.8979 51.8704 46.1443 51.9063 46.3517 51.9783C46.5611 52.0481 46.7346 52.1422 46.8721 52.2607C47.0096 52.3771 47.1101 52.4998 47.1736 52.6288C47.2371 52.7579 47.2688 52.8838 47.2688 53.0065C47.2688 53.1186 47.2286 53.2202 47.1482 53.3111C47.0699 53.4 46.9716 53.4444 46.8531 53.4444C46.7452 53.4444 46.6627 53.418 46.6056 53.3651C46.5505 53.3101 46.4902 53.2212 46.4247 53.0985C46.34 52.9229 46.2385 52.7864 46.12 52.6891C46.0015 52.5897 45.8111 52.54 45.5488 52.54C45.3055 52.54 45.1087 52.5939 44.9585 52.7018C44.8104 52.8076 44.7364 52.9356 44.7364 53.0858C44.7364 53.1789 44.7617 53.2593 44.8125 53.327C44.8633 53.3947 44.9331 53.4529 45.022 53.5015C45.1108 53.5502 45.2007 53.5883 45.2917 53.6158C45.3827 53.6433 45.5329 53.6835 45.7424 53.7364C46.0047 53.7977 46.2417 53.8654 46.4532 53.9395C46.6669 54.0135 46.8478 54.1034 46.9959 54.2092C47.1461 54.315 47.2625 54.4494 47.345 54.6123C47.4296 54.7731 47.4719 54.9709 47.4719 55.2057ZM49.2205 52.4416V54.0728L51.0707 52.1433C51.1595 52.0502 51.2346 51.9814 51.296 51.937C51.3595 51.8926 51.443 51.8704 51.5467 51.8704C51.6821 51.8704 51.7911 51.9106 51.8736 51.991C51.9582 52.0692 52.0005 52.1655 52.0005 52.2797C52.0005 52.4173 51.9296 52.5537 51.7879 52.6891L50.6422 53.7745L51.9624 55.6659C52.0555 55.797 52.1253 55.9123 52.1719 56.0118C52.2184 56.1091 52.2417 56.2043 52.2417 56.2974C52.2417 56.4011 52.2004 56.491 52.1179 56.5671C52.0375 56.6433 51.9275 56.6814 51.7879 56.6814C51.6567 56.6814 51.5499 56.6539 51.4674 56.5989C51.3848 56.5418 51.315 56.4666 51.2579 56.3736C51.2008 56.2805 51.15 56.1958 51.1056 56.1197L49.9917 54.406L49.2205 55.1454V56.107C49.2205 56.3016 49.1761 56.4465 49.0872 56.5418C48.9984 56.6348 48.8841 56.6814 48.7445 56.6814C48.6641 56.6814 48.5869 56.6602 48.5128 56.6179C48.4388 56.5756 48.3817 56.5185 48.3415 56.4465C48.3118 56.3873 48.2939 56.3186 48.2875 56.2403C48.2812 56.162 48.278 56.0488 48.278 55.9007V52.4416C48.278 52.2512 48.3192 52.1084 48.4018 52.0132C48.4864 51.918 48.6006 51.8704 48.7445 51.8704C48.8862 51.8704 49.0005 51.918 49.0872 52.0132C49.1761 52.1063 49.2205 52.2491 49.2205 52.4416ZM56.1483 52.6764H54.0252V53.8189H55.9801C56.1239 53.8189 56.2308 53.8517 56.3006 53.9173C56.3725 53.9807 56.4085 54.0654 56.4085 54.1712C56.4085 54.2769 56.3736 54.3637 56.3038 54.4314C56.2339 54.497 56.1261 54.5298 55.9801 54.5298H54.0252V55.8531H56.2213C56.3694 55.8531 56.4804 55.888 56.5545 55.9578C56.6306 56.0255 56.6687 56.1165 56.6687 56.2308C56.6687 56.3408 56.6306 56.4307 56.5545 56.5005C56.4804 56.5682 56.3694 56.6021 56.2213 56.6021H53.6602C53.455 56.6021 53.3069 56.5566 53.216 56.4656C53.1271 56.3746 53.0827 56.2276 53.0827 56.0245V52.5273C53.0827 52.3919 53.1028 52.2819 53.143 52.1972C53.1832 52.1105 53.2456 52.0481 53.3302 52.01C53.4169 51.9698 53.527 51.9497 53.6602 51.9497H56.1483C56.2985 51.9497 56.4095 51.9836 56.4815 52.0513C56.5555 52.1168 56.5926 52.2036 56.5926 52.3115C56.5926 52.4215 56.5555 52.5104 56.4815 52.5781C56.4095 52.6436 56.2985 52.6764 56.1483 52.6764Z" fill="white"/>
<path d="M17.1265 61.1113H16.7965V62.606C16.7965 62.8028 16.7531 62.9477 16.6663 63.0408C16.5796 63.1339 16.4664 63.1804 16.3268 63.1804C16.1766 63.1804 16.0602 63.1318 15.9777 63.0344C15.8952 62.9371 15.8539 62.7943 15.8539 62.606V59.0263C15.8539 58.8232 15.8994 58.6762 15.9904 58.5852C16.0814 58.4942 16.2284 58.4487 16.4315 58.4487H17.9643C18.1759 58.4487 18.3568 58.4582 18.507 58.4773C18.6572 58.4942 18.7926 58.5302 18.9132 58.5852C19.0592 58.6465 19.1882 58.7343 19.3003 58.8486C19.4125 58.9628 19.4971 59.0961 19.5542 59.2484C19.6135 59.3987 19.6431 59.5584 19.6431 59.7276C19.6431 60.0746 19.5447 60.3518 19.3479 60.5591C19.1533 60.7664 18.8571 60.9135 18.4594 61.0002C18.6265 61.0891 18.7862 61.2202 18.9386 61.3937C19.0909 61.5672 19.2263 61.7523 19.3448 61.9491C19.4654 62.1437 19.5585 62.3204 19.624 62.4791C19.6917 62.6356 19.7256 62.7435 19.7256 62.8028C19.7256 62.8641 19.7055 62.9255 19.6653 62.9868C19.6272 63.0461 19.5743 63.0926 19.5066 63.1265C19.4389 63.1624 19.3606 63.1804 19.2718 63.1804C19.166 63.1804 19.0771 63.155 19.0052 63.1042C18.9333 63.0556 18.8709 62.9932 18.818 62.917C18.7672 62.8408 18.6974 62.7287 18.6085 62.5806L18.2309 61.9523C18.0955 61.7217 17.9738 61.5461 17.8659 61.4255C17.7601 61.3049 17.6522 61.2224 17.5422 61.1779C17.4322 61.1335 17.2936 61.1113 17.1265 61.1113ZM17.666 59.1564H16.7965V60.4353H17.6406C17.867 60.4353 18.0574 60.4163 18.2118 60.3782C18.3663 60.338 18.4837 60.2714 18.5641 60.1783C18.6466 60.0831 18.6879 59.953 18.6879 59.7879C18.6879 59.6589 18.6551 59.5457 18.5895 59.4484C18.5239 59.3489 18.4329 59.2749 18.3166 59.2262C18.2065 59.1797 17.9897 59.1564 17.666 59.1564ZM23.5147 62.5743L23.2926 61.9903H21.4012L21.1791 62.587C21.0923 62.8197 21.0183 62.9773 20.9569 63.0598C20.8956 63.1402 20.7951 63.1804 20.6554 63.1804C20.5369 63.1804 20.4322 63.137 20.3412 63.0503C20.2503 62.9636 20.2048 62.8652 20.2048 62.7552C20.2048 62.6917 20.2154 62.6261 20.2365 62.5584C20.2577 62.4907 20.2926 62.3966 20.3412 62.276L21.5313 59.2548C21.5652 59.1681 21.6054 59.0644 21.6519 58.9438C21.7006 58.8211 21.7513 58.7195 21.8042 58.6391C21.8592 58.5587 21.9301 58.4942 22.0169 58.4456C22.1057 58.3948 22.2147 58.3694 22.3437 58.3694C22.4749 58.3694 22.5839 58.3948 22.6706 58.4456C22.7595 58.4942 22.8303 58.5577 22.8832 58.636C22.9382 58.7142 22.9837 58.7989 23.0197 58.8898C23.0578 58.9787 23.1054 59.0982 23.1625 59.2484L24.3779 62.2506C24.4731 62.4791 24.5207 62.6451 24.5207 62.7488C24.5207 62.8567 24.4753 62.9562 24.3843 63.0471C24.2954 63.136 24.1875 63.1804 24.0606 63.1804C23.9865 63.1804 23.9231 63.1667 23.8702 63.1392C23.8173 63.1138 23.7729 63.0789 23.7369 63.0344C23.7009 62.9879 23.6618 62.9181 23.6195 62.825C23.5793 62.7298 23.5444 62.6462 23.5147 62.5743ZM21.6487 61.2827H23.0387L22.3374 59.3627L21.6487 61.2827ZM22.1946 56.9508C22.3744 56.9508 22.5288 57.0154 22.6579 57.1444C22.787 57.2735 22.8515 57.4279 22.8515 57.6077C22.8515 57.7876 22.787 57.942 22.6579 58.0711C22.5288 58.2001 22.3744 58.2647 22.1946 58.2647C22.074 58.2647 21.964 58.235 21.8645 58.1758C21.7651 58.1166 21.6858 58.0372 21.6265 57.9378C21.5673 57.8384 21.5377 57.7283 21.5377 57.6077C21.5377 57.4279 21.6022 57.2735 21.7312 57.1444C21.8603 57.0154 22.0147 56.9508 22.1946 56.9508ZM22.1946 57.2841C22.1015 57.2841 22.0243 57.3147 21.9629 57.3761C21.9016 57.4374 21.8709 57.5147 21.8709 57.6077C21.8709 57.6987 21.9016 57.7749 21.9629 57.8362C22.0264 57.8955 22.1036 57.9251 22.1946 57.9251C22.2538 57.9251 22.3078 57.9113 22.3564 57.8838C22.4072 57.8563 22.4463 57.8183 22.4738 57.7696C22.5035 57.7209 22.5183 57.667 22.5183 57.6077C22.5183 57.5633 22.5098 57.521 22.4929 57.4808C22.476 57.4385 22.4537 57.4036 22.4262 57.3761C22.3987 57.3486 22.3638 57.3264 22.3215 57.3094C22.2813 57.2925 22.239 57.2841 22.1946 57.2841ZM25.5743 58.9882L26.628 62.1078L27.6847 58.966C27.7397 58.801 27.781 58.6867 27.8085 58.6233C27.836 58.5577 27.8815 58.4995 27.945 58.4487C28.0084 58.3958 28.0952 58.3694 28.2052 58.3694C28.2856 58.3694 28.3596 58.3895 28.4273 58.4297C28.4971 58.4699 28.5511 58.5238 28.5892 58.5915C28.6294 58.6571 28.6495 58.7238 28.6495 58.7915C28.6495 58.838 28.6431 58.8888 28.6304 58.9438C28.6177 58.9967 28.6019 59.0496 28.5828 59.1025C28.5638 59.1532 28.5447 59.2061 28.5257 59.2611L27.3991 62.3014C27.3589 62.4177 27.3187 62.5288 27.2785 62.6346C27.2383 62.7382 27.1918 62.8303 27.1389 62.9107C27.086 62.9889 27.0151 63.0535 26.9263 63.1042C26.8395 63.155 26.7327 63.1804 26.6057 63.1804C26.4788 63.1804 26.3709 63.155 26.282 63.1042C26.1953 63.0556 26.1244 62.9911 26.0694 62.9107C26.0165 62.8282 25.97 62.7351 25.9298 62.6314C25.8896 62.5277 25.8494 62.4177 25.8092 62.3014L24.7016 59.2865C24.6826 59.2315 24.6625 59.1776 24.6413 59.1247C24.6223 59.0718 24.6054 59.0147 24.5906 58.9533C24.5779 58.892 24.5715 58.8401 24.5715 58.7978C24.5715 58.6899 24.6149 58.5915 24.7016 58.5027C24.7884 58.4138 24.8973 58.3694 25.0285 58.3694C25.1893 58.3694 25.3025 58.4191 25.3681 58.5185C25.4358 58.6159 25.5045 58.7724 25.5743 58.9882ZM32.007 62.5743L31.7849 61.9903H29.8935L29.6713 62.587C29.5846 62.8197 29.5105 62.9773 29.4492 63.0598C29.3878 63.1402 29.2873 63.1804 29.1477 63.1804C29.0292 63.1804 28.9245 63.137 28.8335 63.0503C28.7426 62.9636 28.6971 62.8652 28.6971 62.7552C28.6971 62.6917 28.7077 62.6261 28.7288 62.5584C28.75 62.4907 28.7849 62.3966 28.8335 62.276L30.0236 59.2548C30.0574 59.1681 30.0976 59.0644 30.1442 58.9438C30.1928 58.8211 30.2436 58.7195 30.2965 58.6391C30.3515 58.5587 30.4224 58.4942 30.5091 58.4456C30.598 58.3948 30.707 58.3694 30.836 58.3694C30.9672 58.3694 31.0761 58.3948 31.1629 58.4456C31.2517 58.4942 31.3226 58.5577 31.3755 58.636C31.4305 58.7142 31.476 58.7989 31.512 58.8898C31.55 58.9787 31.5977 59.0982 31.6548 59.2484L32.8702 62.2506C32.9654 62.4791 33.013 62.6451 33.013 62.7488C33.013 62.8567 32.9675 62.9562 32.8766 63.0471C32.7877 63.136 32.6798 63.1804 32.5529 63.1804C32.4788 63.1804 32.4154 63.1667 32.3625 63.1392C32.3096 63.1138 32.2651 63.0789 32.2292 63.0344C32.1932 62.9879 32.1541 62.9181 32.1118 62.825C32.0716 62.7298 32.0367 62.6462 32.007 62.5743ZM30.141 61.2827H31.531L30.8297 59.3627L30.141 61.2827ZM34.9743 61.1113H34.6442V62.606C34.6442 62.8028 34.6008 62.9477 34.5141 63.0408C34.4274 63.1339 34.3142 63.1804 34.1745 63.1804C34.0243 63.1804 33.908 63.1318 33.8254 63.0344C33.7429 62.9371 33.7017 62.7943 33.7017 62.606V59.0263C33.7017 58.8232 33.7472 58.6762 33.8381 58.5852C33.9291 58.4942 34.0762 58.4487 34.2793 58.4487H35.8121C36.0236 58.4487 36.2045 58.4582 36.3547 58.4773C36.5049 58.4942 36.6403 58.5302 36.7609 58.5852C36.9069 58.6465 37.036 58.7343 37.1481 58.8486C37.2602 58.9628 37.3449 59.0961 37.402 59.2484C37.4612 59.3987 37.4908 59.5584 37.4908 59.7276C37.4908 60.0746 37.3925 60.3518 37.1957 60.5591C37.0011 60.7664 36.7049 60.9135 36.3071 61.0002C36.4743 61.0891 36.634 61.2202 36.7863 61.3937C36.9386 61.5672 37.0741 61.7523 37.1925 61.9491C37.3131 62.1437 37.4062 62.3204 37.4718 62.4791C37.5395 62.6356 37.5733 62.7435 37.5733 62.8028C37.5733 62.8641 37.5533 62.9255 37.5131 62.9868C37.475 63.0461 37.4221 63.0926 37.3544 63.1265C37.2867 63.1624 37.2084 63.1804 37.1195 63.1804C37.0138 63.1804 36.9249 63.155 36.853 63.1042C36.781 63.0556 36.7186 62.9932 36.6657 62.917C36.615 62.8408 36.5451 62.7287 36.4563 62.5806L36.0786 61.9523C35.9432 61.7217 35.8216 61.5461 35.7137 61.4255C35.6079 61.3049 35.5 61.2224 35.39 61.1779C35.28 61.1335 35.1414 61.1113 34.9743 61.1113ZM35.5137 59.1564H34.6442V60.4353H35.4884C35.7147 60.4353 35.9051 60.4163 36.0596 60.3782C36.214 60.338 36.3315 60.2714 36.4118 60.1783C36.4944 60.0831 36.5356 59.953 36.5356 59.7879C36.5356 59.6589 36.5028 59.5457 36.4372 59.4484C36.3717 59.3489 36.2807 59.2749 36.1643 59.2262C36.0543 59.1797 35.8374 59.1564 35.5137 59.1564ZM41.4514 59.1755H39.3283V60.3179H41.2832C41.427 60.3179 41.5339 60.3507 41.6037 60.4163C41.6756 60.4798 41.7116 60.5644 41.7116 60.6702C41.7116 60.776 41.6767 60.8627 41.6069 60.9304C41.537 60.996 41.4291 61.0288 41.2832 61.0288H39.3283V62.3521H41.5244C41.6724 62.3521 41.7835 62.387 41.8576 62.4569C41.9337 62.5246 41.9718 62.6155 41.9718 62.7298C41.9718 62.8398 41.9337 62.9297 41.8576 62.9995C41.7835 63.0672 41.6724 63.1011 41.5244 63.1011H38.9633C38.7581 63.1011 38.61 63.0556 38.519 62.9646C38.4302 62.8736 38.3858 62.7266 38.3858 62.5235V59.0263C38.3858 58.8909 38.4059 58.7809 38.4461 58.6963C38.4863 58.6095 38.5487 58.5471 38.6333 58.509C38.72 58.4688 38.8301 58.4487 38.9633 58.4487H41.4514C41.6016 58.4487 41.7126 58.4826 41.7846 58.5503C41.8586 58.6159 41.8957 58.7026 41.8957 58.8105C41.8957 58.9205 41.8586 59.0094 41.7846 59.0771C41.7126 59.1427 41.6016 59.1755 41.4514 59.1755Z" fill="white"/>
<path d="M27.5149 41.9165C38.5606 41.9165 47.5149 32.9622 47.5149 21.9165C47.5149 10.8708 38.5606 1.9165 27.5149 1.9165C16.4692 1.9165 7.51486 10.8708 7.51486 21.9165C7.51486 32.9622 16.4692 41.9165 27.5149 41.9165Z" stroke="white" stroke-width="2.32119" stroke-miterlimit="10"/>
<path d="M28.0132 8.9165C24.4247 8.9165 21.5149 12.1792 21.5149 16.2065C21.5149 19.7979 26.4674 32.1464 27.5391 34.769C27.617 34.9628 27.8736 34.9662 27.958 34.7759C29.1142 32.1671 34.5149 19.8014 34.5149 16.2065C34.5149 12.1792 31.605 8.9165 28.0165 8.9165H28.0132Z" stroke="white" stroke-width="1.39271" stroke-miterlimit="10"/>
<path d="M27.7664 33.835V23.0781" stroke="white" stroke-width="0.928475" stroke-miterlimit="10"/>
<path d="M27.3085 18.1757C28.0652 20.4731 27.3799 22.8396 27.3669 22.8535C27.3669 22.8535 25.4281 21.473 24.665 19.1617C24.0804 17.3903 24.3597 15.5876 24.5188 14.8403C24.5578 14.6639 24.7526 14.5912 24.8825 14.7054C25.4476 15.1794 26.7207 16.4042 27.3052 18.1757H27.3085Z" stroke="white" stroke-width="0.696356" stroke-miterlimit="10"/>
<path d="M30.3969 20.7183C29.6662 21.9189 28.5133 22.5935 28.0132 22.8357C27.8963 22.8946 27.7632 22.8011 27.7632 22.6627C27.7696 22.078 27.8671 20.6837 28.5978 19.4762C29.3285 18.2721 30.4814 17.6078 30.9815 17.3621C31.0984 17.3033 31.2316 17.3967 31.2316 17.5351C31.2251 18.1233 31.1276 19.5142 30.3969 20.7183Z" stroke="white" stroke-width="0.696356" stroke-miterlimit="10"/>
<path d="M25.5191 17.5527L27.1916 22.2963" stroke="white" stroke-width="0.464238" stroke-miterlimit="10" stroke-linecap="round"/>
<path d="M30.0365 19.3516L28.1432 22.296" stroke="white" stroke-width="0.464238" stroke-miterlimit="10" stroke-linecap="round"/>
<path d="M25.386 19.2134L26.2109 19.3518" stroke="white" stroke-width="0.232119" stroke-miterlimit="10" stroke-linecap="round"/>
<path d="M26.0323 20.5625L26.6785 20.6732" stroke="white" stroke-width="0.232119" stroke-miterlimit="10" stroke-linecap="round"/>
<path d="M30.1273 20.1025L29.3804 20.2167" stroke="white" stroke-width="0.232119" stroke-miterlimit="10" stroke-linecap="round"/>
<path d="M29.4617 21.0718L28.757 21.1583" stroke="white" stroke-width="0.232119" stroke-miterlimit="10" stroke-linecap="round"/>
</svg>
