<svg width="250" height="275" viewBox="0 0 250 275" fill="none" xmlns="http://www.w3.org/2000/svg">
<path d="M28.2773 230.637V243.141H35.332C35.8945 243.141 36.3242 243.277 36.6211 243.551C36.9258 243.824 37.0781 244.168 37.0781 244.582C37.0781 245.004 36.9297 245.348 36.6328 245.613C36.3359 245.871 35.9023 246 35.332 246H26.9297C26.1719 246 25.625 245.832 25.2891 245.496C24.9609 245.16 24.7969 244.617 24.7969 243.867V230.637C24.7969 229.934 24.9531 229.406 25.2656 229.055C25.5859 228.703 26.0039 228.527 26.5195 228.527C27.043 228.527 27.4648 228.703 27.7852 229.055C28.1133 229.398 28.2773 229.926 28.2773 230.637ZM45.7383 228.527C47.5195 228.527 49.0469 228.891 50.3203 229.617C51.6016 230.336 52.5703 231.363 53.2266 232.699C53.8828 234.027 54.2109 235.59 54.2109 237.387C54.2109 238.715 54.0312 239.922 53.6719 241.008C53.3125 242.094 52.7734 243.035 52.0547 243.832C51.3359 244.629 50.4531 245.238 49.4062 245.66C48.3594 246.082 47.1602 246.293 45.8086 246.293C44.4648 246.293 43.2617 246.078 42.1992 245.648C41.1367 245.211 40.25 244.598 39.5391 243.809C38.8281 243.02 38.2891 242.07 37.9219 240.961C37.5625 239.852 37.3828 238.652 37.3828 237.363C37.3828 236.043 37.5703 234.832 37.9453 233.73C38.3281 232.629 38.8789 231.691 39.5977 230.918C40.3164 230.145 41.1914 229.555 42.2227 229.148C43.2539 228.734 44.4258 228.527 45.7383 228.527ZM50.6836 237.363C50.6836 236.105 50.4805 235.016 50.0742 234.094C49.668 233.172 49.0859 232.477 48.3281 232.008C47.5781 231.531 46.7148 231.293 45.7383 231.293C45.043 231.293 44.3984 231.426 43.8047 231.691C43.2188 231.949 42.7109 232.328 42.2812 232.828C41.8594 233.328 41.5234 233.969 41.2734 234.75C41.0312 235.523 40.9102 236.395 40.9102 237.363C40.9102 238.34 41.0312 239.223 41.2734 240.012C41.5234 240.801 41.8711 241.457 42.3164 241.98C42.7695 242.496 43.2852 242.883 43.8633 243.141C44.4492 243.398 45.0898 243.527 45.7852 243.527C46.6758 243.527 47.4922 243.305 48.2344 242.859C48.9844 242.414 49.5781 241.727 50.0156 240.797C50.4609 239.867 50.6836 238.723 50.6836 237.363ZM60.6914 230.637V236.66L67.5234 229.535C67.8516 229.191 68.1289 228.938 68.3555 228.773C68.5898 228.609 68.8984 228.527 69.2812 228.527C69.7812 228.527 70.1836 228.676 70.4883 228.973C70.8008 229.262 70.957 229.617 70.957 230.039C70.957 230.547 70.6953 231.051 70.1719 231.551L65.9414 235.559L70.8164 242.543C71.1602 243.027 71.418 243.453 71.5898 243.82C71.7617 244.18 71.8477 244.531 71.8477 244.875C71.8477 245.258 71.6953 245.59 71.3906 245.871C71.0938 246.152 70.6875 246.293 70.1719 246.293C69.6875 246.293 69.293 246.191 68.9883 245.988C68.6836 245.777 68.4258 245.5 68.2148 245.156C68.0039 244.812 67.8164 244.5 67.6523 244.219L63.5391 237.891L60.6914 240.621V244.172C60.6914 244.891 60.5273 245.426 60.1992 245.777C59.8711 246.121 59.4492 246.293 58.9336 246.293C58.6367 246.293 58.3516 246.215 58.0781 246.059C57.8047 245.902 57.5938 245.691 57.4453 245.426C57.3359 245.207 57.2695 244.953 57.2461 244.664C57.2227 244.375 57.2109 243.957 57.2109 243.41V230.637C57.2109 229.934 57.3633 229.406 57.668 229.055C57.9805 228.703 58.4023 228.527 58.9336 228.527C59.457 228.527 59.8789 228.703 60.1992 229.055C60.5273 229.398 60.6914 229.926 60.6914 230.637ZM85.9453 244.055L85.125 241.898H78.1406L77.3203 244.102C77 244.961 76.7266 245.543 76.5 245.848C76.2734 246.145 75.9023 246.293 75.3867 246.293C74.9492 246.293 74.5625 246.133 74.2266 245.812C73.8906 245.492 73.7227 245.129 73.7227 244.723C73.7227 244.488 73.7617 244.246 73.8398 243.996C73.918 243.746 74.0469 243.398 74.2266 242.953L78.6211 231.797C78.7461 231.477 78.8945 231.094 79.0664 230.648C79.2461 230.195 79.4336 229.82 79.6289 229.523C79.832 229.227 80.0938 228.988 80.4141 228.809C80.7422 228.621 81.1445 228.527 81.6211 228.527C82.1055 228.527 82.5078 228.621 82.8281 228.809C83.1562 228.988 83.418 229.223 83.6133 229.512C83.8164 229.801 83.9844 230.113 84.1172 230.449C84.2578 230.777 84.4336 231.219 84.6445 231.773L89.1328 242.859C89.4844 243.703 89.6602 244.316 89.6602 244.699C89.6602 245.098 89.4922 245.465 89.1562 245.801C88.8281 246.129 88.4297 246.293 87.9609 246.293C87.6875 246.293 87.4531 246.242 87.2578 246.141C87.0625 246.047 86.8984 245.918 86.7656 245.754C86.6328 245.582 86.4883 245.324 86.332 244.98C86.1836 244.629 86.0547 244.32 85.9453 244.055ZM79.0547 239.285H84.1875L81.5977 232.195L79.0547 239.285ZM95.6367 230.637V243.141H102.691C103.254 243.141 103.684 243.277 103.98 243.551C104.285 243.824 104.438 244.168 104.438 244.582C104.438 245.004 104.289 245.348 103.992 245.613C103.695 245.871 103.262 246 102.691 246H94.2891C93.5312 246 92.9844 245.832 92.6484 245.496C92.3203 245.16 92.1562 244.617 92.1562 243.867V230.637C92.1562 229.934 92.3125 229.406 92.625 229.055C92.9453 228.703 93.3633 228.527 93.8789 228.527C94.4023 228.527 94.8242 228.703 95.1445 229.055C95.4727 229.398 95.6367 229.926 95.6367 230.637ZM118.055 231.504H110.215V235.723H117.434C117.965 235.723 118.359 235.844 118.617 236.086C118.883 236.32 119.016 236.633 119.016 237.023C119.016 237.414 118.887 237.734 118.629 237.984C118.371 238.227 117.973 238.348 117.434 238.348H110.215V243.234H118.324C118.871 243.234 119.281 243.363 119.555 243.621C119.836 243.871 119.977 244.207 119.977 244.629C119.977 245.035 119.836 245.367 119.555 245.625C119.281 245.875 118.871 246 118.324 246H108.867C108.109 246 107.562 245.832 107.227 245.496C106.898 245.16 106.734 244.617 106.734 243.867V230.953C106.734 230.453 106.809 230.047 106.957 229.734C107.105 229.414 107.336 229.184 107.648 229.043C107.969 228.895 108.375 228.82 108.867 228.82H118.055C118.609 228.82 119.02 228.945 119.285 229.195C119.559 229.438 119.695 229.758 119.695 230.156C119.695 230.562 119.559 230.891 119.285 231.141C119.02 231.383 118.609 231.504 118.055 231.504ZM130.898 228.82H135.434C136.613 228.82 137.625 228.93 138.469 229.148C139.312 229.367 140.078 229.777 140.766 230.379C142.555 231.91 143.449 234.238 143.449 237.363C143.449 238.395 143.359 239.336 143.18 240.188C143 241.039 142.723 241.809 142.348 242.496C141.973 243.176 141.492 243.785 140.906 244.324C140.445 244.738 139.941 245.07 139.395 245.32C138.848 245.57 138.258 245.746 137.625 245.848C137 245.949 136.293 246 135.504 246H130.969C130.336 246 129.859 245.906 129.539 245.719C129.219 245.523 129.008 245.254 128.906 244.91C128.812 244.559 128.766 244.105 128.766 243.551V230.953C128.766 230.203 128.934 229.66 129.27 229.324C129.605 228.988 130.148 228.82 130.898 228.82ZM132.246 231.574V243.234H134.883C135.461 243.234 135.914 243.219 136.242 243.188C136.57 243.156 136.91 243.078 137.262 242.953C137.613 242.828 137.918 242.652 138.176 242.426C139.34 241.441 139.922 239.746 139.922 237.34C139.922 235.645 139.664 234.375 139.148 233.531C138.641 232.688 138.012 232.152 137.262 231.926C136.512 231.691 135.605 231.574 134.543 231.574H132.246ZM156.586 244.055L155.766 241.898H148.781L147.961 244.102C147.641 244.961 147.367 245.543 147.141 245.848C146.914 246.145 146.543 246.293 146.027 246.293C145.59 246.293 145.203 246.133 144.867 245.812C144.531 245.492 144.363 245.129 144.363 244.723C144.363 244.488 144.402 244.246 144.48 243.996C144.559 243.746 144.688 243.398 144.867 242.953L149.262 231.797C149.387 231.477 149.535 231.094 149.707 230.648C149.887 230.195 150.074 229.82 150.27 229.523C150.473 229.227 150.734 228.988 151.055 228.809C151.383 228.621 151.785 228.527 152.262 228.527C152.746 228.527 153.148 228.621 153.469 228.809C153.797 228.988 154.059 229.223 154.254 229.512C154.457 229.801 154.625 230.113 154.758 230.449C154.898 230.777 155.074 231.219 155.285 231.773L159.773 242.859C160.125 243.703 160.301 244.316 160.301 244.699C160.301 245.098 160.133 245.465 159.797 245.801C159.469 246.129 159.07 246.293 158.602 246.293C158.328 246.293 158.094 246.242 157.898 246.141C157.703 246.047 157.539 245.918 157.406 245.754C157.273 245.582 157.129 245.324 156.973 244.98C156.824 244.629 156.695 244.32 156.586 244.055ZM149.695 239.285H154.828L152.238 232.195L149.695 239.285ZM167.402 230.613L174.094 240.738V230.52C174.094 229.855 174.234 229.359 174.516 229.031C174.805 228.695 175.191 228.527 175.676 228.527C176.176 228.527 176.57 228.695 176.859 229.031C177.148 229.359 177.293 229.855 177.293 230.52V244.031C177.293 245.539 176.668 246.293 175.418 246.293C175.105 246.293 174.824 246.246 174.574 246.152C174.324 246.066 174.09 245.926 173.871 245.73C173.652 245.535 173.449 245.309 173.262 245.051C173.074 244.785 172.887 244.516 172.699 244.242L166.172 234.234V244.301C166.172 244.957 166.02 245.453 165.715 245.789C165.41 246.125 165.02 246.293 164.543 246.293C164.051 246.293 163.656 246.125 163.359 245.789C163.062 245.445 162.914 244.949 162.914 244.301V231.047C162.914 230.484 162.977 230.043 163.102 229.723C163.25 229.371 163.496 229.086 163.84 228.867C164.184 228.641 164.555 228.527 164.953 228.527C165.266 228.527 165.531 228.578 165.75 228.68C165.977 228.781 166.172 228.918 166.336 229.09C166.508 229.262 166.68 229.484 166.852 229.758C167.031 230.031 167.215 230.316 167.402 230.613ZM194.156 240.844C194.156 241.883 193.887 242.816 193.348 243.645C192.816 244.473 192.035 245.121 191.004 245.59C189.973 246.059 188.75 246.293 187.336 246.293C185.641 246.293 184.242 245.973 183.141 245.332C182.359 244.871 181.723 244.258 181.23 243.492C180.746 242.719 180.504 241.969 180.504 241.242C180.504 240.82 180.648 240.461 180.938 240.164C181.234 239.859 181.609 239.707 182.062 239.707C182.43 239.707 182.738 239.824 182.988 240.059C183.246 240.293 183.465 240.641 183.645 241.102C183.863 241.648 184.098 242.105 184.348 242.473C184.605 242.84 184.965 243.145 185.426 243.387C185.887 243.621 186.492 243.738 187.242 243.738C188.273 243.738 189.109 243.5 189.75 243.023C190.398 242.539 190.723 241.938 190.723 241.219C190.723 240.648 190.547 240.188 190.195 239.836C189.852 239.477 189.402 239.203 188.848 239.016C188.301 238.828 187.566 238.629 186.645 238.418C185.41 238.129 184.375 237.793 183.539 237.41C182.711 237.02 182.051 236.492 181.559 235.828C181.074 235.156 180.832 234.324 180.832 233.332C180.832 232.387 181.09 231.547 181.605 230.812C182.121 230.078 182.867 229.516 183.844 229.125C184.82 228.727 185.969 228.527 187.289 228.527C188.344 228.527 189.254 228.66 190.02 228.926C190.793 229.184 191.434 229.531 191.941 229.969C192.449 230.398 192.82 230.852 193.055 231.328C193.289 231.805 193.406 232.27 193.406 232.723C193.406 233.137 193.258 233.512 192.961 233.848C192.672 234.176 192.309 234.34 191.871 234.34C191.473 234.34 191.168 234.242 190.957 234.047C190.754 233.844 190.531 233.516 190.289 233.062C189.977 232.414 189.602 231.91 189.164 231.551C188.727 231.184 188.023 231 187.055 231C186.156 231 185.43 231.199 184.875 231.598C184.328 231.988 184.055 232.461 184.055 233.016C184.055 233.359 184.148 233.656 184.336 233.906C184.523 234.156 184.781 234.371 185.109 234.551C185.438 234.73 185.77 234.871 186.105 234.973C186.441 235.074 186.996 235.223 187.77 235.418C188.738 235.645 189.613 235.895 190.395 236.168C191.184 236.441 191.852 236.773 192.398 237.164C192.953 237.555 193.383 238.051 193.688 238.652C194 239.246 194.156 239.977 194.156 240.844ZM200.613 230.637V236.66L207.445 229.535C207.773 229.191 208.051 228.938 208.277 228.773C208.512 228.609 208.82 228.527 209.203 228.527C209.703 228.527 210.105 228.676 210.41 228.973C210.723 229.262 210.879 229.617 210.879 230.039C210.879 230.547 210.617 231.051 210.094 231.551L205.863 235.559L210.738 242.543C211.082 243.027 211.34 243.453 211.512 243.82C211.684 244.18 211.77 244.531 211.77 244.875C211.77 245.258 211.617 245.59 211.312 245.871C211.016 246.152 210.609 246.293 210.094 246.293C209.609 246.293 209.215 246.191 208.91 245.988C208.605 245.777 208.348 245.5 208.137 245.156C207.926 244.812 207.738 244.5 207.574 244.219L203.461 237.891L200.613 240.621V244.172C200.613 244.891 200.449 245.426 200.121 245.777C199.793 246.121 199.371 246.293 198.855 246.293C198.559 246.293 198.273 246.215 198 246.059C197.727 245.902 197.516 245.691 197.367 245.426C197.258 245.207 197.191 244.953 197.168 244.664C197.145 244.375 197.133 243.957 197.133 243.41V230.637C197.133 229.934 197.285 229.406 197.59 229.055C197.902 228.703 198.324 228.527 198.855 228.527C199.379 228.527 199.801 228.703 200.121 229.055C200.449 229.398 200.613 229.926 200.613 230.637ZM226.195 231.504H218.355V235.723H225.574C226.105 235.723 226.5 235.844 226.758 236.086C227.023 236.32 227.156 236.633 227.156 237.023C227.156 237.414 227.027 237.734 226.77 237.984C226.512 238.227 226.113 238.348 225.574 238.348H218.355V243.234H226.465C227.012 243.234 227.422 243.363 227.695 243.621C227.977 243.871 228.117 244.207 228.117 244.629C228.117 245.035 227.977 245.367 227.695 245.625C227.422 245.875 227.012 246 226.465 246H217.008C216.25 246 215.703 245.832 215.367 245.496C215.039 245.16 214.875 244.617 214.875 243.867V230.953C214.875 230.453 214.949 230.047 215.098 229.734C215.246 229.414 215.477 229.184 215.789 229.043C216.109 228.895 216.516 228.82 217.008 228.82H226.195C226.75 228.82 227.16 228.945 227.426 229.195C227.699 229.438 227.836 229.758 227.836 230.156C227.836 230.562 227.699 230.891 227.426 231.141C227.16 231.383 226.75 231.504 226.195 231.504Z" fill="white"/>
<path d="M81.957 266.652H80.7383V272.172C80.7383 272.898 80.5781 273.434 80.2578 273.777C79.9375 274.121 79.5195 274.293 79.0039 274.293C78.4492 274.293 78.0195 274.113 77.7148 273.754C77.4102 273.395 77.2578 272.867 77.2578 272.172V258.953C77.2578 258.203 77.4258 257.66 77.7617 257.324C78.0977 256.988 78.6406 256.82 79.3906 256.82H85.0508C85.832 256.82 86.5 256.855 87.0547 256.926C87.6094 256.988 88.1094 257.121 88.5547 257.324C89.0938 257.551 89.5703 257.875 89.9844 258.297C90.3984 258.719 90.7109 259.211 90.9219 259.773C91.1406 260.328 91.25 260.918 91.25 261.543C91.25 262.824 90.8867 263.848 90.1602 264.613C89.4414 265.379 88.3477 265.922 86.8789 266.242C87.4961 266.57 88.0859 267.055 88.6484 267.695C89.2109 268.336 89.7109 269.02 90.1484 269.746C90.5938 270.465 90.9375 271.117 91.1797 271.703C91.4297 272.281 91.5547 272.68 91.5547 272.898C91.5547 273.125 91.4805 273.352 91.332 273.578C91.1914 273.797 90.9961 273.969 90.7461 274.094C90.4961 274.227 90.207 274.293 89.8789 274.293C89.4883 274.293 89.1602 274.199 88.8945 274.012C88.6289 273.832 88.3984 273.602 88.2031 273.32C88.0156 273.039 87.7578 272.625 87.4297 272.078L86.0352 269.758C85.5352 268.906 85.0859 268.258 84.6875 267.812C84.2969 267.367 83.8984 267.062 83.4922 266.898C83.0859 266.734 82.5742 266.652 81.957 266.652ZM83.9492 259.434H80.7383V264.156H83.8555C84.6914 264.156 85.3945 264.086 85.9648 263.945C86.5352 263.797 86.9688 263.551 87.2656 263.207C87.5703 262.855 87.7227 262.375 87.7227 261.766C87.7227 261.289 87.6016 260.871 87.3594 260.512C87.1172 260.145 86.7812 259.871 86.3516 259.691C85.9453 259.52 85.1445 259.434 83.9492 259.434ZM105.547 272.055L104.727 269.898H97.7422L96.9219 272.102C96.6016 272.961 96.3281 273.543 96.1016 273.848C95.875 274.145 95.5039 274.293 94.9883 274.293C94.5508 274.293 94.1641 274.133 93.8281 273.812C93.4922 273.492 93.3242 273.129 93.3242 272.723C93.3242 272.488 93.3633 272.246 93.4414 271.996C93.5195 271.746 93.6484 271.398 93.8281 270.953L98.2227 259.797C98.3477 259.477 98.4961 259.094 98.668 258.648C98.8477 258.195 99.0352 257.82 99.2305 257.523C99.4336 257.227 99.6953 256.988 100.016 256.809C100.344 256.621 100.746 256.527 101.223 256.527C101.707 256.527 102.109 256.621 102.43 256.809C102.758 256.988 103.02 257.223 103.215 257.512C103.418 257.801 103.586 258.113 103.719 258.449C103.859 258.777 104.035 259.219 104.246 259.773L108.734 270.859C109.086 271.703 109.262 272.316 109.262 272.699C109.262 273.098 109.094 273.465 108.758 273.801C108.43 274.129 108.031 274.293 107.562 274.293C107.289 274.293 107.055 274.242 106.859 274.141C106.664 274.047 106.5 273.918 106.367 273.754C106.234 273.582 106.09 273.324 105.934 272.98C105.785 272.629 105.656 272.32 105.547 272.055ZM98.6562 267.285H103.789L101.199 260.195L98.6562 267.285ZM100.672 251.289C101.336 251.289 101.906 251.527 102.383 252.004C102.859 252.48 103.098 253.051 103.098 253.715C103.098 254.379 102.859 254.949 102.383 255.426C101.906 255.902 101.336 256.141 100.672 256.141C100.227 256.141 99.8203 256.031 99.4531 255.812C99.0859 255.594 98.793 255.301 98.5742 254.934C98.3555 254.566 98.2461 254.16 98.2461 253.715C98.2461 253.051 98.4844 252.48 98.9609 252.004C99.4375 251.527 100.008 251.289 100.672 251.289ZM100.672 252.52C100.328 252.52 100.043 252.633 99.8164 252.859C99.5898 253.086 99.4766 253.371 99.4766 253.715C99.4766 254.051 99.5898 254.332 99.8164 254.559C100.051 254.777 100.336 254.887 100.672 254.887C100.891 254.887 101.09 254.836 101.27 254.734C101.457 254.633 101.602 254.492 101.703 254.312C101.812 254.133 101.867 253.934 101.867 253.715C101.867 253.551 101.836 253.395 101.773 253.246C101.711 253.09 101.629 252.961 101.527 252.859C101.426 252.758 101.297 252.676 101.141 252.613C100.992 252.551 100.836 252.52 100.672 252.52ZM113.152 258.812L117.043 270.332L120.945 258.73C121.148 258.121 121.301 257.699 121.402 257.465C121.504 257.223 121.672 257.008 121.906 256.82C122.141 256.625 122.461 256.527 122.867 256.527C123.164 256.527 123.438 256.602 123.688 256.75C123.945 256.898 124.145 257.098 124.285 257.348C124.434 257.59 124.508 257.836 124.508 258.086C124.508 258.258 124.484 258.445 124.438 258.648C124.391 258.844 124.332 259.039 124.262 259.234C124.191 259.422 124.121 259.617 124.051 259.82L119.891 271.047C119.742 271.477 119.594 271.887 119.445 272.277C119.297 272.66 119.125 273 118.93 273.297C118.734 273.586 118.473 273.824 118.145 274.012C117.824 274.199 117.43 274.293 116.961 274.293C116.492 274.293 116.094 274.199 115.766 274.012C115.445 273.832 115.184 273.594 114.98 273.297C114.785 272.992 114.613 272.648 114.465 272.266C114.316 271.883 114.168 271.477 114.02 271.047L109.93 259.914C109.859 259.711 109.785 259.512 109.707 259.316C109.637 259.121 109.574 258.91 109.52 258.684C109.473 258.457 109.449 258.266 109.449 258.109C109.449 257.711 109.609 257.348 109.93 257.02C110.25 256.691 110.652 256.527 111.137 256.527C111.73 256.527 112.148 256.711 112.391 257.078C112.641 257.438 112.895 258.016 113.152 258.812ZM136.906 272.055L136.086 269.898H129.102L128.281 272.102C127.961 272.961 127.688 273.543 127.461 273.848C127.234 274.145 126.863 274.293 126.348 274.293C125.91 274.293 125.523 274.133 125.188 273.812C124.852 273.492 124.684 273.129 124.684 272.723C124.684 272.488 124.723 272.246 124.801 271.996C124.879 271.746 125.008 271.398 125.188 270.953L129.582 259.797C129.707 259.477 129.855 259.094 130.027 258.648C130.207 258.195 130.395 257.82 130.59 257.523C130.793 257.227 131.055 256.988 131.375 256.809C131.703 256.621 132.105 256.527 132.582 256.527C133.066 256.527 133.469 256.621 133.789 256.809C134.117 256.988 134.379 257.223 134.574 257.512C134.777 257.801 134.945 258.113 135.078 258.449C135.219 258.777 135.395 259.219 135.605 259.773L140.094 270.859C140.445 271.703 140.621 272.316 140.621 272.699C140.621 273.098 140.453 273.465 140.117 273.801C139.789 274.129 139.391 274.293 138.922 274.293C138.648 274.293 138.414 274.242 138.219 274.141C138.023 274.047 137.859 273.918 137.727 273.754C137.594 273.582 137.449 273.324 137.293 272.98C137.145 272.629 137.016 272.32 136.906 272.055ZM130.016 267.285H135.148L132.559 260.195L130.016 267.285ZM147.863 266.652H146.645V272.172C146.645 272.898 146.484 273.434 146.164 273.777C145.844 274.121 145.426 274.293 144.91 274.293C144.355 274.293 143.926 274.113 143.621 273.754C143.316 273.395 143.164 272.867 143.164 272.172V258.953C143.164 258.203 143.332 257.66 143.668 257.324C144.004 256.988 144.547 256.82 145.297 256.82H150.957C151.738 256.82 152.406 256.855 152.961 256.926C153.516 256.988 154.016 257.121 154.461 257.324C155 257.551 155.477 257.875 155.891 258.297C156.305 258.719 156.617 259.211 156.828 259.773C157.047 260.328 157.156 260.918 157.156 261.543C157.156 262.824 156.793 263.848 156.066 264.613C155.348 265.379 154.254 265.922 152.785 266.242C153.402 266.57 153.992 267.055 154.555 267.695C155.117 268.336 155.617 269.02 156.055 269.746C156.5 270.465 156.844 271.117 157.086 271.703C157.336 272.281 157.461 272.68 157.461 272.898C157.461 273.125 157.387 273.352 157.238 273.578C157.098 273.797 156.902 273.969 156.652 274.094C156.402 274.227 156.113 274.293 155.785 274.293C155.395 274.293 155.066 274.199 154.801 274.012C154.535 273.832 154.305 273.602 154.109 273.32C153.922 273.039 153.664 272.625 153.336 272.078L151.941 269.758C151.441 268.906 150.992 268.258 150.594 267.812C150.203 267.367 149.805 267.062 149.398 266.898C148.992 266.734 148.48 266.652 147.863 266.652ZM149.855 259.434H146.645V264.156H149.762C150.598 264.156 151.301 264.086 151.871 263.945C152.441 263.797 152.875 263.551 153.172 263.207C153.477 262.855 153.629 262.375 153.629 261.766C153.629 261.289 153.508 260.871 153.266 260.512C153.023 260.145 152.688 259.871 152.258 259.691C151.852 259.52 151.051 259.434 149.855 259.434ZM171.781 259.504H163.941V263.723H171.16C171.691 263.723 172.086 263.844 172.344 264.086C172.609 264.32 172.742 264.633 172.742 265.023C172.742 265.414 172.613 265.734 172.355 265.984C172.098 266.227 171.699 266.348 171.16 266.348H163.941V271.234H172.051C172.598 271.234 173.008 271.363 173.281 271.621C173.562 271.871 173.703 272.207 173.703 272.629C173.703 273.035 173.562 273.367 173.281 273.625C173.008 273.875 172.598 274 172.051 274H162.594C161.836 274 161.289 273.832 160.953 273.496C160.625 273.16 160.461 272.617 160.461 271.867V258.953C160.461 258.453 160.535 258.047 160.684 257.734C160.832 257.414 161.062 257.184 161.375 257.043C161.695 256.895 162.102 256.82 162.594 256.82H171.781C172.336 256.82 172.746 256.945 173.012 257.195C173.285 257.438 173.422 257.758 173.422 258.156C173.422 258.562 173.285 258.891 173.012 259.141C172.746 259.383 172.336 259.504 171.781 259.504Z" fill="white"/>
<path d="M125 208C180.228 208 225 163.228 225 108C225 52.7715 180.228 8 125 8C69.7715 8 25 52.7715 25 108C25 163.228 69.7715 208 125 208Z" stroke="white" stroke-width="10" stroke-miterlimit="10"/>
<path d="M125.466 49C108.09 49 94 63.7881 94 82.042C94 98.32 117.981 154.289 123.17 166.176C123.548 167.054 124.79 167.07 125.199 166.207C130.797 154.383 156.948 98.3357 156.948 82.042C156.948 63.7881 142.858 49 125.482 49H125.466Z" stroke="white" stroke-width="6" stroke-miterlimit="10"/>
<path d="M124.271 161.942V113.187" stroke="white" stroke-width="4" stroke-miterlimit="10"/>
<path d="M122.054 90.9651C125.718 101.378 122.4 112.104 122.337 112.167C122.337 112.167 112.949 105.91 109.253 95.4345C106.423 87.4053 107.775 79.2349 108.546 75.8476C108.735 75.0478 109.678 74.7185 110.307 75.236C113.043 77.3845 119.208 82.9359 122.038 90.9651H122.054Z" stroke="white" stroke-width="3" stroke-miterlimit="10"/>
<path d="M137.009 102.491C133.47 107.933 127.888 110.991 125.466 112.089C124.9 112.355 124.255 111.932 124.255 111.305C124.287 108.654 124.759 102.335 128.297 96.8616C131.835 91.4043 137.417 88.3933 139.839 87.2799C140.405 87.0133 141.05 87.4367 141.05 88.064C141.018 90.7299 140.547 97.0341 137.009 102.491Z" stroke="white" stroke-width="3" stroke-miterlimit="10"/>
<path d="M113.389 88.1421L121.488 109.642" stroke="white" stroke-width="2" stroke-miterlimit="10" stroke-linecap="round"/>
<path d="M135.263 96.2969L126.095 109.642" stroke="white" stroke-width="2" stroke-miterlimit="10" stroke-linecap="round"/>
<path d="M112.744 95.6694L116.739 96.2967" stroke="white" stroke-miterlimit="10" stroke-linecap="round"/>
<path d="M115.874 101.786L119.003 102.287" stroke="white" stroke-miterlimit="10" stroke-linecap="round"/>
<path d="M135.703 99.6997L132.086 100.217" stroke="white" stroke-miterlimit="10" stroke-linecap="round"/>
<path d="M132.48 104.091L129.067 104.483" stroke="white" stroke-miterlimit="10" stroke-linecap="round"/>
</svg>
