<svg width="215" height="190" viewBox="0 0 215 190" fill="none" xmlns="http://www.w3.org/2000/svg">
<g clip-path="url(#clip0_961_8301)">
<path d="M91.9976 85.4018C91.9356 85.3651 91.8426 85.3193 91.7392 85.2643C90.1062 84.3847 83.8635 81.132 75.8843 81.3428C71.564 81.4619 65.3833 82.4056 61.9725 86.1989C58.5514 90.0105 59.4506 93.309 60.1741 95.0132C61.8795 98.9898 63.8019 100.401 65.0422 101.235C69.7346 104.386 75.9153 104.854 78.7266 104.725C82.1994 104.57 88.4422 104.304 92.9485 99.8235C97.9406 94.8575 96.8657 88.4254 97.0414 87.3351L99.9354 36.2725C117.103 31.2331 133.123 26.432 150.301 21.3926C149.877 35.6311 149.454 49.8696 149.04 64.1081C147.924 63.311 145.888 62.4406 143.635 61.6159C140.296 60.3973 135.345 59.6552 133.444 59.591C128.689 59.4353 127.056 60.0766 125.62 60.5073C122.509 61.4602 120.255 62.7521 118.302 64.8686C117.837 65.3726 115.449 68.4512 115.666 71.7771C115.935 75.7995 118.281 77.632 120.431 79.0797C126.446 83.1203 135.139 83.1478 137.02 83.0195C139.48 82.8454 146.632 82.424 150.529 78.4016C152.782 76.0744 152.988 73.6188 153.412 71.5023C154.012 68.5153 153.691 66.3896 153.764 64.3922C154.508 45.6274 154.921 26.8534 155.5 8.08864C155.479 7.46559 155.459 6.8517 155.438 6.22865C155.293 1.90395 150.456 -1.05553 145.846 0.355492C130.643 5.01004 115.439 9.66459 100.246 14.31C97.4445 15.1712 95.5118 17.4527 95.3774 20.0823C94.2508 41.8524 93.1139 63.6225 91.9873 85.4018H91.9976Z" fill="#6F4E37"/>
<path d="M21.1328 149.018V150.857H11.8984V149.018H21.1328ZM12.25 141.682V158.744H9.98828V141.682H12.25ZM23.1016 141.682V158.744H20.8516V141.682H23.1016ZM30.3555 157.432L33.8828 146.064H36.2031L31.1172 160.701C31 161.014 30.8438 161.35 30.6484 161.709C30.4609 162.076 30.2188 162.424 29.9219 162.752C29.625 163.08 29.2656 163.346 28.8438 163.549C28.4297 163.76 27.9336 163.865 27.3555 163.865C27.1836 163.865 26.9648 163.842 26.6992 163.795C26.4336 163.748 26.2461 163.709 26.1367 163.678L26.125 161.92C26.1875 161.928 26.2852 161.936 26.418 161.943C26.5586 161.959 26.6562 161.967 26.7109 161.967C27.2031 161.967 27.6211 161.9 27.9648 161.768C28.3086 161.643 28.5977 161.428 28.832 161.123C29.0742 160.826 29.2812 160.416 29.4531 159.893L30.3555 157.432ZM27.7656 146.064L31.0586 155.908L31.6211 158.193L30.0625 158.99L25.3984 146.064H27.7656ZM46.2109 146.064H48.1797V158.475C48.1797 159.592 47.9531 160.545 47.5 161.334C47.0469 162.123 46.4141 162.721 45.6016 163.127C44.7969 163.541 43.8672 163.748 42.8125 163.748C42.375 163.748 41.8594 163.678 41.2656 163.537C40.6797 163.404 40.1016 163.174 39.5312 162.846C38.9688 162.525 38.4961 162.092 38.1133 161.545L39.25 160.256C39.7812 160.896 40.3359 161.342 40.9141 161.592C41.5 161.842 42.0781 161.967 42.6484 161.967C43.3359 161.967 43.9297 161.838 44.4297 161.58C44.9297 161.322 45.3164 160.939 45.5898 160.432C45.8711 159.932 46.0117 159.314 46.0117 158.58V148.854L46.2109 146.064ZM37.4805 152.545V152.299C37.4805 151.33 37.5938 150.451 37.8203 149.662C38.0547 148.865 38.3867 148.182 38.8164 147.611C39.2539 147.041 39.7812 146.604 40.3984 146.299C41.0156 145.986 41.7109 145.83 42.4844 145.83C43.2812 145.83 43.9766 145.971 44.5703 146.252C45.1719 146.525 45.6797 146.928 46.0938 147.459C46.5156 147.982 46.8477 148.615 47.0898 149.357C47.332 150.1 47.5 150.939 47.5938 151.877V152.955C47.5078 153.885 47.3398 154.721 47.0898 155.463C46.8477 156.205 46.5156 156.838 46.0938 157.361C45.6797 157.885 45.1719 158.287 44.5703 158.568C43.9688 158.842 43.2656 158.979 42.4609 158.979C41.7031 158.979 41.0156 158.818 40.3984 158.498C39.7891 158.178 39.2656 157.729 38.8281 157.15C38.3906 156.572 38.0547 155.893 37.8203 155.111C37.5938 154.322 37.4805 153.467 37.4805 152.545ZM39.6484 152.299V152.545C39.6484 153.178 39.7109 153.771 39.8359 154.326C39.9688 154.881 40.168 155.369 40.4336 155.791C40.707 156.213 41.0547 156.545 41.4766 156.787C41.8984 157.021 42.4023 157.139 42.9883 157.139C43.707 157.139 44.3008 156.986 44.7695 156.682C45.2383 156.377 45.6094 155.975 45.8828 155.475C46.1641 154.975 46.3828 154.432 46.5391 153.846V151.021C46.4531 150.592 46.3203 150.178 46.1406 149.779C45.9688 149.373 45.7422 149.014 45.4609 148.701C45.1875 148.381 44.8477 148.127 44.4414 147.939C44.0352 147.752 43.5586 147.658 43.0117 147.658C42.418 147.658 41.9062 147.783 41.4766 148.033C41.0547 148.275 40.707 148.611 40.4336 149.041C40.168 149.463 39.9688 149.955 39.8359 150.518C39.7109 151.072 39.6484 151.666 39.6484 152.299ZM59.6875 146.064H61.6562V158.475C61.6562 159.592 61.4297 160.545 60.9766 161.334C60.5234 162.123 59.8906 162.721 59.0781 163.127C58.2734 163.541 57.3438 163.748 56.2891 163.748C55.8516 163.748 55.3359 163.678 54.7422 163.537C54.1562 163.404 53.5781 163.174 53.0078 162.846C52.4453 162.525 51.9727 162.092 51.5898 161.545L52.7266 160.256C53.2578 160.896 53.8125 161.342 54.3906 161.592C54.9766 161.842 55.5547 161.967 56.125 161.967C56.8125 161.967 57.4062 161.838 57.9062 161.58C58.4062 161.322 58.793 160.939 59.0664 160.432C59.3477 159.932 59.4883 159.314 59.4883 158.58V148.854L59.6875 146.064ZM50.957 152.545V152.299C50.957 151.33 51.0703 150.451 51.2969 149.662C51.5312 148.865 51.8633 148.182 52.293 147.611C52.7305 147.041 53.2578 146.604 53.875 146.299C54.4922 145.986 55.1875 145.83 55.9609 145.83C56.7578 145.83 57.4531 145.971 58.0469 146.252C58.6484 146.525 59.1562 146.928 59.5703 147.459C59.9922 147.982 60.3242 148.615 60.5664 149.357C60.8086 150.1 60.9766 150.939 61.0703 151.877V152.955C60.9844 153.885 60.8164 154.721 60.5664 155.463C60.3242 156.205 59.9922 156.838 59.5703 157.361C59.1562 157.885 58.6484 158.287 58.0469 158.568C57.4453 158.842 56.7422 158.979 55.9375 158.979C55.1797 158.979 54.4922 158.818 53.875 158.498C53.2656 158.178 52.7422 157.729 52.3047 157.15C51.8672 156.572 51.5312 155.893 51.2969 155.111C51.0703 154.322 50.957 153.467 50.957 152.545ZM53.125 152.299V152.545C53.125 153.178 53.1875 153.771 53.3125 154.326C53.4453 154.881 53.6445 155.369 53.9102 155.791C54.1836 156.213 54.5312 156.545 54.9531 156.787C55.375 157.021 55.8789 157.139 56.4648 157.139C57.1836 157.139 57.7773 156.986 58.2461 156.682C58.7148 156.377 59.0859 155.975 59.3594 155.475C59.6406 154.975 59.8594 154.432 60.0156 153.846V151.021C59.9297 150.592 59.7969 150.178 59.6172 149.779C59.4453 149.373 59.2188 149.014 58.9375 148.701C58.6641 148.381 58.3242 148.127 57.918 147.939C57.5117 147.752 57.0352 147.658 56.4883 147.658C55.8945 147.658 55.3828 147.783 54.9531 148.033C54.5312 148.275 54.1836 148.611 53.9102 149.041C53.6445 149.463 53.4453 149.955 53.3125 150.518C53.1875 151.072 53.125 151.666 53.125 152.299ZM70.2109 158.979C69.3281 158.979 68.5273 158.83 67.8086 158.533C67.0977 158.229 66.4844 157.803 65.9688 157.256C65.4609 156.709 65.0703 156.061 64.7969 155.311C64.5234 154.561 64.3867 153.74 64.3867 152.85V152.357C64.3867 151.326 64.5391 150.408 64.8438 149.604C65.1484 148.791 65.5625 148.104 66.0859 147.541C66.6094 146.979 67.2031 146.553 67.8672 146.264C68.5312 145.975 69.2188 145.83 69.9297 145.83C70.8359 145.83 71.6172 145.986 72.2734 146.299C72.9375 146.611 73.4805 147.049 73.9023 147.611C74.3242 148.166 74.6367 148.822 74.8398 149.58C75.043 150.33 75.1445 151.15 75.1445 152.041V153.014H65.6758V151.244H72.9766V151.08C72.9453 150.518 72.8281 149.971 72.625 149.439C72.4297 148.908 72.1172 148.471 71.6875 148.127C71.2578 147.783 70.6719 147.611 69.9297 147.611C69.4375 147.611 68.9844 147.717 68.5703 147.928C68.1562 148.131 67.8008 148.436 67.5039 148.842C67.207 149.248 66.9766 149.744 66.8125 150.33C66.6484 150.916 66.5664 151.592 66.5664 152.357V152.85C66.5664 153.451 66.6484 154.018 66.8125 154.549C66.9844 155.072 67.2305 155.533 67.5508 155.932C67.8789 156.33 68.2734 156.643 68.7344 156.869C69.2031 157.096 69.7344 157.209 70.3281 157.209C71.0938 157.209 71.7422 157.053 72.2734 156.74C72.8047 156.428 73.2695 156.01 73.668 155.486L74.9805 156.529C74.707 156.943 74.3594 157.338 73.9375 157.713C73.5156 158.088 72.9961 158.393 72.3789 158.627C71.7695 158.861 71.0469 158.979 70.2109 158.979ZM80.0312 140.744V158.744H77.8516V140.744H80.0312ZM85.8672 146.064V158.744H83.6875V146.064H85.8672ZM83.5234 142.701C83.5234 142.35 83.6289 142.053 83.8398 141.811C84.0586 141.568 84.3789 141.447 84.8008 141.447C85.2148 141.447 85.5312 141.568 85.75 141.811C85.9766 142.053 86.0898 142.35 86.0898 142.701C86.0898 143.037 85.9766 143.326 85.75 143.568C85.5312 143.803 85.2148 143.92 84.8008 143.92C84.3789 143.92 84.0586 143.803 83.8398 143.568C83.6289 143.326 83.5234 143.037 83.5234 142.701ZM97.5625 146.064H99.5312V158.475C99.5312 159.592 99.3047 160.545 98.8516 161.334C98.3984 162.123 97.7656 162.721 96.9531 163.127C96.1484 163.541 95.2188 163.748 94.1641 163.748C93.7266 163.748 93.2109 163.678 92.6172 163.537C92.0312 163.404 91.4531 163.174 90.8828 162.846C90.3203 162.525 89.8477 162.092 89.4648 161.545L90.6016 160.256C91.1328 160.896 91.6875 161.342 92.2656 161.592C92.8516 161.842 93.4297 161.967 94 161.967C94.6875 161.967 95.2812 161.838 95.7812 161.58C96.2812 161.322 96.668 160.939 96.9414 160.432C97.2227 159.932 97.3633 159.314 97.3633 158.58V148.854L97.5625 146.064ZM88.832 152.545V152.299C88.832 151.33 88.9453 150.451 89.1719 149.662C89.4062 148.865 89.7383 148.182 90.168 147.611C90.6055 147.041 91.1328 146.604 91.75 146.299C92.3672 145.986 93.0625 145.83 93.8359 145.83C94.6328 145.83 95.3281 145.971 95.9219 146.252C96.5234 146.525 97.0312 146.928 97.4453 147.459C97.8672 147.982 98.1992 148.615 98.4414 149.357C98.6836 150.1 98.8516 150.939 98.9453 151.877V152.955C98.8594 153.885 98.6914 154.721 98.4414 155.463C98.1992 156.205 97.8672 156.838 97.4453 157.361C97.0312 157.885 96.5234 158.287 95.9219 158.568C95.3203 158.842 94.6172 158.979 93.8125 158.979C93.0547 158.979 92.3672 158.818 91.75 158.498C91.1406 158.178 90.6172 157.729 90.1797 157.15C89.7422 156.572 89.4062 155.893 89.1719 155.111C88.9453 154.322 88.832 153.467 88.832 152.545ZM91 152.299V152.545C91 153.178 91.0625 153.771 91.1875 154.326C91.3203 154.881 91.5195 155.369 91.7852 155.791C92.0586 156.213 92.4062 156.545 92.8281 156.787C93.25 157.021 93.7539 157.139 94.3398 157.139C95.0586 157.139 95.6523 156.986 96.1211 156.682C96.5898 156.377 96.9609 155.975 97.2344 155.475C97.5156 154.975 97.7344 154.432 97.8906 153.846V151.021C97.8047 150.592 97.6719 150.178 97.4922 149.779C97.3203 149.373 97.0938 149.014 96.8125 148.701C96.5391 148.381 96.1992 148.127 95.793 147.939C95.3867 147.752 94.9102 147.658 94.3633 147.658C93.7695 147.658 93.2578 147.783 92.8281 148.033C92.4062 148.275 92.0586 148.611 91.7852 149.041C91.5195 149.463 91.3203 149.955 91.1875 150.518C91.0625 151.072 91 151.666 91 152.299ZM116.16 155.381C116.16 155.068 116.09 154.779 115.949 154.514C115.816 154.24 115.539 153.994 115.117 153.775C114.703 153.549 114.078 153.354 113.242 153.189C112.539 153.041 111.902 152.865 111.332 152.662C110.77 152.459 110.289 152.213 109.891 151.924C109.5 151.635 109.199 151.295 108.988 150.904C108.777 150.514 108.672 150.057 108.672 149.533C108.672 149.033 108.781 148.561 109 148.115C109.227 147.67 109.543 147.275 109.949 146.932C110.363 146.588 110.859 146.318 111.438 146.123C112.016 145.928 112.66 145.83 113.371 145.83C114.387 145.83 115.254 146.01 115.973 146.369C116.691 146.729 117.242 147.209 117.625 147.811C118.008 148.404 118.199 149.064 118.199 149.791H116.031C116.031 149.439 115.926 149.1 115.715 148.771C115.512 148.436 115.211 148.158 114.812 147.939C114.422 147.721 113.941 147.611 113.371 147.611C112.77 147.611 112.281 147.705 111.906 147.893C111.539 148.072 111.27 148.303 111.098 148.584C110.934 148.865 110.852 149.162 110.852 149.475C110.852 149.709 110.891 149.92 110.969 150.107C111.055 150.287 111.203 150.455 111.414 150.611C111.625 150.76 111.922 150.9 112.305 151.033C112.688 151.166 113.176 151.299 113.77 151.432C114.809 151.666 115.664 151.947 116.336 152.275C117.008 152.604 117.508 153.006 117.836 153.482C118.164 153.959 118.328 154.537 118.328 155.217C118.328 155.771 118.211 156.279 117.977 156.74C117.75 157.201 117.418 157.6 116.98 157.936C116.551 158.264 116.035 158.521 115.434 158.709C114.84 158.889 114.172 158.979 113.43 158.979C112.312 158.979 111.367 158.779 110.594 158.381C109.82 157.982 109.234 157.467 108.836 156.834C108.438 156.201 108.238 155.533 108.238 154.83H110.418C110.449 155.424 110.621 155.896 110.934 156.248C111.246 156.592 111.629 156.838 112.082 156.986C112.535 157.127 112.984 157.197 113.43 157.197C114.023 157.197 114.52 157.119 114.918 156.963C115.324 156.807 115.633 156.592 115.844 156.318C116.055 156.045 116.16 155.732 116.16 155.381ZM126.484 146.064V147.729H119.629V146.064H126.484ZM121.949 142.982H124.117V155.604C124.117 156.033 124.184 156.357 124.316 156.576C124.449 156.795 124.621 156.939 124.832 157.01C125.043 157.08 125.27 157.115 125.512 157.115C125.691 157.115 125.879 157.1 126.074 157.068C126.277 157.029 126.43 156.998 126.531 156.975L126.543 158.744C126.371 158.799 126.145 158.85 125.863 158.896C125.59 158.951 125.258 158.979 124.867 158.979C124.336 158.979 123.848 158.873 123.402 158.662C122.957 158.451 122.602 158.1 122.336 157.607C122.078 157.107 121.949 156.436 121.949 155.592V142.982ZM134.289 158.979C133.406 158.979 132.605 158.83 131.887 158.533C131.176 158.229 130.562 157.803 130.047 157.256C129.539 156.709 129.148 156.061 128.875 155.311C128.602 154.561 128.465 153.74 128.465 152.85V152.357C128.465 151.326 128.617 150.408 128.922 149.604C129.227 148.791 129.641 148.104 130.164 147.541C130.688 146.979 131.281 146.553 131.945 146.264C132.609 145.975 133.297 145.83 134.008 145.83C134.914 145.83 135.695 145.986 136.352 146.299C137.016 146.611 137.559 147.049 137.98 147.611C138.402 148.166 138.715 148.822 138.918 149.58C139.121 150.33 139.223 151.15 139.223 152.041V153.014H129.754V151.244H137.055V151.08C137.023 150.518 136.906 149.971 136.703 149.439C136.508 148.908 136.195 148.471 135.766 148.127C135.336 147.783 134.75 147.611 134.008 147.611C133.516 147.611 133.062 147.717 132.648 147.928C132.234 148.131 131.879 148.436 131.582 148.842C131.285 149.248 131.055 149.744 130.891 150.33C130.727 150.916 130.645 151.592 130.645 152.357V152.85C130.645 153.451 130.727 154.018 130.891 154.549C131.062 155.072 131.309 155.533 131.629 155.932C131.957 156.33 132.352 156.643 132.812 156.869C133.281 157.096 133.812 157.209 134.406 157.209C135.172 157.209 135.82 157.053 136.352 156.74C136.883 156.428 137.348 156.01 137.746 155.486L139.059 156.529C138.785 156.943 138.438 157.338 138.016 157.713C137.594 158.088 137.074 158.393 136.457 158.627C135.848 158.861 135.125 158.979 134.289 158.979ZM143.91 148.584V158.744H141.73V146.064H143.793L143.91 148.584ZM143.465 151.924L142.457 151.889C142.465 151.021 142.578 150.221 142.797 149.486C143.016 148.744 143.34 148.1 143.77 147.553C144.199 147.006 144.734 146.584 145.375 146.287C146.016 145.982 146.758 145.83 147.602 145.83C148.195 145.83 148.742 145.916 149.242 146.088C149.742 146.252 150.176 146.514 150.543 146.873C150.91 147.232 151.195 147.693 151.398 148.256C151.602 148.818 151.703 149.498 151.703 150.295V158.744H149.535V150.4C149.535 149.736 149.422 149.205 149.195 148.807C148.977 148.408 148.664 148.119 148.258 147.939C147.852 147.752 147.375 147.658 146.828 147.658C146.188 147.658 145.652 147.771 145.223 147.998C144.793 148.225 144.449 148.537 144.191 148.936C143.934 149.334 143.746 149.791 143.629 150.307C143.52 150.814 143.465 151.354 143.465 151.924ZM151.68 150.729L150.227 151.174C150.234 150.479 150.348 149.811 150.566 149.17C150.793 148.529 151.117 147.959 151.539 147.459C151.969 146.959 152.496 146.564 153.121 146.275C153.746 145.979 154.461 145.83 155.266 145.83C155.945 145.83 156.547 145.92 157.07 146.1C157.602 146.279 158.047 146.557 158.406 146.932C158.773 147.299 159.051 147.771 159.238 148.35C159.426 148.928 159.52 149.615 159.52 150.412V158.744H157.34V150.389C157.34 149.678 157.227 149.127 157 148.736C156.781 148.338 156.469 148.061 156.062 147.904C155.664 147.74 155.188 147.658 154.633 147.658C154.156 147.658 153.734 147.74 153.367 147.904C153 148.068 152.691 148.295 152.441 148.584C152.191 148.865 152 149.189 151.867 149.557C151.742 149.924 151.68 150.314 151.68 150.729ZM164.969 148.771V158.744H162.801V146.064H164.852L164.969 148.771ZM164.453 151.924L163.551 151.889C163.559 151.021 163.688 150.221 163.938 149.486C164.188 148.744 164.539 148.1 164.992 147.553C165.445 147.006 165.984 146.584 166.609 146.287C167.242 145.982 167.941 145.83 168.707 145.83C169.332 145.83 169.895 145.916 170.395 146.088C170.895 146.252 171.32 146.518 171.672 146.885C172.031 147.252 172.305 147.729 172.492 148.314C172.68 148.893 172.773 149.6 172.773 150.436V158.744H170.594V150.412C170.594 149.748 170.496 149.217 170.301 148.818C170.105 148.412 169.82 148.119 169.445 147.939C169.07 147.752 168.609 147.658 168.062 147.658C167.523 147.658 167.031 147.771 166.586 147.998C166.148 148.225 165.77 148.537 165.449 148.936C165.137 149.334 164.891 149.791 164.711 150.307C164.539 150.814 164.453 151.354 164.453 151.924ZM178.422 146.064V158.744H176.242V146.064H178.422ZM176.078 142.701C176.078 142.35 176.184 142.053 176.395 141.811C176.613 141.568 176.934 141.447 177.355 141.447C177.77 141.447 178.086 141.568 178.305 141.811C178.531 142.053 178.645 142.35 178.645 142.701C178.645 143.037 178.531 143.326 178.305 143.568C178.086 143.803 177.77 143.92 177.355 143.92C176.934 143.92 176.613 143.803 176.395 143.568C176.184 143.326 176.078 143.037 176.078 142.701ZM184.07 148.771V158.744H181.902V146.064H183.953L184.07 148.771ZM183.555 151.924L182.652 151.889C182.66 151.021 182.789 150.221 183.039 149.486C183.289 148.744 183.641 148.1 184.094 147.553C184.547 147.006 185.086 146.584 185.711 146.287C186.344 145.982 187.043 145.83 187.809 145.83C188.434 145.83 188.996 145.916 189.496 146.088C189.996 146.252 190.422 146.518 190.773 146.885C191.133 147.252 191.406 147.729 191.594 148.314C191.781 148.893 191.875 149.6 191.875 150.436V158.744H189.695V150.412C189.695 149.748 189.598 149.217 189.402 148.818C189.207 148.412 188.922 148.119 188.547 147.939C188.172 147.752 187.711 147.658 187.164 147.658C186.625 147.658 186.133 147.771 185.688 147.998C185.25 148.225 184.871 148.537 184.551 148.936C184.238 149.334 183.992 149.791 183.812 150.307C183.641 150.814 183.555 151.354 183.555 151.924ZM203.383 146.064H205.352V158.475C205.352 159.592 205.125 160.545 204.672 161.334C204.219 162.123 203.586 162.721 202.773 163.127C201.969 163.541 201.039 163.748 199.984 163.748C199.547 163.748 199.031 163.678 198.438 163.537C197.852 163.404 197.273 163.174 196.703 162.846C196.141 162.525 195.668 162.092 195.285 161.545L196.422 160.256C196.953 160.896 197.508 161.342 198.086 161.592C198.672 161.842 199.25 161.967 199.82 161.967C200.508 161.967 201.102 161.838 201.602 161.58C202.102 161.322 202.488 160.939 202.762 160.432C203.043 159.932 203.184 159.314 203.184 158.58V148.854L203.383 146.064ZM194.652 152.545V152.299C194.652 151.33 194.766 150.451 194.992 149.662C195.227 148.865 195.559 148.182 195.988 147.611C196.426 147.041 196.953 146.604 197.57 146.299C198.188 145.986 198.883 145.83 199.656 145.83C200.453 145.83 201.148 145.971 201.742 146.252C202.344 146.525 202.852 146.928 203.266 147.459C203.688 147.982 204.02 148.615 204.262 149.357C204.504 150.1 204.672 150.939 204.766 151.877V152.955C204.68 153.885 204.512 154.721 204.262 155.463C204.02 156.205 203.688 156.838 203.266 157.361C202.852 157.885 202.344 158.287 201.742 158.568C201.141 158.842 200.438 158.979 199.633 158.979C198.875 158.979 198.188 158.818 197.57 158.498C196.961 158.178 196.438 157.729 196 157.15C195.562 156.572 195.227 155.893 194.992 155.111C194.766 154.322 194.652 153.467 194.652 152.545ZM196.82 152.299V152.545C196.82 153.178 196.883 153.771 197.008 154.326C197.141 154.881 197.34 155.369 197.605 155.791C197.879 156.213 198.227 156.545 198.648 156.787C199.07 157.021 199.574 157.139 200.16 157.139C200.879 157.139 201.473 156.986 201.941 156.682C202.41 156.377 202.781 155.975 203.055 155.475C203.336 154.975 203.555 154.432 203.711 153.846V151.021C203.625 150.592 203.492 150.178 203.312 149.779C203.141 149.373 202.914 149.014 202.633 148.701C202.359 148.381 202.02 148.127 201.613 147.939C201.207 147.752 200.73 147.658 200.184 147.658C199.59 147.658 199.078 147.783 198.648 148.033C198.227 148.275 197.879 148.611 197.605 149.041C197.34 149.463 197.141 149.955 197.008 150.518C196.883 151.072 196.82 151.666 196.82 152.299ZM69.5195 177.275L72.0742 175.459C72.5664 175.123 72.9453 174.787 73.2109 174.451C73.4844 174.107 73.6211 173.639 73.6211 173.045C73.6211 172.584 73.4414 172.166 73.082 171.791C72.7227 171.408 72.2148 171.217 71.5586 171.217C71.1055 171.217 70.7227 171.322 70.4102 171.533C70.0977 171.744 69.8633 172.025 69.707 172.377C69.5508 172.721 69.4727 173.1 69.4727 173.514C69.4727 173.865 69.5586 174.229 69.7305 174.604C69.9023 174.979 70.1406 175.369 70.4453 175.775C70.75 176.182 71.0977 176.611 71.4883 177.064L79.5625 186.744H76.9609L70.3398 178.822C69.7539 178.135 69.2305 177.506 68.7695 176.936C68.3086 176.357 67.9453 175.799 67.6797 175.26C67.4219 174.721 67.293 174.162 67.293 173.584C67.293 172.693 67.4688 171.943 67.8203 171.334C68.1797 170.717 68.6797 170.248 69.3203 169.928C69.9609 169.607 70.7109 169.447 71.5703 169.447C72.4062 169.447 73.125 169.615 73.7266 169.951C74.3359 170.279 74.8047 170.717 75.1328 171.264C75.4609 171.803 75.625 172.396 75.625 173.045C75.625 173.592 75.5273 174.084 75.332 174.521C75.1367 174.951 74.8633 175.346 74.5117 175.705C74.168 176.064 73.7656 176.416 73.3047 176.76L69.918 179.279C69.3555 179.693 68.9453 180.088 68.6875 180.463C68.4297 180.838 68.2617 181.17 68.1836 181.459C68.1133 181.748 68.0781 181.979 68.0781 182.15C68.0781 182.705 68.1992 183.213 68.4414 183.674C68.6836 184.135 69.0508 184.506 69.543 184.787C70.043 185.061 70.668 185.197 71.418 185.197C72.0742 185.197 72.7109 185.049 73.3281 184.752C73.9531 184.447 74.5117 184.018 75.0039 183.463C75.4961 182.9 75.8867 182.232 76.1758 181.459C76.4727 180.678 76.6211 179.814 76.6211 178.869H78.5664C78.5664 179.643 78.4922 180.373 78.3438 181.061C78.1953 181.748 77.9648 182.389 77.6523 182.982C77.3477 183.568 76.957 184.104 76.4805 184.588C76.4102 184.658 76.3555 184.74 76.3164 184.834C76.2773 184.928 76.2227 185.01 76.1523 185.08C75.5664 185.713 74.8438 186.189 73.9844 186.51C73.1328 186.822 72.2773 186.979 71.418 186.979C70.2852 186.979 69.3047 186.771 68.4766 186.357C67.6562 185.943 67.0234 185.373 66.5781 184.646C66.1328 183.92 65.9102 183.088 65.9102 182.15C65.9102 181.432 66.0625 180.799 66.3672 180.252C66.6797 179.705 67.1055 179.193 67.6445 178.717C68.1914 178.24 68.8164 177.76 69.5195 177.275ZM89.4062 176.584V186.744H87.2266V174.064H89.2891L89.4062 176.584ZM88.9609 179.924L87.9531 179.889C87.9609 179.021 88.0742 178.221 88.293 177.486C88.5117 176.744 88.8359 176.1 89.2656 175.553C89.6953 175.006 90.2305 174.584 90.8711 174.287C91.5117 173.982 92.2539 173.83 93.0977 173.83C93.6914 173.83 94.2383 173.916 94.7383 174.088C95.2383 174.252 95.6719 174.514 96.0391 174.873C96.4062 175.232 96.6914 175.693 96.8945 176.256C97.0977 176.818 97.1992 177.498 97.1992 178.295V186.744H95.0312V178.4C95.0312 177.736 94.918 177.205 94.6914 176.807C94.4727 176.408 94.1602 176.119 93.7539 175.939C93.3477 175.752 92.8711 175.658 92.3242 175.658C91.6836 175.658 91.1484 175.771 90.7188 175.998C90.2891 176.225 89.9453 176.537 89.6875 176.936C89.4297 177.334 89.2422 177.791 89.125 178.307C89.0156 178.814 88.9609 179.354 88.9609 179.924ZM97.1758 178.729L95.7227 179.174C95.7305 178.479 95.8438 177.811 96.0625 177.17C96.2891 176.529 96.6133 175.959 97.0352 175.459C97.4648 174.959 97.9922 174.564 98.6172 174.275C99.2422 173.979 99.957 173.83 100.762 173.83C101.441 173.83 102.043 173.92 102.566 174.1C103.098 174.279 103.543 174.557 103.902 174.932C104.27 175.299 104.547 175.771 104.734 176.35C104.922 176.928 105.016 177.615 105.016 178.412V186.744H102.836V178.389C102.836 177.678 102.723 177.127 102.496 176.736C102.277 176.338 101.965 176.061 101.559 175.904C101.16 175.74 100.684 175.658 100.129 175.658C99.6523 175.658 99.2305 175.74 98.8633 175.904C98.4961 176.068 98.1875 176.295 97.9375 176.584C97.6875 176.865 97.4961 177.189 97.3633 177.557C97.2383 177.924 97.1758 178.314 97.1758 178.729ZM116.055 183.814V174.064H118.234V186.744H116.16L116.055 183.814ZM116.465 181.143L117.367 181.119C117.367 181.963 117.277 182.744 117.098 183.463C116.926 184.174 116.645 184.791 116.254 185.314C115.863 185.838 115.352 186.248 114.719 186.545C114.086 186.834 113.316 186.979 112.41 186.979C111.793 186.979 111.227 186.889 110.711 186.709C110.203 186.529 109.766 186.252 109.398 185.877C109.031 185.502 108.746 185.014 108.543 184.412C108.348 183.811 108.25 183.088 108.25 182.244V174.064H110.418V182.268C110.418 182.838 110.48 183.311 110.605 183.686C110.738 184.053 110.914 184.346 111.133 184.564C111.359 184.775 111.609 184.924 111.883 185.01C112.164 185.096 112.453 185.139 112.75 185.139C113.672 185.139 114.402 184.963 114.941 184.611C115.48 184.252 115.867 183.771 116.102 183.17C116.344 182.561 116.465 181.885 116.465 181.143ZM128.922 183.381C128.922 183.068 128.852 182.779 128.711 182.514C128.578 182.24 128.301 181.994 127.879 181.775C127.465 181.549 126.84 181.354 126.004 181.189C125.301 181.041 124.664 180.865 124.094 180.662C123.531 180.459 123.051 180.213 122.652 179.924C122.262 179.635 121.961 179.295 121.75 178.904C121.539 178.514 121.434 178.057 121.434 177.533C121.434 177.033 121.543 176.561 121.762 176.115C121.988 175.67 122.305 175.275 122.711 174.932C123.125 174.588 123.621 174.318 124.199 174.123C124.777 173.928 125.422 173.83 126.133 173.83C127.148 173.83 128.016 174.01 128.734 174.369C129.453 174.729 130.004 175.209 130.387 175.811C130.77 176.404 130.961 177.064 130.961 177.791H128.793C128.793 177.439 128.688 177.1 128.477 176.771C128.273 176.436 127.973 176.158 127.574 175.939C127.184 175.721 126.703 175.611 126.133 175.611C125.531 175.611 125.043 175.705 124.668 175.893C124.301 176.072 124.031 176.303 123.859 176.584C123.695 176.865 123.613 177.162 123.613 177.475C123.613 177.709 123.652 177.92 123.73 178.107C123.816 178.287 123.965 178.455 124.176 178.611C124.387 178.76 124.684 178.9 125.066 179.033C125.449 179.166 125.938 179.299 126.531 179.432C127.57 179.666 128.426 179.947 129.098 180.275C129.77 180.604 130.27 181.006 130.598 181.482C130.926 181.959 131.09 182.537 131.09 183.217C131.09 183.771 130.973 184.279 130.738 184.74C130.512 185.201 130.18 185.6 129.742 185.936C129.312 186.264 128.797 186.521 128.195 186.709C127.602 186.889 126.934 186.979 126.191 186.979C125.074 186.979 124.129 186.779 123.355 186.381C122.582 185.982 121.996 185.467 121.598 184.834C121.199 184.201 121 183.533 121 182.83H123.18C123.211 183.424 123.383 183.896 123.695 184.248C124.008 184.592 124.391 184.838 124.844 184.986C125.297 185.127 125.746 185.197 126.191 185.197C126.785 185.197 127.281 185.119 127.68 184.963C128.086 184.807 128.395 184.592 128.605 184.318C128.816 184.045 128.922 183.732 128.922 183.381ZM136.293 174.064V186.744H134.113V174.064H136.293ZM133.949 170.701C133.949 170.35 134.055 170.053 134.266 169.811C134.484 169.568 134.805 169.447 135.227 169.447C135.641 169.447 135.957 169.568 136.176 169.811C136.402 170.053 136.516 170.35 136.516 170.701C136.516 171.037 136.402 171.326 136.176 171.568C135.957 171.803 135.641 171.92 135.227 171.92C134.805 171.92 134.484 171.803 134.266 171.568C134.055 171.326 133.949 171.037 133.949 170.701ZM141.953 168.744V186.744H139.773V168.744H141.953ZM149.699 174.064L144.168 179.982L141.074 183.193L140.898 180.885L143.113 178.236L147.051 174.064H149.699ZM147.719 186.744L143.195 180.697L144.32 178.764L150.273 186.744H147.719Z" fill="#6F4E37"/>
</g>
<defs>
<clipPath id="clip0_961_8301">
<rect width="215" height="190" fill="white"/>
</clipPath>
</defs>
</svg>
