<svg width="215" height="190" viewBox="0 0 215 190" fill="none" xmlns="http://www.w3.org/2000/svg">
<g clip-path="url(#clip0_2178_9277)">
<path d="M91.9976 85.4018C91.9356 85.3651 91.8426 85.3193 91.7392 85.2643C90.1062 84.3847 83.8635 81.1321 75.8843 81.3428C71.564 81.4619 65.3833 82.4056 61.9725 86.1989C58.5514 90.0105 59.4506 93.309 60.1741 95.0132C61.8795 98.9898 63.8019 100.401 65.0422 101.235C69.7346 104.386 75.9153 104.854 78.7266 104.725C82.1994 104.57 88.4422 104.304 92.9485 99.8235C97.9406 94.8575 96.8657 88.4254 97.0414 87.3351L99.9354 36.2725C117.103 31.2331 133.123 26.432 150.301 21.3926C149.877 35.6311 149.454 49.8696 149.04 64.1081C147.924 63.311 145.888 62.4406 143.635 61.6159C140.296 60.3973 135.345 59.6552 133.444 59.591C128.689 59.4353 127.056 60.0766 125.62 60.5073C122.509 61.4602 120.255 62.7521 118.302 64.8686C117.837 65.3726 115.449 68.4512 115.666 71.7771C115.935 75.7995 118.281 77.632 120.431 79.0797C126.446 83.1203 135.139 83.1478 137.02 83.0195C139.48 82.8454 146.632 82.424 150.529 78.4016C152.782 76.0744 152.988 73.6188 153.412 71.5023C154.012 68.5153 153.691 66.3896 153.764 64.3922C154.508 45.6274 154.921 26.8534 155.5 8.08864C155.479 7.46559 155.459 6.8517 155.438 6.22865C155.293 1.90395 150.456 -1.05553 145.846 0.355492C130.643 5.01004 115.439 9.66459 100.246 14.31C97.4445 15.1712 95.5118 17.4527 95.3774 20.0823C94.2508 41.8524 93.1139 63.6225 91.9873 85.4018H91.9976Z" fill="#6F4E37"/>
<path d="M21.1328 145.273V147.113H11.8984V145.273H21.1328ZM12.25 137.938V155H9.98828V137.938H12.25ZM23.1016 137.938V155H20.8516V137.938H23.1016ZM30.3555 153.688L33.8828 142.32H36.2031L31.1172 156.957C31 157.27 30.8438 157.605 30.6484 157.965C30.4609 158.332 30.2188 158.68 29.9219 159.008C29.625 159.336 29.2656 159.602 28.8438 159.805C28.4297 160.016 27.9336 160.121 27.3555 160.121C27.1836 160.121 26.9648 160.098 26.6992 160.051C26.4336 160.004 26.2461 159.965 26.1367 159.934L26.125 158.176C26.1875 158.184 26.2852 158.191 26.418 158.199C26.5586 158.215 26.6562 158.223 26.7109 158.223C27.2031 158.223 27.6211 158.156 27.9648 158.023C28.3086 157.898 28.5977 157.684 28.832 157.379C29.0742 157.082 29.2812 156.672 29.4531 156.148L30.3555 153.688ZM27.7656 142.32L31.0586 152.164L31.6211 154.449L30.0625 155.246L25.3984 142.32H27.7656ZM46.2109 142.32H48.1797V154.73C48.1797 155.848 47.9531 156.801 47.5 157.59C47.0469 158.379 46.4141 158.977 45.6016 159.383C44.7969 159.797 43.8672 160.004 42.8125 160.004C42.375 160.004 41.8594 159.934 41.2656 159.793C40.6797 159.66 40.1016 159.43 39.5312 159.102C38.9688 158.781 38.4961 158.348 38.1133 157.801L39.25 156.512C39.7812 157.152 40.3359 157.598 40.9141 157.848C41.5 158.098 42.0781 158.223 42.6484 158.223C43.3359 158.223 43.9297 158.094 44.4297 157.836C44.9297 157.578 45.3164 157.195 45.5898 156.688C45.8711 156.188 46.0117 155.57 46.0117 154.836V145.109L46.2109 142.32ZM37.4805 148.801V148.555C37.4805 147.586 37.5938 146.707 37.8203 145.918C38.0547 145.121 38.3867 144.438 38.8164 143.867C39.2539 143.297 39.7812 142.859 40.3984 142.555C41.0156 142.242 41.7109 142.086 42.4844 142.086C43.2812 142.086 43.9766 142.227 44.5703 142.508C45.1719 142.781 45.6797 143.184 46.0938 143.715C46.5156 144.238 46.8477 144.871 47.0898 145.613C47.332 146.355 47.5 147.195 47.5938 148.133V149.211C47.5078 150.141 47.3398 150.977 47.0898 151.719C46.8477 152.461 46.5156 153.094 46.0938 153.617C45.6797 154.141 45.1719 154.543 44.5703 154.824C43.9688 155.098 43.2656 155.234 42.4609 155.234C41.7031 155.234 41.0156 155.074 40.3984 154.754C39.7891 154.434 39.2656 153.984 38.8281 153.406C38.3906 152.828 38.0547 152.148 37.8203 151.367C37.5938 150.578 37.4805 149.723 37.4805 148.801ZM39.6484 148.555V148.801C39.6484 149.434 39.7109 150.027 39.8359 150.582C39.9688 151.137 40.168 151.625 40.4336 152.047C40.707 152.469 41.0547 152.801 41.4766 153.043C41.8984 153.277 42.4023 153.395 42.9883 153.395C43.707 153.395 44.3008 153.242 44.7695 152.938C45.2383 152.633 45.6094 152.23 45.8828 151.73C46.1641 151.23 46.3828 150.688 46.5391 150.102V147.277C46.4531 146.848 46.3203 146.434 46.1406 146.035C45.9688 145.629 45.7422 145.27 45.4609 144.957C45.1875 144.637 44.8477 144.383 44.4414 144.195C44.0352 144.008 43.5586 143.914 43.0117 143.914C42.418 143.914 41.9062 144.039 41.4766 144.289C41.0547 144.531 40.707 144.867 40.4336 145.297C40.168 145.719 39.9688 146.211 39.8359 146.773C39.7109 147.328 39.6484 147.922 39.6484 148.555ZM59.6875 142.32H61.6562V154.73C61.6562 155.848 61.4297 156.801 60.9766 157.59C60.5234 158.379 59.8906 158.977 59.0781 159.383C58.2734 159.797 57.3438 160.004 56.2891 160.004C55.8516 160.004 55.3359 159.934 54.7422 159.793C54.1562 159.66 53.5781 159.43 53.0078 159.102C52.4453 158.781 51.9727 158.348 51.5898 157.801L52.7266 156.512C53.2578 157.152 53.8125 157.598 54.3906 157.848C54.9766 158.098 55.5547 158.223 56.125 158.223C56.8125 158.223 57.4062 158.094 57.9062 157.836C58.4062 157.578 58.793 157.195 59.0664 156.688C59.3477 156.188 59.4883 155.57 59.4883 154.836V145.109L59.6875 142.32ZM50.957 148.801V148.555C50.957 147.586 51.0703 146.707 51.2969 145.918C51.5312 145.121 51.8633 144.438 52.293 143.867C52.7305 143.297 53.2578 142.859 53.875 142.555C54.4922 142.242 55.1875 142.086 55.9609 142.086C56.7578 142.086 57.4531 142.227 58.0469 142.508C58.6484 142.781 59.1562 143.184 59.5703 143.715C59.9922 144.238 60.3242 144.871 60.5664 145.613C60.8086 146.355 60.9766 147.195 61.0703 148.133V149.211C60.9844 150.141 60.8164 150.977 60.5664 151.719C60.3242 152.461 59.9922 153.094 59.5703 153.617C59.1562 154.141 58.6484 154.543 58.0469 154.824C57.4453 155.098 56.7422 155.234 55.9375 155.234C55.1797 155.234 54.4922 155.074 53.875 154.754C53.2656 154.434 52.7422 153.984 52.3047 153.406C51.8672 152.828 51.5312 152.148 51.2969 151.367C51.0703 150.578 50.957 149.723 50.957 148.801ZM53.125 148.555V148.801C53.125 149.434 53.1875 150.027 53.3125 150.582C53.4453 151.137 53.6445 151.625 53.9102 152.047C54.1836 152.469 54.5312 152.801 54.9531 153.043C55.375 153.277 55.8789 153.395 56.4648 153.395C57.1836 153.395 57.7773 153.242 58.2461 152.938C58.7148 152.633 59.0859 152.23 59.3594 151.73C59.6406 151.23 59.8594 150.688 60.0156 150.102V147.277C59.9297 146.848 59.7969 146.434 59.6172 146.035C59.4453 145.629 59.2188 145.27 58.9375 144.957C58.6641 144.637 58.3242 144.383 57.918 144.195C57.5117 144.008 57.0352 143.914 56.4883 143.914C55.8945 143.914 55.3828 144.039 54.9531 144.289C54.5312 144.531 54.1836 144.867 53.9102 145.297C53.6445 145.719 53.4453 146.211 53.3125 146.773C53.1875 147.328 53.125 147.922 53.125 148.555ZM70.2109 155.234C69.3281 155.234 68.5273 155.086 67.8086 154.789C67.0977 154.484 66.4844 154.059 65.9688 153.512C65.4609 152.965 65.0703 152.316 64.7969 151.566C64.5234 150.816 64.3867 149.996 64.3867 149.105V148.613C64.3867 147.582 64.5391 146.664 64.8438 145.859C65.1484 145.047 65.5625 144.359 66.0859 143.797C66.6094 143.234 67.2031 142.809 67.8672 142.52C68.5312 142.23 69.2188 142.086 69.9297 142.086C70.8359 142.086 71.6172 142.242 72.2734 142.555C72.9375 142.867 73.4805 143.305 73.9023 143.867C74.3242 144.422 74.6367 145.078 74.8398 145.836C75.043 146.586 75.1445 147.406 75.1445 148.297V149.27H65.6758V147.5H72.9766V147.336C72.9453 146.773 72.8281 146.227 72.625 145.695C72.4297 145.164 72.1172 144.727 71.6875 144.383C71.2578 144.039 70.6719 143.867 69.9297 143.867C69.4375 143.867 68.9844 143.973 68.5703 144.184C68.1562 144.387 67.8008 144.691 67.5039 145.098C67.207 145.504 66.9766 146 66.8125 146.586C66.6484 147.172 66.5664 147.848 66.5664 148.613V149.105C66.5664 149.707 66.6484 150.273 66.8125 150.805C66.9844 151.328 67.2305 151.789 67.5508 152.188C67.8789 152.586 68.2734 152.898 68.7344 153.125C69.2031 153.352 69.7344 153.465 70.3281 153.465C71.0938 153.465 71.7422 153.309 72.2734 152.996C72.8047 152.684 73.2695 152.266 73.668 151.742L74.9805 152.785C74.707 153.199 74.3594 153.594 73.9375 153.969C73.5156 154.344 72.9961 154.648 72.3789 154.883C71.7695 155.117 71.0469 155.234 70.2109 155.234ZM80.0312 137V155H77.8516V137H80.0312ZM85.8672 142.32V155H83.6875V142.32H85.8672ZM83.5234 138.957C83.5234 138.605 83.6289 138.309 83.8398 138.066C84.0586 137.824 84.3789 137.703 84.8008 137.703C85.2148 137.703 85.5312 137.824 85.75 138.066C85.9766 138.309 86.0898 138.605 86.0898 138.957C86.0898 139.293 85.9766 139.582 85.75 139.824C85.5312 140.059 85.2148 140.176 84.8008 140.176C84.3789 140.176 84.0586 140.059 83.8398 139.824C83.6289 139.582 83.5234 139.293 83.5234 138.957ZM97.5625 142.32H99.5312V154.73C99.5312 155.848 99.3047 156.801 98.8516 157.59C98.3984 158.379 97.7656 158.977 96.9531 159.383C96.1484 159.797 95.2188 160.004 94.1641 160.004C93.7266 160.004 93.2109 159.934 92.6172 159.793C92.0312 159.66 91.4531 159.43 90.8828 159.102C90.3203 158.781 89.8477 158.348 89.4648 157.801L90.6016 156.512C91.1328 157.152 91.6875 157.598 92.2656 157.848C92.8516 158.098 93.4297 158.223 94 158.223C94.6875 158.223 95.2812 158.094 95.7812 157.836C96.2812 157.578 96.668 157.195 96.9414 156.688C97.2227 156.188 97.3633 155.57 97.3633 154.836V145.109L97.5625 142.32ZM88.832 148.801V148.555C88.832 147.586 88.9453 146.707 89.1719 145.918C89.4062 145.121 89.7383 144.438 90.168 143.867C90.6055 143.297 91.1328 142.859 91.75 142.555C92.3672 142.242 93.0625 142.086 93.8359 142.086C94.6328 142.086 95.3281 142.227 95.9219 142.508C96.5234 142.781 97.0312 143.184 97.4453 143.715C97.8672 144.238 98.1992 144.871 98.4414 145.613C98.6836 146.355 98.8516 147.195 98.9453 148.133V149.211C98.8594 150.141 98.6914 150.977 98.4414 151.719C98.1992 152.461 97.8672 153.094 97.4453 153.617C97.0312 154.141 96.5234 154.543 95.9219 154.824C95.3203 155.098 94.6172 155.234 93.8125 155.234C93.0547 155.234 92.3672 155.074 91.75 154.754C91.1406 154.434 90.6172 153.984 90.1797 153.406C89.7422 152.828 89.4062 152.148 89.1719 151.367C88.9453 150.578 88.832 149.723 88.832 148.801ZM91 148.555V148.801C91 149.434 91.0625 150.027 91.1875 150.582C91.3203 151.137 91.5195 151.625 91.7852 152.047C92.0586 152.469 92.4062 152.801 92.8281 153.043C93.25 153.277 93.7539 153.395 94.3398 153.395C95.0586 153.395 95.6523 153.242 96.1211 152.938C96.5898 152.633 96.9609 152.23 97.2344 151.73C97.5156 151.23 97.7344 150.688 97.8906 150.102V147.277C97.8047 146.848 97.6719 146.434 97.4922 146.035C97.3203 145.629 97.0938 145.27 96.8125 144.957C96.5391 144.637 96.1992 144.383 95.793 144.195C95.3867 144.008 94.9102 143.914 94.3633 143.914C93.7695 143.914 93.2578 144.039 92.8281 144.289C92.4062 144.531 92.0586 144.867 91.7852 145.297C91.5195 145.719 91.3203 146.211 91.1875 146.773C91.0625 147.328 91 147.922 91 148.555ZM116.16 151.637C116.16 151.324 116.09 151.035 115.949 150.77C115.816 150.496 115.539 150.25 115.117 150.031C114.703 149.805 114.078 149.609 113.242 149.445C112.539 149.297 111.902 149.121 111.332 148.918C110.77 148.715 110.289 148.469 109.891 148.18C109.5 147.891 109.199 147.551 108.988 147.16C108.777 146.77 108.672 146.312 108.672 145.789C108.672 145.289 108.781 144.816 109 144.371C109.227 143.926 109.543 143.531 109.949 143.188C110.363 142.844 110.859 142.574 111.438 142.379C112.016 142.184 112.66 142.086 113.371 142.086C114.387 142.086 115.254 142.266 115.973 142.625C116.691 142.984 117.242 143.465 117.625 144.066C118.008 144.66 118.199 145.32 118.199 146.047H116.031C116.031 145.695 115.926 145.355 115.715 145.027C115.512 144.691 115.211 144.414 114.812 144.195C114.422 143.977 113.941 143.867 113.371 143.867C112.77 143.867 112.281 143.961 111.906 144.148C111.539 144.328 111.27 144.559 111.098 144.84C110.934 145.121 110.852 145.418 110.852 145.73C110.852 145.965 110.891 146.176 110.969 146.363C111.055 146.543 111.203 146.711 111.414 146.867C111.625 147.016 111.922 147.156 112.305 147.289C112.688 147.422 113.176 147.555 113.77 147.688C114.809 147.922 115.664 148.203 116.336 148.531C117.008 148.859 117.508 149.262 117.836 149.738C118.164 150.215 118.328 150.793 118.328 151.473C118.328 152.027 118.211 152.535 117.977 152.996C117.75 153.457 117.418 153.855 116.98 154.191C116.551 154.52 116.035 154.777 115.434 154.965C114.84 155.145 114.172 155.234 113.43 155.234C112.312 155.234 111.367 155.035 110.594 154.637C109.82 154.238 109.234 153.723 108.836 153.09C108.438 152.457 108.238 151.789 108.238 151.086H110.418C110.449 151.68 110.621 152.152 110.934 152.504C111.246 152.848 111.629 153.094 112.082 153.242C112.535 153.383 112.984 153.453 113.43 153.453C114.023 153.453 114.52 153.375 114.918 153.219C115.324 153.062 115.633 152.848 115.844 152.574C116.055 152.301 116.16 151.988 116.16 151.637ZM126.484 142.32V143.984H119.629V142.32H126.484ZM121.949 139.238H124.117V151.859C124.117 152.289 124.184 152.613 124.316 152.832C124.449 153.051 124.621 153.195 124.832 153.266C125.043 153.336 125.27 153.371 125.512 153.371C125.691 153.371 125.879 153.355 126.074 153.324C126.277 153.285 126.43 153.254 126.531 153.23L126.543 155C126.371 155.055 126.145 155.105 125.863 155.152C125.59 155.207 125.258 155.234 124.867 155.234C124.336 155.234 123.848 155.129 123.402 154.918C122.957 154.707 122.602 154.355 122.336 153.863C122.078 153.363 121.949 152.691 121.949 151.848V139.238ZM134.289 155.234C133.406 155.234 132.605 155.086 131.887 154.789C131.176 154.484 130.562 154.059 130.047 153.512C129.539 152.965 129.148 152.316 128.875 151.566C128.602 150.816 128.465 149.996 128.465 149.105V148.613C128.465 147.582 128.617 146.664 128.922 145.859C129.227 145.047 129.641 144.359 130.164 143.797C130.688 143.234 131.281 142.809 131.945 142.52C132.609 142.23 133.297 142.086 134.008 142.086C134.914 142.086 135.695 142.242 136.352 142.555C137.016 142.867 137.559 143.305 137.98 143.867C138.402 144.422 138.715 145.078 138.918 145.836C139.121 146.586 139.223 147.406 139.223 148.297V149.27H129.754V147.5H137.055V147.336C137.023 146.773 136.906 146.227 136.703 145.695C136.508 145.164 136.195 144.727 135.766 144.383C135.336 144.039 134.75 143.867 134.008 143.867C133.516 143.867 133.062 143.973 132.648 144.184C132.234 144.387 131.879 144.691 131.582 145.098C131.285 145.504 131.055 146 130.891 146.586C130.727 147.172 130.645 147.848 130.645 148.613V149.105C130.645 149.707 130.727 150.273 130.891 150.805C131.062 151.328 131.309 151.789 131.629 152.188C131.957 152.586 132.352 152.898 132.812 153.125C133.281 153.352 133.812 153.465 134.406 153.465C135.172 153.465 135.82 153.309 136.352 152.996C136.883 152.684 137.348 152.266 137.746 151.742L139.059 152.785C138.785 153.199 138.438 153.594 138.016 153.969C137.594 154.344 137.074 154.648 136.457 154.883C135.848 155.117 135.125 155.234 134.289 155.234ZM143.91 144.84V155H141.73V142.32H143.793L143.91 144.84ZM143.465 148.18L142.457 148.145C142.465 147.277 142.578 146.477 142.797 145.742C143.016 145 143.34 144.355 143.77 143.809C144.199 143.262 144.734 142.84 145.375 142.543C146.016 142.238 146.758 142.086 147.602 142.086C148.195 142.086 148.742 142.172 149.242 142.344C149.742 142.508 150.176 142.77 150.543 143.129C150.91 143.488 151.195 143.949 151.398 144.512C151.602 145.074 151.703 145.754 151.703 146.551V155H149.535V146.656C149.535 145.992 149.422 145.461 149.195 145.062C148.977 144.664 148.664 144.375 148.258 144.195C147.852 144.008 147.375 143.914 146.828 143.914C146.188 143.914 145.652 144.027 145.223 144.254C144.793 144.48 144.449 144.793 144.191 145.191C143.934 145.59 143.746 146.047 143.629 146.562C143.52 147.07 143.465 147.609 143.465 148.18ZM151.68 146.984L150.227 147.43C150.234 146.734 150.348 146.066 150.566 145.426C150.793 144.785 151.117 144.215 151.539 143.715C151.969 143.215 152.496 142.82 153.121 142.531C153.746 142.234 154.461 142.086 155.266 142.086C155.945 142.086 156.547 142.176 157.07 142.355C157.602 142.535 158.047 142.812 158.406 143.188C158.773 143.555 159.051 144.027 159.238 144.605C159.426 145.184 159.52 145.871 159.52 146.668V155H157.34V146.645C157.34 145.934 157.227 145.383 157 144.992C156.781 144.594 156.469 144.316 156.062 144.16C155.664 143.996 155.188 143.914 154.633 143.914C154.156 143.914 153.734 143.996 153.367 144.16C153 144.324 152.691 144.551 152.441 144.84C152.191 145.121 152 145.445 151.867 145.812C151.742 146.18 151.68 146.57 151.68 146.984ZM164.969 145.027V155H162.801V142.32H164.852L164.969 145.027ZM164.453 148.18L163.551 148.145C163.559 147.277 163.688 146.477 163.938 145.742C164.188 145 164.539 144.355 164.992 143.809C165.445 143.262 165.984 142.84 166.609 142.543C167.242 142.238 167.941 142.086 168.707 142.086C169.332 142.086 169.895 142.172 170.395 142.344C170.895 142.508 171.32 142.773 171.672 143.141C172.031 143.508 172.305 143.984 172.492 144.57C172.68 145.148 172.773 145.855 172.773 146.691V155H170.594V146.668C170.594 146.004 170.496 145.473 170.301 145.074C170.105 144.668 169.82 144.375 169.445 144.195C169.07 144.008 168.609 143.914 168.062 143.914C167.523 143.914 167.031 144.027 166.586 144.254C166.148 144.48 165.77 144.793 165.449 145.191C165.137 145.59 164.891 146.047 164.711 146.562C164.539 147.07 164.453 147.609 164.453 148.18ZM178.422 142.32V155H176.242V142.32H178.422ZM176.078 138.957C176.078 138.605 176.184 138.309 176.395 138.066C176.613 137.824 176.934 137.703 177.355 137.703C177.77 137.703 178.086 137.824 178.305 138.066C178.531 138.309 178.645 138.605 178.645 138.957C178.645 139.293 178.531 139.582 178.305 139.824C178.086 140.059 177.77 140.176 177.355 140.176C176.934 140.176 176.613 140.059 176.395 139.824C176.184 139.582 176.078 139.293 176.078 138.957ZM184.07 145.027V155H181.902V142.32H183.953L184.07 145.027ZM183.555 148.18L182.652 148.145C182.66 147.277 182.789 146.477 183.039 145.742C183.289 145 183.641 144.355 184.094 143.809C184.547 143.262 185.086 142.84 185.711 142.543C186.344 142.238 187.043 142.086 187.809 142.086C188.434 142.086 188.996 142.172 189.496 142.344C189.996 142.508 190.422 142.773 190.773 143.141C191.133 143.508 191.406 143.984 191.594 144.57C191.781 145.148 191.875 145.855 191.875 146.691V155H189.695V146.668C189.695 146.004 189.598 145.473 189.402 145.074C189.207 144.668 188.922 144.375 188.547 144.195C188.172 144.008 187.711 143.914 187.164 143.914C186.625 143.914 186.133 144.027 185.688 144.254C185.25 144.48 184.871 144.793 184.551 145.191C184.238 145.59 183.992 146.047 183.812 146.562C183.641 147.07 183.555 147.609 183.555 148.18ZM203.383 142.32H205.352V154.73C205.352 155.848 205.125 156.801 204.672 157.59C204.219 158.379 203.586 158.977 202.773 159.383C201.969 159.797 201.039 160.004 199.984 160.004C199.547 160.004 199.031 159.934 198.438 159.793C197.852 159.66 197.273 159.43 196.703 159.102C196.141 158.781 195.668 158.348 195.285 157.801L196.422 156.512C196.953 157.152 197.508 157.598 198.086 157.848C198.672 158.098 199.25 158.223 199.82 158.223C200.508 158.223 201.102 158.094 201.602 157.836C202.102 157.578 202.488 157.195 202.762 156.688C203.043 156.188 203.184 155.57 203.184 154.836V145.109L203.383 142.32ZM194.652 148.801V148.555C194.652 147.586 194.766 146.707 194.992 145.918C195.227 145.121 195.559 144.438 195.988 143.867C196.426 143.297 196.953 142.859 197.57 142.555C198.188 142.242 198.883 142.086 199.656 142.086C200.453 142.086 201.148 142.227 201.742 142.508C202.344 142.781 202.852 143.184 203.266 143.715C203.688 144.238 204.02 144.871 204.262 145.613C204.504 146.355 204.672 147.195 204.766 148.133V149.211C204.68 150.141 204.512 150.977 204.262 151.719C204.02 152.461 203.688 153.094 203.266 153.617C202.852 154.141 202.344 154.543 201.742 154.824C201.141 155.098 200.438 155.234 199.633 155.234C198.875 155.234 198.188 155.074 197.57 154.754C196.961 154.434 196.438 153.984 196 153.406C195.562 152.828 195.227 152.148 194.992 151.367C194.766 150.578 194.652 149.723 194.652 148.801ZM196.82 148.555V148.801C196.82 149.434 196.883 150.027 197.008 150.582C197.141 151.137 197.34 151.625 197.605 152.047C197.879 152.469 198.227 152.801 198.648 153.043C199.07 153.277 199.574 153.395 200.16 153.395C200.879 153.395 201.473 153.242 201.941 152.938C202.41 152.633 202.781 152.23 203.055 151.73C203.336 151.23 203.555 150.688 203.711 150.102V147.277C203.625 146.848 203.492 146.434 203.312 146.035C203.141 145.629 202.914 145.27 202.633 144.957C202.359 144.637 202.02 144.383 201.613 144.195C201.207 144.008 200.73 143.914 200.184 143.914C199.59 143.914 199.078 144.039 198.648 144.289C198.227 144.531 197.879 144.867 197.605 145.297C197.34 145.719 197.141 146.211 197.008 146.773C196.883 147.328 196.82 147.922 196.82 148.555ZM69.5195 173.531L72.0742 171.715C72.5664 171.379 72.9453 171.043 73.2109 170.707C73.4844 170.363 73.6211 169.895 73.6211 169.301C73.6211 168.84 73.4414 168.422 73.082 168.047C72.7227 167.664 72.2148 167.473 71.5586 167.473C71.1055 167.473 70.7227 167.578 70.4102 167.789C70.0977 168 69.8633 168.281 69.707 168.633C69.5508 168.977 69.4727 169.355 69.4727 169.77C69.4727 170.121 69.5586 170.484 69.7305 170.859C69.9023 171.234 70.1406 171.625 70.4453 172.031C70.75 172.438 71.0977 172.867 71.4883 173.32L79.5625 183H76.9609L70.3398 175.078C69.7539 174.391 69.2305 173.762 68.7695 173.191C68.3086 172.613 67.9453 172.055 67.6797 171.516C67.4219 170.977 67.293 170.418 67.293 169.84C67.293 168.949 67.4688 168.199 67.8203 167.59C68.1797 166.973 68.6797 166.504 69.3203 166.184C69.9609 165.863 70.7109 165.703 71.5703 165.703C72.4062 165.703 73.125 165.871 73.7266 166.207C74.3359 166.535 74.8047 166.973 75.1328 167.52C75.4609 168.059 75.625 168.652 75.625 169.301C75.625 169.848 75.5273 170.34 75.332 170.777C75.1367 171.207 74.8633 171.602 74.5117 171.961C74.168 172.32 73.7656 172.672 73.3047 173.016L69.918 175.535C69.3555 175.949 68.9453 176.344 68.6875 176.719C68.4297 177.094 68.2617 177.426 68.1836 177.715C68.1133 178.004 68.0781 178.234 68.0781 178.406C68.0781 178.961 68.1992 179.469 68.4414 179.93C68.6836 180.391 69.0508 180.762 69.543 181.043C70.043 181.316 70.668 181.453 71.418 181.453C72.0742 181.453 72.7109 181.305 73.3281 181.008C73.9531 180.703 74.5117 180.273 75.0039 179.719C75.4961 179.156 75.8867 178.488 76.1758 177.715C76.4727 176.934 76.6211 176.07 76.6211 175.125H78.5664C78.5664 175.898 78.4922 176.629 78.3438 177.316C78.1953 178.004 77.9648 178.645 77.6523 179.238C77.3477 179.824 76.957 180.359 76.4805 180.844C76.4102 180.914 76.3555 180.996 76.3164 181.09C76.2773 181.184 76.2227 181.266 76.1523 181.336C75.5664 181.969 74.8438 182.445 73.9844 182.766C73.1328 183.078 72.2773 183.234 71.418 183.234C70.2852 183.234 69.3047 183.027 68.4766 182.613C67.6562 182.199 67.0234 181.629 66.5781 180.902C66.1328 180.176 65.9102 179.344 65.9102 178.406C65.9102 177.688 66.0625 177.055 66.3672 176.508C66.6797 175.961 67.1055 175.449 67.6445 174.973C68.1914 174.496 68.8164 174.016 69.5195 173.531ZM89.4062 172.84V183H87.2266V170.32H89.2891L89.4062 172.84ZM88.9609 176.18L87.9531 176.145C87.9609 175.277 88.0742 174.477 88.293 173.742C88.5117 173 88.8359 172.355 89.2656 171.809C89.6953 171.262 90.2305 170.84 90.8711 170.543C91.5117 170.238 92.2539 170.086 93.0977 170.086C93.6914 170.086 94.2383 170.172 94.7383 170.344C95.2383 170.508 95.6719 170.77 96.0391 171.129C96.4062 171.488 96.6914 171.949 96.8945 172.512C97.0977 173.074 97.1992 173.754 97.1992 174.551V183H95.0312V174.656C95.0312 173.992 94.918 173.461 94.6914 173.062C94.4727 172.664 94.1602 172.375 93.7539 172.195C93.3477 172.008 92.8711 171.914 92.3242 171.914C91.6836 171.914 91.1484 172.027 90.7188 172.254C90.2891 172.48 89.9453 172.793 89.6875 173.191C89.4297 173.59 89.2422 174.047 89.125 174.562C89.0156 175.07 88.9609 175.609 88.9609 176.18ZM97.1758 174.984L95.7227 175.43C95.7305 174.734 95.8438 174.066 96.0625 173.426C96.2891 172.785 96.6133 172.215 97.0352 171.715C97.4648 171.215 97.9922 170.82 98.6172 170.531C99.2422 170.234 99.957 170.086 100.762 170.086C101.441 170.086 102.043 170.176 102.566 170.355C103.098 170.535 103.543 170.812 103.902 171.188C104.27 171.555 104.547 172.027 104.734 172.605C104.922 173.184 105.016 173.871 105.016 174.668V183H102.836V174.645C102.836 173.934 102.723 173.383 102.496 172.992C102.277 172.594 101.965 172.316 101.559 172.16C101.16 171.996 100.684 171.914 100.129 171.914C99.6523 171.914 99.2305 171.996 98.8633 172.16C98.4961 172.324 98.1875 172.551 97.9375 172.84C97.6875 173.121 97.4961 173.445 97.3633 173.812C97.2383 174.18 97.1758 174.57 97.1758 174.984ZM116.055 180.07V170.32H118.234V183H116.16L116.055 180.07ZM116.465 177.398L117.367 177.375C117.367 178.219 117.277 179 117.098 179.719C116.926 180.43 116.645 181.047 116.254 181.57C115.863 182.094 115.352 182.504 114.719 182.801C114.086 183.09 113.316 183.234 112.41 183.234C111.793 183.234 111.227 183.145 110.711 182.965C110.203 182.785 109.766 182.508 109.398 182.133C109.031 181.758 108.746 181.27 108.543 180.668C108.348 180.066 108.25 179.344 108.25 178.5V170.32H110.418V178.523C110.418 179.094 110.48 179.566 110.605 179.941C110.738 180.309 110.914 180.602 111.133 180.82C111.359 181.031 111.609 181.18 111.883 181.266C112.164 181.352 112.453 181.395 112.75 181.395C113.672 181.395 114.402 181.219 114.941 180.867C115.48 180.508 115.867 180.027 116.102 179.426C116.344 178.816 116.465 178.141 116.465 177.398ZM128.922 179.637C128.922 179.324 128.852 179.035 128.711 178.77C128.578 178.496 128.301 178.25 127.879 178.031C127.465 177.805 126.84 177.609 126.004 177.445C125.301 177.297 124.664 177.121 124.094 176.918C123.531 176.715 123.051 176.469 122.652 176.18C122.262 175.891 121.961 175.551 121.75 175.16C121.539 174.77 121.434 174.312 121.434 173.789C121.434 173.289 121.543 172.816 121.762 172.371C121.988 171.926 122.305 171.531 122.711 171.188C123.125 170.844 123.621 170.574 124.199 170.379C124.777 170.184 125.422 170.086 126.133 170.086C127.148 170.086 128.016 170.266 128.734 170.625C129.453 170.984 130.004 171.465 130.387 172.066C130.77 172.66 130.961 173.32 130.961 174.047H128.793C128.793 173.695 128.688 173.355 128.477 173.027C128.273 172.691 127.973 172.414 127.574 172.195C127.184 171.977 126.703 171.867 126.133 171.867C125.531 171.867 125.043 171.961 124.668 172.148C124.301 172.328 124.031 172.559 123.859 172.84C123.695 173.121 123.613 173.418 123.613 173.73C123.613 173.965 123.652 174.176 123.73 174.363C123.816 174.543 123.965 174.711 124.176 174.867C124.387 175.016 124.684 175.156 125.066 175.289C125.449 175.422 125.938 175.555 126.531 175.688C127.57 175.922 128.426 176.203 129.098 176.531C129.77 176.859 130.27 177.262 130.598 177.738C130.926 178.215 131.09 178.793 131.09 179.473C131.09 180.027 130.973 180.535 130.738 180.996C130.512 181.457 130.18 181.855 129.742 182.191C129.312 182.52 128.797 182.777 128.195 182.965C127.602 183.145 126.934 183.234 126.191 183.234C125.074 183.234 124.129 183.035 123.355 182.637C122.582 182.238 121.996 181.723 121.598 181.09C121.199 180.457 121 179.789 121 179.086H123.18C123.211 179.68 123.383 180.152 123.695 180.504C124.008 180.848 124.391 181.094 124.844 181.242C125.297 181.383 125.746 181.453 126.191 181.453C126.785 181.453 127.281 181.375 127.68 181.219C128.086 181.062 128.395 180.848 128.605 180.574C128.816 180.301 128.922 179.988 128.922 179.637ZM136.293 170.32V183H134.113V170.32H136.293ZM133.949 166.957C133.949 166.605 134.055 166.309 134.266 166.066C134.484 165.824 134.805 165.703 135.227 165.703C135.641 165.703 135.957 165.824 136.176 166.066C136.402 166.309 136.516 166.605 136.516 166.957C136.516 167.293 136.402 167.582 136.176 167.824C135.957 168.059 135.641 168.176 135.227 168.176C134.805 168.176 134.484 168.059 134.266 167.824C134.055 167.582 133.949 167.293 133.949 166.957ZM141.953 165V183H139.773V165H141.953ZM149.699 170.32L144.168 176.238L141.074 179.449L140.898 177.141L143.113 174.492L147.051 170.32H149.699ZM147.719 183L143.195 176.953L144.32 175.02L150.273 183H147.719Z" fill="#6F4E37"/>
</g>
<defs>
<clipPath id="clip0_2178_9277">
<rect width="215" height="190" fill="white"/>
</clipPath>
</defs>
</svg>
