<svg width="54" height="63" viewBox="0 0 54 63" fill="none" xmlns="http://www.w3.org/2000/svg">
<path d="M2.80908 51.3987L4.62134 54.1409V51.3733C4.62134 51.1934 4.65942 51.0591 4.7356 50.9702C4.81388 50.8792 4.91862 50.8337 5.0498 50.8337C5.18522 50.8337 5.29207 50.8792 5.37036 50.9702C5.44865 51.0591 5.48779 51.1934 5.48779 51.3733V55.0327C5.48779 55.4411 5.31852 55.6453 4.97998 55.6453C4.89535 55.6453 4.81917 55.6326 4.75146 55.6072C4.68376 55.5839 4.62028 55.5458 4.56104 55.4929C4.50179 55.44 4.44678 55.3787 4.396 55.3088C4.34521 55.2369 4.29443 55.1639 4.24365 55.0898L2.47583 52.3794V55.1057C2.47583 55.2834 2.43457 55.4178 2.35205 55.5088C2.26953 55.5998 2.16374 55.6453 2.03467 55.6453C1.90137 55.6453 1.79451 55.5998 1.71411 55.5088C1.63371 55.4157 1.59351 55.2813 1.59351 55.1057V51.5161C1.59351 51.3638 1.61043 51.2442 1.64429 51.1575C1.68449 51.0623 1.75114 50.985 1.84424 50.9258C1.93734 50.8644 2.03784 50.8337 2.14575 50.8337C2.23039 50.8337 2.30233 50.8475 2.36157 50.875C2.42293 50.9025 2.47583 50.9395 2.52026 50.9861C2.56681 51.0326 2.61336 51.0929 2.65991 51.167C2.70858 51.241 2.7583 51.3183 2.80908 51.3987ZM9.58521 51.6399H7.46191V52.7825H9.41699C9.56087 52.7825 9.66772 52.8153 9.73755 52.8809C9.80949 52.9443 9.84546 53.029 9.84546 53.1348C9.84546 53.2406 9.81055 53.3273 9.74072 53.395C9.6709 53.4606 9.56299 53.4934 9.41699 53.4934H7.46191V54.8169H9.6582C9.80632 54.8169 9.9174 54.8518 9.99146 54.9216C10.0676 54.9893 10.1057 55.0803 10.1057 55.1946C10.1057 55.3046 10.0676 55.3945 9.99146 55.4644C9.9174 55.5321 9.80632 55.5659 9.6582 55.5659H7.09692C6.89168 55.5659 6.74357 55.5204 6.65259 55.4294C6.56372 55.3385 6.51929 55.1914 6.51929 54.9883V51.4907C6.51929 51.3553 6.53939 51.2453 6.57959 51.1606C6.61979 51.0739 6.68221 51.0115 6.76685 50.9734C6.8536 50.9332 6.96362 50.9131 7.09692 50.9131H9.58521C9.73543 50.9131 9.84652 50.9469 9.91846 51.0146C9.99251 51.0802 10.0295 51.167 10.0295 51.2749C10.0295 51.3849 9.99251 51.4738 9.91846 51.5415C9.84652 51.6071 9.73543 51.6399 9.58521 51.6399ZM11.4387 50.9131H12.667C12.9865 50.9131 13.2605 50.9427 13.489 51.002C13.7175 51.0612 13.9249 51.1723 14.1111 51.3352C14.5956 51.7499 14.8379 52.3805 14.8379 53.2268C14.8379 53.5061 14.8136 53.7611 14.7649 53.9917C14.7162 54.2223 14.6411 54.4307 14.5396 54.6169C14.438 54.801 14.3079 54.9661 14.1492 55.1121C14.0243 55.2242 13.8879 55.3141 13.7397 55.3818C13.5916 55.4495 13.4319 55.4972 13.2605 55.5247C13.0912 55.5522 12.8997 55.5659 12.686 55.5659H11.4578C11.2864 55.5659 11.1573 55.5405 11.0706 55.4897C10.9838 55.4368 10.9267 55.3639 10.8992 55.2708C10.8738 55.1755 10.8611 55.0528 10.8611 54.9026V51.4907C10.8611 51.2876 10.9066 51.1405 10.9976 51.0496C11.0885 50.9586 11.2356 50.9131 11.4387 50.9131ZM11.8037 51.6589V54.8169H12.5178C12.6744 54.8169 12.7971 54.8127 12.886 54.8042C12.9749 54.7957 13.0669 54.7746 13.1621 54.7407C13.2573 54.7069 13.3398 54.6593 13.4097 54.5979C13.7249 54.3313 13.8826 53.8722 13.8826 53.2205C13.8826 52.7613 13.8127 52.4175 13.6731 52.189C13.5356 51.9604 13.3652 51.8155 13.1621 51.7542C12.959 51.6907 12.7135 51.6589 12.4258 51.6589H11.8037ZM17.6531 55.5659H16.2312C16.026 55.5659 15.8789 55.5204 15.79 55.4294C15.7033 55.3363 15.6599 55.1893 15.6599 54.9883V51.4907C15.6599 51.2855 15.7043 51.1384 15.7932 51.0496C15.8842 50.9586 16.0302 50.9131 16.2312 50.9131H17.7388C17.9609 50.9131 18.1535 50.9268 18.3164 50.9543C18.4793 50.9819 18.6253 51.0347 18.7544 51.113C18.8644 51.1786 18.9618 51.2622 19.0464 51.3638C19.131 51.4632 19.1956 51.5743 19.24 51.697C19.2844 51.8176 19.3066 51.9456 19.3066 52.0811C19.3066 52.5465 19.0739 52.8872 18.6084 53.103C19.2199 53.2977 19.5256 53.6764 19.5256 54.2393C19.5256 54.4995 19.459 54.7344 19.3257 54.9438C19.1924 55.1512 19.0125 55.3046 18.7861 55.4041C18.6444 55.4633 18.4814 55.5056 18.2974 55.531C18.1133 55.5543 17.8985 55.5659 17.6531 55.5659ZM17.5833 53.4998H16.6025V54.8582H17.615C18.2519 54.8582 18.5703 54.6286 18.5703 54.1694C18.5703 53.9346 18.4878 53.7642 18.3228 53.6584C18.1577 53.5527 17.9112 53.4998 17.5833 53.4998ZM16.6025 51.6208V52.8237H17.4658C17.7007 52.8237 17.8816 52.8015 18.0085 52.7571C18.1376 52.7126 18.236 52.628 18.3037 52.5032C18.3566 52.4143 18.3831 52.3149 18.3831 52.2048C18.3831 51.97 18.2995 51.8145 18.1323 51.7383C17.9652 51.66 17.7102 51.6208 17.3674 51.6208H16.6025ZM21.6108 53.5759H21.2808V55.0708C21.2808 55.2676 21.2374 55.4125 21.1506 55.5056C21.0639 55.5987 20.9507 55.6453 20.811 55.6453C20.6608 55.6453 20.5444 55.5966 20.4619 55.4993C20.3794 55.4019 20.3381 55.2591 20.3381 55.0708V51.4907C20.3381 51.2876 20.3836 51.1405 20.4746 51.0496C20.5656 50.9586 20.7126 50.9131 20.9158 50.9131H22.4487C22.6603 50.9131 22.8412 50.9226 22.9915 50.9417C23.1417 50.9586 23.2771 50.9945 23.3977 51.0496C23.5437 51.1109 23.6728 51.1987 23.7849 51.313C23.8971 51.4272 23.9817 51.5605 24.0388 51.7129C24.0981 51.8631 24.1277 52.0229 24.1277 52.1921C24.1277 52.5391 24.0293 52.8163 23.8325 53.0237C23.6379 53.231 23.3416 53.3781 22.9438 53.4648C23.111 53.5537 23.2708 53.6849 23.4231 53.8584C23.5754 54.0319 23.7109 54.217 23.8293 54.4138C23.95 54.6085 24.0431 54.7852 24.1086 54.9438C24.1764 55.1004 24.2102 55.2083 24.2102 55.2676C24.2102 55.3289 24.1901 55.3903 24.1499 55.4517C24.1118 55.5109 24.0589 55.5575 23.9912 55.5913C23.9235 55.6273 23.8452 55.6453 23.7563 55.6453C23.6506 55.6453 23.5617 55.6199 23.4897 55.5691C23.4178 55.5204 23.3554 55.458 23.3025 55.3818C23.2517 55.3057 23.1819 55.1935 23.093 55.0454L22.7153 54.417C22.5799 54.1864 22.4583 54.0107 22.3503 53.8901C22.2445 53.7695 22.1366 53.687 22.0266 53.6426C21.9166 53.5981 21.778 53.5759 21.6108 53.5759ZM22.1504 51.6208H21.2808V52.8999H22.125C22.3514 52.8999 22.5418 52.8809 22.6963 52.8428C22.8507 52.8026 22.9682 52.7359 23.0486 52.6428C23.1311 52.5476 23.1724 52.4175 23.1724 52.2524C23.1724 52.1234 23.1396 52.0102 23.074 51.9128C23.0084 51.8134 22.9174 51.7393 22.801 51.6907C22.691 51.6441 22.4741 51.6208 22.1504 51.6208ZM25.813 55.0708V53.595L24.6768 51.8335C24.5773 51.6748 24.5064 51.551 24.4641 51.4622C24.4239 51.3733 24.4038 51.2961 24.4038 51.2305C24.4038 51.1226 24.4451 51.0295 24.5276 50.9512C24.6122 50.8729 24.7159 50.8337 24.8386 50.8337C24.9677 50.8337 25.065 50.8708 25.1306 50.9448C25.1983 51.0168 25.2988 51.1617 25.4321 51.3796L26.3018 52.792L27.1809 51.3796C27.2338 51.2929 27.2782 51.2199 27.3142 51.1606C27.3502 51.1014 27.3893 51.0464 27.4316 50.9956C27.4761 50.9427 27.5247 50.9025 27.5776 50.875C27.6305 50.8475 27.6951 50.8337 27.7712 50.8337C27.8897 50.8337 27.9881 50.8729 28.0664 50.9512C28.1468 51.0273 28.187 51.1162 28.187 51.2178C28.187 51.3003 28.1669 51.3828 28.1267 51.4653C28.0865 51.5479 28.0177 51.6621 27.9204 51.8081L26.7556 53.595V55.0708C26.7556 55.2633 26.7112 55.4072 26.6223 55.5024C26.5334 55.5977 26.4202 55.6453 26.2827 55.6453C26.1431 55.6453 26.0299 55.5987 25.9431 55.5056C25.8564 55.4104 25.813 55.2655 25.813 55.0708ZM29.4216 50.9131H30.6499C30.9694 50.9131 31.2434 50.9427 31.4719 51.002C31.7004 51.0612 31.9078 51.1723 32.094 51.3352C32.5785 51.7499 32.8208 52.3805 32.8208 53.2268C32.8208 53.5061 32.7965 53.7611 32.7478 53.9917C32.6991 54.2223 32.624 54.4307 32.5225 54.6169C32.4209 54.801 32.2908 54.9661 32.1321 55.1121C32.0072 55.2242 31.8708 55.3141 31.7227 55.3818C31.5745 55.4495 31.4148 55.4972 31.2434 55.5247C31.0741 55.5522 30.8826 55.5659 30.6689 55.5659H29.4407C29.2693 55.5659 29.1402 55.5405 29.0535 55.4897C28.9667 55.4368 28.9096 55.3639 28.8821 55.2708C28.8567 55.1755 28.844 55.0528 28.844 54.9026V51.4907C28.844 51.2876 28.8895 51.1405 28.9805 51.0496C29.0715 50.9586 29.2185 50.9131 29.4216 50.9131ZM29.7866 51.6589V54.8169H30.5007C30.6573 54.8169 30.78 54.8127 30.8689 54.8042C30.9578 54.7957 31.0498 54.7746 31.145 54.7407C31.2402 54.7069 31.3228 54.6593 31.3926 54.5979C31.7078 54.3313 31.8655 53.8722 31.8655 53.2205C31.8655 52.7613 31.7957 52.4175 31.656 52.189C31.5185 51.9604 31.3481 51.8155 31.145 51.7542C30.9419 51.6907 30.6965 51.6589 30.4087 51.6589H29.7866ZM36.7151 51.6399H34.5918V52.7825H36.5469C36.6908 52.7825 36.7976 52.8153 36.8674 52.8809C36.9394 52.9443 36.9753 53.029 36.9753 53.1348C36.9753 53.2406 36.9404 53.3273 36.8706 53.395C36.8008 53.4606 36.6929 53.4934 36.5469 53.4934H34.5918V54.8169H36.7881C36.9362 54.8169 37.0473 54.8518 37.1213 54.9216C37.1975 54.9893 37.2356 55.0803 37.2356 55.1946C37.2356 55.3046 37.1975 55.3945 37.1213 55.4644C37.0473 55.5321 36.9362 55.5659 36.7881 55.5659H34.2268C34.0216 55.5659 33.8735 55.5204 33.7825 55.4294C33.6936 55.3385 33.6492 55.1914 33.6492 54.9883V51.4907C33.6492 51.3553 33.6693 51.2453 33.7095 51.1606C33.7497 51.0739 33.8121 51.0115 33.8967 50.9734C33.9835 50.9332 34.0935 50.9131 34.2268 50.9131H36.7151C36.8653 50.9131 36.9764 50.9469 37.0483 51.0146C37.1224 51.0802 37.1594 51.167 37.1594 51.2749C37.1594 51.3849 37.1224 51.4738 37.0483 51.5415C36.9764 51.6071 36.8653 51.6399 36.7151 51.6399ZM38.9082 51.405V54.7915H40.8188C40.9712 54.7915 41.0876 54.8285 41.168 54.9026C41.2505 54.9766 41.2917 55.0697 41.2917 55.1819C41.2917 55.2961 41.2515 55.3892 41.1711 55.4612C41.0907 55.531 40.9733 55.5659 40.8188 55.5659H38.5432C38.338 55.5659 38.1899 55.5204 38.0989 55.4294C38.01 55.3385 37.9656 55.1914 37.9656 54.9883V51.405C37.9656 51.2146 38.0079 51.0718 38.0925 50.9766C38.1793 50.8813 38.2925 50.8337 38.4321 50.8337C38.5739 50.8337 38.6882 50.8813 38.7749 50.9766C38.8638 51.0697 38.9082 51.2125 38.9082 51.405ZM41.9519 55.0708V51.405C41.9519 51.2146 41.9953 51.0718 42.082 50.9766C42.1688 50.8813 42.2809 50.8337 42.4185 50.8337C42.5602 50.8337 42.6745 50.8813 42.7612 50.9766C42.8501 51.0697 42.8945 51.2125 42.8945 51.405V55.0708C42.8945 55.2633 42.8501 55.4072 42.7612 55.5024C42.6745 55.5977 42.5602 55.6453 42.4185 55.6453C42.283 55.6453 42.1709 55.5977 42.082 55.5024C41.9953 55.4051 41.9519 55.2612 41.9519 55.0708ZM48.2012 53.6743V54.5662C48.2012 54.6847 48.1895 54.7799 48.1663 54.8518C48.143 54.9216 48.0996 54.9851 48.0361 55.0422C47.9748 55.0994 47.8954 55.1544 47.7981 55.2073C47.5167 55.3596 47.2458 55.4707 46.9856 55.5405C46.7253 55.6104 46.4418 55.6453 46.135 55.6453C45.7774 55.6453 45.4516 55.5903 45.1575 55.4802C44.8634 55.3702 44.6126 55.2104 44.4053 55.001C44.1979 54.7915 44.0382 54.5376 43.926 54.2393C43.816 53.9409 43.761 53.6077 43.761 53.2395C43.761 52.8777 43.8149 52.5465 43.9229 52.2461C44.0308 51.9456 44.1895 51.6907 44.3989 51.4812C44.6084 51.2717 44.8634 51.112 45.1638 51.002C45.4643 50.8898 45.8049 50.8337 46.1858 50.8337C46.4989 50.8337 46.7761 50.8761 47.0173 50.9607C47.2585 51.0432 47.4543 51.1479 47.6045 51.2749C47.7547 51.4019 47.8679 51.5362 47.9441 51.678C48.0203 51.8197 48.0583 51.9456 48.0583 52.0557C48.0583 52.1742 48.0139 52.2757 47.925 52.3604C47.8383 52.4429 47.7336 52.4841 47.6108 52.4841C47.5431 52.4841 47.4775 52.4683 47.4141 52.4365C47.3527 52.4048 47.3009 52.3604 47.2585 52.3032C47.1422 52.1213 47.0438 51.9837 46.9634 51.8906C46.883 51.7975 46.774 51.7192 46.6365 51.6558C46.5011 51.5923 46.3276 51.5605 46.116 51.5605C45.898 51.5605 45.7034 51.5986 45.532 51.6748C45.3606 51.7489 45.2135 51.8578 45.0908 52.0017C44.9702 52.1435 44.8771 52.318 44.8115 52.5254C44.748 52.7327 44.7163 52.9623 44.7163 53.2141C44.7163 53.76 44.8411 54.18 45.0908 54.4741C45.3426 54.7682 45.6928 54.9153 46.1414 54.9153C46.3593 54.9153 46.5635 54.8867 46.7539 54.8296C46.9465 54.7725 47.1411 54.691 47.3379 54.5852V53.8298H46.6079C46.4323 53.8298 46.299 53.8034 46.208 53.7505C46.1191 53.6976 46.0747 53.6077 46.0747 53.4807C46.0747 53.377 46.1117 53.2913 46.1858 53.2236C46.262 53.1559 46.3646 53.1221 46.4937 53.1221H47.5632C47.6944 53.1221 47.8055 53.1337 47.8965 53.157C47.9875 53.1803 48.0605 53.2321 48.1155 53.3125C48.1726 53.3929 48.2012 53.5135 48.2012 53.6743ZM52.1653 51.6399H50.042V52.7825H51.9971C52.141 52.7825 52.2478 52.8153 52.3176 52.8809C52.3896 52.9443 52.4255 53.029 52.4255 53.1348C52.4255 53.2406 52.3906 53.3273 52.3208 53.395C52.251 53.4606 52.1431 53.4934 51.9971 53.4934H50.042V54.8169H52.2383C52.3864 54.8169 52.4975 54.8518 52.5715 54.9216C52.6477 54.9893 52.6858 55.0803 52.6858 55.1946C52.6858 55.3046 52.6477 55.3945 52.5715 55.4644C52.4975 55.5321 52.3864 55.5659 52.2383 55.5659H49.677C49.4718 55.5659 49.3236 55.5204 49.2327 55.4294C49.1438 55.3385 49.0994 55.1914 49.0994 54.9883V51.4907C49.0994 51.3553 49.1195 51.2453 49.1597 51.1606C49.1999 51.0739 49.2623 51.0115 49.3469 50.9734C49.4337 50.9332 49.5437 50.9131 49.677 50.9131H52.1653C52.3155 50.9131 52.4266 50.9469 52.4985 51.0146C52.5726 51.0802 52.6096 51.167 52.6096 51.2749C52.6096 51.3849 52.5726 51.4738 52.4985 51.5415C52.4266 51.6071 52.3155 51.6399 52.1653 51.6399Z" fill="white"/>
<path d="M8.06713 61.3816L7.32128 58.4172V61.6292C7.32128 61.8069 7.28108 61.9402 7.20068 62.0291C7.12239 62.1179 7.01765 62.1624 6.88647 62.1624C6.75951 62.1624 6.65584 62.119 6.57543 62.0322C6.49503 61.9434 6.45483 61.809 6.45483 61.6292V57.9475C6.45483 57.7444 6.50772 57.6079 6.61352 57.5381C6.71931 57.4661 6.86213 57.4302 7.04198 57.4302H7.33398C7.5096 57.4302 7.63655 57.446 7.71484 57.4778C7.79524 57.5095 7.85448 57.5667 7.89257 57.6492C7.93066 57.7317 7.97403 57.866 8.0227 58.0522L8.69872 60.6008L9.37475 58.0522C9.42341 57.866 9.46679 57.7317 9.50488 57.6492C9.54296 57.5667 9.60115 57.5095 9.67944 57.4778C9.75984 57.446 9.88785 57.4302 10.0635 57.4302H10.3555C10.5353 57.4302 10.6781 57.4661 10.7839 57.5381C10.8897 57.6079 10.9426 57.7444 10.9426 57.9475V61.6292C10.9426 61.8069 10.9024 61.9402 10.822 62.0291C10.7437 62.1179 10.6379 62.1624 10.5046 62.1624C10.3798 62.1624 10.2772 62.1179 10.1968 62.0291C10.1164 61.9402 10.0762 61.8069 10.0762 61.6292V58.4172L9.33031 61.3816C9.28165 61.5741 9.24145 61.7159 9.20971 61.8069C9.18009 61.8958 9.12402 61.9772 9.0415 62.0513C8.95898 62.1253 8.84472 62.1624 8.69872 62.1624C8.5887 62.1624 8.4956 62.138 8.41943 62.0894C8.34325 62.0428 8.28401 61.9825 8.24169 61.9084C8.19937 61.8344 8.16552 61.7529 8.14013 61.6641C8.11685 61.5731 8.09252 61.4789 8.06713 61.3816ZM14.8877 61.5562L14.6655 60.9722H12.7739L12.5518 61.5688C12.465 61.8016 12.3909 61.9592 12.3296 62.0417C12.2682 62.1222 12.1677 62.1624 12.0281 62.1624C11.9096 62.1624 11.8048 62.119 11.7139 62.0322C11.6229 61.9455 11.5774 61.8471 11.5774 61.7371C11.5774 61.6736 11.588 61.608 11.6091 61.5403C11.6303 61.4726 11.6652 61.3784 11.7139 61.2578L12.904 58.2363C12.9379 58.1496 12.9781 58.0459 13.0247 57.9253C13.0733 57.8026 13.1241 57.701 13.177 57.6206C13.232 57.5402 13.3029 57.4757 13.3896 57.427C13.4785 57.3762 13.5875 57.3508 13.7165 57.3508C13.8477 57.3508 13.9567 57.3762 14.0434 57.427C14.1323 57.4757 14.2032 57.5391 14.2561 57.6174C14.3111 57.6957 14.3566 57.7804 14.3926 57.8713C14.4307 57.9602 14.4783 58.0798 14.5354 58.23L15.751 61.2324C15.8462 61.4609 15.8938 61.627 15.8938 61.7307C15.8938 61.8386 15.8483 61.9381 15.7573 62.0291C15.6684 62.1179 15.5605 62.1624 15.4336 62.1624C15.3595 62.1624 15.2961 62.1486 15.2432 62.1211C15.1903 62.0957 15.1458 62.0608 15.1099 62.0164C15.0739 61.9698 15.0347 61.9 14.9924 61.8069C14.9522 61.7117 14.9173 61.6281 14.8877 61.5562ZM13.0215 60.2644H14.4116L13.7102 58.3442L13.0215 60.2644ZM19.0391 58.2078H18.0107V61.5879C18.0107 61.7826 17.9674 61.9275 17.8806 62.0227C17.7939 62.1158 17.6817 62.1624 17.5442 62.1624C17.4045 62.1624 17.2903 62.1147 17.2014 62.0195C17.1147 61.9243 17.0713 61.7804 17.0713 61.5879V58.2078H16.043C15.8822 58.2078 15.7626 58.1729 15.6843 58.103C15.606 58.0311 15.5669 57.9369 15.5669 57.8206C15.5669 57.7 15.6071 57.6047 15.6875 57.5349C15.77 57.4651 15.8885 57.4302 16.043 57.4302H19.0391C19.202 57.4302 19.3226 57.4661 19.4009 57.5381C19.4813 57.61 19.5215 57.7042 19.5215 57.8206C19.5215 57.9369 19.4813 58.0311 19.4009 58.103C19.3205 58.1729 19.1999 58.2078 19.0391 58.2078ZM23.146 58.157H21.0227V59.2996H22.9778C23.1217 59.2996 23.2285 59.3324 23.2983 59.3979C23.3703 59.4614 23.4062 59.5461 23.4062 59.6519C23.4062 59.7576 23.3713 59.8444 23.3015 59.9121C23.2317 59.9777 23.1238 60.0105 22.9778 60.0105H21.0227V61.334H23.219C23.3671 61.334 23.4782 61.3689 23.5522 61.4387C23.6284 61.5064 23.6665 61.5974 23.6665 61.7117C23.6665 61.8217 23.6284 61.9116 23.5522 61.9814C23.4782 62.0492 23.3671 62.083 23.219 62.083H20.6577C20.4525 62.083 20.3044 62.0375 20.2134 61.9465C20.1245 61.8556 20.0801 61.7085 20.0801 61.5054V58.0078C20.0801 57.8724 20.1002 57.7624 20.1404 57.6777C20.1806 57.591 20.243 57.5286 20.3276 57.4905C20.4144 57.4503 20.5244 57.4302 20.6577 57.4302H23.146C23.2962 57.4302 23.4073 57.464 23.4792 57.5317C23.5533 57.5973 23.5903 57.6841 23.5903 57.792C23.5903 57.902 23.5533 57.9909 23.4792 58.0586C23.4073 58.1242 23.2962 58.157 23.146 58.157ZM25.6819 60.093H25.3518V61.5879C25.3518 61.7847 25.3084 61.9296 25.2217 62.0227C25.1349 62.1158 25.0217 62.1624 24.8821 62.1624C24.7318 62.1624 24.6155 62.1137 24.533 62.0164C24.4504 61.919 24.4092 61.7762 24.4092 61.5879V58.0078C24.4092 57.8047 24.4547 57.6576 24.5456 57.5667C24.6366 57.4757 24.7837 57.4302 24.9868 57.4302H26.5198C26.7314 57.4302 26.9123 57.4397 27.0625 57.4587C27.2127 57.4757 27.3481 57.5116 27.4687 57.5667C27.6147 57.628 27.7438 57.7158 27.8559 57.8301C27.9681 57.9443 28.0527 58.0776 28.1099 58.23C28.1691 58.3802 28.1987 58.54 28.1987 58.7092C28.1987 59.0562 28.1003 59.3334 27.9036 59.5408C27.7089 59.7481 27.4127 59.8952 27.0149 59.9819C27.182 60.0708 27.3418 60.202 27.4941 60.3755C27.6465 60.549 27.7819 60.7341 27.9004 60.9309C28.021 61.1256 28.1141 61.3022 28.1797 61.4609C28.2474 61.6175 28.2812 61.7254 28.2812 61.7847C28.2812 61.846 28.2611 61.9074 28.2209 61.9688C28.1829 62.028 28.13 62.0745 28.0622 62.1084C27.9945 62.1444 27.9163 62.1624 27.8274 62.1624C27.7216 62.1624 27.6327 62.137 27.5608 62.0862C27.4888 62.0375 27.4264 61.9751 27.3735 61.8989C27.3227 61.8228 27.2529 61.7106 27.1641 61.5625L26.7864 60.9341C26.651 60.7035 26.5293 60.5278 26.4214 60.4072C26.3156 60.2866 26.2077 60.2041 26.0976 60.1597C25.9876 60.1152 25.849 60.093 25.6819 60.093ZM26.2214 58.1379H25.3518V59.417H26.196C26.4224 59.417 26.6129 59.3979 26.7673 59.3599C26.9218 59.3197 27.0392 59.253 27.1196 59.1599C27.2021 59.0647 27.2434 58.9346 27.2434 58.7695C27.2434 58.6405 27.2106 58.5273 27.145 58.4299C27.0794 58.3305 26.9884 58.2564 26.8721 58.2078C26.762 58.1612 26.5452 58.1379 26.2214 58.1379ZM29.1318 61.5879V57.9221C29.1318 57.7317 29.1752 57.5889 29.262 57.4937C29.3487 57.3984 29.4608 57.3508 29.5984 57.3508C29.7401 57.3508 29.8544 57.3984 29.9412 57.4937C30.03 57.5868 30.0745 57.7296 30.0745 57.9221V61.5879C30.0745 61.7804 30.03 61.9243 29.9412 62.0195C29.8544 62.1147 29.7401 62.1624 29.5984 62.1624C29.463 62.1624 29.3508 62.1147 29.262 62.0195C29.1752 61.9222 29.1318 61.7783 29.1318 61.5879ZM34.1084 61.5562L33.8862 60.9722H31.9946L31.7725 61.5688C31.6857 61.8016 31.6116 61.9592 31.5503 62.0417C31.4889 62.1222 31.3884 62.1624 31.2488 62.1624C31.1303 62.1624 31.0255 62.119 30.9346 62.0322C30.8436 61.9455 30.7981 61.8471 30.7981 61.7371C30.7981 61.6736 30.8087 61.608 30.8298 61.5403C30.851 61.4726 30.8859 61.3784 30.9346 61.2578L32.1247 58.2363C32.1586 58.1496 32.1988 58.0459 32.2454 57.9253C32.294 57.8026 32.3448 57.701 32.3977 57.6206C32.4527 57.5402 32.5236 57.4757 32.6103 57.427C32.6992 57.3762 32.8082 57.3508 32.9372 57.3508C33.0684 57.3508 33.1774 57.3762 33.2642 57.427C33.353 57.4757 33.4239 57.5391 33.4768 57.6174C33.5318 57.6957 33.5773 57.7804 33.6133 57.8713C33.6514 57.9602 33.699 58.0798 33.7561 58.23L34.9717 61.2324C35.0669 61.4609 35.1145 61.627 35.1145 61.7307C35.1145 61.8386 35.069 61.9381 34.978 62.0291C34.8892 62.1179 34.7812 62.1624 34.6543 62.1624C34.5802 62.1624 34.5168 62.1486 34.4639 62.1211C34.411 62.0957 34.3665 62.0608 34.3306 62.0164C34.2946 61.9698 34.2554 61.9 34.2131 61.8069C34.1729 61.7117 34.138 61.6281 34.1084 61.5562ZM32.2422 60.2644H33.6323L32.9309 58.3442L32.2422 60.2644ZM36.7331 57.9221V61.3086H38.6438C38.7961 61.3086 38.9125 61.3456 38.9929 61.4197C39.0754 61.4937 39.1167 61.5868 39.1167 61.699C39.1167 61.8132 39.0765 61.9063 38.9961 61.9783C38.9157 62.0481 38.7983 62.083 38.6438 62.083H36.3682C36.1629 62.083 36.0148 62.0375 35.9238 61.9465C35.835 61.8556 35.7905 61.7085 35.7905 61.5054V57.9221C35.7905 57.7317 35.8328 57.5889 35.9175 57.4937C36.0042 57.3984 36.1174 57.3508 36.2571 57.3508C36.3988 57.3508 36.5131 57.3984 36.5998 57.4937C36.6887 57.5868 36.7331 57.7296 36.7331 57.9221ZM42.8047 58.157H40.6814V59.2996H42.6365C42.7803 59.2996 42.8872 59.3324 42.957 59.3979C43.029 59.4614 43.0649 59.5461 43.0649 59.6519C43.0649 59.7576 43.03 59.8444 42.9602 59.9121C42.8904 59.9777 42.7825 60.0105 42.6365 60.0105H40.6814V61.334H42.8777C43.0258 61.334 43.1369 61.3689 43.2109 61.4387C43.2871 61.5064 43.3252 61.5974 43.3252 61.7117C43.3252 61.8217 43.2871 61.9116 43.2109 61.9814C43.1369 62.0492 43.0258 62.083 42.8777 62.083H40.3164C40.1112 62.083 39.963 62.0375 39.8721 61.9465C39.7832 61.8556 39.7388 61.7085 39.7388 61.5054V58.0078C39.7388 57.8724 39.7589 57.7624 39.7991 57.6777C39.8393 57.591 39.9017 57.5286 39.9863 57.4905C40.0731 57.4503 40.1831 57.4302 40.3164 57.4302H42.8047C42.9549 57.4302 43.066 57.464 43.1379 57.5317C43.212 57.5973 43.249 57.6841 43.249 57.792C43.249 57.902 43.212 57.9909 43.1379 58.0586C43.066 58.1242 42.9549 58.157 42.8047 58.157ZM45.3406 60.093H45.0105V61.5879C45.0105 61.7847 44.9671 61.9296 44.8804 62.0227C44.7936 62.1158 44.6804 62.1624 44.5408 62.1624C44.3905 62.1624 44.2742 62.1137 44.1916 62.0164C44.1091 61.919 44.0679 61.7762 44.0679 61.5879V58.0078C44.0679 57.8047 44.1134 57.6576 44.2043 57.5667C44.2953 57.4757 44.4424 57.4302 44.6455 57.4302H46.1785C46.39 57.4302 46.571 57.4397 46.7212 57.4587C46.8714 57.4757 47.0068 57.5116 47.1274 57.5667C47.2734 57.628 47.4025 57.7158 47.5146 57.8301C47.6268 57.9443 47.7114 58.0776 47.7685 58.23C47.8278 58.3802 47.8574 58.54 47.8574 58.7092C47.8574 59.0562 47.759 59.3334 47.5622 59.5408C47.3676 59.7481 47.0714 59.8952 46.6736 59.9819C46.8407 60.0708 47.0005 60.202 47.1528 60.3755C47.3052 60.549 47.4406 60.7341 47.5591 60.9309C47.6797 61.1256 47.7728 61.3022 47.8384 61.4609C47.9061 61.6175 47.9399 61.7254 47.9399 61.7847C47.9399 61.846 47.9198 61.9074 47.8796 61.9688C47.8415 62.028 47.7886 62.0745 47.7209 62.1084C47.6532 62.1444 47.5749 62.1624 47.4861 62.1624C47.3803 62.1624 47.2914 62.137 47.2195 62.0862C47.1475 62.0375 47.0851 61.9751 47.0322 61.8989C46.9814 61.8228 46.9116 61.7106 46.8227 61.5625L46.4451 60.9341C46.3096 60.7035 46.188 60.5278 46.0801 60.4072C45.9743 60.2866 45.8664 60.2041 45.7563 60.1597C45.6463 60.1152 45.5077 60.093 45.3406 60.093ZM45.8801 58.1379H45.0105V59.417H45.8547C46.0811 59.417 46.2716 59.3979 46.426 59.3599C46.5805 59.3197 46.6979 59.253 46.7783 59.1599C46.8608 59.0647 46.9021 58.9346 46.9021 58.7695C46.9021 58.6405 46.8693 58.5273 46.8037 58.4299C46.7381 58.3305 46.6471 58.2564 46.5308 58.2078C46.4207 58.1612 46.2038 58.1379 45.8801 58.1379Z" fill="white"/>
<path d="M27 41.1636C38.0457 41.1636 47 32.2093 47 21.1636C47 10.1179 38.0457 1.16357 27 1.16357C15.9543 1.16357 7 10.1179 7 21.1636C7 32.2093 15.9543 41.1636 27 41.1636Z" stroke="white" stroke-width="2.32759" stroke-miterlimit="10"/>
<path d="M27.5397 13.8074L31.3517 20.3916L29.8503 19.6182C29.7333 19.5561 29.5852 19.6044 29.5232 19.7218L28.9688 20.799C28.9068 20.9164 28.955 21.0649 29.0721 21.127L34.6128 23.9893C34.7712 24.0722 34.9606 23.9582 34.964 23.7821L35.1465 17.2186C35.15 17.084 35.0467 16.9735 34.9124 16.97L33.7037 16.9355C33.5694 16.932 33.4592 17.0356 33.4557 17.1703L33.4006 19.1107L27.7325 9.32581C27.6396 9.16353 27.4054 9.16353 27.3124 9.32581L24.32 14.5497C24.2752 14.6291 24.2787 14.7292 24.3269 14.8052L25.5218 16.6144C25.6216 16.7663 25.842 16.7594 25.9316 16.6006L27.5294 13.8074H27.5397ZM33.3421 21.4171L33.3008 21.3964H33.3421V21.4171Z" fill="white"/>
<path d="M21.9473 23.2227L22.0299 24.8558C22.0368 24.9904 22.1504 25.094 22.2847 25.0871L23.4934 25.0249C23.6277 25.018 23.731 24.9041 23.7241 24.7694L23.4039 18.5305C23.3936 18.3509 23.2042 18.2439 23.0458 18.3302L17.295 21.4721C17.1779 21.5377 17.1332 21.6828 17.1986 21.8001L17.7771 22.8636C17.8425 22.981 17.9872 23.0258 18.1043 22.9602L19.857 22.0039L15.0326 30.4249C14.9396 30.5872 15.0567 30.7875 15.2427 30.7875H20.68C20.7696 30.7875 20.8488 30.7391 20.8901 30.6632L21.961 28.7228C22.0506 28.5605 21.9335 28.3637 21.751 28.3637H18.9996L21.9438 23.2227H21.9473Z" fill="white"/>
<path d="M39.9744 30.3558L37.5915 26.2436C37.5502 26.1711 37.471 26.1228 37.3849 26.1228L35.1259 26.0848C34.9365 26.0848 34.8194 26.2851 34.9124 26.4473L35.9799 28.2911H29.3063L30.6389 27.3554C30.7491 27.2794 30.7767 27.1275 30.6975 27.017L30.0053 26.0227C29.9296 25.9122 29.778 25.8846 29.6679 25.964L24.5611 29.5444C24.4164 29.648 24.4268 29.8655 24.5817 29.9553L30.2911 33.1731C30.4082 33.2387 30.5563 33.1973 30.6217 33.0799L31.214 32.0234C31.2794 31.906 31.2381 31.7575 31.121 31.6919L29.3786 30.7114H39.7575C39.9434 30.7114 40.0605 30.5077 39.9675 30.3489L39.9744 30.3558Z" fill="white"/>
</svg>
