<svg width="232" height="276" viewBox="0 0 232 276" fill="none" xmlns="http://www.w3.org/2000/svg">
<path d="M26.6797 229.613L33.3711 239.738V229.52C33.3711 228.855 33.5117 228.359 33.793 228.031C34.082 227.695 34.4688 227.527 34.9531 227.527C35.4531 227.527 35.8477 227.695 36.1367 228.031C36.4258 228.359 36.5703 228.855 36.5703 229.52V243.031C36.5703 244.539 35.9453 245.293 34.6953 245.293C34.3828 245.293 34.1016 245.246 33.8516 245.152C33.6016 245.066 33.3672 244.926 33.1484 244.73C32.9297 244.535 32.7266 244.309 32.5391 244.051C32.3516 243.785 32.1641 243.516 31.9766 243.242L25.4492 233.234V243.301C25.4492 243.957 25.2969 244.453 24.9922 244.789C24.6875 245.125 24.2969 245.293 23.8203 245.293C23.3281 245.293 22.9336 245.125 22.6367 244.789C22.3398 244.445 22.1914 243.949 22.1914 243.301V230.047C22.1914 229.484 22.2539 229.043 22.3789 228.723C22.5273 228.371 22.7734 228.086 23.1172 227.867C23.4609 227.641 23.832 227.527 24.2305 227.527C24.543 227.527 24.8086 227.578 25.0273 227.68C25.2539 227.781 25.4492 227.918 25.6133 228.09C25.7852 228.262 25.957 228.484 26.1289 228.758C26.3086 229.031 26.4922 229.316 26.6797 229.613ZM51.6992 230.504H43.8594V234.723H51.0781C51.6094 234.723 52.0039 234.844 52.2617 235.086C52.5273 235.32 52.6602 235.633 52.6602 236.023C52.6602 236.414 52.5312 236.734 52.2734 236.984C52.0156 237.227 51.6172 237.348 51.0781 237.348H43.8594V242.234H51.9688C52.5156 242.234 52.9258 242.363 53.1992 242.621C53.4805 242.871 53.6211 243.207 53.6211 243.629C53.6211 244.035 53.4805 244.367 53.1992 244.625C52.9258 244.875 52.5156 245 51.9688 245H42.5117C41.7539 245 41.207 244.832 40.8711 244.496C40.543 244.16 40.3789 243.617 40.3789 242.867V229.953C40.3789 229.453 40.4531 229.047 40.6016 228.734C40.75 228.414 40.9805 228.184 41.293 228.043C41.6133 227.895 42.0195 227.82 42.5117 227.82H51.6992C52.2539 227.82 52.6641 227.945 52.9297 228.195C53.2031 228.438 53.3398 228.758 53.3398 229.156C53.3398 229.562 53.2031 229.891 52.9297 230.141C52.6641 230.383 52.2539 230.504 51.6992 230.504ZM58.543 227.82H63.0781C64.2578 227.82 65.2695 227.93 66.1133 228.148C66.957 228.367 67.7227 228.777 68.4102 229.379C70.1992 230.91 71.0938 233.238 71.0938 236.363C71.0938 237.395 71.0039 238.336 70.8242 239.188C70.6445 240.039 70.3672 240.809 69.9922 241.496C69.6172 242.176 69.1367 242.785 68.5508 243.324C68.0898 243.738 67.5859 244.07 67.0391 244.32C66.4922 244.57 65.9023 244.746 65.2695 244.848C64.6445 244.949 63.9375 245 63.1484 245H58.6133C57.9805 245 57.5039 244.906 57.1836 244.719C56.8633 244.523 56.6523 244.254 56.5508 243.91C56.457 243.559 56.4102 243.105 56.4102 242.551V229.953C56.4102 229.203 56.5781 228.66 56.9141 228.324C57.25 227.988 57.793 227.82 58.543 227.82ZM59.8906 230.574V242.234H62.5273C63.1055 242.234 63.5586 242.219 63.8867 242.188C64.2148 242.156 64.5547 242.078 64.9062 241.953C65.2578 241.828 65.5625 241.652 65.8203 241.426C66.9844 240.441 67.5664 238.746 67.5664 236.34C67.5664 234.645 67.3086 233.375 66.793 232.531C66.2852 231.688 65.6562 231.152 64.9062 230.926C64.1562 230.691 63.25 230.574 62.1875 230.574H59.8906ZM81.4883 245H76.2383C75.4805 245 74.9375 244.832 74.6094 244.496C74.2891 244.152 74.1289 243.609 74.1289 242.867V229.953C74.1289 229.195 74.293 228.652 74.6211 228.324C74.957 227.988 75.4961 227.82 76.2383 227.82H81.8047C82.625 227.82 83.3359 227.871 83.9375 227.973C84.5391 228.074 85.0781 228.27 85.5547 228.559C85.9609 228.801 86.3203 229.109 86.6328 229.484C86.9453 229.852 87.1836 230.262 87.3477 230.715C87.5117 231.16 87.5938 231.633 87.5938 232.133C87.5938 233.852 86.7344 235.109 85.0156 235.906C87.2734 236.625 88.4023 238.023 88.4023 240.102C88.4023 241.062 88.1562 241.93 87.6641 242.703C87.1719 243.469 86.5078 244.035 85.6719 244.402C85.1484 244.621 84.5469 244.777 83.8672 244.871C83.1875 244.957 82.3945 245 81.4883 245ZM81.2305 237.371H77.6094V242.387H81.3477C83.6992 242.387 84.875 241.539 84.875 239.844C84.875 238.977 84.5703 238.348 83.9609 237.957C83.3516 237.566 82.4414 237.371 81.2305 237.371ZM77.6094 230.434V234.875H80.7969C81.6641 234.875 82.332 234.793 82.8008 234.629C83.2773 234.465 83.6406 234.152 83.8906 233.691C84.0859 233.363 84.1836 232.996 84.1836 232.59C84.1836 231.723 83.875 231.148 83.2578 230.867C82.6406 230.578 81.6992 230.434 80.4336 230.434H77.6094ZM96.1016 237.652H94.8828V243.172C94.8828 243.898 94.7227 244.434 94.4023 244.777C94.082 245.121 93.6641 245.293 93.1484 245.293C92.5938 245.293 92.1641 245.113 91.8594 244.754C91.5547 244.395 91.4023 243.867 91.4023 243.172V229.953C91.4023 229.203 91.5703 228.66 91.9062 228.324C92.2422 227.988 92.7852 227.82 93.5352 227.82H99.1953C99.9766 227.82 100.645 227.855 101.199 227.926C101.754 227.988 102.254 228.121 102.699 228.324C103.238 228.551 103.715 228.875 104.129 229.297C104.543 229.719 104.855 230.211 105.066 230.773C105.285 231.328 105.395 231.918 105.395 232.543C105.395 233.824 105.031 234.848 104.305 235.613C103.586 236.379 102.492 236.922 101.023 237.242C101.641 237.57 102.23 238.055 102.793 238.695C103.355 239.336 103.855 240.02 104.293 240.746C104.738 241.465 105.082 242.117 105.324 242.703C105.574 243.281 105.699 243.68 105.699 243.898C105.699 244.125 105.625 244.352 105.477 244.578C105.336 244.797 105.141 244.969 104.891 245.094C104.641 245.227 104.352 245.293 104.023 245.293C103.633 245.293 103.305 245.199 103.039 245.012C102.773 244.832 102.543 244.602 102.348 244.32C102.16 244.039 101.902 243.625 101.574 243.078L100.18 240.758C99.6797 239.906 99.2305 239.258 98.832 238.812C98.4414 238.367 98.043 238.062 97.6367 237.898C97.2305 237.734 96.7188 237.652 96.1016 237.652ZM98.0938 230.434H94.8828V235.156H98C98.8359 235.156 99.5391 235.086 100.109 234.945C100.68 234.797 101.113 234.551 101.41 234.207C101.715 233.855 101.867 233.375 101.867 232.766C101.867 232.289 101.746 231.871 101.504 231.512C101.262 231.145 100.926 230.871 100.496 230.691C100.09 230.52 99.2891 230.434 98.0938 230.434ZM111.617 243.172V237.723L107.422 231.219C107.055 230.633 106.793 230.176 106.637 229.848C106.488 229.52 106.414 229.234 106.414 228.992C106.414 228.594 106.566 228.25 106.871 227.961C107.184 227.672 107.566 227.527 108.02 227.527C108.496 227.527 108.855 227.664 109.098 227.938C109.348 228.203 109.719 228.738 110.211 229.543L113.422 234.758L116.668 229.543C116.863 229.223 117.027 228.953 117.16 228.734C117.293 228.516 117.438 228.312 117.594 228.125C117.758 227.93 117.938 227.781 118.133 227.68C118.328 227.578 118.566 227.527 118.848 227.527C119.285 227.527 119.648 227.672 119.938 227.961C120.234 228.242 120.383 228.57 120.383 228.945C120.383 229.25 120.309 229.555 120.16 229.859C120.012 230.164 119.758 230.586 119.398 231.125L115.098 237.723V243.172C115.098 243.883 114.934 244.414 114.605 244.766C114.277 245.117 113.859 245.293 113.352 245.293C112.836 245.293 112.418 245.121 112.098 244.777C111.777 244.426 111.617 243.891 111.617 243.172ZM124.941 227.82H129.477C130.656 227.82 131.668 227.93 132.512 228.148C133.355 228.367 134.121 228.777 134.809 229.379C136.598 230.91 137.492 233.238 137.492 236.363C137.492 237.395 137.402 238.336 137.223 239.188C137.043 240.039 136.766 240.809 136.391 241.496C136.016 242.176 135.535 242.785 134.949 243.324C134.488 243.738 133.984 244.07 133.438 244.32C132.891 244.57 132.301 244.746 131.668 244.848C131.043 244.949 130.336 245 129.547 245H125.012C124.379 245 123.902 244.906 123.582 244.719C123.262 244.523 123.051 244.254 122.949 243.91C122.855 243.559 122.809 243.105 122.809 242.551V229.953C122.809 229.203 122.977 228.66 123.312 228.324C123.648 227.988 124.191 227.82 124.941 227.82ZM126.289 230.574V242.234H128.926C129.504 242.234 129.957 242.219 130.285 242.188C130.613 242.156 130.953 242.078 131.305 241.953C131.656 241.828 131.961 241.652 132.219 241.426C133.383 240.441 133.965 238.746 133.965 236.34C133.965 234.645 133.707 233.375 133.191 232.531C132.684 231.688 132.055 231.152 131.305 230.926C130.555 230.691 129.648 230.574 128.586 230.574H126.289ZM151.871 230.504H144.031V234.723H151.25C151.781 234.723 152.176 234.844 152.434 235.086C152.699 235.32 152.832 235.633 152.832 236.023C152.832 236.414 152.703 236.734 152.445 236.984C152.188 237.227 151.789 237.348 151.25 237.348H144.031V242.234H152.141C152.688 242.234 153.098 242.363 153.371 242.621C153.652 242.871 153.793 243.207 153.793 243.629C153.793 244.035 153.652 244.367 153.371 244.625C153.098 244.875 152.688 245 152.141 245H142.684C141.926 245 141.379 244.832 141.043 244.496C140.715 244.16 140.551 243.617 140.551 242.867V229.953C140.551 229.453 140.625 229.047 140.773 228.734C140.922 228.414 141.152 228.184 141.465 228.043C141.785 227.895 142.191 227.82 142.684 227.82H151.871C152.426 227.82 152.836 227.945 153.102 228.195C153.375 228.438 153.512 228.758 153.512 229.156C153.512 229.562 153.375 229.891 153.102 230.141C152.836 230.383 152.426 230.504 151.871 230.504ZM159.969 229.637V242.141H167.023C167.586 242.141 168.016 242.277 168.312 242.551C168.617 242.824 168.77 243.168 168.77 243.582C168.77 244.004 168.621 244.348 168.324 244.613C168.027 244.871 167.594 245 167.023 245H158.621C157.863 245 157.316 244.832 156.98 244.496C156.652 244.16 156.488 243.617 156.488 242.867V229.637C156.488 228.934 156.645 228.406 156.957 228.055C157.277 227.703 157.695 227.527 158.211 227.527C158.734 227.527 159.156 227.703 159.477 228.055C159.805 228.398 159.969 228.926 159.969 229.637ZM171.207 243.172V229.637C171.207 228.934 171.367 228.406 171.688 228.055C172.008 227.703 172.422 227.527 172.93 227.527C173.453 227.527 173.875 227.703 174.195 228.055C174.523 228.398 174.688 228.926 174.688 229.637V243.172C174.688 243.883 174.523 244.414 174.195 244.766C173.875 245.117 173.453 245.293 172.93 245.293C172.43 245.293 172.016 245.117 171.688 244.766C171.367 244.406 171.207 243.875 171.207 243.172ZM194.281 238.016V241.309C194.281 241.746 194.238 242.098 194.152 242.363C194.066 242.621 193.906 242.855 193.672 243.066C193.445 243.277 193.152 243.48 192.793 243.676C191.754 244.238 190.754 244.648 189.793 244.906C188.832 245.164 187.785 245.293 186.652 245.293C185.332 245.293 184.129 245.09 183.043 244.684C181.957 244.277 181.031 243.688 180.266 242.914C179.5 242.141 178.91 241.203 178.496 240.102C178.09 239 177.887 237.77 177.887 236.41C177.887 235.074 178.086 233.852 178.484 232.742C178.883 231.633 179.469 230.691 180.242 229.918C181.016 229.145 181.957 228.555 183.066 228.148C184.176 227.734 185.434 227.527 186.84 227.527C187.996 227.527 189.02 227.684 189.91 227.996C190.801 228.301 191.523 228.688 192.078 229.156C192.633 229.625 193.051 230.121 193.332 230.645C193.613 231.168 193.754 231.633 193.754 232.039C193.754 232.477 193.59 232.852 193.262 233.164C192.941 233.469 192.555 233.621 192.102 233.621C191.852 233.621 191.609 233.562 191.375 233.445C191.148 233.328 190.957 233.164 190.801 232.953C190.371 232.281 190.008 231.773 189.711 231.43C189.414 231.086 189.012 230.797 188.504 230.562C188.004 230.328 187.363 230.211 186.582 230.211C185.777 230.211 185.059 230.352 184.426 230.633C183.793 230.906 183.25 231.309 182.797 231.84C182.352 232.363 182.008 233.008 181.766 233.773C181.531 234.539 181.414 235.387 181.414 236.316C181.414 238.332 181.875 239.883 182.797 240.969C183.727 242.055 185.02 242.598 186.676 242.598C187.48 242.598 188.234 242.492 188.938 242.281C189.648 242.07 190.367 241.77 191.094 241.379V238.59H188.398C187.75 238.59 187.258 238.492 186.922 238.297C186.594 238.102 186.43 237.77 186.43 237.301C186.43 236.918 186.566 236.602 186.84 236.352C187.121 236.102 187.5 235.977 187.977 235.977H191.926C192.41 235.977 192.82 236.02 193.156 236.105C193.492 236.191 193.762 236.383 193.965 236.68C194.176 236.977 194.281 237.422 194.281 238.016ZM208.918 230.504H201.078V234.723H208.297C208.828 234.723 209.223 234.844 209.48 235.086C209.746 235.32 209.879 235.633 209.879 236.023C209.879 236.414 209.75 236.734 209.492 236.984C209.234 237.227 208.836 237.348 208.297 237.348H201.078V242.234H209.188C209.734 242.234 210.145 242.363 210.418 242.621C210.699 242.871 210.84 243.207 210.84 243.629C210.84 244.035 210.699 244.367 210.418 244.625C210.145 244.875 209.734 245 209.188 245H199.73C198.973 245 198.426 244.832 198.09 244.496C197.762 244.16 197.598 243.617 197.598 242.867V229.953C197.598 229.453 197.672 229.047 197.82 228.734C197.969 228.414 198.199 228.184 198.512 228.043C198.832 227.895 199.238 227.82 199.73 227.82H208.918C209.473 227.82 209.883 227.945 210.148 228.195C210.422 228.438 210.559 228.758 210.559 229.156C210.559 229.562 210.422 229.891 210.148 230.141C209.883 230.383 209.473 230.504 208.918 230.504Z" fill="white"/>
<path d="M45.6641 270.41L42.9102 259.465V271.324C42.9102 271.98 42.7617 272.473 42.4648 272.801C42.1758 273.129 41.7891 273.293 41.3047 273.293C40.8359 273.293 40.4531 273.133 40.1562 272.812C39.8594 272.484 39.7109 271.988 39.7109 271.324V257.73C39.7109 256.98 39.9062 256.477 40.2969 256.219C40.6875 255.953 41.2148 255.82 41.8789 255.82H42.957C43.6055 255.82 44.0742 255.879 44.3633 255.996C44.6602 256.113 44.8789 256.324 45.0195 256.629C45.1602 256.934 45.3203 257.43 45.5 258.117L47.9961 267.527L50.4922 258.117C50.6719 257.43 50.832 256.934 50.9727 256.629C51.1133 256.324 51.3281 256.113 51.6172 255.996C51.9141 255.879 52.3867 255.82 53.0352 255.82H54.1133C54.7773 255.82 55.3047 255.953 55.6953 256.219C56.0859 256.477 56.2812 256.98 56.2812 257.73V271.324C56.2812 271.98 56.1328 272.473 55.8359 272.801C55.5469 273.129 55.1562 273.293 54.6641 273.293C54.2031 273.293 53.8242 273.129 53.5273 272.801C53.2305 272.473 53.082 271.98 53.082 271.324V259.465L50.3281 270.41C50.1484 271.121 50 271.645 49.8828 271.98C49.7734 272.309 49.5664 272.609 49.2617 272.883C48.957 273.156 48.5352 273.293 47.9961 273.293C47.5898 273.293 47.2461 273.203 46.9648 273.023C46.6836 272.852 46.4648 272.629 46.3086 272.355C46.1523 272.082 46.0273 271.781 45.9336 271.453C45.8477 271.117 45.7578 270.77 45.6641 270.41ZM70.8477 271.055L70.0273 268.898H63.043L62.2227 271.102C61.9023 271.961 61.6289 272.543 61.4023 272.848C61.1758 273.145 60.8047 273.293 60.2891 273.293C59.8516 273.293 59.4648 273.133 59.1289 272.812C58.793 272.492 58.625 272.129 58.625 271.723C58.625 271.488 58.6641 271.246 58.7422 270.996C58.8203 270.746 58.9492 270.398 59.1289 269.953L63.5234 258.797C63.6484 258.477 63.7969 258.094 63.9688 257.648C64.1484 257.195 64.3359 256.82 64.5312 256.523C64.7344 256.227 64.9961 255.988 65.3164 255.809C65.6445 255.621 66.0469 255.527 66.5234 255.527C67.0078 255.527 67.4102 255.621 67.7305 255.809C68.0586 255.988 68.3203 256.223 68.5156 256.512C68.7188 256.801 68.8867 257.113 69.0195 257.449C69.1602 257.777 69.3359 258.219 69.5469 258.773L74.0352 269.859C74.3867 270.703 74.5625 271.316 74.5625 271.699C74.5625 272.098 74.3945 272.465 74.0586 272.801C73.7305 273.129 73.332 273.293 72.8633 273.293C72.5898 273.293 72.3555 273.242 72.1602 273.141C71.9648 273.047 71.8008 272.918 71.668 272.754C71.5352 272.582 71.3906 272.324 71.2344 271.98C71.0859 271.629 70.957 271.32 70.8477 271.055ZM63.957 266.285H69.0898L66.5 259.195L63.957 266.285ZM86.1758 258.691H82.3789V271.172C82.3789 271.891 82.2188 272.426 81.8984 272.777C81.5781 273.121 81.1641 273.293 80.6562 273.293C80.1406 273.293 79.7188 273.117 79.3906 272.766C79.0703 272.414 78.9102 271.883 78.9102 271.172V258.691H75.1133C74.5195 258.691 74.0781 258.562 73.7891 258.305C73.5 258.039 73.3555 257.691 73.3555 257.262C73.3555 256.816 73.5039 256.465 73.8008 256.207C74.1055 255.949 74.543 255.82 75.1133 255.82H86.1758C86.7773 255.82 87.2227 255.953 87.5117 256.219C87.8086 256.484 87.957 256.832 87.957 257.262C87.957 257.691 87.8086 258.039 87.5117 258.305C87.2148 258.562 86.7695 258.691 86.1758 258.691ZM101.34 258.504H93.5V262.723H100.719C101.25 262.723 101.645 262.844 101.902 263.086C102.168 263.32 102.301 263.633 102.301 264.023C102.301 264.414 102.172 264.734 101.914 264.984C101.656 265.227 101.258 265.348 100.719 265.348H93.5V270.234H101.609C102.156 270.234 102.566 270.363 102.84 270.621C103.121 270.871 103.262 271.207 103.262 271.629C103.262 272.035 103.121 272.367 102.84 272.625C102.566 272.875 102.156 273 101.609 273H92.1523C91.3945 273 90.8477 272.832 90.5117 272.496C90.1836 272.16 90.0195 271.617 90.0195 270.867V257.953C90.0195 257.453 90.0938 257.047 90.2422 256.734C90.3906 256.414 90.6211 256.184 90.9336 256.043C91.2539 255.895 91.6602 255.82 92.1523 255.82H101.34C101.895 255.82 102.305 255.945 102.57 256.195C102.844 256.438 102.98 256.758 102.98 257.156C102.98 257.562 102.844 257.891 102.57 258.141C102.305 258.383 101.895 258.504 101.34 258.504ZM110.703 265.652H109.484V271.172C109.484 271.898 109.324 272.434 109.004 272.777C108.684 273.121 108.266 273.293 107.75 273.293C107.195 273.293 106.766 273.113 106.461 272.754C106.156 272.395 106.004 271.867 106.004 271.172V257.953C106.004 257.203 106.172 256.66 106.508 256.324C106.844 255.988 107.387 255.82 108.137 255.82H113.797C114.578 255.82 115.246 255.855 115.801 255.926C116.355 255.988 116.855 256.121 117.301 256.324C117.84 256.551 118.316 256.875 118.73 257.297C119.145 257.719 119.457 258.211 119.668 258.773C119.887 259.328 119.996 259.918 119.996 260.543C119.996 261.824 119.633 262.848 118.906 263.613C118.188 264.379 117.094 264.922 115.625 265.242C116.242 265.57 116.832 266.055 117.395 266.695C117.957 267.336 118.457 268.02 118.895 268.746C119.34 269.465 119.684 270.117 119.926 270.703C120.176 271.281 120.301 271.68 120.301 271.898C120.301 272.125 120.227 272.352 120.078 272.578C119.938 272.797 119.742 272.969 119.492 273.094C119.242 273.227 118.953 273.293 118.625 273.293C118.234 273.293 117.906 273.199 117.641 273.012C117.375 272.832 117.145 272.602 116.949 272.32C116.762 272.039 116.504 271.625 116.176 271.078L114.781 268.758C114.281 267.906 113.832 267.258 113.434 266.812C113.043 266.367 112.645 266.062 112.238 265.898C111.832 265.734 111.32 265.652 110.703 265.652ZM112.695 258.434H109.484V263.156H112.602C113.438 263.156 114.141 263.086 114.711 262.945C115.281 262.797 115.715 262.551 116.012 262.207C116.316 261.855 116.469 261.375 116.469 260.766C116.469 260.289 116.348 259.871 116.105 259.512C115.863 259.145 115.527 258.871 115.098 258.691C114.691 258.52 113.891 258.434 112.695 258.434ZM123.441 271.172V257.637C123.441 256.934 123.602 256.406 123.922 256.055C124.242 255.703 124.656 255.527 125.164 255.527C125.688 255.527 126.109 255.703 126.43 256.055C126.758 256.398 126.922 256.926 126.922 257.637V271.172C126.922 271.883 126.758 272.414 126.43 272.766C126.109 273.117 125.688 273.293 125.164 273.293C124.664 273.293 124.25 273.117 123.922 272.766C123.602 272.406 123.441 271.875 123.441 271.172ZM141.816 271.055L140.996 268.898H134.012L133.191 271.102C132.871 271.961 132.598 272.543 132.371 272.848C132.145 273.145 131.773 273.293 131.258 273.293C130.82 273.293 130.434 273.133 130.098 272.812C129.762 272.492 129.594 272.129 129.594 271.723C129.594 271.488 129.633 271.246 129.711 270.996C129.789 270.746 129.918 270.398 130.098 269.953L134.492 258.797C134.617 258.477 134.766 258.094 134.938 257.648C135.117 257.195 135.305 256.82 135.5 256.523C135.703 256.227 135.965 255.988 136.285 255.809C136.613 255.621 137.016 255.527 137.492 255.527C137.977 255.527 138.379 255.621 138.699 255.809C139.027 255.988 139.289 256.223 139.484 256.512C139.688 256.801 139.855 257.113 139.988 257.449C140.129 257.777 140.305 258.219 140.516 258.773L145.004 269.859C145.355 270.703 145.531 271.316 145.531 271.699C145.531 272.098 145.363 272.465 145.027 272.801C144.699 273.129 144.301 273.293 143.832 273.293C143.559 273.293 143.324 273.242 143.129 273.141C142.934 273.047 142.77 272.918 142.637 272.754C142.504 272.582 142.359 272.324 142.203 271.98C142.055 271.629 141.926 271.32 141.816 271.055ZM134.926 266.285H140.059L137.469 259.195L134.926 266.285ZM151.508 257.637V270.141H158.562C159.125 270.141 159.555 270.277 159.852 270.551C160.156 270.824 160.309 271.168 160.309 271.582C160.309 272.004 160.16 272.348 159.863 272.613C159.566 272.871 159.133 273 158.562 273H150.16C149.402 273 148.855 272.832 148.52 272.496C148.191 272.16 148.027 271.617 148.027 270.867V257.637C148.027 256.934 148.184 256.406 148.496 256.055C148.816 255.703 149.234 255.527 149.75 255.527C150.273 255.527 150.695 255.703 151.016 256.055C151.344 256.398 151.508 256.926 151.508 257.637ZM173.926 258.504H166.086V262.723H173.305C173.836 262.723 174.23 262.844 174.488 263.086C174.754 263.32 174.887 263.633 174.887 264.023C174.887 264.414 174.758 264.734 174.5 264.984C174.242 265.227 173.844 265.348 173.305 265.348H166.086V270.234H174.195C174.742 270.234 175.152 270.363 175.426 270.621C175.707 270.871 175.848 271.207 175.848 271.629C175.848 272.035 175.707 272.367 175.426 272.625C175.152 272.875 174.742 273 174.195 273H164.738C163.98 273 163.434 272.832 163.098 272.496C162.77 272.16 162.605 271.617 162.605 270.867V257.953C162.605 257.453 162.68 257.047 162.828 256.734C162.977 256.414 163.207 256.184 163.52 256.043C163.84 255.895 164.246 255.82 164.738 255.82H173.926C174.48 255.82 174.891 255.945 175.156 256.195C175.43 256.438 175.566 256.758 175.566 257.156C175.566 257.562 175.43 257.891 175.156 258.141C174.891 258.383 174.48 258.504 173.926 258.504ZM183.289 265.652H182.07V271.172C182.07 271.898 181.91 272.434 181.59 272.777C181.27 273.121 180.852 273.293 180.336 273.293C179.781 273.293 179.352 273.113 179.047 272.754C178.742 272.395 178.59 271.867 178.59 271.172V257.953C178.59 257.203 178.758 256.66 179.094 256.324C179.43 255.988 179.973 255.82 180.723 255.82H186.383C187.164 255.82 187.832 255.855 188.387 255.926C188.941 255.988 189.441 256.121 189.887 256.324C190.426 256.551 190.902 256.875 191.316 257.297C191.73 257.719 192.043 258.211 192.254 258.773C192.473 259.328 192.582 259.918 192.582 260.543C192.582 261.824 192.219 262.848 191.492 263.613C190.773 264.379 189.68 264.922 188.211 265.242C188.828 265.57 189.418 266.055 189.98 266.695C190.543 267.336 191.043 268.02 191.48 268.746C191.926 269.465 192.27 270.117 192.512 270.703C192.762 271.281 192.887 271.68 192.887 271.898C192.887 272.125 192.812 272.352 192.664 272.578C192.523 272.797 192.328 272.969 192.078 273.094C191.828 273.227 191.539 273.293 191.211 273.293C190.82 273.293 190.492 273.199 190.227 273.012C189.961 272.832 189.73 272.602 189.535 272.32C189.348 272.039 189.09 271.625 188.762 271.078L187.367 268.758C186.867 267.906 186.418 267.258 186.02 266.812C185.629 266.367 185.23 266.062 184.824 265.898C184.418 265.734 183.906 265.652 183.289 265.652ZM185.281 258.434H182.07V263.156H185.188C186.023 263.156 186.727 263.086 187.297 262.945C187.867 262.797 188.301 262.551 188.598 262.207C188.902 261.855 189.055 261.375 189.055 260.766C189.055 260.289 188.934 259.871 188.691 259.512C188.449 259.145 188.113 258.871 187.684 258.691C187.277 258.52 186.477 258.434 185.281 258.434Z" fill="white"/>
<path d="M116 209C171.228 209 216 164.228 216 109C216 53.7715 171.228 9 116 9C60.7715 9 16 53.7715 16 109C16 164.228 60.7715 209 116 209Z" stroke="white" stroke-width="10" stroke-miterlimit="10"/>
<path d="M116.059 75.0477L133.405 105.153L126.573 101.617C126.041 101.333 125.367 101.554 125.085 102.09L122.562 107.016C122.28 107.553 122.499 108.231 123.032 108.516L148.244 121.603C148.965 121.982 149.827 121.461 149.842 120.656L150.673 90.645C150.689 90.0293 150.218 89.5242 149.607 89.5084L144.107 89.3505C143.496 89.3347 142.995 89.8083 142.979 90.424L142.728 99.2962L116.937 54.5565C116.514 53.8145 115.448 53.8145 115.025 54.5565L101.408 78.4419C101.205 78.805 101.22 79.2628 101.44 79.6101L106.877 87.8823C107.331 88.577 108.334 88.5454 108.742 87.8192L116.012 75.0477H116.059ZM142.462 109.842L142.274 109.747H142.462V109.842Z" fill="white"/>
<path d="M90.6123 118.098L90.9884 125.565C91.0197 126.181 91.5368 126.655 92.1479 126.623L97.6479 126.339C98.259 126.307 98.729 125.786 98.6977 125.171L97.2404 96.644C97.1934 95.8231 96.3316 95.3337 95.6108 95.7284L69.4431 110.094C68.9103 110.394 68.7066 111.057 69.0043 111.594L71.6368 116.456C71.9345 116.993 72.5926 117.198 73.1254 116.898L81.101 112.526L59.1483 151.029C58.7253 151.771 59.258 152.687 60.1042 152.687H84.846C85.2534 152.687 85.6138 152.466 85.8018 152.119L90.675 143.247C91.0824 142.505 90.5496 141.605 89.7192 141.605H77.1994L90.5967 118.098H90.6123Z" fill="white"/>
<path d="M172.641 150.714L161.798 131.912C161.61 131.58 161.25 131.359 160.858 131.359L150.579 131.185C149.717 131.185 149.184 132.101 149.607 132.843L154.465 141.273H124.098L130.162 136.995C130.663 136.648 130.788 135.953 130.428 135.448L127.279 130.901C126.934 130.396 126.244 130.27 125.743 130.633L102.505 147.004C101.847 147.477 101.894 148.472 102.599 148.882L128.579 163.596C129.112 163.896 129.786 163.706 130.083 163.169L132.779 158.339C133.076 157.802 132.888 157.123 132.355 156.823L124.427 152.34H171.654C172.5 152.34 173.033 151.408 172.61 150.682L172.641 150.714Z" fill="white"/>
</svg>
