<svg width="49" height="61" viewBox="0 0 49 61" fill="none" xmlns="http://www.w3.org/2000/svg">
<g clip-path="url(#clip0_1243_3316)">
<path d="M5.9479 59.3176L6.05898 59.2002C5.91722 58.9928 5.81142 58.7601 5.7416 58.502C5.67177 58.2438 5.63686 57.9635 5.63686 57.6609C5.63686 57.3033 5.68764 56.9753 5.78921 56.677C5.89288 56.3787 6.04205 56.1248 6.23672 55.9153C6.43138 55.7058 6.66836 55.5461 6.94765 55.436C7.22695 55.3239 7.54433 55.2678 7.8998 55.2678C8.20449 55.2678 8.47638 55.3038 8.71548 55.3757C8.95457 55.4456 9.17251 55.5566 9.36928 55.709L9.4518 55.6201C9.5851 55.4805 9.68667 55.3863 9.75649 55.3376C9.82843 55.2869 9.90037 55.2615 9.97231 55.2615C10.04 55.2615 10.095 55.2837 10.1374 55.3281C10.1797 55.3726 10.2008 55.4329 10.2008 55.509C10.2008 55.636 10.1035 55.8 9.90883 56.001L9.77871 56.1375C10.0559 56.5458 10.1945 57.0557 10.1945 57.6672C10.1945 58.0269 10.1458 58.3538 10.0485 58.6479C9.95115 58.9421 9.80516 59.197 9.61049 59.4128C9.41583 59.6287 9.17674 59.7937 8.89321 59.908C8.60968 60.0222 8.28489 60.0793 7.91884 60.0793C7.31793 60.0793 6.83234 59.9312 6.46206 59.635L6.39223 59.7207C6.34145 59.7757 6.2875 59.8328 6.23037 59.8921C6.17535 59.9492 6.11928 59.9947 6.06215 60.0286C6.00714 60.0624 5.94367 60.0793 5.87173 60.0793C5.80402 60.0793 5.74795 60.055 5.70351 60.0063C5.65908 59.9577 5.63686 59.9037 5.63686 59.8445C5.63686 59.7598 5.66119 59.6784 5.70986 59.6001C5.76064 59.5218 5.83999 59.4277 5.9479 59.3176ZM6.72866 58.4988L8.76943 56.3342C8.66998 56.2369 8.54303 56.1597 8.38857 56.1025C8.23623 56.0454 8.07754 56.0168 7.9125 56.0168C7.64801 56.0168 7.41526 56.0814 7.21425 56.2104C7.01536 56.3374 6.86196 56.5257 6.75405 56.7754C6.64614 57.0229 6.59218 57.3181 6.59218 57.6609C6.59218 57.974 6.63768 58.2533 6.72866 58.4988ZM9.10268 56.8547L7.06826 59.0066C7.30312 59.2224 7.58453 59.3303 7.9125 59.3303C8.15371 59.3303 8.37482 59.27 8.57583 59.1494C8.77895 59.0288 8.93976 58.8426 9.05825 58.5908C9.17885 58.339 9.23916 58.0291 9.23916 57.6609C9.23916 57.3668 9.19367 57.0981 9.10268 56.8547ZM11.9496 55.8391V57.4705L13.7999 55.5408C13.8888 55.4477 13.9639 55.3789 14.0253 55.3345C14.0888 55.29 14.1723 55.2678 14.276 55.2678C14.4114 55.2678 14.5204 55.308 14.6029 55.3884C14.6876 55.4667 14.7299 55.563 14.7299 55.6772C14.7299 55.8148 14.659 55.9513 14.5172 56.0867L13.3715 57.1721L14.6918 59.0637C14.7849 59.1949 14.8547 59.3102 14.9013 59.4097C14.9478 59.507 14.9711 59.6022 14.9711 59.6953C14.9711 59.799 14.9298 59.8889 14.8473 59.9651C14.7669 60.0413 14.6569 60.0793 14.5172 60.0793C14.386 60.0793 14.2792 60.0518 14.1967 59.9968C14.1142 59.9397 14.0443 59.8646 13.9872 59.7715C13.9301 59.6784 13.8793 59.5938 13.8349 59.5176L12.7208 57.8037L11.9496 58.5432V59.5049C11.9496 59.6995 11.9052 59.8445 11.8163 59.9397C11.7274 60.0328 11.6132 60.0793 11.4735 60.0793C11.3931 60.0793 11.3159 60.0582 11.2418 60.0159C11.1678 59.9736 11.1107 59.9164 11.0705 59.8445C11.0408 59.7852 11.0228 59.7165 11.0165 59.6382C11.0102 59.5599 11.007 59.4467 11.007 59.2986V55.8391C11.007 55.6487 11.0482 55.5059 11.1308 55.4106C11.2154 55.3154 11.3297 55.2678 11.4735 55.2678C11.6153 55.2678 11.7296 55.3154 11.8163 55.4106C11.9052 55.5037 11.9496 55.6466 11.9496 55.8391ZM17.6117 55.2678C18.0941 55.2678 18.5078 55.3662 18.8527 55.563C19.1997 55.7576 19.4621 56.0359 19.6398 56.3977C19.8175 56.7574 19.9064 57.1806 19.9064 57.6672C19.9064 58.0269 19.8577 58.3538 19.7604 58.6479C19.6631 58.9421 19.5171 59.197 19.3224 59.4128C19.1277 59.6287 18.8887 59.7937 18.6051 59.908C18.3216 60.0222 17.9968 60.0793 17.6308 60.0793C17.2668 60.0793 16.941 60.0212 16.6532 59.9048C16.3655 59.7863 16.1253 59.6202 15.9328 59.4065C15.7402 59.1928 15.5942 58.9357 15.4948 58.6353C15.3974 58.3348 15.3488 58.01 15.3488 57.6609C15.3488 57.3033 15.3996 56.9753 15.5011 56.677C15.6048 56.3787 15.754 56.1248 15.9486 55.9153C16.1433 55.7058 16.3803 55.5461 16.6596 55.436C16.9389 55.3239 17.2562 55.2678 17.6117 55.2678ZM18.9511 57.6609C18.9511 57.3202 18.8961 57.0251 18.786 56.7754C18.676 56.5257 18.5184 56.3374 18.3131 56.2104C18.11 56.0814 17.8762 56.0168 17.6117 56.0168C17.4234 56.0168 17.2488 56.0528 17.088 56.1248C16.9293 56.1946 16.7918 56.2972 16.6754 56.4326C16.5612 56.568 16.4702 56.7415 16.4025 56.9531C16.3369 57.1626 16.3041 57.3985 16.3041 57.6609C16.3041 57.9254 16.3369 58.1645 16.4025 58.3782C16.4702 58.5919 16.5644 58.7696 16.685 58.9114C16.8077 59.051 16.9473 59.1558 17.1039 59.2256C17.2626 59.2954 17.4361 59.3303 17.6244 59.3303C17.8656 59.3303 18.0867 59.27 18.2877 59.1494C18.4909 59.0288 18.6517 58.8426 18.7702 58.5908C18.8908 58.339 18.9511 58.0291 18.9511 57.6609ZM23.2865 55.8391V57.4705L25.1369 55.5408C25.2257 55.4477 25.3008 55.3789 25.3622 55.3345C25.4257 55.29 25.5093 55.2678 25.6129 55.2678C25.7484 55.2678 25.8573 55.308 25.9398 55.3884C26.0245 55.4667 26.0668 55.563 26.0668 55.6772C26.0668 55.8148 25.9959 55.9513 25.8541 56.0867L24.7084 57.1721L26.0287 59.0637C26.1218 59.1949 26.1916 59.3102 26.2382 59.4097C26.2847 59.507 26.308 59.6022 26.308 59.6953C26.308 59.799 26.2667 59.8889 26.1842 59.9651C26.1038 60.0413 25.9938 60.0793 25.8541 60.0793C25.723 60.0793 25.6161 60.0518 25.5336 59.9968C25.4511 59.9397 25.3812 59.8646 25.3241 59.7715C25.267 59.6784 25.2162 59.5938 25.1718 59.5176L24.0578 57.8037L23.2865 58.5432V59.5049C23.2865 59.6995 23.2421 59.8445 23.1532 59.9397C23.0644 60.0328 22.9501 60.0793 22.8104 60.0793C22.73 60.0793 22.6528 60.0582 22.5788 60.0159C22.5047 59.9736 22.4476 59.9164 22.4074 59.8445C22.3777 59.7852 22.3598 59.7165 22.3534 59.6382C22.3471 59.5599 22.3439 59.4467 22.3439 59.2986V55.8391C22.3439 55.6487 22.3852 55.5059 22.4677 55.4106C22.5523 55.3154 22.6666 55.2678 22.8104 55.2678C22.9522 55.2678 23.0665 55.3154 23.1532 55.4106C23.2421 55.5037 23.2865 55.6466 23.2865 55.8391ZM30.1261 59.4731L29.904 58.8892H28.0124L27.7902 59.4858C27.7034 59.7186 27.6294 59.8762 27.568 59.9587C27.5067 60.0391 27.4061 60.0793 27.2665 60.0793C27.148 60.0793 27.0433 60.036 26.9523 59.9492C26.8613 59.8625 26.8158 59.7641 26.8158 59.6541C26.8158 59.5906 26.8264 59.525 26.8476 59.4573C26.8687 59.3896 26.9036 59.2954 26.9523 59.1748L28.1425 56.1533C28.1763 56.0666 28.2165 55.9629 28.2631 55.8423C28.3117 55.7196 28.3625 55.618 28.4154 55.5376C28.4704 55.4572 28.5413 55.3927 28.6281 55.344C28.7169 55.2932 28.8259 55.2678 28.955 55.2678C29.0862 55.2678 29.1951 55.2932 29.2819 55.344C29.3707 55.3927 29.4416 55.4561 29.4945 55.5344C29.5495 55.6127 29.595 55.6973 29.631 55.7883C29.6691 55.8772 29.7167 55.9967 29.7738 56.147L30.9894 59.1494C31.0846 59.3779 31.1322 59.544 31.1322 59.6477C31.1322 59.7556 31.0867 59.8551 30.9957 59.946C30.9069 60.0349 30.799 60.0793 30.672 60.0793C30.598 60.0793 30.5345 60.0656 30.4816 60.0381C30.4287 60.0127 30.3843 59.9778 30.3483 59.9333C30.3123 59.8868 30.2732 59.817 30.2309 59.7239C30.1907 59.6287 30.1557 59.5451 30.1261 59.4731ZM28.2599 58.1814H29.65L28.9486 56.2612L28.2599 58.1814ZM34.6076 56.074H32.7509V57.2642H34.3029C34.4468 57.2642 34.5536 57.297 34.6234 57.3625C34.6954 57.426 34.7313 57.5117 34.7313 57.6196C34.7313 57.7275 34.6954 57.8132 34.6234 57.8767C34.5515 57.9402 34.4446 57.9719 34.3029 57.9719H32.7509V59.5049C32.7509 59.6995 32.7064 59.8445 32.6176 59.9397C32.5308 60.0328 32.4187 60.0793 32.2811 60.0793C32.1415 60.0793 32.0272 60.0317 31.9384 59.9365C31.8516 59.8413 31.8082 59.6974 31.8082 59.5049V55.9248C31.8082 55.7894 31.8283 55.6794 31.8686 55.5947C31.9088 55.508 31.9712 55.4456 32.0558 55.4075C32.1426 55.3673 32.2526 55.3472 32.3859 55.3472H34.6076C34.7578 55.3472 34.8689 55.381 34.9408 55.4487C35.0149 55.5143 35.0519 55.6011 35.0519 55.709C35.0519 55.819 35.0149 55.9079 34.9408 55.9756C34.8689 56.0412 34.7578 56.074 34.6076 56.074ZM38.5368 56.074H36.6801V57.2642H38.2321C38.376 57.2642 38.4828 57.297 38.5526 57.3625C38.6246 57.426 38.6605 57.5117 38.6605 57.6196C38.6605 57.7275 38.6246 57.8132 38.5526 57.8767C38.4807 57.9402 38.3738 57.9719 38.2321 57.9719H36.6801V59.5049C36.6801 59.6995 36.6356 59.8445 36.5468 59.9397C36.46 60.0328 36.3479 60.0793 36.2104 60.0793C36.0707 60.0793 35.9564 60.0317 35.8676 59.9365C35.7808 59.8413 35.7374 59.6974 35.7374 59.5049V55.9248C35.7374 55.7894 35.7576 55.6794 35.7978 55.5947C35.838 55.508 35.9004 55.4456 35.985 55.4075C36.0718 55.3673 36.1818 55.3472 36.3151 55.3472H38.5368C38.687 55.3472 38.7981 55.381 38.87 55.4487C38.9441 55.5143 38.9811 55.6011 38.9811 55.709C38.9811 55.819 38.9441 55.9079 38.87 55.9756C38.7981 56.0412 38.687 56.074 38.5368 56.074ZM42.7516 56.074H40.6283V57.2166H42.5834C42.7273 57.2166 42.8341 57.2493 42.904 57.3149C42.9759 57.3784 43.0119 57.4631 43.0119 57.5688C43.0119 57.6746 42.977 57.7614 42.9071 57.8291C42.8373 57.8947 42.7294 57.9275 42.5834 57.9275H40.6283V59.251H42.8246C42.9727 59.251 43.0838 59.2859 43.1579 59.3557C43.234 59.4234 43.2721 59.5144 43.2721 59.6287C43.2721 59.7387 43.234 59.8286 43.1579 59.8984C43.0838 59.9661 42.9727 60 42.8246 60H40.2633C40.0581 60 39.91 59.9545 39.819 59.8635C39.7301 59.7725 39.6857 59.6255 39.6857 59.4224V55.9248C39.6857 55.7894 39.7058 55.6794 39.746 55.5947C39.7862 55.508 39.8486 55.4456 39.9333 55.4075C40.02 55.3673 40.13 55.3472 40.2633 55.3472H42.7516C42.9018 55.3472 43.0129 55.381 43.0849 55.4487C43.1589 55.5143 43.1959 55.6011 43.1959 55.709C43.1959 55.819 43.1589 55.9079 43.0849 55.9756C43.0129 56.0412 42.9018 56.074 42.7516 56.074Z" fill="white"/>
<path d="M24.429 47.2295C36.8554 47.2295 46.929 37.1559 46.929 24.7295C46.929 12.3031 36.8554 2.22949 24.429 2.22949C12.0026 2.22949 1.92903 12.3031 1.92903 24.7295C1.92903 37.1559 12.0026 47.2295 24.429 47.2295Z" stroke="white" stroke-width="2.23096" stroke-miterlimit="10"/>
<path d="M27.6662 28.9053C27.6275 28.555 27.3639 27.5389 26.5906 27.0764C26.0915 26.7786 25.4799 26.719 24.8648 26.9117C24.6925 26.9643 24.5203 27.0379 24.3586 27.122V26.8312C24.3586 26.4142 24.0247 26.0919 23.6029 26.0849C23.1424 26.0779 22.7523 26.0709 22.3938 26.0709C22.0458 26.0709 21.7821 26.0709 21.4166 26.0674L20.6784 26.0534C19.4834 26.0569 18.4043 26.0358 17.2162 26.0498C16.6397 26.0569 15.7786 26.0639 14.9315 26.0428C14.7241 26.0323 14.5202 26.1199 14.3761 26.2636C14.2285 26.4072 14.1441 26.6104 14.1441 26.8136V33.7404C14.1441 34.8055 15.0123 35.6709 16.0809 35.6709H22.4254C23.4939 35.6709 24.3621 34.8055 24.3621 33.7404V32.9345C24.4781 32.8715 24.5906 32.8084 24.7031 32.7383C24.7628 32.6998 24.8437 32.6612 24.9351 32.6157C25.3744 32.3915 26.1126 32.0131 26.7066 31.2528C27.255 30.5485 27.7717 29.8828 27.6662 28.9123V28.9053ZM23.0721 33.7369C23.0721 34.0907 22.7839 34.3815 22.4254 34.3815H16.0809C15.7259 34.3815 15.4341 34.0942 15.4341 33.7369V27.3357C16.116 27.3427 16.7698 27.3392 17.2338 27.3357C18.3972 27.3217 19.2971 27.3427 20.5132 27.3462L21.3744 27.3287C21.754 27.3392 22.0141 27.3357 22.3727 27.3322C22.58 27.3322 22.8296 27.3322 23.0651 27.3322V33.7404L23.0721 33.7369ZM25.8384 30.4785C25.4272 31.0075 24.7523 31.2598 24.3621 31.4595V28.6811C24.5309 28.5234 24.8718 28.2607 25.2549 28.1415C25.4026 28.096 25.6873 28.0399 25.9263 28.1836C26.1969 28.3447 26.3622 28.8633 26.3832 29.0455C26.4289 29.4834 26.327 29.8513 25.8384 30.482V30.4785Z" fill="white"/>
<path d="M23.863 33.04L23.7365 33.2538C23.7505 33.9615 23.8138 35.0091 22.2497 35.0091L16.9877 35.0406C15.2127 35.1142 14.7698 34.7008 14.7698 33.3063L14.5589 33.1101C11.9613 33.499 9.96132 34.2733 9.96132 35.0511C9.96132 36.2599 14.123 37.2374 19.2549 37.2374C24.3868 37.2374 28.5485 36.2599 28.5485 35.0511C28.5485 34.2558 26.5695 33.4219 23.863 33.04Z" stroke="white" stroke-width="1.11548" stroke-miterlimit="10"/>
<path d="M17.1881 23.8426C17.2022 23.6885 17.2514 23.5378 17.3041 23.3907C17.4658 22.9527 17.6872 22.5323 17.8173 22.0838C17.9473 21.6353 17.9825 21.1343 17.7821 20.7104C17.5818 20.2864 17.0897 19.9816 16.6363 20.1007C17.0194 20.3495 17.2022 20.833 17.1881 21.2885C17.174 21.7439 16.9842 22.1784 16.7522 22.5673C16.4886 23.0088 16.1547 23.4572 16.1793 23.9688C16.2039 24.4207 16.7487 25.2791 17.276 25.2686C17.6134 25.2616 17.5853 25.0023 17.4904 24.7886C17.3428 24.4628 17.153 24.221 17.1881 23.8391V23.8426Z" fill="white"/>
<path d="M19.392 22.4549C19.406 22.3008 19.4552 22.1501 19.508 22.003C19.6697 21.565 19.8911 21.1446 20.0212 20.6961C20.1512 20.2476 20.1864 19.7466 19.986 19.3227C19.7857 18.8987 19.2936 18.5939 18.8401 18.713C19.2233 18.9618 19.406 19.4453 19.392 19.9008C19.3779 20.3562 19.1881 20.7907 18.9561 21.1796C18.6925 21.6211 18.3586 22.0695 18.3832 22.5811C18.4078 23.033 18.9526 23.8914 19.4799 23.8809C19.8173 23.8739 19.7892 23.6146 19.6943 23.4009C19.5466 23.0751 19.3568 22.8333 19.392 22.4514V22.4549Z" fill="white"/>
<path d="M21.5993 23.8426C21.6134 23.6885 21.6626 23.5378 21.7153 23.3907C21.877 22.9527 22.0984 22.5323 22.2285 22.0838C22.3585 21.6353 22.3937 21.1343 22.1933 20.7104C21.993 20.2864 21.5009 19.9816 21.0475 20.1007C21.4306 20.3495 21.6134 20.833 21.5993 21.2885C21.5853 21.7439 21.3954 22.1784 21.1635 22.5673C20.8998 23.0088 20.5659 23.4572 20.5905 23.9688C20.6151 24.4207 21.1599 25.2791 21.6872 25.2686C22.0246 25.2616 21.9965 25.0023 21.9016 24.7886C21.754 24.4628 21.5642 24.221 21.5993 23.8391V23.8426Z" fill="white"/>
<path d="M27.9405 18.5381C28.1163 16.7197 29.8456 15.1255 31.6664 14.9048C32.3131 14.8277 33.0934 14.9293 33.6348 15.1395L33.6418 15.1325L34.6892 13.7871C34.8158 13.6084 34.6928 13.3562 34.4713 13.3457C33.2481 13.2791 32.3377 13.237 31.4133 13.3036C28.8087 13.4963 26.5802 15.3813 26.1549 17.9495C25.937 19.2668 26.3096 20.5772 26.8544 21.6423L25.4062 24.214C25.3148 24.3997 25.4484 24.6204 25.6593 24.6204H27.6101C27.712 24.6204 27.8069 24.5644 27.8561 24.4733L29.2446 21.9086L29.2094 21.8771C28.3271 21.0572 27.8104 19.8554 27.937 18.5381H27.9405Z" fill="white"/>
<path d="M38.7208 13.3706H36.8403C36.7489 13.3706 36.6646 13.4126 36.6118 13.4862L35.7507 14.6845L34.8227 16.0824C35.6628 16.9163 36.1373 18.1181 35.9827 19.4214C35.7753 21.1873 34.4677 22.5747 32.7137 22.897C31.9826 23.0302 31.1074 22.8515 30.4606 22.6728L29.5397 24.2004C29.4308 24.3861 29.5678 24.6208 29.7823 24.6208C30.6997 24.6278 31.3851 24.6489 32.0318 24.6454C35.002 24.6243 37.6909 22.2103 37.8491 19.2532C37.9018 18.2652 37.6452 17.2211 37.2621 16.3873L38.9634 13.7981C39.0758 13.6124 38.9423 13.3706 38.7243 13.3706H38.7208Z" fill="white"/>
<path d="M34.0776 20.5698H29.9335V20.9552H34.0776V20.5698Z" fill="white"/>
<path d="M34.8439 18.4257C34.5978 17.8967 33.937 17.8161 33.807 17.8056C33.7999 17.8056 33.7929 17.8056 33.7859 17.8056C33.7015 17.6689 33.5644 17.5148 33.3535 17.4131C33.0794 17.28 32.7525 17.2765 32.4361 17.4096C32.2358 17.4937 32.0917 17.6164 31.9897 17.7355C31.8878 17.6164 31.7437 17.4937 31.5433 17.4096C31.227 17.28 30.9001 17.28 30.6259 17.4131C30.4115 17.5183 30.2744 17.6724 30.1901 17.8126C30.176 17.8126 30.1619 17.8126 30.1444 17.8091C29.8069 17.795 29.4695 17.9317 29.2445 18.1804C29.0582 18.3837 29.0442 18.706 29.0547 18.9898C29.0582 19.1264 29.1707 19.3542 29.227 19.4313C29.3465 19.5924 29.4379 19.6905 29.5257 19.7851C29.6241 19.8902 29.7155 19.9883 29.8456 20.1705L29.9053 20.2511H30.0038C30.2709 20.2511 30.5345 20.2511 30.7911 20.2511C31.0442 20.2511 31.2938 20.2511 31.5433 20.2511C32.3482 20.2511 33.1391 20.2511 33.9827 20.2336H34.0741L34.7771 19.3612C34.8263 19.3016 34.8615 19.2315 34.8825 19.158C34.9353 18.9758 34.9704 18.699 34.8474 18.4292L34.8439 18.4257ZM33.5679 18.4502C33.4098 18.6499 33.2024 18.9127 32.9985 19.172C32.8017 19.4207 32.6084 19.666 32.4537 19.8622C32.3623 19.8622 32.2744 19.8622 32.183 19.8622V18.7656C32.5873 18.7025 32.8579 18.5448 33.0794 18.4152C33.2481 18.3171 33.3817 18.2365 33.5433 18.2085C33.5644 18.2856 33.575 18.3696 33.5679 18.4537V18.4502ZM31.5293 19.8622C31.3746 19.666 31.1778 19.4172 30.9844 19.172C30.7771 18.9127 30.5732 18.6499 30.415 18.4502C30.4115 18.3942 30.415 18.3381 30.422 18.2856C30.4467 18.2996 30.4677 18.3171 30.4959 18.3346C30.6154 18.4152 30.763 18.5203 31.0407 18.6079C31.2692 18.6815 31.5644 18.7515 31.7999 18.7796V19.8657C31.712 19.8657 31.6207 19.8657 31.5293 19.8657V19.8622ZM32.5873 17.7635C32.8017 17.6759 33.0126 17.6724 33.1883 17.76C33.2446 17.788 33.2938 17.8231 33.336 17.8581C33.1672 17.9107 33.0231 17.9948 32.886 18.0788C32.6892 18.1945 32.4853 18.3136 32.1866 18.3696V18.1209C32.2428 18.0228 32.3693 17.8546 32.5873 17.7635ZM30.7946 17.76C30.9704 17.6724 31.1813 17.6759 31.3957 17.7635C31.6171 17.8546 31.7402 18.0228 31.7964 18.1209V18.3837C31.6277 18.3626 31.3922 18.3101 31.1532 18.233C30.9317 18.1629 30.8192 18.0858 30.7103 18.0088C30.6681 17.9807 30.6259 17.9492 30.5767 17.9247C30.6294 17.8616 30.6997 17.8021 30.7911 17.7565L30.7946 17.76ZM30.1022 19.8622C29.9862 19.7115 29.8983 19.6134 29.8104 19.5223C29.7261 19.4313 29.6452 19.3437 29.5363 19.2C29.5082 19.1615 29.4449 19.0213 29.4414 18.9758C29.4379 18.8707 29.4273 18.5553 29.5328 18.4362C29.6804 18.275 29.8807 18.2085 30.0424 18.1945C30.0213 18.3101 30.0178 18.4327 30.0354 18.5518L30.0424 18.6044L30.0741 18.6464C30.2358 18.8531 30.4572 19.1334 30.6786 19.4137C30.8017 19.5679 30.9247 19.7256 31.0372 19.8657C30.9563 19.8657 30.8755 19.8657 30.7946 19.8657C30.5662 19.8657 30.3377 19.8657 30.1022 19.8657V19.8622ZM34.51 19.0494C34.5029 19.0739 34.4924 19.0949 34.4748 19.1159L33.8843 19.8482C33.5679 19.8552 33.2551 19.8587 32.9493 19.8587C33.0618 19.7186 33.1813 19.5644 33.3043 19.4102C33.5258 19.1299 33.7472 18.8496 33.9089 18.6429L33.9405 18.6009L33.9476 18.5483C33.9651 18.4362 33.9616 18.3241 33.944 18.2155C34.1198 18.2575 34.3869 18.3556 34.4959 18.5834C34.5697 18.7445 34.5451 18.9232 34.51 19.0423V19.0494Z" fill="white"/>
<path d="M31.9898 17.2905C32.2053 17.2905 32.38 17.1164 32.38 16.9016C32.38 16.6868 32.2053 16.5127 31.9898 16.5127C31.7744 16.5127 31.5997 16.6868 31.5997 16.9016C31.5997 17.1164 31.7744 17.2905 31.9898 17.2905Z" fill="white"/>
</g>
<defs>
<clipPath id="clip0_1243_3316">
<rect width="48.8581" height="60.4591" fill="white"/>
</clipPath>
</defs>
</svg>
