<svg width="219" height="276" viewBox="0 0 219 276" fill="none" xmlns="http://www.w3.org/2000/svg">
<path d="M45.7617 268.48L46.1719 268.047C45.6484 267.281 45.2578 266.422 45 265.469C44.7422 264.516 44.6133 263.48 44.6133 262.363C44.6133 261.043 44.8008 259.832 45.1758 258.73C45.5586 257.629 46.1094 256.691 46.8281 255.918C47.5469 255.145 48.4219 254.555 49.4531 254.148C50.4844 253.734 51.6562 253.527 52.9688 253.527C54.0938 253.527 55.0977 253.66 55.9805 253.926C56.8633 254.184 57.668 254.594 58.3945 255.156L58.6992 254.828C59.1914 254.312 59.5664 253.965 59.8242 253.785C60.0898 253.598 60.3555 253.504 60.6211 253.504C60.8711 253.504 61.0742 253.586 61.2305 253.75C61.3867 253.914 61.4648 254.137 61.4648 254.418C61.4648 254.887 61.1055 255.492 60.3867 256.234L59.9062 256.738C60.9297 258.246 61.4414 260.129 61.4414 262.387C61.4414 263.715 61.2617 264.922 60.9023 266.008C60.543 267.094 60.0039 268.035 59.2852 268.832C58.5664 269.629 57.6836 270.238 56.6367 270.66C55.5898 271.082 54.3906 271.293 53.0391 271.293C50.8203 271.293 49.0273 270.746 47.6602 269.652L47.4023 269.969C47.2148 270.172 47.0156 270.383 46.8047 270.602C46.6016 270.812 46.3945 270.98 46.1836 271.105C45.9805 271.23 45.7461 271.293 45.4805 271.293C45.2305 271.293 45.0234 271.203 44.8594 271.023C44.6953 270.844 44.6133 270.645 44.6133 270.426C44.6133 270.113 44.7031 269.812 44.8828 269.523C45.0703 269.234 45.3633 268.887 45.7617 268.48ZM48.6445 265.457L56.1797 257.465C55.8125 257.105 55.3438 256.82 54.7734 256.609C54.2109 256.398 53.625 256.293 53.0156 256.293C52.0391 256.293 51.1797 256.531 50.4375 257.008C49.7031 257.477 49.1367 258.172 48.7383 259.094C48.3398 260.008 48.1406 261.098 48.1406 262.363C48.1406 263.52 48.3086 264.551 48.6445 265.457ZM57.4102 259.387L49.8984 267.332C50.7656 268.129 51.8047 268.527 53.0156 268.527C53.9062 268.527 54.7227 268.305 55.4648 267.859C56.2148 267.414 56.8086 266.727 57.2461 265.797C57.6914 264.867 57.9141 263.723 57.9141 262.363C57.9141 261.277 57.7461 260.285 57.4102 259.387ZM67.9219 255.637V261.66L74.7539 254.535C75.082 254.191 75.3594 253.938 75.5859 253.773C75.8203 253.609 76.1289 253.527 76.5117 253.527C77.0117 253.527 77.4141 253.676 77.7188 253.973C78.0312 254.262 78.1875 254.617 78.1875 255.039C78.1875 255.547 77.9258 256.051 77.4023 256.551L73.1719 260.559L78.0469 267.543C78.3906 268.027 78.6484 268.453 78.8203 268.82C78.9922 269.18 79.0781 269.531 79.0781 269.875C79.0781 270.258 78.9258 270.59 78.6211 270.871C78.3242 271.152 77.918 271.293 77.4023 271.293C76.918 271.293 76.5234 271.191 76.2188 270.988C75.9141 270.777 75.6562 270.5 75.4453 270.156C75.2344 269.812 75.0469 269.5 74.8828 269.219L70.7695 262.891L67.9219 265.621V269.172C67.9219 269.891 67.7578 270.426 67.4297 270.777C67.1016 271.121 66.6797 271.293 66.1641 271.293C65.8672 271.293 65.582 271.215 65.3086 271.059C65.0352 270.902 64.8242 270.691 64.6758 270.426C64.5664 270.207 64.5 269.953 64.4766 269.664C64.4531 269.375 64.4414 268.957 64.4414 268.41V255.637C64.4414 254.934 64.5938 254.406 64.8984 254.055C65.2109 253.703 65.6328 253.527 66.1641 253.527C66.6875 253.527 67.1094 253.703 67.4297 254.055C67.7578 254.398 67.9219 254.926 67.9219 255.637ZM88.8281 253.527C90.6094 253.527 92.1367 253.891 93.4102 254.617C94.6914 255.336 95.6602 256.363 96.3164 257.699C96.9727 259.027 97.3008 260.59 97.3008 262.387C97.3008 263.715 97.1211 264.922 96.7617 266.008C96.4023 267.094 95.8633 268.035 95.1445 268.832C94.4258 269.629 93.543 270.238 92.4961 270.66C91.4492 271.082 90.25 271.293 88.8984 271.293C87.5547 271.293 86.3516 271.078 85.2891 270.648C84.2266 270.211 83.3398 269.598 82.6289 268.809C81.918 268.02 81.3789 267.07 81.0117 265.961C80.6523 264.852 80.4727 263.652 80.4727 262.363C80.4727 261.043 80.6602 259.832 81.0352 258.73C81.418 257.629 81.9688 256.691 82.6875 255.918C83.4062 255.145 84.2812 254.555 85.3125 254.148C86.3438 253.734 87.5156 253.527 88.8281 253.527ZM93.7734 262.363C93.7734 261.105 93.5703 260.016 93.1641 259.094C92.7578 258.172 92.1758 257.477 91.418 257.008C90.668 256.531 89.8047 256.293 88.8281 256.293C88.1328 256.293 87.4883 256.426 86.8945 256.691C86.3086 256.949 85.8008 257.328 85.3711 257.828C84.9492 258.328 84.6133 258.969 84.3633 259.75C84.1211 260.523 84 261.395 84 262.363C84 263.34 84.1211 264.223 84.3633 265.012C84.6133 265.801 84.9609 266.457 85.4062 266.98C85.8594 267.496 86.375 267.883 86.9531 268.141C87.5391 268.398 88.1797 268.527 88.875 268.527C89.7656 268.527 90.582 268.305 91.3242 267.859C92.0742 267.414 92.668 266.727 93.1055 265.797C93.5508 264.867 93.7734 263.723 93.7734 262.363ZM109.781 255.637V261.66L116.613 254.535C116.941 254.191 117.219 253.938 117.445 253.773C117.68 253.609 117.988 253.527 118.371 253.527C118.871 253.527 119.273 253.676 119.578 253.973C119.891 254.262 120.047 254.617 120.047 255.039C120.047 255.547 119.785 256.051 119.262 256.551L115.031 260.559L119.906 267.543C120.25 268.027 120.508 268.453 120.68 268.82C120.852 269.18 120.938 269.531 120.938 269.875C120.938 270.258 120.785 270.59 120.48 270.871C120.184 271.152 119.777 271.293 119.262 271.293C118.777 271.293 118.383 271.191 118.078 270.988C117.773 270.777 117.516 270.5 117.305 270.156C117.094 269.812 116.906 269.5 116.742 269.219L112.629 262.891L109.781 265.621V269.172C109.781 269.891 109.617 270.426 109.289 270.777C108.961 271.121 108.539 271.293 108.023 271.293C107.727 271.293 107.441 271.215 107.168 271.059C106.895 270.902 106.684 270.691 106.535 270.426C106.426 270.207 106.359 269.953 106.336 269.664C106.312 269.375 106.301 268.957 106.301 268.41V255.637C106.301 254.934 106.453 254.406 106.758 254.055C107.07 253.703 107.492 253.527 108.023 253.527C108.547 253.527 108.969 253.703 109.289 254.055C109.617 254.398 109.781 254.926 109.781 255.637ZM135.035 269.055L134.215 266.898H127.23L126.41 269.102C126.09 269.961 125.816 270.543 125.59 270.848C125.363 271.145 124.992 271.293 124.477 271.293C124.039 271.293 123.652 271.133 123.316 270.812C122.98 270.492 122.812 270.129 122.812 269.723C122.812 269.488 122.852 269.246 122.93 268.996C123.008 268.746 123.137 268.398 123.316 267.953L127.711 256.797C127.836 256.477 127.984 256.094 128.156 255.648C128.336 255.195 128.523 254.82 128.719 254.523C128.922 254.227 129.184 253.988 129.504 253.809C129.832 253.621 130.234 253.527 130.711 253.527C131.195 253.527 131.598 253.621 131.918 253.809C132.246 253.988 132.508 254.223 132.703 254.512C132.906 254.801 133.074 255.113 133.207 255.449C133.348 255.777 133.523 256.219 133.734 256.773L138.223 267.859C138.574 268.703 138.75 269.316 138.75 269.699C138.75 270.098 138.582 270.465 138.246 270.801C137.918 271.129 137.52 271.293 137.051 271.293C136.777 271.293 136.543 271.242 136.348 271.141C136.152 271.047 135.988 270.918 135.855 270.754C135.723 270.582 135.578 270.324 135.422 269.98C135.273 269.629 135.145 269.32 135.035 269.055ZM128.145 264.285H133.277L130.688 257.195L128.145 264.285ZM151.582 256.504H144.727V260.898H150.457C150.988 260.898 151.383 261.02 151.641 261.262C151.906 261.496 152.039 261.812 152.039 262.211C152.039 262.609 151.906 262.926 151.641 263.16C151.375 263.395 150.98 263.512 150.457 263.512H144.727V269.172C144.727 269.891 144.562 270.426 144.234 270.777C143.914 271.121 143.5 271.293 142.992 271.293C142.477 271.293 142.055 271.117 141.727 270.766C141.406 270.414 141.246 269.883 141.246 269.172V255.953C141.246 255.453 141.32 255.047 141.469 254.734C141.617 254.414 141.848 254.184 142.16 254.043C142.48 253.895 142.887 253.82 143.379 253.82H151.582C152.137 253.82 152.547 253.945 152.812 254.195C153.086 254.438 153.223 254.758 153.223 255.156C153.223 255.562 153.086 255.891 152.812 256.141C152.547 256.383 152.137 256.504 151.582 256.504ZM166.09 256.504H159.234V260.898H164.965C165.496 260.898 165.891 261.02 166.148 261.262C166.414 261.496 166.547 261.812 166.547 262.211C166.547 262.609 166.414 262.926 166.148 263.16C165.883 263.395 165.488 263.512 164.965 263.512H159.234V269.172C159.234 269.891 159.07 270.426 158.742 270.777C158.422 271.121 158.008 271.293 157.5 271.293C156.984 271.293 156.562 271.117 156.234 270.766C155.914 270.414 155.754 269.883 155.754 269.172V255.953C155.754 255.453 155.828 255.047 155.977 254.734C156.125 254.414 156.355 254.184 156.668 254.043C156.988 253.895 157.395 253.82 157.887 253.82H166.09C166.645 253.82 167.055 253.945 167.32 254.195C167.594 254.438 167.73 254.758 167.73 255.156C167.73 255.562 167.594 255.891 167.32 256.141C167.055 256.383 166.645 256.504 166.09 256.504ZM181.652 256.504H173.812V260.723H181.031C181.562 260.723 181.957 260.844 182.215 261.086C182.48 261.32 182.613 261.633 182.613 262.023C182.613 262.414 182.484 262.734 182.227 262.984C181.969 263.227 181.57 263.348 181.031 263.348H173.812V268.234H181.922C182.469 268.234 182.879 268.363 183.152 268.621C183.434 268.871 183.574 269.207 183.574 269.629C183.574 270.035 183.434 270.367 183.152 270.625C182.879 270.875 182.469 271 181.922 271H172.465C171.707 271 171.16 270.832 170.824 270.496C170.496 270.16 170.332 269.617 170.332 268.867V255.953C170.332 255.453 170.406 255.047 170.555 254.734C170.703 254.414 170.934 254.184 171.246 254.043C171.566 253.895 171.973 253.82 172.465 253.82H181.652C182.207 253.82 182.617 253.945 182.883 254.195C183.156 254.438 183.293 254.758 183.293 255.156C183.293 255.562 183.156 255.891 182.883 256.141C182.617 256.383 182.207 256.504 181.652 256.504Z" fill="white"/>
<path d="M110 208C165.228 208 210 163.228 210 108C210 52.7715 165.228 8 110 8C54.7715 8 10 52.7715 10 108C10 163.228 54.7715 208 110 208Z" stroke="white" stroke-width="10" stroke-miterlimit="10"/>
<path d="M124.36 124.377C124.187 122.777 123.005 118.139 119.539 116.027C117.301 114.668 114.56 114.396 111.803 115.276C111.031 115.516 110.259 115.851 109.534 116.235V114.908C109.534 113.004 108.037 111.533 106.147 111.501C104.083 111.469 102.334 111.437 100.727 111.437C99.167 111.437 97.9854 111.437 96.3468 111.421L93.0382 111.357C87.6813 111.373 82.8444 111.277 77.5191 111.341C74.9352 111.373 71.0752 111.405 67.2781 111.309C66.3485 111.261 65.4347 111.661 64.7888 112.317C64.127 112.972 63.7489 113.9 63.7489 114.828V146.449C63.7489 151.311 67.6405 155.262 72.4301 155.262H100.869C105.658 155.262 109.55 151.311 109.55 146.449V142.77C110.07 142.482 110.574 142.194 111.078 141.874C111.346 141.698 111.708 141.523 112.118 141.315C114.087 140.291 117.396 138.564 120.059 135.093C122.517 131.878 124.833 128.839 124.36 124.408V124.377ZM103.768 146.433C103.768 148.048 102.476 149.376 100.869 149.376H72.4301C70.8388 149.376 69.5311 148.064 69.5311 146.433V117.211C72.5877 117.243 75.5182 117.227 77.5979 117.211C82.8129 117.147 86.8463 117.243 92.2977 117.259L96.1578 117.179C97.8593 117.227 99.0252 117.211 100.632 117.195C101.562 117.195 102.68 117.195 103.736 117.195V146.449L103.768 146.433ZM116.167 131.558C114.324 133.973 111.299 135.125 109.55 136.036V123.353C110.306 122.633 111.834 121.434 113.552 120.89C114.213 120.682 115.49 120.426 116.561 121.082C117.774 121.817 118.515 124.185 118.609 125.016C118.814 127.016 118.357 128.695 116.167 131.574V131.558Z" fill="white"/>
<path d="M107.313 143.25L106.745 144.226C106.808 147.457 107.092 152.239 100.081 152.239L76.495 152.383C68.5386 152.719 66.5534 150.831 66.5534 144.466L65.6081 143.57C53.9648 145.345 45 148.88 45 152.431C45 157.949 63.6544 162.411 86.6573 162.411C109.66 162.411 128.315 157.949 128.315 152.431C128.315 148.8 119.444 144.993 107.313 143.25Z" stroke="white" stroke-width="5" stroke-miterlimit="10"/>
<path d="M77.393 101.265C77.4561 100.561 77.6766 99.8733 77.913 99.2015C78.6377 97.2022 79.6303 95.2829 80.2132 93.2356C80.7962 91.1883 80.9538 88.9011 80.0557 86.9658C79.1576 85.0305 76.9519 83.6389 74.9194 84.1828C76.6368 85.3184 77.4561 87.5256 77.393 89.6049C77.33 91.6841 76.4792 93.6675 75.4394 95.4428C74.2577 97.4581 72.7609 99.5054 72.8712 101.841C72.9815 103.904 75.4236 107.823 77.7869 107.775C79.2994 107.743 79.1734 106.559 78.748 105.583C78.0863 104.096 77.2355 102.992 77.393 101.249V101.265Z" fill="white"/>
<path d="M87.2717 94.9308C87.3347 94.2271 87.5553 93.5393 87.7916 92.8675C88.5164 90.8682 89.509 88.9489 90.0919 86.9016C90.6749 84.8543 90.8324 82.5671 89.9344 80.6318C89.0363 78.6965 86.8305 77.305 84.7981 77.8488C86.5154 78.9844 87.3347 81.1916 87.2717 83.2709C87.2087 85.3502 86.3579 87.3335 85.318 89.1089C84.1364 91.1242 82.6396 93.1714 82.7499 95.5066C82.8602 97.5699 85.3023 101.489 87.6656 101.441C89.1781 101.409 89.0521 100.225 88.6267 99.2493C87.9649 97.7618 87.1141 96.6582 87.2717 94.9148V94.9308Z" fill="white"/>
<path d="M97.1661 101.265C97.2291 100.561 97.4497 99.8733 97.686 99.2015C98.4108 97.2022 99.4034 95.2829 99.9863 93.2356C100.569 91.1883 100.727 88.9011 99.8288 86.9658C98.9307 85.0305 96.725 83.6389 94.6925 84.1828C96.4098 85.3184 97.2291 87.5256 97.1661 89.6049C97.1031 91.6841 96.2523 93.6675 95.2124 95.4428C94.0308 97.4581 92.534 99.5054 92.6443 101.841C92.7546 103.904 95.1967 107.823 97.56 107.775C99.0725 107.743 98.9465 106.559 98.5211 105.583C97.8593 104.096 97.0085 102.992 97.1661 101.249V101.265Z" fill="white"/>
<path d="M125.589 77.049C126.377 68.7479 134.128 61.4705 142.29 60.4628C145.188 60.1109 148.686 60.5748 151.113 61.5344L151.144 61.5025L155.839 55.3606C156.406 54.5449 155.855 53.3933 154.862 53.3453C149.379 53.0414 145.299 52.8495 141.155 53.1534C129.48 54.0331 119.491 62.6381 117.585 74.362C116.608 80.3759 118.278 86.3578 120.72 91.2201L114.229 102.96C113.82 103.808 114.418 104.815 115.364 104.815H124.108C124.565 104.815 124.99 104.559 125.211 104.144L131.434 92.4357L131.276 92.2917C127.322 88.549 125.006 83.063 125.573 77.049H125.589Z" fill="white"/>
<path d="M173.911 53.457H165.481C165.072 53.457 164.694 53.649 164.457 53.9849L160.597 59.4549L156.438 65.8367C160.203 69.6434 162.33 75.1295 161.637 81.0794C160.708 89.1406 154.847 95.4744 146.985 96.9459C143.707 97.5537 139.784 96.738 136.885 95.9223L132.757 102.896C132.269 103.744 132.884 104.815 133.845 104.815C137.957 104.847 141.029 104.943 143.928 104.927C157.241 104.831 169.294 93.811 170.003 80.3117C170.24 75.8013 169.089 71.0349 167.372 67.2282L174.998 55.4084C175.502 54.5606 174.903 53.457 173.926 53.457H173.911Z" fill="white"/>
<path d="M153.098 86.3257H134.522V88.0851H153.098V86.3257Z" fill="white"/>
<path d="M156.532 76.537C155.429 74.1218 152.467 73.754 151.885 73.706C151.853 73.706 151.822 73.706 151.79 73.706C151.412 73.0822 150.797 72.3784 149.852 71.9146C148.623 71.3068 147.158 71.2908 145.74 71.8986C144.842 72.2825 144.196 72.8423 143.739 73.3861C143.282 72.8423 142.636 72.2825 141.738 71.8986C140.32 71.3068 138.855 71.3068 137.626 71.9146C136.665 72.3944 136.05 73.0982 135.672 73.738C135.609 73.738 135.546 73.738 135.467 73.722C133.955 73.658 132.442 74.2818 131.434 75.4174C130.599 76.3451 130.536 77.8166 130.583 79.1121C130.599 79.7359 131.103 80.7755 131.355 81.1274C131.891 81.8631 132.301 82.311 132.694 82.7428C133.136 83.2227 133.545 83.6705 134.128 84.5022L134.396 84.8701H134.837C136.035 84.8701 137.216 84.8701 138.366 84.8701C139.501 84.8701 140.619 84.8701 141.738 84.8701C145.346 84.8701 148.891 84.8701 152.672 84.7901H153.082L156.233 80.8075C156.454 80.5356 156.611 80.2157 156.706 79.8798C156.942 79.0481 157.1 77.7846 156.548 76.553L156.532 76.537ZM150.813 76.649C150.104 77.5606 149.175 78.7602 148.261 79.9438C147.378 81.0794 146.512 82.199 145.819 83.0947C145.409 83.0947 145.015 83.0947 144.606 83.0947V78.0885C146.417 77.8006 147.631 77.0808 148.623 76.489C149.379 76.0412 149.978 75.6733 150.703 75.5453C150.797 75.8972 150.845 76.2811 150.813 76.6649V76.649ZM141.675 83.0947C140.982 82.199 140.1 81.0634 139.233 79.9438C138.303 78.7602 137.39 77.5606 136.681 76.649C136.665 76.393 136.681 76.1371 136.712 75.8972C136.822 75.9612 136.917 76.0412 137.043 76.1211C137.579 76.489 138.24 76.9688 139.485 77.3687C140.509 77.7046 141.833 78.0245 142.888 78.1524V83.1107C142.494 83.1107 142.085 83.1107 141.675 83.1107V83.0947ZM146.417 73.514C147.378 73.1142 148.324 73.0982 149.112 73.498C149.364 73.626 149.584 73.786 149.773 73.9459C149.017 74.1858 148.371 74.5697 147.757 74.9535C146.874 75.4814 145.961 76.0252 144.621 76.2811V75.1455C144.873 74.6976 145.441 73.9299 146.417 73.514ZM138.382 73.498C139.17 73.0982 140.115 73.1142 141.076 73.514C142.069 73.9299 142.62 74.6976 142.872 75.1455V76.3451C142.116 76.2491 141.061 76.0092 139.989 75.6573C138.997 75.3374 138.492 74.9855 138.004 74.6337C137.815 74.5057 137.626 74.3618 137.405 74.2498C137.642 73.9619 137.957 73.69 138.366 73.4821L138.382 73.498ZM135.278 83.0947C134.758 82.407 134.365 81.9591 133.971 81.5433C133.593 81.1274 133.23 80.7275 132.742 80.0718C132.616 79.8958 132.332 79.256 132.316 79.0481C132.301 78.5683 132.253 77.1288 132.726 76.585C133.388 75.8492 134.286 75.5453 135.011 75.4814C134.916 76.0092 134.9 76.569 134.979 77.1128L135.011 77.3527L135.152 77.5446C135.877 78.4883 136.87 79.7679 137.862 81.0474C138.414 81.7512 138.965 82.4709 139.469 83.1107C139.107 83.1107 138.745 83.1107 138.382 83.1107C137.358 83.1107 136.334 83.1107 135.278 83.1107V83.0947ZM155.036 79.384C155.004 79.496 154.957 79.5919 154.878 79.6879L152.231 83.0307C150.813 83.0627 149.411 83.0787 148.04 83.0787C148.544 82.4389 149.08 81.7352 149.632 81.0314C150.624 79.7519 151.617 78.4723 152.341 77.5286L152.483 77.3367L152.515 77.0968C152.594 76.585 152.578 76.0732 152.499 75.5773C153.287 75.7693 154.484 76.2171 154.973 77.2567C155.303 77.9925 155.193 78.8082 155.036 79.352V79.384Z" fill="white"/>
<path d="M143.739 71.355C144.705 71.355 145.488 70.5601 145.488 69.5796C145.488 68.5991 144.705 67.8042 143.739 67.8042C142.773 67.8042 141.99 68.5991 141.99 69.5796C141.99 70.5601 142.773 71.355 143.739 71.355Z" fill="white"/>
</svg>
