<svg width="220" height="276" viewBox="0 0 220 276" fill="none" xmlns="http://www.w3.org/2000/svg">
<path d="M110 208C165.228 208 210 163.228 210 108C210 52.7715 165.228 8 110 8C54.7715 8 9.99994 52.7715 9.99994 108C9.99994 163.228 54.7715 208 110 208Z" stroke="white" stroke-width="10" stroke-miterlimit="10"/>
<path d="M84.4441 64.6231V54.9341C84.4441 52.8022 82.7478 51.084 80.6432 51.084H62.9263C60.8374 51.084 59.1411 52.7863 59.1254 54.9023L59.0625 64.6231L50.2355 88.917C50.0785 89.3466 49.9999 89.7921 49.9999 90.2535V159.715C49.9999 163.263 52.8428 166.142 56.3453 166.142H87.5069C91.0094 166.142 93.8523 163.263 93.8523 159.715V90.2853C93.8523 89.808 93.7738 89.3466 93.601 88.917L84.4598 64.639L84.4441 64.6231Z" stroke="white" stroke-width="5" stroke-miterlimit="10"/>
<path d="M88.732 113.879C87.0043 113.895 84.3813 114.023 81.2401 114.611C77.2349 115.359 76.4339 116.091 74.5962 115.661C72.2246 115.104 72.2089 113.577 67.7482 109.393C63.0834 105.034 60.6175 104.381 59.5024 104.175C57.8532 103.856 56.1255 104.111 55.1517 104.286C55.0574 109.822 55.2145 115.264 55.1517 120.784H55.136V159.492C55.136 160.335 55.8113 161.02 56.6438 161.02H87.2085C88.0409 161.02 88.7163 160.335 88.7163 159.492V121.357V113.895L88.732 113.879Z" fill="white"/>
<path d="M71.9261 53.1365C79.6377 53.1365 85.8891 52.2105 85.8891 51.0683C85.8891 49.926 79.6377 49 71.9261 49C64.2145 49 57.9631 49.926 57.9631 51.0683C57.9631 52.2105 64.2145 53.1365 71.9261 53.1365Z" stroke="white" stroke-width="6" stroke-miterlimit="10"/>
<path d="M124.26 75.1869C125.061 66.8662 132.852 59.5637 141.05 58.5455C143.956 58.1795 147.474 58.6568 149.924 59.6273L149.956 59.5955L154.668 53.4226C155.249 52.5953 154.683 51.4498 153.694 51.4021C148.181 51.0998 144.082 50.9089 139.919 51.2111C128.171 52.0862 118.135 60.7251 116.218 72.4823C115.229 78.512 116.925 84.51 119.375 89.3942L112.857 101.167C112.433 102.026 113.061 103.013 113.988 103.013H122.768C123.239 103.013 123.663 102.758 123.883 102.345L130.134 90.6033L129.977 90.4602C126.004 86.7055 123.663 81.2167 124.244 75.171L124.26 75.1869Z" fill="white"/>
<path d="M172.824 51.5454H164.359C163.95 51.5454 163.573 51.7522 163.322 52.0863L159.442 57.5752L155.249 63.9708C159.034 67.7891 161.17 73.2939 160.479 79.26C159.537 87.342 153.663 93.7059 145.746 95.1696C142.448 95.79 138.506 94.9627 135.6 94.1514L131.454 101.136C130.967 101.995 131.579 103.061 132.553 103.061C136.684 103.093 139.778 103.188 142.684 103.172C156.066 103.077 168.175 92.0195 168.898 78.4804C169.133 73.9621 167.987 69.1733 166.259 65.355L173.924 53.5023C174.442 52.6432 173.83 51.5454 172.84 51.5454H172.824Z" fill="white"/>
<path d="M151.903 84.4941H133.228V86.2601H151.903V84.4941Z" fill="white"/>
<path d="M155.375 74.6781C154.259 72.2439 151.291 71.8939 150.71 71.8462C150.678 71.8462 150.647 71.8462 150.616 71.8462C150.223 71.2257 149.61 70.5098 148.668 70.0484C147.427 69.4438 145.951 69.4279 144.537 70.0325C143.642 70.4143 142.982 70.9711 142.527 71.5121C142.055 70.9711 141.412 70.3984 140.516 70.0325C139.087 69.4438 137.626 69.4438 136.385 70.0484C135.412 70.5257 134.799 71.2416 134.422 71.878C134.359 71.878 134.281 71.878 134.218 71.8621C132.694 71.7984 131.171 72.4189 130.166 73.5644C129.333 74.5031 129.255 75.9667 129.302 77.2713C129.318 77.8918 129.82 78.9418 130.087 79.2919C130.621 80.0237 131.045 80.4692 131.438 80.9146C131.878 81.3919 132.286 81.8374 132.883 82.6806L133.15 83.0465H133.59C134.799 83.0465 135.977 83.0465 137.139 83.0465C138.286 83.0465 139.401 83.0465 140.532 83.0465C144.16 83.0465 147.726 83.0465 151.526 82.967H151.935L155.108 78.9737C155.327 78.7032 155.485 78.385 155.579 78.0509C155.814 77.2077 155.987 75.9508 155.422 74.7099L155.375 74.6781ZM149.61 74.7894C148.904 75.7122 147.977 76.9054 147.05 78.0986C146.171 79.2282 145.291 80.3578 144.6 81.2647C144.192 81.2647 143.783 81.2647 143.375 81.2647V76.2372C145.197 75.9508 146.422 75.219 147.411 74.6303C148.165 74.1849 148.778 73.819 149.5 73.6758C149.595 74.0417 149.642 74.4076 149.61 74.7894ZM140.422 81.2647C139.731 80.3737 138.851 79.2282 137.956 78.0986C137.029 76.9054 136.103 75.7122 135.396 74.7894C135.38 74.5349 135.396 74.2803 135.427 74.0258C135.537 74.0894 135.632 74.169 135.757 74.2485C136.291 74.6303 136.967 75.0917 138.207 75.5054C139.228 75.8395 140.579 76.1736 141.631 76.2849V81.2647C141.223 81.2647 140.83 81.2647 140.422 81.2647ZM145.181 71.6552C146.155 71.2416 147.097 71.2416 147.883 71.6393C148.15 71.7666 148.369 71.9257 148.558 72.1007C147.804 72.3394 147.16 72.7371 146.516 73.103C145.621 73.628 144.71 74.1849 143.359 74.4394V73.2939C143.61 72.8485 144.176 72.0689 145.165 71.6552H145.181ZM137.108 71.6393C137.909 71.2416 138.851 71.2575 139.809 71.6552C140.799 72.0689 141.364 72.8485 141.616 73.2939V74.5031C140.862 74.4076 139.809 74.169 138.726 73.819C137.721 73.4848 137.218 73.1348 136.731 72.8007C136.543 72.6735 136.354 72.5303 136.134 72.4189C136.37 72.1325 136.684 71.8462 137.092 71.6393H137.108ZM133.998 81.2487C133.48 80.5487 133.087 80.1192 132.694 79.6896C132.302 79.26 131.941 78.8623 131.454 78.21C131.328 78.035 131.045 77.3827 131.014 77.1918C130.998 76.7145 130.951 75.2667 131.422 74.7258C132.082 73.978 132.993 73.6758 133.715 73.628C133.621 74.169 133.605 74.7099 133.684 75.2667L133.715 75.5054L133.857 75.6963C134.579 76.635 135.584 77.9236 136.574 79.1964C137.124 79.9123 137.673 80.6124 138.192 81.2647C137.83 81.2647 137.469 81.2647 137.092 81.2647C136.071 81.2647 135.035 81.2647 133.982 81.2647L133.998 81.2487ZM153.851 77.5259C153.82 77.6373 153.772 77.7327 153.694 77.8282L151.04 81.1692C149.61 81.201 148.212 81.2169 146.83 81.2169C147.333 80.5646 147.883 79.8646 148.417 79.1646C149.422 77.8759 150.411 76.6031 151.134 75.6645L151.275 75.4736L151.307 75.2349C151.385 74.7258 151.369 74.2167 151.291 73.7076C152.092 73.8985 153.286 74.344 153.773 75.394C154.118 76.1418 153.992 76.9531 153.835 77.4941L153.851 77.5259Z" fill="white"/>
<path d="M142.511 69.4915C143.482 69.4915 144.27 68.6937 144.27 67.7096C144.27 66.7255 143.482 65.9277 142.511 65.9277C141.539 65.9277 140.752 66.7255 140.752 67.7096C140.752 68.6937 141.539 69.4915 142.511 69.4915Z" fill="white"/>
<path d="M43.7773 270.48L44.1875 270.047C43.6641 269.281 43.2734 268.422 43.0156 267.469C42.7578 266.516 42.6289 265.48 42.6289 264.363C42.6289 263.043 42.8164 261.832 43.1914 260.73C43.5742 259.629 44.125 258.691 44.8438 257.918C45.5625 257.145 46.4375 256.555 47.4688 256.148C48.5 255.734 49.6719 255.527 50.9844 255.527C52.1094 255.527 53.1133 255.66 53.9961 255.926C54.8789 256.184 55.6836 256.594 56.4102 257.156L56.7148 256.828C57.207 256.312 57.582 255.965 57.8398 255.785C58.1055 255.598 58.3711 255.504 58.6367 255.504C58.8867 255.504 59.0898 255.586 59.2461 255.75C59.4023 255.914 59.4805 256.137 59.4805 256.418C59.4805 256.887 59.1211 257.492 58.4023 258.234L57.9219 258.738C58.9453 260.246 59.457 262.129 59.457 264.387C59.457 265.715 59.2773 266.922 58.918 268.008C58.5586 269.094 58.0195 270.035 57.3008 270.832C56.582 271.629 55.6992 272.238 54.6523 272.66C53.6055 273.082 52.4062 273.293 51.0547 273.293C48.8359 273.293 47.043 272.746 45.6758 271.652L45.418 271.969C45.2305 272.172 45.0312 272.383 44.8203 272.602C44.6172 272.812 44.4102 272.98 44.1992 273.105C43.9961 273.23 43.7617 273.293 43.4961 273.293C43.2461 273.293 43.0391 273.203 42.875 273.023C42.7109 272.844 42.6289 272.645 42.6289 272.426C42.6289 272.113 42.7188 271.812 42.8984 271.523C43.0859 271.234 43.3789 270.887 43.7773 270.48ZM46.6602 267.457L54.1953 259.465C53.8281 259.105 53.3594 258.82 52.7891 258.609C52.2266 258.398 51.6406 258.293 51.0312 258.293C50.0547 258.293 49.1953 258.531 48.4531 259.008C47.7188 259.477 47.1523 260.172 46.7539 261.094C46.3555 262.008 46.1562 263.098 46.1562 264.363C46.1562 265.52 46.3242 266.551 46.6602 267.457ZM55.4258 261.387L47.9141 269.332C48.7812 270.129 49.8203 270.527 51.0312 270.527C51.9219 270.527 52.7383 270.305 53.4805 269.859C54.2305 269.414 54.8242 268.727 55.2617 267.797C55.707 266.867 55.9297 265.723 55.9297 264.363C55.9297 263.277 55.7617 262.285 55.4258 261.387ZM65.9375 257.637V263.66L72.7695 256.535C73.0977 256.191 73.375 255.938 73.6016 255.773C73.8359 255.609 74.1445 255.527 74.5273 255.527C75.0273 255.527 75.4297 255.676 75.7344 255.973C76.0469 256.262 76.2031 256.617 76.2031 257.039C76.2031 257.547 75.9414 258.051 75.418 258.551L71.1875 262.559L76.0625 269.543C76.4062 270.027 76.6641 270.453 76.8359 270.82C77.0078 271.18 77.0938 271.531 77.0938 271.875C77.0938 272.258 76.9414 272.59 76.6367 272.871C76.3398 273.152 75.9336 273.293 75.418 273.293C74.9336 273.293 74.5391 273.191 74.2344 272.988C73.9297 272.777 73.6719 272.5 73.4609 272.156C73.25 271.812 73.0625 271.5 72.8984 271.219L68.7852 264.891L65.9375 267.621V271.172C65.9375 271.891 65.7734 272.426 65.4453 272.777C65.1172 273.121 64.6953 273.293 64.1797 273.293C63.8828 273.293 63.5977 273.215 63.3242 273.059C63.0508 272.902 62.8398 272.691 62.6914 272.426C62.582 272.207 62.5156 271.953 62.4922 271.664C62.4688 271.375 62.457 270.957 62.457 270.41V257.637C62.457 256.934 62.6094 256.406 62.9141 256.055C63.2266 255.703 63.6484 255.527 64.1797 255.527C64.7031 255.527 65.125 255.703 65.4453 256.055C65.7734 256.398 65.9375 256.926 65.9375 257.637ZM86.8438 255.527C88.625 255.527 90.1523 255.891 91.4258 256.617C92.707 257.336 93.6758 258.363 94.332 259.699C94.9883 261.027 95.3164 262.59 95.3164 264.387C95.3164 265.715 95.1367 266.922 94.7773 268.008C94.418 269.094 93.8789 270.035 93.1602 270.832C92.4414 271.629 91.5586 272.238 90.5117 272.66C89.4648 273.082 88.2656 273.293 86.9141 273.293C85.5703 273.293 84.3672 273.078 83.3047 272.648C82.2422 272.211 81.3555 271.598 80.6445 270.809C79.9336 270.02 79.3945 269.07 79.0273 267.961C78.668 266.852 78.4883 265.652 78.4883 264.363C78.4883 263.043 78.6758 261.832 79.0508 260.73C79.4336 259.629 79.9844 258.691 80.7031 257.918C81.4219 257.145 82.2969 256.555 83.3281 256.148C84.3594 255.734 85.5312 255.527 86.8438 255.527ZM91.7891 264.363C91.7891 263.105 91.5859 262.016 91.1797 261.094C90.7734 260.172 90.1914 259.477 89.4336 259.008C88.6836 258.531 87.8203 258.293 86.8438 258.293C86.1484 258.293 85.5039 258.426 84.9102 258.691C84.3242 258.949 83.8164 259.328 83.3867 259.828C82.9648 260.328 82.6289 260.969 82.3789 261.75C82.1367 262.523 82.0156 263.395 82.0156 264.363C82.0156 265.34 82.1367 266.223 82.3789 267.012C82.6289 267.801 82.9766 268.457 83.4219 268.98C83.875 269.496 84.3906 269.883 84.9688 270.141C85.5547 270.398 86.1953 270.527 86.8906 270.527C87.7812 270.527 88.5977 270.305 89.3398 269.859C90.0898 269.414 90.6836 268.727 91.1211 267.797C91.5664 266.867 91.7891 265.723 91.7891 264.363ZM110.094 270.41L107.34 259.465V271.324C107.34 271.98 107.191 272.473 106.895 272.801C106.605 273.129 106.219 273.293 105.734 273.293C105.266 273.293 104.883 273.133 104.586 272.812C104.289 272.484 104.141 271.988 104.141 271.324V257.73C104.141 256.98 104.336 256.477 104.727 256.219C105.117 255.953 105.645 255.82 106.309 255.82H107.387C108.035 255.82 108.504 255.879 108.793 255.996C109.09 256.113 109.309 256.324 109.449 256.629C109.59 256.934 109.75 257.43 109.93 258.117L112.426 267.527L114.922 258.117C115.102 257.43 115.262 256.934 115.402 256.629C115.543 256.324 115.758 256.113 116.047 255.996C116.344 255.879 116.816 255.82 117.465 255.82H118.543C119.207 255.82 119.734 255.953 120.125 256.219C120.516 256.477 120.711 256.98 120.711 257.73V271.324C120.711 271.98 120.562 272.473 120.266 272.801C119.977 273.129 119.586 273.293 119.094 273.293C118.633 273.293 118.254 273.129 117.957 272.801C117.66 272.473 117.512 271.98 117.512 271.324V259.465L114.758 270.41C114.578 271.121 114.43 271.645 114.312 271.98C114.203 272.309 113.996 272.609 113.691 272.883C113.387 273.156 112.965 273.293 112.426 273.293C112.02 273.293 111.676 273.203 111.395 273.023C111.113 272.852 110.895 272.629 110.738 272.355C110.582 272.082 110.457 271.781 110.363 271.453C110.277 271.117 110.188 270.77 110.094 270.41ZM133.238 268.875H127.062L126.008 271.301C125.742 271.926 125.445 272.414 125.117 272.766C124.797 273.117 124.375 273.293 123.852 273.293C123.391 273.293 123.023 273.168 122.75 272.918C122.477 272.66 122.34 272.359 122.34 272.016C122.34 271.781 122.359 271.582 122.398 271.418C122.43 271.254 122.465 271.125 122.504 271.031C122.551 270.93 122.648 270.723 122.797 270.41L128.551 257.906C128.879 257.211 129.109 256.75 129.242 256.523C129.383 256.297 129.582 256.125 129.84 256.008C130.098 255.883 130.484 255.82 131 255.82H143.434C143.98 255.82 144.387 255.945 144.652 256.195C144.926 256.438 145.062 256.758 145.062 257.156C145.062 257.547 144.93 257.859 144.664 258.094C144.398 258.32 143.988 258.434 143.434 258.434H136.59V262.723H142.836C143.367 262.723 143.762 262.844 144.02 263.086C144.285 263.328 144.418 263.648 144.418 264.047C144.418 264.445 144.285 264.762 144.02 264.996C143.754 265.23 143.359 265.348 142.836 265.348H136.59V270.387H143.68C144.242 270.387 144.66 270.496 144.934 270.715C145.215 270.934 145.355 271.246 145.355 271.652C145.355 272.066 145.215 272.395 144.934 272.637C144.66 272.879 144.242 273 143.68 273H135.324C134.598 273 134.066 272.84 133.73 272.52C133.402 272.191 133.238 271.672 133.238 270.961V268.875ZM128.199 266.109H133.238V258.316H131.574L128.199 266.109ZM151.461 257.637V270.141H158.516C159.078 270.141 159.508 270.277 159.805 270.551C160.109 270.824 160.262 271.168 160.262 271.582C160.262 272.004 160.113 272.348 159.816 272.613C159.52 272.871 159.086 273 158.516 273H150.113C149.355 273 148.809 272.832 148.473 272.496C148.145 272.16 147.98 271.617 147.98 270.867V257.637C147.98 256.934 148.137 256.406 148.449 256.055C148.77 255.703 149.188 255.527 149.703 255.527C150.227 255.527 150.648 255.703 150.969 256.055C151.297 256.398 151.461 256.926 151.461 257.637ZM166.062 257.637V263.66L172.895 256.535C173.223 256.191 173.5 255.938 173.727 255.773C173.961 255.609 174.27 255.527 174.652 255.527C175.152 255.527 175.555 255.676 175.859 255.973C176.172 256.262 176.328 256.617 176.328 257.039C176.328 257.547 176.066 258.051 175.543 258.551L171.312 262.559L176.188 269.543C176.531 270.027 176.789 270.453 176.961 270.82C177.133 271.18 177.219 271.531 177.219 271.875C177.219 272.258 177.066 272.59 176.762 272.871C176.465 273.152 176.059 273.293 175.543 273.293C175.059 273.293 174.664 273.191 174.359 272.988C174.055 272.777 173.797 272.5 173.586 272.156C173.375 271.812 173.188 271.5 173.023 271.219L168.91 264.891L166.062 267.621V271.172C166.062 271.891 165.898 272.426 165.57 272.777C165.242 273.121 164.82 273.293 164.305 273.293C164.008 273.293 163.723 273.215 163.449 273.059C163.176 272.902 162.965 272.691 162.816 272.426C162.707 272.207 162.641 271.953 162.617 271.664C162.594 271.375 162.582 270.957 162.582 270.41V257.637C162.582 256.934 162.734 256.406 163.039 256.055C163.352 255.703 163.773 255.527 164.305 255.527C164.828 255.527 165.25 255.703 165.57 256.055C165.898 256.398 166.062 256.926 166.062 257.637Z" fill="white"/>
</svg>
