<svg width="49" height="61" viewBox="0 0 49 61" fill="none" xmlns="http://www.w3.org/2000/svg">
<g clip-path="url(#clip0_1243_3359)">
<path d="M18.6318 16.2912V14.1498C18.6318 13.6786 18.254 13.2988 17.7852 13.2988H13.8392C13.3739 13.2988 12.9961 13.6751 12.9926 14.1427L12.9786 16.2912L11.0126 21.6605C10.9776 21.7554 10.9601 21.8539 10.9601 21.9558V37.3078C10.9601 38.0919 11.5933 38.7284 12.3734 38.7284H19.3139C20.094 38.7284 20.7272 38.0919 20.7272 37.3078V21.9629C20.7272 21.8574 20.7097 21.7554 20.6712 21.6605L18.6353 16.2947L18.6318 16.2912Z" stroke="white" stroke-width="1.11364" stroke-miterlimit="10"/>
<path d="M19.5868 27.1774C19.202 27.181 18.6178 27.2091 17.9181 27.3392C17.0261 27.5045 16.8476 27.6662 16.4384 27.5713C15.9101 27.4482 15.9066 27.1106 14.9131 26.1859C13.8741 25.2224 13.3249 25.0782 13.0765 25.0325C12.7092 24.9622 12.3244 25.0185 12.1075 25.0571C12.0865 26.2808 12.1215 27.4834 12.1075 28.7035H12.104V37.2585C12.104 37.4449 12.2544 37.5961 12.4399 37.5961H19.2474C19.4329 37.5961 19.5833 37.4449 19.5833 37.2585V28.8301V27.181L19.5868 27.1774Z" fill="white"/>
<path d="M24.5 46.5C36.9264 46.5 47 36.4264 47 24C47 11.5736 36.9264 1.5 24.5 1.5C12.0736 1.5 2 11.5736 2 24C2 36.4264 12.0736 46.5 24.5 46.5Z" stroke="white" stroke-width="2.22727" stroke-miterlimit="10"/>
<path d="M15.8435 13.7526C17.5611 13.7526 18.9534 13.5479 18.9534 13.2955C18.9534 13.043 17.5611 12.8384 15.8435 12.8384C14.1259 12.8384 12.7336 13.043 12.7336 13.2955C12.7336 13.5479 14.1259 13.7526 15.8435 13.7526Z" stroke="white" stroke-width="1.33636" stroke-miterlimit="10"/>
<path d="M27.4998 18.6257C27.6782 16.7867 29.4134 15.1727 31.2395 14.9477C31.8866 14.8668 32.6702 14.9723 33.216 15.1868L33.223 15.1797L34.2724 13.8154C34.4019 13.6326 34.2759 13.3794 34.0556 13.3689C32.8277 13.3021 31.9146 13.2599 30.9876 13.3267C28.3709 13.5201 26.1355 15.4294 25.7087 18.0279C25.4883 19.3606 25.8662 20.6862 26.4119 21.7657L24.9601 24.3677C24.8657 24.5576 25.0056 24.7756 25.212 24.7756H27.1675C27.2724 24.7756 27.3669 24.7194 27.4159 24.6279L28.8082 22.0329L28.7732 22.0013C27.8881 21.1714 27.3669 19.9583 27.4963 18.6222L27.4998 18.6257Z" fill="white"/>
<path d="M38.3163 13.4004H36.4308C36.3398 13.4004 36.2559 13.4461 36.1999 13.5199L35.3358 14.7331L34.4018 16.1466C35.2449 16.9905 35.7206 18.2071 35.5667 19.5257C35.3568 21.312 34.0485 22.7185 32.2853 23.042C31.5507 23.1791 30.6726 22.9963 30.0255 22.8169L29.1019 24.3606C28.9935 24.5504 29.1299 24.786 29.3468 24.786C30.2668 24.7931 30.956 24.8142 31.6032 24.8106C34.5837 24.7895 37.2808 22.3457 37.4418 19.3534C37.4942 18.3548 37.2389 17.2964 36.8541 16.4525L38.5612 13.8329C38.6766 13.643 38.5402 13.4004 38.3198 13.4004H38.3163Z" fill="white"/>
<path d="M33.6566 20.6831H29.4972V21.0734H33.6566V20.6831Z" fill="white"/>
<path d="M34.4298 18.5134C34.1814 17.9754 33.5203 17.8981 33.3908 17.8875C33.3838 17.8875 33.3768 17.8875 33.3699 17.8875C33.2824 17.7504 33.146 17.5921 32.9361 17.4902C32.6597 17.3566 32.3309 17.353 32.016 17.4867C31.8166 17.571 31.6697 17.6941 31.5683 17.8137C31.4633 17.6941 31.3199 17.5675 31.1205 17.4867C30.8021 17.3566 30.4768 17.3566 30.2004 17.4902C29.9835 17.5957 29.8471 17.7539 29.7632 17.8945C29.7492 17.8945 29.7317 17.8945 29.7177 17.891C29.3783 17.877 29.039 18.0141 28.8151 18.2673C28.6297 18.4747 28.6122 18.7982 28.6227 19.0866C28.6262 19.2237 28.7382 19.4558 28.7976 19.5331C28.9166 19.6949 29.011 19.7933 29.0985 19.8918C29.1964 19.9973 29.2874 20.0957 29.4203 20.2821L29.4798 20.363H29.5777C29.8471 20.363 30.1095 20.363 30.3684 20.363C30.6237 20.363 30.8721 20.363 31.124 20.363C31.9321 20.363 32.7262 20.363 33.5728 20.3454H33.6637L34.3704 19.4628C34.4193 19.403 34.4543 19.3327 34.4753 19.2588C34.5278 19.0725 34.5663 18.7947 34.4403 18.5204L34.4298 18.5134ZM33.146 18.538C32.9885 18.742 32.7821 19.0057 32.5757 19.2694C32.3798 19.5191 32.1839 19.7687 32.03 19.9691C31.9391 19.9691 31.8481 19.9691 31.7572 19.9691V18.858C32.163 18.7947 32.4358 18.633 32.6562 18.5029C32.8241 18.4044 32.9606 18.3235 33.1215 18.2919C33.1425 18.3728 33.153 18.4536 33.146 18.538ZM31.0995 19.9691C30.9456 19.7722 30.7497 19.5191 30.5503 19.2694C30.3439 19.0057 30.1375 18.742 29.98 18.538C29.9765 18.4818 29.98 18.4255 29.987 18.3692C30.0115 18.3833 30.0325 18.4009 30.0605 18.4185C30.1794 18.5029 30.3299 18.6048 30.6062 18.6962C30.8336 18.7701 31.1345 18.8439 31.3689 18.8685V19.9691C31.2779 19.9691 31.1904 19.9691 31.0995 19.9691ZM32.1595 17.8453C32.3763 17.7539 32.5862 17.7539 32.7612 17.8418C32.8206 17.8699 32.8696 17.9051 32.9116 17.9438C32.7437 17.9965 32.6002 18.0844 32.4568 18.1653C32.2574 18.2813 32.0545 18.4044 31.7537 18.4607V18.2075C31.8096 18.109 31.9356 17.9367 32.156 17.8453H32.1595ZM30.3614 17.8418C30.5398 17.7539 30.7497 17.7574 30.9631 17.8453C31.1834 17.9367 31.3094 18.109 31.3654 18.2075V18.4747C31.1974 18.4536 30.9631 18.4009 30.7217 18.3235C30.4978 18.2497 30.3858 18.1723 30.2774 18.0985C30.2354 18.0704 30.1934 18.0387 30.1445 18.0141C30.1969 17.9508 30.2669 17.8875 30.3579 17.8418H30.3614ZM29.6687 19.9656C29.5533 19.8109 29.4658 19.716 29.3783 19.621C29.2909 19.5261 29.2104 19.4382 29.102 19.294C29.074 19.2553 29.011 19.1112 29.004 19.069C29.0005 18.9635 28.99 18.6435 29.095 18.524C29.2419 18.3587 29.4448 18.2919 29.6057 18.2813C29.5847 18.4009 29.5812 18.5204 29.5987 18.6435L29.6057 18.6962L29.6372 18.7384C29.7981 18.9459 30.022 19.2307 30.2424 19.512C30.3649 19.6703 30.4873 19.825 30.6027 19.9691C30.5223 19.9691 30.4418 19.9691 30.3579 19.9691C30.1305 19.9691 29.8996 19.9691 29.6652 19.9691L29.6687 19.9656ZM34.0905 19.1428C34.0835 19.1674 34.073 19.1885 34.0555 19.2096L33.4643 19.948C33.146 19.9551 32.8346 19.9586 32.5268 19.9586C32.6387 19.8144 32.7612 19.6597 32.8801 19.505C33.104 19.2202 33.3244 18.9389 33.4853 18.7314L33.5168 18.6892L33.5238 18.6365C33.5413 18.524 33.5378 18.4114 33.5203 18.2989C33.6987 18.3411 33.9646 18.4396 34.073 18.6716C34.15 18.8369 34.122 19.0162 34.087 19.1358L34.0905 19.1428Z" fill="white"/>
<path d="M31.5647 17.3672C31.7811 17.3672 31.9565 17.1909 31.9565 16.9734C31.9565 16.7559 31.7811 16.5796 31.5647 16.5796C31.3483 16.5796 31.1729 16.7559 31.1729 16.9734C31.1729 17.1909 31.3483 17.3672 31.5647 17.3672Z" fill="white"/>
<path d="M6.56463 59.1677L6.67572 59.0503C6.53395 58.8429 6.42816 58.6102 6.35833 58.3521C6.28851 58.0939 6.2536 57.8136 6.2536 57.511C6.2536 57.1534 6.30438 56.8254 6.40594 56.5271C6.50962 56.2288 6.65879 55.9749 6.85345 55.7654C7.04811 55.5559 7.28509 55.3962 7.56439 55.2861C7.84369 55.174 8.16107 55.1179 8.51654 55.1179C8.82122 55.1179 9.09312 55.1539 9.33221 55.2258C9.57131 55.2957 9.78924 55.4067 9.98602 55.5591L10.0685 55.4702C10.2018 55.3306 10.3034 55.2364 10.3732 55.1877C10.4452 55.137 10.5171 55.1116 10.589 55.1116C10.6568 55.1116 10.7118 55.1338 10.7541 55.1782C10.7964 55.2227 10.8176 55.283 10.8176 55.3591C10.8176 55.4861 10.7202 55.6501 10.5256 55.8511L10.3954 55.9875C10.6726 56.3959 10.8112 56.9058 10.8112 57.5173C10.8112 57.877 10.7625 58.2039 10.6652 58.498C10.5679 58.7922 10.4219 59.0471 10.2272 59.2629C10.0326 59.4788 9.79347 59.6438 9.50994 59.7581C9.22642 59.8723 8.90163 59.9294 8.53558 59.9294C7.93467 59.9294 7.44907 59.7813 7.07879 59.4851L7.00897 59.5708C6.95819 59.6258 6.90423 59.6829 6.8471 59.7422C6.79209 59.7993 6.73602 59.8448 6.67889 59.8787C6.62388 59.9125 6.5604 59.9294 6.48846 59.9294C6.42075 59.9294 6.36468 59.9051 6.32025 59.8564C6.27581 59.8078 6.2536 59.7538 6.2536 59.6946C6.2536 59.6099 6.27793 59.5285 6.3266 59.4502C6.37738 59.3719 6.45672 59.2778 6.56463 59.1677ZM7.34539 58.3489L9.38617 56.1843C9.28672 56.087 9.15977 56.0098 9.00531 55.9526C8.85296 55.8955 8.69427 55.8669 8.52923 55.8669C8.26475 55.8669 8.032 55.9315 7.83099 56.0605C7.6321 56.1875 7.47869 56.3758 7.37078 56.6255C7.26287 56.873 7.20892 57.1682 7.20892 57.511C7.20892 57.8241 7.25441 58.1034 7.34539 58.3489ZM9.71942 56.7048L7.68499 58.8567C7.91986 59.0725 8.20127 59.1804 8.52923 59.1804C8.77044 59.1804 8.99155 59.1201 9.19256 58.9995C9.39569 58.8789 9.55649 58.6927 9.67498 58.4409C9.79559 58.1891 9.85589 57.8792 9.85589 57.511C9.85589 57.2169 9.8104 56.9482 9.71942 56.7048ZM12.5663 55.6892V57.3206L14.4167 55.3909C14.5056 55.2978 14.5807 55.229 14.642 55.1846C14.7055 55.1401 14.7891 55.1179 14.8928 55.1179C15.0282 55.1179 15.1371 55.1581 15.2197 55.2385C15.3043 55.3168 15.3466 55.4131 15.3466 55.5273C15.3466 55.6649 15.2757 55.8014 15.134 55.9368L13.9882 57.0222L15.3085 58.9138C15.4016 59.045 15.4715 59.1603 15.518 59.2598C15.5646 59.3571 15.5878 59.4523 15.5878 59.5454C15.5878 59.6491 15.5466 59.739 15.464 59.8152C15.3836 59.8914 15.2736 59.9294 15.134 59.9294C15.0028 59.9294 14.8959 59.9019 14.8134 59.8469C14.7309 59.7898 14.6611 59.7147 14.6039 59.6216C14.5468 59.5285 14.496 59.4438 14.4516 59.3677L13.3376 57.6538L12.5663 58.3933V59.355C12.5663 59.5496 12.5219 59.6946 12.433 59.7898C12.3442 59.8829 12.2299 59.9294 12.0903 59.9294C12.0099 59.9294 11.9326 59.9083 11.8586 59.866C11.7845 59.8236 11.7274 59.7665 11.6872 59.6946C11.6576 59.6353 11.6396 59.5666 11.6332 59.4883C11.6269 59.41 11.6237 59.2968 11.6237 59.1487V55.6892C11.6237 55.4988 11.665 55.356 11.7475 55.2607C11.8321 55.1655 11.9464 55.1179 12.0903 55.1179C12.232 55.1179 12.3463 55.1655 12.433 55.2607C12.5219 55.3538 12.5663 55.4967 12.5663 55.6892ZM18.2285 55.1179C18.7109 55.1179 19.1245 55.2163 19.4694 55.4131C19.8164 55.6077 20.0788 55.886 20.2565 56.2478C20.4343 56.6075 20.5231 57.0307 20.5231 57.5173C20.5231 57.877 20.4745 58.2039 20.3771 58.498C20.2798 58.7922 20.1338 59.0471 19.9391 59.2629C19.7445 59.4788 19.5054 59.6438 19.2219 59.7581C18.9383 59.8723 18.6135 59.9294 18.2475 59.9294C17.8836 59.9294 17.5577 59.8713 17.27 59.7549C16.9822 59.6364 16.742 59.4703 16.5495 59.2566C16.357 59.0429 16.211 58.7858 16.1115 58.4854C16.0142 58.1849 15.9655 57.8601 15.9655 57.511C15.9655 57.1534 16.0163 56.8254 16.1179 56.5271C16.2215 56.2288 16.3707 55.9749 16.5654 55.7654C16.76 55.5559 16.997 55.3962 17.2763 55.2861C17.5556 55.174 17.873 55.1179 18.2285 55.1179ZM19.5678 57.511C19.5678 57.1703 19.5128 56.8752 19.4028 56.6255C19.2927 56.3758 19.1351 56.1875 18.9299 56.0605C18.7267 55.9315 18.4929 55.8669 18.2285 55.8669C18.0401 55.8669 17.8656 55.9029 17.7048 55.9749C17.5461 56.0447 17.4085 56.1473 17.2922 56.2827C17.1779 56.4181 17.0869 56.5916 17.0192 56.8032C16.9536 57.0127 16.9208 57.2486 16.9208 57.511C16.9208 57.7755 16.9536 58.0146 17.0192 58.2283C17.0869 58.442 17.1811 58.6197 17.3017 58.7615C17.4244 58.9011 17.5641 59.0059 17.7206 59.0757C17.8793 59.1455 18.0528 59.1804 18.2411 59.1804C18.4824 59.1804 18.7035 59.1201 18.9045 58.9995C19.1076 58.8789 19.2684 58.6927 19.3869 58.4409C19.5075 58.1891 19.5678 57.8792 19.5678 57.511ZM24.5253 59.1487L23.7795 56.1843V59.3962C23.7795 59.574 23.7393 59.7073 23.6589 59.7961C23.5806 59.885 23.4758 59.9294 23.3447 59.9294C23.2177 59.9294 23.114 59.8861 23.0336 59.7993C22.9532 59.7104 22.913 59.5761 22.913 59.3962V55.7146C22.913 55.5115 22.9659 55.375 23.0717 55.3052C23.1775 55.2332 23.3203 55.1973 23.5002 55.1973H23.7922C23.9678 55.1973 24.0947 55.2131 24.173 55.2449C24.2534 55.2766 24.3127 55.3337 24.3508 55.4163C24.3889 55.4988 24.4322 55.6331 24.4809 55.8193L25.1569 58.3679L25.8329 55.8193C25.8816 55.6331 25.925 55.4988 25.9631 55.4163C26.0012 55.3337 26.0593 55.2766 26.1376 55.2449C26.218 55.2131 26.346 55.1973 26.5217 55.1973H26.8137C26.9935 55.1973 27.1363 55.2332 27.2421 55.3052C27.3479 55.375 27.4008 55.5115 27.4008 55.7146V59.3962C27.4008 59.574 27.3606 59.7073 27.2802 59.7961C27.2019 59.885 27.0961 59.9294 26.9628 59.9294C26.838 59.9294 26.7354 59.885 26.655 59.7961C26.5746 59.7073 26.5344 59.574 26.5344 59.3962V56.1843L25.7885 59.1487C25.7398 59.3412 25.6996 59.483 25.6679 59.574C25.6383 59.6628 25.5822 59.7443 25.4997 59.8184C25.4172 59.8924 25.3029 59.9294 25.1569 59.9294C25.0469 59.9294 24.9538 59.9051 24.8776 59.8564C24.8014 59.8099 24.7422 59.7496 24.6999 59.6755C24.6576 59.6015 24.6237 59.52 24.5983 59.4312C24.575 59.3402 24.5507 59.246 24.5253 59.1487ZM30.7936 58.7329H29.121L28.8354 59.3899C28.7634 59.5592 28.683 59.6914 28.5942 59.7866C28.5074 59.8818 28.3932 59.9294 28.2514 59.9294C28.1266 59.9294 28.0271 59.8956 27.9531 59.8279C27.879 59.7581 27.842 59.6766 27.842 59.5835C27.842 59.52 27.8473 59.4661 27.8578 59.4216C27.8663 59.3772 27.8758 59.3423 27.8864 59.3169C27.8991 59.2894 27.9256 59.2333 27.9658 59.1487L29.5241 55.7622C29.613 55.5739 29.6754 55.4491 29.7114 55.3877C29.7494 55.3263 29.8034 55.2798 29.8732 55.248C29.9431 55.2142 30.0478 55.1973 30.1874 55.1973H33.5549C33.703 55.1973 33.813 55.2311 33.8849 55.2988C33.959 55.3644 33.996 55.4512 33.996 55.5591C33.996 55.6649 33.9601 55.7495 33.8881 55.813C33.8162 55.8743 33.7051 55.905 33.5549 55.905H31.7014V57.0667H33.393C33.5369 57.0667 33.6437 57.0994 33.7136 57.165C33.7855 57.2306 33.8215 57.3174 33.8215 57.4253C33.8215 57.5332 33.7855 57.6189 33.7136 57.6824C33.6416 57.7458 33.5348 57.7776 33.393 57.7776H31.7014V59.1423H33.6215C33.7739 59.1423 33.8871 59.172 33.9611 59.2312C34.0373 59.2904 34.0754 59.3751 34.0754 59.4851C34.0754 59.5972 34.0373 59.6861 33.9611 59.7517C33.8871 59.8173 33.7739 59.8501 33.6215 59.8501H31.3586C31.1618 59.8501 31.0179 59.8067 30.9269 59.72C30.8381 59.6311 30.7936 59.4904 30.7936 59.2979V58.7329ZM29.4289 57.9839H30.7936V55.8733H30.343L29.4289 57.9839ZM35.7289 55.6892V59.0757H37.6396C37.7919 59.0757 37.9083 59.1127 37.9887 59.1868C38.0712 59.2608 38.1125 59.3539 38.1125 59.4661C38.1125 59.5803 38.0723 59.6734 37.9919 59.7454C37.9115 59.8152 37.794 59.8501 37.6396 59.8501H35.3639C35.1587 59.8501 35.0106 59.8046 34.9196 59.7136C34.8307 59.6226 34.7863 59.4756 34.7863 59.2725V55.6892C34.7863 55.4988 34.8286 55.356 34.9133 55.2607C35 55.1655 35.1132 55.1179 35.2529 55.1179C35.3946 55.1179 35.5089 55.1655 35.5956 55.2607C35.6845 55.3538 35.7289 55.4967 35.7289 55.6892ZM39.6835 55.6892V57.3206L41.5339 55.3909C41.6227 55.2978 41.6979 55.229 41.7592 55.1846C41.8227 55.1401 41.9063 55.1179 42.0099 55.1179C42.1454 55.1179 42.2543 55.1581 42.3368 55.2385C42.4215 55.3168 42.4638 55.4131 42.4638 55.5273C42.4638 55.6649 42.3929 55.8014 42.2512 55.9368L41.1054 57.0222L42.4257 58.9138C42.5188 59.045 42.5886 59.1603 42.6352 59.2598C42.6817 59.3571 42.705 59.4523 42.705 59.5454C42.705 59.6491 42.6638 59.739 42.5812 59.8152C42.5008 59.8914 42.3908 59.9294 42.2512 59.9294C42.12 59.9294 42.0131 59.9019 41.9306 59.8469C41.8481 59.7898 41.7783 59.7147 41.7211 59.6216C41.664 59.5285 41.6132 59.4438 41.5688 59.3677L40.4548 57.6538L39.6835 58.3933V59.355C39.6835 59.5496 39.6391 59.6946 39.5502 59.7898C39.4614 59.8829 39.3471 59.9294 39.2075 59.9294C39.1271 59.9294 39.0498 59.9083 38.9758 59.866C38.9017 59.8236 38.8446 59.7665 38.8044 59.6946C38.7748 59.6353 38.7568 59.5666 38.7504 59.4883C38.7441 59.41 38.7409 59.2968 38.7409 59.1487V55.6892C38.7409 55.4988 38.7822 55.356 38.8647 55.2607C38.9493 55.1655 39.0636 55.1179 39.2075 55.1179C39.3492 55.1179 39.4635 55.1655 39.5502 55.2607C39.6391 55.3538 39.6835 55.4967 39.6835 55.6892Z" fill="white"/>
</g>
<defs>
<clipPath id="clip0_1243_3359">
<rect width="49" height="61" fill="white"/>
</clipPath>
</defs>
</svg>
