<svg width="269" height="269" viewBox="0 0 269 269" fill="none" xmlns="http://www.w3.org/2000/svg">
<path d="M132.86 257.86C201.895 257.86 257.86 201.895 257.86 132.86C257.86 63.8243 201.895 7.85986 132.86 7.85986C63.8243 7.85986 7.85986 63.8243 7.85986 132.86C7.85986 201.895 63.8243 257.86 132.86 257.86Z" stroke="white" stroke-width="10" stroke-miterlimit="10"/>
<path d="M137.769 62.9434L154.201 113.511H207.36C210.075 113.511 211.208 116.987 209.005 118.585L165.993 149.835L182.425 200.403C183.263 202.994 180.299 205.136 178.096 203.537L135.085 172.287L92.0732 203.537C89.8699 205.136 86.9063 202.979 87.7442 200.403L104.176 149.835L61.1646 118.585C58.9613 116.987 60.0939 113.511 62.8093 113.511H115.968L132.4 62.9434C133.238 60.3522 136.9 60.3522 137.738 62.9434H137.769Z" stroke="white" stroke-width="9.46704" stroke-miterlimit="10"/>
</svg>
