<svg width="52" height="64" viewBox="0 0 52 64" fill="none" xmlns="http://www.w3.org/2000/svg">
<path d="M24.3571 46.8546C36.7835 46.8546 46.8571 36.7816 46.8571 24.3558C46.8571 11.93 36.7835 1.85693 24.3571 1.85693C11.9307 1.85693 1.85707 11.93 1.85707 24.3558C1.85707 36.7816 11.9307 46.8546 24.3571 46.8546Z" stroke="white" stroke-width="2.27273" stroke-miterlimit="10"/>
<path d="M37.9077 12.7231C37.9502 12.7258 37.9826 12.7324 38.0063 12.7388C38.0057 12.7468 38.0069 12.7567 38.0053 12.7681C37.9954 12.8376 37.9677 12.9388 37.9262 13.0688C37.8852 13.1976 37.8326 13.349 37.7739 13.5171C37.7154 13.6845 37.6509 13.8683 37.5883 14.0601C37.4635 14.443 37.3429 14.8634 37.2827 15.2622C37.2228 15.6585 37.2203 16.0484 37.3442 16.3628C37.8915 17.7564 37.866 19.1199 37.3051 20.3452C36.9192 21.1858 36.2725 22.0082 35.5678 22.6802C34.8624 23.3528 34.1082 23.8668 33.5141 24.0991L33.478 24.1138L33.4575 24.147L24.3325 39.6431L15.1792 22.939L15.1782 22.937L15.0239 22.6655L15.0229 22.6636L14.6069 21.8677C13.954 20.5758 13.3555 19.2878 12.7075 17.9917C12.5257 17.6282 12.3403 17.2675 12.1518 16.9077C12.0561 16.7265 11.9595 16.544 11.8598 16.3618C11.8387 16.3223 11.8088 16.2684 11.7768 16.2104C11.7965 16.223 11.8167 16.2349 11.8364 16.2476C11.966 16.331 12.0981 16.4199 12.2319 16.4956V16.4946C12.4114 16.5977 12.5316 16.6792 12.6821 16.8101C13.298 17.3477 13.8809 17.9214 14.3852 18.5474V18.5483C14.7914 19.0542 15.1227 19.4975 15.4506 19.9946L15.7807 20.5142L16.3403 21.4634L16.3442 21.4692C16.3875 21.5343 16.4379 21.6358 16.4946 21.7456L16.4965 21.7476L24.2885 35.9731L24.3842 36.1479L24.4858 35.9761L33.9858 19.8413L33.9887 19.8345C34.5924 18.6306 35.1453 17.3901 35.6586 16.2163L35.4526 16.1187C35.405 16.2114 35.3168 16.3305 35.2006 16.4663C35.0857 16.6006 34.9486 16.7457 34.8081 16.8911C34.5317 17.1771 34.2333 17.4718 34.0903 17.6665V17.6675C33.8332 18.0183 33.6902 18.2674 33.56 18.5181C33.4298 18.7689 33.3168 19.0115 33.1147 19.3647C32.8649 19.8019 32.575 20.2099 32.2778 20.6196C32.0263 20.9662 31.7696 21.3153 31.5317 21.6802C31.3452 20.8312 31.2297 19.8713 31.2251 18.9575C31.22 17.9457 31.3508 17.002 31.6606 16.3276C31.9099 15.784 32.3906 15.2665 32.9926 14.8003C33.5932 14.3352 34.307 13.9268 35.0112 13.5972C35.7154 13.2676 36.4067 13.0183 36.9614 12.8716C37.2389 12.7982 37.4798 12.7514 37.6694 12.7319C37.764 12.7222 37.8438 12.7192 37.9077 12.7231Z" fill="white" stroke="white" stroke-width="0.227273"/>
<path d="M4.98909 57.5718L6.0428 60.6917L7.09969 57.5496C7.1547 57.3845 7.19596 57.2703 7.22346 57.2068C7.25097 57.1412 7.29646 57.083 7.35994 57.0322C7.42342 56.9793 7.51017 56.9529 7.62019 56.9529C7.7006 56.9529 7.77465 56.973 7.84236 57.0132C7.91219 57.0534 7.96614 57.1073 8.00423 57.175C8.04443 57.2406 8.06453 57.3073 8.06453 57.375C8.06453 57.4215 8.05818 57.4723 8.04549 57.5273C8.03279 57.5802 8.01692 57.6331 7.99788 57.686C7.97884 57.7368 7.95979 57.7897 7.94075 57.8447L6.81404 60.8853C6.77384 61.0016 6.73364 61.1127 6.69344 61.2185C6.65323 61.3222 6.60668 61.4142 6.55379 61.4946C6.50089 61.5729 6.43001 61.6375 6.34114 61.6882C6.25439 61.739 6.14754 61.7644 6.02058 61.7644C5.89363 61.7644 5.78572 61.739 5.69685 61.6882C5.6101 61.6396 5.53922 61.575 5.48421 61.4946C5.43131 61.4121 5.38476 61.319 5.34456 61.2153C5.30436 61.1117 5.26416 61.0016 5.22395 60.8853L4.11629 57.8701C4.09724 57.8151 4.07714 57.7611 4.05598 57.7083C4.03694 57.6554 4.02001 57.5982 4.0052 57.5369C3.99251 57.4755 3.98616 57.4237 3.98616 57.3813C3.98616 57.2734 4.02954 57.175 4.11629 57.0862C4.20304 56.9973 4.31201 56.9529 4.44319 56.9529C4.604 56.9529 4.7172 57.0026 4.78279 57.1021C4.8505 57.1994 4.91927 57.356 4.98909 57.5718ZM11.8414 57.759H9.71809V58.9016H11.6732C11.8171 58.9016 11.9239 58.9344 11.9937 59C12.0657 59.0635 12.1016 59.1481 12.1016 59.2539C12.1016 59.3597 12.0667 59.4465 11.9969 59.5142C11.9271 59.5798 11.8192 59.6125 11.6732 59.6125H9.71809V60.936H11.9144C12.0625 60.936 12.1736 60.9709 12.2476 61.0408C12.3238 61.1085 12.3619 61.1995 12.3619 61.3137C12.3619 61.4237 12.3238 61.5137 12.2476 61.5835C12.1736 61.6512 12.0625 61.6851 11.9144 61.6851H9.3531C9.14786 61.6851 8.99975 61.6396 8.90877 61.5486C8.8199 61.4576 8.77547 61.3105 8.77547 61.1074V57.6099C8.77547 57.4744 8.79557 57.3644 8.83577 57.2798C8.87597 57.193 8.93839 57.1306 9.02303 57.0925C9.10978 57.0523 9.2198 57.0322 9.3531 57.0322H11.8414C11.9916 57.0322 12.1027 57.0661 12.1746 57.1338C12.2487 57.1994 12.2857 57.2861 12.2857 57.394C12.2857 57.5041 12.2487 57.5929 12.1746 57.6606C12.1027 57.7262 11.9916 57.759 11.8414 57.759ZM17.3607 59.7935V60.6853C17.3607 60.8038 17.349 60.899 17.3258 60.9709C17.3025 61.0408 17.2591 61.1042 17.1956 61.1614C17.1343 61.2185 17.0549 61.2735 16.9576 61.3264C16.6762 61.4788 16.4053 61.5898 16.1451 61.6597C15.8848 61.7295 15.6013 61.7644 15.2945 61.7644C14.9369 61.7644 14.6111 61.7094 14.317 61.5994C14.0229 61.4893 13.7721 61.3296 13.5648 61.1201C13.3574 60.9106 13.1977 60.6567 13.0855 60.3584C12.9755 60.0601 12.9205 59.7268 12.9205 59.3586C12.9205 58.9968 12.9744 58.6657 13.0824 58.3652C13.1903 58.0648 13.349 57.8098 13.5584 57.6003C13.7679 57.3909 14.0229 57.2311 14.3233 57.1211C14.6238 57.009 14.9644 56.9529 15.3453 56.9529C15.6584 56.9529 15.9356 56.9952 16.1768 57.0798C16.418 57.1624 16.6138 57.2671 16.764 57.394C16.9142 57.521 17.0274 57.6554 17.1036 57.7971C17.1798 57.9389 17.2178 58.0648 17.2178 58.1748C17.2178 58.2933 17.1734 58.3949 17.0845 58.4795C16.9978 58.562 16.8931 58.6033 16.7703 58.6033C16.7026 58.6033 16.637 58.5874 16.5736 58.5557C16.5122 58.5239 16.4604 58.4795 16.418 58.4224C16.3017 58.2404 16.2033 58.1029 16.1229 58.0098C16.0425 57.9167 15.9335 57.8384 15.796 57.7749C15.6606 57.7114 15.4871 57.6797 15.2755 57.6797C15.0575 57.6797 14.8629 57.7178 14.6915 57.7939C14.5201 57.868 14.373 57.977 14.2503 58.1208C14.1297 58.2626 14.0366 58.4372 13.971 58.6445C13.9075 58.8519 13.8758 59.0815 13.8758 59.3333C13.8758 59.8792 14.0006 60.2992 14.2503 60.5933C14.5021 60.8874 14.8523 61.0344 15.3009 61.0344C15.5188 61.0344 15.723 61.0059 15.9134 60.9487C16.106 60.8916 16.3006 60.8101 16.4974 60.7043V59.949H15.7674C15.5918 59.949 15.4585 59.9225 15.3675 59.8696C15.2786 59.8167 15.2342 59.7268 15.2342 59.5999C15.2342 59.4962 15.2712 59.4105 15.3453 59.3428C15.4215 59.2751 15.5241 59.2412 15.6532 59.2412H16.7227C16.8539 59.2412 16.965 59.2528 17.056 59.2761C17.147 59.2994 17.22 59.3512 17.275 59.4316C17.3321 59.512 17.3607 59.6326 17.3607 59.7935ZM21.3248 57.759H19.2015V58.9016H21.1566C21.3005 58.9016 21.4073 58.9344 21.4771 59C21.5491 59.0635 21.585 59.1481 21.585 59.2539C21.585 59.3597 21.5501 59.4465 21.4803 59.5142C21.4105 59.5798 21.3026 59.6125 21.1566 59.6125H19.2015V60.936H21.3978C21.5459 60.936 21.657 60.9709 21.731 61.0408C21.8072 61.1085 21.8453 61.1995 21.8453 61.3137C21.8453 61.4237 21.8072 61.5137 21.731 61.5835C21.657 61.6512 21.5459 61.6851 21.3978 61.6851H18.8365C18.6313 61.6851 18.4831 61.6396 18.3922 61.5486C18.3033 61.4576 18.2589 61.3105 18.2589 61.1074V57.6099C18.2589 57.4744 18.279 57.3644 18.3192 57.2798C18.3594 57.193 18.4218 57.1306 18.5064 57.0925C18.5932 57.0523 18.7032 57.0322 18.8365 57.0322H21.3248C21.475 57.0322 21.5861 57.0661 21.658 57.1338C21.7321 57.1994 21.7691 57.2861 21.7691 57.394C21.7691 57.5041 21.7321 57.5929 21.658 57.6606C21.5861 57.7262 21.475 57.759 21.3248 57.759ZM25.6158 57.8098H24.5875V61.1899C24.5875 61.3846 24.5441 61.5295 24.4574 61.6248C24.3706 61.7179 24.2585 61.7644 24.1209 61.7644C23.9813 61.7644 23.867 61.7168 23.7782 61.6216C23.6914 61.5264 23.648 61.3825 23.648 61.1899V57.8098H22.6197C22.4589 57.8098 22.3394 57.7749 22.2611 57.7051C22.1828 57.6331 22.1436 57.539 22.1436 57.4226C22.1436 57.302 22.1838 57.2068 22.2642 57.137C22.3468 57.0671 22.4652 57.0322 22.6197 57.0322H25.6158C25.7787 57.0322 25.8993 57.0682 25.9776 57.1401C26.058 57.2121 26.0982 57.3062 26.0982 57.4226C26.0982 57.539 26.058 57.6331 25.9776 57.7051C25.8972 57.7749 25.7766 57.8098 25.6158 57.8098ZM29.2213 61.1582L28.9991 60.5742H27.1075L26.8853 61.1709C26.7986 61.4036 26.7245 61.5613 26.6632 61.6438C26.6018 61.7242 26.5013 61.7644 26.3616 61.7644C26.2432 61.7644 26.1384 61.721 26.0474 61.6343C25.9565 61.5475 25.911 61.4491 25.911 61.3391C25.911 61.2756 25.9215 61.21 25.9427 61.1423C25.9639 61.0746 25.9988 60.9805 26.0474 60.8599L27.2376 57.8384C27.2715 57.7516 27.3117 57.6479 27.3582 57.5273C27.4069 57.4046 27.4577 57.3031 27.5106 57.2227C27.5656 57.1423 27.6365 57.0777 27.7232 57.0291C27.8121 56.9783 27.9211 56.9529 28.0501 56.9529C28.1813 56.9529 28.2903 56.9783 28.377 57.0291C28.4659 57.0777 28.5368 57.1412 28.5897 57.2195C28.6447 57.2978 28.6902 57.3824 28.7262 57.4734C28.7642 57.5623 28.8118 57.6818 28.869 57.832L30.0845 60.8345C30.1798 61.063 30.2274 61.2291 30.2274 61.3328C30.2274 61.4407 30.1819 61.5401 30.0909 61.6311C30.002 61.72 29.8941 61.7644 29.7672 61.7644C29.6931 61.7644 29.6296 61.7507 29.5767 61.7231C29.5238 61.6978 29.4794 61.6628 29.4434 61.6184C29.4075 61.5719 29.3683 61.502 29.326 61.4089C29.2858 61.3137 29.2509 61.2301 29.2213 61.1582ZM27.3551 59.8665H28.7452L28.0438 57.9463L27.3551 59.8665ZM32.1888 59.6951H31.8587V61.1899C31.8587 61.3867 31.8153 61.5317 31.7286 61.6248C31.6418 61.7179 31.5286 61.7644 31.389 61.7644C31.2388 61.7644 31.1224 61.7157 31.0399 61.6184C30.9574 61.5211 30.9161 61.3783 30.9161 61.1899V57.6099C30.9161 57.4067 30.9616 57.2597 31.0526 57.1687C31.1435 57.0777 31.2906 57.0322 31.4937 57.0322H33.0267C33.2383 57.0322 33.4192 57.0417 33.5694 57.0608C33.7196 57.0777 33.8551 57.1137 33.9757 57.1687C34.1217 57.2301 34.2507 57.3179 34.3629 57.4321C34.475 57.5464 34.5596 57.6797 34.6168 57.832C34.676 57.9823 34.7056 58.142 34.7056 58.3113C34.7056 58.6583 34.6073 58.9355 34.4105 59.1428C34.2158 59.3502 33.9196 59.4972 33.5218 59.584C33.689 59.6729 33.8487 59.804 34.0011 59.9775C34.1534 60.151 34.2888 60.3362 34.4073 60.533C34.5279 60.7276 34.621 60.9043 34.6866 61.063C34.7543 61.2196 34.7882 61.3275 34.7882 61.3867C34.7882 61.4481 34.7681 61.5094 34.7279 61.5708C34.6898 61.63 34.6369 61.6766 34.5692 61.7104C34.5015 61.7464 34.4232 61.7644 34.3343 61.7644C34.2285 61.7644 34.1396 61.739 34.0677 61.6882C33.9958 61.6396 33.9333 61.5771 33.8804 61.501C33.8297 61.4248 33.7598 61.3127 33.671 61.1646L33.2933 60.5361C33.1579 60.3055 33.0362 60.1299 32.9283 60.0093C32.8225 59.8887 32.7146 59.8062 32.6046 59.7617C32.4945 59.7173 32.356 59.6951 32.1888 59.6951ZM32.7283 57.74H31.8587V59.019H32.703C32.9294 59.019 33.1198 59 33.2742 58.9619C33.4287 58.9217 33.5461 58.8551 33.6265 58.762C33.7091 58.6667 33.7503 58.5366 33.7503 58.3716C33.7503 58.2425 33.7175 58.1293 33.6519 58.032C33.5863 57.9325 33.4954 57.8585 33.379 57.8098C33.269 57.7633 33.0521 57.74 32.7283 57.74ZM35.6387 61.1899V57.5242C35.6387 57.3337 35.6821 57.1909 35.7689 57.0957C35.8556 57.0005 35.9678 56.9529 36.1053 56.9529C36.2471 56.9529 36.3613 57.0005 36.4481 57.0957C36.5369 57.1888 36.5814 57.3316 36.5814 57.5242V61.1899C36.5814 61.3825 36.5369 61.5264 36.4481 61.6216C36.3613 61.7168 36.2471 61.7644 36.1053 61.7644C35.9699 61.7644 35.8577 61.7168 35.7689 61.6216C35.6821 61.5243 35.6387 61.3804 35.6387 61.1899ZM41.1739 60.2886C41.1739 60.57 41.1009 60.8228 40.9549 61.0471C40.811 61.2714 40.5994 61.447 40.3201 61.574C40.0408 61.7009 39.7097 61.7644 39.3267 61.7644C38.8676 61.7644 38.4888 61.6777 38.1905 61.5042C37.9789 61.3793 37.8065 61.2132 37.6732 61.0059C37.542 60.7964 37.4764 60.5933 37.4764 60.3965C37.4764 60.2822 37.5155 60.1849 37.5938 60.1045C37.6742 60.022 37.7758 59.9807 37.8985 59.9807C37.998 59.9807 38.0815 60.0125 38.1492 60.0759C38.2191 60.1394 38.2783 60.2336 38.327 60.3584C38.3862 60.5065 38.4497 60.6303 38.5174 60.7297C38.5872 60.8292 38.6846 60.9117 38.8094 60.9773C38.9342 61.0408 39.0982 61.0725 39.3013 61.0725C39.5806 61.0725 39.807 61.008 39.9805 60.8789C40.1562 60.7477 40.244 60.5848 40.244 60.3901C40.244 60.2357 40.1964 60.1108 40.1012 60.0156C40.0081 59.9183 39.8864 59.8442 39.7362 59.7935C39.588 59.7427 39.3892 59.6887 39.1395 59.6316C38.8052 59.5533 38.5248 59.4623 38.2984 59.3586C38.0741 59.2528 37.8953 59.11 37.762 58.9302C37.6309 58.7482 37.5653 58.5229 37.5653 58.2542C37.5653 57.9981 37.6351 57.7707 37.7747 57.5718C37.9144 57.3729 38.1164 57.2205 38.3809 57.1147C38.6454 57.0068 38.9565 56.9529 39.314 56.9529C39.5997 56.9529 39.8462 56.9889 40.0535 57.0608C40.263 57.1306 40.4365 57.2248 40.5741 57.3433C40.7116 57.4596 40.8121 57.5824 40.8756 57.7114C40.939 57.8405 40.9708 57.9664 40.9708 58.0891C40.9708 58.2013 40.9306 58.3028 40.8502 58.3938C40.7719 58.4827 40.6735 58.5271 40.555 58.5271C40.4471 58.5271 40.3646 58.5007 40.3074 58.4478C40.2524 58.3927 40.1921 58.3039 40.1265 58.1812C40.0419 58.0055 39.9403 57.8691 39.8219 57.7717C39.7034 57.6723 39.5129 57.6226 39.2506 57.6226C39.0072 57.6226 38.8105 57.6765 38.6602 57.7844C38.5121 57.8902 38.4381 58.0182 38.4381 58.1685C38.4381 58.2616 38.4635 58.342 38.5142 58.4097C38.565 58.4774 38.6348 58.5356 38.7237 58.5842C38.8126 58.6329 38.9025 58.671 38.9935 58.6985C39.0845 58.726 39.2347 58.7662 39.4442 58.8191C39.7065 58.8805 39.9435 58.9482 40.1551 59.0222C40.3688 59.0963 40.5497 59.1862 40.6978 59.292C40.8481 59.3978 40.9644 59.5321 41.047 59.6951C41.1316 59.8559 41.1739 60.0537 41.1739 60.2886ZM42.9227 57.5242V59.1555L44.773 57.2258C44.8619 57.1327 44.937 57.064 44.9984 57.0195C45.0618 56.9751 45.1454 56.9529 45.2491 56.9529C45.3845 56.9529 45.4935 56.9931 45.576 57.0735C45.6606 57.1518 45.703 57.248 45.703 57.3623C45.703 57.4998 45.6321 57.6363 45.4903 57.7717L44.3446 58.8572L45.6649 60.7488C45.758 60.88 45.8278 60.9953 45.8743 61.0947C45.9209 61.1921 45.9442 61.2873 45.9442 61.3804C45.9442 61.484 45.9029 61.574 45.8204 61.6501C45.74 61.7263 45.63 61.7644 45.4903 61.7644C45.3591 61.7644 45.2523 61.7369 45.1698 61.6819C45.0872 61.6248 45.0174 61.5496 44.9603 61.4565C44.9032 61.3634 44.8524 61.2788 44.8079 61.2026L43.6939 59.4888L42.9227 60.2283V61.1899C42.9227 61.3846 42.8783 61.5295 42.7894 61.6248C42.7005 61.7179 42.5863 61.7644 42.4466 61.7644C42.3662 61.7644 42.289 61.7432 42.2149 61.7009C42.1409 61.6586 42.0837 61.6015 42.0435 61.5295C42.0139 61.4703 41.9959 61.4015 41.9896 61.3232C41.9832 61.245 41.9801 61.1318 41.9801 60.9836V57.5242C41.9801 57.3337 42.0213 57.1909 42.1038 57.0957C42.1885 57.0005 42.3027 56.9529 42.4466 56.9529C42.5884 56.9529 42.7026 57.0005 42.7894 57.0957C42.8783 57.1888 42.9227 57.3316 42.9227 57.5242Z" fill="white"/>
</svg>
