<svg width="220" height="275" viewBox="0 0 220 275" fill="none" xmlns="http://www.w3.org/2000/svg">
<path d="M108 208C163.228 208 208 163.228 208 108C208 52.7715 163.228 8 108 8C52.7715 8 8 52.7715 8 108C8 163.228 52.7715 208 108 208Z" stroke="white" stroke-width="10" stroke-miterlimit="10"/>
<path d="M166.459 47.5078C166.654 47.5199 166.801 47.5464 166.907 47.5762C166.905 47.6154 166.903 47.6633 166.895 47.7207C166.85 48.0333 166.728 48.4856 166.544 49.0684C166.361 49.6452 166.127 50.3217 165.866 51.0742C165.606 51.8239 165.321 52.6453 165.043 53.5039C164.488 55.2187 163.953 57.1 163.686 58.8848C163.436 60.5476 163.409 62.1834 163.859 63.5391L163.956 63.8066C166.314 69.8545 166.284 75.7776 164.012 81.1328L163.784 81.6484C162.068 85.4132 159.193 89.0936 156.061 92.1025C152.925 95.1151 149.572 97.4176 146.931 98.458L146.77 98.5215L146.683 98.6709L106.126 168.058L65.4395 93.2607L65.4336 93.251L65.0332 92.5518C64.9016 92.3203 64.7893 92.1193 64.748 92.0361L64.7422 92.0254L63.8047 90.2471C63.5281 89.7185 63.2551 89.1895 62.8916 88.4648C59.9902 82.681 57.3322 76.9106 54.4521 71.1084C53.6444 69.4811 52.821 67.8696 51.9834 66.2588L51.9824 66.2568C51.7696 65.8511 51.5563 65.4443 51.3408 65.0371L50.6865 63.8145C50.5885 63.6299 50.4467 63.3756 50.2969 63.1025C50.393 63.1637 50.4892 63.225 50.585 63.2871C51.1601 63.6602 51.7456 64.0552 52.3389 64.3936V64.3945C53.0385 64.7991 53.5356 65.1285 54.0977 65.5977L54.3438 65.8086C57.0822 68.2167 59.6749 70.7847 61.917 73.5889V73.5879C64.3245 76.6079 66.1369 79.1336 68.1162 82.3906L70.6064 86.6436L70.6133 86.6553L70.6211 86.667C70.8142 86.9588 71.041 87.4134 71.293 87.9053L71.2988 87.916L105.93 151.604L106.354 152.383L106.801 151.617L149.021 79.3809L149.037 79.3516C151.72 73.9615 154.173 68.4052 156.455 63.1494L155.551 62.7236C155.339 63.1402 154.945 63.6719 154.429 64.2803C153.917 64.8824 153.308 65.5339 152.683 66.1855C151.607 67.3069 150.457 68.457 149.762 69.3105L149.493 69.6572C148.351 71.2282 147.714 72.3426 147.136 73.4648C146.629 74.4474 146.183 75.4031 145.478 76.6865L145.158 77.2578C144.048 79.2158 142.758 81.0424 141.437 82.877C140.317 84.431 139.174 85.9943 138.115 87.6299C137.285 83.8258 136.771 79.5248 136.751 75.4297C136.728 70.8982 137.308 66.67 138.687 63.6484V63.6475C139.795 61.2115 141.934 58.896 144.609 56.8086C147.279 54.7257 150.452 52.8958 153.582 51.4199C156.712 49.9442 159.786 48.83 162.251 48.1729C163.484 47.8441 164.555 47.632 165.397 47.5449C165.819 47.5014 166.175 47.4902 166.459 47.5078Z" fill="white" stroke="white"/>
<path d="M33.9844 257.812L37.875 269.332L41.7773 257.73C41.9805 257.121 42.1328 256.699 42.2344 256.465C42.3359 256.223 42.5039 256.008 42.7383 255.82C42.9727 255.625 43.293 255.527 43.6992 255.527C43.9961 255.527 44.2695 255.602 44.5195 255.75C44.7773 255.898 44.9766 256.098 45.1172 256.348C45.2656 256.59 45.3398 256.836 45.3398 257.086C45.3398 257.258 45.3164 257.445 45.2695 257.648C45.2227 257.844 45.1641 258.039 45.0938 258.234C45.0234 258.422 44.9531 258.617 44.8828 258.82L40.7227 270.047C40.5742 270.477 40.4258 270.887 40.2773 271.277C40.1289 271.66 39.957 272 39.7617 272.297C39.5664 272.586 39.3047 272.824 38.9766 273.012C38.6562 273.199 38.2617 273.293 37.793 273.293C37.3242 273.293 36.9258 273.199 36.5977 273.012C36.2773 272.832 36.0156 272.594 35.8125 272.297C35.6172 271.992 35.4453 271.648 35.2969 271.266C35.1484 270.883 35 270.477 34.8516 270.047L30.7617 258.914C30.6914 258.711 30.6172 258.512 30.5391 258.316C30.4688 258.121 30.4062 257.91 30.3516 257.684C30.3047 257.457 30.2812 257.266 30.2812 257.109C30.2812 256.711 30.4414 256.348 30.7617 256.02C31.082 255.691 31.4844 255.527 31.9688 255.527C32.5625 255.527 32.9805 255.711 33.2227 256.078C33.4727 256.438 33.7266 257.016 33.9844 257.812ZM59.2852 258.504H51.4453V262.723H58.6641C59.1953 262.723 59.5898 262.844 59.8477 263.086C60.1133 263.32 60.2461 263.633 60.2461 264.023C60.2461 264.414 60.1172 264.734 59.8594 264.984C59.6016 265.227 59.2031 265.348 58.6641 265.348H51.4453V270.234H59.5547C60.1016 270.234 60.5117 270.363 60.7852 270.621C61.0664 270.871 61.207 271.207 61.207 271.629C61.207 272.035 61.0664 272.367 60.7852 272.625C60.5117 272.875 60.1016 273 59.5547 273H50.0977C49.3398 273 48.793 272.832 48.457 272.496C48.1289 272.16 47.9648 271.617 47.9648 270.867V257.953C47.9648 257.453 48.0391 257.047 48.1875 256.734C48.3359 256.414 48.5664 256.184 48.8789 256.043C49.1992 255.895 49.6055 255.82 50.0977 255.82H59.2852C59.8398 255.82 60.25 255.945 60.5156 256.195C60.7891 256.438 60.9258 256.758 60.9258 257.156C60.9258 257.562 60.7891 257.891 60.5156 258.141C60.25 258.383 59.8398 258.504 59.2852 258.504ZM79.6641 266.016V269.309C79.6641 269.746 79.6211 270.098 79.5352 270.363C79.4492 270.621 79.2891 270.855 79.0547 271.066C78.8281 271.277 78.5352 271.48 78.1758 271.676C77.1367 272.238 76.1367 272.648 75.1758 272.906C74.2148 273.164 73.168 273.293 72.0352 273.293C70.7148 273.293 69.5117 273.09 68.4258 272.684C67.3398 272.277 66.4141 271.688 65.6484 270.914C64.8828 270.141 64.293 269.203 63.8789 268.102C63.4727 267 63.2695 265.77 63.2695 264.41C63.2695 263.074 63.4688 261.852 63.8672 260.742C64.2656 259.633 64.8516 258.691 65.625 257.918C66.3984 257.145 67.3398 256.555 68.4492 256.148C69.5586 255.734 70.8164 255.527 72.2227 255.527C73.3789 255.527 74.4023 255.684 75.293 255.996C76.1836 256.301 76.9062 256.688 77.4609 257.156C78.0156 257.625 78.4336 258.121 78.7148 258.645C78.9961 259.168 79.1367 259.633 79.1367 260.039C79.1367 260.477 78.9727 260.852 78.6445 261.164C78.3242 261.469 77.9375 261.621 77.4844 261.621C77.2344 261.621 76.9922 261.562 76.7578 261.445C76.5312 261.328 76.3398 261.164 76.1836 260.953C75.7539 260.281 75.3906 259.773 75.0938 259.43C74.7969 259.086 74.3945 258.797 73.8867 258.562C73.3867 258.328 72.7461 258.211 71.9648 258.211C71.1602 258.211 70.4414 258.352 69.8086 258.633C69.1758 258.906 68.6328 259.309 68.1797 259.84C67.7344 260.363 67.3906 261.008 67.1484 261.773C66.9141 262.539 66.7969 263.387 66.7969 264.316C66.7969 266.332 67.2578 267.883 68.1797 268.969C69.1094 270.055 70.4023 270.598 72.0586 270.598C72.8633 270.598 73.6172 270.492 74.3203 270.281C75.0312 270.07 75.75 269.77 76.4766 269.379V266.59H73.7812C73.1328 266.59 72.6406 266.492 72.3047 266.297C71.9766 266.102 71.8125 265.77 71.8125 265.301C71.8125 264.918 71.9492 264.602 72.2227 264.352C72.5039 264.102 72.8828 263.977 73.3594 263.977H77.3086C77.793 263.977 78.2031 264.02 78.5391 264.105C78.875 264.191 79.1445 264.383 79.3477 264.68C79.5586 264.977 79.6641 265.422 79.6641 266.016ZM94.3008 258.504H86.4609V262.723H93.6797C94.2109 262.723 94.6055 262.844 94.8633 263.086C95.1289 263.32 95.2617 263.633 95.2617 264.023C95.2617 264.414 95.1328 264.734 94.875 264.984C94.6172 265.227 94.2188 265.348 93.6797 265.348H86.4609V270.234H94.5703C95.1172 270.234 95.5273 270.363 95.8008 270.621C96.082 270.871 96.2227 271.207 96.2227 271.629C96.2227 272.035 96.082 272.367 95.8008 272.625C95.5273 272.875 95.1172 273 94.5703 273H85.1133C84.3555 273 83.8086 272.832 83.4727 272.496C83.1445 272.16 82.9805 271.617 82.9805 270.867V257.953C82.9805 257.453 83.0547 257.047 83.2031 256.734C83.3516 256.414 83.582 256.184 83.8945 256.043C84.2148 255.895 84.6211 255.82 85.1133 255.82H94.3008C94.8555 255.82 95.2656 255.945 95.5312 256.195C95.8047 256.438 95.9414 256.758 95.9414 257.156C95.9414 257.562 95.8047 257.891 95.5312 258.141C95.2656 258.383 94.8555 258.504 94.3008 258.504ZM110.145 258.691H106.348V271.172C106.348 271.891 106.188 272.426 105.867 272.777C105.547 273.121 105.133 273.293 104.625 273.293C104.109 273.293 103.688 273.117 103.359 272.766C103.039 272.414 102.879 271.883 102.879 271.172V258.691H99.082C98.4883 258.691 98.0469 258.562 97.7578 258.305C97.4688 258.039 97.3242 257.691 97.3242 257.262C97.3242 256.816 97.4727 256.465 97.7695 256.207C98.0742 255.949 98.5117 255.82 99.082 255.82H110.145C110.746 255.82 111.191 255.953 111.48 256.219C111.777 256.484 111.926 256.832 111.926 257.262C111.926 257.691 111.777 258.039 111.48 258.305C111.184 258.562 110.738 258.691 110.145 258.691ZM123.457 271.055L122.637 268.898H115.652L114.832 271.102C114.512 271.961 114.238 272.543 114.012 272.848C113.785 273.145 113.414 273.293 112.898 273.293C112.461 273.293 112.074 273.133 111.738 272.812C111.402 272.492 111.234 272.129 111.234 271.723C111.234 271.488 111.273 271.246 111.352 270.996C111.43 270.746 111.559 270.398 111.738 269.953L116.133 258.797C116.258 258.477 116.406 258.094 116.578 257.648C116.758 257.195 116.945 256.82 117.141 256.523C117.344 256.227 117.605 255.988 117.926 255.809C118.254 255.621 118.656 255.527 119.133 255.527C119.617 255.527 120.02 255.621 120.34 255.809C120.668 255.988 120.93 256.223 121.125 256.512C121.328 256.801 121.496 257.113 121.629 257.449C121.77 257.777 121.945 258.219 122.156 258.773L126.645 269.859C126.996 270.703 127.172 271.316 127.172 271.699C127.172 272.098 127.004 272.465 126.668 272.801C126.34 273.129 125.941 273.293 125.473 273.293C125.199 273.293 124.965 273.242 124.77 273.141C124.574 273.047 124.41 272.918 124.277 272.754C124.145 272.582 124 272.324 123.844 271.98C123.695 271.629 123.566 271.32 123.457 271.055ZM116.566 266.285H121.699L119.109 259.195L116.566 266.285ZM134.414 265.652H133.195V271.172C133.195 271.898 133.035 272.434 132.715 272.777C132.395 273.121 131.977 273.293 131.461 273.293C130.906 273.293 130.477 273.113 130.172 272.754C129.867 272.395 129.715 271.867 129.715 271.172V257.953C129.715 257.203 129.883 256.66 130.219 256.324C130.555 255.988 131.098 255.82 131.848 255.82H137.508C138.289 255.82 138.957 255.855 139.512 255.926C140.066 255.988 140.566 256.121 141.012 256.324C141.551 256.551 142.027 256.875 142.441 257.297C142.855 257.719 143.168 258.211 143.379 258.773C143.598 259.328 143.707 259.918 143.707 260.543C143.707 261.824 143.344 262.848 142.617 263.613C141.898 264.379 140.805 264.922 139.336 265.242C139.953 265.57 140.543 266.055 141.105 266.695C141.668 267.336 142.168 268.02 142.605 268.746C143.051 269.465 143.395 270.117 143.637 270.703C143.887 271.281 144.012 271.68 144.012 271.898C144.012 272.125 143.938 272.352 143.789 272.578C143.648 272.797 143.453 272.969 143.203 273.094C142.953 273.227 142.664 273.293 142.336 273.293C141.945 273.293 141.617 273.199 141.352 273.012C141.086 272.832 140.855 272.602 140.66 272.32C140.473 272.039 140.215 271.625 139.887 271.078L138.492 268.758C137.992 267.906 137.543 267.258 137.145 266.812C136.754 266.367 136.355 266.062 135.949 265.898C135.543 265.734 135.031 265.652 134.414 265.652ZM136.406 258.434H133.195V263.156H136.312C137.148 263.156 137.852 263.086 138.422 262.945C138.992 262.797 139.426 262.551 139.723 262.207C140.027 261.855 140.18 261.375 140.18 260.766C140.18 260.289 140.059 259.871 139.816 259.512C139.574 259.145 139.238 258.871 138.809 258.691C138.402 258.52 137.602 258.434 136.406 258.434ZM147.152 271.172V257.637C147.152 256.934 147.312 256.406 147.633 256.055C147.953 255.703 148.367 255.527 148.875 255.527C149.398 255.527 149.82 255.703 150.141 256.055C150.469 256.398 150.633 256.926 150.633 257.637V271.172C150.633 271.883 150.469 272.414 150.141 272.766C149.82 273.117 149.398 273.293 148.875 273.293C148.375 273.293 147.961 273.117 147.633 272.766C147.312 272.406 147.152 271.875 147.152 271.172ZM167.59 267.844C167.59 268.883 167.32 269.816 166.781 270.645C166.25 271.473 165.469 272.121 164.438 272.59C163.406 273.059 162.184 273.293 160.77 273.293C159.074 273.293 157.676 272.973 156.574 272.332C155.793 271.871 155.156 271.258 154.664 270.492C154.18 269.719 153.938 268.969 153.938 268.242C153.938 267.82 154.082 267.461 154.371 267.164C154.668 266.859 155.043 266.707 155.496 266.707C155.863 266.707 156.172 266.824 156.422 267.059C156.68 267.293 156.898 267.641 157.078 268.102C157.297 268.648 157.531 269.105 157.781 269.473C158.039 269.84 158.398 270.145 158.859 270.387C159.32 270.621 159.926 270.738 160.676 270.738C161.707 270.738 162.543 270.5 163.184 270.023C163.832 269.539 164.156 268.938 164.156 268.219C164.156 267.648 163.98 267.188 163.629 266.836C163.285 266.477 162.836 266.203 162.281 266.016C161.734 265.828 161 265.629 160.078 265.418C158.844 265.129 157.809 264.793 156.973 264.41C156.145 264.02 155.484 263.492 154.992 262.828C154.508 262.156 154.266 261.324 154.266 260.332C154.266 259.387 154.523 258.547 155.039 257.812C155.555 257.078 156.301 256.516 157.277 256.125C158.254 255.727 159.402 255.527 160.723 255.527C161.777 255.527 162.688 255.66 163.453 255.926C164.227 256.184 164.867 256.531 165.375 256.969C165.883 257.398 166.254 257.852 166.488 258.328C166.723 258.805 166.84 259.27 166.84 259.723C166.84 260.137 166.691 260.512 166.395 260.848C166.105 261.176 165.742 261.34 165.305 261.34C164.906 261.34 164.602 261.242 164.391 261.047C164.188 260.844 163.965 260.516 163.723 260.062C163.41 259.414 163.035 258.91 162.598 258.551C162.16 258.184 161.457 258 160.488 258C159.59 258 158.863 258.199 158.309 258.598C157.762 258.988 157.488 259.461 157.488 260.016C157.488 260.359 157.582 260.656 157.77 260.906C157.957 261.156 158.215 261.371 158.543 261.551C158.871 261.73 159.203 261.871 159.539 261.973C159.875 262.074 160.43 262.223 161.203 262.418C162.172 262.645 163.047 262.895 163.828 263.168C164.617 263.441 165.285 263.773 165.832 264.164C166.387 264.555 166.816 265.051 167.121 265.652C167.434 266.246 167.59 266.977 167.59 267.844ZM174.047 257.637V263.66L180.879 256.535C181.207 256.191 181.484 255.938 181.711 255.773C181.945 255.609 182.254 255.527 182.637 255.527C183.137 255.527 183.539 255.676 183.844 255.973C184.156 256.262 184.312 256.617 184.312 257.039C184.312 257.547 184.051 258.051 183.527 258.551L179.297 262.559L184.172 269.543C184.516 270.027 184.773 270.453 184.945 270.82C185.117 271.18 185.203 271.531 185.203 271.875C185.203 272.258 185.051 272.59 184.746 272.871C184.449 273.152 184.043 273.293 183.527 273.293C183.043 273.293 182.648 273.191 182.344 272.988C182.039 272.777 181.781 272.5 181.57 272.156C181.359 271.812 181.172 271.5 181.008 271.219L176.895 264.891L174.047 267.621V271.172C174.047 271.891 173.883 272.426 173.555 272.777C173.227 273.121 172.805 273.293 172.289 273.293C171.992 273.293 171.707 273.215 171.434 273.059C171.16 272.902 170.949 272.691 170.801 272.426C170.691 272.207 170.625 271.953 170.602 271.664C170.578 271.375 170.566 270.957 170.566 270.41V257.637C170.566 256.934 170.719 256.406 171.023 256.055C171.336 255.703 171.758 255.527 172.289 255.527C172.812 255.527 173.234 255.703 173.555 256.055C173.883 256.398 174.047 256.926 174.047 257.637Z" fill="white"/>
</svg>
